<svg class="marks" width="663" height="311" viewBox="0 0 663 311" version="1.1" xmlns="http://www.w3.org/2000/svg" xmlns:xlink="http://www.w3.org/1999/xlink"><rect width="663" height="311" style="fill: white;"></rect><g transform="translate(72,10)"><g class="mark-group role-frame root"><g transform="translate(0,0)"><path class="background" d="M0,0h0v0h0Z" style="fill: none;"></path><g><g class="mark-group role-row-header row_header"><g transform="translate(-1,0)"><path class="background" d="M0,0h0v70h0Z" style="fill: none;"></path><g><g class="mark-group role-title"><g transform="translate(-65.234375,35)"><path class="background" d="M0,0h0v0h0Z" style="pointer-events: none; fill: none;"></path><g><g class="mark-text role-title-text" style="pointer-events: none;"><text text-anchor="middle" transform="translate(0,0) rotate(-90) translate(0,11)" style="font-family: sans-serif; font-size: 14px; fill: #000; opacity: 1;">Confirmados</text></g></g><path class="foreground" d="" style="pointer-events: none; display: none; fill: none;"></path></g></g><g class="mark-group role-axis"><g transform="translate(0.5,0.5)"><path class="background" d="M0,0h0v0h0Z" style="pointer-events: none; fill: none;"></path><g><g class="mark-rule role-axis-tick" style="pointer-events: none;"><line transform="translate(0,17)" x2="-5" y2="0" style="fill: none; stroke: #888; stroke-width: 1; opacity: 1;"></line><line transform="translate(0,52)" x2="-5" y2="0" style="fill: none; stroke: #888; stroke-width: 1; opacity: 1;"></line></g><g class="mark-text role-axis-label" style="pointer-events: none;"><text text-anchor="end" transform="translate(-7,21)" style="font-family: sans-serif; font-size: 14px; fill: #000; opacity: 1;">mayo</text><text text-anchor="end" transform="translate(-7,56)" style="font-family: sans-serif; font-size: 14px; fill: #000; opacity: 1;">abril</text></g><g class="mark-rule role-axis-domain" style="pointer-events: none;"><line transform="translate(0,0)" x2="0" y2="70" style="fill: none; stroke: #888; stroke-width: 1; opacity: 1;"></line></g></g><path class="foreground" d="" style="pointer-events: none; display: none; fill: none;"></path></g></g></g><path class="foreground" d="" style="display: none; fill: none;"></path></g><g transform="translate(-1,92)"><path class="background" d="M0,0h0v70h0Z" style="fill: none;"></path><g><g class="mark-group role-title"><g transform="translate(-65.234375,35)"><path class="background" d="M0,0h0v0h0Z" style="pointer-events: none; fill: none;"></path><g><g class="mark-text role-title-text" style="pointer-events: none;"><text text-anchor="middle" transform="translate(0,0) rotate(-90) translate(0,11)" style="font-family: sans-serif; font-size: 14px; fill: #000; opacity: 1;">Probables</text></g></g><path class="foreground" d="" style="pointer-events: none; display: none; fill: none;"></path></g></g><g class="mark-group role-axis"><g transform="translate(0.5,0.5)"><path class="background" d="M0,0h0v0h0Z" style="pointer-events: none; fill: none;"></path><g><g class="mark-rule role-axis-tick" style="pointer-events: none;"><line transform="translate(0,17)" x2="-5" y2="0" style="fill: none; stroke: #888; stroke-width: 1; opacity: 1;"></line><line transform="translate(0,52)" x2="-5" y2="0" style="fill: none; stroke: #888; stroke-width: 1; opacity: 1;"></line></g><g class="mark-text role-axis-label" style="pointer-events: none;"><text text-anchor="end" transform="translate(-7,21)" style="font-family: sans-serif; font-size: 14px; fill: #000; opacity: 1;">mayo</text><text text-anchor="end" transform="translate(-7,56)" style="font-family: sans-serif; font-size: 14px; fill: #000; opacity: 1;">abril</text></g><g class="mark-rule role-axis-domain" style="pointer-events: none;"><line transform="translate(0,0)" x2="0" y2="70" style="fill: none; stroke: #888; stroke-width: 1; opacity: 1;"></line></g></g><path class="foreground" d="" style="pointer-events: none; display: none; fill: none;"></path></g></g></g><path class="foreground" d="" style="display: none; fill: none;"></path></g><g transform="translate(-1,184)"><path class="background" d="M0,0h0v70h0Z" style="fill: none;"></path><g><g class="mark-group role-title"><g transform="translate(-65.234375,35)"><path class="background" d="M0,0h0v0h0Z" style="pointer-events: none; fill: none;"></path><g><g class="mark-text role-title-text" style="pointer-events: none;"><text text-anchor="middle" transform="translate(0,0) rotate(-90) translate(0,11)" style="font-family: sans-serif; font-size: 14px; fill: #000; opacity: 1;">Muertes</text></g></g><path class="foreground" d="" style="pointer-events: none; display: none; fill: none;"></path></g></g><g class="mark-group role-axis"><g transform="translate(0.5,0.5)"><path class="background" d="M0,0h0v0h0Z" style="pointer-events: none; fill: none;"></path><g><g class="mark-rule role-axis-tick" style="pointer-events: none;"><line transform="translate(0,17)" x2="-5" y2="0" style="fill: none; stroke: #888; stroke-width: 1; opacity: 1;"></line><line transform="translate(0,52)" x2="-5" y2="0" style="fill: none; stroke: #888; stroke-width: 1; opacity: 1;"></line></g><g class="mark-text role-axis-label" style="pointer-events: none;"><text text-anchor="end" transform="translate(-7,21)" style="font-family: sans-serif; font-size: 14px; fill: #000; opacity: 1;">mayo</text><text text-anchor="end" transform="translate(-7,56)" style="font-family: sans-serif; font-size: 14px; fill: #000; opacity: 1;">abril</text></g><g class="mark-rule role-axis-domain" style="pointer-events: none;"><line transform="translate(0,0)" x2="0" y2="70" style="fill: none; stroke: #888; stroke-width: 1; opacity: 1;"></line></g></g><path class="foreground" d="" style="pointer-events: none; display: none; fill: none;"></path></g></g></g><path class="foreground" d="" style="display: none; fill: none;"></path></g></g><g class="mark-group role-column-footer column_footer"><g transform="translate(0,255)"><path class="background" d="M0,0h585v0h-585Z" style="fill: none;"></path><g><g class="mark-group role-axis"><g transform="translate(0.5,0.5)"><path class="background" d="M0,0h0v0h0Z" style="pointer-events: none; fill: none;"></path><g><g class="mark-rule role-axis-tick" style="pointer-events: none;"><line transform="translate(48,0)" x2="0" y2="5" style="fill: none; stroke: #888; stroke-width: 1; opacity: 1;"></line><line transform="translate(146,0)" x2="0" y2="5" style="fill: none; stroke: #888; stroke-width: 1; opacity: 1;"></line><line transform="translate(243,0)" x2="0" y2="5" style="fill: none; stroke: #888; stroke-width: 1; opacity: 1;"></line><line transform="translate(341,0)" x2="0" y2="5" style="fill: none; stroke: #888; stroke-width: 1; opacity: 1;"></line><line transform="translate(438,0)" x2="0" y2="5" style="fill: none; stroke: #888; stroke-width: 1; opacity: 1;"></line><line transform="translate(536,0)" x2="0" y2="5" style="fill: none; stroke: #888; stroke-width: 1; opacity: 1;"></line></g><g class="mark-text role-axis-label" style="pointer-events: none;"><text text-anchor="end" transform="translate(48.25,7) rotate(270) translate(0,4)" style="font-family: sans-serif; font-size: 14px; fill: #000; opacity: 1;">01</text><text text-anchor="end" transform="translate(145.75,7) rotate(270) translate(0,4)" style="font-family: sans-serif; font-size: 14px; fill: #000; opacity: 1;">02</text><text text-anchor="end" transform="translate(243.25,7) rotate(270) translate(0,4)" style="font-family: sans-serif; font-size: 14px; fill: #000; opacity: 1;">04</text><text text-anchor="end" transform="translate(340.75,7) rotate(270) translate(0,4)" style="font-family: sans-serif; font-size: 14px; fill: #000; opacity: 1;">05</text><text text-anchor="end" transform="translate(438.25,7) rotate(270) translate(0,4)" style="font-family: sans-serif; font-size: 14px; fill: #000; opacity: 1;">06</text><text text-anchor="end" transform="translate(535.75,7) rotate(270) translate(0,4)" style="font-family: sans-serif; font-size: 14px; fill: #000; opacity: 1;">30</text></g><g class="mark-rule role-axis-domain" style="pointer-events: none;"><line transform="translate(0,0)" x2="585" y2="0" style="fill: none; stroke: #888; stroke-width: 1; opacity: 1;"></line></g><g class="mark-text role-axis-title" style="pointer-events: none;"><text text-anchor="middle" transform="translate(292.5,37.572265625)" style="font-family: sans-serif; font-size: 14px; font-weight: bold; fill: #000; opacity: 1;">Día del mes</text></g></g><path class="foreground" d="" style="pointer-events: none; display: none; fill: none;"></path></g></g></g><path class="foreground" d="" style="display: none; fill: none;"></path></g></g><g class="mark-group role-scope cell"><g transform="translate(0,0)"><path class="background" d="M0.5,0.5h585v70h-585Z" style="fill: none; stroke: #ddd;"></path><g><g class="mark-rect role-mark child_layer_0_marks"><path d="M0,0h97.5v35h-97.5Z" style="fill: rgb(226, 226, 226);"></path></g><g class="mark-text role-mark child_layer_1_marks"><text text-anchor="middle" transform="translate(48.75,20.5)" style="font-family: sans-serif; font-size: 9px; fill: black;">2</text></g></g><path class="foreground" d="" style="display: none; fill: none;"></path></g><g transform="translate(0,92)"><path class="background" d="M0.5,0.5h585v70h-585Z" style="fill: none; stroke: #ddd;"></path><g><g class="mark-rect role-mark child_layer_0_marks"><path d="M487.5,35h97.5v35h-97.5Z" style="fill: rgb(226, 226, 226);"></path><path d="M97.5,0h97.5v35h-97.5Z" style="fill: rgb(226, 226, 226);"></path><path d="M195,0h97.5v35h-97.5Z" style="fill: rgb(100, 100, 100);"></path><path d="M292.5,0h97.5v35h-97.5Z" style="fill: rgb(52, 52, 52);"></path><path d="M390,0h97.5v35h-97.5Z" style="fill: rgb(150, 150, 150);"></path></g><g class="mark-text role-mark child_layer_1_marks"><text text-anchor="middle" transform="translate(536.25,55.5)" style="font-family: sans-serif; font-size: 9px; fill: black;">2</text><text text-anchor="middle" transform="translate(146.25,20.5)" style="font-family: sans-serif; font-size: 9px; fill: black;">2</text><text text-anchor="middle" transform="translate(243.75,20.5)" style="font-family: sans-serif; font-size: 9px; fill: white;">8</text><text text-anchor="middle" transform="translate(341.25,20.5)" style="font-family: sans-serif; font-size: 9px; fill: white;">10</text><text text-anchor="middle" transform="translate(438.75,20.5)" style="font-family: sans-serif; font-size: 9px; fill: white;">6</text></g></g><path class="foreground" d="" style="display: none; fill: none;"></path></g><g transform="translate(0,184)"><path class="background" d="M0.5,0.5h585v70h-585Z" style="fill: none; stroke: #ddd;"></path><g><g class="mark-rect role-mark child_layer_0_marks"><path d="M292.5,0h97.5v35h-97.5Z" style="fill: rgb(238, 235, 234);"></path></g><g class="mark-text role-mark child_layer_1_marks"><text text-anchor="middle" transform="translate(341.25,20.5)" style="font-family: sans-serif; font-size: 9px; fill: black;">1</text></g></g><path class="foreground" d="" style="display: none; fill: none;"></path></g></g></g><path class="foreground" d="" style="display: none; fill: none;"></path></g></g></g></svg>