<svg class="marks" width="609" height="295" viewBox="0 0 609 295" version="1.1" xmlns="http://www.w3.org/2000/svg" xmlns:xlink="http://www.w3.org/1999/xlink"><rect width="609" height="295" style="fill: white;"></rect><g transform="translate(53,27)"><g class="mark-group role-frame root"><g transform="translate(0,0)"><path class="background" d="M0,0h0v0h0Z" style="fill: none;"></path><g><g class="mark-group role-row-header row_header"><g transform="translate(-1,0)"><path class="background" d="M0,0h0v37h0Z" style="fill: none;"></path><g><g class="mark-group role-axis"><g transform="translate(0.5,0.5)"><path class="background" d="M0,0h0v0h0Z" style="pointer-events: none; fill: none;"></path><g><g class="mark-rule role-axis-tick" style="pointer-events: none;"><line transform="translate(0,37)" x2="-5" y2="0" style="fill: none; stroke: #888; stroke-width: 1; opacity: 1;"></line><line transform="translate(0,6)" x2="-5" y2="0" style="fill: none; stroke: #888; stroke-width: 1; opacity: 1;"></line></g><g class="mark-text role-axis-label" style="pointer-events: none;"><text text-anchor="end" transform="translate(-7,41)" style="font-family: sans-serif; font-size: 14px; fill: #000; opacity: 1;">0</text><text text-anchor="end" transform="translate(-7,10.166666666666664)" style="font-family: sans-serif; font-size: 14px; fill: #000; opacity: 1;">20</text></g><g class="mark-rule role-axis-domain" style="pointer-events: none;"><line transform="translate(0,37)" x2="0" y2="-37" style="fill: none; stroke: #888; stroke-width: 1; opacity: 1;"></line></g></g><path class="foreground" d="" style="pointer-events: none; display: none; fill: none;"></path></g></g><g class="mark-group role-title"><g transform="translate(-46.572265625,18.5)"><path class="background" d="M0,0h0v0h0Z" style="pointer-events: none; fill: none;"></path><g><g class="mark-text role-title-text" style="pointer-events: none;"><text text-anchor="middle" transform="translate(0,0) rotate(-90) translate(0,11)" style="font-family: sans-serif; font-size: 14px; fill: #000; opacity: 1;">Confirmados</text></g></g><path class="foreground" d="" style="pointer-events: none; display: none; fill: none;"></path></g></g></g><path class="foreground" d="" style="display: none; fill: none;"></path></g><g transform="translate(-1,74)"><path class="background" d="M0,0h0v37h0Z" style="fill: none;"></path><g><g class="mark-group role-axis"><g transform="translate(0.5,0.5)"><path class="background" d="M0,0h0v0h0Z" style="pointer-events: none; fill: none;"></path><g><g class="mark-rule role-axis-tick" style="pointer-events: none;"><line transform="translate(0,37)" x2="-5" y2="0" style="fill: none; stroke: #888; stroke-width: 1; opacity: 1;"></line><line transform="translate(0,6)" x2="-5" y2="0" style="fill: none; stroke: #888; stroke-width: 1; opacity: 1;"></line></g><g class="mark-text role-axis-label" style="pointer-events: none;"><text text-anchor="end" transform="translate(-7,41)" style="font-family: sans-serif; font-size: 14px; fill: #000; opacity: 1;">0</text><text text-anchor="end" transform="translate(-7,10.166666666666664)" style="font-family: sans-serif; font-size: 14px; fill: #000; opacity: 1;">20</text></g><g class="mark-rule role-axis-domain" style="pointer-events: none;"><line transform="translate(0,37)" x2="0" y2="-37" style="fill: none; stroke: #888; stroke-width: 1; opacity: 1;"></line></g></g><path class="foreground" d="" style="pointer-events: none; display: none; fill: none;"></path></g></g><g class="mark-group role-title"><g transform="translate(-46.572265625,18.5)"><path class="background" d="M0,0h0v0h0Z" style="pointer-events: none; fill: none;"></path><g><g class="mark-text role-title-text" style="pointer-events: none;"><text text-anchor="middle" transform="translate(0,0) rotate(-90) translate(0,11)" style="font-family: sans-serif; font-size: 14px; fill: #000; opacity: 1;">Probables</text></g></g><path class="foreground" d="" style="pointer-events: none; display: none; fill: none;"></path></g></g></g><path class="foreground" d="" style="display: none; fill: none;"></path></g><g transform="translate(-1,148)"><path class="background" d="M0,0h0v37h0Z" style="fill: none;"></path><g><g class="mark-group role-axis"><g transform="translate(0.5,0.5)"><path class="background" d="M0,0h0v0h0Z" style="pointer-events: none; fill: none;"></path><g><g class="mark-rule role-axis-tick" style="pointer-events: none;"><line transform="translate(0,37)" x2="-5" y2="0" style="fill: none; stroke: #888; stroke-width: 1; opacity: 1;"></line><line transform="translate(0,6)" x2="-5" y2="0" style="fill: none; stroke: #888; stroke-width: 1; opacity: 1;"></line></g><g class="mark-text role-axis-label" style="pointer-events: none;"><text text-anchor="end" transform="translate(-7,41)" style="font-family: sans-serif; font-size: 14px; fill: #000; opacity: 1;">0</text><text text-anchor="end" transform="translate(-7,10.166666666666664)" style="font-family: sans-serif; font-size: 14px; fill: #000; opacity: 1;">20</text></g><g class="mark-rule role-axis-domain" style="pointer-events: none;"><line transform="translate(0,37)" x2="0" y2="-37" style="fill: none; stroke: #888; stroke-width: 1; opacity: 1;"></line></g></g><path class="foreground" d="" style="pointer-events: none; display: none; fill: none;"></path></g></g><g class="mark-group role-title"><g transform="translate(-46.572265625,18.5)"><path class="background" d="M0,0h0v0h0Z" style="pointer-events: none; fill: none;"></path><g><g class="mark-text role-title-text" style="pointer-events: none;"><text text-anchor="middle" transform="translate(0,0) rotate(-90) translate(0,11)" style="font-family: sans-serif; font-size: 14px; fill: #000; opacity: 1;">Muertes</text></g></g><path class="foreground" d="" style="pointer-events: none; display: none; fill: none;"></path></g></g></g><path class="foreground" d="" style="display: none; fill: none;"></path></g></g><g class="mark-group role-column-footer column_footer"><g transform="translate(0,196)"><path class="background" d="M0,0h550v0h-550Z" style="fill: none;"></path><g><g class="mark-group role-axis"><g transform="translate(0.5,0.5)"><path class="background" d="M0,0h0v0h0Z" style="pointer-events: none; fill: none;"></path><g><g class="mark-rule role-axis-tick" style="pointer-events: none;"><line transform="translate(34,0)" x2="0" y2="5" style="fill: none; stroke: #888; stroke-width: 1; opacity: 1;"></line><line transform="translate(103,0)" x2="0" y2="5" style="fill: none; stroke: #888; stroke-width: 1; opacity: 1;"></line><line transform="translate(172,0)" x2="0" y2="5" style="fill: none; stroke: #888; stroke-width: 1; opacity: 1;"></line><line transform="translate(241,0)" x2="0" y2="5" style="fill: none; stroke: #888; stroke-width: 1; opacity: 1;"></line><line transform="translate(309,0)" x2="0" y2="5" style="fill: none; stroke: #888; stroke-width: 1; opacity: 1;"></line><line transform="translate(378,0)" x2="0" y2="5" style="fill: none; stroke: #888; stroke-width: 1; opacity: 1;"></line><line transform="translate(447,0)" x2="0" y2="5" style="fill: none; stroke: #888; stroke-width: 1; opacity: 1;"></line><line transform="translate(516,0)" x2="0" y2="5" style="fill: none; stroke: #888; stroke-width: 1; opacity: 1;"></line></g><g class="mark-text role-axis-label" style="pointer-events: none;"><text text-anchor="end" transform="translate(34.375,7) rotate(270) translate(0,4)" style="font-family: sans-serif; font-size: 14px; fill: #000; opacity: 1;">13/05</text><text text-anchor="end" transform="translate(103.125,7) rotate(270) translate(0,4)" style="font-family: sans-serif; font-size: 14px; fill: #000; opacity: 1;">14/05</text><text text-anchor="end" transform="translate(171.875,7) rotate(270) translate(0,4)" style="font-family: sans-serif; font-size: 14px; fill: #000; opacity: 1;">15/05</text><text text-anchor="end" transform="translate(240.625,7) rotate(270) translate(0,4)" style="font-family: sans-serif; font-size: 14px; fill: #000; opacity: 1;">16/05</text><text text-anchor="end" transform="translate(309.375,7) rotate(270) translate(0,4)" style="font-family: sans-serif; font-size: 14px; fill: #000; opacity: 1;">17/05</text><text text-anchor="end" transform="translate(378.125,7) rotate(270) translate(0,4)" style="font-family: sans-serif; font-size: 14px; fill: #000; opacity: 1;">18/05</text><text text-anchor="end" transform="translate(446.875,7) rotate(270) translate(0,4)" style="font-family: sans-serif; font-size: 14px; fill: #000; opacity: 1;">19/05</text><text text-anchor="end" transform="translate(515.625,7) rotate(270) translate(0,4)" style="font-family: sans-serif; font-size: 14px; fill: #000; opacity: 1;">20/05</text></g><g class="mark-rule role-axis-domain" style="pointer-events: none;"><line transform="translate(0,0)" x2="550" y2="0" style="fill: none; stroke: #888; stroke-width: 1; opacity: 1;"></line></g><g class="mark-text role-axis-title" style="pointer-events: none;"><text text-anchor="middle" transform="translate(275,63.0341796875)" style="font-family: sans-serif; font-size: 14px; font-weight: bold; fill: #000; opacity: 1;">Fecha boletín</text></g></g><path class="foreground" d="" style="pointer-events: none; display: none; fill: none;"></path></g></g></g><path class="foreground" d="" style="display: none; fill: none;"></path></g></g><g class="mark-group role-scope cell"><g transform="translate(0,0)"><path class="background" d="M0.5,0.5h550v37h-550Z" style="fill: none; stroke: #ddd;"></path><g><g class="mark-group role-axis"><g transform="translate(0.5,0.5)"><path class="background" d="M0,0h0v0h0Z" style="pointer-events: none; fill: none;"></path><g><g class="mark-rule role-axis-grid" style="pointer-events: none;"><line transform="translate(0,37)" x2="550" y2="0" style="fill: none; stroke: #ddd; stroke-width: 1; opacity: 1;"></line><line transform="translate(0,6)" x2="550" y2="0" style="fill: none; stroke: #ddd; stroke-width: 1; opacity: 1;"></line></g></g><path class="foreground" d="" style="pointer-events: none; display: none; fill: none;"></path></g></g><g class="mark-group role-scope child_layer_0_layer_0_pathgroup"><g transform="translate(0,0)"><path class="background" d="M0,0h550v37h-550Z" style="fill: none;"></path><g><g class="mark-line role-mark child_layer_0_layer_0_marks"><path d="M34.375,22.304435483870968L103.125,22.493169398907106L171.875,10.194892473118278L240.625,5.691319444444443L309.375,2.395966029723991L378.125,2.489648033126294L446.875,2.2688679245283034L515.625,2.2344409282700433" style="fill: none; stroke: #4c78a8; stroke-width: 3;"></path></g></g><path class="foreground" d="" style="display: none; fill: none;"></path></g></g><g class="mark-symbol role-mark child_layer_0_layer_1_marks"><path transform="translate(34.375,22.304435483870968)" d="M3.5355339059327378,0A3.5355339059327378,3.5355339059327378,0,1,1,-3.5355339059327378,0A3.5355339059327378,3.5355339059327378,0,1,1,3.5355339059327378,0" style="fill: #4c78a8; stroke-width: 2; opacity: 1;"></path><path transform="translate(103.125,22.493169398907106)" d="M3.5355339059327378,0A3.5355339059327378,3.5355339059327378,0,1,1,-3.5355339059327378,0A3.5355339059327378,3.5355339059327378,0,1,1,3.5355339059327378,0" style="fill: #4c78a8; stroke-width: 2; opacity: 1;"></path><path transform="translate(171.875,10.194892473118278)" d="M3.5355339059327378,0A3.5355339059327378,3.5355339059327378,0,1,1,-3.5355339059327378,0A3.5355339059327378,3.5355339059327378,0,1,1,3.5355339059327378,0" style="fill: #4c78a8; stroke-width: 2; opacity: 1;"></path><path transform="translate(240.625,5.691319444444443)" d="M3.5355339059327378,0A3.5355339059327378,3.5355339059327378,0,1,1,-3.5355339059327378,0A3.5355339059327378,3.5355339059327378,0,1,1,3.5355339059327378,0" style="fill: #4c78a8; stroke-width: 2; opacity: 1;"></path><path transform="translate(309.375,2.395966029723991)" d="M3.5355339059327378,0A3.5355339059327378,3.5355339059327378,0,1,1,-3.5355339059327378,0A3.5355339059327378,3.5355339059327378,0,1,1,3.5355339059327378,0" style="fill: #4c78a8; stroke-width: 2; opacity: 1;"></path><path transform="translate(378.125,2.489648033126294)" d="M3.5355339059327378,0A3.5355339059327378,3.5355339059327378,0,1,1,-3.5355339059327378,0A3.5355339059327378,3.5355339059327378,0,1,1,3.5355339059327378,0" style="fill: #4c78a8; stroke-width: 2; opacity: 1;"></path><path transform="translate(446.875,2.2688679245283034)" d="M3.5355339059327378,0A3.5355339059327378,3.5355339059327378,0,1,1,-3.5355339059327378,0A3.5355339059327378,3.5355339059327378,0,1,1,3.5355339059327378,0" style="fill: #4c78a8; stroke-width: 2; opacity: 1;"></path><path transform="translate(515.625,2.2344409282700433)" d="M3.5355339059327378,0A3.5355339059327378,3.5355339059327378,0,1,1,-3.5355339059327378,0A3.5355339059327378,3.5355339059327378,0,1,1,3.5355339059327378,0" style="fill: #4c78a8; stroke-width: 2; opacity: 1;"></path></g><g class="mark-text role-mark child_layer_1_marks"><text text-anchor="middle" transform="translate(34.375,45.30443548387097)" style="font-family: sans-serif; font-size: 15px; fill: #4c78a8;">9.5</text><text text-anchor="middle" transform="translate(103.125,45.493169398907106)" style="font-family: sans-serif; font-size: 15px; fill: #4c78a8;">9.4</text><text text-anchor="middle" transform="translate(171.875,33.19489247311828)" style="font-family: sans-serif; font-size: 15px; fill: #4c78a8;">17.4</text><text text-anchor="middle" transform="translate(240.625,28.691319444444442)" style="font-family: sans-serif; font-size: 15px; fill: #4c78a8;">20.3</text><text text-anchor="middle" transform="translate(309.375,25.39596602972399)" style="font-family: sans-serif; font-size: 15px; fill: #4c78a8;">22.4</text><text text-anchor="middle" transform="translate(378.125,25.489648033126294)" style="font-family: sans-serif; font-size: 15px; fill: #4c78a8;">22.4</text><text text-anchor="middle" transform="translate(446.875,25.268867924528305)" style="font-family: sans-serif; font-size: 15px; fill: #4c78a8;">22.5</text><text text-anchor="middle" transform="translate(515.625,25.234440928270043)" style="font-family: sans-serif; font-size: 15px; fill: #4c78a8;">22.6</text></g></g><path class="foreground" d="" style="display: none; fill: none;"></path></g><g transform="translate(0,74)"><path class="background" d="M0.5,0.5h550v37h-550Z" style="fill: none; stroke: #ddd;"></path><g><g class="mark-group role-axis"><g transform="translate(0.5,0.5)"><path class="background" d="M0,0h0v0h0Z" style="pointer-events: none; fill: none;"></path><g><g class="mark-rule role-axis-grid" style="pointer-events: none;"><line transform="translate(0,37)" x2="550" y2="0" style="fill: none; stroke: #ddd; stroke-width: 1; opacity: 1;"></line><line transform="translate(0,6)" x2="550" y2="0" style="fill: none; stroke: #ddd; stroke-width: 1; opacity: 1;"></line></g></g><path class="foreground" d="" style="pointer-events: none; display: none; fill: none;"></path></g></g><g class="mark-group role-scope child_layer_0_layer_0_pathgroup"><g transform="translate(0,0)"><path class="background" d="M0,0h550v37h-550Z" style="fill: none;"></path><g><g class="mark-line role-mark child_layer_0_layer_0_marks"><path d="M34.375,25.762865911237014L103.125,25.496101364522417L171.875,25.4787558685446L240.625,25.469529085872576L309.375,23.68432418699187L378.125,23.854831560283685L446.875,23.79854368932039L515.625,23.835879629629627" style="fill: none; stroke: #f58518; stroke-width: 3;"></path></g></g><path class="foreground" d="" style="display: none; fill: none;"></path></g></g><g class="mark-symbol role-mark child_layer_0_layer_1_marks"><path transform="translate(34.375,25.762865911237014)" d="M3.5355339059327378,0A3.5355339059327378,3.5355339059327378,0,1,1,-3.5355339059327378,0A3.5355339059327378,3.5355339059327378,0,1,1,3.5355339059327378,0" style="fill: #f58518; stroke-width: 2; opacity: 1;"></path><path transform="translate(103.125,25.496101364522417)" d="M3.5355339059327378,0A3.5355339059327378,3.5355339059327378,0,1,1,-3.5355339059327378,0A3.5355339059327378,3.5355339059327378,0,1,1,3.5355339059327378,0" style="fill: #f58518; stroke-width: 2; opacity: 1;"></path><path transform="translate(171.875,25.4787558685446)" d="M3.5355339059327378,0A3.5355339059327378,3.5355339059327378,0,1,1,-3.5355339059327378,0A3.5355339059327378,3.5355339059327378,0,1,1,3.5355339059327378,0" style="fill: #f58518; stroke-width: 2; opacity: 1;"></path><path transform="translate(240.625,25.469529085872576)" d="M3.5355339059327378,0A3.5355339059327378,3.5355339059327378,0,1,1,-3.5355339059327378,0A3.5355339059327378,3.5355339059327378,0,1,1,3.5355339059327378,0" style="fill: #f58518; stroke-width: 2; opacity: 1;"></path><path transform="translate(309.375,23.68432418699187)" d="M3.5355339059327378,0A3.5355339059327378,3.5355339059327378,0,1,1,-3.5355339059327378,0A3.5355339059327378,3.5355339059327378,0,1,1,3.5355339059327378,0" style="fill: #f58518; stroke-width: 2; opacity: 1;"></path><path transform="translate(378.125,23.854831560283685)" d="M3.5355339059327378,0A3.5355339059327378,3.5355339059327378,0,1,1,-3.5355339059327378,0A3.5355339059327378,3.5355339059327378,0,1,1,3.5355339059327378,0" style="fill: #f58518; stroke-width: 2; opacity: 1;"></path><path transform="translate(446.875,23.79854368932039)" d="M3.5355339059327378,0A3.5355339059327378,3.5355339059327378,0,1,1,-3.5355339059327378,0A3.5355339059327378,3.5355339059327378,0,1,1,3.5355339059327378,0" style="fill: #f58518; stroke-width: 2; opacity: 1;"></path><path transform="translate(515.625,23.835879629629627)" d="M3.5355339059327378,0A3.5355339059327378,3.5355339059327378,0,1,1,-3.5355339059327378,0A3.5355339059327378,3.5355339059327378,0,1,1,3.5355339059327378,0" style="fill: #f58518; stroke-width: 2; opacity: 1;"></path></g><g class="mark-text role-mark child_layer_1_marks"><text text-anchor="middle" transform="translate(34.375,48.762865911237014)" style="font-family: sans-serif; font-size: 15px; fill: #f58518;">7.3</text><text text-anchor="middle" transform="translate(103.125,48.49610136452242)" style="font-family: sans-serif; font-size: 15px; fill: #f58518;">7.5</text><text text-anchor="middle" transform="translate(171.875,48.478755868544596)" style="font-family: sans-serif; font-size: 15px; fill: #f58518;">7.5</text><text text-anchor="middle" transform="translate(240.625,48.46952908587258)" style="font-family: sans-serif; font-size: 15px; fill: #f58518;">7.5</text><text text-anchor="middle" transform="translate(309.375,46.68432418699187)" style="font-family: sans-serif; font-size: 15px; fill: #f58518;">8.6</text><text text-anchor="middle" transform="translate(378.125,46.854831560283685)" style="font-family: sans-serif; font-size: 15px; fill: #f58518;">8.5</text><text text-anchor="middle" transform="translate(446.875,46.79854368932039)" style="font-family: sans-serif; font-size: 15px; fill: #f58518;">8.6</text><text text-anchor="middle" transform="translate(515.625,46.83587962962963)" style="font-family: sans-serif; font-size: 15px; fill: #f58518;">8.5</text></g></g><path class="foreground" d="" style="display: none; fill: none;"></path></g><g transform="translate(0,148)"><path class="background" d="M0.5,0.5h550v37h-550Z" style="fill: none; stroke: #ddd;"></path><g><g class="mark-group role-axis"><g transform="translate(0.5,0.5)"><path class="background" d="M0,0h0v0h0Z" style="pointer-events: none; fill: none;"></path><g><g class="mark-rule role-axis-grid" style="pointer-events: none;"><line transform="translate(0,37)" x2="550" y2="0" style="fill: none; stroke: #ddd; stroke-width: 1; opacity: 1;"></line><line transform="translate(0,6)" x2="550" y2="0" style="fill: none; stroke: #ddd; stroke-width: 1; opacity: 1;"></line></g></g><path class="foreground" d="" style="pointer-events: none; display: none; fill: none;"></path></g></g><g class="mark-group role-scope child_layer_0_layer_0_pathgroup"><g transform="translate(0,0)"><path class="background" d="M0,0h550v37h-550Z" style="fill: none;"></path><g><g class="mark-line role-mark child_layer_0_layer_0_marks"><path d="M34.375,20.555555555555557L103.125,19.733333333333338L171.875,18.610119047619047L240.625,20.940972222222225L309.375,17.93939393939394L378.125,16.1875L446.875,14.954166666666667L515.625,20.898148148148152" style="fill: none; stroke: #e45756; stroke-width: 3;"></path></g></g><path class="foreground" d="" style="display: none; fill: none;"></path></g></g><g class="mark-symbol role-mark child_layer_0_layer_1_marks"><path transform="translate(34.375,20.555555555555557)" d="M3.5355339059327378,0A3.5355339059327378,3.5355339059327378,0,1,1,-3.5355339059327378,0A3.5355339059327378,3.5355339059327378,0,1,1,3.5355339059327378,0" style="fill: #e45756; stroke-width: 2; opacity: 1;"></path><path transform="translate(103.125,19.733333333333338)" d="M3.5355339059327378,0A3.5355339059327378,3.5355339059327378,0,1,1,-3.5355339059327378,0A3.5355339059327378,3.5355339059327378,0,1,1,3.5355339059327378,0" style="fill: #e45756; stroke-width: 2; opacity: 1;"></path><path transform="translate(171.875,18.610119047619047)" d="M3.5355339059327378,0A3.5355339059327378,3.5355339059327378,0,1,1,-3.5355339059327378,0A3.5355339059327378,3.5355339059327378,0,1,1,3.5355339059327378,0" style="fill: #e45756; stroke-width: 2; opacity: 1;"></path><path transform="translate(240.625,20.940972222222225)" d="M3.5355339059327378,0A3.5355339059327378,3.5355339059327378,0,1,1,-3.5355339059327378,0A3.5355339059327378,3.5355339059327378,0,1,1,3.5355339059327378,0" style="fill: #e45756; stroke-width: 2; opacity: 1;"></path><path transform="translate(309.375,17.93939393939394)" d="M3.5355339059327378,0A3.5355339059327378,3.5355339059327378,0,1,1,-3.5355339059327378,0A3.5355339059327378,3.5355339059327378,0,1,1,3.5355339059327378,0" style="fill: #e45756; stroke-width: 2; opacity: 1;"></path><path transform="translate(378.125,16.1875)" d="M3.5355339059327378,0A3.5355339059327378,3.5355339059327378,0,1,1,-3.5355339059327378,0A3.5355339059327378,3.5355339059327378,0,1,1,3.5355339059327378,0" style="fill: #e45756; stroke-width: 2; opacity: 1;"></path><path transform="translate(446.875,14.954166666666667)" d="M3.5355339059327378,0A3.5355339059327378,3.5355339059327378,0,1,1,-3.5355339059327378,0A3.5355339059327378,3.5355339059327378,0,1,1,3.5355339059327378,0" style="fill: #e45756; stroke-width: 2; opacity: 1;"></path><path transform="translate(515.625,20.898148148148152)" d="M3.5355339059327378,0A3.5355339059327378,3.5355339059327378,0,1,1,-3.5355339059327378,0A3.5355339059327378,3.5355339059327378,0,1,1,3.5355339059327378,0" style="fill: #e45756; stroke-width: 2; opacity: 1;"></path></g><g class="mark-text role-mark child_layer_1_marks"><text text-anchor="middle" transform="translate(34.375,43.55555555555556)" style="font-family: sans-serif; font-size: 15px; fill: #e45756;">10.7</text><text text-anchor="middle" transform="translate(103.125,42.733333333333334)" style="font-family: sans-serif; font-size: 15px; fill: #e45756;">11.2</text><text text-anchor="middle" transform="translate(171.875,41.61011904761905)" style="font-family: sans-serif; font-size: 15px; fill: #e45756;">11.9</text><text text-anchor="middle" transform="translate(240.625,43.94097222222223)" style="font-family: sans-serif; font-size: 15px; fill: #e45756;">10.4</text><text text-anchor="middle" transform="translate(309.375,40.93939393939394)" style="font-family: sans-serif; font-size: 15px; fill: #e45756;">12.4</text><text text-anchor="middle" transform="translate(378.125,39.1875)" style="font-family: sans-serif; font-size: 15px; fill: #e45756;">13.5</text><text text-anchor="middle" transform="translate(446.875,37.954166666666666)" style="font-family: sans-serif; font-size: 15px; fill: #e45756;">14.3</text><text text-anchor="middle" transform="translate(515.625,43.89814814814815)" style="font-family: sans-serif; font-size: 15px; fill: #e45756;">10.4</text></g></g><path class="foreground" d="" style="display: none; fill: none;"></path></g></g></g><path class="foreground" d="" style="display: none; fill: none;"></path></g></g></g></svg>