<svg class="marks" width="632" height="314" viewBox="0 0 632 314" version="1.1" xmlns="http://www.w3.org/2000/svg" xmlns:xlink="http://www.w3.org/1999/xlink"><rect width="632" height="314" style="fill: white;"></rect><g transform="translate(51,5)"><g class="mark-group role-frame root"><g transform="translate(0,0)"><path class="background" d="M0.5,0.5h575v265h-575Z" style="fill: none; stroke: #ddd;"></path><g><g class="mark-group role-axis"><g transform="translate(0.5,265.5)"><path class="background" d="M0,0h0v0h0Z" style="pointer-events: none; fill: none;"></path><g><g class="mark-rule role-axis-grid" style="pointer-events: none;"><line transform="translate(9,-265)" x2="0" y2="265" style="fill: none; stroke: #ddd; stroke-width: 1; opacity: 1;"></line><line transform="translate(72,-265)" x2="0" y2="265" style="fill: none; stroke: #ddd; stroke-width: 1; opacity: 1;"></line><line transform="translate(135,-265)" x2="0" y2="265" style="fill: none; stroke: #ddd; stroke-width: 1; opacity: 1;"></line><line transform="translate(198,-265)" x2="0" y2="265" style="fill: none; stroke: #ddd; stroke-width: 1; opacity: 1;"></line><line transform="translate(261,-265)" x2="0" y2="265" style="fill: none; stroke: #ddd; stroke-width: 1; opacity: 1;"></line><line transform="translate(323,-265)" x2="0" y2="265" style="fill: none; stroke: #ddd; stroke-width: 1; opacity: 1;"></line><line transform="translate(386,-265)" x2="0" y2="265" style="fill: none; stroke: #ddd; stroke-width: 1; opacity: 1;"></line><line transform="translate(449,-265)" x2="0" y2="265" style="fill: none; stroke: #ddd; stroke-width: 1; opacity: 1;"></line><line transform="translate(512,-265)" x2="0" y2="265" style="fill: none; stroke: #ddd; stroke-width: 1; opacity: 1;"></line><line transform="translate(575,-265)" x2="0" y2="265" style="fill: none; stroke: #ddd; stroke-width: 1; opacity: 1;"></line></g></g><path class="foreground" d="" style="pointer-events: none; display: none; fill: none;"></path></g></g><g class="mark-group role-axis"><g transform="translate(0.5,0.5)"><path class="background" d="M0,0h0v0h0Z" style="pointer-events: none; fill: none;"></path><g><g class="mark-rule role-axis-grid" style="pointer-events: none;"><line transform="translate(0,265)" x2="575" y2="0" style="fill: none; stroke: #ddd; stroke-width: 1; opacity: 1;"></line><line transform="translate(0,224)" x2="575" y2="0" style="fill: none; stroke: #ddd; stroke-width: 1; opacity: 1;"></line><line transform="translate(0,183)" x2="575" y2="0" style="fill: none; stroke: #ddd; stroke-width: 1; opacity: 1;"></line><line transform="translate(0,143)" x2="575" y2="0" style="fill: none; stroke: #ddd; stroke-width: 1; opacity: 1;"></line><line transform="translate(0,102)" x2="575" y2="0" style="fill: none; stroke: #ddd; stroke-width: 1; opacity: 1;"></line><line transform="translate(0,61)" x2="575" y2="0" style="fill: none; stroke: #ddd; stroke-width: 1; opacity: 1;"></line><line transform="translate(0,20)" x2="575" y2="0" style="fill: none; stroke: #ddd; stroke-width: 1; opacity: 1;"></line></g></g><path class="foreground" d="" style="pointer-events: none; display: none; fill: none;"></path></g></g><g class="mark-group role-axis"><g transform="translate(0.5,265.5)"><path class="background" d="M0,0h0v0h0Z" style="pointer-events: none; fill: none;"></path><g><g class="mark-rule role-axis-tick" style="pointer-events: none;"><line transform="translate(9,0)" x2="0" y2="5" style="fill: none; stroke: #888; stroke-width: 1; opacity: 1;"></line><line transform="translate(72,0)" x2="0" y2="5" style="fill: none; stroke: #888; stroke-width: 1; opacity: 1;"></line><line transform="translate(135,0)" x2="0" y2="5" style="fill: none; stroke: #888; stroke-width: 1; opacity: 1;"></line><line transform="translate(198,0)" x2="0" y2="5" style="fill: none; stroke: #888; stroke-width: 1; opacity: 1;"></line><line transform="translate(261,0)" x2="0" y2="5" style="fill: none; stroke: #888; stroke-width: 1; opacity: 1;"></line><line transform="translate(323,0)" x2="0" y2="5" style="fill: none; stroke: #888; stroke-width: 1; opacity: 1;"></line><line transform="translate(386,0)" x2="0" y2="5" style="fill: none; stroke: #888; stroke-width: 1; opacity: 1;"></line><line transform="translate(449,0)" x2="0" y2="5" style="fill: none; stroke: #888; stroke-width: 1; opacity: 1;"></line><line transform="translate(512,0)" x2="0" y2="5" style="fill: none; stroke: #888; stroke-width: 1; opacity: 1;"></line><line transform="translate(575,0)" x2="0" y2="5" style="fill: none; stroke: #888; stroke-width: 1; opacity: 1;"></line></g><g class="mark-text role-axis-label" style="pointer-events: none;"><text text-anchor="middle" transform="translate(8.984375,18)" style="font-family: sans-serif; font-size: 14px; fill: #000; opacity: 1;">15/03</text><text text-anchor="middle" transform="translate(71.875,18)" style="font-family: sans-serif; font-size: 14px; fill: #000; opacity: 1;">22/03</text><text text-anchor="middle" transform="translate(134.765625,18)" style="font-family: sans-serif; font-size: 14px; fill: #000; opacity: 1;">29/03</text><text text-anchor="middle" transform="translate(197.65625,18)" style="font-family: sans-serif; font-size: 14px; fill: #000; opacity: 1;">05/04</text><text text-anchor="middle" transform="translate(260.546875,18)" style="font-family: sans-serif; font-size: 14px; fill: #000; opacity: 1;">12/04</text><text text-anchor="middle" transform="translate(323.4375,18)" style="font-family: sans-serif; font-size: 14px; fill: #000; opacity: 1;">19/04</text><text text-anchor="middle" transform="translate(386.328125,18)" style="font-family: sans-serif; font-size: 14px; fill: #000; opacity: 1;">26/04</text><text text-anchor="middle" transform="translate(449.21875,18)" style="font-family: sans-serif; font-size: 14px; fill: #000; opacity: 1;">03/05</text><text text-anchor="middle" transform="translate(512.109375,18)" style="font-family: sans-serif; font-size: 14px; fill: #000; opacity: 1;">10/05</text><text text-anchor="end" transform="translate(575,18)" style="font-family: sans-serif; font-size: 14px; fill: #000; opacity: 1;">17/05</text></g><g class="mark-rule role-axis-domain" style="pointer-events: none;"><line transform="translate(0,0)" x2="575" y2="0" style="fill: none; stroke: #888; stroke-width: 1; opacity: 1;"></line></g><g class="mark-text role-axis-title" style="pointer-events: none;"><text text-anchor="middle" transform="translate(287.5,36)" style="font-family: sans-serif; font-size: 14px; font-weight: bold; fill: #000; opacity: 1;">Fecha de toma de muestra</text></g></g><path class="foreground" d="" style="pointer-events: none; display: none; fill: none;"></path></g></g><g class="mark-group role-axis"><g transform="translate(0.5,0.5)"><path class="background" d="M0,0h0v0h0Z" style="pointer-events: none; fill: none;"></path><g><g class="mark-rule role-axis-tick" style="pointer-events: none;"><line transform="translate(0,265)" x2="-5" y2="0" style="fill: none; stroke: #888; stroke-width: 1; opacity: 1;"></line><line transform="translate(0,224)" x2="-5" y2="0" style="fill: none; stroke: #888; stroke-width: 1; opacity: 1;"></line><line transform="translate(0,183)" x2="-5" y2="0" style="fill: none; stroke: #888; stroke-width: 1; opacity: 1;"></line><line transform="translate(0,143)" x2="-5" y2="0" style="fill: none; stroke: #888; stroke-width: 1; opacity: 1;"></line><line transform="translate(0,102)" x2="-5" y2="0" style="fill: none; stroke: #888; stroke-width: 1; opacity: 1;"></line><line transform="translate(0,61)" x2="-5" y2="0" style="fill: none; stroke: #888; stroke-width: 1; opacity: 1;"></line><line transform="translate(0,20)" x2="-5" y2="0" style="fill: none; stroke: #888; stroke-width: 1; opacity: 1;"></line></g><g class="mark-text role-axis-label" style="pointer-events: none;"><text text-anchor="end" transform="translate(-7,269)" style="font-family: sans-serif; font-size: 14px; fill: #000; opacity: 1;">-30</text><text text-anchor="end" transform="translate(-7,228.23076923076923)" style="font-family: sans-serif; font-size: 14px; fill: #000; opacity: 1;">-20</text><text text-anchor="end" transform="translate(-7,187.46153846153845)" style="font-family: sans-serif; font-size: 14px; fill: #000; opacity: 1;">-10</text><text text-anchor="end" transform="translate(-7,146.69230769230768)" style="font-family: sans-serif; font-size: 14px; fill: #000; opacity: 1;">0</text><text text-anchor="end" transform="translate(-7,105.92307692307692)" style="font-family: sans-serif; font-size: 14px; fill: #000; opacity: 1;">10</text><text text-anchor="end" transform="translate(-7,65.15384615384613)" style="font-family: sans-serif; font-size: 14px; fill: #000; opacity: 1;">20</text><text text-anchor="end" transform="translate(-7,24.384615384615373)" style="font-family: sans-serif; font-size: 14px; fill: #000; opacity: 1;">30</text></g><g class="mark-rule role-axis-domain" style="pointer-events: none;"><line transform="translate(0,265)" x2="0" y2="-265" style="fill: none; stroke: #888; stroke-width: 1; opacity: 1;"></line></g><g class="mark-text role-axis-title" style="pointer-events: none;"><text text-anchor="middle" transform="translate(-31.234375,132.5) rotate(-90) translate(0,-3)" style="font-family: sans-serif; font-size: 14px; font-weight: bold; fill: #000; opacity: 1;">Positivos menos confirmados</text></g></g><path class="foreground" d="" style="pointer-events: none; display: none; fill: none;"></path></g></g><g class="mark-rect role-mark marks"><path d="M1,142.69230769230768h7.984375v12.230769230769226h-7.984375Z" style="fill: orange;"></path><path d="M18.96875,142.69230769230768h7.984375v16.30769230769232h-7.984375Z" style="fill: orange;"></path><path d="M27.953125,142.69230769230768h7.984375v20.384615384615415h-7.984375Z" style="fill: orange;"></path><path d="M36.9375,142.69230769230768h7.984375v0h-7.984375Z" style="fill: teal;"></path><path d="M45.921875,142.69230769230768h7.984375v4.076923076923094h-7.984375Z" style="fill: orange;"></path><path d="M54.90625,138.61538461538458h7.984375v4.076923076923094h-7.984375Z" style="fill: teal;"></path><path d="M63.890625,138.61538461538458h7.984375v4.076923076923094h-7.984375Z" style="fill: teal;"></path><path d="M72.875,142.69230769230768h7.984375v32.61538461538461h-7.984375Z" style="fill: orange;"></path><path d="M81.859375,142.69230769230768h7.984375v36.69230769230771h-7.984375Z" style="fill: orange;"></path><path d="M90.84375,142.69230769230768h7.984375v0h-7.984375Z" style="fill: teal;"></path><path d="M99.828125,142.69230769230768h7.984375v28.53846153846152h-7.984375Z" style="fill: orange;"></path><path d="M108.8125,85.6153846153846h7.984375v57.07692307692308h-7.984375Z" style="fill: teal;"></path><path d="M117.796875,142.69230769230768h7.984375v16.30769230769232h-7.984375Z" style="fill: orange;"></path><path d="M126.78125,142.69230769230768h7.984375v24.46153846153848h-7.984375Z" style="fill: orange;"></path><path d="M135.765625,142.69230769230768h7.984375v40.769230769230774h-7.984375Z" style="fill: orange;"></path><path d="M144.75,142.69230769230768h7.984375v4.076923076923094h-7.984375Z" style="fill: orange;"></path><path d="M153.734375,142.69230769230768h7.984375v40.769230769230774h-7.984375Z" style="fill: orange;"></path><path d="M162.71875,142.69230769230768h7.984375v114.15384615384619h-7.984375Z" style="fill: orange;"></path><path d="M171.703125,142.69230769230768h7.984375v89.69230769230771h-7.984375Z" style="fill: orange;"></path><path d="M180.6875,142.69230769230768h7.984375v65.23076923076925h-7.984375Z" style="fill: orange;"></path><path d="M189.671875,142.69230769230768h7.984375v24.46153846153848h-7.984375Z" style="fill: orange;"></path><path d="M198.65625,130.46153846153848h7.984375v12.230769230769198h-7.984375Z" style="fill: teal;"></path><path d="M207.640625,142.69230769230768h7.984375v8.15384615384616h-7.984375Z" style="fill: orange;"></path><path d="M216.625,138.61538461538458h7.984375v4.076923076923094h-7.984375Z" style="fill: teal;"></path><path d="M225.609375,97.84615384615385h7.984375v44.846153846153825h-7.984375Z" style="fill: teal;"></path><path d="M234.59375,142.69230769230768h7.984375v4.076923076923094h-7.984375Z" style="fill: orange;"></path><path d="M243.578125,122.30769230769232h7.984375v20.38461538461536h-7.984375Z" style="fill: teal;"></path><path d="M252.5625,138.61538461538458h7.984375v4.076923076923094h-7.984375Z" style="fill: teal;"></path><path d="M261.546875,134.53846153846152h7.984375v8.15384615384616h-7.984375Z" style="fill: teal;"></path><path d="M270.53125,77.46153846153845h7.984375v65.23076923076923h-7.984375Z" style="fill: teal;"></path><path d="M279.515625,81.53846153846155h7.984375v61.15384615384613h-7.984375Z" style="fill: teal;"></path><path d="M288.5,44.84615384615383h7.984375v97.84615384615384h-7.984375Z" style="fill: teal;"></path><path d="M297.484375,73.38461538461539h7.984375v69.30769230769229h-7.984375Z" style="fill: teal;"></path><path d="M306.46875,89.6923076923077h7.984375v52.999999999999986h-7.984375Z" style="fill: teal;"></path><path d="M315.453125,89.6923076923077h7.984375v52.999999999999986h-7.984375Z" style="fill: teal;"></path><path d="M324.4375,130.46153846153848h7.984375v12.230769230769198h-7.984375Z" style="fill: teal;"></path><path d="M333.421875,40.769230769230774h7.984375v101.9230769230769h-7.984375Z" style="fill: teal;"></path><path d="M342.40625,16.30769230769231h7.984375v126.38461538461537h-7.984375Z" style="fill: teal;"></path><path d="M351.390625,20.384615384615373h7.984375v122.3076923076923h-7.984375Z" style="fill: teal;"></path><path d="M360.375,69.30769230769229h7.984375v73.38461538461539h-7.984375Z" style="fill: teal;"></path><path d="M369.359375,73.38461538461539h7.984375v69.30769230769229h-7.984375Z" style="fill: teal;"></path><path d="M378.34375,118.23076923076923h7.984375v24.461538461538453h-7.984375Z" style="fill: teal;"></path><path d="M396.3125,36.69230769230768h7.984375v106h-7.984375Z" style="fill: teal;"></path><path d="M405.296875,40.769230769230774h7.984375v101.9230769230769h-7.984375Z" style="fill: teal;"></path><path d="M414.28125,32.61538461538462h7.984375v110.07692307692307h-7.984375Z" style="fill: teal;"></path><path d="M423.265625,48.92307692307693h7.984375v93.76923076923075h-7.984375Z" style="fill: teal;"></path><path d="M432.25,61.15384615384614h7.984375v81.53846153846155h-7.984375Z" style="fill: teal;"></path><path d="M441.234375,97.84615384615385h7.984375v44.846153846153825h-7.984375Z" style="fill: teal;"></path><path d="M450.21875,142.69230769230768h7.984375v0h-7.984375Z" style="fill: teal;"></path><path d="M459.203125,89.6923076923077h7.984375v52.999999999999986h-7.984375Z" style="fill: teal;"></path><path d="M468.1875,101.92307692307692h7.984375v40.76923076923076h-7.984375Z" style="fill: teal;"></path><path d="M477.171875,118.23076923076923h7.984375v24.461538461538453h-7.984375Z" style="fill: teal;"></path><path d="M486.15625,138.61538461538458h7.984375v4.076923076923094h-7.984375Z" style="fill: teal;"></path><path d="M495.140625,93.76923076923076h7.984375v48.92307692307692h-7.984375Z" style="fill: teal;"></path><path d="M504.125,138.61538461538458h7.984375v4.076923076923094h-7.984375Z" style="fill: teal;"></path><path d="M522.09375,122.30769230769232h7.984375v20.38461538461536h-7.984375Z" style="fill: teal;"></path><path d="M531.078125,122.30769230769232h7.984375v20.38461538461536h-7.984375Z" style="fill: teal;"></path><path d="M540.0625,126.38461538461537h7.984375v16.307692307692307h-7.984375Z" style="fill: teal;"></path><path d="M549.046875,122.30769230769232h7.984375v20.38461538461536h-7.984375Z" style="fill: teal;"></path><path d="M558.03125,110.07692307692307h7.984375v32.61538461538461h-7.984375Z" style="fill: teal;"></path><path d="M567.015625,134.53846153846152h7.984375v8.15384615384616h-7.984375Z" style="fill: teal;"></path></g></g><path class="foreground" d="" style="display: none; fill: none;"></path></g></g></g></svg>