<svg class="marks" width="644" height="463" viewBox="0 0 644 463" version="1.1" xmlns="http://www.w3.org/2000/svg" xmlns:xlink="http://www.w3.org/1999/xlink"><rect width="644" height="463" style="fill: white;"></rect><g transform="translate(36,37)"><g class="mark-group role-frame root"><g transform="translate(0,0)"><path class="background" d="M0.5,0.5h600v400h-600Z" style="fill: none; stroke: #ddd;"></path><g><g class="mark-group role-axis"><g transform="translate(0.5,400.5)"><path class="background" d="M0,0h0v0h0Z" style="pointer-events: none; fill: none;"></path><g><g class="mark-rule role-axis-grid" style="pointer-events: none;"><line transform="translate(49,-400)" x2="0" y2="400" style="fill: none; stroke: #ddd; stroke-width: 1; opacity: 1;"></line><line transform="translate(105,-400)" x2="0" y2="400" style="fill: none; stroke: #ddd; stroke-width: 1; opacity: 1;"></line><line transform="translate(162,-400)" x2="0" y2="400" style="fill: none; stroke: #ddd; stroke-width: 1; opacity: 1;"></line><line transform="translate(219,-400)" x2="0" y2="400" style="fill: none; stroke: #ddd; stroke-width: 1; opacity: 1;"></line><line transform="translate(276,-400)" x2="0" y2="400" style="fill: none; stroke: #ddd; stroke-width: 1; opacity: 1;"></line><line transform="translate(332,-400)" x2="0" y2="400" style="fill: none; stroke: #ddd; stroke-width: 1; opacity: 1;"></line><line transform="translate(389,-400)" x2="0" y2="400" style="fill: none; stroke: #ddd; stroke-width: 1; opacity: 1;"></line><line transform="translate(446,-400)" x2="0" y2="400" style="fill: none; stroke: #ddd; stroke-width: 1; opacity: 1;"></line><line transform="translate(503,-400)" x2="0" y2="400" style="fill: none; stroke: #ddd; stroke-width: 1; opacity: 1;"></line><line transform="translate(559,-400)" x2="0" y2="400" style="fill: none; stroke: #ddd; stroke-width: 1; opacity: 1;"></line></g></g><path class="foreground" d="" style="pointer-events: none; display: none; fill: none;"></path></g></g><g class="mark-group role-axis"><g transform="translate(0.5,0.5)"><path class="background" d="M0,0h0v0h0Z" style="pointer-events: none; fill: none;"></path><g><g class="mark-rule role-axis-grid" style="pointer-events: none;"><line transform="translate(0,400)" x2="600" y2="0" style="fill: none; stroke: #ddd; stroke-width: 1; opacity: 1;"></line><line transform="translate(0,360)" x2="600" y2="0" style="fill: none; stroke: #ddd; stroke-width: 1; opacity: 1;"></line><line transform="translate(0,336)" x2="600" y2="0" style="fill: none; stroke: #ddd; stroke-width: 1; opacity: 1;"></line><line transform="translate(0,320)" x2="600" y2="0" style="fill: none; stroke: #ddd; stroke-width: 1; opacity: 1;"></line><line transform="translate(0,307)" x2="600" y2="0" style="fill: none; stroke: #ddd; stroke-width: 1; opacity: 1;"></line><line transform="translate(0,296)" x2="600" y2="0" style="fill: none; stroke: #ddd; stroke-width: 1; opacity: 1;"></line><line transform="translate(0,287)" x2="600" y2="0" style="fill: none; stroke: #ddd; stroke-width: 1; opacity: 1;"></line><line transform="translate(0,280)" x2="600" y2="0" style="fill: none; stroke: #ddd; stroke-width: 1; opacity: 1;"></line><line transform="translate(0,273)" x2="600" y2="0" style="fill: none; stroke: #ddd; stroke-width: 1; opacity: 1;"></line><line transform="translate(0,267)" x2="600" y2="0" style="fill: none; stroke: #ddd; stroke-width: 1; opacity: 1;"></line><line transform="translate(0,227)" x2="600" y2="0" style="fill: none; stroke: #ddd; stroke-width: 1; opacity: 1;"></line><line transform="translate(0,203)" x2="600" y2="0" style="fill: none; stroke: #ddd; stroke-width: 1; opacity: 1;"></line><line transform="translate(0,186)" x2="600" y2="0" style="fill: none; stroke: #ddd; stroke-width: 1; opacity: 1;"></line><line transform="translate(0,173)" x2="600" y2="0" style="fill: none; stroke: #ddd; stroke-width: 1; opacity: 1;"></line><line transform="translate(0,163)" x2="600" y2="0" style="fill: none; stroke: #ddd; stroke-width: 1; opacity: 1;"></line><line transform="translate(0,154)" x2="600" y2="0" style="fill: none; stroke: #ddd; stroke-width: 1; opacity: 1;"></line><line transform="translate(0,146)" x2="600" y2="0" style="fill: none; stroke: #ddd; stroke-width: 1; opacity: 1;"></line><line transform="translate(0,139)" x2="600" y2="0" style="fill: none; stroke: #ddd; stroke-width: 1; opacity: 1;"></line><line transform="translate(0,133)" x2="600" y2="0" style="fill: none; stroke: #ddd; stroke-width: 1; opacity: 1;"></line><line transform="translate(0,93)" x2="600" y2="0" style="fill: none; stroke: #ddd; stroke-width: 1; opacity: 1;"></line><line transform="translate(0,70)" x2="600" y2="0" style="fill: none; stroke: #ddd; stroke-width: 1; opacity: 1;"></line><line transform="translate(0,53)" x2="600" y2="0" style="fill: none; stroke: #ddd; stroke-width: 1; opacity: 1;"></line><line transform="translate(0,40)" x2="600" y2="0" style="fill: none; stroke: #ddd; stroke-width: 1; opacity: 1;"></line><line transform="translate(0,30)" x2="600" y2="0" style="fill: none; stroke: #ddd; stroke-width: 1; opacity: 1;"></line><line transform="translate(0,21)" x2="600" y2="0" style="fill: none; stroke: #ddd; stroke-width: 1; opacity: 1;"></line><line transform="translate(0,13)" x2="600" y2="0" style="fill: none; stroke: #ddd; stroke-width: 1; opacity: 1;"></line><line transform="translate(0,6)" x2="600" y2="0" style="fill: none; stroke: #ddd; stroke-width: 1; opacity: 1;"></line><line transform="translate(0,0)" x2="600" y2="0" style="fill: none; stroke: #ddd; stroke-width: 1; opacity: 1;"></line></g></g><path class="foreground" d="" style="pointer-events: none; display: none; fill: none;"></path></g></g><g class="mark-group role-axis"><g transform="translate(0.5,400.5)"><path class="background" d="M0,0h0v0h0Z" style="pointer-events: none; fill: none;"></path><g><g class="mark-rule role-axis-tick" style="pointer-events: none;"><line transform="translate(49,0)" x2="0" y2="5" style="fill: none; stroke: #888; stroke-width: 1; opacity: 1;"></line><line transform="translate(105,0)" x2="0" y2="5" style="fill: none; stroke: #888; stroke-width: 1; opacity: 1;"></line><line transform="translate(162,0)" x2="0" y2="5" style="fill: none; stroke: #888; stroke-width: 1; opacity: 1;"></line><line transform="translate(219,0)" x2="0" y2="5" style="fill: none; stroke: #888; stroke-width: 1; opacity: 1;"></line><line transform="translate(276,0)" x2="0" y2="5" style="fill: none; stroke: #888; stroke-width: 1; opacity: 1;"></line><line transform="translate(332,0)" x2="0" y2="5" style="fill: none; stroke: #888; stroke-width: 1; opacity: 1;"></line><line transform="translate(389,0)" x2="0" y2="5" style="fill: none; stroke: #888; stroke-width: 1; opacity: 1;"></line><line transform="translate(446,0)" x2="0" y2="5" style="fill: none; stroke: #888; stroke-width: 1; opacity: 1;"></line><line transform="translate(503,0)" x2="0" y2="5" style="fill: none; stroke: #888; stroke-width: 1; opacity: 1;"></line><line transform="translate(559,0)" x2="0" y2="5" style="fill: none; stroke: #888; stroke-width: 1; opacity: 1;"></line></g><g class="mark-text role-axis-label" style="pointer-events: none;"><text text-anchor="middle" transform="translate(48.64864864864865,18)" style="font-family: sans-serif; font-size: 14px; fill: #000; opacity: 1;">15/03</text><text text-anchor="middle" transform="translate(105.40540540540542,18)" style="font-family: sans-serif; font-size: 14px; fill: #000; opacity: 1;">22/03</text><text text-anchor="middle" transform="translate(162.16216216216216,18)" style="font-family: sans-serif; font-size: 14px; fill: #000; opacity: 1;">29/03</text><text text-anchor="middle" transform="translate(218.9189189189189,18)" style="font-family: sans-serif; font-size: 14px; fill: #000; opacity: 1;">05/04</text><text text-anchor="middle" transform="translate(275.6756756756757,18)" style="font-family: sans-serif; font-size: 14px; fill: #000; opacity: 1;">12/04</text><text text-anchor="middle" transform="translate(332.43243243243245,18)" style="font-family: sans-serif; font-size: 14px; fill: #000; opacity: 1;">19/04</text><text text-anchor="middle" transform="translate(389.1891891891892,18)" style="font-family: sans-serif; font-size: 14px; fill: #000; opacity: 1;">26/04</text><text text-anchor="middle" transform="translate(445.94594594594594,18)" style="font-family: sans-serif; font-size: 14px; fill: #000; opacity: 1;">03/05</text><text text-anchor="middle" transform="translate(502.7027027027027,18)" style="font-family: sans-serif; font-size: 14px; fill: #000; opacity: 1;">10/05</text><text text-anchor="middle" transform="translate(559.4594594594595,18)" style="font-family: sans-serif; font-size: 14px; fill: #000; opacity: 1;">17/05</text></g><g class="mark-rule role-axis-domain" style="pointer-events: none;"><line transform="translate(0,0)" x2="600" y2="0" style="fill: none; stroke: #888; stroke-width: 1; opacity: 1;"></line></g></g><path class="foreground" d="" style="pointer-events: none; display: none; fill: none;"></path></g></g><g class="mark-group role-axis"><g transform="translate(0.5,0.5)"><path class="background" d="M0,0h0v0h0Z" style="pointer-events: none; fill: none;"></path><g><g class="mark-rule role-axis-tick" style="pointer-events: none;"><line transform="translate(0,400)" x2="-5" y2="0" style="fill: none; stroke: #888; stroke-width: 1; opacity: 1;"></line><line transform="translate(0,360)" x2="-5" y2="0" style="fill: none; stroke: #888; stroke-width: 1; opacity: 1;"></line><line transform="translate(0,336)" x2="-5" y2="0" style="fill: none; stroke: #888; stroke-width: 1; opacity: 1;"></line><line transform="translate(0,320)" x2="-5" y2="0" style="fill: none; stroke: #888; stroke-width: 1; opacity: 1;"></line><line transform="translate(0,307)" x2="-5" y2="0" style="fill: none; stroke: #888; stroke-width: 1; opacity: 1;"></line><line transform="translate(0,296)" x2="-5" y2="0" style="fill: none; stroke: #888; stroke-width: 1; opacity: 1;"></line><line transform="translate(0,287)" x2="-5" y2="0" style="fill: none; stroke: #888; stroke-width: 1; opacity: 1;"></line><line transform="translate(0,280)" x2="-5" y2="0" style="fill: none; stroke: #888; stroke-width: 1; opacity: 1;"></line><line transform="translate(0,273)" x2="-5" y2="0" style="fill: none; stroke: #888; stroke-width: 1; opacity: 1;"></line><line transform="translate(0,267)" x2="-5" y2="0" style="fill: none; stroke: #888; stroke-width: 1; opacity: 1;"></line><line transform="translate(0,227)" x2="-5" y2="0" style="fill: none; stroke: #888; stroke-width: 1; opacity: 1;"></line><line transform="translate(0,203)" x2="-5" y2="0" style="fill: none; stroke: #888; stroke-width: 1; opacity: 1;"></line><line transform="translate(0,186)" x2="-5" y2="0" style="fill: none; stroke: #888; stroke-width: 1; opacity: 1;"></line><line transform="translate(0,173)" x2="-5" y2="0" style="fill: none; stroke: #888; stroke-width: 1; opacity: 1;"></line><line transform="translate(0,163)" x2="-5" y2="0" style="fill: none; stroke: #888; stroke-width: 1; opacity: 1;"></line><line transform="translate(0,154)" x2="-5" y2="0" style="fill: none; stroke: #888; stroke-width: 1; opacity: 1;"></line><line transform="translate(0,146)" x2="-5" y2="0" style="fill: none; stroke: #888; stroke-width: 1; opacity: 1;"></line><line transform="translate(0,139)" x2="-5" y2="0" style="fill: none; stroke: #888; stroke-width: 1; opacity: 1;"></line><line transform="translate(0,133)" x2="-5" y2="0" style="fill: none; stroke: #888; stroke-width: 1; opacity: 1;"></line><line transform="translate(0,93)" x2="-5" y2="0" style="fill: none; stroke: #888; stroke-width: 1; opacity: 1;"></line><line transform="translate(0,70)" x2="-5" y2="0" style="fill: none; stroke: #888; stroke-width: 1; opacity: 1;"></line><line transform="translate(0,53)" x2="-5" y2="0" style="fill: none; stroke: #888; stroke-width: 1; opacity: 1;"></line><line transform="translate(0,40)" x2="-5" y2="0" style="fill: none; stroke: #888; stroke-width: 1; opacity: 1;"></line><line transform="translate(0,30)" x2="-5" y2="0" style="fill: none; stroke: #888; stroke-width: 1; opacity: 1;"></line><line transform="translate(0,21)" x2="-5" y2="0" style="fill: none; stroke: #888; stroke-width: 1; opacity: 1;"></line><line transform="translate(0,13)" x2="-5" y2="0" style="fill: none; stroke: #888; stroke-width: 1; opacity: 1;"></line><line transform="translate(0,6)" x2="-5" y2="0" style="fill: none; stroke: #888; stroke-width: 1; opacity: 1;"></line><line transform="translate(0,0)" x2="-5" y2="0" style="fill: none; stroke: #888; stroke-width: 1; opacity: 1;"></line></g><g class="mark-text role-axis-label" style="pointer-events: none;"><text text-anchor="end" transform="translate(-7,404)" style="font-family: sans-serif; font-size: 14px; fill: #000; opacity: 1;">0.1</text><text text-anchor="end" transform="translate(-7,363.86266724480254)" style="font-family: sans-serif; font-size: 14px; fill: #000; opacity: 1;">0.2</text><text text-anchor="end" transform="translate(-7,340.383832704045)" style="font-family: sans-serif; font-size: 14px; fill: #000; opacity: 1;">0.3</text><text text-anchor="end" transform="translate(-7,323.725334489605)" style="font-family: sans-serif; font-size: 14px; fill: #000; opacity: 1;"></text><text text-anchor="end" transform="translate(-7,310.8039994218642)" style="font-family: sans-serif; font-size: 14px; fill: #000; opacity: 1;"></text><text text-anchor="end" transform="translate(-7,300.2464999488475)" style="font-family: sans-serif; font-size: 14px; fill: #000; opacity: 1;"></text><text text-anchor="end" transform="translate(-7,291.32026133143245)" style="font-family: sans-serif; font-size: 14px; fill: #000; opacity: 1;"></text><text text-anchor="end" transform="translate(-7,283.5880017344075)" style="font-family: sans-serif; font-size: 14px; fill: #000; opacity: 1;"></text><text text-anchor="end" transform="translate(-7,276.76766540809)" style="font-family: sans-serif; font-size: 14px; fill: #000; opacity: 1;"></text><text text-anchor="end" transform="translate(-7,270.6666666666667)" style="font-family: sans-serif; font-size: 14px; fill: #000; opacity: 1;">1</text><text text-anchor="end" transform="translate(-7,230.52933391146917)" style="font-family: sans-serif; font-size: 14px; fill: #000; opacity: 1;">2</text><text text-anchor="end" transform="translate(-7,207.05049937071172)" style="font-family: sans-serif; font-size: 14px; fill: #000; opacity: 1;">3</text><text text-anchor="end" transform="translate(-7,190.39200115627168)" style="font-family: sans-serif; font-size: 14px; fill: #000; opacity: 1;"></text><text text-anchor="end" transform="translate(-7,177.47066608853083)" style="font-family: sans-serif; font-size: 14px; fill: #000; opacity: 1;"></text><text text-anchor="end" transform="translate(-7,166.91316661551417)" style="font-family: sans-serif; font-size: 14px; fill: #000; opacity: 1;"></text><text text-anchor="end" transform="translate(-7,157.98692799809913)" style="font-family: sans-serif; font-size: 14px; fill: #000; opacity: 1;"></text><text text-anchor="end" transform="translate(-7,150.25466840107418)" style="font-family: sans-serif; font-size: 14px; fill: #000; opacity: 1;"></text><text text-anchor="end" transform="translate(-7,143.4343320747567)" style="font-family: sans-serif; font-size: 14px; fill: #000; opacity: 1;"></text><text text-anchor="end" transform="translate(-7,137.33333333333331)" style="font-family: sans-serif; font-size: 14px; fill: #000; opacity: 1;">10</text><text text-anchor="end" transform="translate(-7,97.19600057813587)" style="font-family: sans-serif; font-size: 14px; fill: #000; opacity: 1;">20</text><text text-anchor="end" transform="translate(-7,73.71716603737832)" style="font-family: sans-serif; font-size: 14px; fill: #000; opacity: 1;">30</text><text text-anchor="end" transform="translate(-7,57.05866782293833)" style="font-family: sans-serif; font-size: 14px; fill: #000; opacity: 1;"></text><text text-anchor="end" transform="translate(-7,44.137332755197484)" style="font-family: sans-serif; font-size: 14px; fill: #000; opacity: 1;"></text><text text-anchor="end" transform="translate(-7,33.579833282180836)" style="font-family: sans-serif; font-size: 14px; fill: #000; opacity: 1;"></text><text text-anchor="end" transform="translate(-7,24.653594664765727)" style="font-family: sans-serif; font-size: 14px; fill: #000; opacity: 1;"></text><text text-anchor="end" transform="translate(-7,16.92133506774089)" style="font-family: sans-serif; font-size: 14px; fill: #000; opacity: 1;"></text><text text-anchor="end" transform="translate(-7,10.10099874142338)" style="font-family: sans-serif; font-size: 14px; fill: #000; opacity: 1;"></text><text text-anchor="end" transform="translate(-7,4)" style="font-family: sans-serif; font-size: 14px; fill: #000; opacity: 1;">100</text></g><g class="mark-rule role-axis-domain" style="pointer-events: none;"><line transform="translate(0,400)" x2="0" y2="-400" style="fill: none; stroke: #888; stroke-width: 1; opacity: 1;"></line></g></g><path class="foreground" d="" style="pointer-events: none; display: none; fill: none;"></path></g></g><g class="mark-group role-scope layer_0_pathgroup"><g transform="translate(0,0)"><path class="background" d="M0,0h600v400h-600Z" style="fill: none;"></path><g><g class="mark-line role-mark layer_0_marks"><path d="M0,266.6666666666667L32.432432432432435,226.52933391146917L40.54054054054054,217.60309529405407L56.75675675675676,186.39200115627168L64.86486486486487,178.29895577579015L72.97297297297298,177.4657625388566L81.08108108108108,176.8778800181826L89.1891891891892,160.2193818037426L97.2972972972973,150.54595951726105L105.40540540540542,143.2328037829483L113.51351351351352,123.46932635175776L121.62162162162163,100.69239047664786L129.72972972972974,85.82678875917406L137.83783783783784,69.9935671870937L145.94594594594597,60.55505772145038L154.05405405405403,57.34995893912518L162.16216216216216,56.9062331592682L170.27027027027026,46.97835346498924L178.3783783783784,45.326408225913454L186.48648648648648,39.8073835381501L194.5945945945946,40.137332755197484L202.7027027027027,39.97212313979106L210.81081081081084,41.98644557482329L218.9189189189189,43.54454668484924L227.02702702702703,49.64554542627262L235.13513513513513,53.89186105987189L243.24324324324326,64.4493605328885L251.35135135135135,68.62456888867547L259.4594594594595,82.98420918222308L267.56756756756755,83.33199359656022L275.6756756756757,82.98420918222308L283.7837837837838,90.76602456397596L291.89189189189193,95.30190286923342L300,93.19600057813587L308.10810810810807,96.16618653962283L316.2162162162162,88.81614569614497L324.3243243243243,89.97817661590659L332.43243243243245,91.16400503723759L340.5405405405405,96.16618653962283L348.64864864864865,97.04356591446567L356.7567567567568,99.75840360082668L364.86486486486484,105.0924251570379L372.97297297297297,107.16071398080427L381.08108108108104,111.53304910031193L397.2972972972973,106.63667483034658L405.4054054054054,107.68953894315109L413.5135135135135,110.96810870787799L421.62162162162167,115.64992463005454L429.72972972972974,125.60107373630842L437.8378378378378,135.86976497512407L445.94594594594594,135.86976497512407L454.05405405405406,139.4343320747567L462.1621621621622,139.4343320747567L470.27027027027026,144.22267286017595L478.37837837837833,148.3605706921718L486.4864864864865,135.86976497512407L494.5945945945946,136.7405472629851L510.8108108108108,129.33823688300757L518.918918918919,128.5712596977954L527.0270270270271,138.52240880404932L535.1351351351351,148.36057069217173L543.2432432432432,160.2193818037426L551.3513513513514,186.39200115627165L559.4594594594595,190.6832922724585L575.6756756756756,215.28654915146436" style="fill: none; stroke: #4c78a8; stroke-width: 3;"></path></g></g><path class="foreground" d="" style="display: none; fill: none;"></path></g><g transform="translate(0,0)"><path class="background" d="M0,0h600v400h-600Z" style="fill: none;"></path><g><g class="mark-line role-mark layer_0_marks"><path d="M137.83783783783784,96.16618653962283L145.94594594594597,82.63850110511922L170.27027027027026,102.60681048289678L178.3783783783784,109.85449879257585L186.48648648648648,116.38602688469231L194.5945945945946,120.4119982655925L202.7027027027027,120.74383831941846L210.81081081081084,133.33333333333331L218.9189189189189,162.91316661551417L227.02702702702703,148.3605706921718L235.13513513513513,132.5119588393575L243.24324324324326,114.4435074330683L251.35135135135135,109.30562329993157L259.4594594594595,112.67973866856758L267.56756756756755,111.53304910031193L275.6756756756757,110.4086267620635L283.7837837837838,103.58829043574605L291.89189189189193,92.37462608416003L300,88.43392694259795L308.10810810810807,78.96600120458186L316.2162162162162,68.08590518177682L324.3243243243243,65.4652801155808L332.43243243243245,65.72206958705257L340.5405405405405,60.32014490061211L348.64864864864865,56.465881752590086L356.7567567567568,49.45090345840018L364.86486486486484,43.54454668484924L372.97297297297297,36.91950879296826L381.08108108108104,36.45189442740917L389.1891891891892,35.83422530779519L397.2972972972973,32.405073158172605L405.4054054054054,31.54293419160834L413.5135135135135,36.142236304871744L421.62162162162167,38.66714552479169L429.72972972972974,41.13861299236356L437.8378378378378,41.307189329531504L445.94594594594594,41.13861299236356L454.05405405405406,38.99064318694183L462.1621621621622,37.70735674103762L470.27027027027026,34.3182766660461L478.37837837837833,33.57492973250662L486.4864864864865,34.618308067434135L494.5945945945946,36.45189442740926L502.7027027027027,37.076223180692836L510.8108108108108,39.8073835381501L518.918918918919,41.476257861082914L527.0270270270271,46.42245225880557L535.1351351351351,46.792459466108525L543.2432432432432,44.07337164719607L551.3513513513514,42.15751196488027L559.4594594594595,41.98644557482325L567.5675675675676,50.82734013711323L575.6756756756756,67.0233812256067" style="fill: none; stroke: #f58518; stroke-width: 3;"></path></g></g><path class="foreground" d="" style="display: none; fill: none;"></path></g><g transform="translate(0,0)"><path class="background" d="M0,0h600v400h-600Z" style="fill: none;"></path><g><g class="mark-line role-mark layer_0_marks"><path d="M64.86486486486487,266.6666666666667L72.97297297297298,306.8039994218642L81.08108108108108,330.2828339626217L89.1891891891892,346.94133217706167L97.2972972972973,296.24649994884754L105.40540540540542,290.14550120742416L113.51351351351352,286.1504047570984L121.62162162162163,286.1504047570984L129.72972972972974,286.1504047570984L137.83783783783784,258.9344070696418L145.94594594594597,246.01307200190092L154.05405405405403,240.49404731413756L162.16216216216216,230.82062502765598L170.27027027027026,222.5342374611434L178.3783783783784,222.5342374611434L186.48648648648648,211.97673798812679L194.5945945945946,218.79707431444427L202.7027027027027,208.8459252081904L210.81081081081084,205.87573924670343L218.9189189189189,208.8459252081904L227.02702702702703,208.8459252081904L235.13513513513513,203.05049937071172L243.24324324324326,203.05049937071172L251.35135135135135,195.3182397736868L259.4594594594595,195.3182397736868L267.56756756756755,197.7826938662219L275.6756756756757,203.05049937071172L283.7837837837838,195.3182397736868L291.89189189189193,195.3182397736868L300,192.95440417896253L308.10810810810807,192.95440417896253L316.2162162162162,203.05049937071172L324.3243243243243,203.05049937071172L332.43243243243245,195.3182397736868L340.5405405405405,208.8459252081904L348.64864864864865,205.8757392467034L356.7567567567568,203.05049937071172L364.86486486486484,208.8459252081904L372.97297297297297,203.05049937071166L381.08108108108104,205.8757392467034L389.1891891891892,200.35671455894004L397.2972972972973,203.05049937071166L405.4054054054054,208.8459252081904L413.5135135135135,226.52933391146917L421.62162162162167,230.82062502765598L429.72972972972974,235.45557252888426L437.8378378378378,226.52933391146917L445.94594594594594,240.49404731413756L454.05405405405406,226.52933391146917L462.1621621621622,226.52933391146917L470.27027027027026,222.5342374611434L478.37837837837833,218.79707431444427L486.4864864864865,226.52933391146917L494.5945945945946,246.01307200190087L502.7027027027027,252.11407074332425L510.8108108108108,275.5929052840817L518.918918918919,299.0717398248392L527.0270270270271,315.73023803927913L535.1351351351351,339.20907258003666L543.2432432432432,315.73023803927913L551.3513513513514,315.73023803927913L559.4594594594595,339.20907258003666L567.5675675675676,339.20907258003666L575.6756756756756,315.73023803927913L583.7837837837839,299.0717398248392L591.8918918918919,315.73023803927913L600,339.20907258003666" style="fill: none; stroke: #e45756; stroke-width: 3;"></path></g></g><path class="foreground" d="" style="display: none; fill: none;"></path></g></g><g class="mark-symbol role-mark layer_1_marks"><path transform="translate(0,266.6666666666667)" d="M2.7386127875258306,0A2.7386127875258306,2.7386127875258306,0,1,1,-2.7386127875258306,0A2.7386127875258306,2.7386127875258306,0,1,1,2.7386127875258306,0" style="fill: none; stroke: #4c78a8; stroke-width: 2; opacity: 0.5;"></path><path transform="translate(32.432432432432435,203.05049937071172)" d="M2.7386127875258306,0A2.7386127875258306,2.7386127875258306,0,1,1,-2.7386127875258306,0A2.7386127875258306,2.7386127875258306,0,1,1,2.7386127875258306,0" style="fill: none; stroke: #4c78a8; stroke-width: 2; opacity: 0.5;"></path><path transform="translate(40.54054054054054,203.05049937071172)" d="M2.7386127875258306,0A2.7386127875258306,2.7386127875258306,0,1,1,-2.7386127875258306,0A2.7386127875258306,2.7386127875258306,0,1,1,2.7386127875258306,0" style="fill: none; stroke: #4c78a8; stroke-width: 2; opacity: 0.5;"></path><path transform="translate(56.75675675675676,139.4343320747567)" d="M2.7386127875258306,0A2.7386127875258306,2.7386127875258306,0,1,1,-2.7386127875258306,0A2.7386127875258306,2.7386127875258306,0,1,1,2.7386127875258306,0" style="fill: none; stroke: #4c78a8; stroke-width: 2; opacity: 0.5;"></path><path transform="translate(64.86486486486487,153.98692799809913)" d="M2.7386127875258306,0A2.7386127875258306,2.7386127875258306,0,1,1,-2.7386127875258306,0A2.7386127875258306,2.7386127875258306,0,1,1,2.7386127875258306,0" style="fill: none; stroke: #4c78a8; stroke-width: 2; opacity: 0.5;"></path><path transform="translate(72.97297297297298,173.47066608853083)" d="M2.7386127875258306,0A2.7386127875258306,2.7386127875258306,0,1,1,-2.7386127875258306,0A2.7386127875258306,2.7386127875258306,0,1,1,2.7386127875258306,0" style="fill: none; stroke: #4c78a8; stroke-width: 2; opacity: 0.5;"></path><path transform="translate(81.08108108108108,173.47066608853083)" d="M2.7386127875258306,0A2.7386127875258306,2.7386127875258306,0,1,1,-2.7386127875258306,0A2.7386127875258306,2.7386127875258306,0,1,1,2.7386127875258306,0" style="fill: none; stroke: #4c78a8; stroke-width: 2; opacity: 0.5;"></path><path transform="translate(89.1891891891892,122.7758338603167)" d="M2.7386127875258306,0A2.7386127875258306,2.7386127875258306,0,1,1,-2.7386127875258306,0A2.7386127875258306,2.7386127875258306,0,1,1,2.7386127875258306,0" style="fill: none; stroke: #4c78a8; stroke-width: 2; opacity: 0.5;"></path><path transform="translate(97.2972972972973,127.81430864557)" d="M2.7386127875258306,0A2.7386127875258306,2.7386127875258306,0,1,1,-2.7386127875258306,0A2.7386127875258306,2.7386127875258306,0,1,1,2.7386127875258306,0" style="fill: none; stroke: #4c78a8; stroke-width: 2; opacity: 0.5;"></path><path transform="translate(105.40540540540542,133.33333333333331)" d="M2.7386127875258306,0A2.7386127875258306,2.7386127875258306,0,1,1,-2.7386127875258306,0A2.7386127875258306,2.7386127875258306,0,1,1,2.7386127875258306,0" style="fill: none; stroke: #4c78a8; stroke-width: 2; opacity: 0.5;"></path><path transform="translate(113.51351351351352,64.19814134961501)" d="M2.7386127875258306,0A2.7386127875258306,2.7386127875258306,0,1,1,-2.7386127875258306,0A2.7386127875258306,2.7386127875258306,0,1,1,2.7386127875258306,0" style="fill: none; stroke: #4c78a8; stroke-width: 2; opacity: 0.5;"></path><path transform="translate(121.62162162162163,43.720285608571)" d="M2.7386127875258306,0A2.7386127875258306,2.7386127875258306,0,1,1,-2.7386127875258306,0A2.7386127875258306,2.7386127875258306,0,1,1,2.7386127875258306,0" style="fill: none; stroke: #4c78a8; stroke-width: 2; opacity: 0.5;"></path><path transform="translate(129.72972972972974,51.62881910403523)" d="M2.7386127875258306,0A2.7386127875258306,2.7386127875258306,0,1,1,-2.7386127875258306,0A2.7386127875258306,2.7386127875258306,0,1,1,2.7386127875258306,0" style="fill: none; stroke: #4c78a8; stroke-width: 2; opacity: 0.5;"></path><path transform="translate(137.83783783783784,34.618308067434135)" d="M2.7386127875258306,0A2.7386127875258306,2.7386127875258306,0,1,1,-2.7386127875258306,0A2.7386127875258306,2.7386127875258306,0,1,1,2.7386127875258306,0" style="fill: none; stroke: #4c78a8; stroke-width: 2; opacity: 0.5;"></path><path transform="translate(145.94594594594597,41.307189329531504)" d="M2.7386127875258306,0A2.7386127875258306,2.7386127875258306,0,1,1,-2.7386127875258306,0A2.7386127875258306,2.7386127875258306,0,1,1,2.7386127875258306,0" style="fill: none; stroke: #4c78a8; stroke-width: 2; opacity: 0.5;"></path><path transform="translate(154.05405405405403,80.27466551039501)" d="M2.7386127875258306,0A2.7386127875258306,2.7386127875258306,0,1,1,-2.7386127875258306,0A2.7386127875258306,2.7386127875258306,0,1,1,2.7386127875258306,0" style="fill: none; stroke: #4c78a8; stroke-width: 2; opacity: 0.5;"></path><path transform="translate(162.16216216216216,122.7758338603167)" d="M2.7386127875258306,0A2.7386127875258306,2.7386127875258306,0,1,1,-2.7386127875258306,0A2.7386127875258306,2.7386127875258306,0,1,1,2.7386127875258306,0" style="fill: none; stroke: #4c78a8; stroke-width: 2; opacity: 0.5;"></path><path transform="translate(170.27027027027026,11.491486348837743)" d="M2.7386127875258306,0A2.7386127875258306,2.7386127875258306,0,1,1,-2.7386127875258306,0A2.7386127875258306,2.7386127875258306,0,1,1,2.7386127875258306,0" style="fill: none; stroke: #4c78a8; stroke-width: 2; opacity: 0.5;"></path><path transform="translate(178.3783783783784,33.57492973250662)" d="M2.7386127875258306,0A2.7386127875258306,2.7386127875258306,0,1,1,-2.7386127875258306,0A2.7386127875258306,2.7386127875258306,0,1,1,2.7386127875258306,0" style="fill: none; stroke: #4c78a8; stroke-width: 2; opacity: 0.5;"></path><path transform="translate(186.48648648648648,18.22361865060591)" d="M2.7386127875258306,0A2.7386127875258306,2.7386127875258306,0,1,1,-2.7386127875258306,0A2.7386127875258306,2.7386127875258306,0,1,1,2.7386127875258306,0" style="fill: none; stroke: #4c78a8; stroke-width: 2; opacity: 0.5;"></path><path transform="translate(194.5945945945946,36.76321738656148)" d="M2.7386127875258306,0A2.7386127875258306,2.7386127875258306,0,1,1,-2.7386127875258306,0A2.7386127875258306,2.7386127875258306,0,1,1,2.7386127875258306,0" style="fill: none; stroke: #4c78a8; stroke-width: 2; opacity: 0.5;"></path><path transform="translate(202.7027027027027,40.137332755197484)" d="M2.7386127875258306,0A2.7386127875258306,2.7386127875258306,0,1,1,-2.7386127875258306,0A2.7386127875258306,2.7386127875258306,0,1,1,2.7386127875258306,0" style="fill: none; stroke: #4c78a8; stroke-width: 2; opacity: 0.5;"></path><path transform="translate(210.81081081081084,118.14088635908844)" d="M2.7386127875258306,0A2.7386127875258306,2.7386127875258306,0,1,1,-2.7386127875258306,0A2.7386127875258306,2.7386127875258306,0,1,1,2.7386127875258306,0" style="fill: none; stroke: #4c78a8; stroke-width: 2; opacity: 0.5;"></path><path transform="translate(218.9189189189189,203.05049937071172)" d="M2.7386127875258306,0A2.7386127875258306,2.7386127875258306,0,1,1,-2.7386127875258306,0A2.7386127875258306,2.7386127875258306,0,1,1,2.7386127875258306,0" style="fill: none; stroke: #4c78a8; stroke-width: 2; opacity: 0.5;"></path><path transform="translate(227.02702702702703,41.307189329531504)" d="M2.7386127875258306,0A2.7386127875258306,2.7386127875258306,0,1,1,-2.7386127875258306,0A2.7386127875258306,2.7386127875258306,0,1,1,2.7386127875258306,0" style="fill: none; stroke: #4c78a8; stroke-width: 2; opacity: 0.5;"></path><path transform="translate(235.13513513513513,60.79092741996326)" d="M2.7386127875258306,0A2.7386127875258306,2.7386127875258306,0,1,1,-2.7386127875258306,0A2.7386127875258306,2.7386127875258306,0,1,1,2.7386127875258306,0" style="fill: none; stroke: #4c78a8; stroke-width: 2; opacity: 0.5;"></path><path transform="translate(243.24324324324326,75.8181647788017)" d="M2.7386127875258306,0A2.7386127875258306,2.7386127875258306,0,1,1,-2.7386127875258306,0A2.7386127875258306,2.7386127875258306,0,1,1,2.7386127875258306,0" style="fill: none; stroke: #4c78a8; stroke-width: 2; opacity: 0.5;"></path><path transform="translate(251.35135135135135,57.573103457733986)" d="M2.7386127875258306,0A2.7386127875258306,2.7386127875258306,0,1,1,-2.7386127875258306,0A2.7386127875258306,2.7386127875258306,0,1,1,2.7386127875258306,0" style="fill: none; stroke: #4c78a8; stroke-width: 2; opacity: 0.5;"></path><path transform="translate(259.4594594594595,203.05049937071172)" d="M2.7386127875258306,0A2.7386127875258306,2.7386127875258306,0,1,1,-2.7386127875258306,0A2.7386127875258306,2.7386127875258306,0,1,1,2.7386127875258306,0" style="fill: none; stroke: #4c78a8; stroke-width: 2; opacity: 0.5;"></path><path transform="translate(267.56756756756755,122.7758338603167)" d="M2.7386127875258306,0A2.7386127875258306,2.7386127875258306,0,1,1,-2.7386127875258306,0A2.7386127875258306,2.7386127875258306,0,1,1,2.7386127875258306,0" style="fill: none; stroke: #4c78a8; stroke-width: 2; opacity: 0.5;"></path><path transform="translate(275.6756756756757,186.39200115627168)" d="M2.7386127875258306,0A2.7386127875258306,2.7386127875258306,0,1,1,-2.7386127875258306,0A2.7386127875258306,2.7386127875258306,0,1,1,2.7386127875258306,0" style="fill: none; stroke: #4c78a8; stroke-width: 2; opacity: 0.5;"></path><path transform="translate(283.7837837837838,73.71226248770411)" d="M2.7386127875258306,0A2.7386127875258306,2.7386127875258306,0,1,1,-2.7386127875258306,0A2.7386127875258306,2.7386127875258306,0,1,1,2.7386127875258306,0" style="fill: none; stroke: #4c78a8; stroke-width: 2; opacity: 0.5;"></path><path transform="translate(291.89189189189193,82.63850110511922)" d="M2.7386127875258306,0A2.7386127875258306,2.7386127875258306,0,1,1,-2.7386127875258306,0A2.7386127875258306,2.7386127875258306,0,1,1,2.7386127875258306,0" style="fill: none; stroke: #4c78a8; stroke-width: 2; opacity: 0.5;"></path><path transform="translate(300,65.98000289067923)" d="M2.7386127875258306,0A2.7386127875258306,2.7386127875258306,0,1,1,-2.7386127875258306,0A2.7386127875258306,2.7386127875258306,0,1,1,2.7386127875258306,0" style="fill: none; stroke: #4c78a8; stroke-width: 2; opacity: 0.5;"></path><path transform="translate(308.10810810810807,69.71716603737832)" d="M2.7386127875258306,0A2.7386127875258306,2.7386127875258306,0,1,1,-2.7386127875258306,0A2.7386127875258306,2.7386127875258306,0,1,1,2.7386127875258306,0" style="fill: none; stroke: #4c78a8; stroke-width: 2; opacity: 0.5;"></path><path transform="translate(316.2162162162162,90.3707607021441)" d="M2.7386127875258306,0A2.7386127875258306,2.7386127875258306,0,1,1,-2.7386127875258306,0A2.7386127875258306,2.7386127875258306,0,1,1,2.7386127875258306,0" style="fill: none; stroke: #4c78a8; stroke-width: 2; opacity: 0.5;"></path><path transform="translate(324.3243243243243,139.4343320747567)" d="M2.7386127875258306,0A2.7386127875258306,2.7386127875258306,0,1,1,-2.7386127875258306,0A2.7386127875258306,2.7386127875258306,0,1,1,2.7386127875258306,0" style="fill: none; stroke: #4c78a8; stroke-width: 2; opacity: 0.5;"></path><path transform="translate(332.43243243243245,266.6666666666667)" d="M2.7386127875258306,0A2.7386127875258306,2.7386127875258306,0,1,1,-2.7386127875258306,0A2.7386127875258306,2.7386127875258306,0,1,1,2.7386127875258306,0" style="fill: none; stroke: #4c78a8; stroke-width: 2; opacity: 0.5;"></path><path transform="translate(340.5405405405405,106.11733564587671)" d="M2.7386127875258306,0A2.7386127875258306,2.7386127875258306,0,1,1,-2.7386127875258306,0A2.7386127875258306,2.7386127875258306,0,1,1,2.7386127875258306,0" style="fill: none; stroke: #4c78a8; stroke-width: 2; opacity: 0.5;"></path><path transform="translate(348.64864864864865,87.67697589037252)" d="M2.7386127875258306,0A2.7386127875258306,2.7386127875258306,0,1,1,-2.7386127875258306,0A2.7386127875258306,2.7386127875258306,0,1,1,2.7386127875258306,0" style="fill: none; stroke: #4c78a8; stroke-width: 2; opacity: 0.5;"></path><path transform="translate(356.7567567567568,78.00355360389095)" d="M2.7386127875258306,0A2.7386127875258306,2.7386127875258306,0,1,1,-2.7386127875258306,0A2.7386127875258306,2.7386127875258306,0,1,1,2.7386127875258306,0" style="fill: none; stroke: #4c78a8; stroke-width: 2; opacity: 0.5;"></path><path transform="translate(364.86486486486484,96.16618653962283)" d="M2.7386127875258306,0A2.7386127875258306,2.7386127875258306,0,1,1,-2.7386127875258306,0A2.7386127875258306,2.7386127875258306,0,1,1,2.7386127875258306,0" style="fill: none; stroke: #4c78a8; stroke-width: 2; opacity: 0.5;"></path><path transform="translate(372.97297297297297,102.60681048289678)" d="M2.7386127875258306,0A2.7386127875258306,2.7386127875258306,0,1,1,-2.7386127875258306,0A2.7386127875258306,2.7386127875258306,0,1,1,2.7386127875258306,0" style="fill: none; stroke: #4c78a8; stroke-width: 2; opacity: 0.5;"></path><path transform="translate(381.08108108108104,266.6666666666667)" d="M2.7386127875258306,0A2.7386127875258306,2.7386127875258306,0,1,1,-2.7386127875258306,0A2.7386127875258306,2.7386127875258306,0,1,1,2.7386127875258306,0" style="fill: none; stroke: #4c78a8; stroke-width: 2; opacity: 0.5;"></path><path transform="translate(397.2972972972973,133.33333333333331)" d="M2.7386127875258306,0A2.7386127875258306,2.7386127875258306,0,1,1,-2.7386127875258306,0A2.7386127875258306,2.7386127875258306,0,1,1,2.7386127875258306,0" style="fill: none; stroke: #4c78a8; stroke-width: 2; opacity: 0.5;"></path><path transform="translate(405.4054054054054,113.84959524290159)" d="M2.7386127875258306,0A2.7386127875258306,2.7386127875258306,0,1,1,-2.7386127875258306,0A2.7386127875258306,2.7386127875258306,0,1,1,2.7386127875258306,0" style="fill: none; stroke: #4c78a8; stroke-width: 2; opacity: 0.5;"></path><path transform="translate(413.5135135135135,106.11733564587671)" d="M2.7386127875258306,0A2.7386127875258306,2.7386127875258306,0,1,1,-2.7386127875258306,0A2.7386127875258306,2.7386127875258306,0,1,1,2.7386127875258306,0" style="fill: none; stroke: #4c78a8; stroke-width: 2; opacity: 0.5;"></path><path transform="translate(421.62162162162167,99.2969993195592)" d="M2.7386127875258306,0A2.7386127875258306,2.7386127875258306,0,1,1,-2.7386127875258306,0A2.7386127875258306,2.7386127875258306,0,1,1,2.7386127875258306,0" style="fill: none; stroke: #4c78a8; stroke-width: 2; opacity: 0.5;"></path><path transform="translate(429.72972972972974,186.39200115627168)" d="M2.7386127875258306,0A2.7386127875258306,2.7386127875258306,0,1,1,-2.7386127875258306,0A2.7386127875258306,2.7386127875258306,0,1,1,2.7386127875258306,0" style="fill: none; stroke: #4c78a8; stroke-width: 2; opacity: 0.5;"></path><path transform="translate(437.8378378378378,186.39200115627168)" d="M2.7386127875258306,0A2.7386127875258306,2.7386127875258306,0,1,1,-2.7386127875258306,0A2.7386127875258306,2.7386127875258306,0,1,1,2.7386127875258306,0" style="fill: none; stroke: #4c78a8; stroke-width: 2; opacity: 0.5;"></path><path transform="translate(445.94594594594594,266.6666666666667)" d="M2.7386127875258306,0A2.7386127875258306,2.7386127875258306,0,1,1,-2.7386127875258306,0A2.7386127875258306,2.7386127875258306,0,1,1,2.7386127875258306,0" style="fill: none; stroke: #4c78a8; stroke-width: 2; opacity: 0.5;"></path><path transform="translate(454.05405405405406,162.91316661551417)" d="M2.7386127875258306,0A2.7386127875258306,2.7386127875258306,0,1,1,-2.7386127875258306,0A2.7386127875258306,2.7386127875258306,0,1,1,2.7386127875258306,0" style="fill: none; stroke: #4c78a8; stroke-width: 2; opacity: 0.5;"></path><path transform="translate(462.1621621621622,113.84959524290159)" d="M2.7386127875258306,0A2.7386127875258306,2.7386127875258306,0,1,1,-2.7386127875258306,0A2.7386127875258306,2.7386127875258306,0,1,1,2.7386127875258306,0" style="fill: none; stroke: #4c78a8; stroke-width: 2; opacity: 0.5;"></path><path transform="translate(470.27027027027026,127.81430864557)" d="M2.7386127875258306,0A2.7386127875258306,2.7386127875258306,0,1,1,-2.7386127875258306,0A2.7386127875258306,2.7386127875258306,0,1,1,2.7386127875258306,0" style="fill: none; stroke: #4c78a8; stroke-width: 2; opacity: 0.5;"></path><path transform="translate(478.37837837837833,113.84959524290159)" d="M2.7386127875258306,0A2.7386127875258306,2.7386127875258306,0,1,1,-2.7386127875258306,0A2.7386127875258306,2.7386127875258306,0,1,1,2.7386127875258306,0" style="fill: none; stroke: #4c78a8; stroke-width: 2; opacity: 0.5;"></path><path transform="translate(486.4864864864865,102.60681048289678)" d="M2.7386127875258306,0A2.7386127875258306,2.7386127875258306,0,1,1,-2.7386127875258306,0A2.7386127875258306,2.7386127875258306,0,1,1,2.7386127875258306,0" style="fill: none; stroke: #4c78a8; stroke-width: 2; opacity: 0.5;"></path><path transform="translate(494.5945945945946,203.05049937071172)" d="M2.7386127875258306,0A2.7386127875258306,2.7386127875258306,0,1,1,-2.7386127875258306,0A2.7386127875258306,2.7386127875258306,0,1,1,2.7386127875258306,0" style="fill: none; stroke: #4c78a8; stroke-width: 2; opacity: 0.5;"></path><path transform="translate(510.8108108108108,133.33333333333331)" d="M2.7386127875258306,0A2.7386127875258306,2.7386127875258306,0,1,1,-2.7386127875258306,0A2.7386127875258306,2.7386127875258306,0,1,1,2.7386127875258306,0" style="fill: none; stroke: #4c78a8; stroke-width: 2; opacity: 0.5;"></path><path transform="translate(518.918918918919,153.98692799809913)" d="M2.7386127875258306,0A2.7386127875258306,2.7386127875258306,0,1,1,-2.7386127875258306,0A2.7386127875258306,2.7386127875258306,0,1,1,2.7386127875258306,0" style="fill: none; stroke: #4c78a8; stroke-width: 2; opacity: 0.5;"></path><path transform="translate(527.0270270270271,226.52933391146917)" d="M2.7386127875258306,0A2.7386127875258306,2.7386127875258306,0,1,1,-2.7386127875258306,0A2.7386127875258306,2.7386127875258306,0,1,1,2.7386127875258306,0" style="fill: none; stroke: #4c78a8; stroke-width: 2; opacity: 0.5;"></path><path transform="translate(535.1351351351351,266.6666666666667)" d="M2.7386127875258306,0A2.7386127875258306,2.7386127875258306,0,1,1,-2.7386127875258306,0A2.7386127875258306,2.7386127875258306,0,1,1,2.7386127875258306,0" style="fill: none; stroke: #4c78a8; stroke-width: 2; opacity: 0.5;"></path><path transform="translate(543.2432432432432,186.39200115627168)" d="M2.7386127875258306,0A2.7386127875258306,2.7386127875258306,0,1,1,-2.7386127875258306,0A2.7386127875258306,2.7386127875258306,0,1,1,2.7386127875258306,0" style="fill: none; stroke: #4c78a8; stroke-width: 2; opacity: 0.5;"></path><path transform="translate(551.3513513513514,266.6666666666667)" d="M2.7386127875258306,0A2.7386127875258306,2.7386127875258306,0,1,1,-2.7386127875258306,0A2.7386127875258306,2.7386127875258306,0,1,1,2.7386127875258306,0" style="fill: none; stroke: #4c78a8; stroke-width: 2; opacity: 0.5;"></path><path transform="translate(559.4594594594595,266.6666666666667)" d="M2.7386127875258306,0A2.7386127875258306,2.7386127875258306,0,1,1,-2.7386127875258306,0A2.7386127875258306,2.7386127875258306,0,1,1,2.7386127875258306,0" style="fill: none; stroke: #4c78a8; stroke-width: 2; opacity: 0.5;"></path><path transform="translate(575.6756756756756,266.6666666666667)" d="M2.7386127875258306,0A2.7386127875258306,2.7386127875258306,0,1,1,-2.7386127875258306,0A2.7386127875258306,2.7386127875258306,0,1,1,2.7386127875258306,0" style="fill: none; stroke: #4c78a8; stroke-width: 2; opacity: 0.5;"></path><path transform="translate(137.83783783783784,96.16618653962283)" d="M2.7386127875258306,0A2.7386127875258306,2.7386127875258306,0,1,1,-2.7386127875258306,0A2.7386127875258306,2.7386127875258306,0,1,1,2.7386127875258306,0" style="fill: none; stroke: #f58518; stroke-width: 2; opacity: 0.5;"></path><path transform="translate(145.94594594594597,71.68026694680587)" d="M2.7386127875258306,0A2.7386127875258306,2.7386127875258306,0,1,1,-2.7386127875258306,0A2.7386127875258306,2.7386127875258306,0,1,1,2.7386127875258306,0" style="fill: none; stroke: #f58518; stroke-width: 2; opacity: 0.5;"></path><path transform="translate(170.27027027027026,203.05049937071172)" d="M2.7386127875258306,0A2.7386127875258306,2.7386127875258306,0,1,1,-2.7386127875258306,0A2.7386127875258306,2.7386127875258306,0,1,1,2.7386127875258306,0" style="fill: none; stroke: #f58518; stroke-width: 2; opacity: 0.5;"></path><path transform="translate(178.3783783783784,139.4343320747567)" d="M2.7386127875258306,0A2.7386127875258306,2.7386127875258306,0,1,1,-2.7386127875258306,0A2.7386127875258306,2.7386127875258306,0,1,1,2.7386127875258306,0" style="fill: none; stroke: #f58518; stroke-width: 2; opacity: 0.5;"></path><path transform="translate(186.48648648648648,153.98692799809913)" d="M2.7386127875258306,0A2.7386127875258306,2.7386127875258306,0,1,1,-2.7386127875258306,0A2.7386127875258306,2.7386127875258306,0,1,1,2.7386127875258306,0" style="fill: none; stroke: #f58518; stroke-width: 2; opacity: 0.5;"></path><path transform="translate(194.5945945945946,146.25466840107418)" d="M2.7386127875258306,0A2.7386127875258306,2.7386127875258306,0,1,1,-2.7386127875258306,0A2.7386127875258306,2.7386127875258306,0,1,1,2.7386127875258306,0" style="fill: none; stroke: #f58518; stroke-width: 2; opacity: 0.5;"></path><path transform="translate(202.7027027027027,122.7758338603167)" d="M2.7386127875258306,0A2.7386127875258306,2.7386127875258306,0,1,1,-2.7386127875258306,0A2.7386127875258306,2.7386127875258306,0,1,1,2.7386127875258306,0" style="fill: none; stroke: #f58518; stroke-width: 2; opacity: 0.5;"></path><path transform="translate(210.81081081081084,226.52933391146917)" d="M2.7386127875258306,0A2.7386127875258306,2.7386127875258306,0,1,1,-2.7386127875258306,0A2.7386127875258306,2.7386127875258306,0,1,1,2.7386127875258306,0" style="fill: none; stroke: #f58518; stroke-width: 2; opacity: 0.5;"></path><path transform="translate(218.9189189189189,266.6666666666667)" d="M2.7386127875258306,0A2.7386127875258306,2.7386127875258306,0,1,1,-2.7386127875258306,0A2.7386127875258306,2.7386127875258306,0,1,1,2.7386127875258306,0" style="fill: none; stroke: #f58518; stroke-width: 2; opacity: 0.5;"></path><path transform="translate(227.02702702702703,109.85449879257585)" d="M2.7386127875258306,0A2.7386127875258306,2.7386127875258306,0,1,1,-2.7386127875258306,0A2.7386127875258306,2.7386127875258306,0,1,1,2.7386127875258306,0" style="fill: none; stroke: #f58518; stroke-width: 2; opacity: 0.5;"></path><path transform="translate(235.13513513513513,78.00355360389095)" d="M2.7386127875258306,0A2.7386127875258306,2.7386127875258306,0,1,1,-2.7386127875258306,0A2.7386127875258306,2.7386127875258306,0,1,1,2.7386127875258306,0" style="fill: none; stroke: #f58518; stroke-width: 2; opacity: 0.5;"></path><path transform="translate(243.24324324324326,64.19814134961501)" d="M2.7386127875258306,0A2.7386127875258306,2.7386127875258306,0,1,1,-2.7386127875258306,0A2.7386127875258306,2.7386127875258306,0,1,1,2.7386127875258306,0" style="fill: none; stroke: #f58518; stroke-width: 2; opacity: 0.5;"></path><path transform="translate(251.35135135135135,102.60681048289678)" d="M2.7386127875258306,0A2.7386127875258306,2.7386127875258306,0,1,1,-2.7386127875258306,0A2.7386127875258306,2.7386127875258306,0,1,1,2.7386127875258306,0" style="fill: none; stroke: #f58518; stroke-width: 2; opacity: 0.5;"></path><path transform="translate(259.4594594594595,162.91316661551417)" d="M2.7386127875258306,0A2.7386127875258306,2.7386127875258306,0,1,1,-2.7386127875258306,0A2.7386127875258306,2.7386127875258306,0,1,1,2.7386127875258306,0" style="fill: none; stroke: #f58518; stroke-width: 2; opacity: 0.5;"></path><path transform="translate(267.56756756756755,186.39200115627168)" d="M2.7386127875258306,0A2.7386127875258306,2.7386127875258306,0,1,1,-2.7386127875258306,0A2.7386127875258306,2.7386127875258306,0,1,1,2.7386127875258306,0" style="fill: none; stroke: #f58518; stroke-width: 2; opacity: 0.5;"></path><path transform="translate(275.6756756756757,203.05049937071172)" d="M2.7386127875258306,0A2.7386127875258306,2.7386127875258306,0,1,1,-2.7386127875258306,0A2.7386127875258306,2.7386127875258306,0,1,1,2.7386127875258306,0" style="fill: none; stroke: #f58518; stroke-width: 2; opacity: 0.5;"></path><path transform="translate(283.7837837837838,73.71226248770411)" d="M2.7386127875258306,0A2.7386127875258306,2.7386127875258306,0,1,1,-2.7386127875258306,0A2.7386127875258306,2.7386127875258306,0,1,1,2.7386127875258306,0" style="fill: none; stroke: #f58518; stroke-width: 2; opacity: 0.5;"></path><path transform="translate(291.89189189189193,38.99064318694183)" d="M2.7386127875258306,0A2.7386127875258306,2.7386127875258306,0,1,1,-2.7386127875258306,0A2.7386127875258306,2.7386127875258306,0,1,1,2.7386127875258306,0" style="fill: none; stroke: #f58518; stroke-width: 2; opacity: 0.5;"></path><path transform="translate(300,48.87087258938845)" d="M2.7386127875258306,0A2.7386127875258306,2.7386127875258306,0,1,1,-2.7386127875258306,0A2.7386127875258306,2.7386127875258306,0,1,1,2.7386127875258306,0" style="fill: none; stroke: #f58518; stroke-width: 2; opacity: 0.5;"></path><path transform="translate(308.10810810810807,47.53964313517503)" d="M2.7386127875258306,0A2.7386127875258306,2.7386127875258306,0,1,1,-2.7386127875258306,0A2.7386127875258306,2.7386127875258306,0,1,1,2.7386127875258306,0" style="fill: none; stroke: #f58518; stroke-width: 2; opacity: 0.5;"></path><path transform="translate(316.2162162162162,48.87087258938845)" d="M2.7386127875258306,0A2.7386127875258306,2.7386127875258306,0,1,1,-2.7386127875258306,0A2.7386127875258306,2.7386127875258306,0,1,1,2.7386127875258306,0" style="fill: none; stroke: #f58518; stroke-width: 2; opacity: 0.5;"></path><path transform="translate(324.3243243243243,113.84959524290159)" d="M2.7386127875258306,0A2.7386127875258306,2.7386127875258306,0,1,1,-2.7386127875258306,0A2.7386127875258306,2.7386127875258306,0,1,1,2.7386127875258306,0" style="fill: none; stroke: #f58518; stroke-width: 2; opacity: 0.5;"></path><path transform="translate(332.43243243243245,226.52933391146917)" d="M2.7386127875258306,0A2.7386127875258306,2.7386127875258306,0,1,1,-2.7386127875258306,0A2.7386127875258306,2.7386127875258306,0,1,1,2.7386127875258306,0" style="fill: none; stroke: #f58518; stroke-width: 2; opacity: 0.5;"></path><path transform="translate(340.5405405405405,40.137332755197484)" d="M2.7386127875258306,0A2.7386127875258306,2.7386127875258306,0,1,1,-2.7386127875258306,0A2.7386127875258306,2.7386127875258306,0,1,1,2.7386127875258306,0" style="fill: none; stroke: #f58518; stroke-width: 2; opacity: 0.5;"></path><path transform="translate(348.64864864864865,22.3321449725018)" d="M2.7386127875258306,0A2.7386127875258306,2.7386127875258306,0,1,1,-2.7386127875258306,0A2.7386127875258306,2.7386127875258306,0,1,1,2.7386127875258306,0" style="fill: none; stroke: #f58518; stroke-width: 2; opacity: 0.5;"></path><path transform="translate(356.7567567567568,15.134569977002421)" d="M2.7386127875258306,0A2.7386127875258306,2.7386127875258306,0,1,1,-2.7386127875258306,0A2.7386127875258306,2.7386127875258306,0,1,1,2.7386127875258306,0" style="fill: none; stroke: #f58518; stroke-width: 2; opacity: 0.5;"></path><path transform="translate(364.86486486486484,15.891521029227862)" d="M2.7386127875258306,0A2.7386127875258306,2.7386127875258306,0,1,1,-2.7386127875258306,0A2.7386127875258306,2.7386127875258306,0,1,1,2.7386127875258306,0" style="fill: none; stroke: #f58518; stroke-width: 2; opacity: 0.5;"></path><path transform="translate(372.97297297297297,10.789587683190138)" d="M2.7386127875258306,0A2.7386127875258306,2.7386127875258306,0,1,1,-2.7386127875258306,0A2.7386127875258306,2.7386127875258306,0,1,1,2.7386127875258306,0" style="fill: none; stroke: #f58518; stroke-width: 2; opacity: 0.5;"></path><path transform="translate(381.08108108108104,102.60681048289678)" d="M2.7386127875258306,0A2.7386127875258306,2.7386127875258306,0,1,1,-2.7386127875258306,0A2.7386127875258306,2.7386127875258306,0,1,1,2.7386127875258306,0" style="fill: none; stroke: #f58518; stroke-width: 2; opacity: 0.5;"></path><path transform="translate(389.1891891891892,162.91316661551417)" d="M2.7386127875258306,0A2.7386127875258306,2.7386127875258306,0,1,1,-2.7386127875258306,0A2.7386127875258306,2.7386127875258306,0,1,1,2.7386127875258306,0" style="fill: none; stroke: #f58518; stroke-width: 2; opacity: 0.5;"></path><path transform="translate(397.2972972972973,18.22361865060591)" d="M2.7386127875258306,0A2.7386127875258306,2.7386127875258306,0,1,1,-2.7386127875258306,0A2.7386127875258306,2.7386127875258306,0,1,1,2.7386127875258306,0" style="fill: none; stroke: #f58518; stroke-width: 2; opacity: 0.5;"></path><path transform="translate(405.4054054054054,17.435770702536544)" d="M2.7386127875258306,0A2.7386127875258306,2.7386127875258306,0,1,1,-2.7386127875258306,0A2.7386127875258306,2.7386127875258306,0,1,1,2.7386127875258306,0" style="fill: none; stroke: #f58518; stroke-width: 2; opacity: 0.5;"></path><path transform="translate(413.5135135135135,44.965622442456834)" d="M2.7386127875258306,0A2.7386127875258306,2.7386127875258306,0,1,1,-2.7386127875258306,0A2.7386127875258306,2.7386127875258306,0,1,1,2.7386127875258306,0" style="fill: none; stroke: #f58518; stroke-width: 2; opacity: 0.5;"></path><path transform="translate(421.62162162162167,29.579833282180836)" d="M2.7386127875258306,0A2.7386127875258306,2.7386127875258306,0,1,1,-2.7386127875258306,0A2.7386127875258306,2.7386127875258306,0,1,1,2.7386127875258306,0" style="fill: none; stroke: #f58518; stroke-width: 2; opacity: 0.5;"></path><path transform="translate(429.72972972972974,22.3321449725018)" d="M2.7386127875258306,0A2.7386127875258306,2.7386127875258306,0,1,1,-2.7386127875258306,0A2.7386127875258306,2.7386127875258306,0,1,1,2.7386127875258306,0" style="fill: none; stroke: #f58518; stroke-width: 2; opacity: 0.5;"></path><path transform="translate(437.8378378378378,106.11733564587671)" d="M2.7386127875258306,0A2.7386127875258306,2.7386127875258306,0,1,1,-2.7386127875258306,0A2.7386127875258306,2.7386127875258306,0,1,1,2.7386127875258306,0" style="fill: none; stroke: #f58518; stroke-width: 2; opacity: 0.5;"></path><path transform="translate(445.94594594594594,153.98692799809913)" d="M2.7386127875258306,0A2.7386127875258306,2.7386127875258306,0,1,1,-2.7386127875258306,0A2.7386127875258306,2.7386127875258306,0,1,1,2.7386127875258306,0" style="fill: none; stroke: #f58518; stroke-width: 2; opacity: 0.5;"></path><path transform="translate(454.05405405405406,8.733539834191006)" d="M2.7386127875258306,0A2.7386127875258306,2.7386127875258306,0,1,1,-2.7386127875258306,0A2.7386127875258306,2.7386127875258306,0,1,1,2.7386127875258306,0" style="fill: none; stroke: #f58518; stroke-width: 2; opacity: 0.5;"></path><path transform="translate(462.1621621621622,11.491486348837743)" d="M2.7386127875258306,0A2.7386127875258306,2.7386127875258306,0,1,1,-2.7386127875258306,0A2.7386127875258306,2.7386127875258306,0,1,1,2.7386127875258306,0" style="fill: none; stroke: #f58518; stroke-width: 2; opacity: 0.5;"></path><path transform="translate(470.27027027027026,22.3321449725018)" d="M2.7386127875258306,0A2.7386127875258306,2.7386127875258306,0,1,1,-2.7386127875258306,0A2.7386127875258306,2.7386127875258306,0,1,1,2.7386127875258306,0" style="fill: none; stroke: #f58518; stroke-width: 2; opacity: 0.5;"></path><path transform="translate(478.37837837837833,24.944885780952575)" d="M2.7386127875258306,0A2.7386127875258306,2.7386127875258306,0,1,1,-2.7386127875258306,0A2.7386127875258306,2.7386127875258306,0,1,1,2.7386127875258306,0" style="fill: none; stroke: #f58518; stroke-width: 2; opacity: 0.5;"></path><path transform="translate(486.4864864864865,28.62268866523103)" d="M2.7386127875258306,0A2.7386127875258306,2.7386127875258306,0,1,1,-2.7386127875258306,0A2.7386127875258306,2.7386127875258306,0,1,1,2.7386127875258306,0" style="fill: none; stroke: #f58518; stroke-width: 2; opacity: 0.5;"></path><path transform="translate(494.5945945945946,186.39200115627168)" d="M2.7386127875258306,0A2.7386127875258306,2.7386127875258306,0,1,1,-2.7386127875258306,0A2.7386127875258306,2.7386127875258306,0,1,1,2.7386127875258306,0" style="fill: none; stroke: #f58518; stroke-width: 2; opacity: 0.5;"></path><path transform="translate(502.7027027027027,203.05049937071172)" d="M2.7386127875258306,0A2.7386127875258306,2.7386127875258306,0,1,1,-2.7386127875258306,0A2.7386127875258306,2.7386127875258306,0,1,1,2.7386127875258306,0" style="fill: none; stroke: #f58518; stroke-width: 2; opacity: 0.5;"></path><path transform="translate(510.8108108108108,21.486787901699245)" d="M2.7386127875258306,0A2.7386127875258306,2.7386127875258306,0,1,1,-2.7386127875258306,0A2.7386127875258306,2.7386127875258306,0,1,1,2.7386127875258306,0" style="fill: none; stroke: #f58518; stroke-width: 2; opacity: 0.5;"></path><path transform="translate(518.918918918919,19.02233380916418)" d="M2.7386127875258306,0A2.7386127875258306,2.7386127875258306,0,1,1,-2.7386127875258306,0A2.7386127875258306,2.7386127875258306,0,1,1,2.7386127875258306,0" style="fill: none; stroke: #f58518; stroke-width: 2; opacity: 0.5;"></path><path transform="translate(527.0270270270271,53.05866782293833)" d="M2.7386127875258306,0A2.7386127875258306,2.7386127875258306,0,1,1,-2.7386127875258306,0A2.7386127875258306,2.7386127875258306,0,1,1,2.7386127875258306,0" style="fill: none; stroke: #f58518; stroke-width: 2; opacity: 0.5;"></path><path transform="translate(535.1351351351351,26.75459340618911)" d="M2.7386127875258306,0A2.7386127875258306,2.7386127875258306,0,1,1,-2.7386127875258306,0A2.7386127875258306,2.7386127875258306,0,1,1,2.7386127875258306,0" style="fill: none; stroke: #f58518; stroke-width: 2; opacity: 0.5;"></path><path transform="translate(543.2432432432432,15.891521029227862)" d="M2.7386127875258306,0A2.7386127875258306,2.7386127875258306,0,1,1,-2.7386127875258306,0A2.7386127875258306,2.7386127875258306,0,1,1,2.7386127875258306,0" style="fill: none; stroke: #f58518; stroke-width: 2; opacity: 0.5;"></path><path transform="translate(551.3513513513514,109.85449879257585)" d="M2.7386127875258306,0A2.7386127875258306,2.7386127875258306,0,1,1,-2.7386127875258306,0A2.7386127875258306,2.7386127875258306,0,1,1,2.7386127875258306,0" style="fill: none; stroke: #f58518; stroke-width: 2; opacity: 0.5;"></path><path transform="translate(559.4594594594595,186.39200115627168)" d="M2.7386127875258306,0A2.7386127875258306,2.7386127875258306,0,1,1,-2.7386127875258306,0A2.7386127875258306,2.7386127875258306,0,1,1,2.7386127875258306,0" style="fill: none; stroke: #f58518; stroke-width: 2; opacity: 0.5;"></path><path transform="translate(567.5675675675676,90.3707607021441)" d="M2.7386127875258306,0A2.7386127875258306,2.7386127875258306,0,1,1,-2.7386127875258306,0A2.7386127875258306,2.7386127875258306,0,1,1,2.7386127875258306,0" style="fill: none; stroke: #f58518; stroke-width: 2; opacity: 0.5;"></path><path transform="translate(575.6756756756756,266.6666666666667)" d="M2.7386127875258306,0A2.7386127875258306,2.7386127875258306,0,1,1,-2.7386127875258306,0A2.7386127875258306,2.7386127875258306,0,1,1,2.7386127875258306,0" style="fill: none; stroke: #f58518; stroke-width: 2; opacity: 0.5;"></path><path transform="translate(64.86486486486487,266.6666666666667)" d="M2.7386127875258306,0A2.7386127875258306,2.7386127875258306,0,1,1,-2.7386127875258306,0A2.7386127875258306,2.7386127875258306,0,1,1,2.7386127875258306,0" style="fill: none; stroke: #e45756; stroke-width: 2; opacity: 0.5;"></path><path transform="translate(97.2972972972973,226.52933391146917)" d="M2.7386127875258306,0A2.7386127875258306,2.7386127875258306,0,1,1,-2.7386127875258306,0A2.7386127875258306,2.7386127875258306,0,1,1,2.7386127875258306,0" style="fill: none; stroke: #e45756; stroke-width: 2; opacity: 0.5;"></path><path transform="translate(105.40540540540542,266.6666666666667)" d="M2.7386127875258306,0A2.7386127875258306,2.7386127875258306,0,1,1,-2.7386127875258306,0A2.7386127875258306,2.7386127875258306,0,1,1,2.7386127875258306,0" style="fill: none; stroke: #e45756; stroke-width: 2; opacity: 0.5;"></path><path transform="translate(113.51351351351352,266.6666666666667)" d="M2.7386127875258306,0A2.7386127875258306,2.7386127875258306,0,1,1,-2.7386127875258306,0A2.7386127875258306,2.7386127875258306,0,1,1,2.7386127875258306,0" style="fill: none; stroke: #e45756; stroke-width: 2; opacity: 0.5;"></path><path transform="translate(121.62162162162163,266.6666666666667)" d="M2.7386127875258306,0A2.7386127875258306,2.7386127875258306,0,1,1,-2.7386127875258306,0A2.7386127875258306,2.7386127875258306,0,1,1,2.7386127875258306,0" style="fill: none; stroke: #e45756; stroke-width: 2; opacity: 0.5;"></path><path transform="translate(137.83783783783784,203.05049937071172)" d="M2.7386127875258306,0A2.7386127875258306,2.7386127875258306,0,1,1,-2.7386127875258306,0A2.7386127875258306,2.7386127875258306,0,1,1,2.7386127875258306,0" style="fill: none; stroke: #e45756; stroke-width: 2; opacity: 0.5;"></path><path transform="translate(145.94594594594597,226.52933391146917)" d="M2.7386127875258306,0A2.7386127875258306,2.7386127875258306,0,1,1,-2.7386127875258306,0A2.7386127875258306,2.7386127875258306,0,1,1,2.7386127875258306,0" style="fill: none; stroke: #e45756; stroke-width: 2; opacity: 0.5;"></path><path transform="translate(154.05405405405403,203.05049937071172)" d="M2.7386127875258306,0A2.7386127875258306,2.7386127875258306,0,1,1,-2.7386127875258306,0A2.7386127875258306,2.7386127875258306,0,1,1,2.7386127875258306,0" style="fill: none; stroke: #e45756; stroke-width: 2; opacity: 0.5;"></path><path transform="translate(162.16216216216216,203.05049937071172)" d="M2.7386127875258306,0A2.7386127875258306,2.7386127875258306,0,1,1,-2.7386127875258306,0A2.7386127875258306,2.7386127875258306,0,1,1,2.7386127875258306,0" style="fill: none; stroke: #e45756; stroke-width: 2; opacity: 0.5;"></path><path transform="translate(170.27027027027026,203.05049937071172)" d="M2.7386127875258306,0A2.7386127875258306,2.7386127875258306,0,1,1,-2.7386127875258306,0A2.7386127875258306,2.7386127875258306,0,1,1,2.7386127875258306,0" style="fill: none; stroke: #e45756; stroke-width: 2; opacity: 0.5;"></path><path transform="translate(178.3783783783784,266.6666666666667)" d="M2.7386127875258306,0A2.7386127875258306,2.7386127875258306,0,1,1,-2.7386127875258306,0A2.7386127875258306,2.7386127875258306,0,1,1,2.7386127875258306,0" style="fill: none; stroke: #e45756; stroke-width: 2; opacity: 0.5;"></path><path transform="translate(186.48648648648648,203.05049937071172)" d="M2.7386127875258306,0A2.7386127875258306,2.7386127875258306,0,1,1,-2.7386127875258306,0A2.7386127875258306,2.7386127875258306,0,1,1,2.7386127875258306,0" style="fill: none; stroke: #e45756; stroke-width: 2; opacity: 0.5;"></path><path transform="translate(194.5945945945946,266.6666666666667)" d="M2.7386127875258306,0A2.7386127875258306,2.7386127875258306,0,1,1,-2.7386127875258306,0A2.7386127875258306,2.7386127875258306,0,1,1,2.7386127875258306,0" style="fill: none; stroke: #e45756; stroke-width: 2; opacity: 0.5;"></path><path transform="translate(202.7027027027027,173.47066608853083)" d="M2.7386127875258306,0A2.7386127875258306,2.7386127875258306,0,1,1,-2.7386127875258306,0A2.7386127875258306,2.7386127875258306,0,1,1,2.7386127875258306,0" style="fill: none; stroke: #e45756; stroke-width: 2; opacity: 0.5;"></path><path transform="translate(210.81081081081084,186.39200115627168)" d="M2.7386127875258306,0A2.7386127875258306,2.7386127875258306,0,1,1,-2.7386127875258306,0A2.7386127875258306,2.7386127875258306,0,1,1,2.7386127875258306,0" style="fill: none; stroke: #e45756; stroke-width: 2; opacity: 0.5;"></path><path transform="translate(218.9189189189189,226.52933391146917)" d="M2.7386127875258306,0A2.7386127875258306,2.7386127875258306,0,1,1,-2.7386127875258306,0A2.7386127875258306,2.7386127875258306,0,1,1,2.7386127875258306,0" style="fill: none; stroke: #e45756; stroke-width: 2; opacity: 0.5;"></path><path transform="translate(227.02702702702703,203.05049937071172)" d="M2.7386127875258306,0A2.7386127875258306,2.7386127875258306,0,1,1,-2.7386127875258306,0A2.7386127875258306,2.7386127875258306,0,1,1,2.7386127875258306,0" style="fill: none; stroke: #e45756; stroke-width: 2; opacity: 0.5;"></path><path transform="translate(235.13513513513513,203.05049937071172)" d="M2.7386127875258306,0A2.7386127875258306,2.7386127875258306,0,1,1,-2.7386127875258306,0A2.7386127875258306,2.7386127875258306,0,1,1,2.7386127875258306,0" style="fill: none; stroke: #e45756; stroke-width: 2; opacity: 0.5;"></path><path transform="translate(243.24324324324326,203.05049937071172)" d="M2.7386127875258306,0A2.7386127875258306,2.7386127875258306,0,1,1,-2.7386127875258306,0A2.7386127875258306,2.7386127875258306,0,1,1,2.7386127875258306,0" style="fill: none; stroke: #e45756; stroke-width: 2; opacity: 0.5;"></path><path transform="translate(251.35135135135135,186.39200115627168)" d="M2.7386127875258306,0A2.7386127875258306,2.7386127875258306,0,1,1,-2.7386127875258306,0A2.7386127875258306,2.7386127875258306,0,1,1,2.7386127875258306,0" style="fill: none; stroke: #e45756; stroke-width: 2; opacity: 0.5;"></path><path transform="translate(259.4594594594595,173.47066608853083)" d="M2.7386127875258306,0A2.7386127875258306,2.7386127875258306,0,1,1,-2.7386127875258306,0A2.7386127875258306,2.7386127875258306,0,1,1,2.7386127875258306,0" style="fill: none; stroke: #e45756; stroke-width: 2; opacity: 0.5;"></path><path transform="translate(267.56756756756755,203.05049937071172)" d="M2.7386127875258306,0A2.7386127875258306,2.7386127875258306,0,1,1,-2.7386127875258306,0A2.7386127875258306,2.7386127875258306,0,1,1,2.7386127875258306,0" style="fill: none; stroke: #e45756; stroke-width: 2; opacity: 0.5;"></path><path transform="translate(283.7837837837838,162.91316661551417)" d="M2.7386127875258306,0A2.7386127875258306,2.7386127875258306,0,1,1,-2.7386127875258306,0A2.7386127875258306,2.7386127875258306,0,1,1,2.7386127875258306,0" style="fill: none; stroke: #e45756; stroke-width: 2; opacity: 0.5;"></path><path transform="translate(291.89189189189193,203.05049937071172)" d="M2.7386127875258306,0A2.7386127875258306,2.7386127875258306,0,1,1,-2.7386127875258306,0A2.7386127875258306,2.7386127875258306,0,1,1,2.7386127875258306,0" style="fill: none; stroke: #e45756; stroke-width: 2; opacity: 0.5;"></path><path transform="translate(300,186.39200115627168)" d="M2.7386127875258306,0A2.7386127875258306,2.7386127875258306,0,1,1,-2.7386127875258306,0A2.7386127875258306,2.7386127875258306,0,1,1,2.7386127875258306,0" style="fill: none; stroke: #e45756; stroke-width: 2; opacity: 0.5;"></path><path transform="translate(308.10810810810807,186.39200115627168)" d="M2.7386127875258306,0A2.7386127875258306,2.7386127875258306,0,1,1,-2.7386127875258306,0A2.7386127875258306,2.7386127875258306,0,1,1,2.7386127875258306,0" style="fill: none; stroke: #e45756; stroke-width: 2; opacity: 0.5;"></path><path transform="translate(316.2162162162162,266.6666666666667)" d="M2.7386127875258306,0A2.7386127875258306,2.7386127875258306,0,1,1,-2.7386127875258306,0A2.7386127875258306,2.7386127875258306,0,1,1,2.7386127875258306,0" style="fill: none; stroke: #e45756; stroke-width: 2; opacity: 0.5;"></path><path transform="translate(324.3243243243243,203.05049937071172)" d="M2.7386127875258306,0A2.7386127875258306,2.7386127875258306,0,1,1,-2.7386127875258306,0A2.7386127875258306,2.7386127875258306,0,1,1,2.7386127875258306,0" style="fill: none; stroke: #e45756; stroke-width: 2; opacity: 0.5;"></path><path transform="translate(332.43243243243245,203.05049937071172)" d="M2.7386127875258306,0A2.7386127875258306,2.7386127875258306,0,1,1,-2.7386127875258306,0A2.7386127875258306,2.7386127875258306,0,1,1,2.7386127875258306,0" style="fill: none; stroke: #e45756; stroke-width: 2; opacity: 0.5;"></path><path transform="translate(340.5405405405405,266.6666666666667)" d="M2.7386127875258306,0A2.7386127875258306,2.7386127875258306,0,1,1,-2.7386127875258306,0A2.7386127875258306,2.7386127875258306,0,1,1,2.7386127875258306,0" style="fill: none; stroke: #e45756; stroke-width: 2; opacity: 0.5;"></path><path transform="translate(348.64864864864865,186.39200115627168)" d="M2.7386127875258306,0A2.7386127875258306,2.7386127875258306,0,1,1,-2.7386127875258306,0A2.7386127875258306,2.7386127875258306,0,1,1,2.7386127875258306,0" style="fill: none; stroke: #e45756; stroke-width: 2; opacity: 0.5;"></path><path transform="translate(356.7567567567568,173.47066608853083)" d="M2.7386127875258306,0A2.7386127875258306,2.7386127875258306,0,1,1,-2.7386127875258306,0A2.7386127875258306,2.7386127875258306,0,1,1,2.7386127875258306,0" style="fill: none; stroke: #e45756; stroke-width: 2; opacity: 0.5;"></path><path transform="translate(364.86486486486484,226.52933391146917)" d="M2.7386127875258306,0A2.7386127875258306,2.7386127875258306,0,1,1,-2.7386127875258306,0A2.7386127875258306,2.7386127875258306,0,1,1,2.7386127875258306,0" style="fill: none; stroke: #e45756; stroke-width: 2; opacity: 0.5;"></path><path transform="translate(372.97297297297297,203.05049937071172)" d="M2.7386127875258306,0A2.7386127875258306,2.7386127875258306,0,1,1,-2.7386127875258306,0A2.7386127875258306,2.7386127875258306,0,1,1,2.7386127875258306,0" style="fill: none; stroke: #e45756; stroke-width: 2; opacity: 0.5;"></path><path transform="translate(381.08108108108104,226.52933391146917)" d="M2.7386127875258306,0A2.7386127875258306,2.7386127875258306,0,1,1,-2.7386127875258306,0A2.7386127875258306,2.7386127875258306,0,1,1,2.7386127875258306,0" style="fill: none; stroke: #e45756; stroke-width: 2; opacity: 0.5;"></path><path transform="translate(389.1891891891892,173.47066608853083)" d="M2.7386127875258306,0A2.7386127875258306,2.7386127875258306,0,1,1,-2.7386127875258306,0A2.7386127875258306,2.7386127875258306,0,1,1,2.7386127875258306,0" style="fill: none; stroke: #e45756; stroke-width: 2; opacity: 0.5;"></path><path transform="translate(405.4054054054054,226.52933391146917)" d="M2.7386127875258306,0A2.7386127875258306,2.7386127875258306,0,1,1,-2.7386127875258306,0A2.7386127875258306,2.7386127875258306,0,1,1,2.7386127875258306,0" style="fill: none; stroke: #e45756; stroke-width: 2; opacity: 0.5;"></path><path transform="translate(421.62162162162167,266.6666666666667)" d="M2.7386127875258306,0A2.7386127875258306,2.7386127875258306,0,1,1,-2.7386127875258306,0A2.7386127875258306,2.7386127875258306,0,1,1,2.7386127875258306,0" style="fill: none; stroke: #e45756; stroke-width: 2; opacity: 0.5;"></path><path transform="translate(429.72972972972974,226.52933391146917)" d="M2.7386127875258306,0A2.7386127875258306,2.7386127875258306,0,1,1,-2.7386127875258306,0A2.7386127875258306,2.7386127875258306,0,1,1,2.7386127875258306,0" style="fill: none; stroke: #e45756; stroke-width: 2; opacity: 0.5;"></path><path transform="translate(437.8378378378378,186.39200115627168)" d="M2.7386127875258306,0A2.7386127875258306,2.7386127875258306,0,1,1,-2.7386127875258306,0A2.7386127875258306,2.7386127875258306,0,1,1,2.7386127875258306,0" style="fill: none; stroke: #e45756; stroke-width: 2; opacity: 0.5;"></path><path transform="translate(445.94594594594594,226.52933391146917)" d="M2.7386127875258306,0A2.7386127875258306,2.7386127875258306,0,1,1,-2.7386127875258306,0A2.7386127875258306,2.7386127875258306,0,1,1,2.7386127875258306,0" style="fill: none; stroke: #e45756; stroke-width: 2; opacity: 0.5;"></path><path transform="translate(454.05405405405406,203.05049937071172)" d="M2.7386127875258306,0A2.7386127875258306,2.7386127875258306,0,1,1,-2.7386127875258306,0A2.7386127875258306,2.7386127875258306,0,1,1,2.7386127875258306,0" style="fill: none; stroke: #e45756; stroke-width: 2; opacity: 0.5;"></path><path transform="translate(462.1621621621622,226.52933391146917)" d="M2.7386127875258306,0A2.7386127875258306,2.7386127875258306,0,1,1,-2.7386127875258306,0A2.7386127875258306,2.7386127875258306,0,1,1,2.7386127875258306,0" style="fill: none; stroke: #e45756; stroke-width: 2; opacity: 0.5;"></path><path transform="translate(470.27027027027026,266.6666666666667)" d="M2.7386127875258306,0A2.7386127875258306,2.7386127875258306,0,1,1,-2.7386127875258306,0A2.7386127875258306,2.7386127875258306,0,1,1,2.7386127875258306,0" style="fill: none; stroke: #e45756; stroke-width: 2; opacity: 0.5;"></path><path transform="translate(478.37837837837833,226.52933391146917)" d="M2.7386127875258306,0A2.7386127875258306,2.7386127875258306,0,1,1,-2.7386127875258306,0A2.7386127875258306,2.7386127875258306,0,1,1,2.7386127875258306,0" style="fill: none; stroke: #e45756; stroke-width: 2; opacity: 0.5;"></path><path transform="translate(502.7027027027027,266.6666666666667)" d="M2.7386127875258306,0A2.7386127875258306,2.7386127875258306,0,1,1,-2.7386127875258306,0A2.7386127875258306,2.7386127875258306,0,1,1,2.7386127875258306,0" style="fill: none; stroke: #e45756; stroke-width: 2; opacity: 0.5;"></path><path transform="translate(535.1351351351351,266.6666666666667)" d="M2.7386127875258306,0A2.7386127875258306,2.7386127875258306,0,1,1,-2.7386127875258306,0A2.7386127875258306,2.7386127875258306,0,1,1,2.7386127875258306,0" style="fill: none; stroke: #e45756; stroke-width: 2; opacity: 0.5;"></path><path transform="translate(543.2432432432432,266.6666666666667)" d="M2.7386127875258306,0A2.7386127875258306,2.7386127875258306,0,1,1,-2.7386127875258306,0A2.7386127875258306,2.7386127875258306,0,1,1,2.7386127875258306,0" style="fill: none; stroke: #e45756; stroke-width: 2; opacity: 0.5;"></path><path transform="translate(575.6756756756756,266.6666666666667)" d="M2.7386127875258306,0A2.7386127875258306,2.7386127875258306,0,1,1,-2.7386127875258306,0A2.7386127875258306,2.7386127875258306,0,1,1,2.7386127875258306,0" style="fill: none; stroke: #e45756; stroke-width: 2; opacity: 0.5;"></path><path transform="translate(583.7837837837839,266.6666666666667)" d="M2.7386127875258306,0A2.7386127875258306,2.7386127875258306,0,1,1,-2.7386127875258306,0A2.7386127875258306,2.7386127875258306,0,1,1,2.7386127875258306,0" style="fill: none; stroke: #e45756; stroke-width: 2; opacity: 0.5;"></path></g><g class="mark-group role-legend"><g transform="translate(0,-32)"><path class="background" d="M0,0h269v14h-269Z" style="pointer-events: none; fill: none;"></path><g><g class="mark-group role-legend-entry"><g transform="translate(0,0)"><path class="background" d="M0,0h0v0h0Z" style="pointer-events: none; fill: none;"></path><g><g class="mark-group role-scope"><g transform="translate(0,0)"><path class="background" d="M0,0h97.365234375v14h-97.365234375Z" style="pointer-events: none; fill: none; opacity: 1;"></path><g><g class="mark-symbol role-legend-symbol" style="pointer-events: none;"><path transform="translate(7,7)" d="M5,0A5,5,0,1,1,-5,0A5,5,0,1,1,5,0" style="fill: none; stroke: #4c78a8; stroke-width: 1.5; opacity: 0.5;"></path></g><g class="mark-text role-legend-label" style="pointer-events: none;"><text text-anchor="start" transform="translate(18,11)" style="font-family: sans-serif; font-size: 14px; fill: #000; opacity: 1;">Confirmados</text></g></g><path class="foreground" d="" style="pointer-events: none; display: none; fill: none;"></path></g><g transform="translate(108,0)"><path class="background" d="M0,0h81.041015625v14h-81.041015625Z" style="pointer-events: none; fill: none; opacity: 1;"></path><g><g class="mark-symbol role-legend-symbol" style="pointer-events: none;"><path transform="translate(7,7)" d="M5,0A5,5,0,1,1,-5,0A5,5,0,1,1,5,0" style="fill: none; stroke: #f58518; stroke-width: 1.5; opacity: 0.5;"></path></g><g class="mark-text role-legend-label" style="pointer-events: none;"><text text-anchor="start" transform="translate(18,11)" style="font-family: sans-serif; font-size: 14px; fill: #000; opacity: 1;">Probables</text></g></g><path class="foreground" d="" style="pointer-events: none; display: none; fill: none;"></path></g><g transform="translate(200,0)"><path class="background" d="M0,0h68.572265625v14h-68.572265625Z" style="pointer-events: none; fill: none; opacity: 1;"></path><g><g class="mark-symbol role-legend-symbol" style="pointer-events: none;"><path transform="translate(7,7)" d="M5,0A5,5,0,1,1,-5,0A5,5,0,1,1,5,0" style="fill: none; stroke: #e45756; stroke-width: 1.5; opacity: 0.5;"></path></g><g class="mark-text role-legend-label" style="pointer-events: none;"><text text-anchor="start" transform="translate(18,11)" style="font-family: sans-serif; font-size: 14px; fill: #000; opacity: 1;">Muertes</text></g></g><path class="foreground" d="" style="pointer-events: none; display: none; fill: none;"></path></g></g></g><path class="foreground" d="" style="pointer-events: none; display: none; fill: none;"></path></g></g></g><path class="foreground" d="" style="pointer-events: none; display: none; fill: none;"></path></g></g></g><path class="foreground" d="" style="display: none; fill: none;"></path></g></g></g></svg>