<svg class="marks" width="656" height="463" viewBox="0 0 656 463" version="1.1" xmlns="http://www.w3.org/2000/svg" xmlns:xlink="http://www.w3.org/1999/xlink"><rect width="656" height="463" style="fill: white;"></rect><g transform="translate(48,37)"><g class="mark-group role-frame root"><g transform="translate(0,0)"><path class="background" d="M0.5,0.5h600v400h-600Z" style="fill: none; stroke: #ddd;"></path><g><g class="mark-group role-axis"><g transform="translate(0.5,400.5)"><path class="background" d="M0,0h0v0h0Z" style="pointer-events: none; fill: none;"></path><g><g class="mark-rule role-axis-grid" style="pointer-events: none;"><line transform="translate(42,-400)" x2="0" y2="400" style="fill: none; stroke: #ddd; stroke-width: 1; opacity: 1;"></line><line transform="translate(91,-400)" x2="0" y2="400" style="fill: none; stroke: #ddd; stroke-width: 1; opacity: 1;"></line><line transform="translate(140,-400)" x2="0" y2="400" style="fill: none; stroke: #ddd; stroke-width: 1; opacity: 1;"></line><line transform="translate(188,-400)" x2="0" y2="400" style="fill: none; stroke: #ddd; stroke-width: 1; opacity: 1;"></line><line transform="translate(237,-400)" x2="0" y2="400" style="fill: none; stroke: #ddd; stroke-width: 1; opacity: 1;"></line><line transform="translate(286,-400)" x2="0" y2="400" style="fill: none; stroke: #ddd; stroke-width: 1; opacity: 1;"></line><line transform="translate(335,-400)" x2="0" y2="400" style="fill: none; stroke: #ddd; stroke-width: 1; opacity: 1;"></line><line transform="translate(384,-400)" x2="0" y2="400" style="fill: none; stroke: #ddd; stroke-width: 1; opacity: 1;"></line><line transform="translate(433,-400)" x2="0" y2="400" style="fill: none; stroke: #ddd; stroke-width: 1; opacity: 1;"></line><line transform="translate(481,-400)" x2="0" y2="400" style="fill: none; stroke: #ddd; stroke-width: 1; opacity: 1;"></line><line transform="translate(530,-400)" x2="0" y2="400" style="fill: none; stroke: #ddd; stroke-width: 1; opacity: 1;"></line><line transform="translate(579,-400)" x2="0" y2="400" style="fill: none; stroke: #ddd; stroke-width: 1; opacity: 1;"></line></g></g><path class="foreground" d="" style="pointer-events: none; display: none; fill: none;"></path></g></g><g class="mark-group role-axis"><g transform="translate(0.5,0.5)"><path class="background" d="M0,0h0v0h0Z" style="pointer-events: none; fill: none;"></path><g><g class="mark-rule role-axis-grid" style="pointer-events: none;"><line transform="translate(0,400)" x2="600" y2="0" style="fill: none; stroke: #ddd; stroke-width: 1; opacity: 1;"></line><line transform="translate(0,370)" x2="600" y2="0" style="fill: none; stroke: #ddd; stroke-width: 1; opacity: 1;"></line><line transform="translate(0,352)" x2="600" y2="0" style="fill: none; stroke: #ddd; stroke-width: 1; opacity: 1;"></line><line transform="translate(0,340)" x2="600" y2="0" style="fill: none; stroke: #ddd; stroke-width: 1; opacity: 1;"></line><line transform="translate(0,330)" x2="600" y2="0" style="fill: none; stroke: #ddd; stroke-width: 1; opacity: 1;"></line><line transform="translate(0,322)" x2="600" y2="0" style="fill: none; stroke: #ddd; stroke-width: 1; opacity: 1;"></line><line transform="translate(0,315)" x2="600" y2="0" style="fill: none; stroke: #ddd; stroke-width: 1; opacity: 1;"></line><line transform="translate(0,310)" x2="600" y2="0" style="fill: none; stroke: #ddd; stroke-width: 1; opacity: 1;"></line><line transform="translate(0,305)" x2="600" y2="0" style="fill: none; stroke: #ddd; stroke-width: 1; opacity: 1;"></line><line transform="translate(0,300)" x2="600" y2="0" style="fill: none; stroke: #ddd; stroke-width: 1; opacity: 1;"></line><line transform="translate(0,270)" x2="600" y2="0" style="fill: none; stroke: #ddd; stroke-width: 1; opacity: 1;"></line><line transform="translate(0,252)" x2="600" y2="0" style="fill: none; stroke: #ddd; stroke-width: 1; opacity: 1;"></line><line transform="translate(0,240)" x2="600" y2="0" style="fill: none; stroke: #ddd; stroke-width: 1; opacity: 1;"></line><line transform="translate(0,230)" x2="600" y2="0" style="fill: none; stroke: #ddd; stroke-width: 1; opacity: 1;"></line><line transform="translate(0,222)" x2="600" y2="0" style="fill: none; stroke: #ddd; stroke-width: 1; opacity: 1;"></line><line transform="translate(0,215)" x2="600" y2="0" style="fill: none; stroke: #ddd; stroke-width: 1; opacity: 1;"></line><line transform="translate(0,210)" x2="600" y2="0" style="fill: none; stroke: #ddd; stroke-width: 1; opacity: 1;"></line><line transform="translate(0,205)" x2="600" y2="0" style="fill: none; stroke: #ddd; stroke-width: 1; opacity: 1;"></line><line transform="translate(0,200)" x2="600" y2="0" style="fill: none; stroke: #ddd; stroke-width: 1; opacity: 1;"></line><line transform="translate(0,170)" x2="600" y2="0" style="fill: none; stroke: #ddd; stroke-width: 1; opacity: 1;"></line><line transform="translate(0,152)" x2="600" y2="0" style="fill: none; stroke: #ddd; stroke-width: 1; opacity: 1;"></line><line transform="translate(0,140)" x2="600" y2="0" style="fill: none; stroke: #ddd; stroke-width: 1; opacity: 1;"></line><line transform="translate(0,130)" x2="600" y2="0" style="fill: none; stroke: #ddd; stroke-width: 1; opacity: 1;"></line><line transform="translate(0,122)" x2="600" y2="0" style="fill: none; stroke: #ddd; stroke-width: 1; opacity: 1;"></line><line transform="translate(0,115)" x2="600" y2="0" style="fill: none; stroke: #ddd; stroke-width: 1; opacity: 1;"></line><line transform="translate(0,110)" x2="600" y2="0" style="fill: none; stroke: #ddd; stroke-width: 1; opacity: 1;"></line><line transform="translate(0,105)" x2="600" y2="0" style="fill: none; stroke: #ddd; stroke-width: 1; opacity: 1;"></line><line transform="translate(0,100)" x2="600" y2="0" style="fill: none; stroke: #ddd; stroke-width: 1; opacity: 1;"></line><line transform="translate(0,70)" x2="600" y2="0" style="fill: none; stroke: #ddd; stroke-width: 1; opacity: 1;"></line><line transform="translate(0,52)" x2="600" y2="0" style="fill: none; stroke: #ddd; stroke-width: 1; opacity: 1;"></line><line transform="translate(0,40)" x2="600" y2="0" style="fill: none; stroke: #ddd; stroke-width: 1; opacity: 1;"></line><line transform="translate(0,30)" x2="600" y2="0" style="fill: none; stroke: #ddd; stroke-width: 1; opacity: 1;"></line><line transform="translate(0,22)" x2="600" y2="0" style="fill: none; stroke: #ddd; stroke-width: 1; opacity: 1;"></line><line transform="translate(0,15)" x2="600" y2="0" style="fill: none; stroke: #ddd; stroke-width: 1; opacity: 1;"></line><line transform="translate(0,10)" x2="600" y2="0" style="fill: none; stroke: #ddd; stroke-width: 1; opacity: 1;"></line><line transform="translate(0,5)" x2="600" y2="0" style="fill: none; stroke: #ddd; stroke-width: 1; opacity: 1;"></line><line transform="translate(0,0)" x2="600" y2="0" style="fill: none; stroke: #ddd; stroke-width: 1; opacity: 1;"></line></g></g><path class="foreground" d="" style="pointer-events: none; display: none; fill: none;"></path></g></g><g class="mark-group role-axis"><g transform="translate(0.5,400.5)"><path class="background" d="M0,0h0v0h0Z" style="pointer-events: none; fill: none;"></path><g><g class="mark-rule role-axis-tick" style="pointer-events: none;"><line transform="translate(42,0)" x2="0" y2="5" style="fill: none; stroke: #888; stroke-width: 1; opacity: 1;"></line><line transform="translate(91,0)" x2="0" y2="5" style="fill: none; stroke: #888; stroke-width: 1; opacity: 1;"></line><line transform="translate(140,0)" x2="0" y2="5" style="fill: none; stroke: #888; stroke-width: 1; opacity: 1;"></line><line transform="translate(188,0)" x2="0" y2="5" style="fill: none; stroke: #888; stroke-width: 1; opacity: 1;"></line><line transform="translate(237,0)" x2="0" y2="5" style="fill: none; stroke: #888; stroke-width: 1; opacity: 1;"></line><line transform="translate(286,0)" x2="0" y2="5" style="fill: none; stroke: #888; stroke-width: 1; opacity: 1;"></line><line transform="translate(335,0)" x2="0" y2="5" style="fill: none; stroke: #888; stroke-width: 1; opacity: 1;"></line><line transform="translate(384,0)" x2="0" y2="5" style="fill: none; stroke: #888; stroke-width: 1; opacity: 1;"></line><line transform="translate(433,0)" x2="0" y2="5" style="fill: none; stroke: #888; stroke-width: 1; opacity: 1;"></line><line transform="translate(481,0)" x2="0" y2="5" style="fill: none; stroke: #888; stroke-width: 1; opacity: 1;"></line><line transform="translate(530,0)" x2="0" y2="5" style="fill: none; stroke: #888; stroke-width: 1; opacity: 1;"></line><line transform="translate(579,0)" x2="0" y2="5" style="fill: none; stroke: #888; stroke-width: 1; opacity: 1;"></line></g><g class="mark-text role-axis-label" style="pointer-events: none;"><text text-anchor="middle" transform="translate(41.860465116279066,18)" style="font-family: sans-serif; font-size: 14px; fill: #000; opacity: 1;">15/03</text><text text-anchor="middle" transform="translate(90.69767441860465,18)" style="font-family: sans-serif; font-size: 14px; fill: #000; opacity: 1;">22/03</text><text text-anchor="middle" transform="translate(139.53488372093022,18)" style="font-family: sans-serif; font-size: 14px; fill: #000; opacity: 1;">29/03</text><text text-anchor="middle" transform="translate(188.37209302325581,18)" style="font-family: sans-serif; font-size: 14px; fill: #000; opacity: 1;">05/04</text><text text-anchor="middle" transform="translate(237.20930232558138,18)" style="font-family: sans-serif; font-size: 14px; fill: #000; opacity: 1;">12/04</text><text text-anchor="middle" transform="translate(286.04651162790697,18)" style="font-family: sans-serif; font-size: 14px; fill: #000; opacity: 1;">19/04</text><text text-anchor="middle" transform="translate(334.8837209302325,18)" style="font-family: sans-serif; font-size: 14px; fill: #000; opacity: 1;">26/04</text><text text-anchor="middle" transform="translate(383.72093023255815,18)" style="font-family: sans-serif; font-size: 14px; fill: #000; opacity: 1;">03/05</text><text text-anchor="middle" transform="translate(432.5581395348837,18)" style="font-family: sans-serif; font-size: 14px; fill: #000; opacity: 1;">10/05</text><text text-anchor="middle" transform="translate(481.39534883720927,18)" style="font-family: sans-serif; font-size: 14px; fill: #000; opacity: 1;">17/05</text><text text-anchor="middle" transform="translate(530.232558139535,18)" style="font-family: sans-serif; font-size: 14px; fill: #000; opacity: 1;">24/05</text><text text-anchor="middle" transform="translate(579.0697674418604,18)" style="font-family: sans-serif; font-size: 14px; fill: #000; opacity: 1;">31/05</text></g><g class="mark-rule role-axis-domain" style="pointer-events: none;"><line transform="translate(0,0)" x2="600" y2="0" style="fill: none; stroke: #888; stroke-width: 1; opacity: 1;"></line></g></g><path class="foreground" d="" style="pointer-events: none; display: none; fill: none;"></path></g></g><g class="mark-group role-axis"><g transform="translate(0.5,0.5)"><path class="background" d="M0,0h0v0h0Z" style="pointer-events: none; fill: none;"></path><g><g class="mark-rule role-axis-tick" style="pointer-events: none;"><line transform="translate(0,400)" x2="-5" y2="0" style="fill: none; stroke: #888; stroke-width: 1; opacity: 1;"></line><line transform="translate(0,370)" x2="-5" y2="0" style="fill: none; stroke: #888; stroke-width: 1; opacity: 1;"></line><line transform="translate(0,352)" x2="-5" y2="0" style="fill: none; stroke: #888; stroke-width: 1; opacity: 1;"></line><line transform="translate(0,340)" x2="-5" y2="0" style="fill: none; stroke: #888; stroke-width: 1; opacity: 1;"></line><line transform="translate(0,330)" x2="-5" y2="0" style="fill: none; stroke: #888; stroke-width: 1; opacity: 1;"></line><line transform="translate(0,322)" x2="-5" y2="0" style="fill: none; stroke: #888; stroke-width: 1; opacity: 1;"></line><line transform="translate(0,315)" x2="-5" y2="0" style="fill: none; stroke: #888; stroke-width: 1; opacity: 1;"></line><line transform="translate(0,310)" x2="-5" y2="0" style="fill: none; stroke: #888; stroke-width: 1; opacity: 1;"></line><line transform="translate(0,305)" x2="-5" y2="0" style="fill: none; stroke: #888; stroke-width: 1; opacity: 1;"></line><line transform="translate(0,300)" x2="-5" y2="0" style="fill: none; stroke: #888; stroke-width: 1; opacity: 1;"></line><line transform="translate(0,270)" x2="-5" y2="0" style="fill: none; stroke: #888; stroke-width: 1; opacity: 1;"></line><line transform="translate(0,252)" x2="-5" y2="0" style="fill: none; stroke: #888; stroke-width: 1; opacity: 1;"></line><line transform="translate(0,240)" x2="-5" y2="0" style="fill: none; stroke: #888; stroke-width: 1; opacity: 1;"></line><line transform="translate(0,230)" x2="-5" y2="0" style="fill: none; stroke: #888; stroke-width: 1; opacity: 1;"></line><line transform="translate(0,222)" x2="-5" y2="0" style="fill: none; stroke: #888; stroke-width: 1; opacity: 1;"></line><line transform="translate(0,215)" x2="-5" y2="0" style="fill: none; stroke: #888; stroke-width: 1; opacity: 1;"></line><line transform="translate(0,210)" x2="-5" y2="0" style="fill: none; stroke: #888; stroke-width: 1; opacity: 1;"></line><line transform="translate(0,205)" x2="-5" y2="0" style="fill: none; stroke: #888; stroke-width: 1; opacity: 1;"></line><line transform="translate(0,200)" x2="-5" y2="0" style="fill: none; stroke: #888; stroke-width: 1; opacity: 1;"></line><line transform="translate(0,170)" x2="-5" y2="0" style="fill: none; stroke: #888; stroke-width: 1; opacity: 1;"></line><line transform="translate(0,152)" x2="-5" y2="0" style="fill: none; stroke: #888; stroke-width: 1; opacity: 1;"></line><line transform="translate(0,140)" x2="-5" y2="0" style="fill: none; stroke: #888; stroke-width: 1; opacity: 1;"></line><line transform="translate(0,130)" x2="-5" y2="0" style="fill: none; stroke: #888; stroke-width: 1; opacity: 1;"></line><line transform="translate(0,122)" x2="-5" y2="0" style="fill: none; stroke: #888; stroke-width: 1; opacity: 1;"></line><line transform="translate(0,115)" x2="-5" y2="0" style="fill: none; stroke: #888; stroke-width: 1; opacity: 1;"></line><line transform="translate(0,110)" x2="-5" y2="0" style="fill: none; stroke: #888; stroke-width: 1; opacity: 1;"></line><line transform="translate(0,105)" x2="-5" y2="0" style="fill: none; stroke: #888; stroke-width: 1; opacity: 1;"></line><line transform="translate(0,100)" x2="-5" y2="0" style="fill: none; stroke: #888; stroke-width: 1; opacity: 1;"></line><line transform="translate(0,70)" x2="-5" y2="0" style="fill: none; stroke: #888; stroke-width: 1; opacity: 1;"></line><line transform="translate(0,52)" x2="-5" y2="0" style="fill: none; stroke: #888; stroke-width: 1; opacity: 1;"></line><line transform="translate(0,40)" x2="-5" y2="0" style="fill: none; stroke: #888; stroke-width: 1; opacity: 1;"></line><line transform="translate(0,30)" x2="-5" y2="0" style="fill: none; stroke: #888; stroke-width: 1; opacity: 1;"></line><line transform="translate(0,22)" x2="-5" y2="0" style="fill: none; stroke: #888; stroke-width: 1; opacity: 1;"></line><line transform="translate(0,15)" x2="-5" y2="0" style="fill: none; stroke: #888; stroke-width: 1; opacity: 1;"></line><line transform="translate(0,10)" x2="-5" y2="0" style="fill: none; stroke: #888; stroke-width: 1; opacity: 1;"></line><line transform="translate(0,5)" x2="-5" y2="0" style="fill: none; stroke: #888; stroke-width: 1; opacity: 1;"></line><line transform="translate(0,0)" x2="-5" y2="0" style="fill: none; stroke: #888; stroke-width: 1; opacity: 1;"></line></g><g class="mark-text role-axis-label" style="pointer-events: none;"><text text-anchor="end" transform="translate(-7,404)" style="font-family: sans-serif; font-size: 14px; fill: #000; opacity: 1;">0.1</text><text text-anchor="end" transform="translate(-7,373.8970004336019)" style="font-family: sans-serif; font-size: 14px; fill: #000; opacity: 1;">0.2</text><text text-anchor="end" transform="translate(-7,356.28787452803374)" style="font-family: sans-serif; font-size: 14px; fill: #000; opacity: 1;"></text><text text-anchor="end" transform="translate(-7,343.79400086720375)" style="font-family: sans-serif; font-size: 14px; fill: #000; opacity: 1;"></text><text text-anchor="end" transform="translate(-7,334.1029995663981)" style="font-family: sans-serif; font-size: 14px; fill: #000; opacity: 1;"></text><text text-anchor="end" transform="translate(-7,326.1848749616356)" style="font-family: sans-serif; font-size: 14px; fill: #000; opacity: 1;"></text><text text-anchor="end" transform="translate(-7,319.49019599857434)" style="font-family: sans-serif; font-size: 14px; fill: #000; opacity: 1;"></text><text text-anchor="end" transform="translate(-7,313.6910013008056)" style="font-family: sans-serif; font-size: 14px; fill: #000; opacity: 1;"></text><text text-anchor="end" transform="translate(-7,308.57574905606754)" style="font-family: sans-serif; font-size: 14px; fill: #000; opacity: 1;"></text><text text-anchor="end" transform="translate(-7,304)" style="font-family: sans-serif; font-size: 14px; fill: #000; opacity: 1;">1</text><text text-anchor="end" transform="translate(-7,273.8970004336019)" style="font-family: sans-serif; font-size: 14px; fill: #000; opacity: 1;">2</text><text text-anchor="end" transform="translate(-7,256.28787452803374)" style="font-family: sans-serif; font-size: 14px; fill: #000; opacity: 1;"></text><text text-anchor="end" transform="translate(-7,243.79400086720375)" style="font-family: sans-serif; font-size: 14px; fill: #000; opacity: 1;"></text><text text-anchor="end" transform="translate(-7,234.10299956639813)" style="font-family: sans-serif; font-size: 14px; fill: #000; opacity: 1;"></text><text text-anchor="end" transform="translate(-7,226.18487496163561)" style="font-family: sans-serif; font-size: 14px; fill: #000; opacity: 1;"></text><text text-anchor="end" transform="translate(-7,219.4901959985743)" style="font-family: sans-serif; font-size: 14px; fill: #000; opacity: 1;"></text><text text-anchor="end" transform="translate(-7,213.69100130080562)" style="font-family: sans-serif; font-size: 14px; fill: #000; opacity: 1;"></text><text text-anchor="end" transform="translate(-7,208.57574905606748)" style="font-family: sans-serif; font-size: 14px; fill: #000; opacity: 1;"></text><text text-anchor="end" transform="translate(-7,203.99999999999994)" style="font-family: sans-serif; font-size: 14px; fill: #000; opacity: 1;">10</text><text text-anchor="end" transform="translate(-7,173.89700043360187)" style="font-family: sans-serif; font-size: 14px; fill: #000; opacity: 1;">20</text><text text-anchor="end" transform="translate(-7,156.28787452803374)" style="font-family: sans-serif; font-size: 14px; fill: #000; opacity: 1;"></text><text text-anchor="end" transform="translate(-7,143.79400086720375)" style="font-family: sans-serif; font-size: 14px; fill: #000; opacity: 1;"></text><text text-anchor="end" transform="translate(-7,134.10299956639813)" style="font-family: sans-serif; font-size: 14px; fill: #000; opacity: 1;"></text><text text-anchor="end" transform="translate(-7,126.18487496163561)" style="font-family: sans-serif; font-size: 14px; fill: #000; opacity: 1;"></text><text text-anchor="end" transform="translate(-7,119.49019599857426)" style="font-family: sans-serif; font-size: 14px; fill: #000; opacity: 1;"></text><text text-anchor="end" transform="translate(-7,113.69100130080567)" style="font-family: sans-serif; font-size: 14px; fill: #000; opacity: 1;"></text><text text-anchor="end" transform="translate(-7,108.57574905606752)" style="font-family: sans-serif; font-size: 14px; fill: #000; opacity: 1;"></text><text text-anchor="end" transform="translate(-7,104)" style="font-family: sans-serif; font-size: 14px; fill: #000; opacity: 1;">100</text><text text-anchor="end" transform="translate(-7,73.89700043360187)" style="font-family: sans-serif; font-size: 14px; fill: #000; opacity: 1;">200</text><text text-anchor="end" transform="translate(-7,56.28787452803374)" style="font-family: sans-serif; font-size: 14px; fill: #000; opacity: 1;"></text><text text-anchor="end" transform="translate(-7,43.79400086720375)" style="font-family: sans-serif; font-size: 14px; fill: #000; opacity: 1;"></text><text text-anchor="end" transform="translate(-7,34.102999566398125)" style="font-family: sans-serif; font-size: 14px; fill: #000; opacity: 1;"></text><text text-anchor="end" transform="translate(-7,26.184874961635614)" style="font-family: sans-serif; font-size: 14px; fill: #000; opacity: 1;"></text><text text-anchor="end" transform="translate(-7,19.490195998574265)" style="font-family: sans-serif; font-size: 14px; fill: #000; opacity: 1;"></text><text text-anchor="end" transform="translate(-7,13.691001300805624)" style="font-family: sans-serif; font-size: 14px; fill: #000; opacity: 1;"></text><text text-anchor="end" transform="translate(-7,8.575749056067435)" style="font-family: sans-serif; font-size: 14px; fill: #000; opacity: 1;"></text><text text-anchor="end" transform="translate(-7,4)" style="font-family: sans-serif; font-size: 14px; fill: #000; opacity: 1;">1,000</text></g><g class="mark-rule role-axis-domain" style="pointer-events: none;"><line transform="translate(0,400)" x2="0" y2="-400" style="fill: none; stroke: #888; stroke-width: 1; opacity: 1;"></line></g></g><path class="foreground" d="" style="pointer-events: none; display: none; fill: none;"></path></g></g><g class="mark-group role-scope layer_0_pathgroup"><g transform="translate(0,0)"><path class="background" d="M0,0h600v400h-600Z" style="fill: none;"></path><g><g class="mark-line role-mark layer_0_marks"><path d="M0,300L27.906976744186046,260.20599913279625L34.883720930232556,257.4031267727719L48.83720930232558,237.16110699496883L55.81395348837209,231.87587626244124L62.79069767441861,231.57532524846874L69.76744186046511,231.36191229720015L76.74418604651163,219.1885526238913L83.72093023255813,212.90946963794573L90.69767441860465,207.42460283721124L97.67441860465117,192.60199476381828L104.65116279069768,175.51929285748588L111.62790697674419,164.37009156938055L118.60465116279069,152.0815584716564L125.58139534883722,145.06463591880402L132.55813953488374,142.84575326759756L139.53488372093022,142.51422915244984L146.51162790697674,134.81683919410418L153.48837209302326,133.58955176831535L160.46511627906975,129.36480420413815L167.44186046511626,129.73233346264342L174.4186046511628,129.60947779884688L181.3953488372093,130.72789449409825L188.37209302325581,131.8758762624413L195.34883720930233,136.65315444204137L202.32558139534882,139.7940008672038L209.30232558139537,147.9610055123357L216.27906976744185,151.26595800986516L223.25581395348837,161.97887582883942L230.2325581395349,162.76140958003506L237.20930232558138,162.49899519742016L244.18604651162792,168.3730037779282L251.16279069767444,171.47642715192512L258.1395348837209,170.2083239760162L265.1162790697675,172.7826744358493L272.09302325581393,166.90067809585761L279.06976744186045,167.7780705266081L286.04651162790697,168.67355479190073L293.0232558139535,172.45241088084074L300,174.12943190583002L306.9767441860465,175.51929285748588L313.95348837209303,179.97750612276L320.9302325581395,181.97921747494868L327.906976744186,185.38719643217618L341.8604651162791,181.5714262329047L348.8372093023256,182.39087409443192L355.81395348837214,183.2260815309085L362.7906976744186,185.83263057480121L369.7674418604651,190.55787873956382L376.74418604651163,196.42844477334654L383.72093023255815,196.42844477334654L390.69767441860466,199.3839691295182L397.6744186046511,197.00367766225574L404.65116279069764,196.42844477334654L411.62790697674416,199.3839691295182L418.60465116279073,191.5679114299964L425.58139534883725,193.12841876305407L439.5348837209302,188.1310212668702L446.51162790697674,185.83263057480121L453.48837209302326,190.55787873956382L460.4651162790698,197.00367766225574L467.4418604651163,200.00000000000006L474.41860465116275,214.61280356782382L481.39534883720927,216.38568026386702L488.37209302325584,221.16295844346706L495.34883720930236,225.40334329877584L502.3255813953489,226.53144433974472L509.30232558139534,232.658410013637L516.2790697674418,241.37342758552705L523.2558139534883,241.37342758552705L530.232558139535,239.79400086720383L537.2093023255815,244.71580313422203L544.1860465116279,248.33702039966647L551.1627906976744,252.28787452803388L558.1395348837209,248.33702039966647" style="fill: none; stroke: #4c78a8; stroke-width: 3;"></path></g></g><path class="foreground" d="" style="display: none; fill: none;"></path></g><g transform="translate(0,0)"><path class="background" d="M0,0h600v400h-600Z" style="fill: none;"></path><g><g class="mark-line role-mark layer_0_marks"><path d="M118.60465116279069,172.12463990471713L125.58139534883722,161.97887582883936L146.51162790697674,176.95510786217258L153.48837209302326,181.6730156317195L160.46511627906975,186.01209135987637L167.44186046511626,188.60566476931632L174.4186046511628,189.57080333693438L181.3953488372093,198.7765543582988L188.37209302325581,220.16453635280695L195.34883720930233,209.69100130080562L202.32558139534882,199.38396912951814L209.30232558139537,186.2826806974688L216.27906976744185,182.8064700715476L223.25581395348837,184.94628454167068L230.2325581395349,183.64978682523395L237.20930232558138,182.8064700715476L244.18604651162792,177.3216032708131L251.16279069767444,168.07451842298192L258.1395348837209,163.82721639824075L265.1162790697675,156.40646727665293L272.09302325581393,148.14860601221125L279.06976744186045,146.30809974393887L286.04651162790697,146.48867983026506L293.0232558139535,140.10532440961808L300,137.23415906970448L306.9767441860465,132.39599563102203L313.95348837209303,128.75908381085986L320.9302325581395,123.76430167995882L327.906976744186,123.23141832945214L334.8837209302325,122.80976988933578L341.8604651162791,121.06207698535249L348.8372093023256,119.86943137911874L355.81395348837214,121.46701649892324L362.7906976744186,120.4616603043835L369.7674418604651,119.09214981362956L376.74418604651163,119.38200260161125L383.72093023255815,119.1885526238913L390.69767441860466,116.2952963640425L397.6744186046511,112.08221704134674L404.65116279069764,109.30495921948177L411.62790697674416,107.7942173932076L418.60465116279073,106.11944607415218L425.58139534883725,106.04807473813808L432.5581395348837,106.26254158479705L439.5348837209302,108.16700464513187L446.51162790697674,110.94991403160765L453.48837209302326,112.57667530305295L460.4651162790698,112.32874248017093L467.4418604651163,111.83708309876846L474.41860465116275,110.87015377376139L481.39534883720927,110.87015377376139L488.37209302325584,111.19007749076873L495.34883720930236,113.1607496920314L502.3255813953489,113.49806749024398L509.30232558139534,117.0236899276445L516.2790697674418,120.46166030438346L523.2558139534883,120.26335197721347L530.232558139535,120.26335197721347L537.2093023255815,125.18119729937993L544.1860465116279,123.23141832945214L551.1627906976744,123.65720064370626L558.1395348837209,124.96018181886824L565.1162790697674,133.05502873539706L572.0930232558139,136.65315444204128" style="fill: none; stroke: #f58518; stroke-width: 3;"></path></g></g><path class="foreground" d="" style="display: none; fill: none;"></path></g><g transform="translate(0,0)"><path class="background" d="M0,0h600v400h-600Z" style="fill: none;"></path><g><g class="mark-line role-mark layer_0_marks"><path d="M55.81395348837209,300L62.79069767441861,330.1029995663981L69.76744186046511,347.71212547196626L76.74418604651163,360.20599913279625L83.72093023255813,322.1848749616356L90.69767441860465,317.60912590556813L97.67441860465117,314.6128035678238L104.65116279069768,314.6128035678238L111.62790697674419,314.6128035678238L118.60465116279069,294.2008053022313L125.58139534883722,284.50980400142566L132.55813953488374,280.37053548560317L139.53488372093022,273.115468770742L146.51162790697674,266.90067809585753L153.48837209302326,266.90067809585753L160.46511627906975,258.982553491095L167.44186046511626,264.09780573583316L174.4186046511628,256.6344439061428L181.3953488372093,254.40680443502757L188.37209302325581,256.6344439061428L195.34883720930233,256.6344439061428L202.32558139534882,252.28787452803374L209.30232558139537,252.28787452803374L216.27906976744185,246.48867983026506L223.25581395348837,246.48867983026506L230.2325581395349,248.3370203996664L237.20930232558138,252.28787452803374L244.18604651162792,246.48867983026506L251.16279069767444,246.48867983026506L258.1395348837209,244.71580313422194L265.1162790697675,244.71580313422194L272.09302325581393,252.28787452803374L279.06976744186045,252.28787452803374L286.04651162790697,246.48867983026506L293.0232558139535,256.6344439061428L300,254.40680443502757L306.9767441860465,252.28787452803374L313.95348837209303,256.6344439061428L320.9302325581395,252.28787452803374L327.906976744186,254.4068044350275L334.8837209302325,250.26753591920505L341.8604651162791,252.28787452803374L348.8372093023256,256.6344439061428L355.81395348837214,269.8970004336019L362.7906976744186,273.115468770742L369.7674418604651,273.115468770742L376.74418604651163,266.90067809585753L383.72093023255815,276.59167939666315L390.69767441860466,266.90067809585753L397.6744186046511,266.90067809585753L404.65116279069764,264.09780573583316L411.62790697674416,261.4649118635983L418.60465116279073,269.8970004336019L425.58139534883725,284.50980400142566L432.5581395348837,284.50980400142566L439.5348837209302,300L446.51162790697674,314.6128035678238L453.48837209302326,324.3038048686294L460.4651162790698,336.7976785294594L467.4418604651163,324.3038048686294L474.41860465116275,314.6128035678238L481.39534883720927,336.7976785294594L488.37209302325584,336.7976785294594L495.34883720930236,314.6128035678238L502.3255813953489,300L509.30232558139534,300L516.2790697674418,300L523.2558139534883,300L530.232558139535,300L537.2093023255815,300L544.1860465116279,306.6946789630613L551.1627906976744,306.6946789630613L558.1395348837209,306.6946789630613L565.1162790697674,314.6128035678238L572.0930232558139,314.6128035678238L579.0697674418604,314.6128035678238L586.046511627907,314.6128035678238L593.0232558139535,324.3038048686294L600,354.40680443502754" style="fill: none; stroke: #e45756; stroke-width: 3;"></path></g></g><path class="foreground" d="" style="display: none; fill: none;"></path></g></g><g class="mark-symbol role-mark layer_1_marks"><path transform="translate(0,300)" d="M2.7386127875258306,0A2.7386127875258306,2.7386127875258306,0,1,1,-2.7386127875258306,0A2.7386127875258306,2.7386127875258306,0,1,1,2.7386127875258306,0" style="fill: none; stroke: #4c78a8; stroke-width: 2; opacity: 0.5;"></path><path transform="translate(27.906976744186046,239.79400086720375)" d="M2.7386127875258306,0A2.7386127875258306,2.7386127875258306,0,1,1,-2.7386127875258306,0A2.7386127875258306,2.7386127875258306,0,1,1,2.7386127875258306,0" style="fill: none; stroke: #4c78a8; stroke-width: 2; opacity: 0.5;"></path><path transform="translate(34.883720930232556,252.28787452803374)" d="M2.7386127875258306,0A2.7386127875258306,2.7386127875258306,0,1,1,-2.7386127875258306,0A2.7386127875258306,2.7386127875258306,0,1,1,2.7386127875258306,0" style="fill: none; stroke: #4c78a8; stroke-width: 2; opacity: 0.5;"></path><path transform="translate(48.83720930232558,204.57574905606748)" d="M2.7386127875258306,0A2.7386127875258306,2.7386127875258306,0,1,1,-2.7386127875258306,0A2.7386127875258306,2.7386127875258306,0,1,1,2.7386127875258306,0" style="fill: none; stroke: #4c78a8; stroke-width: 2; opacity: 0.5;"></path><path transform="translate(55.81395348837209,215.4901959985743)" d="M2.7386127875258306,0A2.7386127875258306,2.7386127875258306,0,1,1,-2.7386127875258306,0A2.7386127875258306,2.7386127875258306,0,1,1,2.7386127875258306,0" style="fill: none; stroke: #4c78a8; stroke-width: 2; opacity: 0.5;"></path><path transform="translate(62.79069767441861,230.10299956639813)" d="M2.7386127875258306,0A2.7386127875258306,2.7386127875258306,0,1,1,-2.7386127875258306,0A2.7386127875258306,2.7386127875258306,0,1,1,2.7386127875258306,0" style="fill: none; stroke: #4c78a8; stroke-width: 2; opacity: 0.5;"></path><path transform="translate(69.76744186046511,230.10299956639813)" d="M2.7386127875258306,0A2.7386127875258306,2.7386127875258306,0,1,1,-2.7386127875258306,0A2.7386127875258306,2.7386127875258306,0,1,1,2.7386127875258306,0" style="fill: none; stroke: #4c78a8; stroke-width: 2; opacity: 0.5;"></path><path transform="translate(76.74418604651163,192.0818753952375)" d="M2.7386127875258306,0A2.7386127875258306,2.7386127875258306,0,1,1,-2.7386127875258306,0A2.7386127875258306,2.7386127875258306,0,1,1,2.7386127875258306,0" style="fill: none; stroke: #4c78a8; stroke-width: 2; opacity: 0.5;"></path><path transform="translate(83.72093023255813,195.8607314841775)" d="M2.7386127875258306,0A2.7386127875258306,2.7386127875258306,0,1,1,-2.7386127875258306,0A2.7386127875258306,2.7386127875258306,0,1,1,2.7386127875258306,0" style="fill: none; stroke: #4c78a8; stroke-width: 2; opacity: 0.5;"></path><path transform="translate(90.69767441860465,199.99999999999994)" d="M2.7386127875258306,0A2.7386127875258306,2.7386127875258306,0,1,1,-2.7386127875258306,0A2.7386127875258306,2.7386127875258306,0,1,1,2.7386127875258306,0" style="fill: none; stroke: #4c78a8; stroke-width: 2; opacity: 0.5;"></path><path transform="translate(97.67441860465117,148.14860601221125)" d="M2.7386127875258306,0A2.7386127875258306,2.7386127875258306,0,1,1,-2.7386127875258306,0A2.7386127875258306,2.7386127875258306,0,1,1,2.7386127875258306,0" style="fill: none; stroke: #4c78a8; stroke-width: 2; opacity: 0.5;"></path><path transform="translate(104.65116279069768,132.7902142064282)" d="M2.7386127875258306,0A2.7386127875258306,2.7386127875258306,0,1,1,-2.7386127875258306,0A2.7386127875258306,2.7386127875258306,0,1,1,2.7386127875258306,0" style="fill: none; stroke: #4c78a8; stroke-width: 2; opacity: 0.5;"></path><path transform="translate(111.62790697674419,138.72161432802642)" d="M2.7386127875258306,0A2.7386127875258306,2.7386127875258306,0,1,1,-2.7386127875258306,0A2.7386127875258306,2.7386127875258306,0,1,1,2.7386127875258306,0" style="fill: none; stroke: #4c78a8; stroke-width: 2; opacity: 0.5;"></path><path transform="translate(118.60465116279069,124.41251443275081)" d="M2.7386127875258306,0A2.7386127875258306,2.7386127875258306,0,1,1,-2.7386127875258306,0A2.7386127875258306,2.7386127875258306,0,1,1,2.7386127875258306,0" style="fill: none; stroke: #4c78a8; stroke-width: 2; opacity: 0.5;"></path><path transform="translate(125.58139534883722,130.98039199714862)" d="M2.7386127875258306,0A2.7386127875258306,2.7386127875258306,0,1,1,-2.7386127875258306,0A2.7386127875258306,2.7386127875258306,0,1,1,2.7386127875258306,0" style="fill: none; stroke: #4c78a8; stroke-width: 2; opacity: 0.5;"></path><path transform="translate(132.55813953488374,161.97887582883936)" d="M2.7386127875258306,0A2.7386127875258306,2.7386127875258306,0,1,1,-2.7386127875258306,0A2.7386127875258306,2.7386127875258306,0,1,1,2.7386127875258306,0" style="fill: none; stroke: #4c78a8; stroke-width: 2; opacity: 0.5;"></path><path transform="translate(139.53488372093022,192.0818753952375)" d="M2.7386127875258306,0A2.7386127875258306,2.7386127875258306,0,1,1,-2.7386127875258306,0A2.7386127875258306,2.7386127875258306,0,1,1,2.7386127875258306,0" style="fill: none; stroke: #4c78a8; stroke-width: 2; opacity: 0.5;"></path><path transform="translate(146.51162790697674,107.57207139381184)" d="M2.7386127875258306,0A2.7386127875258306,2.7386127875258306,0,1,1,-2.7386127875258306,0A2.7386127875258306,2.7386127875258306,0,1,1,2.7386127875258306,0" style="fill: none; stroke: #4c78a8; stroke-width: 2; opacity: 0.5;"></path><path transform="translate(153.48837209302326,125.18119729937993)" d="M2.7386127875258306,0A2.7386127875258306,2.7386127875258306,0,1,1,-2.7386127875258306,0A2.7386127875258306,2.7386127875258306,0,1,1,2.7386127875258306,0" style="fill: none; stroke: #4c78a8; stroke-width: 2; opacity: 0.5;"></path><path transform="translate(160.46511627906975,113.07682802690242)" d="M2.7386127875258306,0A2.7386127875258306,2.7386127875258306,0,1,1,-2.7386127875258306,0A2.7386127875258306,2.7386127875258306,0,1,1,2.7386127875258306,0" style="fill: none; stroke: #4c78a8; stroke-width: 2; opacity: 0.5;"></path><path transform="translate(167.44186046511626,126.76062401770314)" d="M2.7386127875258306,0A2.7386127875258306,2.7386127875258306,0,1,1,-2.7386127875258306,0A2.7386127875258306,2.7386127875258306,0,1,1,2.7386127875258306,0" style="fill: none; stroke: #4c78a8; stroke-width: 2; opacity: 0.5;"></path><path transform="translate(174.4186046511628,130.10299956639813)" d="M2.7386127875258306,0A2.7386127875258306,2.7386127875258306,0,1,1,-2.7386127875258306,0A2.7386127875258306,2.7386127875258306,0,1,1,2.7386127875258306,0" style="fill: none; stroke: #4c78a8; stroke-width: 2; opacity: 0.5;"></path><path transform="translate(181.3953488372093,182.39087409443187)" d="M2.7386127875258306,0A2.7386127875258306,2.7386127875258306,0,1,1,-2.7386127875258306,0A2.7386127875258306,2.7386127875258306,0,1,1,2.7386127875258306,0" style="fill: none; stroke: #4c78a8; stroke-width: 2; opacity: 0.5;"></path><path transform="translate(188.37209302325581,252.28787452803374)" d="M2.7386127875258306,0A2.7386127875258306,2.7386127875258306,0,1,1,-2.7386127875258306,0A2.7386127875258306,2.7386127875258306,0,1,1,2.7386127875258306,0" style="fill: none; stroke: #4c78a8; stroke-width: 2; opacity: 0.5;"></path><path transform="translate(195.34883720930233,130.98039199714862)" d="M2.7386127875258306,0A2.7386127875258306,2.7386127875258306,0,1,1,-2.7386127875258306,0A2.7386127875258306,2.7386127875258306,0,1,1,2.7386127875258306,0" style="fill: none; stroke: #4c78a8; stroke-width: 2; opacity: 0.5;"></path><path transform="translate(202.32558139534882,145.59319556497243)" d="M2.7386127875258306,0A2.7386127875258306,2.7386127875258306,0,1,1,-2.7386127875258306,0A2.7386127875258306,2.7386127875258306,0,1,1,2.7386127875258306,0" style="fill: none; stroke: #4c78a8; stroke-width: 2; opacity: 0.5;"></path><path transform="translate(209.30232558139537,158.5026652029182)" d="M2.7386127875258306,0A2.7386127875258306,2.7386127875258306,0,1,1,-2.7386127875258306,0A2.7386127875258306,2.7386127875258306,0,1,1,2.7386127875258306,0" style="fill: none; stroke: #4c78a8; stroke-width: 2; opacity: 0.5;"></path><path transform="translate(216.27906976744185,143.1798275933005)" d="M2.7386127875258306,0A2.7386127875258306,2.7386127875258306,0,1,1,-2.7386127875258306,0A2.7386127875258306,2.7386127875258306,0,1,1,2.7386127875258306,0" style="fill: none; stroke: #4c78a8; stroke-width: 2; opacity: 0.5;"></path><path transform="translate(223.25581395348837,252.28787452803374)" d="M2.7386127875258306,0A2.7386127875258306,2.7386127875258306,0,1,1,-2.7386127875258306,0A2.7386127875258306,2.7386127875258306,0,1,1,2.7386127875258306,0" style="fill: none; stroke: #4c78a8; stroke-width: 2; opacity: 0.5;"></path><path transform="translate(230.2325581395349,192.0818753952375)" d="M2.7386127875258306,0A2.7386127875258306,2.7386127875258306,0,1,1,-2.7386127875258306,0A2.7386127875258306,2.7386127875258306,0,1,1,2.7386127875258306,0" style="fill: none; stroke: #4c78a8; stroke-width: 2; opacity: 0.5;"></path><path transform="translate(237.20930232558138,239.79400086720375)" d="M2.7386127875258306,0A2.7386127875258306,2.7386127875258306,0,1,1,-2.7386127875258306,0A2.7386127875258306,2.7386127875258306,0,1,1,2.7386127875258306,0" style="fill: none; stroke: #4c78a8; stroke-width: 2; opacity: 0.5;"></path><path transform="translate(244.18604651162792,155.28419686577806)" d="M2.7386127875258306,0A2.7386127875258306,2.7386127875258306,0,1,1,-2.7386127875258306,0A2.7386127875258306,2.7386127875258306,0,1,1,2.7386127875258306,0" style="fill: none; stroke: #4c78a8; stroke-width: 2; opacity: 0.5;"></path><path transform="translate(251.16279069767444,160.20599913279625)" d="M2.7386127875258306,0A2.7386127875258306,2.7386127875258306,0,1,1,-2.7386127875258306,0A2.7386127875258306,2.7386127875258306,0,1,1,2.7386127875258306,0" style="fill: none; stroke: #4c78a8; stroke-width: 2; opacity: 0.5;"></path><path transform="translate(258.1395348837209,152.28787452803374)" d="M2.7386127875258306,0A2.7386127875258306,2.7386127875258306,0,1,1,-2.7386127875258306,0A2.7386127875258306,2.7386127875258306,0,1,1,2.7386127875258306,0" style="fill: none; stroke: #4c78a8; stroke-width: 2; opacity: 0.5;"></path><path transform="translate(265.1162790697675,153.7602002101044)" d="M2.7386127875258306,0A2.7386127875258306,2.7386127875258306,0,1,1,-2.7386127875258306,0A2.7386127875258306,2.7386127875258306,0,1,1,2.7386127875258306,0" style="fill: none; stroke: #4c78a8; stroke-width: 2; opacity: 0.5;"></path><path transform="translate(272.09302325581393,165.75773191777938)" d="M2.7386127875258306,0A2.7386127875258306,2.7386127875258306,0,1,1,-2.7386127875258306,0A2.7386127875258306,2.7386127875258306,0,1,1,2.7386127875258306,0" style="fill: none; stroke: #4c78a8; stroke-width: 2; opacity: 0.5;"></path><path transform="translate(279.06976744186045,204.57574905606748)" d="M2.7386127875258306,0A2.7386127875258306,2.7386127875258306,0,1,1,-2.7386127875258306,0A2.7386127875258306,2.7386127875258306,0,1,1,2.7386127875258306,0" style="fill: none; stroke: #4c78a8; stroke-width: 2; opacity: 0.5;"></path><path transform="translate(286.04651162790697,300)" d="M2.7386127875258306,0A2.7386127875258306,2.7386127875258306,0,1,1,-2.7386127875258306,0A2.7386127875258306,2.7386127875258306,0,1,1,2.7386127875258306,0" style="fill: none; stroke: #4c78a8; stroke-width: 2; opacity: 0.5;"></path><path transform="translate(293.0232558139535,179.5880017344075)" d="M2.7386127875258306,0A2.7386127875258306,2.7386127875258306,0,1,1,-2.7386127875258306,0A2.7386127875258306,2.7386127875258306,0,1,1,2.7386127875258306,0" style="fill: none; stroke: #4c78a8; stroke-width: 2; opacity: 0.5;"></path><path transform="translate(300,169.89700043360187)" d="M2.7386127875258306,0A2.7386127875258306,2.7386127875258306,0,1,1,-2.7386127875258306,0A2.7386127875258306,2.7386127875258306,0,1,1,2.7386127875258306,0" style="fill: none; stroke: #4c78a8; stroke-width: 2; opacity: 0.5;"></path><path transform="translate(306.9767441860465,158.5026652029182)" d="M2.7386127875258306,0A2.7386127875258306,2.7386127875258306,0,1,1,-2.7386127875258306,0A2.7386127875258306,2.7386127875258306,0,1,1,2.7386127875258306,0" style="fill: none; stroke: #4c78a8; stroke-width: 2; opacity: 0.5;"></path><path transform="translate(313.95348837209303,176.95510786217258)" d="M2.7386127875258306,0A2.7386127875258306,2.7386127875258306,0,1,1,-2.7386127875258306,0A2.7386127875258306,2.7386127875258306,0,1,1,2.7386127875258306,0" style="fill: none; stroke: #4c78a8; stroke-width: 2; opacity: 0.5;"></path><path transform="translate(320.9302325581395,176.95510786217258)" d="M2.7386127875258306,0A2.7386127875258306,2.7386127875258306,0,1,1,-2.7386127875258306,0A2.7386127875258306,2.7386127875258306,0,1,1,2.7386127875258306,0" style="fill: none; stroke: #4c78a8; stroke-width: 2; opacity: 0.5;"></path><path transform="translate(327.906976744186,300)" d="M2.7386127875258306,0A2.7386127875258306,2.7386127875258306,0,1,1,-2.7386127875258306,0A2.7386127875258306,2.7386127875258306,0,1,1,2.7386127875258306,0" style="fill: none; stroke: #4c78a8; stroke-width: 2; opacity: 0.5;"></path><path transform="translate(341.8604651162791,199.99999999999994)" d="M2.7386127875258306,0A2.7386127875258306,2.7386127875258306,0,1,1,-2.7386127875258306,0A2.7386127875258306,2.7386127875258306,0,1,1,2.7386127875258306,0" style="fill: none; stroke: #4c78a8; stroke-width: 2; opacity: 0.5;"></path><path transform="translate(348.8372093023256,185.38719643217618)" d="M2.7386127875258306,0A2.7386127875258306,2.7386127875258306,0,1,1,-2.7386127875258306,0A2.7386127875258306,2.7386127875258306,0,1,1,2.7386127875258306,0" style="fill: none; stroke: #4c78a8; stroke-width: 2; opacity: 0.5;"></path><path transform="translate(355.81395348837214,174.47274948966935)" d="M2.7386127875258306,0A2.7386127875258306,2.7386127875258306,0,1,1,-2.7386127875258306,0A2.7386127875258306,2.7386127875258306,0,1,1,2.7386127875258306,0" style="fill: none; stroke: #4c78a8; stroke-width: 2; opacity: 0.5;"></path><path transform="translate(362.7906976744186,169.89700043360187)" d="M2.7386127875258306,0A2.7386127875258306,2.7386127875258306,0,1,1,-2.7386127875258306,0A2.7386127875258306,2.7386127875258306,0,1,1,2.7386127875258306,0" style="fill: none; stroke: #4c78a8; stroke-width: 2; opacity: 0.5;"></path><path transform="translate(369.7674418604651,215.4901959985743)" d="M2.7386127875258306,0A2.7386127875258306,2.7386127875258306,0,1,1,-2.7386127875258306,0A2.7386127875258306,2.7386127875258306,0,1,1,2.7386127875258306,0" style="fill: none; stroke: #4c78a8; stroke-width: 2; opacity: 0.5;"></path><path transform="translate(376.74418604651163,222.18487496163561)" d="M2.7386127875258306,0A2.7386127875258306,2.7386127875258306,0,1,1,-2.7386127875258306,0A2.7386127875258306,2.7386127875258306,0,1,1,2.7386127875258306,0" style="fill: none; stroke: #4c78a8; stroke-width: 2; opacity: 0.5;"></path><path transform="translate(383.72093023255815,300)" d="M2.7386127875258306,0A2.7386127875258306,2.7386127875258306,0,1,1,-2.7386127875258306,0A2.7386127875258306,2.7386127875258306,0,1,1,2.7386127875258306,0" style="fill: none; stroke: #4c78a8; stroke-width: 2; opacity: 0.5;"></path><path transform="translate(390.69767441860466,230.10299956639813)" d="M2.7386127875258306,0A2.7386127875258306,2.7386127875258306,0,1,1,-2.7386127875258306,0A2.7386127875258306,2.7386127875258306,0,1,1,2.7386127875258306,0" style="fill: none; stroke: #4c78a8; stroke-width: 2; opacity: 0.5;"></path><path transform="translate(397.6744186046511,174.47274948966935)" d="M2.7386127875258306,0A2.7386127875258306,2.7386127875258306,0,1,1,-2.7386127875258306,0A2.7386127875258306,2.7386127875258306,0,1,1,2.7386127875258306,0" style="fill: none; stroke: #4c78a8; stroke-width: 2; opacity: 0.5;"></path><path transform="translate(404.65116279069764,172.12463990471713)" d="M2.7386127875258306,0A2.7386127875258306,2.7386127875258306,0,1,1,-2.7386127875258306,0A2.7386127875258306,2.7386127875258306,0,1,1,2.7386127875258306,0" style="fill: none; stroke: #4c78a8; stroke-width: 2; opacity: 0.5;"></path><path transform="translate(411.62790697674416,182.39087409443187)" d="M2.7386127875258306,0A2.7386127875258306,2.7386127875258306,0,1,1,-2.7386127875258306,0A2.7386127875258306,2.7386127875258306,0,1,1,2.7386127875258306,0" style="fill: none; stroke: #4c78a8; stroke-width: 2; opacity: 0.5;"></path><path transform="translate(418.60465116279073,167.77807052660805)" d="M2.7386127875258306,0A2.7386127875258306,2.7386127875258306,0,1,1,-2.7386127875258306,0A2.7386127875258306,2.7386127875258306,0,1,1,2.7386127875258306,0" style="fill: none; stroke: #4c78a8; stroke-width: 2; opacity: 0.5;"></path><path transform="translate(425.58139534883725,252.28787452803374)" d="M2.7386127875258306,0A2.7386127875258306,2.7386127875258306,0,1,1,-2.7386127875258306,0A2.7386127875258306,2.7386127875258306,0,1,1,2.7386127875258306,0" style="fill: none; stroke: #4c78a8; stroke-width: 2; opacity: 0.5;"></path><path transform="translate(439.5348837209302,195.8607314841775)" d="M2.7386127875258306,0A2.7386127875258306,2.7386127875258306,0,1,1,-2.7386127875258306,0A2.7386127875258306,2.7386127875258306,0,1,1,2.7386127875258306,0" style="fill: none; stroke: #4c78a8; stroke-width: 2; opacity: 0.5;"></path><path transform="translate(446.51162790697674,199.99999999999994)" d="M2.7386127875258306,0A2.7386127875258306,2.7386127875258306,0,1,1,-2.7386127875258306,0A2.7386127875258306,2.7386127875258306,0,1,1,2.7386127875258306,0" style="fill: none; stroke: #4c78a8; stroke-width: 2; opacity: 0.5;"></path><path transform="translate(453.48837209302326,209.69100130080562)" d="M2.7386127875258306,0A2.7386127875258306,2.7386127875258306,0,1,1,-2.7386127875258306,0A2.7386127875258306,2.7386127875258306,0,1,1,2.7386127875258306,0" style="fill: none; stroke: #4c78a8; stroke-width: 2; opacity: 0.5;"></path><path transform="translate(460.4651162790698,215.4901959985743)" d="M2.7386127875258306,0A2.7386127875258306,2.7386127875258306,0,1,1,-2.7386127875258306,0A2.7386127875258306,2.7386127875258306,0,1,1,2.7386127875258306,0" style="fill: none; stroke: #4c78a8; stroke-width: 2; opacity: 0.5;"></path><path transform="translate(467.4418604651163,199.99999999999994)" d="M2.7386127875258306,0A2.7386127875258306,2.7386127875258306,0,1,1,-2.7386127875258306,0A2.7386127875258306,2.7386127875258306,0,1,1,2.7386127875258306,0" style="fill: none; stroke: #4c78a8; stroke-width: 2; opacity: 0.5;"></path><path transform="translate(474.41860465116275,300)" d="M2.7386127875258306,0A2.7386127875258306,2.7386127875258306,0,1,1,-2.7386127875258306,0A2.7386127875258306,2.7386127875258306,0,1,1,2.7386127875258306,0" style="fill: none; stroke: #4c78a8; stroke-width: 2; opacity: 0.5;"></path><path transform="translate(481.39534883720927,300)" d="M2.7386127875258306,0A2.7386127875258306,2.7386127875258306,0,1,1,-2.7386127875258306,0A2.7386127875258306,2.7386127875258306,0,1,1,2.7386127875258306,0" style="fill: none; stroke: #4c78a8; stroke-width: 2; opacity: 0.5;"></path><path transform="translate(488.37209302325584,222.18487496163561)" d="M2.7386127875258306,0A2.7386127875258306,2.7386127875258306,0,1,1,-2.7386127875258306,0A2.7386127875258306,2.7386127875258306,0,1,1,2.7386127875258306,0" style="fill: none; stroke: #4c78a8; stroke-width: 2; opacity: 0.5;"></path><path transform="translate(495.34883720930236,222.18487496163561)" d="M2.7386127875258306,0A2.7386127875258306,2.7386127875258306,0,1,1,-2.7386127875258306,0A2.7386127875258306,2.7386127875258306,0,1,1,2.7386127875258306,0" style="fill: none; stroke: #4c78a8; stroke-width: 2; opacity: 0.5;"></path><path transform="translate(502.3255813953489,215.4901959985743)" d="M2.7386127875258306,0A2.7386127875258306,2.7386127875258306,0,1,1,-2.7386127875258306,0A2.7386127875258306,2.7386127875258306,0,1,1,2.7386127875258306,0" style="fill: none; stroke: #4c78a8; stroke-width: 2; opacity: 0.5;"></path><path transform="translate(509.30232558139534,269.8970004336019)" d="M2.7386127875258306,0A2.7386127875258306,2.7386127875258306,0,1,1,-2.7386127875258306,0A2.7386127875258306,2.7386127875258306,0,1,1,2.7386127875258306,0" style="fill: none; stroke: #4c78a8; stroke-width: 2; opacity: 0.5;"></path><path transform="translate(516.2790697674418,239.79400086720375)" d="M2.7386127875258306,0A2.7386127875258306,2.7386127875258306,0,1,1,-2.7386127875258306,0A2.7386127875258306,2.7386127875258306,0,1,1,2.7386127875258306,0" style="fill: none; stroke: #4c78a8; stroke-width: 2; opacity: 0.5;"></path><path transform="translate(523.2558139534883,300)" d="M2.7386127875258306,0A2.7386127875258306,2.7386127875258306,0,1,1,-2.7386127875258306,0A2.7386127875258306,2.7386127875258306,0,1,1,2.7386127875258306,0" style="fill: none; stroke: #4c78a8; stroke-width: 2; opacity: 0.5;"></path><path transform="translate(530.232558139535,269.8970004336019)" d="M2.7386127875258306,0A2.7386127875258306,2.7386127875258306,0,1,1,-2.7386127875258306,0A2.7386127875258306,2.7386127875258306,0,1,1,2.7386127875258306,0" style="fill: none; stroke: #4c78a8; stroke-width: 2; opacity: 0.5;"></path><path transform="translate(537.2093023255815,252.28787452803374)" d="M2.7386127875258306,0A2.7386127875258306,2.7386127875258306,0,1,1,-2.7386127875258306,0A2.7386127875258306,2.7386127875258306,0,1,1,2.7386127875258306,0" style="fill: none; stroke: #4c78a8; stroke-width: 2; opacity: 0.5;"></path><path transform="translate(544.1860465116279,239.79400086720375)" d="M2.7386127875258306,0A2.7386127875258306,2.7386127875258306,0,1,1,-2.7386127875258306,0A2.7386127875258306,2.7386127875258306,0,1,1,2.7386127875258306,0" style="fill: none; stroke: #4c78a8; stroke-width: 2; opacity: 0.5;"></path><path transform="translate(551.1627906976744,230.10299956639813)" d="M2.7386127875258306,0A2.7386127875258306,2.7386127875258306,0,1,1,-2.7386127875258306,0A2.7386127875258306,2.7386127875258306,0,1,1,2.7386127875258306,0" style="fill: none; stroke: #4c78a8; stroke-width: 2; opacity: 0.5;"></path><path transform="translate(558.1395348837209,239.79400086720375)" d="M2.7386127875258306,0A2.7386127875258306,2.7386127875258306,0,1,1,-2.7386127875258306,0A2.7386127875258306,2.7386127875258306,0,1,1,2.7386127875258306,0" style="fill: none; stroke: #4c78a8; stroke-width: 2; opacity: 0.5;"></path><path transform="translate(118.60465116279069,172.12463990471713)" d="M2.7386127875258306,0A2.7386127875258306,2.7386127875258306,0,1,1,-2.7386127875258306,0A2.7386127875258306,2.7386127875258306,0,1,1,2.7386127875258306,0" style="fill: none; stroke: #f58518; stroke-width: 2; opacity: 0.5;"></path><path transform="translate(125.58139534883722,153.7602002101044)" d="M2.7386127875258306,0A2.7386127875258306,2.7386127875258306,0,1,1,-2.7386127875258306,0A2.7386127875258306,2.7386127875258306,0,1,1,2.7386127875258306,0" style="fill: none; stroke: #f58518; stroke-width: 2; opacity: 0.5;"></path><path transform="translate(146.51162790697674,252.28787452803374)" d="M2.7386127875258306,0A2.7386127875258306,2.7386127875258306,0,1,1,-2.7386127875258306,0A2.7386127875258306,2.7386127875258306,0,1,1,2.7386127875258306,0" style="fill: none; stroke: #f58518; stroke-width: 2; opacity: 0.5;"></path><path transform="translate(153.48837209302326,199.99999999999994)" d="M2.7386127875258306,0A2.7386127875258306,2.7386127875258306,0,1,1,-2.7386127875258306,0A2.7386127875258306,2.7386127875258306,0,1,1,2.7386127875258306,0" style="fill: none; stroke: #f58518; stroke-width: 2; opacity: 0.5;"></path><path transform="translate(160.46511627906975,209.69100130080562)" d="M2.7386127875258306,0A2.7386127875258306,2.7386127875258306,0,1,1,-2.7386127875258306,0A2.7386127875258306,2.7386127875258306,0,1,1,2.7386127875258306,0" style="fill: none; stroke: #f58518; stroke-width: 2; opacity: 0.5;"></path><path transform="translate(167.44186046511626,204.57574905606748)" d="M2.7386127875258306,0A2.7386127875258306,2.7386127875258306,0,1,1,-2.7386127875258306,0A2.7386127875258306,2.7386127875258306,0,1,1,2.7386127875258306,0" style="fill: none; stroke: #f58518; stroke-width: 2; opacity: 0.5;"></path><path transform="translate(174.4186046511628,195.8607314841775)" d="M2.7386127875258306,0A2.7386127875258306,2.7386127875258306,0,1,1,-2.7386127875258306,0A2.7386127875258306,2.7386127875258306,0,1,1,2.7386127875258306,0" style="fill: none; stroke: #f58518; stroke-width: 2; opacity: 0.5;"></path><path transform="translate(181.3953488372093,269.8970004336019)" d="M2.7386127875258306,0A2.7386127875258306,2.7386127875258306,0,1,1,-2.7386127875258306,0A2.7386127875258306,2.7386127875258306,0,1,1,2.7386127875258306,0" style="fill: none; stroke: #f58518; stroke-width: 2; opacity: 0.5;"></path><path transform="translate(188.37209302325581,300)" d="M2.7386127875258306,0A2.7386127875258306,2.7386127875258306,0,1,1,-2.7386127875258306,0A2.7386127875258306,2.7386127875258306,0,1,1,2.7386127875258306,0" style="fill: none; stroke: #f58518; stroke-width: 2; opacity: 0.5;"></path><path transform="translate(195.34883720930233,182.39087409443187)" d="M2.7386127875258306,0A2.7386127875258306,2.7386127875258306,0,1,1,-2.7386127875258306,0A2.7386127875258306,2.7386127875258306,0,1,1,2.7386127875258306,0" style="fill: none; stroke: #f58518; stroke-width: 2; opacity: 0.5;"></path><path transform="translate(202.32558139534882,160.20599913279625)" d="M2.7386127875258306,0A2.7386127875258306,2.7386127875258306,0,1,1,-2.7386127875258306,0A2.7386127875258306,2.7386127875258306,0,1,1,2.7386127875258306,0" style="fill: none; stroke: #f58518; stroke-width: 2; opacity: 0.5;"></path><path transform="translate(209.30232558139537,148.14860601221125)" d="M2.7386127875258306,0A2.7386127875258306,2.7386127875258306,0,1,1,-2.7386127875258306,0A2.7386127875258306,2.7386127875258306,0,1,1,2.7386127875258306,0" style="fill: none; stroke: #f58518; stroke-width: 2; opacity: 0.5;"></path><path transform="translate(216.27906976744185,176.95510786217258)" d="M2.7386127875258306,0A2.7386127875258306,2.7386127875258306,0,1,1,-2.7386127875258306,0A2.7386127875258306,2.7386127875258306,0,1,1,2.7386127875258306,0" style="fill: none; stroke: #f58518; stroke-width: 2; opacity: 0.5;"></path><path transform="translate(223.25581395348837,222.18487496163561)" d="M2.7386127875258306,0A2.7386127875258306,2.7386127875258306,0,1,1,-2.7386127875258306,0A2.7386127875258306,2.7386127875258306,0,1,1,2.7386127875258306,0" style="fill: none; stroke: #f58518; stroke-width: 2; opacity: 0.5;"></path><path transform="translate(230.2325581395349,230.10299956639813)" d="M2.7386127875258306,0A2.7386127875258306,2.7386127875258306,0,1,1,-2.7386127875258306,0A2.7386127875258306,2.7386127875258306,0,1,1,2.7386127875258306,0" style="fill: none; stroke: #f58518; stroke-width: 2; opacity: 0.5;"></path><path transform="translate(237.20930232558138,252.28787452803374)" d="M2.7386127875258306,0A2.7386127875258306,2.7386127875258306,0,1,1,-2.7386127875258306,0A2.7386127875258306,2.7386127875258306,0,1,1,2.7386127875258306,0" style="fill: none; stroke: #f58518; stroke-width: 2; opacity: 0.5;"></path><path transform="translate(244.18604651162792,153.7602002101044)" d="M2.7386127875258306,0A2.7386127875258306,2.7386127875258306,0,1,1,-2.7386127875258306,0A2.7386127875258306,2.7386127875258306,0,1,1,2.7386127875258306,0" style="fill: none; stroke: #f58518; stroke-width: 2; opacity: 0.5;"></path><path transform="translate(251.16279069767444,127.57241303992109)" d="M2.7386127875258306,0A2.7386127875258306,2.7386127875258306,0,1,1,-2.7386127875258306,0A2.7386127875258306,2.7386127875258306,0,1,1,2.7386127875258306,0" style="fill: none; stroke: #f58518; stroke-width: 2; opacity: 0.5;"></path><path transform="translate(258.1395348837209,131.8758762624413)" d="M2.7386127875258306,0A2.7386127875258306,2.7386127875258306,0,1,1,-2.7386127875258306,0A2.7386127875258306,2.7386127875258306,0,1,1,2.7386127875258306,0" style="fill: none; stroke: #f58518; stroke-width: 2; opacity: 0.5;"></path><path transform="translate(265.1162790697675,132.7902142064282)" d="M2.7386127875258306,0A2.7386127875258306,2.7386127875258306,0,1,1,-2.7386127875258306,0A2.7386127875258306,2.7386127875258306,0,1,1,2.7386127875258306,0" style="fill: none; stroke: #f58518; stroke-width: 2; opacity: 0.5;"></path><path transform="translate(272.09302325581393,133.72421683184263)" d="M2.7386127875258306,0A2.7386127875258306,2.7386127875258306,0,1,1,-2.7386127875258306,0A2.7386127875258306,2.7386127875258306,0,1,1,2.7386127875258306,0" style="fill: none; stroke: #f58518; stroke-width: 2; opacity: 0.5;"></path><path transform="translate(279.06976744186045,182.39087409443187)" d="M2.7386127875258306,0A2.7386127875258306,2.7386127875258306,0,1,1,-2.7386127875258306,0A2.7386127875258306,2.7386127875258306,0,1,1,2.7386127875258306,0" style="fill: none; stroke: #f58518; stroke-width: 2; opacity: 0.5;"></path><path transform="translate(286.04651162790697,269.8970004336019)" d="M2.7386127875258306,0A2.7386127875258306,2.7386127875258306,0,1,1,-2.7386127875258306,0A2.7386127875258306,2.7386127875258306,0,1,1,2.7386127875258306,0" style="fill: none; stroke: #f58518; stroke-width: 2; opacity: 0.5;"></path><path transform="translate(293.0232558139535,117.39251972991735)" d="M2.7386127875258306,0A2.7386127875258306,2.7386127875258306,0,1,1,-2.7386127875258306,0A2.7386127875258306,2.7386127875258306,0,1,1,2.7386127875258306,0" style="fill: none; stroke: #f58518; stroke-width: 2; opacity: 0.5;"></path><path transform="translate(300,114.2667503568731)" d="M2.7386127875258306,0A2.7386127875258306,2.7386127875258306,0,1,1,-2.7386127875258306,0A2.7386127875258306,2.7386127875258306,0,1,1,2.7386127875258306,0" style="fill: none; stroke: #f58518; stroke-width: 2; opacity: 0.5;"></path><path transform="translate(306.9767441860465,108.09219076239258)" d="M2.7386127875258306,0A2.7386127875258306,2.7386127875258306,0,1,1,-2.7386127875258306,0A2.7386127875258306,2.7386127875258306,0,1,1,2.7386127875258306,0" style="fill: none; stroke: #f58518; stroke-width: 2; opacity: 0.5;"></path><path transform="translate(313.95348837209303,111.91864077192086)" d="M2.7386127875258306,0A2.7386127875258306,2.7386127875258306,0,1,1,-2.7386127875258306,0A2.7386127875258306,2.7386127875258306,0,1,1,2.7386127875258306,0" style="fill: none; stroke: #f58518; stroke-width: 2; opacity: 0.5;"></path><path transform="translate(320.9302325581395,104.57574905606752)" d="M2.7386127875258306,0A2.7386127875258306,2.7386127875258306,0,1,1,-2.7386127875258306,0A2.7386127875258306,2.7386127875258306,0,1,1,2.7386127875258306,0" style="fill: none; stroke: #f58518; stroke-width: 2; opacity: 0.5;"></path><path transform="translate(327.906976744186,169.89700043360187)" d="M2.7386127875258306,0A2.7386127875258306,2.7386127875258306,0,1,1,-2.7386127875258306,0A2.7386127875258306,2.7386127875258306,0,1,1,2.7386127875258306,0" style="fill: none; stroke: #f58518; stroke-width: 2; opacity: 0.5;"></path><path transform="translate(334.8837209302325,222.18487496163561)" d="M2.7386127875258306,0A2.7386127875258306,2.7386127875258306,0,1,1,-2.7386127875258306,0A2.7386127875258306,2.7386127875258306,0,1,1,2.7386127875258306,0" style="fill: none; stroke: #f58518; stroke-width: 2; opacity: 0.5;"></path><path transform="translate(341.8604651162791,107.57207139381184)" d="M2.7386127875258306,0A2.7386127875258306,2.7386127875258306,0,1,1,-2.7386127875258306,0A2.7386127875258306,2.7386127875258306,0,1,1,2.7386127875258306,0" style="fill: none; stroke: #f58518; stroke-width: 2; opacity: 0.5;"></path><path transform="translate(348.8372093023256,107.57207139381184)" d="M2.7386127875258306,0A2.7386127875258306,2.7386127875258306,0,1,1,-2.7386127875258306,0A2.7386127875258306,2.7386127875258306,0,1,1,2.7386127875258306,0" style="fill: none; stroke: #f58518; stroke-width: 2; opacity: 0.5;"></path><path transform="translate(355.81395348837214,117.39251972991735)" d="M2.7386127875258306,0A2.7386127875258306,2.7386127875258306,0,1,1,-2.7386127875258306,0A2.7386127875258306,2.7386127875258306,0,1,1,2.7386127875258306,0" style="fill: none; stroke: #f58518; stroke-width: 2; opacity: 0.5;"></path><path transform="translate(362.7906976744186,106.55015487564326)" d="M2.7386127875258306,0A2.7386127875258306,2.7386127875258306,0,1,1,-2.7386127875258306,0A2.7386127875258306,2.7386127875258306,0,1,1,2.7386127875258306,0" style="fill: none; stroke: #f58518; stroke-width: 2; opacity: 0.5;"></path><path transform="translate(369.7674418604651,98.29666607012197)" d="M2.7386127875258306,0A2.7386127875258306,2.7386127875258306,0,1,1,-2.7386127875258306,0A2.7386127875258306,2.7386127875258306,0,1,1,2.7386127875258306,0" style="fill: none; stroke: #f58518; stroke-width: 2; opacity: 0.5;"></path><path transform="translate(376.74418604651163,176.95510786217258)" d="M2.7386127875258306,0A2.7386127875258306,2.7386127875258306,0,1,1,-2.7386127875258306,0A2.7386127875258306,2.7386127875258306,0,1,1,2.7386127875258306,0" style="fill: none; stroke: #f58518; stroke-width: 2; opacity: 0.5;"></path><path transform="translate(383.72093023255815,209.69100130080562)" d="M2.7386127875258306,0A2.7386127875258306,2.7386127875258306,0,1,1,-2.7386127875258306,0A2.7386127875258306,2.7386127875258306,0,1,1,2.7386127875258306,0" style="fill: none; stroke: #f58518; stroke-width: 2; opacity: 0.5;"></path><path transform="translate(390.69767441860466,93.93021596463878)" d="M2.7386127875258306,0A2.7386127875258306,2.7386127875258306,0,1,1,-2.7386127875258306,0A2.7386127875258306,2.7386127875258306,0,1,1,2.7386127875258306,0" style="fill: none; stroke: #f58518; stroke-width: 2; opacity: 0.5;"></path><path transform="translate(397.6744186046511,87.61483590329142)" d="M2.7386127875258306,0A2.7386127875258306,2.7386127875258306,0,1,1,-2.7386127875258306,0A2.7386127875258306,2.7386127875258306,0,1,1,2.7386127875258306,0" style="fill: none; stroke: #f58518; stroke-width: 2; opacity: 0.5;"></path><path transform="translate(404.65116279069764,99.1399828238082)" d="M2.7386127875258306,0A2.7386127875258306,2.7386127875258306,0,1,1,-2.7386127875258306,0A2.7386127875258306,2.7386127875258306,0,1,1,2.7386127875258306,0" style="fill: none; stroke: #f58518; stroke-width: 2; opacity: 0.5;"></path><path transform="translate(411.62790697674416,97.46941347352296)" d="M2.7386127875258306,0A2.7386127875258306,2.7386127875258306,0,1,1,-2.7386127875258306,0A2.7386127875258306,2.7386127875258306,0,1,1,2.7386127875258306,0" style="fill: none; stroke: #f58518; stroke-width: 2; opacity: 0.5;"></path><path transform="translate(418.60465116279073,89.61962790440433)" d="M2.7386127875258306,0A2.7386127875258306,2.7386127875258306,0,1,1,-2.7386127875258306,0A2.7386127875258306,2.7386127875258306,0,1,1,2.7386127875258306,0" style="fill: none; stroke: #f58518; stroke-width: 2; opacity: 0.5;"></path><path transform="translate(425.58139534883725,174.47274948966935)" d="M2.7386127875258306,0A2.7386127875258306,2.7386127875258306,0,1,1,-2.7386127875258306,0A2.7386127875258306,2.7386127875258306,0,1,1,2.7386127875258306,0" style="fill: none; stroke: #f58518; stroke-width: 2; opacity: 0.5;"></path><path transform="translate(432.5581395348837,230.10299956639813)" d="M2.7386127875258306,0A2.7386127875258306,2.7386127875258306,0,1,1,-2.7386127875258306,0A2.7386127875258306,2.7386127875258306,0,1,1,2.7386127875258306,0" style="fill: none; stroke: #f58518; stroke-width: 2; opacity: 0.5;"></path><path transform="translate(439.5348837209302,105.06099933550873)" d="M2.7386127875258306,0A2.7386127875258306,2.7386127875258306,0,1,1,-2.7386127875258306,0A2.7386127875258306,2.7386127875258306,0,1,1,2.7386127875258306,0" style="fill: none; stroke: #f58518; stroke-width: 2; opacity: 0.5;"></path><path transform="translate(446.51162790697674,101.32282657337552)" d="M2.7386127875258306,0A2.7386127875258306,2.7386127875258306,0,1,1,-2.7386127875258306,0A2.7386127875258306,2.7386127875258306,0,1,1,2.7386127875258306,0" style="fill: none; stroke: #f58518; stroke-width: 2; opacity: 0.5;"></path><path transform="translate(453.48837209302326,108.61861476162828)" d="M2.7386127875258306,0A2.7386127875258306,2.7386127875258306,0,1,1,-2.7386127875258306,0A2.7386127875258306,2.7386127875258306,0,1,1,2.7386127875258306,0" style="fill: none; stroke: #f58518; stroke-width: 2; opacity: 0.5;"></path><path transform="translate(460.4651162790698,96.25735020593767)" d="M2.7386127875258306,0A2.7386127875258306,2.7386127875258306,0,1,1,-2.7386127875258306,0A2.7386127875258306,2.7386127875258306,0,1,1,2.7386127875258306,0" style="fill: none; stroke: #f58518; stroke-width: 2; opacity: 0.5;"></path><path transform="translate(467.4418604651163,87.61483590329142)" d="M2.7386127875258306,0A2.7386127875258306,2.7386127875258306,0,1,1,-2.7386127875258306,0A2.7386127875258306,2.7386127875258306,0,1,1,2.7386127875258306,0" style="fill: none; stroke: #f58518; stroke-width: 2; opacity: 0.5;"></path><path transform="translate(474.41860465116275,152.28787452803374)" d="M2.7386127875258306,0A2.7386127875258306,2.7386127875258306,0,1,1,-2.7386127875258306,0A2.7386127875258306,2.7386127875258306,0,1,1,2.7386127875258306,0" style="fill: none; stroke: #f58518; stroke-width: 2; opacity: 0.5;"></path><path transform="translate(481.39534883720927,230.10299956639813)" d="M2.7386127875258306,0A2.7386127875258306,2.7386127875258306,0,1,1,-2.7386127875258306,0A2.7386127875258306,2.7386127875258306,0,1,1,2.7386127875258306,0" style="fill: none; stroke: #f58518; stroke-width: 2; opacity: 0.5;"></path><path transform="translate(488.37209302325584,107.05810742857071)" d="M2.7386127875258306,0A2.7386127875258306,2.7386127875258306,0,1,1,-2.7386127875258306,0A2.7386127875258306,2.7386127875258306,0,1,1,2.7386127875258306,0" style="fill: none; stroke: #f58518; stroke-width: 2; opacity: 0.5;"></path><path transform="translate(495.34883720930236,113.66771398795441)" d="M2.7386127875258306,0A2.7386127875258306,2.7386127875258306,0,1,1,-2.7386127875258306,0A2.7386127875258306,2.7386127875258306,0,1,1,2.7386127875258306,0" style="fill: none; stroke: #f58518; stroke-width: 2; opacity: 0.5;"></path><path transform="translate(502.3255813953489,110.79053973095192)" d="M2.7386127875258306,0A2.7386127875258306,2.7386127875258306,0,1,1,-2.7386127875258306,0A2.7386127875258306,2.7386127875258306,0,1,1,2.7386127875258306,0" style="fill: none; stroke: #f58518; stroke-width: 2; opacity: 0.5;"></path><path transform="translate(509.30232558139534,116.11509092627443)" d="M2.7386127875258306,0A2.7386127875258306,2.7386127875258306,0,1,1,-2.7386127875258306,0A2.7386127875258306,2.7386127875258306,0,1,1,2.7386127875258306,0" style="fill: none; stroke: #f58518; stroke-width: 2; opacity: 0.5;"></path><path transform="translate(516.2790697674418,101.32282657337552)" d="M2.7386127875258306,0A2.7386127875258306,2.7386127875258306,0,1,1,-2.7386127875258306,0A2.7386127875258306,2.7386127875258306,0,1,1,2.7386127875258306,0" style="fill: none; stroke: #f58518; stroke-width: 2; opacity: 0.5;"></path><path transform="translate(523.2558139534883,149.48500216800937)" d="M2.7386127875258306,0A2.7386127875258306,2.7386127875258306,0,1,1,-2.7386127875258306,0A2.7386127875258306,2.7386127875258306,0,1,1,2.7386127875258306,0" style="fill: none; stroke: #f58518; stroke-width: 2; opacity: 0.5;"></path><path transform="translate(530.232558139535,230.10299956639813)" d="M2.7386127875258306,0A2.7386127875258306,2.7386127875258306,0,1,1,-2.7386127875258306,0A2.7386127875258306,2.7386127875258306,0,1,1,2.7386127875258306,0" style="fill: none; stroke: #f58518; stroke-width: 2; opacity: 0.5;"></path><path transform="translate(537.2093023255815,142.021640338319)" d="M2.7386127875258306,0A2.7386127875258306,2.7386127875258306,0,1,1,-2.7386127875258306,0A2.7386127875258306,2.7386127875258306,0,1,1,2.7386127875258306,0" style="fill: none; stroke: #f58518; stroke-width: 2; opacity: 0.5;"></path><path transform="translate(544.1860465116279,104.09586076789066)" d="M2.7386127875258306,0A2.7386127875258306,2.7386127875258306,0,1,1,-2.7386127875258306,0A2.7386127875258306,2.7386127875258306,0,1,1,2.7386127875258306,0" style="fill: none; stroke: #f58518; stroke-width: 2; opacity: 0.5;"></path><path transform="translate(551.1627906976744,113.07682802690242)" d="M2.7386127875258306,0A2.7386127875258306,2.7386127875258306,0,1,1,-2.7386127875258306,0A2.7386127875258306,2.7386127875258306,0,1,1,2.7386127875258306,0" style="fill: none; stroke: #f58518; stroke-width: 2; opacity: 0.5;"></path><path transform="translate(558.1395348837209,124.41251443275081)" d="M2.7386127875258306,0A2.7386127875258306,2.7386127875258306,0,1,1,-2.7386127875258306,0A2.7386127875258306,2.7386127875258306,0,1,1,2.7386127875258306,0" style="fill: none; stroke: #f58518; stroke-width: 2; opacity: 0.5;"></path><path transform="translate(565.1162790697674,152.28787452803374)" d="M2.7386127875258306,0A2.7386127875258306,2.7386127875258306,0,1,1,-2.7386127875258306,0A2.7386127875258306,2.7386127875258306,0,1,1,2.7386127875258306,0" style="fill: none; stroke: #f58518; stroke-width: 2; opacity: 0.5;"></path><path transform="translate(572.0930232558139,222.18487496163561)" d="M2.7386127875258306,0A2.7386127875258306,2.7386127875258306,0,1,1,-2.7386127875258306,0A2.7386127875258306,2.7386127875258306,0,1,1,2.7386127875258306,0" style="fill: none; stroke: #f58518; stroke-width: 2; opacity: 0.5;"></path><path transform="translate(55.81395348837209,300)" d="M2.7386127875258306,0A2.7386127875258306,2.7386127875258306,0,1,1,-2.7386127875258306,0A2.7386127875258306,2.7386127875258306,0,1,1,2.7386127875258306,0" style="fill: none; stroke: #e45756; stroke-width: 2; opacity: 0.5;"></path><path transform="translate(83.72093023255813,269.8970004336019)" d="M2.7386127875258306,0A2.7386127875258306,2.7386127875258306,0,1,1,-2.7386127875258306,0A2.7386127875258306,2.7386127875258306,0,1,1,2.7386127875258306,0" style="fill: none; stroke: #e45756; stroke-width: 2; opacity: 0.5;"></path><path transform="translate(90.69767441860465,300)" d="M2.7386127875258306,0A2.7386127875258306,2.7386127875258306,0,1,1,-2.7386127875258306,0A2.7386127875258306,2.7386127875258306,0,1,1,2.7386127875258306,0" style="fill: none; stroke: #e45756; stroke-width: 2; opacity: 0.5;"></path><path transform="translate(97.67441860465117,300)" d="M2.7386127875258306,0A2.7386127875258306,2.7386127875258306,0,1,1,-2.7386127875258306,0A2.7386127875258306,2.7386127875258306,0,1,1,2.7386127875258306,0" style="fill: none; stroke: #e45756; stroke-width: 2; opacity: 0.5;"></path><path transform="translate(104.65116279069768,300)" d="M2.7386127875258306,0A2.7386127875258306,2.7386127875258306,0,1,1,-2.7386127875258306,0A2.7386127875258306,2.7386127875258306,0,1,1,2.7386127875258306,0" style="fill: none; stroke: #e45756; stroke-width: 2; opacity: 0.5;"></path><path transform="translate(118.60465116279069,252.28787452803374)" d="M2.7386127875258306,0A2.7386127875258306,2.7386127875258306,0,1,1,-2.7386127875258306,0A2.7386127875258306,2.7386127875258306,0,1,1,2.7386127875258306,0" style="fill: none; stroke: #e45756; stroke-width: 2; opacity: 0.5;"></path><path transform="translate(125.58139534883722,269.8970004336019)" d="M2.7386127875258306,0A2.7386127875258306,2.7386127875258306,0,1,1,-2.7386127875258306,0A2.7386127875258306,2.7386127875258306,0,1,1,2.7386127875258306,0" style="fill: none; stroke: #e45756; stroke-width: 2; opacity: 0.5;"></path><path transform="translate(132.55813953488374,252.28787452803374)" d="M2.7386127875258306,0A2.7386127875258306,2.7386127875258306,0,1,1,-2.7386127875258306,0A2.7386127875258306,2.7386127875258306,0,1,1,2.7386127875258306,0" style="fill: none; stroke: #e45756; stroke-width: 2; opacity: 0.5;"></path><path transform="translate(139.53488372093022,252.28787452803374)" d="M2.7386127875258306,0A2.7386127875258306,2.7386127875258306,0,1,1,-2.7386127875258306,0A2.7386127875258306,2.7386127875258306,0,1,1,2.7386127875258306,0" style="fill: none; stroke: #e45756; stroke-width: 2; opacity: 0.5;"></path><path transform="translate(146.51162790697674,252.28787452803374)" d="M2.7386127875258306,0A2.7386127875258306,2.7386127875258306,0,1,1,-2.7386127875258306,0A2.7386127875258306,2.7386127875258306,0,1,1,2.7386127875258306,0" style="fill: none; stroke: #e45756; stroke-width: 2; opacity: 0.5;"></path><path transform="translate(153.48837209302326,300)" d="M2.7386127875258306,0A2.7386127875258306,2.7386127875258306,0,1,1,-2.7386127875258306,0A2.7386127875258306,2.7386127875258306,0,1,1,2.7386127875258306,0" style="fill: none; stroke: #e45756; stroke-width: 2; opacity: 0.5;"></path><path transform="translate(160.46511627906975,252.28787452803374)" d="M2.7386127875258306,0A2.7386127875258306,2.7386127875258306,0,1,1,-2.7386127875258306,0A2.7386127875258306,2.7386127875258306,0,1,1,2.7386127875258306,0" style="fill: none; stroke: #e45756; stroke-width: 2; opacity: 0.5;"></path><path transform="translate(167.44186046511626,300)" d="M2.7386127875258306,0A2.7386127875258306,2.7386127875258306,0,1,1,-2.7386127875258306,0A2.7386127875258306,2.7386127875258306,0,1,1,2.7386127875258306,0" style="fill: none; stroke: #e45756; stroke-width: 2; opacity: 0.5;"></path><path transform="translate(174.4186046511628,230.10299956639813)" d="M2.7386127875258306,0A2.7386127875258306,2.7386127875258306,0,1,1,-2.7386127875258306,0A2.7386127875258306,2.7386127875258306,0,1,1,2.7386127875258306,0" style="fill: none; stroke: #e45756; stroke-width: 2; opacity: 0.5;"></path><path transform="translate(181.3953488372093,239.79400086720375)" d="M2.7386127875258306,0A2.7386127875258306,2.7386127875258306,0,1,1,-2.7386127875258306,0A2.7386127875258306,2.7386127875258306,0,1,1,2.7386127875258306,0" style="fill: none; stroke: #e45756; stroke-width: 2; opacity: 0.5;"></path><path transform="translate(188.37209302325581,269.8970004336019)" d="M2.7386127875258306,0A2.7386127875258306,2.7386127875258306,0,1,1,-2.7386127875258306,0A2.7386127875258306,2.7386127875258306,0,1,1,2.7386127875258306,0" style="fill: none; stroke: #e45756; stroke-width: 2; opacity: 0.5;"></path><path transform="translate(195.34883720930233,252.28787452803374)" d="M2.7386127875258306,0A2.7386127875258306,2.7386127875258306,0,1,1,-2.7386127875258306,0A2.7386127875258306,2.7386127875258306,0,1,1,2.7386127875258306,0" style="fill: none; stroke: #e45756; stroke-width: 2; opacity: 0.5;"></path><path transform="translate(202.32558139534882,252.28787452803374)" d="M2.7386127875258306,0A2.7386127875258306,2.7386127875258306,0,1,1,-2.7386127875258306,0A2.7386127875258306,2.7386127875258306,0,1,1,2.7386127875258306,0" style="fill: none; stroke: #e45756; stroke-width: 2; opacity: 0.5;"></path><path transform="translate(209.30232558139537,252.28787452803374)" d="M2.7386127875258306,0A2.7386127875258306,2.7386127875258306,0,1,1,-2.7386127875258306,0A2.7386127875258306,2.7386127875258306,0,1,1,2.7386127875258306,0" style="fill: none; stroke: #e45756; stroke-width: 2; opacity: 0.5;"></path><path transform="translate(216.27906976744185,239.79400086720375)" d="M2.7386127875258306,0A2.7386127875258306,2.7386127875258306,0,1,1,-2.7386127875258306,0A2.7386127875258306,2.7386127875258306,0,1,1,2.7386127875258306,0" style="fill: none; stroke: #e45756; stroke-width: 2; opacity: 0.5;"></path><path transform="translate(223.25581395348837,230.10299956639813)" d="M2.7386127875258306,0A2.7386127875258306,2.7386127875258306,0,1,1,-2.7386127875258306,0A2.7386127875258306,2.7386127875258306,0,1,1,2.7386127875258306,0" style="fill: none; stroke: #e45756; stroke-width: 2; opacity: 0.5;"></path><path transform="translate(230.2325581395349,252.28787452803374)" d="M2.7386127875258306,0A2.7386127875258306,2.7386127875258306,0,1,1,-2.7386127875258306,0A2.7386127875258306,2.7386127875258306,0,1,1,2.7386127875258306,0" style="fill: none; stroke: #e45756; stroke-width: 2; opacity: 0.5;"></path><path transform="translate(244.18604651162792,222.18487496163561)" d="M2.7386127875258306,0A2.7386127875258306,2.7386127875258306,0,1,1,-2.7386127875258306,0A2.7386127875258306,2.7386127875258306,0,1,1,2.7386127875258306,0" style="fill: none; stroke: #e45756; stroke-width: 2; opacity: 0.5;"></path><path transform="translate(251.16279069767444,252.28787452803374)" d="M2.7386127875258306,0A2.7386127875258306,2.7386127875258306,0,1,1,-2.7386127875258306,0A2.7386127875258306,2.7386127875258306,0,1,1,2.7386127875258306,0" style="fill: none; stroke: #e45756; stroke-width: 2; opacity: 0.5;"></path><path transform="translate(258.1395348837209,239.79400086720375)" d="M2.7386127875258306,0A2.7386127875258306,2.7386127875258306,0,1,1,-2.7386127875258306,0A2.7386127875258306,2.7386127875258306,0,1,1,2.7386127875258306,0" style="fill: none; stroke: #e45756; stroke-width: 2; opacity: 0.5;"></path><path transform="translate(265.1162790697675,239.79400086720375)" d="M2.7386127875258306,0A2.7386127875258306,2.7386127875258306,0,1,1,-2.7386127875258306,0A2.7386127875258306,2.7386127875258306,0,1,1,2.7386127875258306,0" style="fill: none; stroke: #e45756; stroke-width: 2; opacity: 0.5;"></path><path transform="translate(272.09302325581393,300)" d="M2.7386127875258306,0A2.7386127875258306,2.7386127875258306,0,1,1,-2.7386127875258306,0A2.7386127875258306,2.7386127875258306,0,1,1,2.7386127875258306,0" style="fill: none; stroke: #e45756; stroke-width: 2; opacity: 0.5;"></path><path transform="translate(279.06976744186045,252.28787452803374)" d="M2.7386127875258306,0A2.7386127875258306,2.7386127875258306,0,1,1,-2.7386127875258306,0A2.7386127875258306,2.7386127875258306,0,1,1,2.7386127875258306,0" style="fill: none; stroke: #e45756; stroke-width: 2; opacity: 0.5;"></path><path transform="translate(286.04651162790697,252.28787452803374)" d="M2.7386127875258306,0A2.7386127875258306,2.7386127875258306,0,1,1,-2.7386127875258306,0A2.7386127875258306,2.7386127875258306,0,1,1,2.7386127875258306,0" style="fill: none; stroke: #e45756; stroke-width: 2; opacity: 0.5;"></path><path transform="translate(293.0232558139535,300)" d="M2.7386127875258306,0A2.7386127875258306,2.7386127875258306,0,1,1,-2.7386127875258306,0A2.7386127875258306,2.7386127875258306,0,1,1,2.7386127875258306,0" style="fill: none; stroke: #e45756; stroke-width: 2; opacity: 0.5;"></path><path transform="translate(300,239.79400086720375)" d="M2.7386127875258306,0A2.7386127875258306,2.7386127875258306,0,1,1,-2.7386127875258306,0A2.7386127875258306,2.7386127875258306,0,1,1,2.7386127875258306,0" style="fill: none; stroke: #e45756; stroke-width: 2; opacity: 0.5;"></path><path transform="translate(306.9767441860465,230.10299956639813)" d="M2.7386127875258306,0A2.7386127875258306,2.7386127875258306,0,1,1,-2.7386127875258306,0A2.7386127875258306,2.7386127875258306,0,1,1,2.7386127875258306,0" style="fill: none; stroke: #e45756; stroke-width: 2; opacity: 0.5;"></path><path transform="translate(313.95348837209303,269.8970004336019)" d="M2.7386127875258306,0A2.7386127875258306,2.7386127875258306,0,1,1,-2.7386127875258306,0A2.7386127875258306,2.7386127875258306,0,1,1,2.7386127875258306,0" style="fill: none; stroke: #e45756; stroke-width: 2; opacity: 0.5;"></path><path transform="translate(320.9302325581395,252.28787452803374)" d="M2.7386127875258306,0A2.7386127875258306,2.7386127875258306,0,1,1,-2.7386127875258306,0A2.7386127875258306,2.7386127875258306,0,1,1,2.7386127875258306,0" style="fill: none; stroke: #e45756; stroke-width: 2; opacity: 0.5;"></path><path transform="translate(327.906976744186,269.8970004336019)" d="M2.7386127875258306,0A2.7386127875258306,2.7386127875258306,0,1,1,-2.7386127875258306,0A2.7386127875258306,2.7386127875258306,0,1,1,2.7386127875258306,0" style="fill: none; stroke: #e45756; stroke-width: 2; opacity: 0.5;"></path><path transform="translate(334.8837209302325,230.10299956639813)" d="M2.7386127875258306,0A2.7386127875258306,2.7386127875258306,0,1,1,-2.7386127875258306,0A2.7386127875258306,2.7386127875258306,0,1,1,2.7386127875258306,0" style="fill: none; stroke: #e45756; stroke-width: 2; opacity: 0.5;"></path><path transform="translate(348.8372093023256,269.8970004336019)" d="M2.7386127875258306,0A2.7386127875258306,2.7386127875258306,0,1,1,-2.7386127875258306,0A2.7386127875258306,2.7386127875258306,0,1,1,2.7386127875258306,0" style="fill: none; stroke: #e45756; stroke-width: 2; opacity: 0.5;"></path><path transform="translate(362.7906976744186,300)" d="M2.7386127875258306,0A2.7386127875258306,2.7386127875258306,0,1,1,-2.7386127875258306,0A2.7386127875258306,2.7386127875258306,0,1,1,2.7386127875258306,0" style="fill: none; stroke: #e45756; stroke-width: 2; opacity: 0.5;"></path><path transform="translate(369.7674418604651,252.28787452803374)" d="M2.7386127875258306,0A2.7386127875258306,2.7386127875258306,0,1,1,-2.7386127875258306,0A2.7386127875258306,2.7386127875258306,0,1,1,2.7386127875258306,0" style="fill: none; stroke: #e45756; stroke-width: 2; opacity: 0.5;"></path><path transform="translate(376.74418604651163,239.79400086720375)" d="M2.7386127875258306,0A2.7386127875258306,2.7386127875258306,0,1,1,-2.7386127875258306,0A2.7386127875258306,2.7386127875258306,0,1,1,2.7386127875258306,0" style="fill: none; stroke: #e45756; stroke-width: 2; opacity: 0.5;"></path><path transform="translate(383.72093023255815,269.8970004336019)" d="M2.7386127875258306,0A2.7386127875258306,2.7386127875258306,0,1,1,-2.7386127875258306,0A2.7386127875258306,2.7386127875258306,0,1,1,2.7386127875258306,0" style="fill: none; stroke: #e45756; stroke-width: 2; opacity: 0.5;"></path><path transform="translate(390.69767441860466,252.28787452803374)" d="M2.7386127875258306,0A2.7386127875258306,2.7386127875258306,0,1,1,-2.7386127875258306,0A2.7386127875258306,2.7386127875258306,0,1,1,2.7386127875258306,0" style="fill: none; stroke: #e45756; stroke-width: 2; opacity: 0.5;"></path><path transform="translate(397.6744186046511,269.8970004336019)" d="M2.7386127875258306,0A2.7386127875258306,2.7386127875258306,0,1,1,-2.7386127875258306,0A2.7386127875258306,2.7386127875258306,0,1,1,2.7386127875258306,0" style="fill: none; stroke: #e45756; stroke-width: 2; opacity: 0.5;"></path><path transform="translate(404.65116279069764,300)" d="M2.7386127875258306,0A2.7386127875258306,2.7386127875258306,0,1,1,-2.7386127875258306,0A2.7386127875258306,2.7386127875258306,0,1,1,2.7386127875258306,0" style="fill: none; stroke: #e45756; stroke-width: 2; opacity: 0.5;"></path><path transform="translate(411.62790697674416,269.8970004336019)" d="M2.7386127875258306,0A2.7386127875258306,2.7386127875258306,0,1,1,-2.7386127875258306,0A2.7386127875258306,2.7386127875258306,0,1,1,2.7386127875258306,0" style="fill: none; stroke: #e45756; stroke-width: 2; opacity: 0.5;"></path><path transform="translate(432.5581395348837,269.8970004336019)" d="M2.7386127875258306,0A2.7386127875258306,2.7386127875258306,0,1,1,-2.7386127875258306,0A2.7386127875258306,2.7386127875258306,0,1,1,2.7386127875258306,0" style="fill: none; stroke: #e45756; stroke-width: 2; opacity: 0.5;"></path><path transform="translate(460.4651162790698,300)" d="M2.7386127875258306,0A2.7386127875258306,2.7386127875258306,0,1,1,-2.7386127875258306,0A2.7386127875258306,2.7386127875258306,0,1,1,2.7386127875258306,0" style="fill: none; stroke: #e45756; stroke-width: 2; opacity: 0.5;"></path><path transform="translate(467.4418604651163,300)" d="M2.7386127875258306,0A2.7386127875258306,2.7386127875258306,0,1,1,-2.7386127875258306,0A2.7386127875258306,2.7386127875258306,0,1,1,2.7386127875258306,0" style="fill: none; stroke: #e45756; stroke-width: 2; opacity: 0.5;"></path><path transform="translate(474.41860465116275,300)" d="M2.7386127875258306,0A2.7386127875258306,2.7386127875258306,0,1,1,-2.7386127875258306,0A2.7386127875258306,2.7386127875258306,0,1,1,2.7386127875258306,0" style="fill: none; stroke: #e45756; stroke-width: 2; opacity: 0.5;"></path><path transform="translate(495.34883720930236,269.8970004336019)" d="M2.7386127875258306,0A2.7386127875258306,2.7386127875258306,0,1,1,-2.7386127875258306,0A2.7386127875258306,2.7386127875258306,0,1,1,2.7386127875258306,0" style="fill: none; stroke: #e45756; stroke-width: 2; opacity: 0.5;"></path><path transform="translate(502.3255813953489,269.8970004336019)" d="M2.7386127875258306,0A2.7386127875258306,2.7386127875258306,0,1,1,-2.7386127875258306,0A2.7386127875258306,2.7386127875258306,0,1,1,2.7386127875258306,0" style="fill: none; stroke: #e45756; stroke-width: 2; opacity: 0.5;"></path><path transform="translate(509.30232558139534,300)" d="M2.7386127875258306,0A2.7386127875258306,2.7386127875258306,0,1,1,-2.7386127875258306,0A2.7386127875258306,2.7386127875258306,0,1,1,2.7386127875258306,0" style="fill: none; stroke: #e45756; stroke-width: 2; opacity: 0.5;"></path><path transform="translate(516.2790697674418,300)" d="M2.7386127875258306,0A2.7386127875258306,2.7386127875258306,0,1,1,-2.7386127875258306,0A2.7386127875258306,2.7386127875258306,0,1,1,2.7386127875258306,0" style="fill: none; stroke: #e45756; stroke-width: 2; opacity: 0.5;"></path><path transform="translate(523.2558139534883,300)" d="M2.7386127875258306,0A2.7386127875258306,2.7386127875258306,0,1,1,-2.7386127875258306,0A2.7386127875258306,2.7386127875258306,0,1,1,2.7386127875258306,0" style="fill: none; stroke: #e45756; stroke-width: 2; opacity: 0.5;"></path><path transform="translate(544.1860465116279,300)" d="M2.7386127875258306,0A2.7386127875258306,2.7386127875258306,0,1,1,-2.7386127875258306,0A2.7386127875258306,2.7386127875258306,0,1,1,2.7386127875258306,0" style="fill: none; stroke: #e45756; stroke-width: 2; opacity: 0.5;"></path><path transform="translate(551.1627906976744,269.8970004336019)" d="M2.7386127875258306,0A2.7386127875258306,2.7386127875258306,0,1,1,-2.7386127875258306,0A2.7386127875258306,2.7386127875258306,0,1,1,2.7386127875258306,0" style="fill: none; stroke: #e45756; stroke-width: 2; opacity: 0.5;"></path><path transform="translate(558.1395348837209,300)" d="M2.7386127875258306,0A2.7386127875258306,2.7386127875258306,0,1,1,-2.7386127875258306,0A2.7386127875258306,2.7386127875258306,0,1,1,2.7386127875258306,0" style="fill: none; stroke: #e45756; stroke-width: 2; opacity: 0.5;"></path><path transform="translate(572.0930232558139,300)" d="M2.7386127875258306,0A2.7386127875258306,2.7386127875258306,0,1,1,-2.7386127875258306,0A2.7386127875258306,2.7386127875258306,0,1,1,2.7386127875258306,0" style="fill: none; stroke: #e45756; stroke-width: 2; opacity: 0.5;"></path></g><g class="mark-group role-legend"><g transform="translate(0,-32)"><path class="background" d="M0,0h269v14h-269Z" style="pointer-events: none; fill: none;"></path><g><g class="mark-group role-legend-entry"><g transform="translate(0,0)"><path class="background" d="M0,0h0v0h0Z" style="pointer-events: none; fill: none;"></path><g><g class="mark-group role-scope"><g transform="translate(0,0)"><path class="background" d="M0,0h97.365234375v14h-97.365234375Z" style="pointer-events: none; fill: none; opacity: 1;"></path><g><g class="mark-symbol role-legend-symbol" style="pointer-events: none;"><path transform="translate(7,7)" d="M5,0A5,5,0,1,1,-5,0A5,5,0,1,1,5,0" style="fill: none; stroke: #4c78a8; stroke-width: 1.5; opacity: 0.5;"></path></g><g class="mark-text role-legend-label" style="pointer-events: none;"><text text-anchor="start" transform="translate(18,11)" style="font-family: sans-serif; font-size: 14px; fill: #000; opacity: 1;">Confirmados</text></g></g><path class="foreground" d="" style="pointer-events: none; display: none; fill: none;"></path></g><g transform="translate(108,0)"><path class="background" d="M0,0h81.041015625v14h-81.041015625Z" style="pointer-events: none; fill: none; opacity: 1;"></path><g><g class="mark-symbol role-legend-symbol" style="pointer-events: none;"><path transform="translate(7,7)" d="M5,0A5,5,0,1,1,-5,0A5,5,0,1,1,5,0" style="fill: none; stroke: #f58518; stroke-width: 1.5; opacity: 0.5;"></path></g><g class="mark-text role-legend-label" style="pointer-events: none;"><text text-anchor="start" transform="translate(18,11)" style="font-family: sans-serif; font-size: 14px; fill: #000; opacity: 1;">Probables</text></g></g><path class="foreground" d="" style="pointer-events: none; display: none; fill: none;"></path></g><g transform="translate(200,0)"><path class="background" d="M0,0h68.572265625v14h-68.572265625Z" style="pointer-events: none; fill: none; opacity: 1;"></path><g><g class="mark-symbol role-legend-symbol" style="pointer-events: none;"><path transform="translate(7,7)" d="M5,0A5,5,0,1,1,-5,0A5,5,0,1,1,5,0" style="fill: none; stroke: #e45756; stroke-width: 1.5; opacity: 0.5;"></path></g><g class="mark-text role-legend-label" style="pointer-events: none;"><text text-anchor="start" transform="translate(18,11)" style="font-family: sans-serif; font-size: 14px; fill: #000; opacity: 1;">Muertes</text></g></g><path class="foreground" d="" style="pointer-events: none; display: none; fill: none;"></path></g></g></g><path class="foreground" d="" style="pointer-events: none; display: none; fill: none;"></path></g></g></g><path class="foreground" d="" style="pointer-events: none; display: none; fill: none;"></path></g></g></g><path class="foreground" d="" style="display: none; fill: none;"></path></g></g></g></svg>