<svg class="marks" width="663" height="311" viewBox="0 0 663 311" version="1.1" xmlns="http://www.w3.org/2000/svg" xmlns:xlink="http://www.w3.org/1999/xlink"><rect width="663" height="311" style="fill: white;"></rect><g transform="translate(72,10)"><g class="mark-group role-frame root"><g transform="translate(0,0)"><path class="background" d="M0,0h0v0h0Z" style="fill: none;"></path><g><g class="mark-group role-row-header row_header"><g transform="translate(-1,0)"><path class="background" d="M0,0h0v70h0Z" style="fill: none;"></path><g><g class="mark-group role-title"><g transform="translate(-65.234375,35)"><path class="background" d="M0,0h0v0h0Z" style="pointer-events: none; fill: none;"></path><g><g class="mark-text role-title-text" style="pointer-events: none;"><text text-anchor="middle" transform="translate(0,0) rotate(-90) translate(0,11)" style="font-family: sans-serif; font-size: 14px; fill: #000; opacity: 1;">Confirmados</text></g></g><path class="foreground" d="" style="pointer-events: none; display: none; fill: none;"></path></g></g><g class="mark-group role-axis"><g transform="translate(0.5,0.5)"><path class="background" d="M0,0h0v0h0Z" style="pointer-events: none; fill: none;"></path><g><g class="mark-rule role-axis-tick" style="pointer-events: none;"><line transform="translate(0,17)" x2="-5" y2="0" style="fill: none; stroke: #888; stroke-width: 1; opacity: 1;"></line><line transform="translate(0,52)" x2="-5" y2="0" style="fill: none; stroke: #888; stroke-width: 1; opacity: 1;"></line></g><g class="mark-text role-axis-label" style="pointer-events: none;"><text text-anchor="end" transform="translate(-7,21)" style="font-family: sans-serif; font-size: 14px; fill: #000; opacity: 1;">mayo</text><text text-anchor="end" transform="translate(-7,56)" style="font-family: sans-serif; font-size: 14px; fill: #000; opacity: 1;">abril</text></g><g class="mark-rule role-axis-domain" style="pointer-events: none;"><line transform="translate(0,0)" x2="0" y2="70" style="fill: none; stroke: #888; stroke-width: 1; opacity: 1;"></line></g></g><path class="foreground" d="" style="pointer-events: none; display: none; fill: none;"></path></g></g></g><path class="foreground" d="" style="display: none; fill: none;"></path></g><g transform="translate(-1,92)"><path class="background" d="M0,0h0v70h0Z" style="fill: none;"></path><g><g class="mark-group role-title"><g transform="translate(-65.234375,35)"><path class="background" d="M0,0h0v0h0Z" style="pointer-events: none; fill: none;"></path><g><g class="mark-text role-title-text" style="pointer-events: none;"><text text-anchor="middle" transform="translate(0,0) rotate(-90) translate(0,11)" style="font-family: sans-serif; font-size: 14px; fill: #000; opacity: 1;">Probables</text></g></g><path class="foreground" d="" style="pointer-events: none; display: none; fill: none;"></path></g></g><g class="mark-group role-axis"><g transform="translate(0.5,0.5)"><path class="background" d="M0,0h0v0h0Z" style="pointer-events: none; fill: none;"></path><g><g class="mark-rule role-axis-tick" style="pointer-events: none;"><line transform="translate(0,17)" x2="-5" y2="0" style="fill: none; stroke: #888; stroke-width: 1; opacity: 1;"></line><line transform="translate(0,52)" x2="-5" y2="0" style="fill: none; stroke: #888; stroke-width: 1; opacity: 1;"></line></g><g class="mark-text role-axis-label" style="pointer-events: none;"><text text-anchor="end" transform="translate(-7,21)" style="font-family: sans-serif; font-size: 14px; fill: #000; opacity: 1;">mayo</text><text text-anchor="end" transform="translate(-7,56)" style="font-family: sans-serif; font-size: 14px; fill: #000; opacity: 1;">abril</text></g><g class="mark-rule role-axis-domain" style="pointer-events: none;"><line transform="translate(0,0)" x2="0" y2="70" style="fill: none; stroke: #888; stroke-width: 1; opacity: 1;"></line></g></g><path class="foreground" d="" style="pointer-events: none; display: none; fill: none;"></path></g></g></g><path class="foreground" d="" style="display: none; fill: none;"></path></g><g transform="translate(-1,184)"><path class="background" d="M0,0h0v70h0Z" style="fill: none;"></path><g><g class="mark-group role-title"><g transform="translate(-65.234375,35)"><path class="background" d="M0,0h0v0h0Z" style="pointer-events: none; fill: none;"></path><g><g class="mark-text role-title-text" style="pointer-events: none;"><text text-anchor="middle" transform="translate(0,0) rotate(-90) translate(0,11)" style="font-family: sans-serif; font-size: 14px; fill: #000; opacity: 1;">Muertes</text></g></g><path class="foreground" d="" style="pointer-events: none; display: none; fill: none;"></path></g></g><g class="mark-group role-axis"><g transform="translate(0.5,0.5)"><path class="background" d="M0,0h0v0h0Z" style="pointer-events: none; fill: none;"></path><g><g class="mark-rule role-axis-tick" style="pointer-events: none;"><line transform="translate(0,17)" x2="-5" y2="0" style="fill: none; stroke: #888; stroke-width: 1; opacity: 1;"></line><line transform="translate(0,52)" x2="-5" y2="0" style="fill: none; stroke: #888; stroke-width: 1; opacity: 1;"></line></g><g class="mark-text role-axis-label" style="pointer-events: none;"><text text-anchor="end" transform="translate(-7,21)" style="font-family: sans-serif; font-size: 14px; fill: #000; opacity: 1;">mayo</text><text text-anchor="end" transform="translate(-7,56)" style="font-family: sans-serif; font-size: 14px; fill: #000; opacity: 1;">abril</text></g><g class="mark-rule role-axis-domain" style="pointer-events: none;"><line transform="translate(0,0)" x2="0" y2="70" style="fill: none; stroke: #888; stroke-width: 1; opacity: 1;"></line></g></g><path class="foreground" d="" style="pointer-events: none; display: none; fill: none;"></path></g></g></g><path class="foreground" d="" style="display: none; fill: none;"></path></g></g><g class="mark-group role-column-footer column_footer"><g transform="translate(0,255)"><path class="background" d="M0,0h585v0h-585Z" style="fill: none;"></path><g><g class="mark-group role-axis"><g transform="translate(0.5,0.5)"><path class="background" d="M0,0h0v0h0Z" style="pointer-events: none; fill: none;"></path><g><g class="mark-rule role-axis-tick" style="pointer-events: none;"><line transform="translate(20,0)" x2="0" y2="5" style="fill: none; stroke: #888; stroke-width: 1; opacity: 1;"></line><line transform="translate(62,0)" x2="0" y2="5" style="fill: none; stroke: #888; stroke-width: 1; opacity: 1;"></line><line transform="translate(104,0)" x2="0" y2="5" style="fill: none; stroke: #888; stroke-width: 1; opacity: 1;"></line><line transform="translate(146,0)" x2="0" y2="5" style="fill: none; stroke: #888; stroke-width: 1; opacity: 1;"></line><line transform="translate(188,0)" x2="0" y2="5" style="fill: none; stroke: #888; stroke-width: 1; opacity: 1;"></line><line transform="translate(229,0)" x2="0" y2="5" style="fill: none; stroke: #888; stroke-width: 1; opacity: 1;"></line><line transform="translate(271,0)" x2="0" y2="5" style="fill: none; stroke: #888; stroke-width: 1; opacity: 1;"></line><line transform="translate(313,0)" x2="0" y2="5" style="fill: none; stroke: #888; stroke-width: 1; opacity: 1;"></line><line transform="translate(355,0)" x2="0" y2="5" style="fill: none; stroke: #888; stroke-width: 1; opacity: 1;"></line><line transform="translate(396,0)" x2="0" y2="5" style="fill: none; stroke: #888; stroke-width: 1; opacity: 1;"></line><line transform="translate(438,0)" x2="0" y2="5" style="fill: none; stroke: #888; stroke-width: 1; opacity: 1;"></line><line transform="translate(480,0)" x2="0" y2="5" style="fill: none; stroke: #888; stroke-width: 1; opacity: 1;"></line><line transform="translate(522,0)" x2="0" y2="5" style="fill: none; stroke: #888; stroke-width: 1; opacity: 1;"></line><line transform="translate(564,0)" x2="0" y2="5" style="fill: none; stroke: #888; stroke-width: 1; opacity: 1;"></line></g><g class="mark-text role-axis-label" style="pointer-events: none;"><text text-anchor="end" transform="translate(20.392857142857142,7) rotate(270) translate(0,4)" style="font-family: sans-serif; font-size: 14px; fill: #000; opacity: 1;">01</text><text text-anchor="end" transform="translate(62.17857142857143,7) rotate(270) translate(0,4)" style="font-family: sans-serif; font-size: 14px; fill: #000; opacity: 1;">02</text><text text-anchor="end" transform="translate(103.96428571428571,7) rotate(270) translate(0,4)" style="font-family: sans-serif; font-size: 14px; fill: #000; opacity: 1;">03</text><text text-anchor="end" transform="translate(145.75,7) rotate(270) translate(0,4)" style="font-family: sans-serif; font-size: 14px; fill: #000; opacity: 1;">04</text><text text-anchor="end" transform="translate(187.53571428571428,7) rotate(270) translate(0,4)" style="font-family: sans-serif; font-size: 14px; fill: #000; opacity: 1;">05</text><text text-anchor="end" transform="translate(229.32142857142856,7) rotate(270) translate(0,4)" style="font-family: sans-serif; font-size: 14px; fill: #000; opacity: 1;">06</text><text text-anchor="end" transform="translate(271.1071428571429,7) rotate(270) translate(0,4)" style="font-family: sans-serif; font-size: 14px; fill: #000; opacity: 1;">16</text><text text-anchor="end" transform="translate(312.89285714285717,7) rotate(270) translate(0,4)" style="font-family: sans-serif; font-size: 14px; fill: #000; opacity: 1;">17</text><text text-anchor="end" transform="translate(354.67857142857144,7) rotate(270) translate(0,4)" style="font-family: sans-serif; font-size: 14px; fill: #000; opacity: 1;">23</text><text text-anchor="end" transform="translate(396.4642857142857,7) rotate(270) translate(0,4)" style="font-family: sans-serif; font-size: 14px; fill: #000; opacity: 1;">24</text><text text-anchor="end" transform="translate(438.25,7) rotate(270) translate(0,4)" style="font-family: sans-serif; font-size: 14px; fill: #000; opacity: 1;">27</text><text text-anchor="end" transform="translate(480.0357142857143,7) rotate(270) translate(0,4)" style="font-family: sans-serif; font-size: 14px; fill: #000; opacity: 1;">28</text><text text-anchor="end" transform="translate(521.8214285714286,7) rotate(270) translate(0,4)" style="font-family: sans-serif; font-size: 14px; fill: #000; opacity: 1;">29</text><text text-anchor="end" transform="translate(563.6071428571428,7) rotate(270) translate(0,4)" style="font-family: sans-serif; font-size: 14px; fill: #000; opacity: 1;">30</text></g><g class="mark-rule role-axis-domain" style="pointer-events: none;"><line transform="translate(0,0)" x2="585" y2="0" style="fill: none; stroke: #888; stroke-width: 1; opacity: 1;"></line></g><g class="mark-text role-axis-title" style="pointer-events: none;"><text text-anchor="middle" transform="translate(292.5,37.572265625)" style="font-family: sans-serif; font-size: 14px; font-weight: bold; fill: #000; opacity: 1;">Día del mes</text></g></g><path class="foreground" d="" style="pointer-events: none; display: none; fill: none;"></path></g></g></g><path class="foreground" d="" style="display: none; fill: none;"></path></g></g><g class="mark-group role-scope cell"><g transform="translate(0,0)"><path class="background" d="M0.5,0.5h585v70h-585Z" style="fill: none; stroke: #ddd;"></path><g><g class="mark-rect role-mark child_layer_0_marks"><path d="M501.42857142857144,35h41.785714285714285v35h-41.785714285714285Z" style="fill: rgb(241, 237, 235);"></path><path d="M543.2142857142857,35h41.785714285714285v35h-41.785714285714285Z" style="fill: rgb(236, 234, 232);"></path><path d="M0,0h41.785714285714285v35h-41.785714285714285Z" style="fill: rgb(245, 241, 238);"></path><path d="M41.785714285714285,0h41.785714285714285v35h-41.785714285714285Z" style="fill: rgb(245, 241, 238);"></path><path d="M83.57142857142857,0h41.785714285714285v35h-41.785714285714285Z" style="fill: rgb(245, 241, 238);"></path><path d="M125.35714285714286,0h41.785714285714285v35h-41.785714285714285Z" style="fill: rgb(241, 237, 235);"></path><path d="M167.14285714285714,0h41.785714285714285v35h-41.785714285714285Z" style="fill: rgb(232, 230, 229);"></path></g><g class="mark-text role-mark child_layer_1_marks"><text text-anchor="middle" transform="translate(522.3214285714286,55.5)" style="font-family: sans-serif; font-size: 9px; fill: black;">2</text><text text-anchor="middle" transform="translate(564.1071428571428,55.5)" style="font-family: sans-serif; font-size: 9px; fill: black;">3</text><text text-anchor="middle" transform="translate(20.892857142857142,20.5)" style="font-family: sans-serif; font-size: 9px; fill: black;">1</text><text text-anchor="middle" transform="translate(62.67857142857143,20.5)" style="font-family: sans-serif; font-size: 9px; fill: black;">1</text><text text-anchor="middle" transform="translate(104.46428571428571,20.5)" style="font-family: sans-serif; font-size: 9px; fill: black;">1</text><text text-anchor="middle" transform="translate(146.25,20.5)" style="font-family: sans-serif; font-size: 9px; fill: black;">2</text><text text-anchor="middle" transform="translate(188.03571428571428,20.5)" style="font-family: sans-serif; font-size: 9px; fill: black;">4</text></g></g><path class="foreground" d="" style="display: none; fill: none;"></path></g><g transform="translate(0,92)"><path class="background" d="M0.5,0.5h585v70h-585Z" style="fill: none; stroke: #ddd;"></path><g><g class="mark-rect role-mark child_layer_0_marks"><path d="M250.71428571428572,35h41.785714285714285v35h-41.785714285714285Z" style="fill: rgb(140, 13, 37);"></path><path d="M292.5,35h41.785714285714285v35h-41.785714285714285Z" style="fill: rgb(234, 145, 120);"></path><path d="M334.2857142857143,35h41.785714285714285v35h-41.785714285714285Z" style="fill: rgb(245, 241, 238);"></path><path d="M376.07142857142856,35h41.785714285714285v35h-41.785714285714285Z" style="fill: rgb(234, 145, 120);"></path><path d="M417.85714285714283,35h41.785714285714285v35h-41.785714285714285Z" style="fill: rgb(234, 145, 120);"></path><path d="M459.6428571428571,35h41.785714285714285v35h-41.785714285714285Z" style="fill: rgb(234, 145, 120);"></path><path d="M543.2142857142857,35h41.785714285714285v35h-41.785714285714285Z" style="fill: rgb(245, 241, 238);"></path><path d="M83.57142857142857,0h41.785714285714285v35h-41.785714285714285Z" style="fill: rgb(241, 237, 235);"></path><path d="M125.35714285714286,0h41.785714285714285v35h-41.785714285714285Z" style="fill: rgb(187, 187, 187);"></path><path d="M167.14285714285714,0h41.785714285714285v35h-41.785714285714285Z" style="fill: rgb(52, 52, 52);"></path><path d="M208.92857142857142,0h41.785714285714285v35h-41.785714285714285Z" style="fill: rgb(201, 201, 201);"></path></g><g class="mark-text role-mark child_layer_1_marks"><text text-anchor="middle" transform="translate(271.6071428571429,55.5)" style="font-family: sans-serif; font-size: 9px; fill: white;">-2</text><text text-anchor="middle" transform="translate(313.39285714285717,55.5)" style="font-family: sans-serif; font-size: 9px; fill: white;">-1</text><text text-anchor="middle" transform="translate(355.17857142857144,55.5)" style="font-family: sans-serif; font-size: 9px; fill: black;">1</text><text text-anchor="middle" transform="translate(396.9642857142857,55.5)" style="font-family: sans-serif; font-size: 9px; fill: white;">-1</text><text text-anchor="middle" transform="translate(438.75,55.5)" style="font-family: sans-serif; font-size: 9px; fill: white;">-1</text><text text-anchor="middle" transform="translate(480.5357142857143,55.5)" style="font-family: sans-serif; font-size: 9px; fill: white;">-1</text><text text-anchor="middle" transform="translate(564.1071428571428,55.5)" style="font-family: sans-serif; font-size: 9px; fill: black;">1</text><text text-anchor="middle" transform="translate(104.46428571428571,20.5)" style="font-family: sans-serif; font-size: 9px; fill: black;">2</text><text text-anchor="middle" transform="translate(146.25,20.5)" style="font-family: sans-serif; font-size: 9px; fill: black;">11</text><text text-anchor="middle" transform="translate(188.03571428571428,20.5)" style="font-family: sans-serif; font-size: 9px; fill: white;">26</text><text text-anchor="middle" transform="translate(229.82142857142856,20.5)" style="font-family: sans-serif; font-size: 9px; fill: black;">9</text></g></g><path class="foreground" d="" style="display: none; fill: none;"></path></g><g transform="translate(0,184)"><path class="background" d="M0.5,0.5h585v70h-585Z" style="fill: none; stroke: #ddd;"></path><g><g class="mark-rect role-mark child_layer_0_marks"><path d="M125.35714285714286,0h41.785714285714285v35h-41.785714285714285Z" style="fill: rgb(245, 241, 238);"></path><path d="M167.14285714285714,0h41.785714285714285v35h-41.785714285714285Z" style="fill: rgb(245, 241, 238);"></path></g><g class="mark-text role-mark child_layer_1_marks"><text text-anchor="middle" transform="translate(146.25,20.5)" style="font-family: sans-serif; font-size: 9px; fill: black;">1</text><text text-anchor="middle" transform="translate(188.03571428571428,20.5)" style="font-family: sans-serif; font-size: 9px; fill: black;">1</text></g></g><path class="foreground" d="" style="display: none; fill: none;"></path></g></g></g><path class="foreground" d="" style="display: none; fill: none;"></path></g></g></g></svg>