<svg class="marks" width="645" height="322" viewBox="0 0 645 322" version="1.1" xmlns="http://www.w3.org/2000/svg" xmlns:xlink="http://www.w3.org/1999/xlink"><rect width="645" height="322" style="fill: white;"></rect><g transform="translate(47,33)"><g class="mark-group role-frame root"><g transform="translate(0,0)"><path class="background" d="M0,0h0v0h0Z" style="fill: none;"></path><g><g class="mark-group role-row-header row_header"><g transform="translate(-1,0)"><path class="background" d="M0,0h0v75h0Z" style="fill: none;"></path><g><g class="mark-group role-axis"><g transform="translate(0.5,0.5)"><path class="background" d="M0,0h0v0h0Z" style="pointer-events: none; fill: none;"></path><g><g class="mark-rule role-axis-tick" style="pointer-events: none;"><line transform="translate(0,75)" x2="-5" y2="0" style="fill: none; stroke: #888; stroke-width: 1; opacity: 1;"></line><line transform="translate(0,38)" x2="-5" y2="0" style="fill: none; stroke: #888; stroke-width: 1; opacity: 1;"></line><line transform="translate(0,0)" x2="-5" y2="0" style="fill: none; stroke: #888; stroke-width: 1; opacity: 1;"></line></g><g class="mark-text role-axis-label" style="pointer-events: none;"><text text-anchor="end" transform="translate(-7,79)" style="font-family: sans-serif; font-size: 14px; fill: #000; opacity: 1;">0</text><text text-anchor="end" transform="translate(-7,41.5)" style="font-family: sans-serif; font-size: 14px; fill: #000; opacity: 1;">5</text><text text-anchor="end" transform="translate(-7,4)" style="font-family: sans-serif; font-size: 14px; fill: #000; opacity: 1;">10</text></g><g class="mark-rule role-axis-domain" style="pointer-events: none;"><line transform="translate(0,75)" x2="0" y2="-75" style="fill: none; stroke: #888; stroke-width: 1; opacity: 1;"></line></g><g class="mark-text role-axis-title" style="pointer-events: none;"><text text-anchor="middle" transform="translate(-26.572265625,37.5) rotate(-90) translate(0,-3)" style="font-family: sans-serif; font-size: 14px; font-weight: bold; fill: #000; opacity: 1;">Rezago (días)</text></g></g><path class="foreground" d="" style="pointer-events: none; display: none; fill: none;"></path></g></g></g><path class="foreground" d="" style="display: none; fill: none;"></path></g><g transform="translate(-1,141)"><path class="background" d="M0,0h0v75h0Z" style="fill: none;"></path><g><g class="mark-group role-axis"><g transform="translate(0.5,0.5)"><path class="background" d="M0,0h0v0h0Z" style="pointer-events: none; fill: none;"></path><g><g class="mark-rule role-axis-tick" style="pointer-events: none;"><line transform="translate(0,75)" x2="-5" y2="0" style="fill: none; stroke: #888; stroke-width: 1; opacity: 1;"></line><line transform="translate(0,38)" x2="-5" y2="0" style="fill: none; stroke: #888; stroke-width: 1; opacity: 1;"></line><line transform="translate(0,0)" x2="-5" y2="0" style="fill: none; stroke: #888; stroke-width: 1; opacity: 1;"></line></g><g class="mark-text role-axis-label" style="pointer-events: none;"><text text-anchor="end" transform="translate(-7,79)" style="font-family: sans-serif; font-size: 14px; fill: #000; opacity: 1;">0</text><text text-anchor="end" transform="translate(-7,41.5)" style="font-family: sans-serif; font-size: 14px; fill: #000; opacity: 1;">5</text><text text-anchor="end" transform="translate(-7,4)" style="font-family: sans-serif; font-size: 14px; fill: #000; opacity: 1;">10</text></g><g class="mark-rule role-axis-domain" style="pointer-events: none;"><line transform="translate(0,75)" x2="0" y2="-75" style="fill: none; stroke: #888; stroke-width: 1; opacity: 1;"></line></g><g class="mark-text role-axis-title" style="pointer-events: none;"><text text-anchor="middle" transform="translate(-26.572265625,37.5) rotate(-90) translate(0,-3)" style="font-family: sans-serif; font-size: 14px; font-weight: bold; fill: #000; opacity: 1;">Rezago (días)</text></g></g><path class="foreground" d="" style="pointer-events: none; display: none; fill: none;"></path></g></g></g><path class="foreground" d="" style="display: none; fill: none;"></path></g></g><g class="mark-group role-column-footer column_footer"><g transform="translate(0,217)"><path class="background" d="M0,0h275v0h-275Z" style="fill: none;"></path><g><g class="mark-group role-axis"><g transform="translate(0.5,0.5)"><path class="background" d="M0,0h0v0h0Z" style="pointer-events: none; fill: none;"></path><g><g class="mark-rule role-axis-tick" style="pointer-events: none;"><line transform="translate(34,0)" x2="0" y2="5" style="fill: none; stroke: #888; stroke-width: 1; opacity: 1;"></line><line transform="translate(103,0)" x2="0" y2="5" style="fill: none; stroke: #888; stroke-width: 1; opacity: 1;"></line><line transform="translate(172,0)" x2="0" y2="5" style="fill: none; stroke: #888; stroke-width: 1; opacity: 1;"></line><line transform="translate(241,0)" x2="0" y2="5" style="fill: none; stroke: #888; stroke-width: 1; opacity: 1;"></line></g><g class="mark-text role-axis-label" style="pointer-events: none;"><text text-anchor="end" transform="translate(34.375,7) rotate(270) translate(0,4)" style="font-family: sans-serif; font-size: 14px; fill: #000; opacity: 1;">02/05</text><text text-anchor="end" transform="translate(103.125,7) rotate(270) translate(0,4)" style="font-family: sans-serif; font-size: 14px; fill: #000; opacity: 1;">03/05</text><text text-anchor="end" transform="translate(171.875,7) rotate(270) translate(0,4)" style="font-family: sans-serif; font-size: 14px; fill: #000; opacity: 1;">04/05</text><text text-anchor="end" transform="translate(240.625,7) rotate(270) translate(0,4)" style="font-family: sans-serif; font-size: 14px; fill: #000; opacity: 1;">05/05</text></g><g class="mark-rule role-axis-domain" style="pointer-events: none;"><line transform="translate(0,0)" x2="275" y2="0" style="fill: none; stroke: #888; stroke-width: 1; opacity: 1;"></line></g><g class="mark-text role-axis-title" style="pointer-events: none;"><text text-anchor="middle" transform="translate(137.5,63.0341796875)" style="font-family: sans-serif; font-size: 14px; font-weight: bold; fill: #000; opacity: 1;">Fecha boletín</text></g></g><path class="foreground" d="" style="pointer-events: none; display: none; fill: none;"></path></g></g></g><path class="foreground" d="" style="display: none; fill: none;"></path></g><g transform="translate(317,217)"><path class="background" d="M0,0h275v0h-275Z" style="fill: none;"></path><g><g class="mark-group role-axis"><g transform="translate(0.5,0.5)"><path class="background" d="M0,0h0v0h0Z" style="pointer-events: none; fill: none;"></path><g><g class="mark-rule role-axis-tick" style="pointer-events: none;"><line transform="translate(34,0)" x2="0" y2="5" style="fill: none; stroke: #888; stroke-width: 1; opacity: 1;"></line><line transform="translate(103,0)" x2="0" y2="5" style="fill: none; stroke: #888; stroke-width: 1; opacity: 1;"></line><line transform="translate(172,0)" x2="0" y2="5" style="fill: none; stroke: #888; stroke-width: 1; opacity: 1;"></line><line transform="translate(241,0)" x2="0" y2="5" style="fill: none; stroke: #888; stroke-width: 1; opacity: 1;"></line></g><g class="mark-text role-axis-label" style="pointer-events: none;"><text text-anchor="end" transform="translate(34.375,7) rotate(270) translate(0,4)" style="font-family: sans-serif; font-size: 14px; fill: #000; opacity: 1;">02/05</text><text text-anchor="end" transform="translate(103.125,7) rotate(270) translate(0,4)" style="font-family: sans-serif; font-size: 14px; fill: #000; opacity: 1;">03/05</text><text text-anchor="end" transform="translate(171.875,7) rotate(270) translate(0,4)" style="font-family: sans-serif; font-size: 14px; fill: #000; opacity: 1;">04/05</text><text text-anchor="end" transform="translate(240.625,7) rotate(270) translate(0,4)" style="font-family: sans-serif; font-size: 14px; fill: #000; opacity: 1;">05/05</text></g><g class="mark-rule role-axis-domain" style="pointer-events: none;"><line transform="translate(0,0)" x2="275" y2="0" style="fill: none; stroke: #888; stroke-width: 1; opacity: 1;"></line></g><g class="mark-text role-axis-title" style="pointer-events: none;"><text text-anchor="middle" transform="translate(137.5,63.0341796875)" style="font-family: sans-serif; font-size: 14px; font-weight: bold; fill: #000; opacity: 1;">Fecha boletín</text></g></g><path class="foreground" d="" style="pointer-events: none; display: none; fill: none;"></path></g></g></g><path class="foreground" d="" style="display: none; fill: none;"></path></g></g><g class="mark-group role-scope cell"><g transform="translate(0,0)"><path class="background" d="M0.5,0.5h275v75h-275Z" style="fill: none; stroke: #ddd;"></path><g><g class="mark-group role-axis"><g transform="translate(0.5,0.5)"><path class="background" d="M0,0h0v0h0Z" style="pointer-events: none; fill: none;"></path><g><g class="mark-rule role-axis-grid" style="pointer-events: none;"><line transform="translate(0,75)" x2="275" y2="0" style="fill: none; stroke: #ddd; stroke-width: 1; opacity: 1;"></line><line transform="translate(0,38)" x2="275" y2="0" style="fill: none; stroke: #ddd; stroke-width: 1; opacity: 1;"></line><line transform="translate(0,0)" x2="275" y2="0" style="fill: none; stroke: #ddd; stroke-width: 1; opacity: 1;"></line></g></g><path class="foreground" d="" style="pointer-events: none; display: none; fill: none;"></path></g></g><g class="mark-group role-scope child_layer_0_layer_0_pathgroup"><g transform="translate(0,0)"><path class="background" d="M0,0h275v75h-275Z" style="fill: none;"></path><g><g class="mark-line role-mark child_layer_0_layer_0_marks"><path d="M34.375,14.965675057208234L103.125,12.83590308370044L171.875,14.02671755725191L240.625,14.49532710280373" style="fill: none; stroke: #4c78a8; stroke-width: 3;"></path></g></g><path class="foreground" d="" style="display: none; fill: none;"></path></g></g><g class="mark-symbol role-mark child_layer_0_layer_1_marks"><path transform="translate(34.375,14.965675057208234)" d="M3.5355339059327378,0A3.5355339059327378,3.5355339059327378,0,1,1,-3.5355339059327378,0A3.5355339059327378,3.5355339059327378,0,1,1,3.5355339059327378,0" style="fill: #4c78a8; stroke-width: 2; opacity: 1;"></path><path transform="translate(103.125,12.83590308370044)" d="M3.5355339059327378,0A3.5355339059327378,3.5355339059327378,0,1,1,-3.5355339059327378,0A3.5355339059327378,3.5355339059327378,0,1,1,3.5355339059327378,0" style="fill: #4c78a8; stroke-width: 2; opacity: 1;"></path><path transform="translate(171.875,14.02671755725191)" d="M3.5355339059327378,0A3.5355339059327378,3.5355339059327378,0,1,1,-3.5355339059327378,0A3.5355339059327378,3.5355339059327378,0,1,1,3.5355339059327378,0" style="fill: #4c78a8; stroke-width: 2; opacity: 1;"></path><path transform="translate(240.625,14.49532710280373)" d="M3.5355339059327378,0A3.5355339059327378,3.5355339059327378,0,1,1,-3.5355339059327378,0A3.5355339059327378,3.5355339059327378,0,1,1,3.5355339059327378,0" style="fill: #4c78a8; stroke-width: 2; opacity: 1;"></path></g><g class="mark-text role-mark child_layer_1_marks"><text text-anchor="middle" transform="translate(34.375,37.96567505720823)" style="font-family: sans-serif; font-size: 15px; fill: #4c78a8;">8.0</text><text text-anchor="middle" transform="translate(103.125,35.835903083700444)" style="font-family: sans-serif; font-size: 15px; fill: #4c78a8;">8.3</text><text text-anchor="middle" transform="translate(171.875,37.026717557251914)" style="font-family: sans-serif; font-size: 15px; fill: #4c78a8;">8.1</text><text text-anchor="middle" transform="translate(240.625,37.49532710280373)" style="font-family: sans-serif; font-size: 15px; fill: #4c78a8;">8.1</text></g><g class="mark-group role-title"><g transform="translate(137.5,-24)"><path class="background" d="M0,0h0v0h0Z" style="pointer-events: none; fill: none;"></path><g><g class="mark-text role-title-text" style="pointer-events: none;"><text text-anchor="middle" transform="translate(0,11)" style="font-family: sans-serif; font-size: 14px; fill: #000; opacity: 1;">Confirmados y probables</text></g></g><path class="foreground" d="" style="pointer-events: none; display: none; fill: none;"></path></g></g></g><path class="foreground" d="" style="display: none; fill: none;"></path></g><g transform="translate(317,0)"><path class="background" d="M0.5,0.5h275v75h-275Z" style="fill: none; stroke: #ddd;"></path><g><g class="mark-group role-axis"><g transform="translate(0.5,0.5)"><path class="background" d="M0,0h0v0h0Z" style="pointer-events: none; fill: none;"></path><g><g class="mark-rule role-axis-grid" style="pointer-events: none;"><line transform="translate(0,75)" x2="275" y2="0" style="fill: none; stroke: #ddd; stroke-width: 1; opacity: 1;"></line><line transform="translate(0,38)" x2="275" y2="0" style="fill: none; stroke: #ddd; stroke-width: 1; opacity: 1;"></line><line transform="translate(0,0)" x2="275" y2="0" style="fill: none; stroke: #ddd; stroke-width: 1; opacity: 1;"></line></g></g><path class="foreground" d="" style="pointer-events: none; display: none; fill: none;"></path></g></g><g class="mark-group role-scope child_layer_0_layer_0_pathgroup"><g transform="translate(0,0)"><path class="background" d="M0,0h275v75h-275Z" style="fill: none;"></path><g><g class="mark-line role-mark child_layer_0_layer_0_marks"><path d="M34.375,6.1082474226804155L103.125,1.2735849056603687L171.875,1.1915887850467266L240.625,1.1029411764705843" style="fill: none; stroke: #f58518; stroke-width: 3;"></path></g></g><path class="foreground" d="" style="display: none; fill: none;"></path></g></g><g class="mark-symbol role-mark child_layer_0_layer_1_marks"><path transform="translate(34.375,6.1082474226804155)" d="M3.5355339059327378,0A3.5355339059327378,3.5355339059327378,0,1,1,-3.5355339059327378,0A3.5355339059327378,3.5355339059327378,0,1,1,3.5355339059327378,0" style="fill: #f58518; stroke-width: 2; opacity: 1;"></path><path transform="translate(103.125,1.2735849056603687)" d="M3.5355339059327378,0A3.5355339059327378,3.5355339059327378,0,1,1,-3.5355339059327378,0A3.5355339059327378,3.5355339059327378,0,1,1,3.5355339059327378,0" style="fill: #f58518; stroke-width: 2; opacity: 1;"></path><path transform="translate(171.875,1.1915887850467266)" d="M3.5355339059327378,0A3.5355339059327378,3.5355339059327378,0,1,1,-3.5355339059327378,0A3.5355339059327378,3.5355339059327378,0,1,1,3.5355339059327378,0" style="fill: #f58518; stroke-width: 2; opacity: 1;"></path><path transform="translate(240.625,1.1029411764705843)" d="M3.5355339059327378,0A3.5355339059327378,3.5355339059327378,0,1,1,-3.5355339059327378,0A3.5355339059327378,3.5355339059327378,0,1,1,3.5355339059327378,0" style="fill: #f58518; stroke-width: 2; opacity: 1;"></path></g><g class="mark-text role-mark child_layer_1_marks"><text text-anchor="middle" transform="translate(34.375,29.108247422680414)" style="font-family: sans-serif; font-size: 15px; fill: #f58518;">9.2</text><text text-anchor="middle" transform="translate(103.125,24.273584905660368)" style="font-family: sans-serif; font-size: 15px; fill: #f58518;">9.8</text><text text-anchor="middle" transform="translate(171.875,24.191588785046726)" style="font-family: sans-serif; font-size: 15px; fill: #f58518;">9.8</text><text text-anchor="middle" transform="translate(240.625,24.102941176470583)" style="font-family: sans-serif; font-size: 15px; fill: #f58518;">9.9</text></g><g class="mark-group role-title"><g transform="translate(137.5,-26.432592729462154)"><path class="background" d="M0,0h0v0h0Z" style="pointer-events: none; fill: none;"></path><g><g class="mark-text role-title-text" style="pointer-events: none;"><text text-anchor="middle" transform="translate(0,11)" style="font-family: sans-serif; font-size: 14px; fill: #000; opacity: 1;">Confirmados</text></g></g><path class="foreground" d="" style="pointer-events: none; display: none; fill: none;"></path></g></g></g><path class="foreground" d="" style="display: none; fill: none;"></path></g><g transform="translate(0,141)"><path class="background" d="M0.5,0.5h275v75h-275Z" style="fill: none; stroke: #ddd;"></path><g><g class="mark-group role-axis"><g transform="translate(0.5,0.5)"><path class="background" d="M0,0h0v0h0Z" style="pointer-events: none; fill: none;"></path><g><g class="mark-rule role-axis-grid" style="pointer-events: none;"><line transform="translate(0,75)" x2="275" y2="0" style="fill: none; stroke: #ddd; stroke-width: 1; opacity: 1;"></line><line transform="translate(0,38)" x2="275" y2="0" style="fill: none; stroke: #ddd; stroke-width: 1; opacity: 1;"></line><line transform="translate(0,0)" x2="275" y2="0" style="fill: none; stroke: #ddd; stroke-width: 1; opacity: 1;"></line></g></g><path class="foreground" d="" style="pointer-events: none; display: none; fill: none;"></path></g></g><g class="mark-group role-scope child_layer_0_layer_0_pathgroup"><g transform="translate(0,0)"><path class="background" d="M0,0h275v75h-275Z" style="fill: none;"></path><g><g class="mark-line role-mark child_layer_0_layer_0_marks"><path d="M34.375,17.669117647058822L103.125,16.530172413793103L171.875,17.46402877697842L240.625,17.322695035460995" style="fill: none; stroke: #e45756; stroke-width: 3;"></path></g></g><path class="foreground" d="" style="display: none; fill: none;"></path></g></g><g class="mark-symbol role-mark child_layer_0_layer_1_marks"><path transform="translate(34.375,17.669117647058822)" d="M3.5355339059327378,0A3.5355339059327378,3.5355339059327378,0,1,1,-3.5355339059327378,0A3.5355339059327378,3.5355339059327378,0,1,1,3.5355339059327378,0" style="fill: #e45756; stroke-width: 2; opacity: 1;"></path><path transform="translate(103.125,16.530172413793103)" d="M3.5355339059327378,0A3.5355339059327378,3.5355339059327378,0,1,1,-3.5355339059327378,0A3.5355339059327378,3.5355339059327378,0,1,1,3.5355339059327378,0" style="fill: #e45756; stroke-width: 2; opacity: 1;"></path><path transform="translate(171.875,17.46402877697842)" d="M3.5355339059327378,0A3.5355339059327378,3.5355339059327378,0,1,1,-3.5355339059327378,0A3.5355339059327378,3.5355339059327378,0,1,1,3.5355339059327378,0" style="fill: #e45756; stroke-width: 2; opacity: 1;"></path><path transform="translate(240.625,17.322695035460995)" d="M3.5355339059327378,0A3.5355339059327378,3.5355339059327378,0,1,1,-3.5355339059327378,0A3.5355339059327378,3.5355339059327378,0,1,1,3.5355339059327378,0" style="fill: #e45756; stroke-width: 2; opacity: 1;"></path></g><g class="mark-text role-mark child_layer_1_marks"><text text-anchor="middle" transform="translate(34.375,40.669117647058826)" style="font-family: sans-serif; font-size: 15px; fill: #e45756;">7.6</text><text text-anchor="middle" transform="translate(103.125,39.5301724137931)" style="font-family: sans-serif; font-size: 15px; fill: #e45756;">7.8</text><text text-anchor="middle" transform="translate(171.875,40.464028776978424)" style="font-family: sans-serif; font-size: 15px; fill: #e45756;">7.7</text><text text-anchor="middle" transform="translate(240.625,40.322695035460995)" style="font-family: sans-serif; font-size: 15px; fill: #e45756;">7.7</text></g><g class="mark-group role-title"><g transform="translate(137.5,-24)"><path class="background" d="M0,0h0v0h0Z" style="pointer-events: none; fill: none;"></path><g><g class="mark-text role-title-text" style="pointer-events: none;"><text text-anchor="middle" transform="translate(0,11)" style="font-family: sans-serif; font-size: 14px; fill: #000; opacity: 1;">Probables</text></g></g><path class="foreground" d="" style="pointer-events: none; display: none; fill: none;"></path></g></g></g><path class="foreground" d="" style="display: none; fill: none;"></path></g><g transform="translate(317,141)"><path class="background" d="M0.5,0.5h275v75h-275Z" style="fill: none; stroke: #ddd;"></path><g><g class="mark-group role-axis"><g transform="translate(0.5,0.5)"><path class="background" d="M0,0h0v0h0Z" style="pointer-events: none; fill: none;"></path><g><g class="mark-rule role-axis-grid" style="pointer-events: none;"><line transform="translate(0,75)" x2="275" y2="0" style="fill: none; stroke: #ddd; stroke-width: 1; opacity: 1;"></line><line transform="translate(0,38)" x2="275" y2="0" style="fill: none; stroke: #ddd; stroke-width: 1; opacity: 1;"></line><line transform="translate(0,0)" x2="275" y2="0" style="fill: none; stroke: #ddd; stroke-width: 1; opacity: 1;"></line></g></g><path class="foreground" d="" style="pointer-events: none; display: none; fill: none;"></path></g></g><g class="mark-group role-scope child_layer_0_layer_0_pathgroup"><g transform="translate(0,0)"><path class="background" d="M0,0h275v75h-275Z" style="fill: none;"></path><g><g class="mark-line role-mark child_layer_0_layer_0_marks"><path d="M34.375,20.892857142857142L103.125,20.892857142857142L171.875,31.15384615384616L240.625,31.15384615384616" style="fill: none; stroke: #72b7b2; stroke-width: 3;"></path></g></g><path class="foreground" d="" style="display: none; fill: none;"></path></g></g><g class="mark-symbol role-mark child_layer_0_layer_1_marks"><path transform="translate(34.375,20.892857142857142)" d="M3.5355339059327378,0A3.5355339059327378,3.5355339059327378,0,1,1,-3.5355339059327378,0A3.5355339059327378,3.5355339059327378,0,1,1,3.5355339059327378,0" style="fill: #72b7b2; stroke-width: 2; opacity: 1;"></path><path transform="translate(103.125,20.892857142857142)" d="M3.5355339059327378,0A3.5355339059327378,3.5355339059327378,0,1,1,-3.5355339059327378,0A3.5355339059327378,3.5355339059327378,0,1,1,3.5355339059327378,0" style="fill: #72b7b2; stroke-width: 2; opacity: 1;"></path><path transform="translate(171.875,31.15384615384616)" d="M3.5355339059327378,0A3.5355339059327378,3.5355339059327378,0,1,1,-3.5355339059327378,0A3.5355339059327378,3.5355339059327378,0,1,1,3.5355339059327378,0" style="fill: #72b7b2; stroke-width: 2; opacity: 1;"></path><path transform="translate(240.625,31.15384615384616)" d="M3.5355339059327378,0A3.5355339059327378,3.5355339059327378,0,1,1,-3.5355339059327378,0A3.5355339059327378,3.5355339059327378,0,1,1,3.5355339059327378,0" style="fill: #72b7b2; stroke-width: 2; opacity: 1;"></path></g><g class="mark-text role-mark child_layer_1_marks"><text text-anchor="middle" transform="translate(34.375,43.89285714285714)" style="font-family: sans-serif; font-size: 15px; fill: #72b7b2;">7.2</text><text text-anchor="middle" transform="translate(103.125,43.89285714285714)" style="font-family: sans-serif; font-size: 15px; fill: #72b7b2;">7.2</text><text text-anchor="middle" transform="translate(171.875,54.15384615384616)" style="font-family: sans-serif; font-size: 15px; fill: #72b7b2;">5.8</text><text text-anchor="middle" transform="translate(240.625,54.15384615384616)" style="font-family: sans-serif; font-size: 15px; fill: #72b7b2;">5.8</text></g><g class="mark-group role-title"><g transform="translate(137.5,-24)"><path class="background" d="M0,0h0v0h0Z" style="pointer-events: none; fill: none;"></path><g><g class="mark-text role-title-text" style="pointer-events: none;"><text text-anchor="middle" transform="translate(0,11)" style="font-family: sans-serif; font-size: 14px; fill: #000; opacity: 1;">Muertes</text></g></g><path class="foreground" d="" style="pointer-events: none; display: none; fill: none;"></path></g></g></g><path class="foreground" d="" style="display: none; fill: none;"></path></g></g></g><path class="foreground" d="" style="display: none; fill: none;"></path></g></g></g></svg>