<svg class="marks" width="656" height="589" viewBox="0 0 656 589" version="1.1" xmlns="http://www.w3.org/2000/svg" xmlns:xlink="http://www.w3.org/1999/xlink"><rect width="656" height="589" style="fill: white;"></rect><g transform="translate(6,54)"><g class="mark-group role-frame root"><g transform="translate(0,0)"><path class="background" d="M0,0h0v0h0Z" style="fill: none;"></path><g><g class="mark-group role-column-title facet-title"><g transform="translate(322,-25)"><path class="background" d="M0,0h0v0h0Z" style="fill: none;"></path><g><g class="mark-group role-title"><g transform="translate(0,-24)"><path class="background" d="M0,0h0v0h0Z" style="pointer-events: none; fill: none;"></path><g><g class="mark-text role-title-text" style="pointer-events: none;"><text text-anchor="middle" transform="translate(0,11)" style="font-family: sans-serif; font-size: 14px; font-weight: bold; fill: #000; opacity: 1;">Fecha del boletín</text></g></g><path class="foreground" d="" style="pointer-events: none; display: none; fill: none;"></path></g></g></g><path class="foreground" d="" style="display: none; fill: none;"></path></g></g><g class="mark-group role-column-footer column_footer"><g transform="translate(0,459)"><path class="background" d="M0,0h300v0h-300Z" style="fill: none;"></path><g><g class="mark-group role-axis"><g transform="translate(0.5,0.5)"><path class="background" d="M0,0h0v0h0Z" style="pointer-events: none; fill: none;"></path><g><g class="mark-rule role-axis-tick" style="pointer-events: none;"><line transform="translate(0,0)" x2="0" y2="5" style="fill: none; stroke: #888; stroke-width: 1; opacity: 1;"></line><line transform="translate(38,0)" x2="0" y2="5" style="fill: none; stroke: #888; stroke-width: 1; opacity: 1;"></line><line transform="translate(75,0)" x2="0" y2="5" style="fill: none; stroke: #888; stroke-width: 1; opacity: 1;"></line><line transform="translate(113,0)" x2="0" y2="5" style="fill: none; stroke: #888; stroke-width: 1; opacity: 1;"></line><line transform="translate(150,0)" x2="0" y2="5" style="fill: none; stroke: #888; stroke-width: 1; opacity: 1;"></line><line transform="translate(188,0)" x2="0" y2="5" style="fill: none; stroke: #888; stroke-width: 1; opacity: 1;"></line><line transform="translate(225,0)" x2="0" y2="5" style="fill: none; stroke: #888; stroke-width: 1; opacity: 1;"></line><line transform="translate(263,0)" x2="0" y2="5" style="fill: none; stroke: #888; stroke-width: 1; opacity: 1;"></line><line transform="translate(300,0)" x2="0" y2="5" style="fill: none; stroke: #888; stroke-width: 1; opacity: 1;"></line></g><g class="mark-text role-axis-label" style="pointer-events: none;"><text text-anchor="start" transform="translate(0,18)" style="font-family: sans-serif; font-size: 14px; fill: #000; opacity: 1;">0</text><text text-anchor="middle" transform="translate(37.5,18)" style="font-family: sans-serif; font-size: 14px; fill: #000; opacity: 1;">2</text><text text-anchor="middle" transform="translate(75,18)" style="font-family: sans-serif; font-size: 14px; fill: #000; opacity: 1;">4</text><text text-anchor="middle" transform="translate(112.5,18)" style="font-family: sans-serif; font-size: 14px; fill: #000; opacity: 1;">6</text><text text-anchor="middle" transform="translate(150,18)" style="font-family: sans-serif; font-size: 14px; fill: #000; opacity: 1;">8</text><text text-anchor="middle" transform="translate(187.5,18)" style="font-family: sans-serif; font-size: 14px; fill: #000; opacity: 1;">10</text><text text-anchor="middle" transform="translate(225,18)" style="font-family: sans-serif; font-size: 14px; fill: #000; opacity: 1;">12</text><text text-anchor="middle" transform="translate(262.5,18)" style="font-family: sans-serif; font-size: 14px; fill: #000; opacity: 1;">14</text><text text-anchor="end" transform="translate(300,18)" style="font-family: sans-serif; font-size: 14px; fill: #000; opacity: 1;">16</text></g><g class="mark-rule role-axis-domain" style="pointer-events: none;"><line transform="translate(0,0)" x2="300" y2="0" style="fill: none; stroke: #888; stroke-width: 1; opacity: 1;"></line></g><g class="mark-text role-axis-title" style="pointer-events: none;"><text text-anchor="middle" transform="translate(150,36)" style="font-family: sans-serif; font-size: 14px; font-weight: bold; fill: #000; opacity: 1;">Rezago estimado (días)</text></g></g><path class="foreground" d="" style="pointer-events: none; display: none; fill: none;"></path></g></g></g><path class="foreground" d="" style="display: none; fill: none;"></path></g><g transform="translate(344,459)"><path class="background" d="M0,0h300v0h-300Z" style="fill: none;"></path><g><g class="mark-group role-axis"><g transform="translate(0.5,0.5)"><path class="background" d="M0,0h0v0h0Z" style="pointer-events: none; fill: none;"></path><g><g class="mark-rule role-axis-tick" style="pointer-events: none;"><line transform="translate(0,0)" x2="0" y2="5" style="fill: none; stroke: #888; stroke-width: 1; opacity: 1;"></line><line transform="translate(38,0)" x2="0" y2="5" style="fill: none; stroke: #888; stroke-width: 1; opacity: 1;"></line><line transform="translate(75,0)" x2="0" y2="5" style="fill: none; stroke: #888; stroke-width: 1; opacity: 1;"></line><line transform="translate(113,0)" x2="0" y2="5" style="fill: none; stroke: #888; stroke-width: 1; opacity: 1;"></line><line transform="translate(150,0)" x2="0" y2="5" style="fill: none; stroke: #888; stroke-width: 1; opacity: 1;"></line><line transform="translate(188,0)" x2="0" y2="5" style="fill: none; stroke: #888; stroke-width: 1; opacity: 1;"></line><line transform="translate(225,0)" x2="0" y2="5" style="fill: none; stroke: #888; stroke-width: 1; opacity: 1;"></line><line transform="translate(263,0)" x2="0" y2="5" style="fill: none; stroke: #888; stroke-width: 1; opacity: 1;"></line><line transform="translate(300,0)" x2="0" y2="5" style="fill: none; stroke: #888; stroke-width: 1; opacity: 1;"></line></g><g class="mark-text role-axis-label" style="pointer-events: none;"><text text-anchor="start" transform="translate(0,18)" style="font-family: sans-serif; font-size: 14px; fill: #000; opacity: 1;">0</text><text text-anchor="middle" transform="translate(37.5,18)" style="font-family: sans-serif; font-size: 14px; fill: #000; opacity: 1;">2</text><text text-anchor="middle" transform="translate(75,18)" style="font-family: sans-serif; font-size: 14px; fill: #000; opacity: 1;">4</text><text text-anchor="middle" transform="translate(112.5,18)" style="font-family: sans-serif; font-size: 14px; fill: #000; opacity: 1;">6</text><text text-anchor="middle" transform="translate(150,18)" style="font-family: sans-serif; font-size: 14px; fill: #000; opacity: 1;">8</text><text text-anchor="middle" transform="translate(187.5,18)" style="font-family: sans-serif; font-size: 14px; fill: #000; opacity: 1;">10</text><text text-anchor="middle" transform="translate(225,18)" style="font-family: sans-serif; font-size: 14px; fill: #000; opacity: 1;">12</text><text text-anchor="middle" transform="translate(262.5,18)" style="font-family: sans-serif; font-size: 14px; fill: #000; opacity: 1;">14</text><text text-anchor="end" transform="translate(300,18)" style="font-family: sans-serif; font-size: 14px; fill: #000; opacity: 1;">16</text></g><g class="mark-rule role-axis-domain" style="pointer-events: none;"><line transform="translate(0,0)" x2="300" y2="0" style="fill: none; stroke: #888; stroke-width: 1; opacity: 1;"></line></g><g class="mark-text role-axis-title" style="pointer-events: none;"><text text-anchor="middle" transform="translate(150,36)" style="font-family: sans-serif; font-size: 14px; font-weight: bold; fill: #000; opacity: 1;">Rezago estimado (días)</text></g></g><path class="foreground" d="" style="pointer-events: none; display: none; fill: none;"></path></g></g></g><path class="foreground" d="" style="display: none; fill: none;"></path></g></g><g class="mark-group role-scope cell"><g transform="translate(0,0)"><path class="background" d="M0.5,0.5h300v80h-300Z" style="fill: none; stroke: #ddd;"></path><g><g class="mark-group role-axis"><g transform="translate(0.5,80.5)"><path class="background" d="M0,0h0v0h0Z" style="pointer-events: none; fill: none;"></path><g><g class="mark-rule role-axis-grid" style="pointer-events: none;"><line transform="translate(0,0)" x2="0" y2="-80" style="fill: none; stroke: #ddd; stroke-width: 1; opacity: 1;"></line><line transform="translate(38,0)" x2="0" y2="-80" style="fill: none; stroke: #ddd; stroke-width: 1; opacity: 1;"></line><line transform="translate(75,0)" x2="0" y2="-80" style="fill: none; stroke: #ddd; stroke-width: 1; opacity: 1;"></line><line transform="translate(113,0)" x2="0" y2="-80" style="fill: none; stroke: #ddd; stroke-width: 1; opacity: 1;"></line><line transform="translate(150,0)" x2="0" y2="-80" style="fill: none; stroke: #ddd; stroke-width: 1; opacity: 1;"></line><line transform="translate(188,0)" x2="0" y2="-80" style="fill: none; stroke: #ddd; stroke-width: 1; opacity: 1;"></line><line transform="translate(225,0)" x2="0" y2="-80" style="fill: none; stroke: #ddd; stroke-width: 1; opacity: 1;"></line><line transform="translate(263,0)" x2="0" y2="-80" style="fill: none; stroke: #ddd; stroke-width: 1; opacity: 1;"></line><line transform="translate(300,0)" x2="0" y2="-80" style="fill: none; stroke: #ddd; stroke-width: 1; opacity: 1;"></line></g></g><path class="foreground" d="" style="pointer-events: none; display: none; fill: none;"></path></g></g><g class="mark-rect role-mark child_layer_0_marks"><path d="M0,1h109.94318181818181v18h-109.94318181818181Z" style="fill: #4c78a8;"></path><path d="M0,21h187.5v18h-187.5Z" style="fill: #f58518;"></path><path d="M0,41h108.13953488372093v18h-108.13953488372093Z" style="fill: #e45756;"></path></g><g class="mark-text role-mark child_layer_1_marks"><text text-anchor="end" transform="translate(104.94318181818181,14)" style="font-family: sans-serif; font-size: 12px; fill: white;">5.9</text><text text-anchor="end" transform="translate(182.5,34)" style="font-family: sans-serif; font-size: 12px; fill: white;">10.0</text><text text-anchor="end" transform="translate(103.13953488372093,54)" style="font-family: sans-serif; font-size: 12px; fill: white;">5.8</text></g><g class="mark-group role-title"><g transform="translate(150,-24)"><path class="background" d="M0,0h0v0h0Z" style="pointer-events: none; fill: none;"></path><g><g class="mark-text role-title-text" style="pointer-events: none;"><text text-anchor="middle" transform="translate(0,11)" style="font-family: sans-serif; font-size: 14px; fill: #000; opacity: 1;">may 05, 2020</text></g></g><path class="foreground" d="" style="pointer-events: none; display: none; fill: none;"></path></g></g></g><path class="foreground" d="" style="display: none; fill: none;"></path></g><g transform="translate(344,0)"><path class="background" d="M0.5,0.5h300v80h-300Z" style="fill: none; stroke: #ddd;"></path><g><g class="mark-group role-axis"><g transform="translate(0.5,80.5)"><path class="background" d="M0,0h0v0h0Z" style="pointer-events: none; fill: none;"></path><g><g class="mark-rule role-axis-grid" style="pointer-events: none;"><line transform="translate(0,0)" x2="0" y2="-80" style="fill: none; stroke: #ddd; stroke-width: 1; opacity: 1;"></line><line transform="translate(38,0)" x2="0" y2="-80" style="fill: none; stroke: #ddd; stroke-width: 1; opacity: 1;"></line><line transform="translate(75,0)" x2="0" y2="-80" style="fill: none; stroke: #ddd; stroke-width: 1; opacity: 1;"></line><line transform="translate(113,0)" x2="0" y2="-80" style="fill: none; stroke: #ddd; stroke-width: 1; opacity: 1;"></line><line transform="translate(150,0)" x2="0" y2="-80" style="fill: none; stroke: #ddd; stroke-width: 1; opacity: 1;"></line><line transform="translate(188,0)" x2="0" y2="-80" style="fill: none; stroke: #ddd; stroke-width: 1; opacity: 1;"></line><line transform="translate(225,0)" x2="0" y2="-80" style="fill: none; stroke: #ddd; stroke-width: 1; opacity: 1;"></line><line transform="translate(263,0)" x2="0" y2="-80" style="fill: none; stroke: #ddd; stroke-width: 1; opacity: 1;"></line><line transform="translate(300,0)" x2="0" y2="-80" style="fill: none; stroke: #ddd; stroke-width: 1; opacity: 1;"></line></g></g><path class="foreground" d="" style="pointer-events: none; display: none; fill: none;"></path></g></g><g class="mark-rect role-mark child_layer_0_marks"><path d="M0,1h126.85185185185185v18h-126.85185185185185Z" style="fill: #4c78a8;"></path><path d="M0,21h154.6875v18h-154.6875Z" style="fill: #f58518;"></path><path d="M0,41h125.40584415584415v18h-125.40584415584415Z" style="fill: #e45756;"></path><path d="M0,61h9.375v18h-9.375Z" style="fill: #72b7b2;"></path></g><g class="mark-text role-mark child_layer_1_marks"><text text-anchor="end" transform="translate(121.85185185185185,14)" style="font-family: sans-serif; font-size: 12px; fill: white;">6.8</text><text text-anchor="end" transform="translate(149.6875,34)" style="font-family: sans-serif; font-size: 12px; fill: white;">8.3</text><text text-anchor="end" transform="translate(120.40584415584415,54)" style="font-family: sans-serif; font-size: 12px; fill: white;">6.7</text><text text-anchor="end" transform="translate(4.375,74)" style="font-family: sans-serif; font-size: 12px; fill: white;">0.5</text></g><g class="mark-group role-title"><g transform="translate(150,-24)"><path class="background" d="M0,0h0v0h0Z" style="pointer-events: none; fill: none;"></path><g><g class="mark-text role-title-text" style="pointer-events: none;"><text text-anchor="middle" transform="translate(0,11)" style="font-family: sans-serif; font-size: 14px; fill: #000; opacity: 1;">may 04, 2020</text></g></g><path class="foreground" d="" style="pointer-events: none; display: none; fill: none;"></path></g></g></g><path class="foreground" d="" style="display: none; fill: none;"></path></g><g transform="translate(0,126)"><path class="background" d="M0.5,0.5h300v80h-300Z" style="fill: none; stroke: #ddd;"></path><g><g class="mark-group role-axis"><g transform="translate(0.5,80.5)"><path class="background" d="M0,0h0v0h0Z" style="pointer-events: none; fill: none;"></path><g><g class="mark-rule role-axis-grid" style="pointer-events: none;"><line transform="translate(0,0)" x2="0" y2="-80" style="fill: none; stroke: #ddd; stroke-width: 1; opacity: 1;"></line><line transform="translate(38,0)" x2="0" y2="-80" style="fill: none; stroke: #ddd; stroke-width: 1; opacity: 1;"></line><line transform="translate(75,0)" x2="0" y2="-80" style="fill: none; stroke: #ddd; stroke-width: 1; opacity: 1;"></line><line transform="translate(113,0)" x2="0" y2="-80" style="fill: none; stroke: #ddd; stroke-width: 1; opacity: 1;"></line><line transform="translate(150,0)" x2="0" y2="-80" style="fill: none; stroke: #ddd; stroke-width: 1; opacity: 1;"></line><line transform="translate(188,0)" x2="0" y2="-80" style="fill: none; stroke: #ddd; stroke-width: 1; opacity: 1;"></line><line transform="translate(225,0)" x2="0" y2="-80" style="fill: none; stroke: #ddd; stroke-width: 1; opacity: 1;"></line><line transform="translate(263,0)" x2="0" y2="-80" style="fill: none; stroke: #ddd; stroke-width: 1; opacity: 1;"></line><line transform="translate(300,0)" x2="0" y2="-80" style="fill: none; stroke: #ddd; stroke-width: 1; opacity: 1;"></line></g></g><path class="foreground" d="" style="pointer-events: none; display: none; fill: none;"></path></g></g><g class="mark-rect role-mark child_layer_0_marks"><path d="M0,1h211.60714285714286v18h-211.60714285714286Z" style="fill: #4c78a8;"></path><path d="M0,21h287.0192307692308v18h-287.0192307692308Z" style="fill: #f58518;"></path><path d="M0,41h167.04545454545453v18h-167.04545454545453Z" style="fill: #e45756;"></path></g><g class="mark-text role-mark child_layer_1_marks"><text text-anchor="end" transform="translate(206.60714285714286,14)" style="font-family: sans-serif; font-size: 12px; fill: white;">11.3</text><text text-anchor="end" transform="translate(282.0192307692308,34)" style="font-family: sans-serif; font-size: 12px; fill: white;">15.3</text><text text-anchor="end" transform="translate(162.04545454545453,54)" style="font-family: sans-serif; font-size: 12px; fill: white;">8.9</text></g><g class="mark-group role-title"><g transform="translate(150,-24)"><path class="background" d="M0,0h0v0h0Z" style="pointer-events: none; fill: none;"></path><g><g class="mark-text role-title-text" style="pointer-events: none;"><text text-anchor="middle" transform="translate(0,11)" style="font-family: sans-serif; font-size: 14px; fill: #000; opacity: 1;">may 03, 2020</text></g></g><path class="foreground" d="" style="pointer-events: none; display: none; fill: none;"></path></g></g></g><path class="foreground" d="" style="display: none; fill: none;"></path></g><g transform="translate(344,126)"><path class="background" d="M0.5,0.5h300v80h-300Z" style="fill: none; stroke: #ddd;"></path><g><g class="mark-group role-axis"><g transform="translate(0.5,80.5)"><path class="background" d="M0,0h0v0h0Z" style="pointer-events: none; fill: none;"></path><g><g class="mark-rule role-axis-grid" style="pointer-events: none;"><line transform="translate(0,0)" x2="0" y2="-80" style="fill: none; stroke: #ddd; stroke-width: 1; opacity: 1;"></line><line transform="translate(38,0)" x2="0" y2="-80" style="fill: none; stroke: #ddd; stroke-width: 1; opacity: 1;"></line><line transform="translate(75,0)" x2="0" y2="-80" style="fill: none; stroke: #ddd; stroke-width: 1; opacity: 1;"></line><line transform="translate(113,0)" x2="0" y2="-80" style="fill: none; stroke: #ddd; stroke-width: 1; opacity: 1;"></line><line transform="translate(150,0)" x2="0" y2="-80" style="fill: none; stroke: #ddd; stroke-width: 1; opacity: 1;"></line><line transform="translate(188,0)" x2="0" y2="-80" style="fill: none; stroke: #ddd; stroke-width: 1; opacity: 1;"></line><line transform="translate(225,0)" x2="0" y2="-80" style="fill: none; stroke: #ddd; stroke-width: 1; opacity: 1;"></line><line transform="translate(263,0)" x2="0" y2="-80" style="fill: none; stroke: #ddd; stroke-width: 1; opacity: 1;"></line><line transform="translate(300,0)" x2="0" y2="-80" style="fill: none; stroke: #ddd; stroke-width: 1; opacity: 1;"></line></g></g><path class="foreground" d="" style="pointer-events: none; display: none; fill: none;"></path></g></g><g class="mark-rect role-mark child_layer_0_marks"><path d="M0,1h132.35294117647058v18h-132.35294117647058Z" style="fill: #4c78a8;"></path><path d="M0,21h128.75v18h-128.75Z" style="fill: #f58518;"></path><path d="M0,41h133.85416666666669v18h-133.85416666666669Z" style="fill: #e45756;"></path><path d="M0,61h121.875v18h-121.875Z" style="fill: #72b7b2;"></path></g><g class="mark-text role-mark child_layer_1_marks"><text text-anchor="end" transform="translate(127.35294117647058,14)" style="font-family: sans-serif; font-size: 12px; fill: white;">7.1</text><text text-anchor="end" transform="translate(123.75,34)" style="font-family: sans-serif; font-size: 12px; fill: white;">6.9</text><text text-anchor="end" transform="translate(128.85416666666669,54)" style="font-family: sans-serif; font-size: 12px; fill: white;">7.1</text><text text-anchor="end" transform="translate(116.875,74)" style="font-family: sans-serif; font-size: 12px; fill: white;">6.5</text></g><g class="mark-group role-title"><g transform="translate(150,-24)"><path class="background" d="M0,0h0v0h0Z" style="pointer-events: none; fill: none;"></path><g><g class="mark-text role-title-text" style="pointer-events: none;"><text text-anchor="middle" transform="translate(0,11)" style="font-family: sans-serif; font-size: 14px; fill: #000; opacity: 1;">may 02, 2020</text></g></g><path class="foreground" d="" style="pointer-events: none; display: none; fill: none;"></path></g></g></g><path class="foreground" d="" style="display: none; fill: none;"></path></g><g transform="translate(0,252)"><path class="background" d="M0.5,0.5h300v80h-300Z" style="fill: none; stroke: #ddd;"></path><g><g class="mark-group role-axis"><g transform="translate(0.5,80.5)"><path class="background" d="M0,0h0v0h0Z" style="pointer-events: none; fill: none;"></path><g><g class="mark-rule role-axis-grid" style="pointer-events: none;"><line transform="translate(0,0)" x2="0" y2="-80" style="fill: none; stroke: #ddd; stroke-width: 1; opacity: 1;"></line><line transform="translate(38,0)" x2="0" y2="-80" style="fill: none; stroke: #ddd; stroke-width: 1; opacity: 1;"></line><line transform="translate(75,0)" x2="0" y2="-80" style="fill: none; stroke: #ddd; stroke-width: 1; opacity: 1;"></line><line transform="translate(113,0)" x2="0" y2="-80" style="fill: none; stroke: #ddd; stroke-width: 1; opacity: 1;"></line><line transform="translate(150,0)" x2="0" y2="-80" style="fill: none; stroke: #ddd; stroke-width: 1; opacity: 1;"></line><line transform="translate(188,0)" x2="0" y2="-80" style="fill: none; stroke: #ddd; stroke-width: 1; opacity: 1;"></line><line transform="translate(225,0)" x2="0" y2="-80" style="fill: none; stroke: #ddd; stroke-width: 1; opacity: 1;"></line><line transform="translate(263,0)" x2="0" y2="-80" style="fill: none; stroke: #ddd; stroke-width: 1; opacity: 1;"></line><line transform="translate(300,0)" x2="0" y2="-80" style="fill: none; stroke: #ddd; stroke-width: 1; opacity: 1;"></line></g></g><path class="foreground" d="" style="pointer-events: none; display: none; fill: none;"></path></g></g><g class="mark-rect role-mark child_layer_0_marks"><path d="M0,1h177.70833333333334v18h-177.70833333333334Z" style="fill: #4c78a8;"></path><path d="M0,21h135.41666666666666v18h-135.41666666666666Z" style="fill: #f58518;"></path><path d="M0,41h182.29768786127167v18h-182.29768786127167Z" style="fill: #e45756;"></path><path d="M0,61h168.75v18h-168.75Z" style="fill: #72b7b2;"></path></g><g class="mark-text role-mark child_layer_1_marks"><text text-anchor="end" transform="translate(172.70833333333334,14)" style="font-family: sans-serif; font-size: 12px; fill: white;">9.5</text><text text-anchor="end" transform="translate(130.41666666666666,34)" style="font-family: sans-serif; font-size: 12px; fill: white;">7.2</text><text text-anchor="end" transform="translate(177.29768786127167,54)" style="font-family: sans-serif; font-size: 12px; fill: white;">9.7</text><text text-anchor="end" transform="translate(163.75,74)" style="font-family: sans-serif; font-size: 12px; fill: white;">9.0</text></g><g class="mark-group role-title"><g transform="translate(150,-24)"><path class="background" d="M0,0h0v0h0Z" style="pointer-events: none; fill: none;"></path><g><g class="mark-text role-title-text" style="pointer-events: none;"><text text-anchor="middle" transform="translate(0,11)" style="font-family: sans-serif; font-size: 14px; fill: #000; opacity: 1;">may 01, 2020</text></g></g><path class="foreground" d="" style="pointer-events: none; display: none; fill: none;"></path></g></g></g><path class="foreground" d="" style="display: none; fill: none;"></path></g><g transform="translate(344,252)"><path class="background" d="M0.5,0.5h300v80h-300Z" style="fill: none; stroke: #ddd;"></path><g><g class="mark-group role-axis"><g transform="translate(0.5,80.5)"><path class="background" d="M0,0h0v0h0Z" style="pointer-events: none; fill: none;"></path><g><g class="mark-rule role-axis-grid" style="pointer-events: none;"><line transform="translate(0,0)" x2="0" y2="-80" style="fill: none; stroke: #ddd; stroke-width: 1; opacity: 1;"></line><line transform="translate(38,0)" x2="0" y2="-80" style="fill: none; stroke: #ddd; stroke-width: 1; opacity: 1;"></line><line transform="translate(75,0)" x2="0" y2="-80" style="fill: none; stroke: #ddd; stroke-width: 1; opacity: 1;"></line><line transform="translate(113,0)" x2="0" y2="-80" style="fill: none; stroke: #ddd; stroke-width: 1; opacity: 1;"></line><line transform="translate(150,0)" x2="0" y2="-80" style="fill: none; stroke: #ddd; stroke-width: 1; opacity: 1;"></line><line transform="translate(188,0)" x2="0" y2="-80" style="fill: none; stroke: #ddd; stroke-width: 1; opacity: 1;"></line><line transform="translate(225,0)" x2="0" y2="-80" style="fill: none; stroke: #ddd; stroke-width: 1; opacity: 1;"></line><line transform="translate(263,0)" x2="0" y2="-80" style="fill: none; stroke: #ddd; stroke-width: 1; opacity: 1;"></line><line transform="translate(300,0)" x2="0" y2="-80" style="fill: none; stroke: #ddd; stroke-width: 1; opacity: 1;"></line></g></g><path class="foreground" d="" style="pointer-events: none; display: none; fill: none;"></path></g></g><g class="mark-rect role-mark child_layer_0_marks"><path d="M0,1h130.7565789473684v18h-130.7565789473684Z" style="fill: #4c78a8;"></path><path d="M0,21h168.75v18h-168.75Z" style="fill: #f58518;"></path><path d="M0,41h100.69444444444444v18h-100.69444444444444Z" style="fill: #e45756;"></path><path d="M0,61h0v18h0Z" style="fill: #72b7b2;"></path></g><g class="mark-text role-mark child_layer_1_marks"><text text-anchor="end" transform="translate(125.75657894736841,14)" style="font-family: sans-serif; font-size: 12px; fill: white;">7.0</text><text text-anchor="end" transform="translate(163.75,34)" style="font-family: sans-serif; font-size: 12px; fill: white;">9.0</text><text text-anchor="end" transform="translate(95.69444444444444,54)" style="font-family: sans-serif; font-size: 12px; fill: white;">5.4</text><text text-anchor="end" transform="translate(-5,74)" style="font-family: sans-serif; font-size: 12px; fill: white;">0.0</text></g><g class="mark-group role-title"><g transform="translate(150,-24)"><path class="background" d="M0,0h0v0h0Z" style="pointer-events: none; fill: none;"></path><g><g class="mark-text role-title-text" style="pointer-events: none;"><text text-anchor="middle" transform="translate(0,11)" style="font-family: sans-serif; font-size: 14px; fill: #000; opacity: 1;">abr 30, 2020</text></g></g><path class="foreground" d="" style="pointer-events: none; display: none; fill: none;"></path></g></g></g><path class="foreground" d="" style="display: none; fill: none;"></path></g><g transform="translate(0,378)"><path class="background" d="M0.5,0.5h300v80h-300Z" style="fill: none; stroke: #ddd;"></path><g><g class="mark-group role-axis"><g transform="translate(0.5,80.5)"><path class="background" d="M0,0h0v0h0Z" style="pointer-events: none; fill: none;"></path><g><g class="mark-rule role-axis-grid" style="pointer-events: none;"><line transform="translate(0,0)" x2="0" y2="-80" style="fill: none; stroke: #ddd; stroke-width: 1; opacity: 1;"></line><line transform="translate(38,0)" x2="0" y2="-80" style="fill: none; stroke: #ddd; stroke-width: 1; opacity: 1;"></line><line transform="translate(75,0)" x2="0" y2="-80" style="fill: none; stroke: #ddd; stroke-width: 1; opacity: 1;"></line><line transform="translate(113,0)" x2="0" y2="-80" style="fill: none; stroke: #ddd; stroke-width: 1; opacity: 1;"></line><line transform="translate(150,0)" x2="0" y2="-80" style="fill: none; stroke: #ddd; stroke-width: 1; opacity: 1;"></line><line transform="translate(188,0)" x2="0" y2="-80" style="fill: none; stroke: #ddd; stroke-width: 1; opacity: 1;"></line><line transform="translate(225,0)" x2="0" y2="-80" style="fill: none; stroke: #ddd; stroke-width: 1; opacity: 1;"></line><line transform="translate(263,0)" x2="0" y2="-80" style="fill: none; stroke: #ddd; stroke-width: 1; opacity: 1;"></line><line transform="translate(300,0)" x2="0" y2="-80" style="fill: none; stroke: #ddd; stroke-width: 1; opacity: 1;"></line></g></g><path class="foreground" d="" style="pointer-events: none; display: none; fill: none;"></path></g></g><g class="mark-rect role-mark child_layer_0_marks"><path d="M0,1h138.67924528301887v18h-138.67924528301887Z" style="fill: #4c78a8;"></path><path d="M0,21h188.97058823529412v18h-188.97058823529412Z" style="fill: #f58518;"></path><path d="M0,41h87.5v18h-87.5Z" style="fill: #e45756;"></path><path d="M0,61h165.625v18h-165.625Z" style="fill: #72b7b2;"></path></g><g class="mark-text role-mark child_layer_1_marks"><text text-anchor="end" transform="translate(133.67924528301887,14)" style="font-family: sans-serif; font-size: 12px; fill: white;">7.4</text><text text-anchor="end" transform="translate(183.97058823529412,34)" style="font-family: sans-serif; font-size: 12px; fill: white;">10.1</text><text text-anchor="end" transform="translate(82.5,54)" style="font-family: sans-serif; font-size: 12px; fill: white;">4.7</text><text text-anchor="end" transform="translate(160.625,74)" style="font-family: sans-serif; font-size: 12px; fill: white;">8.8</text></g><g class="mark-group role-title"><g transform="translate(150,-24)"><path class="background" d="M0,0h0v0h0Z" style="pointer-events: none; fill: none;"></path><g><g class="mark-text role-title-text" style="pointer-events: none;"><text text-anchor="middle" transform="translate(0,11)" style="font-family: sans-serif; font-size: 14px; fill: #000; opacity: 1;">abr 29, 2020</text></g></g><path class="foreground" d="" style="pointer-events: none; display: none; fill: none;"></path></g></g></g><path class="foreground" d="" style="display: none; fill: none;"></path></g><g transform="translate(344,378)"><path class="background" d="M0.5,0.5h300v80h-300Z" style="fill: none; stroke: #ddd;"></path><g><g class="mark-group role-axis"><g transform="translate(0.5,80.5)"><path class="background" d="M0,0h0v0h0Z" style="pointer-events: none; fill: none;"></path><g><g class="mark-rule role-axis-grid" style="pointer-events: none;"><line transform="translate(0,0)" x2="0" y2="-80" style="fill: none; stroke: #ddd; stroke-width: 1; opacity: 1;"></line><line transform="translate(38,0)" x2="0" y2="-80" style="fill: none; stroke: #ddd; stroke-width: 1; opacity: 1;"></line><line transform="translate(75,0)" x2="0" y2="-80" style="fill: none; stroke: #ddd; stroke-width: 1; opacity: 1;"></line><line transform="translate(113,0)" x2="0" y2="-80" style="fill: none; stroke: #ddd; stroke-width: 1; opacity: 1;"></line><line transform="translate(150,0)" x2="0" y2="-80" style="fill: none; stroke: #ddd; stroke-width: 1; opacity: 1;"></line><line transform="translate(188,0)" x2="0" y2="-80" style="fill: none; stroke: #ddd; stroke-width: 1; opacity: 1;"></line><line transform="translate(225,0)" x2="0" y2="-80" style="fill: none; stroke: #ddd; stroke-width: 1; opacity: 1;"></line><line transform="translate(263,0)" x2="0" y2="-80" style="fill: none; stroke: #ddd; stroke-width: 1; opacity: 1;"></line><line transform="translate(300,0)" x2="0" y2="-80" style="fill: none; stroke: #ddd; stroke-width: 1; opacity: 1;"></line></g></g><path class="foreground" d="" style="pointer-events: none; display: none; fill: none;"></path></g></g><g class="mark-rect role-mark child_layer_0_marks"><path d="M0,1h114.77272727272727v18h-114.77272727272727Z" style="fill: #4c78a8;"></path><path d="M0,21h181.25v18h-181.25Z" style="fill: #f58518;"></path><path d="M0,41h98.3108108108108v18h-98.3108108108108Z" style="fill: #e45756;"></path></g><g class="mark-text role-mark child_layer_1_marks"><text text-anchor="end" transform="translate(109.77272727272727,14)" style="font-family: sans-serif; font-size: 12px; fill: white;">6.1</text><text text-anchor="end" transform="translate(176.25,34)" style="font-family: sans-serif; font-size: 12px; fill: white;">9.7</text><text text-anchor="end" transform="translate(93.3108108108108,54)" style="font-family: sans-serif; font-size: 12px; fill: white;">5.2</text></g><g class="mark-group role-title"><g transform="translate(150,-24)"><path class="background" d="M0,0h0v0h0Z" style="pointer-events: none; fill: none;"></path><g><g class="mark-text role-title-text" style="pointer-events: none;"><text text-anchor="middle" transform="translate(0,11)" style="font-family: sans-serif; font-size: 14px; fill: #000; opacity: 1;">abr 28, 2020</text></g></g><path class="foreground" d="" style="pointer-events: none; display: none; fill: none;"></path></g></g></g><path class="foreground" d="" style="display: none; fill: none;"></path></g></g><g class="mark-group role-legend"><g transform="translate(0,516)"><path class="background" d="M0,0h453v14h-453Z" style="pointer-events: none; fill: none;"></path><g><g class="mark-group role-legend-entry"><g transform="translate(0,0)"><path class="background" d="M0,0h0v0h0Z" style="pointer-events: none; fill: none;"></path><g><g class="mark-group role-scope"><g transform="translate(0,0)"><path class="background" d="M0,0h173.6337890625v14h-173.6337890625Z" style="pointer-events: none; fill: none; opacity: 1;"></path><g><g class="mark-symbol role-legend-symbol" style="pointer-events: none;"><path transform="translate(7,7)" d="M-5,-5h10v10h-10Z" style="fill: #4c78a8; stroke-width: 1.5; opacity: 1;"></path></g><g class="mark-text role-legend-label" style="pointer-events: none;"><text text-anchor="start" transform="translate(18,11)" style="font-family: sans-serif; font-size: 14px; fill: #000; opacity: 1;">Confirmados y probables</text></g></g><path class="foreground" d="" style="pointer-events: none; display: none; fill: none;"></path></g><g transform="translate(184,0)"><path class="background" d="M0,0h97.365234375v14h-97.365234375Z" style="pointer-events: none; fill: none; opacity: 1;"></path><g><g class="mark-symbol role-legend-symbol" style="pointer-events: none;"><path transform="translate(7,7)" d="M-5,-5h10v10h-10Z" style="fill: #f58518; stroke-width: 1.5; opacity: 1;"></path></g><g class="mark-text role-legend-label" style="pointer-events: none;"><text text-anchor="start" transform="translate(18,11)" style="font-family: sans-serif; font-size: 14px; fill: #000; opacity: 1;">Confirmados</text></g></g><path class="foreground" d="" style="pointer-events: none; display: none; fill: none;"></path></g><g transform="translate(292,0)"><path class="background" d="M0,0h81.041015625v14h-81.041015625Z" style="pointer-events: none; fill: none; opacity: 1;"></path><g><g class="mark-symbol role-legend-symbol" style="pointer-events: none;"><path transform="translate(7,7)" d="M-5,-5h10v10h-10Z" style="fill: #e45756; stroke-width: 1.5; opacity: 1;"></path></g><g class="mark-text role-legend-label" style="pointer-events: none;"><text text-anchor="start" transform="translate(18,11)" style="font-family: sans-serif; font-size: 14px; fill: #000; opacity: 1;">Probables</text></g></g><path class="foreground" d="" style="pointer-events: none; display: none; fill: none;"></path></g><g transform="translate(384,0)"><path class="background" d="M0,0h68.572265625v14h-68.572265625Z" style="pointer-events: none; fill: none; opacity: 1;"></path><g><g class="mark-symbol role-legend-symbol" style="pointer-events: none;"><path transform="translate(7,7)" d="M-5,-5h10v10h-10Z" style="fill: #72b7b2; stroke-width: 1.5; opacity: 1;"></path></g><g class="mark-text role-legend-label" style="pointer-events: none;"><text text-anchor="start" transform="translate(18,11)" style="font-family: sans-serif; font-size: 14px; fill: #000; opacity: 1;">Muertes</text></g></g><path class="foreground" d="" style="pointer-events: none; display: none; fill: none;"></path></g></g></g><path class="foreground" d="" style="pointer-events: none; display: none; fill: none;"></path></g></g></g><path class="foreground" d="" style="pointer-events: none; display: none; fill: none;"></path></g></g></g><path class="foreground" d="" style="display: none; fill: none;"></path></g></g></g></svg>