<svg class="marks" width="663" height="219" viewBox="0 0 663 219" version="1.1" xmlns="http://www.w3.org/2000/svg" xmlns:xlink="http://www.w3.org/1999/xlink"><rect width="663" height="219" style="fill: white;"></rect><g transform="translate(72,10)"><g class="mark-group role-frame root"><g transform="translate(0,0)"><path class="background" d="M0,0h0v0h0Z" style="fill: none;"></path><g><g class="mark-group role-row-header row_header"><g transform="translate(-1,0)"><path class="background" d="M0,0h0v70h0Z" style="fill: none;"></path><g><g class="mark-group role-title"><g transform="translate(-65.234375,35)"><path class="background" d="M0,0h0v0h0Z" style="pointer-events: none; fill: none;"></path><g><g class="mark-text role-title-text" style="pointer-events: none;"><text text-anchor="middle" transform="translate(0,0) rotate(-90) translate(0,11)" style="font-family: sans-serif; font-size: 14px; fill: #000; opacity: 1;">Confirmados</text></g></g><path class="foreground" d="" style="pointer-events: none; display: none; fill: none;"></path></g></g><g class="mark-group role-axis"><g transform="translate(0.5,0.5)"><path class="background" d="M0,0h0v0h0Z" style="pointer-events: none; fill: none;"></path><g><g class="mark-rule role-axis-tick" style="pointer-events: none;"><line transform="translate(0,17)" x2="-5" y2="0" style="fill: none; stroke: #888; stroke-width: 1; opacity: 1;"></line><line transform="translate(0,52)" x2="-5" y2="0" style="fill: none; stroke: #888; stroke-width: 1; opacity: 1;"></line></g><g class="mark-text role-axis-label" style="pointer-events: none;"><text text-anchor="end" transform="translate(-7,21)" style="font-family: sans-serif; font-size: 14px; fill: #000; opacity: 1;">mayo</text><text text-anchor="end" transform="translate(-7,56)" style="font-family: sans-serif; font-size: 14px; fill: #000; opacity: 1;">abril</text></g><g class="mark-rule role-axis-domain" style="pointer-events: none;"><line transform="translate(0,0)" x2="0" y2="70" style="fill: none; stroke: #888; stroke-width: 1; opacity: 1;"></line></g></g><path class="foreground" d="" style="pointer-events: none; display: none; fill: none;"></path></g></g></g><path class="foreground" d="" style="display: none; fill: none;"></path></g><g transform="translate(-1,92)"><path class="background" d="M0,0h0v70h0Z" style="fill: none;"></path><g><g class="mark-group role-title"><g transform="translate(-65.234375,35)"><path class="background" d="M0,0h0v0h0Z" style="pointer-events: none; fill: none;"></path><g><g class="mark-text role-title-text" style="pointer-events: none;"><text text-anchor="middle" transform="translate(0,0) rotate(-90) translate(0,11)" style="font-family: sans-serif; font-size: 14px; fill: #000; opacity: 1;">Probables</text></g></g><path class="foreground" d="" style="pointer-events: none; display: none; fill: none;"></path></g></g><g class="mark-group role-axis"><g transform="translate(0.5,0.5)"><path class="background" d="M0,0h0v0h0Z" style="pointer-events: none; fill: none;"></path><g><g class="mark-rule role-axis-tick" style="pointer-events: none;"><line transform="translate(0,17)" x2="-5" y2="0" style="fill: none; stroke: #888; stroke-width: 1; opacity: 1;"></line><line transform="translate(0,52)" x2="-5" y2="0" style="fill: none; stroke: #888; stroke-width: 1; opacity: 1;"></line></g><g class="mark-text role-axis-label" style="pointer-events: none;"><text text-anchor="end" transform="translate(-7,21)" style="font-family: sans-serif; font-size: 14px; fill: #000; opacity: 1;">mayo</text><text text-anchor="end" transform="translate(-7,56)" style="font-family: sans-serif; font-size: 14px; fill: #000; opacity: 1;">abril</text></g><g class="mark-rule role-axis-domain" style="pointer-events: none;"><line transform="translate(0,0)" x2="0" y2="70" style="fill: none; stroke: #888; stroke-width: 1; opacity: 1;"></line></g></g><path class="foreground" d="" style="pointer-events: none; display: none; fill: none;"></path></g></g></g><path class="foreground" d="" style="display: none; fill: none;"></path></g></g><g class="mark-group role-column-footer column_footer"><g transform="translate(0,163)"><path class="background" d="M0,0h585v0h-585Z" style="fill: none;"></path><g><g class="mark-group role-axis"><g transform="translate(0.5,0.5)"><path class="background" d="M0,0h0v0h0Z" style="pointer-events: none; fill: none;"></path><g><g class="mark-rule role-axis-tick" style="pointer-events: none;"><line transform="translate(29,0)" x2="0" y2="5" style="fill: none; stroke: #888; stroke-width: 1; opacity: 1;"></line><line transform="translate(87,0)" x2="0" y2="5" style="fill: none; stroke: #888; stroke-width: 1; opacity: 1;"></line><line transform="translate(146,0)" x2="0" y2="5" style="fill: none; stroke: #888; stroke-width: 1; opacity: 1;"></line><line transform="translate(204,0)" x2="0" y2="5" style="fill: none; stroke: #888; stroke-width: 1; opacity: 1;"></line><line transform="translate(263,0)" x2="0" y2="5" style="fill: none; stroke: #888; stroke-width: 1; opacity: 1;"></line><line transform="translate(321,0)" x2="0" y2="5" style="fill: none; stroke: #888; stroke-width: 1; opacity: 1;"></line><line transform="translate(380,0)" x2="0" y2="5" style="fill: none; stroke: #888; stroke-width: 1; opacity: 1;"></line><line transform="translate(438,0)" x2="0" y2="5" style="fill: none; stroke: #888; stroke-width: 1; opacity: 1;"></line><line transform="translate(497,0)" x2="0" y2="5" style="fill: none; stroke: #888; stroke-width: 1; opacity: 1;"></line><line transform="translate(555,0)" x2="0" y2="5" style="fill: none; stroke: #888; stroke-width: 1; opacity: 1;"></line></g><g class="mark-text role-axis-label" style="pointer-events: none;"><text text-anchor="end" transform="translate(28.75,7) rotate(270) translate(0,4)" style="font-family: sans-serif; font-size: 14px; fill: #000; opacity: 1;">01</text><text text-anchor="end" transform="translate(87.25,7) rotate(270) translate(0,4)" style="font-family: sans-serif; font-size: 14px; fill: #000; opacity: 1;">02</text><text text-anchor="end" transform="translate(145.75,7) rotate(270) translate(0,4)" style="font-family: sans-serif; font-size: 14px; fill: #000; opacity: 1;">21</text><text text-anchor="end" transform="translate(204.25,7) rotate(270) translate(0,4)" style="font-family: sans-serif; font-size: 14px; fill: #000; opacity: 1;">23</text><text text-anchor="end" transform="translate(262.75,7) rotate(270) translate(0,4)" style="font-family: sans-serif; font-size: 14px; fill: #000; opacity: 1;">24</text><text text-anchor="end" transform="translate(321.25,7) rotate(270) translate(0,4)" style="font-family: sans-serif; font-size: 14px; fill: #000; opacity: 1;">25</text><text text-anchor="end" transform="translate(379.75,7) rotate(270) translate(0,4)" style="font-family: sans-serif; font-size: 14px; fill: #000; opacity: 1;">27</text><text text-anchor="end" transform="translate(438.25,7) rotate(270) translate(0,4)" style="font-family: sans-serif; font-size: 14px; fill: #000; opacity: 1;">28</text><text text-anchor="end" transform="translate(496.75,7) rotate(270) translate(0,4)" style="font-family: sans-serif; font-size: 14px; fill: #000; opacity: 1;">29</text><text text-anchor="end" transform="translate(555.25,7) rotate(270) translate(0,4)" style="font-family: sans-serif; font-size: 14px; fill: #000; opacity: 1;">30</text></g><g class="mark-rule role-axis-domain" style="pointer-events: none;"><line transform="translate(0,0)" x2="585" y2="0" style="fill: none; stroke: #888; stroke-width: 1; opacity: 1;"></line></g><g class="mark-text role-axis-title" style="pointer-events: none;"><text text-anchor="middle" transform="translate(292.5,37.572265625)" style="font-family: sans-serif; font-size: 14px; font-weight: bold; fill: #000; opacity: 1;">Día del mes</text></g></g><path class="foreground" d="" style="pointer-events: none; display: none; fill: none;"></path></g></g></g><path class="foreground" d="" style="display: none; fill: none;"></path></g></g><g class="mark-group role-scope cell"><g transform="translate(0,0)"><path class="background" d="M0.5,0.5h585v70h-585Z" style="fill: none; stroke: #ddd;"></path><g><g class="mark-rect role-mark child_layer_0_marks"><path d="M292.5,35h58.5v35h-58.5Z" style="fill: rgb(243, 239, 237);"></path></g><g class="mark-text role-mark child_layer_1_marks"><text text-anchor="middle" transform="translate(321.75,55.5)" style="font-family: sans-serif; font-size: 9px; fill: black;">1</text></g></g><path class="foreground" d="" style="display: none; fill: none;"></path></g><g transform="translate(0,92)"><path class="background" d="M0.5,0.5h585v70h-585Z" style="fill: none; stroke: #ddd;"></path><g><g class="mark-rect role-mark child_layer_0_marks"><path d="M117,35h58.5v35h-58.5Z" style="fill: rgb(243, 239, 237);"></path><path d="M175.5,35h58.5v35h-58.5Z" style="fill: rgb(140, 13, 37);"></path><path d="M234,35h58.5v35h-58.5Z" style="fill: rgb(243, 239, 237);"></path><path d="M351,35h58.5v35h-58.5Z" style="fill: rgb(243, 239, 237);"></path><path d="M409.5,35h58.5v35h-58.5Z" style="fill: rgb(52, 52, 52);"></path><path d="M468,35h58.5v35h-58.5Z" style="fill: rgb(177, 177, 177);"></path><path d="M526.5,35h58.5v35h-58.5Z" style="fill: rgb(243, 239, 237);"></path><path d="M0,0h58.5v35h-58.5Z" style="fill: rgb(152, 152, 152);"></path><path d="M58.5,0h58.5v35h-58.5Z" style="fill: rgb(210, 210, 210);"></path></g><g class="mark-text role-mark child_layer_1_marks"><text text-anchor="middle" transform="translate(146.25,55.5)" style="font-family: sans-serif; font-size: 9px; fill: black;">1</text><text text-anchor="middle" transform="translate(204.75,55.5)" style="font-family: sans-serif; font-size: 9px; fill: white;">-1</text><text text-anchor="middle" transform="translate(263.25,55.5)" style="font-family: sans-serif; font-size: 9px; fill: black;">1</text><text text-anchor="middle" transform="translate(380.25,55.5)" style="font-family: sans-serif; font-size: 9px; fill: black;">1</text><text text-anchor="middle" transform="translate(438.75,55.5)" style="font-family: sans-serif; font-size: 9px; fill: white;">17</text><text text-anchor="middle" transform="translate(497.25,55.5)" style="font-family: sans-serif; font-size: 9px; fill: black;">8</text><text text-anchor="middle" transform="translate(555.75,55.5)" style="font-family: sans-serif; font-size: 9px; fill: black;">1</text><text text-anchor="middle" transform="translate(29.25,20.5)" style="font-family: sans-serif; font-size: 9px; fill: white;">10</text><text text-anchor="middle" transform="translate(87.75,20.5)" style="font-family: sans-serif; font-size: 9px; fill: black;">5</text></g></g><path class="foreground" d="" style="display: none; fill: none;"></path></g></g></g><path class="foreground" d="" style="display: none; fill: none;"></path></g></g></g></svg>