<svg class="marks" width="645" height="333" viewBox="0 0 645 333" version="1.1" xmlns="http://www.w3.org/2000/svg" xmlns:xlink="http://www.w3.org/1999/xlink"><rect width="645" height="333" style="fill: white;"></rect><g transform="translate(47,32)"><g class="mark-group role-frame root"><g transform="translate(0,0)"><path class="background" d="M0,0h0v0h0Z" style="fill: none;"></path><g><g class="mark-group role-row-header row_header"><g transform="translate(-1,0)"><path class="background" d="M0,0h0v75h0Z" style="fill: none;"></path><g><g class="mark-group role-axis"><g transform="translate(0.5,0.5)"><path class="background" d="M0,0h0v0h0Z" style="pointer-events: none; fill: none;"></path><g><g class="mark-rule role-axis-tick" style="pointer-events: none;"><line transform="translate(0,75)" x2="-5" y2="0" style="fill: none; stroke: #888; stroke-width: 1; opacity: 1;"></line><line transform="translate(0,41)" x2="-5" y2="0" style="fill: none; stroke: #888; stroke-width: 1; opacity: 1;"></line><line transform="translate(0,7)" x2="-5" y2="0" style="fill: none; stroke: #888; stroke-width: 1; opacity: 1;"></line></g><g class="mark-text role-axis-label" style="pointer-events: none;"><text text-anchor="end" transform="translate(-7,79)" style="font-family: sans-serif; font-size: 14px; fill: #000; opacity: 1;">0</text><text text-anchor="end" transform="translate(-7,44.90909090909091)" style="font-family: sans-serif; font-size: 14px; fill: #000; opacity: 1;">10</text><text text-anchor="end" transform="translate(-7,10.81818181818182)" style="font-family: sans-serif; font-size: 14px; fill: #000; opacity: 1;">20</text></g><g class="mark-rule role-axis-domain" style="pointer-events: none;"><line transform="translate(0,75)" x2="0" y2="-75" style="fill: none; stroke: #888; stroke-width: 1; opacity: 1;"></line></g><g class="mark-text role-axis-title" style="pointer-events: none;"><text text-anchor="middle" transform="translate(-26.572265625,37.5) rotate(-90) translate(0,-3)" style="font-family: sans-serif; font-size: 14px; font-weight: bold; fill: #000; opacity: 1;">Rezago (días)</text></g></g><path class="foreground" d="" style="pointer-events: none; display: none; fill: none;"></path></g></g></g><path class="foreground" d="" style="display: none; fill: none;"></path></g><g transform="translate(-1,147)"><path class="background" d="M0,0h0v75h0Z" style="fill: none;"></path><g><g class="mark-group role-axis"><g transform="translate(0.5,0.5)"><path class="background" d="M0,0h0v0h0Z" style="pointer-events: none; fill: none;"></path><g><g class="mark-rule role-axis-tick" style="pointer-events: none;"><line transform="translate(0,75)" x2="-5" y2="0" style="fill: none; stroke: #888; stroke-width: 1; opacity: 1;"></line><line transform="translate(0,41)" x2="-5" y2="0" style="fill: none; stroke: #888; stroke-width: 1; opacity: 1;"></line><line transform="translate(0,7)" x2="-5" y2="0" style="fill: none; stroke: #888; stroke-width: 1; opacity: 1;"></line></g><g class="mark-text role-axis-label" style="pointer-events: none;"><text text-anchor="end" transform="translate(-7,79)" style="font-family: sans-serif; font-size: 14px; fill: #000; opacity: 1;">0</text><text text-anchor="end" transform="translate(-7,44.90909090909091)" style="font-family: sans-serif; font-size: 14px; fill: #000; opacity: 1;">10</text><text text-anchor="end" transform="translate(-7,10.81818181818182)" style="font-family: sans-serif; font-size: 14px; fill: #000; opacity: 1;">20</text></g><g class="mark-rule role-axis-domain" style="pointer-events: none;"><line transform="translate(0,75)" x2="0" y2="-75" style="fill: none; stroke: #888; stroke-width: 1; opacity: 1;"></line></g><g class="mark-text role-axis-title" style="pointer-events: none;"><text text-anchor="middle" transform="translate(-26.572265625,37.5) rotate(-90) translate(0,-3)" style="font-family: sans-serif; font-size: 14px; font-weight: bold; fill: #000; opacity: 1;">Rezago (días)</text></g></g><path class="foreground" d="" style="pointer-events: none; display: none; fill: none;"></path></g></g></g><path class="foreground" d="" style="display: none; fill: none;"></path></g></g><g class="mark-group role-column-footer column_footer"><g transform="translate(0,229)"><path class="background" d="M0,0h275v0h-275Z" style="fill: none;"></path><g><g class="mark-group role-axis"><g transform="translate(0.5,0.5)"><path class="background" d="M0,0h0v0h0Z" style="pointer-events: none; fill: none;"></path><g><g class="mark-rule role-axis-tick" style="pointer-events: none;"><line transform="translate(17,0)" x2="0" y2="5" style="fill: none; stroke: #888; stroke-width: 1; opacity: 1;"></line><line transform="translate(52,0)" x2="0" y2="5" style="fill: none; stroke: #888; stroke-width: 1; opacity: 1;"></line><line transform="translate(86,0)" x2="0" y2="5" style="fill: none; stroke: #888; stroke-width: 1; opacity: 1;"></line><line transform="translate(120,0)" x2="0" y2="5" style="fill: none; stroke: #888; stroke-width: 1; opacity: 1;"></line><line transform="translate(155,0)" x2="0" y2="5" style="fill: none; stroke: #888; stroke-width: 1; opacity: 1;"></line><line transform="translate(189,0)" x2="0" y2="5" style="fill: none; stroke: #888; stroke-width: 1; opacity: 1;"></line><line transform="translate(223,0)" x2="0" y2="5" style="fill: none; stroke: #888; stroke-width: 1; opacity: 1;"></line><line transform="translate(258,0)" x2="0" y2="5" style="fill: none; stroke: #888; stroke-width: 1; opacity: 1;"></line></g><g class="mark-text role-axis-label" style="pointer-events: none;"><text text-anchor="end" transform="translate(17.1875,7) rotate(270) translate(0,4)" style="font-family: sans-serif; font-size: 14px; fill: #000; opacity: 1;">23/05</text><text text-anchor="end" transform="translate(51.5625,7) rotate(270) translate(0,4)" style="font-family: sans-serif; font-size: 14px; fill: #000; opacity: 1;">24/05</text><text text-anchor="end" transform="translate(85.9375,7) rotate(270) translate(0,4)" style="font-family: sans-serif; font-size: 14px; fill: #000; opacity: 1;">25/05</text><text text-anchor="end" transform="translate(120.3125,7) rotate(270) translate(0,4)" style="font-family: sans-serif; font-size: 14px; fill: #000; opacity: 1;">26/05</text><text text-anchor="end" transform="translate(154.6875,7) rotate(270) translate(0,4)" style="font-family: sans-serif; font-size: 14px; fill: #000; opacity: 1;">27/05</text><text text-anchor="end" transform="translate(189.0625,7) rotate(270) translate(0,4)" style="font-family: sans-serif; font-size: 14px; fill: #000; opacity: 1;">28/05</text><text text-anchor="end" transform="translate(223.4375,7) rotate(270) translate(0,4)" style="font-family: sans-serif; font-size: 14px; fill: #000; opacity: 1;">29/05</text><text text-anchor="end" transform="translate(257.8125,7) rotate(270) translate(0,4)" style="font-family: sans-serif; font-size: 14px; fill: #000; opacity: 1;">30/05</text></g><g class="mark-rule role-axis-domain" style="pointer-events: none;"><line transform="translate(0,0)" x2="275" y2="0" style="fill: none; stroke: #888; stroke-width: 1; opacity: 1;"></line></g><g class="mark-text role-axis-title" style="pointer-events: none;"><text text-anchor="middle" transform="translate(137.5,63.0341796875)" style="font-family: sans-serif; font-size: 14px; font-weight: bold; fill: #000; opacity: 1;">Fecha boletín</text></g></g><path class="foreground" d="" style="pointer-events: none; display: none; fill: none;"></path></g></g></g><path class="foreground" d="" style="display: none; fill: none;"></path></g><g transform="translate(317,229)"><path class="background" d="M0,0h275v0h-275Z" style="fill: none;"></path><g><g class="mark-group role-axis"><g transform="translate(0.5,0.5)"><path class="background" d="M0,0h0v0h0Z" style="pointer-events: none; fill: none;"></path><g><g class="mark-rule role-axis-tick" style="pointer-events: none;"><line transform="translate(17,0)" x2="0" y2="5" style="fill: none; stroke: #888; stroke-width: 1; opacity: 1;"></line><line transform="translate(52,0)" x2="0" y2="5" style="fill: none; stroke: #888; stroke-width: 1; opacity: 1;"></line><line transform="translate(86,0)" x2="0" y2="5" style="fill: none; stroke: #888; stroke-width: 1; opacity: 1;"></line><line transform="translate(120,0)" x2="0" y2="5" style="fill: none; stroke: #888; stroke-width: 1; opacity: 1;"></line><line transform="translate(155,0)" x2="0" y2="5" style="fill: none; stroke: #888; stroke-width: 1; opacity: 1;"></line><line transform="translate(189,0)" x2="0" y2="5" style="fill: none; stroke: #888; stroke-width: 1; opacity: 1;"></line><line transform="translate(223,0)" x2="0" y2="5" style="fill: none; stroke: #888; stroke-width: 1; opacity: 1;"></line><line transform="translate(258,0)" x2="0" y2="5" style="fill: none; stroke: #888; stroke-width: 1; opacity: 1;"></line></g><g class="mark-text role-axis-label" style="pointer-events: none;"><text text-anchor="end" transform="translate(17.1875,7) rotate(270) translate(0,4)" style="font-family: sans-serif; font-size: 14px; fill: #000; opacity: 1;">23/05</text><text text-anchor="end" transform="translate(51.5625,7) rotate(270) translate(0,4)" style="font-family: sans-serif; font-size: 14px; fill: #000; opacity: 1;">24/05</text><text text-anchor="end" transform="translate(85.9375,7) rotate(270) translate(0,4)" style="font-family: sans-serif; font-size: 14px; fill: #000; opacity: 1;">25/05</text><text text-anchor="end" transform="translate(120.3125,7) rotate(270) translate(0,4)" style="font-family: sans-serif; font-size: 14px; fill: #000; opacity: 1;">26/05</text><text text-anchor="end" transform="translate(154.6875,7) rotate(270) translate(0,4)" style="font-family: sans-serif; font-size: 14px; fill: #000; opacity: 1;">27/05</text><text text-anchor="end" transform="translate(189.0625,7) rotate(270) translate(0,4)" style="font-family: sans-serif; font-size: 14px; fill: #000; opacity: 1;">28/05</text><text text-anchor="end" transform="translate(223.4375,7) rotate(270) translate(0,4)" style="font-family: sans-serif; font-size: 14px; fill: #000; opacity: 1;">29/05</text><text text-anchor="end" transform="translate(257.8125,7) rotate(270) translate(0,4)" style="font-family: sans-serif; font-size: 14px; fill: #000; opacity: 1;">30/05</text></g><g class="mark-rule role-axis-domain" style="pointer-events: none;"><line transform="translate(0,0)" x2="275" y2="0" style="fill: none; stroke: #888; stroke-width: 1; opacity: 1;"></line></g><g class="mark-text role-axis-title" style="pointer-events: none;"><text text-anchor="middle" transform="translate(137.5,63.0341796875)" style="font-family: sans-serif; font-size: 14px; font-weight: bold; fill: #000; opacity: 1;">Fecha boletín</text></g></g><path class="foreground" d="" style="pointer-events: none; display: none; fill: none;"></path></g></g></g><path class="foreground" d="" style="display: none; fill: none;"></path></g></g><g class="mark-group role-scope cell"><g transform="translate(0,0)"><path class="background" d="M0.5,0.5h275v75h-275Z" style="fill: none; stroke: #ddd;"></path><g><g class="mark-group role-axis"><g transform="translate(0.5,0.5)"><path class="background" d="M0,0h0v0h0Z" style="pointer-events: none; fill: none;"></path><g><g class="mark-rule role-axis-grid" style="pointer-events: none;"><line transform="translate(0,75)" x2="275" y2="0" style="fill: none; stroke: #ddd; stroke-width: 1; opacity: 1;"></line><line transform="translate(0,41)" x2="275" y2="0" style="fill: none; stroke: #ddd; stroke-width: 1; opacity: 1;"></line><line transform="translate(0,7)" x2="275" y2="0" style="fill: none; stroke: #ddd; stroke-width: 1; opacity: 1;"></line></g></g><path class="foreground" d="" style="pointer-events: none; display: none; fill: none;"></path></g></g><g class="mark-group role-scope child_layer_0_layer_0_pathgroup"><g transform="translate(0,0)"><path class="background" d="M0,0h275v75h-275Z" style="fill: none;"></path><g><g class="mark-line role-mark child_layer_0_layer_0_marks"><path d="M17.1875,44.01054746358613L51.5625,49.70454545454545L85.9375,49.86862848134524L120.3125,46.4175654853621L154.6875,45.38501271455817L189.0625,43.925887726536025L223.4375,43.20388349514563L257.8125,41.97804314329738" style="fill: none; stroke: #4c78a8; stroke-width: 3;"></path></g></g><path class="foreground" d="" style="display: none; fill: none;"></path></g></g><g class="mark-symbol role-mark child_layer_0_layer_1_marks"><path transform="translate(17.1875,44.01054746358613)" d="M3.5355339059327378,0A3.5355339059327378,3.5355339059327378,0,1,1,-3.5355339059327378,0A3.5355339059327378,3.5355339059327378,0,1,1,3.5355339059327378,0" style="fill: #4c78a8; stroke-width: 2; opacity: 1;"></path><path transform="translate(51.5625,49.70454545454545)" d="M3.5355339059327378,0A3.5355339059327378,3.5355339059327378,0,1,1,-3.5355339059327378,0A3.5355339059327378,3.5355339059327378,0,1,1,3.5355339059327378,0" style="fill: #4c78a8; stroke-width: 2; opacity: 1;"></path><path transform="translate(85.9375,49.86862848134524)" d="M3.5355339059327378,0A3.5355339059327378,3.5355339059327378,0,1,1,-3.5355339059327378,0A3.5355339059327378,3.5355339059327378,0,1,1,3.5355339059327378,0" style="fill: #4c78a8; stroke-width: 2; opacity: 1;"></path><path transform="translate(120.3125,46.4175654853621)" d="M3.5355339059327378,0A3.5355339059327378,3.5355339059327378,0,1,1,-3.5355339059327378,0A3.5355339059327378,3.5355339059327378,0,1,1,3.5355339059327378,0" style="fill: #4c78a8; stroke-width: 2; opacity: 1;"></path><path transform="translate(154.6875,45.38501271455817)" d="M3.5355339059327378,0A3.5355339059327378,3.5355339059327378,0,1,1,-3.5355339059327378,0A3.5355339059327378,3.5355339059327378,0,1,1,3.5355339059327378,0" style="fill: #4c78a8; stroke-width: 2; opacity: 1;"></path><path transform="translate(189.0625,43.925887726536025)" d="M3.5355339059327378,0A3.5355339059327378,3.5355339059327378,0,1,1,-3.5355339059327378,0A3.5355339059327378,3.5355339059327378,0,1,1,3.5355339059327378,0" style="fill: #4c78a8; stroke-width: 2; opacity: 1;"></path><path transform="translate(223.4375,43.20388349514563)" d="M3.5355339059327378,0A3.5355339059327378,3.5355339059327378,0,1,1,-3.5355339059327378,0A3.5355339059327378,3.5355339059327378,0,1,1,3.5355339059327378,0" style="fill: #4c78a8; stroke-width: 2; opacity: 1;"></path><path transform="translate(257.8125,41.97804314329738)" d="M3.5355339059327378,0A3.5355339059327378,3.5355339059327378,0,1,1,-3.5355339059327378,0A3.5355339059327378,3.5355339059327378,0,1,1,3.5355339059327378,0" style="fill: #4c78a8; stroke-width: 2; opacity: 1;"></path></g><g class="mark-text role-mark child_layer_1_marks"><text text-anchor="middle" transform="translate(17.1875,67.01054746358614)" style="font-family: sans-serif; font-size: 15px; fill: #4c78a8;">9.1</text><text text-anchor="middle" transform="translate(51.5625,72.70454545454545)" style="font-family: sans-serif; font-size: 15px; fill: #4c78a8;">7.4</text><text text-anchor="middle" transform="translate(85.9375,72.86862848134524)" style="font-family: sans-serif; font-size: 15px; fill: #4c78a8;">7.4</text><text text-anchor="middle" transform="translate(120.3125,69.4175654853621)" style="font-family: sans-serif; font-size: 15px; fill: #4c78a8;">8.4</text><text text-anchor="middle" transform="translate(154.6875,68.38501271455817)" style="font-family: sans-serif; font-size: 15px; fill: #4c78a8;">8.7</text><text text-anchor="middle" transform="translate(189.0625,66.92588772653602)" style="font-family: sans-serif; font-size: 15px; fill: #4c78a8;">9.1</text><text text-anchor="middle" transform="translate(223.4375,66.20388349514563)" style="font-family: sans-serif; font-size: 15px; fill: #4c78a8;">9.3</text><text text-anchor="middle" transform="translate(257.8125,64.97804314329738)" style="font-family: sans-serif; font-size: 15px; fill: #4c78a8;">9.7</text></g><g class="mark-group role-title"><g transform="translate(137.5,-24)"><path class="background" d="M0,0h0v0h0Z" style="pointer-events: none; fill: none;"></path><g><g class="mark-text role-title-text" style="pointer-events: none;"><text text-anchor="middle" transform="translate(0,11)" style="font-family: sans-serif; font-size: 14px; fill: #000; opacity: 1;">Confirmados y probables</text></g></g><path class="foreground" d="" style="pointer-events: none; display: none; fill: none;"></path></g></g></g><path class="foreground" d="" style="display: none; fill: none;"></path></g><g transform="translate(317,0)"><path class="background" d="M0.5,0.5h275v75h-275Z" style="fill: none; stroke: #ddd;"></path><g><g class="mark-group role-axis"><g transform="translate(0.5,0.5)"><path class="background" d="M0,0h0v0h0Z" style="pointer-events: none; fill: none;"></path><g><g class="mark-rule role-axis-grid" style="pointer-events: none;"><line transform="translate(0,75)" x2="275" y2="0" style="fill: none; stroke: #ddd; stroke-width: 1; opacity: 1;"></line><line transform="translate(0,41)" x2="275" y2="0" style="fill: none; stroke: #ddd; stroke-width: 1; opacity: 1;"></line><line transform="translate(0,7)" x2="275" y2="0" style="fill: none; stroke: #ddd; stroke-width: 1; opacity: 1;"></line></g></g><path class="foreground" d="" style="pointer-events: none; display: none; fill: none;"></path></g></g><g class="mark-group role-scope child_layer_0_layer_0_pathgroup"><g transform="translate(0,0)"><path class="background" d="M0,0h275v75h-275Z" style="fill: none;"></path><g><g class="mark-line role-mark child_layer_0_layer_0_marks"><path d="M17.1875,12.773822562979184L51.5625,20.681818181818183L85.9375,16.443850267379677L120.3125,1.641414141414138L154.6875,1.7299864314789608L189.0625,3.1250000000000053L223.4375,6.185064935064935L257.8125,5.021498771498764" style="fill: none; stroke: #f58518; stroke-width: 3;"></path></g></g><path class="foreground" d="" style="display: none; fill: none;"></path></g></g><g class="mark-symbol role-mark child_layer_0_layer_1_marks"><path transform="translate(17.1875,12.773822562979184)" d="M3.5355339059327378,0A3.5355339059327378,3.5355339059327378,0,1,1,-3.5355339059327378,0A3.5355339059327378,3.5355339059327378,0,1,1,3.5355339059327378,0" style="fill: #f58518; stroke-width: 2; opacity: 1;"></path><path transform="translate(51.5625,20.681818181818183)" d="M3.5355339059327378,0A3.5355339059327378,3.5355339059327378,0,1,1,-3.5355339059327378,0A3.5355339059327378,3.5355339059327378,0,1,1,3.5355339059327378,0" style="fill: #f58518; stroke-width: 2; opacity: 1;"></path><path transform="translate(85.9375,16.443850267379677)" d="M3.5355339059327378,0A3.5355339059327378,3.5355339059327378,0,1,1,-3.5355339059327378,0A3.5355339059327378,3.5355339059327378,0,1,1,3.5355339059327378,0" style="fill: #f58518; stroke-width: 2; opacity: 1;"></path><path transform="translate(120.3125,1.641414141414138)" d="M3.5355339059327378,0A3.5355339059327378,3.5355339059327378,0,1,1,-3.5355339059327378,0A3.5355339059327378,3.5355339059327378,0,1,1,3.5355339059327378,0" style="fill: #f58518; stroke-width: 2; opacity: 1;"></path><path transform="translate(154.6875,1.7299864314789608)" d="M3.5355339059327378,0A3.5355339059327378,3.5355339059327378,0,1,1,-3.5355339059327378,0A3.5355339059327378,3.5355339059327378,0,1,1,3.5355339059327378,0" style="fill: #f58518; stroke-width: 2; opacity: 1;"></path><path transform="translate(189.0625,3.1250000000000053)" d="M3.5355339059327378,0A3.5355339059327378,3.5355339059327378,0,1,1,-3.5355339059327378,0A3.5355339059327378,3.5355339059327378,0,1,1,3.5355339059327378,0" style="fill: #f58518; stroke-width: 2; opacity: 1;"></path><path transform="translate(223.4375,6.185064935064935)" d="M3.5355339059327378,0A3.5355339059327378,3.5355339059327378,0,1,1,-3.5355339059327378,0A3.5355339059327378,3.5355339059327378,0,1,1,3.5355339059327378,0" style="fill: #f58518; stroke-width: 2; opacity: 1;"></path><path transform="translate(257.8125,5.021498771498764)" d="M3.5355339059327378,0A3.5355339059327378,3.5355339059327378,0,1,1,-3.5355339059327378,0A3.5355339059327378,3.5355339059327378,0,1,1,3.5355339059327378,0" style="fill: #f58518; stroke-width: 2; opacity: 1;"></path></g><g class="mark-text role-mark child_layer_1_marks"><text text-anchor="middle" transform="translate(17.1875,35.773822562979184)" style="font-family: sans-serif; font-size: 15px; fill: #f58518;">18.3</text><text text-anchor="middle" transform="translate(51.5625,43.68181818181819)" style="font-family: sans-serif; font-size: 15px; fill: #f58518;">15.9</text><text text-anchor="middle" transform="translate(85.9375,39.44385026737967)" style="font-family: sans-serif; font-size: 15px; fill: #f58518;">17.2</text><text text-anchor="middle" transform="translate(120.3125,24.64141414141414)" style="font-family: sans-serif; font-size: 15px; fill: #f58518;">21.5</text><text text-anchor="middle" transform="translate(154.6875,24.72998643147896)" style="font-family: sans-serif; font-size: 15px; fill: #f58518;">21.5</text><text text-anchor="middle" transform="translate(189.0625,26.125000000000007)" style="font-family: sans-serif; font-size: 15px; fill: #f58518;">21.1</text><text text-anchor="middle" transform="translate(223.4375,29.185064935064936)" style="font-family: sans-serif; font-size: 15px; fill: #f58518;">20.2</text><text text-anchor="middle" transform="translate(257.8125,28.021498771498763)" style="font-family: sans-serif; font-size: 15px; fill: #f58518;">20.5</text></g><g class="mark-group role-title"><g transform="translate(137.5,-25.8941197645186)"><path class="background" d="M0,0h0v0h0Z" style="pointer-events: none; fill: none;"></path><g><g class="mark-text role-title-text" style="pointer-events: none;"><text text-anchor="middle" transform="translate(0,11)" style="font-family: sans-serif; font-size: 14px; fill: #000; opacity: 1;">Confirmados</text></g></g><path class="foreground" d="" style="pointer-events: none; display: none; fill: none;"></path></g></g></g><path class="foreground" d="" style="display: none; fill: none;"></path></g><g transform="translate(0,147)"><path class="background" d="M0.5,0.5h275v75h-275Z" style="fill: none; stroke: #ddd;"></path><g><g class="mark-group role-axis"><g transform="translate(0.5,0.5)"><path class="background" d="M0,0h0v0h0Z" style="pointer-events: none; fill: none;"></path><g><g class="mark-rule role-axis-grid" style="pointer-events: none;"><line transform="translate(0,75)" x2="275" y2="0" style="fill: none; stroke: #ddd; stroke-width: 1; opacity: 1;"></line><line transform="translate(0,41)" x2="275" y2="0" style="fill: none; stroke: #ddd; stroke-width: 1; opacity: 1;"></line><line transform="translate(0,7)" x2="275" y2="0" style="fill: none; stroke: #ddd; stroke-width: 1; opacity: 1;"></line></g></g><path class="foreground" d="" style="pointer-events: none; display: none; fill: none;"></path></g></g><g class="mark-group role-scope child_layer_0_layer_0_pathgroup"><g transform="translate(0,0)"><path class="background" d="M0,0h275v75h-275Z" style="fill: none;"></path><g><g class="mark-line role-mark child_layer_0_layer_0_marks"><path d="M17.1875,49.63932806324111L51.5625,52.28397839783979L85.9375,52.20477975632615L120.3125,51.47941680960548L154.6875,50.994879626302556L189.0625,49.31609674728941L223.4375,47.932564698075645L257.8125,47.5544922913344" style="fill: none; stroke: #e45756; stroke-width: 3;"></path></g></g><path class="foreground" d="" style="display: none; fill: none;"></path></g></g><g class="mark-symbol role-mark child_layer_0_layer_1_marks"><path transform="translate(17.1875,49.63932806324111)" d="M3.5355339059327378,0A3.5355339059327378,3.5355339059327378,0,1,1,-3.5355339059327378,0A3.5355339059327378,3.5355339059327378,0,1,1,3.5355339059327378,0" style="fill: #e45756; stroke-width: 2; opacity: 1;"></path><path transform="translate(51.5625,52.28397839783979)" d="M3.5355339059327378,0A3.5355339059327378,3.5355339059327378,0,1,1,-3.5355339059327378,0A3.5355339059327378,3.5355339059327378,0,1,1,3.5355339059327378,0" style="fill: #e45756; stroke-width: 2; opacity: 1;"></path><path transform="translate(85.9375,52.20477975632615)" d="M3.5355339059327378,0A3.5355339059327378,3.5355339059327378,0,1,1,-3.5355339059327378,0A3.5355339059327378,3.5355339059327378,0,1,1,3.5355339059327378,0" style="fill: #e45756; stroke-width: 2; opacity: 1;"></path><path transform="translate(120.3125,51.47941680960548)" d="M3.5355339059327378,0A3.5355339059327378,3.5355339059327378,0,1,1,-3.5355339059327378,0A3.5355339059327378,3.5355339059327378,0,1,1,3.5355339059327378,0" style="fill: #e45756; stroke-width: 2; opacity: 1;"></path><path transform="translate(154.6875,50.994879626302556)" d="M3.5355339059327378,0A3.5355339059327378,3.5355339059327378,0,1,1,-3.5355339059327378,0A3.5355339059327378,3.5355339059327378,0,1,1,3.5355339059327378,0" style="fill: #e45756; stroke-width: 2; opacity: 1;"></path><path transform="translate(189.0625,49.31609674728941)" d="M3.5355339059327378,0A3.5355339059327378,3.5355339059327378,0,1,1,-3.5355339059327378,0A3.5355339059327378,3.5355339059327378,0,1,1,3.5355339059327378,0" style="fill: #e45756; stroke-width: 2; opacity: 1;"></path><path transform="translate(223.4375,47.932564698075645)" d="M3.5355339059327378,0A3.5355339059327378,3.5355339059327378,0,1,1,-3.5355339059327378,0A3.5355339059327378,3.5355339059327378,0,1,1,3.5355339059327378,0" style="fill: #e45756; stroke-width: 2; opacity: 1;"></path><path transform="translate(257.8125,47.5544922913344)" d="M3.5355339059327378,0A3.5355339059327378,3.5355339059327378,0,1,1,-3.5355339059327378,0A3.5355339059327378,3.5355339059327378,0,1,1,3.5355339059327378,0" style="fill: #e45756; stroke-width: 2; opacity: 1;"></path></g><g class="mark-text role-mark child_layer_1_marks"><text text-anchor="middle" transform="translate(17.1875,72.63932806324111)" style="font-family: sans-serif; font-size: 15px; fill: #e45756;">7.4</text><text text-anchor="middle" transform="translate(51.5625,75.28397839783979)" style="font-family: sans-serif; font-size: 15px; fill: #e45756;">6.7</text><text text-anchor="middle" transform="translate(85.9375,75.20477975632615)" style="font-family: sans-serif; font-size: 15px; fill: #e45756;">6.7</text><text text-anchor="middle" transform="translate(120.3125,74.47941680960548)" style="font-family: sans-serif; font-size: 15px; fill: #e45756;">6.9</text><text text-anchor="middle" transform="translate(154.6875,73.99487962630255)" style="font-family: sans-serif; font-size: 15px; fill: #e45756;">7.0</text><text text-anchor="middle" transform="translate(189.0625,72.31609674728941)" style="font-family: sans-serif; font-size: 15px; fill: #e45756;">7.5</text><text text-anchor="middle" transform="translate(223.4375,70.93256469807565)" style="font-family: sans-serif; font-size: 15px; fill: #e45756;">7.9</text><text text-anchor="middle" transform="translate(257.8125,70.5544922913344)" style="font-family: sans-serif; font-size: 15px; fill: #e45756;">8.1</text></g><g class="mark-group role-title"><g transform="translate(137.5,-24)"><path class="background" d="M0,0h0v0h0Z" style="pointer-events: none; fill: none;"></path><g><g class="mark-text role-title-text" style="pointer-events: none;"><text text-anchor="middle" transform="translate(0,11)" style="font-family: sans-serif; font-size: 14px; fill: #000; opacity: 1;">Probables</text></g></g><path class="foreground" d="" style="pointer-events: none; display: none; fill: none;"></path></g></g></g><path class="foreground" d="" style="display: none; fill: none;"></path></g><g transform="translate(317,147)"><path class="background" d="M0.5,0.5h275v75h-275Z" style="fill: none; stroke: #ddd;"></path><g><g class="mark-group role-axis"><g transform="translate(0.5,0.5)"><path class="background" d="M0,0h0v0h0Z" style="pointer-events: none; fill: none;"></path><g><g class="mark-rule role-axis-grid" style="pointer-events: none;"><line transform="translate(0,75)" x2="275" y2="0" style="fill: none; stroke: #ddd; stroke-width: 1; opacity: 1;"></line><line transform="translate(0,41)" x2="275" y2="0" style="fill: none; stroke: #ddd; stroke-width: 1; opacity: 1;"></line><line transform="translate(0,7)" x2="275" y2="0" style="fill: none; stroke: #ddd; stroke-width: 1; opacity: 1;"></line></g></g><path class="foreground" d="" style="pointer-events: none; display: none; fill: none;"></path></g></g><g class="mark-group role-scope child_layer_0_layer_0_pathgroup"><g transform="translate(0,0)"><path class="background" d="M0,0h275v75h-275Z" style="fill: none;"></path><g><g class="mark-line role-mark child_layer_0_layer_0_marks"><path d="M17.1875,40.90909090909091L51.5625,47.72727272727273L85.9375,47.72727272727273L120.3125,53.69318181818181L154.6875,49.772727272727266L189.0625,53.97727272727273L223.4375,53.97727272727273L257.8125,54.16666666666667" style="fill: none; stroke: #72b7b2; stroke-width: 3;"></path></g></g><path class="foreground" d="" style="display: none; fill: none;"></path></g></g><g class="mark-symbol role-mark child_layer_0_layer_1_marks"><path transform="translate(17.1875,40.90909090909091)" d="M3.5355339059327378,0A3.5355339059327378,3.5355339059327378,0,1,1,-3.5355339059327378,0A3.5355339059327378,3.5355339059327378,0,1,1,3.5355339059327378,0" style="fill: #72b7b2; stroke-width: 2; opacity: 1;"></path><path transform="translate(51.5625,47.72727272727273)" d="M3.5355339059327378,0A3.5355339059327378,3.5355339059327378,0,1,1,-3.5355339059327378,0A3.5355339059327378,3.5355339059327378,0,1,1,3.5355339059327378,0" style="fill: #72b7b2; stroke-width: 2; opacity: 1;"></path><path transform="translate(85.9375,47.72727272727273)" d="M3.5355339059327378,0A3.5355339059327378,3.5355339059327378,0,1,1,-3.5355339059327378,0A3.5355339059327378,3.5355339059327378,0,1,1,3.5355339059327378,0" style="fill: #72b7b2; stroke-width: 2; opacity: 1;"></path><path transform="translate(120.3125,53.69318181818181)" d="M3.5355339059327378,0A3.5355339059327378,3.5355339059327378,0,1,1,-3.5355339059327378,0A3.5355339059327378,3.5355339059327378,0,1,1,3.5355339059327378,0" style="fill: #72b7b2; stroke-width: 2; opacity: 1;"></path><path transform="translate(154.6875,49.772727272727266)" d="M3.5355339059327378,0A3.5355339059327378,3.5355339059327378,0,1,1,-3.5355339059327378,0A3.5355339059327378,3.5355339059327378,0,1,1,3.5355339059327378,0" style="fill: #72b7b2; stroke-width: 2; opacity: 1;"></path><path transform="translate(189.0625,53.97727272727273)" d="M3.5355339059327378,0A3.5355339059327378,3.5355339059327378,0,1,1,-3.5355339059327378,0A3.5355339059327378,3.5355339059327378,0,1,1,3.5355339059327378,0" style="fill: #72b7b2; stroke-width: 2; opacity: 1;"></path><path transform="translate(223.4375,53.97727272727273)" d="M3.5355339059327378,0A3.5355339059327378,3.5355339059327378,0,1,1,-3.5355339059327378,0A3.5355339059327378,3.5355339059327378,0,1,1,3.5355339059327378,0" style="fill: #72b7b2; stroke-width: 2; opacity: 1;"></path><path transform="translate(257.8125,54.16666666666667)" d="M3.5355339059327378,0A3.5355339059327378,3.5355339059327378,0,1,1,-3.5355339059327378,0A3.5355339059327378,3.5355339059327378,0,1,1,3.5355339059327378,0" style="fill: #72b7b2; stroke-width: 2; opacity: 1;"></path></g><g class="mark-text role-mark child_layer_1_marks"><text text-anchor="middle" transform="translate(17.1875,63.90909090909091)" style="font-family: sans-serif; font-size: 15px; fill: #72b7b2;">10.0</text><text text-anchor="middle" transform="translate(51.5625,70.72727272727272)" style="font-family: sans-serif; font-size: 15px; fill: #72b7b2;">8.0</text><text text-anchor="middle" transform="translate(85.9375,70.72727272727272)" style="font-family: sans-serif; font-size: 15px; fill: #72b7b2;">8.0</text><text text-anchor="middle" transform="translate(120.3125,76.69318181818181)" style="font-family: sans-serif; font-size: 15px; fill: #72b7b2;">6.3</text><text text-anchor="middle" transform="translate(154.6875,72.77272727272727)" style="font-family: sans-serif; font-size: 15px; fill: #72b7b2;">7.4</text><text text-anchor="middle" transform="translate(189.0625,76.97727272727272)" style="font-family: sans-serif; font-size: 15px; fill: #72b7b2;">6.2</text><text text-anchor="middle" transform="translate(223.4375,76.97727272727272)" style="font-family: sans-serif; font-size: 15px; fill: #72b7b2;">6.2</text><text text-anchor="middle" transform="translate(257.8125,77.16666666666667)" style="font-family: sans-serif; font-size: 15px; fill: #72b7b2;">6.1</text></g><g class="mark-group role-title"><g transform="translate(137.5,-24)"><path class="background" d="M0,0h0v0h0Z" style="pointer-events: none; fill: none;"></path><g><g class="mark-text role-title-text" style="pointer-events: none;"><text text-anchor="middle" transform="translate(0,11)" style="font-family: sans-serif; font-size: 14px; fill: #000; opacity: 1;">Muertes</text></g></g><path class="foreground" d="" style="pointer-events: none; display: none; fill: none;"></path></g></g></g><path class="foreground" d="" style="display: none; fill: none;"></path></g></g></g><path class="foreground" d="" style="display: none; fill: none;"></path></g></g></g></svg>