<svg class="marks" width="655" height="311" viewBox="0 0 655 311" version="1.1" xmlns="http://www.w3.org/2000/svg" xmlns:xlink="http://www.w3.org/1999/xlink"><rect width="655" height="311" style="fill: white;"></rect><g transform="translate(64,10)"><g class="mark-group role-frame root"><g transform="translate(0,0)"><path class="background" d="M0,0h0v0h0Z" style="fill: none;"></path><g><g class="mark-group role-row-header row_header"><g transform="translate(-1,0)"><path class="background" d="M0,0h0v70h0Z" style="fill: none;"></path><g><g class="mark-group role-title"><g transform="translate(-57.455078125,35)"><path class="background" d="M0,0h0v0h0Z" style="pointer-events: none; fill: none;"></path><g><g class="mark-text role-title-text" style="pointer-events: none;"><text text-anchor="middle" transform="translate(0,0) rotate(-90) translate(0,11)" style="font-family: sans-serif; font-size: 14px; fill: #000; opacity: 1;">Confirmados</text></g></g><path class="foreground" d="" style="pointer-events: none; display: none; fill: none;"></path></g></g><g class="mark-group role-axis"><g transform="translate(0.5,0.5)"><path class="background" d="M0,0h0v0h0Z" style="pointer-events: none; fill: none;"></path><g><g class="mark-rule role-axis-tick" style="pointer-events: none;"><line transform="translate(0,35)" x2="-5" y2="0" style="fill: none; stroke: #888; stroke-width: 1; opacity: 1;"></line></g><g class="mark-text role-axis-label" style="pointer-events: none;"><text text-anchor="end" transform="translate(-7,38.5)" style="font-family: sans-serif; font-size: 14px; fill: #000; opacity: 1;">abril</text></g><g class="mark-rule role-axis-domain" style="pointer-events: none;"><line transform="translate(0,0)" x2="0" y2="70" style="fill: none; stroke: #888; stroke-width: 1; opacity: 1;"></line></g></g><path class="foreground" d="" style="pointer-events: none; display: none; fill: none;"></path></g></g></g><path class="foreground" d="" style="display: none; fill: none;"></path></g><g transform="translate(-1,92)"><path class="background" d="M0,0h0v70h0Z" style="fill: none;"></path><g><g class="mark-group role-title"><g transform="translate(-57.455078125,35)"><path class="background" d="M0,0h0v0h0Z" style="pointer-events: none; fill: none;"></path><g><g class="mark-text role-title-text" style="pointer-events: none;"><text text-anchor="middle" transform="translate(0,0) rotate(-90) translate(0,11)" style="font-family: sans-serif; font-size: 14px; fill: #000; opacity: 1;">Probables</text></g></g><path class="foreground" d="" style="pointer-events: none; display: none; fill: none;"></path></g></g><g class="mark-group role-axis"><g transform="translate(0.5,0.5)"><path class="background" d="M0,0h0v0h0Z" style="pointer-events: none; fill: none;"></path><g><g class="mark-rule role-axis-tick" style="pointer-events: none;"><line transform="translate(0,35)" x2="-5" y2="0" style="fill: none; stroke: #888; stroke-width: 1; opacity: 1;"></line></g><g class="mark-text role-axis-label" style="pointer-events: none;"><text text-anchor="end" transform="translate(-7,38.5)" style="font-family: sans-serif; font-size: 14px; fill: #000; opacity: 1;">abril</text></g><g class="mark-rule role-axis-domain" style="pointer-events: none;"><line transform="translate(0,0)" x2="0" y2="70" style="fill: none; stroke: #888; stroke-width: 1; opacity: 1;"></line></g></g><path class="foreground" d="" style="pointer-events: none; display: none; fill: none;"></path></g></g></g><path class="foreground" d="" style="display: none; fill: none;"></path></g><g transform="translate(-1,184)"><path class="background" d="M0,0h0v70h0Z" style="fill: none;"></path><g><g class="mark-group role-title"><g transform="translate(-57.455078125,35)"><path class="background" d="M0,0h0v0h0Z" style="pointer-events: none; fill: none;"></path><g><g class="mark-text role-title-text" style="pointer-events: none;"><text text-anchor="middle" transform="translate(0,0) rotate(-90) translate(0,11)" style="font-family: sans-serif; font-size: 14px; fill: #000; opacity: 1;">Muertes</text></g></g><path class="foreground" d="" style="pointer-events: none; display: none; fill: none;"></path></g></g><g class="mark-group role-axis"><g transform="translate(0.5,0.5)"><path class="background" d="M0,0h0v0h0Z" style="pointer-events: none; fill: none;"></path><g><g class="mark-rule role-axis-tick" style="pointer-events: none;"><line transform="translate(0,35)" x2="-5" y2="0" style="fill: none; stroke: #888; stroke-width: 1; opacity: 1;"></line></g><g class="mark-text role-axis-label" style="pointer-events: none;"><text text-anchor="end" transform="translate(-7,38.5)" style="font-family: sans-serif; font-size: 14px; fill: #000; opacity: 1;">abril</text></g><g class="mark-rule role-axis-domain" style="pointer-events: none;"><line transform="translate(0,0)" x2="0" y2="70" style="fill: none; stroke: #888; stroke-width: 1; opacity: 1;"></line></g></g><path class="foreground" d="" style="pointer-events: none; display: none; fill: none;"></path></g></g></g><path class="foreground" d="" style="display: none; fill: none;"></path></g></g><g class="mark-group role-column-footer column_footer"><g transform="translate(0,255)"><path class="background" d="M0,0h585v0h-585Z" style="fill: none;"></path><g><g class="mark-group role-axis"><g transform="translate(0.5,0.5)"><path class="background" d="M0,0h0v0h0Z" style="pointer-events: none; fill: none;"></path><g><g class="mark-rule role-axis-tick" style="pointer-events: none;"><line transform="translate(16,0)" x2="0" y2="5" style="fill: none; stroke: #888; stroke-width: 1; opacity: 1;"></line><line transform="translate(48,0)" x2="0" y2="5" style="fill: none; stroke: #888; stroke-width: 1; opacity: 1;"></line><line transform="translate(81,0)" x2="0" y2="5" style="fill: none; stroke: #888; stroke-width: 1; opacity: 1;"></line><line transform="translate(113,0)" x2="0" y2="5" style="fill: none; stroke: #888; stroke-width: 1; opacity: 1;"></line><line transform="translate(146,0)" x2="0" y2="5" style="fill: none; stroke: #888; stroke-width: 1; opacity: 1;"></line><line transform="translate(178,0)" x2="0" y2="5" style="fill: none; stroke: #888; stroke-width: 1; opacity: 1;"></line><line transform="translate(211,0)" x2="0" y2="5" style="fill: none; stroke: #888; stroke-width: 1; opacity: 1;"></line><line transform="translate(243,0)" x2="0" y2="5" style="fill: none; stroke: #888; stroke-width: 1; opacity: 1;"></line><line transform="translate(276,0)" x2="0" y2="5" style="fill: none; stroke: #888; stroke-width: 1; opacity: 1;"></line><line transform="translate(308,0)" x2="0" y2="5" style="fill: none; stroke: #888; stroke-width: 1; opacity: 1;"></line><line transform="translate(341,0)" x2="0" y2="5" style="fill: none; stroke: #888; stroke-width: 1; opacity: 1;"></line><line transform="translate(373,0)" x2="0" y2="5" style="fill: none; stroke: #888; stroke-width: 1; opacity: 1;"></line><line transform="translate(406,0)" x2="0" y2="5" style="fill: none; stroke: #888; stroke-width: 1; opacity: 1;"></line><line transform="translate(438,0)" x2="0" y2="5" style="fill: none; stroke: #888; stroke-width: 1; opacity: 1;"></line><line transform="translate(471,0)" x2="0" y2="5" style="fill: none; stroke: #888; stroke-width: 1; opacity: 1;"></line><line transform="translate(503,0)" x2="0" y2="5" style="fill: none; stroke: #888; stroke-width: 1; opacity: 1;"></line><line transform="translate(536,0)" x2="0" y2="5" style="fill: none; stroke: #888; stroke-width: 1; opacity: 1;"></line><line transform="translate(568,0)" x2="0" y2="5" style="fill: none; stroke: #888; stroke-width: 1; opacity: 1;"></line></g><g class="mark-text role-axis-label" style="pointer-events: none;"><text text-anchor="end" transform="translate(15.75,7) rotate(270) translate(0,4)" style="font-family: sans-serif; font-size: 14px; fill: #000; opacity: 1;">04</text><text text-anchor="end" transform="translate(48.25,7) rotate(270) translate(0,4)" style="font-family: sans-serif; font-size: 14px; fill: #000; opacity: 1;">08</text><text text-anchor="end" transform="translate(80.75,7) rotate(270) translate(0,4)" style="font-family: sans-serif; font-size: 14px; fill: #000; opacity: 1;">10</text><text text-anchor="end" transform="translate(113.25,7) rotate(270) translate(0,4)" style="font-family: sans-serif; font-size: 14px; fill: #000; opacity: 1;">13</text><text text-anchor="end" transform="translate(145.75,7) rotate(270) translate(0,4)" style="font-family: sans-serif; font-size: 14px; fill: #000; opacity: 1;">14</text><text text-anchor="end" transform="translate(178.25,7) rotate(270) translate(0,4)" style="font-family: sans-serif; font-size: 14px; fill: #000; opacity: 1;">15</text><text text-anchor="end" transform="translate(210.75,7) rotate(270) translate(0,4)" style="font-family: sans-serif; font-size: 14px; fill: #000; opacity: 1;">16</text><text text-anchor="end" transform="translate(243.25,7) rotate(270) translate(0,4)" style="font-family: sans-serif; font-size: 14px; fill: #000; opacity: 1;">17</text><text text-anchor="end" transform="translate(275.75,7) rotate(270) translate(0,4)" style="font-family: sans-serif; font-size: 14px; fill: #000; opacity: 1;">18</text><text text-anchor="end" transform="translate(308.25,7) rotate(270) translate(0,4)" style="font-family: sans-serif; font-size: 14px; fill: #000; opacity: 1;">19</text><text text-anchor="end" transform="translate(340.75,7) rotate(270) translate(0,4)" style="font-family: sans-serif; font-size: 14px; fill: #000; opacity: 1;">20</text><text text-anchor="end" transform="translate(373.25,7) rotate(270) translate(0,4)" style="font-family: sans-serif; font-size: 14px; fill: #000; opacity: 1;">21</text><text text-anchor="end" transform="translate(405.75,7) rotate(270) translate(0,4)" style="font-family: sans-serif; font-size: 14px; fill: #000; opacity: 1;">22</text><text text-anchor="end" transform="translate(438.25,7) rotate(270) translate(0,4)" style="font-family: sans-serif; font-size: 14px; fill: #000; opacity: 1;">23</text><text text-anchor="end" transform="translate(470.75,7) rotate(270) translate(0,4)" style="font-family: sans-serif; font-size: 14px; fill: #000; opacity: 1;">24</text><text text-anchor="end" transform="translate(503.25,7) rotate(270) translate(0,4)" style="font-family: sans-serif; font-size: 14px; fill: #000; opacity: 1;">25</text><text text-anchor="end" transform="translate(535.75,7) rotate(270) translate(0,4)" style="font-family: sans-serif; font-size: 14px; fill: #000; opacity: 1;">26</text><text text-anchor="end" transform="translate(568.25,7) rotate(270) translate(0,4)" style="font-family: sans-serif; font-size: 14px; fill: #000; opacity: 1;">27</text></g><g class="mark-rule role-axis-domain" style="pointer-events: none;"><line transform="translate(0,0)" x2="585" y2="0" style="fill: none; stroke: #888; stroke-width: 1; opacity: 1;"></line></g><g class="mark-text role-axis-title" style="pointer-events: none;"><text text-anchor="middle" transform="translate(292.5,37.572265625)" style="font-family: sans-serif; font-size: 14px; font-weight: bold; fill: #000; opacity: 1;">Día del mes</text></g></g><path class="foreground" d="" style="pointer-events: none; display: none; fill: none;"></path></g></g></g><path class="foreground" d="" style="display: none; fill: none;"></path></g></g><g class="mark-group role-scope cell"><g transform="translate(0,0)"><path class="background" d="M0.5,0.5h585v70h-585Z" style="fill: none; stroke: #ddd;"></path><g><g class="mark-rect role-mark child_layer_0_marks"><path d="M32.5,0h32.5v70h-32.5Z" style="fill: rgb(242, 238, 236);"></path><path d="M97.5,0h32.5v70h-32.5Z" style="fill: rgb(234, 232, 231);"></path><path d="M130,0h32.5v70h-32.5Z" style="fill: rgb(242, 238, 236);"></path><path d="M162.5,0h32.5v70h-32.5Z" style="fill: rgb(150, 150, 150);"></path><path d="M195,0h32.5v70h-32.5Z" style="fill: rgb(215, 215, 215);"></path><path d="M227.5,0h32.5v70h-32.5Z" style="fill: rgb(164, 164, 164);"></path><path d="M260,0h32.5v70h-32.5Z" style="fill: rgb(242, 238, 236);"></path><path d="M357.5,0h32.5v70h-32.5Z" style="fill: rgb(178, 178, 178);"></path><path d="M390,0h32.5v70h-32.5Z" style="fill: rgb(234, 232, 231);"></path><path d="M422.5,0h32.5v70h-32.5Z" style="fill: rgb(117, 117, 117);"></path><path d="M455,0h32.5v70h-32.5Z" style="fill: rgb(203, 203, 203);"></path></g><g class="mark-text role-mark child_layer_1_marks"><text text-anchor="middle" transform="translate(48.75,38)" style="font-family: sans-serif; font-size: 9px; fill: black;">1</text><text text-anchor="middle" transform="translate(113.75,38)" style="font-family: sans-serif; font-size: 9px; fill: black;">2</text><text text-anchor="middle" transform="translate(146.25,38)" style="font-family: sans-serif; font-size: 9px; fill: black;">1</text><text text-anchor="middle" transform="translate(178.75,38)" style="font-family: sans-serif; font-size: 9px; fill: white;">9</text><text text-anchor="middle" transform="translate(211.25,38)" style="font-family: sans-serif; font-size: 9px; fill: black;">4</text><text text-anchor="middle" transform="translate(243.75,38)" style="font-family: sans-serif; font-size: 9px; fill: white;">8</text><text text-anchor="middle" transform="translate(276.25,38)" style="font-family: sans-serif; font-size: 9px; fill: black;">1</text><text text-anchor="middle" transform="translate(373.75,38)" style="font-family: sans-serif; font-size: 9px; fill: black;">7</text><text text-anchor="middle" transform="translate(406.25,38)" style="font-family: sans-serif; font-size: 9px; fill: black;">2</text><text text-anchor="middle" transform="translate(438.75,38)" style="font-family: sans-serif; font-size: 9px; fill: white;">11</text><text text-anchor="middle" transform="translate(471.25,38)" style="font-family: sans-serif; font-size: 9px; fill: black;">5</text></g></g><path class="foreground" d="" style="display: none; fill: none;"></path></g><g transform="translate(0,92)"><path class="background" d="M0.5,0.5h585v70h-585Z" style="fill: none; stroke: #ddd;"></path><g><g class="mark-rect role-mark child_layer_0_marks"><path d="M65,0h32.5v70h-32.5Z" style="fill: rgb(247, 189, 164);"></path><path d="M97.5,0h32.5v70h-32.5Z" style="fill: rgb(242, 238, 236);"></path><path d="M130,0h32.5v70h-32.5Z" style="fill: rgb(247, 189, 164);"></path><path d="M195,0h32.5v70h-32.5Z" style="fill: rgb(247, 189, 164);"></path><path d="M227.5,0h32.5v70h-32.5Z" style="fill: rgb(247, 189, 164);"></path><path d="M325,0h32.5v70h-32.5Z" style="fill: rgb(215, 215, 215);"></path><path d="M357.5,0h32.5v70h-32.5Z" style="fill: rgb(140, 13, 37);"></path><path d="M390,0h32.5v70h-32.5Z" style="fill: rgb(150, 150, 150);"></path><path d="M422.5,0h32.5v70h-32.5Z" style="fill: rgb(52, 52, 52);"></path><path d="M455,0h32.5v70h-32.5Z" style="fill: rgb(100, 100, 100);"></path><path d="M487.5,0h32.5v70h-32.5Z" style="fill: rgb(226, 226, 226);"></path><path d="M552.5,0h32.5v70h-32.5Z" style="fill: rgb(164, 164, 164);"></path></g><g class="mark-text role-mark child_layer_1_marks"><text text-anchor="middle" transform="translate(81.25,38)" style="font-family: sans-serif; font-size: 9px; fill: black;">-1</text><text text-anchor="middle" transform="translate(113.75,38)" style="font-family: sans-serif; font-size: 9px; fill: black;">1</text><text text-anchor="middle" transform="translate(146.25,38)" style="font-family: sans-serif; font-size: 9px; fill: black;">-1</text><text text-anchor="middle" transform="translate(211.25,38)" style="font-family: sans-serif; font-size: 9px; fill: black;">-1</text><text text-anchor="middle" transform="translate(243.75,38)" style="font-family: sans-serif; font-size: 9px; fill: black;">-1</text><text text-anchor="middle" transform="translate(341.25,38)" style="font-family: sans-serif; font-size: 9px; fill: black;">4</text><text text-anchor="middle" transform="translate(373.75,38)" style="font-family: sans-serif; font-size: 9px; fill: white;">-3</text><text text-anchor="middle" transform="translate(406.25,38)" style="font-family: sans-serif; font-size: 9px; fill: white;">9</text><text text-anchor="middle" transform="translate(438.75,38)" style="font-family: sans-serif; font-size: 9px; fill: white;">15</text><text text-anchor="middle" transform="translate(471.25,38)" style="font-family: sans-serif; font-size: 9px; fill: white;">12</text><text text-anchor="middle" transform="translate(503.75,38)" style="font-family: sans-serif; font-size: 9px; fill: black;">3</text><text text-anchor="middle" transform="translate(568.75,38)" style="font-family: sans-serif; font-size: 9px; fill: white;">8</text></g></g><path class="foreground" d="" style="display: none; fill: none;"></path></g><g transform="translate(0,184)"><path class="background" d="M0.5,0.5h585v70h-585Z" style="fill: none; stroke: #ddd;"></path><g><g class="mark-rect role-mark child_layer_0_marks"><path d="M0,0h32.5v70h-32.5Z" style="fill: rgb(242, 238, 236);"></path><path d="M292.5,0h32.5v70h-32.5Z" style="fill: rgb(242, 238, 236);"></path><path d="M390,0h32.5v70h-32.5Z" style="fill: rgb(242, 238, 236);"></path><path d="M455,0h32.5v70h-32.5Z" style="fill: rgb(242, 238, 236);"></path><path d="M520,0h32.5v70h-32.5Z" style="fill: rgb(234, 232, 231);"></path></g><g class="mark-text role-mark child_layer_1_marks"><text text-anchor="middle" transform="translate(16.25,38)" style="font-family: sans-serif; font-size: 9px; fill: black;">1</text><text text-anchor="middle" transform="translate(308.75,38)" style="font-family: sans-serif; font-size: 9px; fill: black;">1</text><text text-anchor="middle" transform="translate(406.25,38)" style="font-family: sans-serif; font-size: 9px; fill: black;">1</text><text text-anchor="middle" transform="translate(471.25,38)" style="font-family: sans-serif; font-size: 9px; fill: black;">1</text><text text-anchor="middle" transform="translate(536.25,38)" style="font-family: sans-serif; font-size: 9px; fill: black;">2</text></g></g><path class="foreground" d="" style="display: none; fill: none;"></path></g></g></g><path class="foreground" d="" style="display: none; fill: none;"></path></g></g></g></svg>