<svg class="marks" width="663" height="495" viewBox="0 0 663 495" version="1.1" xmlns="http://www.w3.org/2000/svg" xmlns:xlink="http://www.w3.org/1999/xlink"><rect width="663" height="495" style="fill: white;"></rect><g transform="translate(55,69)"><g class="mark-group role-frame root"><g transform="translate(0,0)"><path class="background" d="M0.5,0.5h600v400h-600Z" style="fill: none; stroke: #ddd;"></path><g><g class="mark-group role-axis"><g transform="translate(0.5,400.5)"><path class="background" d="M0,0h0v0h0Z" style="pointer-events: none; fill: none;"></path><g><g class="mark-rule role-axis-grid" style="pointer-events: none;"><line transform="translate(0,-400)" x2="0" y2="400" style="fill: none; stroke: #ddd; stroke-width: 1; opacity: 1;"></line><line transform="translate(24,-400)" x2="0" y2="400" style="fill: none; stroke: #ddd; stroke-width: 1; opacity: 1;"></line><line transform="translate(49,-400)" x2="0" y2="400" style="fill: none; stroke: #ddd; stroke-width: 1; opacity: 1;"></line><line transform="translate(73,-400)" x2="0" y2="400" style="fill: none; stroke: #ddd; stroke-width: 1; opacity: 1;"></line><line transform="translate(98,-400)" x2="0" y2="400" style="fill: none; stroke: #ddd; stroke-width: 1; opacity: 1;"></line><line transform="translate(122,-400)" x2="0" y2="400" style="fill: none; stroke: #ddd; stroke-width: 1; opacity: 1;"></line><line transform="translate(147,-400)" x2="0" y2="400" style="fill: none; stroke: #ddd; stroke-width: 1; opacity: 1;"></line><line transform="translate(171,-400)" x2="0" y2="400" style="fill: none; stroke: #ddd; stroke-width: 1; opacity: 1;"></line><line transform="translate(196,-400)" x2="0" y2="400" style="fill: none; stroke: #ddd; stroke-width: 1; opacity: 1;"></line><line transform="translate(220,-400)" x2="0" y2="400" style="fill: none; stroke: #ddd; stroke-width: 1; opacity: 1;"></line><line transform="translate(245,-400)" x2="0" y2="400" style="fill: none; stroke: #ddd; stroke-width: 1; opacity: 1;"></line><line transform="translate(269,-400)" x2="0" y2="400" style="fill: none; stroke: #ddd; stroke-width: 1; opacity: 1;"></line><line transform="translate(282,-400)" x2="0" y2="400" style="fill: none; stroke: #ddd; stroke-width: 1; opacity: 1;"></line><line transform="translate(306,-400)" x2="0" y2="400" style="fill: none; stroke: #ddd; stroke-width: 1; opacity: 1;"></line><line transform="translate(331,-400)" x2="0" y2="400" style="fill: none; stroke: #ddd; stroke-width: 1; opacity: 1;"></line><line transform="translate(355,-400)" x2="0" y2="400" style="fill: none; stroke: #ddd; stroke-width: 1; opacity: 1;"></line><line transform="translate(380,-400)" x2="0" y2="400" style="fill: none; stroke: #ddd; stroke-width: 1; opacity: 1;"></line><line transform="translate(404,-400)" x2="0" y2="400" style="fill: none; stroke: #ddd; stroke-width: 1; opacity: 1;"></line><line transform="translate(429,-400)" x2="0" y2="400" style="fill: none; stroke: #ddd; stroke-width: 1; opacity: 1;"></line><line transform="translate(453,-400)" x2="0" y2="400" style="fill: none; stroke: #ddd; stroke-width: 1; opacity: 1;"></line><line transform="translate(478,-400)" x2="0" y2="400" style="fill: none; stroke: #ddd; stroke-width: 1; opacity: 1;"></line><line transform="translate(502,-400)" x2="0" y2="400" style="fill: none; stroke: #ddd; stroke-width: 1; opacity: 1;"></line><line transform="translate(527,-400)" x2="0" y2="400" style="fill: none; stroke: #ddd; stroke-width: 1; opacity: 1;"></line><line transform="translate(551,-400)" x2="0" y2="400" style="fill: none; stroke: #ddd; stroke-width: 1; opacity: 1;"></line><line transform="translate(576,-400)" x2="0" y2="400" style="fill: none; stroke: #ddd; stroke-width: 1; opacity: 1;"></line><line transform="translate(600,-400)" x2="0" y2="400" style="fill: none; stroke: #ddd; stroke-width: 1; opacity: 1;"></line></g></g><path class="foreground" d="" style="pointer-events: none; display: none; fill: none;"></path></g></g><g class="mark-group role-axis"><g transform="translate(0.5,0.5)"><path class="background" d="M0,0h0v0h0Z" style="pointer-events: none; fill: none;"></path><g><g class="mark-rule role-axis-grid" style="pointer-events: none;"><line transform="translate(0,400)" x2="600" y2="0" style="fill: none; stroke: #ddd; stroke-width: 1; opacity: 1;"></line><line transform="translate(0,370)" x2="600" y2="0" style="fill: none; stroke: #ddd; stroke-width: 1; opacity: 1;"></line><line transform="translate(0,352)" x2="600" y2="0" style="fill: none; stroke: #ddd; stroke-width: 1; opacity: 1;"></line><line transform="translate(0,340)" x2="600" y2="0" style="fill: none; stroke: #ddd; stroke-width: 1; opacity: 1;"></line><line transform="translate(0,330)" x2="600" y2="0" style="fill: none; stroke: #ddd; stroke-width: 1; opacity: 1;"></line><line transform="translate(0,322)" x2="600" y2="0" style="fill: none; stroke: #ddd; stroke-width: 1; opacity: 1;"></line><line transform="translate(0,315)" x2="600" y2="0" style="fill: none; stroke: #ddd; stroke-width: 1; opacity: 1;"></line><line transform="translate(0,310)" x2="600" y2="0" style="fill: none; stroke: #ddd; stroke-width: 1; opacity: 1;"></line><line transform="translate(0,305)" x2="600" y2="0" style="fill: none; stroke: #ddd; stroke-width: 1; opacity: 1;"></line><line transform="translate(0,300)" x2="600" y2="0" style="fill: none; stroke: #ddd; stroke-width: 1; opacity: 1;"></line><line transform="translate(0,270)" x2="600" y2="0" style="fill: none; stroke: #ddd; stroke-width: 1; opacity: 1;"></line><line transform="translate(0,252)" x2="600" y2="0" style="fill: none; stroke: #ddd; stroke-width: 1; opacity: 1;"></line><line transform="translate(0,240)" x2="600" y2="0" style="fill: none; stroke: #ddd; stroke-width: 1; opacity: 1;"></line><line transform="translate(0,230)" x2="600" y2="0" style="fill: none; stroke: #ddd; stroke-width: 1; opacity: 1;"></line><line transform="translate(0,222)" x2="600" y2="0" style="fill: none; stroke: #ddd; stroke-width: 1; opacity: 1;"></line><line transform="translate(0,215)" x2="600" y2="0" style="fill: none; stroke: #ddd; stroke-width: 1; opacity: 1;"></line><line transform="translate(0,210)" x2="600" y2="0" style="fill: none; stroke: #ddd; stroke-width: 1; opacity: 1;"></line><line transform="translate(0,205)" x2="600" y2="0" style="fill: none; stroke: #ddd; stroke-width: 1; opacity: 1;"></line><line transform="translate(0,200)" x2="600" y2="0" style="fill: none; stroke: #ddd; stroke-width: 1; opacity: 1;"></line><line transform="translate(0,170)" x2="600" y2="0" style="fill: none; stroke: #ddd; stroke-width: 1; opacity: 1;"></line><line transform="translate(0,152)" x2="600" y2="0" style="fill: none; stroke: #ddd; stroke-width: 1; opacity: 1;"></line><line transform="translate(0,140)" x2="600" y2="0" style="fill: none; stroke: #ddd; stroke-width: 1; opacity: 1;"></line><line transform="translate(0,130)" x2="600" y2="0" style="fill: none; stroke: #ddd; stroke-width: 1; opacity: 1;"></line><line transform="translate(0,122)" x2="600" y2="0" style="fill: none; stroke: #ddd; stroke-width: 1; opacity: 1;"></line><line transform="translate(0,115)" x2="600" y2="0" style="fill: none; stroke: #ddd; stroke-width: 1; opacity: 1;"></line><line transform="translate(0,110)" x2="600" y2="0" style="fill: none; stroke: #ddd; stroke-width: 1; opacity: 1;"></line><line transform="translate(0,105)" x2="600" y2="0" style="fill: none; stroke: #ddd; stroke-width: 1; opacity: 1;"></line><line transform="translate(0,100)" x2="600" y2="0" style="fill: none; stroke: #ddd; stroke-width: 1; opacity: 1;"></line><line transform="translate(0,70)" x2="600" y2="0" style="fill: none; stroke: #ddd; stroke-width: 1; opacity: 1;"></line><line transform="translate(0,52)" x2="600" y2="0" style="fill: none; stroke: #ddd; stroke-width: 1; opacity: 1;"></line><line transform="translate(0,40)" x2="600" y2="0" style="fill: none; stroke: #ddd; stroke-width: 1; opacity: 1;"></line><line transform="translate(0,30)" x2="600" y2="0" style="fill: none; stroke: #ddd; stroke-width: 1; opacity: 1;"></line><line transform="translate(0,22)" x2="600" y2="0" style="fill: none; stroke: #ddd; stroke-width: 1; opacity: 1;"></line><line transform="translate(0,15)" x2="600" y2="0" style="fill: none; stroke: #ddd; stroke-width: 1; opacity: 1;"></line><line transform="translate(0,10)" x2="600" y2="0" style="fill: none; stroke: #ddd; stroke-width: 1; opacity: 1;"></line><line transform="translate(0,5)" x2="600" y2="0" style="fill: none; stroke: #ddd; stroke-width: 1; opacity: 1;"></line><line transform="translate(0,0)" x2="600" y2="0" style="fill: none; stroke: #ddd; stroke-width: 1; opacity: 1;"></line></g></g><path class="foreground" d="" style="pointer-events: none; display: none; fill: none;"></path></g></g><g class="mark-group role-axis"><g transform="translate(0.5,400.5)"><path class="background" d="M0,0h0v0h0Z" style="pointer-events: none; fill: none;"></path><g><g class="mark-rule role-axis-tick" style="pointer-events: none;"><line transform="translate(0,0)" x2="0" y2="5" style="fill: none; stroke: #888; stroke-width: 1; opacity: 1;"></line><line transform="translate(24,0)" x2="0" y2="5" style="fill: none; stroke: #888; stroke-width: 1; opacity: 1;"></line><line transform="translate(49,0)" x2="0" y2="5" style="fill: none; stroke: #888; stroke-width: 1; opacity: 1;"></line><line transform="translate(73,0)" x2="0" y2="5" style="fill: none; stroke: #888; stroke-width: 1; opacity: 1;"></line><line transform="translate(98,0)" x2="0" y2="5" style="fill: none; stroke: #888; stroke-width: 1; opacity: 1;"></line><line transform="translate(122,0)" x2="0" y2="5" style="fill: none; stroke: #888; stroke-width: 1; opacity: 1;"></line><line transform="translate(147,0)" x2="0" y2="5" style="fill: none; stroke: #888; stroke-width: 1; opacity: 1;"></line><line transform="translate(171,0)" x2="0" y2="5" style="fill: none; stroke: #888; stroke-width: 1; opacity: 1;"></line><line transform="translate(196,0)" x2="0" y2="5" style="fill: none; stroke: #888; stroke-width: 1; opacity: 1;"></line><line transform="translate(220,0)" x2="0" y2="5" style="fill: none; stroke: #888; stroke-width: 1; opacity: 1;"></line><line transform="translate(245,0)" x2="0" y2="5" style="fill: none; stroke: #888; stroke-width: 1; opacity: 1;"></line><line transform="translate(269,0)" x2="0" y2="5" style="fill: none; stroke: #888; stroke-width: 1; opacity: 1;"></line><line transform="translate(282,0)" x2="0" y2="5" style="fill: none; stroke: #888; stroke-width: 1; opacity: 1;"></line><line transform="translate(306,0)" x2="0" y2="5" style="fill: none; stroke: #888; stroke-width: 1; opacity: 1;"></line><line transform="translate(331,0)" x2="0" y2="5" style="fill: none; stroke: #888; stroke-width: 1; opacity: 1;"></line><line transform="translate(355,0)" x2="0" y2="5" style="fill: none; stroke: #888; stroke-width: 1; opacity: 1;"></line><line transform="translate(380,0)" x2="0" y2="5" style="fill: none; stroke: #888; stroke-width: 1; opacity: 1;"></line><line transform="translate(404,0)" x2="0" y2="5" style="fill: none; stroke: #888; stroke-width: 1; opacity: 1;"></line><line transform="translate(429,0)" x2="0" y2="5" style="fill: none; stroke: #888; stroke-width: 1; opacity: 1;"></line><line transform="translate(453,0)" x2="0" y2="5" style="fill: none; stroke: #888; stroke-width: 1; opacity: 1;"></line><line transform="translate(478,0)" x2="0" y2="5" style="fill: none; stroke: #888; stroke-width: 1; opacity: 1;"></line><line transform="translate(502,0)" x2="0" y2="5" style="fill: none; stroke: #888; stroke-width: 1; opacity: 1;"></line><line transform="translate(527,0)" x2="0" y2="5" style="fill: none; stroke: #888; stroke-width: 1; opacity: 1;"></line><line transform="translate(551,0)" x2="0" y2="5" style="fill: none; stroke: #888; stroke-width: 1; opacity: 1;"></line><line transform="translate(576,0)" x2="0" y2="5" style="fill: none; stroke: #888; stroke-width: 1; opacity: 1;"></line><line transform="translate(600,0)" x2="0" y2="5" style="fill: none; stroke: #888; stroke-width: 1; opacity: 1;"></line></g><g class="mark-text role-axis-label" style="pointer-events: none;"><text text-anchor="start" transform="translate(0,18)" style="font-family: sans-serif; font-size: 14px; fill: #000; opacity: 1;">09/03</text><text text-anchor="middle" transform="translate(24.489795918367346,18)" style="font-family: sans-serif; font-size: 14px; fill: #000; opacity: 0;">11/03</text><text text-anchor="middle" transform="translate(48.97959183673469,18)" style="font-family: sans-serif; font-size: 14px; fill: #000; opacity: 0;">13/03</text><text text-anchor="middle" transform="translate(73.46938775510203,18)" style="font-family: sans-serif; font-size: 14px; fill: #000; opacity: 0;">15/03</text><text text-anchor="middle" transform="translate(97.95918367346938,18)" style="font-family: sans-serif; font-size: 14px; fill: #000; opacity: 1;">17/03</text><text text-anchor="middle" transform="translate(122.44897959183673,18)" style="font-family: sans-serif; font-size: 14px; fill: #000; opacity: 0;">19/03</text><text text-anchor="middle" transform="translate(146.93877551020407,18)" style="font-family: sans-serif; font-size: 14px; fill: #000; opacity: 0;">21/03</text><text text-anchor="middle" transform="translate(171.42857142857142,18)" style="font-family: sans-serif; font-size: 14px; fill: #000; opacity: 0;">23/03</text><text text-anchor="middle" transform="translate(195.91836734693877,18)" style="font-family: sans-serif; font-size: 14px; fill: #000; opacity: 1;">25/03</text><text text-anchor="middle" transform="translate(220.40816326530614,18)" style="font-family: sans-serif; font-size: 14px; fill: #000; opacity: 0;">27/03</text><text text-anchor="middle" transform="translate(244.89795918367346,18)" style="font-family: sans-serif; font-size: 14px; fill: #000; opacity: 0;">29/03</text><text text-anchor="middle" transform="translate(269.38775510204084,18)" style="font-family: sans-serif; font-size: 14px; fill: #000; opacity: 0;">31/03</text><text text-anchor="middle" transform="translate(281.6326530612245,18)" style="font-family: sans-serif; font-size: 14px; fill: #000; opacity: 1;">01/04</text><text text-anchor="middle" transform="translate(306.12244897959187,18)" style="font-family: sans-serif; font-size: 14px; fill: #000; opacity: 0;">03/04</text><text text-anchor="middle" transform="translate(330.61224489795916,18)" style="font-family: sans-serif; font-size: 14px; fill: #000; opacity: 0;">05/04</text><text text-anchor="middle" transform="translate(355.1020408163265,18)" style="font-family: sans-serif; font-size: 14px; fill: #000; opacity: 0;">07/04</text><text text-anchor="middle" transform="translate(379.5918367346939,18)" style="font-family: sans-serif; font-size: 14px; fill: #000; opacity: 1;">09/04</text><text text-anchor="middle" transform="translate(404.0816326530612,18)" style="font-family: sans-serif; font-size: 14px; fill: #000; opacity: 0;">11/04</text><text text-anchor="middle" transform="translate(428.57142857142856,18)" style="font-family: sans-serif; font-size: 14px; fill: #000; opacity: 0;">13/04</text><text text-anchor="middle" transform="translate(453.0612244897959,18)" style="font-family: sans-serif; font-size: 14px; fill: #000; opacity: 0;">15/04</text><text text-anchor="middle" transform="translate(477.55102040816325,18)" style="font-family: sans-serif; font-size: 14px; fill: #000; opacity: 1;">17/04</text><text text-anchor="middle" transform="translate(502.04081632653066,18)" style="font-family: sans-serif; font-size: 14px; fill: #000; opacity: 0;">19/04</text><text text-anchor="middle" transform="translate(526.530612244898,18)" style="font-family: sans-serif; font-size: 14px; fill: #000; opacity: 0;">21/04</text><text text-anchor="middle" transform="translate(551.0204081632653,18)" style="font-family: sans-serif; font-size: 14px; fill: #000; opacity: 0;">23/04</text><text text-anchor="middle" transform="translate(575.5102040816327,18)" style="font-family: sans-serif; font-size: 14px; fill: #000; opacity: 1;">25/04</text><text text-anchor="end" transform="translate(600,18)" style="font-family: sans-serif; font-size: 14px; fill: #000; opacity: 0;">27/04</text></g><g class="mark-rule role-axis-domain" style="pointer-events: none;"><line transform="translate(0,0)" x2="600" y2="0" style="fill: none; stroke: #888; stroke-width: 1; opacity: 1;"></line></g></g><path class="foreground" d="" style="pointer-events: none; display: none; fill: none;"></path></g></g><g class="mark-group role-axis"><g transform="translate(0.5,0.5)"><path class="background" d="M0,0h0v0h0Z" style="pointer-events: none; fill: none;"></path><g><g class="mark-rule role-axis-tick" style="pointer-events: none;"><line transform="translate(0,400)" x2="-5" y2="0" style="fill: none; stroke: #888; stroke-width: 1; opacity: 1;"></line><line transform="translate(0,370)" x2="-5" y2="0" style="fill: none; stroke: #888; stroke-width: 1; opacity: 1;"></line><line transform="translate(0,352)" x2="-5" y2="0" style="fill: none; stroke: #888; stroke-width: 1; opacity: 1;"></line><line transform="translate(0,340)" x2="-5" y2="0" style="fill: none; stroke: #888; stroke-width: 1; opacity: 1;"></line><line transform="translate(0,330)" x2="-5" y2="0" style="fill: none; stroke: #888; stroke-width: 1; opacity: 1;"></line><line transform="translate(0,322)" x2="-5" y2="0" style="fill: none; stroke: #888; stroke-width: 1; opacity: 1;"></line><line transform="translate(0,315)" x2="-5" y2="0" style="fill: none; stroke: #888; stroke-width: 1; opacity: 1;"></line><line transform="translate(0,310)" x2="-5" y2="0" style="fill: none; stroke: #888; stroke-width: 1; opacity: 1;"></line><line transform="translate(0,305)" x2="-5" y2="0" style="fill: none; stroke: #888; stroke-width: 1; opacity: 1;"></line><line transform="translate(0,300)" x2="-5" y2="0" style="fill: none; stroke: #888; stroke-width: 1; opacity: 1;"></line><line transform="translate(0,270)" x2="-5" y2="0" style="fill: none; stroke: #888; stroke-width: 1; opacity: 1;"></line><line transform="translate(0,252)" x2="-5" y2="0" style="fill: none; stroke: #888; stroke-width: 1; opacity: 1;"></line><line transform="translate(0,240)" x2="-5" y2="0" style="fill: none; stroke: #888; stroke-width: 1; opacity: 1;"></line><line transform="translate(0,230)" x2="-5" y2="0" style="fill: none; stroke: #888; stroke-width: 1; opacity: 1;"></line><line transform="translate(0,222)" x2="-5" y2="0" style="fill: none; stroke: #888; stroke-width: 1; opacity: 1;"></line><line transform="translate(0,215)" x2="-5" y2="0" style="fill: none; stroke: #888; stroke-width: 1; opacity: 1;"></line><line transform="translate(0,210)" x2="-5" y2="0" style="fill: none; stroke: #888; stroke-width: 1; opacity: 1;"></line><line transform="translate(0,205)" x2="-5" y2="0" style="fill: none; stroke: #888; stroke-width: 1; opacity: 1;"></line><line transform="translate(0,200)" x2="-5" y2="0" style="fill: none; stroke: #888; stroke-width: 1; opacity: 1;"></line><line transform="translate(0,170)" x2="-5" y2="0" style="fill: none; stroke: #888; stroke-width: 1; opacity: 1;"></line><line transform="translate(0,152)" x2="-5" y2="0" style="fill: none; stroke: #888; stroke-width: 1; opacity: 1;"></line><line transform="translate(0,140)" x2="-5" y2="0" style="fill: none; stroke: #888; stroke-width: 1; opacity: 1;"></line><line transform="translate(0,130)" x2="-5" y2="0" style="fill: none; stroke: #888; stroke-width: 1; opacity: 1;"></line><line transform="translate(0,122)" x2="-5" y2="0" style="fill: none; stroke: #888; stroke-width: 1; opacity: 1;"></line><line transform="translate(0,115)" x2="-5" y2="0" style="fill: none; stroke: #888; stroke-width: 1; opacity: 1;"></line><line transform="translate(0,110)" x2="-5" y2="0" style="fill: none; stroke: #888; stroke-width: 1; opacity: 1;"></line><line transform="translate(0,105)" x2="-5" y2="0" style="fill: none; stroke: #888; stroke-width: 1; opacity: 1;"></line><line transform="translate(0,100)" x2="-5" y2="0" style="fill: none; stroke: #888; stroke-width: 1; opacity: 1;"></line><line transform="translate(0,70)" x2="-5" y2="0" style="fill: none; stroke: #888; stroke-width: 1; opacity: 1;"></line><line transform="translate(0,52)" x2="-5" y2="0" style="fill: none; stroke: #888; stroke-width: 1; opacity: 1;"></line><line transform="translate(0,40)" x2="-5" y2="0" style="fill: none; stroke: #888; stroke-width: 1; opacity: 1;"></line><line transform="translate(0,30)" x2="-5" y2="0" style="fill: none; stroke: #888; stroke-width: 1; opacity: 1;"></line><line transform="translate(0,22)" x2="-5" y2="0" style="fill: none; stroke: #888; stroke-width: 1; opacity: 1;"></line><line transform="translate(0,15)" x2="-5" y2="0" style="fill: none; stroke: #888; stroke-width: 1; opacity: 1;"></line><line transform="translate(0,10)" x2="-5" y2="0" style="fill: none; stroke: #888; stroke-width: 1; opacity: 1;"></line><line transform="translate(0,5)" x2="-5" y2="0" style="fill: none; stroke: #888; stroke-width: 1; opacity: 1;"></line><line transform="translate(0,0)" x2="-5" y2="0" style="fill: none; stroke: #888; stroke-width: 1; opacity: 1;"></line></g><g class="mark-text role-axis-label" style="pointer-events: none;"><text text-anchor="end" transform="translate(-7,404)" style="font-family: sans-serif; font-size: 14px; fill: #000; opacity: 1;">1</text><text text-anchor="end" transform="translate(-7,373.8970004336019)" style="font-family: sans-serif; font-size: 14px; fill: #000; opacity: 1;">2</text><text text-anchor="end" transform="translate(-7,356.2878745280338)" style="font-family: sans-serif; font-size: 14px; fill: #000; opacity: 1;"></text><text text-anchor="end" transform="translate(-7,343.79400086720375)" style="font-family: sans-serif; font-size: 14px; fill: #000; opacity: 1;"></text><text text-anchor="end" transform="translate(-7,334.1029995663981)" style="font-family: sans-serif; font-size: 14px; fill: #000; opacity: 1;"></text><text text-anchor="end" transform="translate(-7,326.18487496163567)" style="font-family: sans-serif; font-size: 14px; fill: #000; opacity: 1;"></text><text text-anchor="end" transform="translate(-7,319.49019599857434)" style="font-family: sans-serif; font-size: 14px; fill: #000; opacity: 1;"></text><text text-anchor="end" transform="translate(-7,313.6910013008057)" style="font-family: sans-serif; font-size: 14px; fill: #000; opacity: 1;"></text><text text-anchor="end" transform="translate(-7,308.57574905606754)" style="font-family: sans-serif; font-size: 14px; fill: #000; opacity: 1;"></text><text text-anchor="end" transform="translate(-7,304)" style="font-family: sans-serif; font-size: 14px; fill: #000; opacity: 1;">10</text><text text-anchor="end" transform="translate(-7,273.8970004336019)" style="font-family: sans-serif; font-size: 14px; fill: #000; opacity: 1;">20</text><text text-anchor="end" transform="translate(-7,256.28787452803374)" style="font-family: sans-serif; font-size: 14px; fill: #000; opacity: 1;"></text><text text-anchor="end" transform="translate(-7,243.79400086720375)" style="font-family: sans-serif; font-size: 14px; fill: #000; opacity: 1;"></text><text text-anchor="end" transform="translate(-7,234.10299956639813)" style="font-family: sans-serif; font-size: 14px; fill: #000; opacity: 1;"></text><text text-anchor="end" transform="translate(-7,226.18487496163567)" style="font-family: sans-serif; font-size: 14px; fill: #000; opacity: 1;"></text><text text-anchor="end" transform="translate(-7,219.4901959985743)" style="font-family: sans-serif; font-size: 14px; fill: #000; opacity: 1;"></text><text text-anchor="end" transform="translate(-7,213.69100130080568)" style="font-family: sans-serif; font-size: 14px; fill: #000; opacity: 1;"></text><text text-anchor="end" transform="translate(-7,208.57574905606754)" style="font-family: sans-serif; font-size: 14px; fill: #000; opacity: 1;"></text><text text-anchor="end" transform="translate(-7,204)" style="font-family: sans-serif; font-size: 14px; fill: #000; opacity: 1;">100</text><text text-anchor="end" transform="translate(-7,173.89700043360193)" style="font-family: sans-serif; font-size: 14px; fill: #000; opacity: 1;">200</text><text text-anchor="end" transform="translate(-7,156.2878745280338)" style="font-family: sans-serif; font-size: 14px; fill: #000; opacity: 1;"></text><text text-anchor="end" transform="translate(-7,143.7940008672038)" style="font-family: sans-serif; font-size: 14px; fill: #000; opacity: 1;"></text><text text-anchor="end" transform="translate(-7,134.10299956639818)" style="font-family: sans-serif; font-size: 14px; fill: #000; opacity: 1;"></text><text text-anchor="end" transform="translate(-7,126.18487496163566)" style="font-family: sans-serif; font-size: 14px; fill: #000; opacity: 1;"></text><text text-anchor="end" transform="translate(-7,119.49019599857435)" style="font-family: sans-serif; font-size: 14px; fill: #000; opacity: 1;"></text><text text-anchor="end" transform="translate(-7,113.69100130080567)" style="font-family: sans-serif; font-size: 14px; fill: #000; opacity: 1;"></text><text text-anchor="end" transform="translate(-7,108.57574905606752)" style="font-family: sans-serif; font-size: 14px; fill: #000; opacity: 1;"></text><text text-anchor="end" transform="translate(-7,104.00000000000004)" style="font-family: sans-serif; font-size: 14px; fill: #000; opacity: 1;">1,000</text><text text-anchor="end" transform="translate(-7,73.89700043360192)" style="font-family: sans-serif; font-size: 14px; fill: #000; opacity: 1;">2,000</text><text text-anchor="end" transform="translate(-7,56.287874528033825)" style="font-family: sans-serif; font-size: 14px; fill: #000; opacity: 1;"></text><text text-anchor="end" transform="translate(-7,43.79400086720379)" style="font-family: sans-serif; font-size: 14px; fill: #000; opacity: 1;"></text><text text-anchor="end" transform="translate(-7,34.102999566398125)" style="font-family: sans-serif; font-size: 14px; fill: #000; opacity: 1;"></text><text text-anchor="end" transform="translate(-7,26.184874961635703)" style="font-family: sans-serif; font-size: 14px; fill: #000; opacity: 1;"></text><text text-anchor="end" transform="translate(-7,19.49019599857435)" style="font-family: sans-serif; font-size: 14px; fill: #000; opacity: 1;"></text><text text-anchor="end" transform="translate(-7,13.691001300805668)" style="font-family: sans-serif; font-size: 14px; fill: #000; opacity: 1;"></text><text text-anchor="end" transform="translate(-7,8.575749056067524)" style="font-family: sans-serif; font-size: 14px; fill: #000; opacity: 1;"></text><text text-anchor="end" transform="translate(-7,4)" style="font-family: sans-serif; font-size: 14px; fill: #000; opacity: 1;">10,000</text></g><g class="mark-rule role-axis-domain" style="pointer-events: none;"><line transform="translate(0,400)" x2="0" y2="-400" style="fill: none; stroke: #888; stroke-width: 1; opacity: 1;"></line></g></g><path class="foreground" d="" style="pointer-events: none; display: none; fill: none;"></path></g></g><g class="mark-group role-scope layer_0_pathgroup"><g transform="translate(0,0)"><path class="background" d="M0,0h600v400h-600Z" style="fill: none;"></path><g><g class="mark-line role-mark layer_0_marks"><path d="M0,400L12.244897959183673,400L24.489795918367346,400L36.73469387755102,400L48.97959183673469,330.1029995663981L61.224489795918366,309.6910013008057L73.46938775510203,309.6910013008057L85.71428571428571,282.39087409443187L97.95918367346938,267.7780705266081L110.20408163265307,258.5026652029182L122.44897959183673,252.28787452803374L134.69387755102042,238.72161432802645L146.93877551020407,229.24298239020638L159.18367346938777,222.18487496163567L171.42857142857142,203.6212172654445L183.67346938775512,185.6985199745905L195.91836734693877,174.7146969020107L208.16326530612244,163.26440789739814L220.40816326530614,155.2841968657781L232.6530612244898,152.57837359237448L244.89795918367346,150.86383061657273L257.1428571428571,140.78232426041333L269.38775510204084,134.67874862246566L281.6326530612245,128.14983111327257L293.87755102040813,124.10881076020263L306.12244897959187,120.48154103175763L318.36734693877554,119.72262747080245L330.61224489795916,119.51793212788382L342.85714285714283,116.43094285075746L355.1020408163265,114.38755557576998L367.34693877551024,113.0181792020672L379.5918367346939,110.84625423274358L391.83673469387753,110.73489661227L404.0816326530612,110.0179497572904L416.3265306122449,109.74532206860088L428.57142857142856,108.61861476162832L440.8163265306123,107.41724253752581L453.0612244897959,106.44927341752877L465.3061224489796,105.65054840938974L477.55102040816325,105.40392964224318L489.7959183673469,105.20763801682742L502.04081632653066,105.15870342213991L514.2857142857142,105.01222959631255L526.530612244898,104.6723663332696L538.7755102040817,104.6723663332696L551.0204081632653,104.6723663332696L563.265306122449,104.6723663332696L575.5102040816327,104.6723663332696L587.7551020408163,104.6723663332696" style="fill: none; stroke: #4c78a8; stroke-width: 2;"></path></g></g><path class="foreground" d="" style="display: none; fill: none;"></path></g><g transform="translate(0,0)"><path class="background" d="M0,0h600v400h-600Z" style="fill: none;"></path><g><g class="mark-line role-mark layer_0_marks"><path d="M208.16326530612244,272.1246399047171L220.40816326530614,231.87587626244132L232.6530612244898,231.87587626244132L244.89795918367346,231.87587626244132L257.1428571428571,230.10299956639813L269.38775510204084,223.65720064370632L281.6326530612245,217.3925197299174L293.87755102040813,213.66771398795441L306.12244897959187,207.57207139381188L318.36734693877554,206.55015487564324L330.61224489795916,206.04807473813818L342.85714285714283,200L355.1020408163265,190.65783148377648L367.34693877551024,183.56471442155632L379.5918367346939,178.5156151952302L391.83673469387753,176.95510786217264L404.0816326530612,175.44873321858506L416.3265306122449,174.7146969020107L428.57142857142856,169.68039425795115L440.8163265306123,159.68794788241826L453.0612244897959,153.61070110140926L465.3061224489796,147.6253533188436L477.55102040816325,143.29736338409398L489.7959183673469,141.9075024324381L502.04081632653066,141.68012260313776L514.2857142857142,137.4687549038326L526.530612244898,132.0572103387881L538.7755102040817,130.3643611266668L551.0204081632653,130.01622741327546L563.265306122449,130.01622741327546L575.5102040816327,130.01622741327546L587.7551020408163,129.92962828549813" style="fill: none; stroke: #72b7b2; stroke-width: 2;"></path></g></g><path class="foreground" d="" style="display: none; fill: none;"></path></g><g transform="translate(0,0)"><path class="background" d="M0,0h600v400h-600Z" style="fill: none;"></path><g><g class="mark-line role-mark layer_0_marks"><path d="M48.97959183673469,352.2878745280338L61.224489795918366,339.79400086720375L73.46938775510203,330.1029995663981L85.71428571428571,330.1029995663981L97.95918367346938,330.1029995663981L110.20408163265307,322.18487496163567L122.44897959183673,285.3871964321762L134.69387755102042,267.7780705266081L146.93877551020407,263.8272163982407L159.18367346938777,250.86383061657273L171.42857142857142,240.8935392973501L183.67346938775512,229.24298239020638L195.91836734693877,219.38200260161133L208.16326530612244,210.23729087095592L220.40816326530614,200L232.6530612244898,189.61962790440433L244.89795918367346,175.94507517174006L257.1428571428571,162.16020990518624L269.38775510204084,154.36339668709573L281.6326530612245,150.03129173815967L293.87755102040813,142.2508200162775L306.12244897959187,134.4861565188618L318.36734693877554,132.33063903751338L330.61224489795916,128.98826348881843L342.85714285714283,124.18453780326102L355.1020408163265,120.76083105017462L367.34693877551024,116.55792963184678L379.5918367346939,113.96619934290064L391.83673469387753,110.3473782510445L404.0816326530612,104.72075569559082L416.3265306122449,104.43122496864943L428.57142857142856,103.47982989740885L440.8163265306123,101.14410431213847L453.0612244897959,98.17156915734695L465.3061224489796,97.14287473074626L477.55102040816325,95.15581964495956L489.7959183673469,91.61391991334273L502.04081632653066,90.23956711255896L514.2857142857142,88.672530753565L526.530612244898,86.07507824283931L538.7755102040817,84.89367466462502" style="fill: none; stroke: #f58518; stroke-width: 2;"></path></g></g><path class="foreground" d="" style="display: none; fill: none;"></path></g><g transform="translate(0,0)"><path class="background" d="M0,0h600v400h-600Z" style="fill: none;"></path><g><g class="mark-line role-mark layer_0_marks"><path d="M538.7755102040817,91.00948885606024L551.0204081632653,89.4149325614857L563.265306122449,88.37244124194558L575.5102040816327,86.29625452104878L587.7551020408163,85.72977542623845L600,85.38719643217622" style="fill: none; stroke: #e45756; stroke-width: 2;"></path></g></g><path class="foreground" d="" style="display: none; fill: none;"></path></g><g transform="translate(0,0)"><path class="background" d="M0,0h600v400h-600Z" style="fill: none;"></path><g><g class="mark-line role-mark layer_0_marks"><path d="M97.95918367346938,400L110.20408163265307,400L122.44897959183673,400L134.69387755102042,369.8970004336019L146.93877551020407,339.79400086720375L159.18367346938777,330.1029995663981L171.42857142857142,322.18487496163567L183.67346938775512,315.49019599857434L195.91836734693877,315.49019599857434L208.16326530612244,300L220.40816326530614,295.8607314841775L232.6530612244898,285.3871964321762L244.89795918367346,276.9551078621726L257.1428571428571,269.8970004336019L269.38775510204084,267.7780705266081L281.6326530612245,261.9788758288394L293.87755102040813,260.20599913279625L306.12244897959187,253.7602002101044L318.36734693877554,248.1486060122113L330.61224489795916,245.59319556497243L342.85714285714283,242.021640338319L355.1020408163265,238.72161432802645L367.34693877551024,235.6547323513813L379.5918367346939,231.87587626244132L391.83673469387753,228.3996656365201L404.0816326530612,225.96373105057557L416.3265306122449,225.96373105057557L428.57142857142856,221.46701649892327L440.8163265306123,219.38200260161133L453.0612244897959,217.3925197299174L465.3061224489796,214.8741651280925L477.55102040816325,214.2667503568732L489.7959183673469,213.07682802690243L502.04081632653066,211.91864077192088L514.2857142857142,211.3509274827518L526.530612244898,209.69100130080568L538.7755102040817,208.09219076239262L551.0204081632653,208.09219076239262L563.265306122449,207.0581074285707L575.5102040816327,207.0581074285707L587.7551020408163,206.55015487564324" style="fill: none; stroke: #54a24b; stroke-width: 2;"></path></g></g><path class="foreground" d="" style="display: none; fill: none;"></path></g><g transform="translate(0,0)"><path class="background" d="M0,0h600v400h-600Z" style="fill: none;"></path><g><g class="mark-line role-mark layer_0_marks"><path d="M159.18367346938777,369.8970004336019L171.42857142857142,369.8970004336019L183.67346938775512,369.8970004336019L195.91836734693877,369.8970004336019L208.16326530612244,352.2878745280338L220.40816326530614,352.2878745280338L232.6530612244898,330.1029995663981L244.89795918367346,322.18487496163567L257.1428571428571,309.6910013008057L269.38775510204084,295.8607314841775L281.6326530612245,292.08187539523755L293.87755102040813,282.39087409443187L306.12244897959187,274.47274948966947L318.36734693877554,269.8970004336019L330.61224489795916,267.7780705266081L342.85714285714283,263.8272163982407L355.1020408163265,261.9788758288394L367.34693877551024,248.1486060122113L379.5918367346939,240.8935392973501L391.83673469387753,237.67507096020998L404.0816326530612,235.6547323513813L416.3265306122449,234.67874862246566L428.57142857142856,234.67874862246566L440.8163265306123,229.24298239020638L453.0612244897959,225.18119729937993L465.3061224489796,223.65720064370632L477.55102040816325,222.18487496163567L489.7959183673469,220.76083105017466L502.04081632653066,220.06594505464187L514.2857142857142,219.38200260161133L526.530612244898,217.3925197299174L538.7755102040817,216.1150909262745L551.0204081632653,211.3509274827518L563.265306122449,208.09219076239262L575.5102040816327,207.57207139381188L587.7551020408163,207.57207139381188L600,206.55015487564324" style="fill: none; stroke: #eeca3b; stroke-width: 2;"></path></g></g><path class="foreground" d="" style="display: none; fill: none;"></path></g></g><g class="mark-symbol role-mark layer_1_marks"><path transform="translate(0,400)" d="M2.7386127875258306,0A2.7386127875258306,2.7386127875258306,0,1,1,-2.7386127875258306,0A2.7386127875258306,2.7386127875258306,0,1,1,2.7386127875258306,0" style="fill: #4c78a8; stroke-width: 2; opacity: 1;"></path><path transform="translate(12.244897959183673,400)" d="M2.7386127875258306,0A2.7386127875258306,2.7386127875258306,0,1,1,-2.7386127875258306,0A2.7386127875258306,2.7386127875258306,0,1,1,2.7386127875258306,0" style="fill: #4c78a8; stroke-width: 2; opacity: 1;"></path><path transform="translate(24.489795918367346,400)" d="M2.7386127875258306,0A2.7386127875258306,2.7386127875258306,0,1,1,-2.7386127875258306,0A2.7386127875258306,2.7386127875258306,0,1,1,2.7386127875258306,0" style="fill: #4c78a8; stroke-width: 2; opacity: 1;"></path><path transform="translate(36.73469387755102,400)" d="M2.7386127875258306,0A2.7386127875258306,2.7386127875258306,0,1,1,-2.7386127875258306,0A2.7386127875258306,2.7386127875258306,0,1,1,2.7386127875258306,0" style="fill: #4c78a8; stroke-width: 2; opacity: 1;"></path><path transform="translate(48.97959183673469,330.1029995663981)" d="M2.7386127875258306,0A2.7386127875258306,2.7386127875258306,0,1,1,-2.7386127875258306,0A2.7386127875258306,2.7386127875258306,0,1,1,2.7386127875258306,0" style="fill: #4c78a8; stroke-width: 2; opacity: 1;"></path><path transform="translate(61.224489795918366,309.6910013008057)" d="M2.7386127875258306,0A2.7386127875258306,2.7386127875258306,0,1,1,-2.7386127875258306,0A2.7386127875258306,2.7386127875258306,0,1,1,2.7386127875258306,0" style="fill: #4c78a8; stroke-width: 2; opacity: 1;"></path><path transform="translate(73.46938775510203,309.6910013008057)" d="M2.7386127875258306,0A2.7386127875258306,2.7386127875258306,0,1,1,-2.7386127875258306,0A2.7386127875258306,2.7386127875258306,0,1,1,2.7386127875258306,0" style="fill: #4c78a8; stroke-width: 2; opacity: 1;"></path><path transform="translate(85.71428571428571,282.39087409443187)" d="M2.7386127875258306,0A2.7386127875258306,2.7386127875258306,0,1,1,-2.7386127875258306,0A2.7386127875258306,2.7386127875258306,0,1,1,2.7386127875258306,0" style="fill: #4c78a8; stroke-width: 2; opacity: 1;"></path><path transform="translate(97.95918367346938,267.7780705266081)" d="M2.7386127875258306,0A2.7386127875258306,2.7386127875258306,0,1,1,-2.7386127875258306,0A2.7386127875258306,2.7386127875258306,0,1,1,2.7386127875258306,0" style="fill: #4c78a8; stroke-width: 2; opacity: 1;"></path><path transform="translate(110.20408163265307,258.5026652029182)" d="M2.7386127875258306,0A2.7386127875258306,2.7386127875258306,0,1,1,-2.7386127875258306,0A2.7386127875258306,2.7386127875258306,0,1,1,2.7386127875258306,0" style="fill: #4c78a8; stroke-width: 2; opacity: 1;"></path><path transform="translate(122.44897959183673,252.28787452803374)" d="M2.7386127875258306,0A2.7386127875258306,2.7386127875258306,0,1,1,-2.7386127875258306,0A2.7386127875258306,2.7386127875258306,0,1,1,2.7386127875258306,0" style="fill: #4c78a8; stroke-width: 2; opacity: 1;"></path><path transform="translate(134.69387755102042,238.72161432802645)" d="M2.7386127875258306,0A2.7386127875258306,2.7386127875258306,0,1,1,-2.7386127875258306,0A2.7386127875258306,2.7386127875258306,0,1,1,2.7386127875258306,0" style="fill: #4c78a8; stroke-width: 2; opacity: 1;"></path><path transform="translate(146.93877551020407,229.24298239020638)" d="M2.7386127875258306,0A2.7386127875258306,2.7386127875258306,0,1,1,-2.7386127875258306,0A2.7386127875258306,2.7386127875258306,0,1,1,2.7386127875258306,0" style="fill: #4c78a8; stroke-width: 2; opacity: 1;"></path><path transform="translate(159.18367346938777,222.18487496163567)" d="M2.7386127875258306,0A2.7386127875258306,2.7386127875258306,0,1,1,-2.7386127875258306,0A2.7386127875258306,2.7386127875258306,0,1,1,2.7386127875258306,0" style="fill: #4c78a8; stroke-width: 2; opacity: 1;"></path><path transform="translate(171.42857142857142,203.6212172654445)" d="M2.7386127875258306,0A2.7386127875258306,2.7386127875258306,0,1,1,-2.7386127875258306,0A2.7386127875258306,2.7386127875258306,0,1,1,2.7386127875258306,0" style="fill: #4c78a8; stroke-width: 2; opacity: 1;"></path><path transform="translate(183.67346938775512,185.6985199745905)" d="M2.7386127875258306,0A2.7386127875258306,2.7386127875258306,0,1,1,-2.7386127875258306,0A2.7386127875258306,2.7386127875258306,0,1,1,2.7386127875258306,0" style="fill: #4c78a8; stroke-width: 2; opacity: 1;"></path><path transform="translate(195.91836734693877,174.7146969020107)" d="M2.7386127875258306,0A2.7386127875258306,2.7386127875258306,0,1,1,-2.7386127875258306,0A2.7386127875258306,2.7386127875258306,0,1,1,2.7386127875258306,0" style="fill: #4c78a8; stroke-width: 2; opacity: 1;"></path><path transform="translate(208.16326530612244,163.26440789739814)" d="M2.7386127875258306,0A2.7386127875258306,2.7386127875258306,0,1,1,-2.7386127875258306,0A2.7386127875258306,2.7386127875258306,0,1,1,2.7386127875258306,0" style="fill: #4c78a8; stroke-width: 2; opacity: 1;"></path><path transform="translate(220.40816326530614,155.2841968657781)" d="M2.7386127875258306,0A2.7386127875258306,2.7386127875258306,0,1,1,-2.7386127875258306,0A2.7386127875258306,2.7386127875258306,0,1,1,2.7386127875258306,0" style="fill: #4c78a8; stroke-width: 2; opacity: 1;"></path><path transform="translate(232.6530612244898,152.57837359237448)" d="M2.7386127875258306,0A2.7386127875258306,2.7386127875258306,0,1,1,-2.7386127875258306,0A2.7386127875258306,2.7386127875258306,0,1,1,2.7386127875258306,0" style="fill: #4c78a8; stroke-width: 2; opacity: 1;"></path><path transform="translate(244.89795918367346,150.86383061657273)" d="M2.7386127875258306,0A2.7386127875258306,2.7386127875258306,0,1,1,-2.7386127875258306,0A2.7386127875258306,2.7386127875258306,0,1,1,2.7386127875258306,0" style="fill: #4c78a8; stroke-width: 2; opacity: 1;"></path><path transform="translate(257.1428571428571,140.78232426041333)" d="M2.7386127875258306,0A2.7386127875258306,2.7386127875258306,0,1,1,-2.7386127875258306,0A2.7386127875258306,2.7386127875258306,0,1,1,2.7386127875258306,0" style="fill: #4c78a8; stroke-width: 2; opacity: 1;"></path><path transform="translate(269.38775510204084,134.67874862246566)" d="M2.7386127875258306,0A2.7386127875258306,2.7386127875258306,0,1,1,-2.7386127875258306,0A2.7386127875258306,2.7386127875258306,0,1,1,2.7386127875258306,0" style="fill: #4c78a8; stroke-width: 2; opacity: 1;"></path><path transform="translate(281.6326530612245,128.14983111327257)" d="M2.7386127875258306,0A2.7386127875258306,2.7386127875258306,0,1,1,-2.7386127875258306,0A2.7386127875258306,2.7386127875258306,0,1,1,2.7386127875258306,0" style="fill: #4c78a8; stroke-width: 2; opacity: 1;"></path><path transform="translate(293.87755102040813,124.10881076020263)" d="M2.7386127875258306,0A2.7386127875258306,2.7386127875258306,0,1,1,-2.7386127875258306,0A2.7386127875258306,2.7386127875258306,0,1,1,2.7386127875258306,0" style="fill: #4c78a8; stroke-width: 2; opacity: 1;"></path><path transform="translate(306.12244897959187,120.48154103175763)" d="M2.7386127875258306,0A2.7386127875258306,2.7386127875258306,0,1,1,-2.7386127875258306,0A2.7386127875258306,2.7386127875258306,0,1,1,2.7386127875258306,0" style="fill: #4c78a8; stroke-width: 2; opacity: 1;"></path><path transform="translate(318.36734693877554,119.72262747080245)" d="M2.7386127875258306,0A2.7386127875258306,2.7386127875258306,0,1,1,-2.7386127875258306,0A2.7386127875258306,2.7386127875258306,0,1,1,2.7386127875258306,0" style="fill: #4c78a8; stroke-width: 2; opacity: 1;"></path><path transform="translate(330.61224489795916,119.51793212788382)" d="M2.7386127875258306,0A2.7386127875258306,2.7386127875258306,0,1,1,-2.7386127875258306,0A2.7386127875258306,2.7386127875258306,0,1,1,2.7386127875258306,0" style="fill: #4c78a8; stroke-width: 2; opacity: 1;"></path><path transform="translate(342.85714285714283,116.43094285075746)" d="M2.7386127875258306,0A2.7386127875258306,2.7386127875258306,0,1,1,-2.7386127875258306,0A2.7386127875258306,2.7386127875258306,0,1,1,2.7386127875258306,0" style="fill: #4c78a8; stroke-width: 2; opacity: 1;"></path><path transform="translate(355.1020408163265,114.38755557576998)" d="M2.7386127875258306,0A2.7386127875258306,2.7386127875258306,0,1,1,-2.7386127875258306,0A2.7386127875258306,2.7386127875258306,0,1,1,2.7386127875258306,0" style="fill: #4c78a8; stroke-width: 2; opacity: 1;"></path><path transform="translate(367.34693877551024,113.0181792020672)" d="M2.7386127875258306,0A2.7386127875258306,2.7386127875258306,0,1,1,-2.7386127875258306,0A2.7386127875258306,2.7386127875258306,0,1,1,2.7386127875258306,0" style="fill: #4c78a8; stroke-width: 2; opacity: 1;"></path><path transform="translate(379.5918367346939,110.84625423274358)" d="M2.7386127875258306,0A2.7386127875258306,2.7386127875258306,0,1,1,-2.7386127875258306,0A2.7386127875258306,2.7386127875258306,0,1,1,2.7386127875258306,0" style="fill: #4c78a8; stroke-width: 2; opacity: 1;"></path><path transform="translate(391.83673469387753,110.73489661227)" d="M2.7386127875258306,0A2.7386127875258306,2.7386127875258306,0,1,1,-2.7386127875258306,0A2.7386127875258306,2.7386127875258306,0,1,1,2.7386127875258306,0" style="fill: #4c78a8; stroke-width: 2; opacity: 1;"></path><path transform="translate(404.0816326530612,110.0179497572904)" d="M2.7386127875258306,0A2.7386127875258306,2.7386127875258306,0,1,1,-2.7386127875258306,0A2.7386127875258306,2.7386127875258306,0,1,1,2.7386127875258306,0" style="fill: #4c78a8; stroke-width: 2; opacity: 1;"></path><path transform="translate(416.3265306122449,109.74532206860088)" d="M2.7386127875258306,0A2.7386127875258306,2.7386127875258306,0,1,1,-2.7386127875258306,0A2.7386127875258306,2.7386127875258306,0,1,1,2.7386127875258306,0" style="fill: #4c78a8; stroke-width: 2; opacity: 1;"></path><path transform="translate(428.57142857142856,108.61861476162832)" d="M2.7386127875258306,0A2.7386127875258306,2.7386127875258306,0,1,1,-2.7386127875258306,0A2.7386127875258306,2.7386127875258306,0,1,1,2.7386127875258306,0" style="fill: #4c78a8; stroke-width: 2; opacity: 1;"></path><path transform="translate(440.8163265306123,107.41724253752581)" d="M2.7386127875258306,0A2.7386127875258306,2.7386127875258306,0,1,1,-2.7386127875258306,0A2.7386127875258306,2.7386127875258306,0,1,1,2.7386127875258306,0" style="fill: #4c78a8; stroke-width: 2; opacity: 1;"></path><path transform="translate(453.0612244897959,106.44927341752877)" d="M2.7386127875258306,0A2.7386127875258306,2.7386127875258306,0,1,1,-2.7386127875258306,0A2.7386127875258306,2.7386127875258306,0,1,1,2.7386127875258306,0" style="fill: #4c78a8; stroke-width: 2; opacity: 1;"></path><path transform="translate(465.3061224489796,105.65054840938974)" d="M2.7386127875258306,0A2.7386127875258306,2.7386127875258306,0,1,1,-2.7386127875258306,0A2.7386127875258306,2.7386127875258306,0,1,1,2.7386127875258306,0" style="fill: #4c78a8; stroke-width: 2; opacity: 1;"></path><path transform="translate(477.55102040816325,105.40392964224318)" d="M2.7386127875258306,0A2.7386127875258306,2.7386127875258306,0,1,1,-2.7386127875258306,0A2.7386127875258306,2.7386127875258306,0,1,1,2.7386127875258306,0" style="fill: #4c78a8; stroke-width: 2; opacity: 1;"></path><path transform="translate(489.7959183673469,105.20763801682742)" d="M2.7386127875258306,0A2.7386127875258306,2.7386127875258306,0,1,1,-2.7386127875258306,0A2.7386127875258306,2.7386127875258306,0,1,1,2.7386127875258306,0" style="fill: #4c78a8; stroke-width: 2; opacity: 1;"></path><path transform="translate(502.04081632653066,105.15870342213991)" d="M2.7386127875258306,0A2.7386127875258306,2.7386127875258306,0,1,1,-2.7386127875258306,0A2.7386127875258306,2.7386127875258306,0,1,1,2.7386127875258306,0" style="fill: #4c78a8; stroke-width: 2; opacity: 1;"></path><path transform="translate(514.2857142857142,105.01222959631255)" d="M2.7386127875258306,0A2.7386127875258306,2.7386127875258306,0,1,1,-2.7386127875258306,0A2.7386127875258306,2.7386127875258306,0,1,1,2.7386127875258306,0" style="fill: #4c78a8; stroke-width: 2; opacity: 1;"></path><path transform="translate(526.530612244898,104.6723663332696)" d="M2.7386127875258306,0A2.7386127875258306,2.7386127875258306,0,1,1,-2.7386127875258306,0A2.7386127875258306,2.7386127875258306,0,1,1,2.7386127875258306,0" style="fill: #4c78a8; stroke-width: 2; opacity: 1;"></path><path transform="translate(538.7755102040817,104.6723663332696)" d="M2.7386127875258306,0A2.7386127875258306,2.7386127875258306,0,1,1,-2.7386127875258306,0A2.7386127875258306,2.7386127875258306,0,1,1,2.7386127875258306,0" style="fill: #4c78a8; stroke-width: 2; opacity: 1;"></path><path transform="translate(551.0204081632653,104.6723663332696)" d="M2.7386127875258306,0A2.7386127875258306,2.7386127875258306,0,1,1,-2.7386127875258306,0A2.7386127875258306,2.7386127875258306,0,1,1,2.7386127875258306,0" style="fill: #4c78a8; stroke-width: 2; opacity: 1;"></path><path transform="translate(563.265306122449,104.6723663332696)" d="M2.7386127875258306,0A2.7386127875258306,2.7386127875258306,0,1,1,-2.7386127875258306,0A2.7386127875258306,2.7386127875258306,0,1,1,2.7386127875258306,0" style="fill: #4c78a8; stroke-width: 2; opacity: 1;"></path><path transform="translate(575.5102040816327,104.6723663332696)" d="M2.7386127875258306,0A2.7386127875258306,2.7386127875258306,0,1,1,-2.7386127875258306,0A2.7386127875258306,2.7386127875258306,0,1,1,2.7386127875258306,0" style="fill: #4c78a8; stroke-width: 2; opacity: 1;"></path><path transform="translate(587.7551020408163,104.6723663332696)" d="M2.7386127875258306,0A2.7386127875258306,2.7386127875258306,0,1,1,-2.7386127875258306,0A2.7386127875258306,2.7386127875258306,0,1,1,2.7386127875258306,0" style="fill: #4c78a8; stroke-width: 2; opacity: 1;"></path><path transform="translate(208.16326530612244,272.1246399047171)" d="M2.7386127875258306,0A2.7386127875258306,2.7386127875258306,0,1,1,-2.7386127875258306,0A2.7386127875258306,2.7386127875258306,0,1,1,2.7386127875258306,0" style="fill: #72b7b2; stroke-width: 2; opacity: 1;"></path><path transform="translate(220.40816326530614,231.87587626244132)" d="M2.7386127875258306,0A2.7386127875258306,2.7386127875258306,0,1,1,-2.7386127875258306,0A2.7386127875258306,2.7386127875258306,0,1,1,2.7386127875258306,0" style="fill: #72b7b2; stroke-width: 2; opacity: 1;"></path><path transform="translate(232.6530612244898,231.87587626244132)" d="M2.7386127875258306,0A2.7386127875258306,2.7386127875258306,0,1,1,-2.7386127875258306,0A2.7386127875258306,2.7386127875258306,0,1,1,2.7386127875258306,0" style="fill: #72b7b2; stroke-width: 2; opacity: 1;"></path><path transform="translate(244.89795918367346,231.87587626244132)" d="M2.7386127875258306,0A2.7386127875258306,2.7386127875258306,0,1,1,-2.7386127875258306,0A2.7386127875258306,2.7386127875258306,0,1,1,2.7386127875258306,0" style="fill: #72b7b2; stroke-width: 2; opacity: 1;"></path><path transform="translate(257.1428571428571,230.10299956639813)" d="M2.7386127875258306,0A2.7386127875258306,2.7386127875258306,0,1,1,-2.7386127875258306,0A2.7386127875258306,2.7386127875258306,0,1,1,2.7386127875258306,0" style="fill: #72b7b2; stroke-width: 2; opacity: 1;"></path><path transform="translate(269.38775510204084,223.65720064370632)" d="M2.7386127875258306,0A2.7386127875258306,2.7386127875258306,0,1,1,-2.7386127875258306,0A2.7386127875258306,2.7386127875258306,0,1,1,2.7386127875258306,0" style="fill: #72b7b2; stroke-width: 2; opacity: 1;"></path><path transform="translate(281.6326530612245,217.3925197299174)" d="M2.7386127875258306,0A2.7386127875258306,2.7386127875258306,0,1,1,-2.7386127875258306,0A2.7386127875258306,2.7386127875258306,0,1,1,2.7386127875258306,0" style="fill: #72b7b2; stroke-width: 2; opacity: 1;"></path><path transform="translate(293.87755102040813,213.66771398795441)" d="M2.7386127875258306,0A2.7386127875258306,2.7386127875258306,0,1,1,-2.7386127875258306,0A2.7386127875258306,2.7386127875258306,0,1,1,2.7386127875258306,0" style="fill: #72b7b2; stroke-width: 2; opacity: 1;"></path><path transform="translate(306.12244897959187,207.57207139381188)" d="M2.7386127875258306,0A2.7386127875258306,2.7386127875258306,0,1,1,-2.7386127875258306,0A2.7386127875258306,2.7386127875258306,0,1,1,2.7386127875258306,0" style="fill: #72b7b2; stroke-width: 2; opacity: 1;"></path><path transform="translate(318.36734693877554,206.55015487564324)" d="M2.7386127875258306,0A2.7386127875258306,2.7386127875258306,0,1,1,-2.7386127875258306,0A2.7386127875258306,2.7386127875258306,0,1,1,2.7386127875258306,0" style="fill: #72b7b2; stroke-width: 2; opacity: 1;"></path><path transform="translate(330.61224489795916,206.04807473813818)" d="M2.7386127875258306,0A2.7386127875258306,2.7386127875258306,0,1,1,-2.7386127875258306,0A2.7386127875258306,2.7386127875258306,0,1,1,2.7386127875258306,0" style="fill: #72b7b2; stroke-width: 2; opacity: 1;"></path><path transform="translate(342.85714285714283,200)" d="M2.7386127875258306,0A2.7386127875258306,2.7386127875258306,0,1,1,-2.7386127875258306,0A2.7386127875258306,2.7386127875258306,0,1,1,2.7386127875258306,0" style="fill: #72b7b2; stroke-width: 2; opacity: 1;"></path><path transform="translate(355.1020408163265,190.65783148377648)" d="M2.7386127875258306,0A2.7386127875258306,2.7386127875258306,0,1,1,-2.7386127875258306,0A2.7386127875258306,2.7386127875258306,0,1,1,2.7386127875258306,0" style="fill: #72b7b2; stroke-width: 2; opacity: 1;"></path><path transform="translate(367.34693877551024,183.56471442155632)" d="M2.7386127875258306,0A2.7386127875258306,2.7386127875258306,0,1,1,-2.7386127875258306,0A2.7386127875258306,2.7386127875258306,0,1,1,2.7386127875258306,0" style="fill: #72b7b2; stroke-width: 2; opacity: 1;"></path><path transform="translate(379.5918367346939,178.5156151952302)" d="M2.7386127875258306,0A2.7386127875258306,2.7386127875258306,0,1,1,-2.7386127875258306,0A2.7386127875258306,2.7386127875258306,0,1,1,2.7386127875258306,0" style="fill: #72b7b2; stroke-width: 2; opacity: 1;"></path><path transform="translate(391.83673469387753,176.95510786217264)" d="M2.7386127875258306,0A2.7386127875258306,2.7386127875258306,0,1,1,-2.7386127875258306,0A2.7386127875258306,2.7386127875258306,0,1,1,2.7386127875258306,0" style="fill: #72b7b2; stroke-width: 2; opacity: 1;"></path><path transform="translate(404.0816326530612,175.44873321858506)" d="M2.7386127875258306,0A2.7386127875258306,2.7386127875258306,0,1,1,-2.7386127875258306,0A2.7386127875258306,2.7386127875258306,0,1,1,2.7386127875258306,0" style="fill: #72b7b2; stroke-width: 2; opacity: 1;"></path><path transform="translate(416.3265306122449,174.7146969020107)" d="M2.7386127875258306,0A2.7386127875258306,2.7386127875258306,0,1,1,-2.7386127875258306,0A2.7386127875258306,2.7386127875258306,0,1,1,2.7386127875258306,0" style="fill: #72b7b2; stroke-width: 2; opacity: 1;"></path><path transform="translate(428.57142857142856,169.68039425795115)" d="M2.7386127875258306,0A2.7386127875258306,2.7386127875258306,0,1,1,-2.7386127875258306,0A2.7386127875258306,2.7386127875258306,0,1,1,2.7386127875258306,0" style="fill: #72b7b2; stroke-width: 2; opacity: 1;"></path><path transform="translate(440.8163265306123,159.68794788241826)" d="M2.7386127875258306,0A2.7386127875258306,2.7386127875258306,0,1,1,-2.7386127875258306,0A2.7386127875258306,2.7386127875258306,0,1,1,2.7386127875258306,0" style="fill: #72b7b2; stroke-width: 2; opacity: 1;"></path><path transform="translate(453.0612244897959,153.61070110140926)" d="M2.7386127875258306,0A2.7386127875258306,2.7386127875258306,0,1,1,-2.7386127875258306,0A2.7386127875258306,2.7386127875258306,0,1,1,2.7386127875258306,0" style="fill: #72b7b2; stroke-width: 2; opacity: 1;"></path><path transform="translate(465.3061224489796,147.6253533188436)" d="M2.7386127875258306,0A2.7386127875258306,2.7386127875258306,0,1,1,-2.7386127875258306,0A2.7386127875258306,2.7386127875258306,0,1,1,2.7386127875258306,0" style="fill: #72b7b2; stroke-width: 2; opacity: 1;"></path><path transform="translate(477.55102040816325,143.29736338409398)" d="M2.7386127875258306,0A2.7386127875258306,2.7386127875258306,0,1,1,-2.7386127875258306,0A2.7386127875258306,2.7386127875258306,0,1,1,2.7386127875258306,0" style="fill: #72b7b2; stroke-width: 2; opacity: 1;"></path><path transform="translate(489.7959183673469,141.9075024324381)" d="M2.7386127875258306,0A2.7386127875258306,2.7386127875258306,0,1,1,-2.7386127875258306,0A2.7386127875258306,2.7386127875258306,0,1,1,2.7386127875258306,0" style="fill: #72b7b2; stroke-width: 2; opacity: 1;"></path><path transform="translate(502.04081632653066,141.68012260313776)" d="M2.7386127875258306,0A2.7386127875258306,2.7386127875258306,0,1,1,-2.7386127875258306,0A2.7386127875258306,2.7386127875258306,0,1,1,2.7386127875258306,0" style="fill: #72b7b2; stroke-width: 2; opacity: 1;"></path><path transform="translate(514.2857142857142,137.4687549038326)" d="M2.7386127875258306,0A2.7386127875258306,2.7386127875258306,0,1,1,-2.7386127875258306,0A2.7386127875258306,2.7386127875258306,0,1,1,2.7386127875258306,0" style="fill: #72b7b2; stroke-width: 2; opacity: 1;"></path><path transform="translate(526.530612244898,132.0572103387881)" d="M2.7386127875258306,0A2.7386127875258306,2.7386127875258306,0,1,1,-2.7386127875258306,0A2.7386127875258306,2.7386127875258306,0,1,1,2.7386127875258306,0" style="fill: #72b7b2; stroke-width: 2; opacity: 1;"></path><path transform="translate(538.7755102040817,130.3643611266668)" d="M2.7386127875258306,0A2.7386127875258306,2.7386127875258306,0,1,1,-2.7386127875258306,0A2.7386127875258306,2.7386127875258306,0,1,1,2.7386127875258306,0" style="fill: #72b7b2; stroke-width: 2; opacity: 1;"></path><path transform="translate(551.0204081632653,130.01622741327546)" d="M2.7386127875258306,0A2.7386127875258306,2.7386127875258306,0,1,1,-2.7386127875258306,0A2.7386127875258306,2.7386127875258306,0,1,1,2.7386127875258306,0" style="fill: #72b7b2; stroke-width: 2; opacity: 1;"></path><path transform="translate(563.265306122449,130.01622741327546)" d="M2.7386127875258306,0A2.7386127875258306,2.7386127875258306,0,1,1,-2.7386127875258306,0A2.7386127875258306,2.7386127875258306,0,1,1,2.7386127875258306,0" style="fill: #72b7b2; stroke-width: 2; opacity: 1;"></path><path transform="translate(575.5102040816327,130.01622741327546)" d="M2.7386127875258306,0A2.7386127875258306,2.7386127875258306,0,1,1,-2.7386127875258306,0A2.7386127875258306,2.7386127875258306,0,1,1,2.7386127875258306,0" style="fill: #72b7b2; stroke-width: 2; opacity: 1;"></path><path transform="translate(587.7551020408163,129.92962828549813)" d="M2.7386127875258306,0A2.7386127875258306,2.7386127875258306,0,1,1,-2.7386127875258306,0A2.7386127875258306,2.7386127875258306,0,1,1,2.7386127875258306,0" style="fill: #72b7b2; stroke-width: 2; opacity: 1;"></path><path transform="translate(48.97959183673469,352.2878745280338)" d="M2.7386127875258306,0A2.7386127875258306,2.7386127875258306,0,1,1,-2.7386127875258306,0A2.7386127875258306,2.7386127875258306,0,1,1,2.7386127875258306,0" style="fill: #f58518; stroke-width: 2; opacity: 1;"></path><path transform="translate(61.224489795918366,339.79400086720375)" d="M2.7386127875258306,0A2.7386127875258306,2.7386127875258306,0,1,1,-2.7386127875258306,0A2.7386127875258306,2.7386127875258306,0,1,1,2.7386127875258306,0" style="fill: #f58518; stroke-width: 2; opacity: 1;"></path><path transform="translate(73.46938775510203,330.1029995663981)" d="M2.7386127875258306,0A2.7386127875258306,2.7386127875258306,0,1,1,-2.7386127875258306,0A2.7386127875258306,2.7386127875258306,0,1,1,2.7386127875258306,0" style="fill: #f58518; stroke-width: 2; opacity: 1;"></path><path transform="translate(85.71428571428571,330.1029995663981)" d="M2.7386127875258306,0A2.7386127875258306,2.7386127875258306,0,1,1,-2.7386127875258306,0A2.7386127875258306,2.7386127875258306,0,1,1,2.7386127875258306,0" style="fill: #f58518; stroke-width: 2; opacity: 1;"></path><path transform="translate(97.95918367346938,330.1029995663981)" d="M2.7386127875258306,0A2.7386127875258306,2.7386127875258306,0,1,1,-2.7386127875258306,0A2.7386127875258306,2.7386127875258306,0,1,1,2.7386127875258306,0" style="fill: #f58518; stroke-width: 2; opacity: 1;"></path><path transform="translate(110.20408163265307,322.18487496163567)" d="M2.7386127875258306,0A2.7386127875258306,2.7386127875258306,0,1,1,-2.7386127875258306,0A2.7386127875258306,2.7386127875258306,0,1,1,2.7386127875258306,0" style="fill: #f58518; stroke-width: 2; opacity: 1;"></path><path transform="translate(122.44897959183673,285.3871964321762)" d="M2.7386127875258306,0A2.7386127875258306,2.7386127875258306,0,1,1,-2.7386127875258306,0A2.7386127875258306,2.7386127875258306,0,1,1,2.7386127875258306,0" style="fill: #f58518; stroke-width: 2; opacity: 1;"></path><path transform="translate(134.69387755102042,267.7780705266081)" d="M2.7386127875258306,0A2.7386127875258306,2.7386127875258306,0,1,1,-2.7386127875258306,0A2.7386127875258306,2.7386127875258306,0,1,1,2.7386127875258306,0" style="fill: #f58518; stroke-width: 2; opacity: 1;"></path><path transform="translate(146.93877551020407,263.8272163982407)" d="M2.7386127875258306,0A2.7386127875258306,2.7386127875258306,0,1,1,-2.7386127875258306,0A2.7386127875258306,2.7386127875258306,0,1,1,2.7386127875258306,0" style="fill: #f58518; stroke-width: 2; opacity: 1;"></path><path transform="translate(159.18367346938777,250.86383061657273)" d="M2.7386127875258306,0A2.7386127875258306,2.7386127875258306,0,1,1,-2.7386127875258306,0A2.7386127875258306,2.7386127875258306,0,1,1,2.7386127875258306,0" style="fill: #f58518; stroke-width: 2; opacity: 1;"></path><path transform="translate(171.42857142857142,240.8935392973501)" d="M2.7386127875258306,0A2.7386127875258306,2.7386127875258306,0,1,1,-2.7386127875258306,0A2.7386127875258306,2.7386127875258306,0,1,1,2.7386127875258306,0" style="fill: #f58518; stroke-width: 2; opacity: 1;"></path><path transform="translate(183.67346938775512,229.24298239020638)" d="M2.7386127875258306,0A2.7386127875258306,2.7386127875258306,0,1,1,-2.7386127875258306,0A2.7386127875258306,2.7386127875258306,0,1,1,2.7386127875258306,0" style="fill: #f58518; stroke-width: 2; opacity: 1;"></path><path transform="translate(195.91836734693877,219.38200260161133)" d="M2.7386127875258306,0A2.7386127875258306,2.7386127875258306,0,1,1,-2.7386127875258306,0A2.7386127875258306,2.7386127875258306,0,1,1,2.7386127875258306,0" style="fill: #f58518; stroke-width: 2; opacity: 1;"></path><path transform="translate(208.16326530612244,210.23729087095592)" d="M2.7386127875258306,0A2.7386127875258306,2.7386127875258306,0,1,1,-2.7386127875258306,0A2.7386127875258306,2.7386127875258306,0,1,1,2.7386127875258306,0" style="fill: #f58518; stroke-width: 2; opacity: 1;"></path><path transform="translate(220.40816326530614,200)" d="M2.7386127875258306,0A2.7386127875258306,2.7386127875258306,0,1,1,-2.7386127875258306,0A2.7386127875258306,2.7386127875258306,0,1,1,2.7386127875258306,0" style="fill: #f58518; stroke-width: 2; opacity: 1;"></path><path transform="translate(232.6530612244898,189.61962790440433)" d="M2.7386127875258306,0A2.7386127875258306,2.7386127875258306,0,1,1,-2.7386127875258306,0A2.7386127875258306,2.7386127875258306,0,1,1,2.7386127875258306,0" style="fill: #f58518; stroke-width: 2; opacity: 1;"></path><path transform="translate(244.89795918367346,175.94507517174006)" d="M2.7386127875258306,0A2.7386127875258306,2.7386127875258306,0,1,1,-2.7386127875258306,0A2.7386127875258306,2.7386127875258306,0,1,1,2.7386127875258306,0" style="fill: #f58518; stroke-width: 2; opacity: 1;"></path><path transform="translate(257.1428571428571,162.16020990518624)" d="M2.7386127875258306,0A2.7386127875258306,2.7386127875258306,0,1,1,-2.7386127875258306,0A2.7386127875258306,2.7386127875258306,0,1,1,2.7386127875258306,0" style="fill: #f58518; stroke-width: 2; opacity: 1;"></path><path transform="translate(269.38775510204084,154.36339668709573)" d="M2.7386127875258306,0A2.7386127875258306,2.7386127875258306,0,1,1,-2.7386127875258306,0A2.7386127875258306,2.7386127875258306,0,1,1,2.7386127875258306,0" style="fill: #f58518; stroke-width: 2; opacity: 1;"></path><path transform="translate(281.6326530612245,150.03129173815967)" d="M2.7386127875258306,0A2.7386127875258306,2.7386127875258306,0,1,1,-2.7386127875258306,0A2.7386127875258306,2.7386127875258306,0,1,1,2.7386127875258306,0" style="fill: #f58518; stroke-width: 2; opacity: 1;"></path><path transform="translate(293.87755102040813,142.2508200162775)" d="M2.7386127875258306,0A2.7386127875258306,2.7386127875258306,0,1,1,-2.7386127875258306,0A2.7386127875258306,2.7386127875258306,0,1,1,2.7386127875258306,0" style="fill: #f58518; stroke-width: 2; opacity: 1;"></path><path transform="translate(306.12244897959187,134.4861565188618)" d="M2.7386127875258306,0A2.7386127875258306,2.7386127875258306,0,1,1,-2.7386127875258306,0A2.7386127875258306,2.7386127875258306,0,1,1,2.7386127875258306,0" style="fill: #f58518; stroke-width: 2; opacity: 1;"></path><path transform="translate(318.36734693877554,132.33063903751338)" d="M2.7386127875258306,0A2.7386127875258306,2.7386127875258306,0,1,1,-2.7386127875258306,0A2.7386127875258306,2.7386127875258306,0,1,1,2.7386127875258306,0" style="fill: #f58518; stroke-width: 2; opacity: 1;"></path><path transform="translate(330.61224489795916,128.98826348881843)" d="M2.7386127875258306,0A2.7386127875258306,2.7386127875258306,0,1,1,-2.7386127875258306,0A2.7386127875258306,2.7386127875258306,0,1,1,2.7386127875258306,0" style="fill: #f58518; stroke-width: 2; opacity: 1;"></path><path transform="translate(342.85714285714283,124.18453780326102)" d="M2.7386127875258306,0A2.7386127875258306,2.7386127875258306,0,1,1,-2.7386127875258306,0A2.7386127875258306,2.7386127875258306,0,1,1,2.7386127875258306,0" style="fill: #f58518; stroke-width: 2; opacity: 1;"></path><path transform="translate(355.1020408163265,120.76083105017462)" d="M2.7386127875258306,0A2.7386127875258306,2.7386127875258306,0,1,1,-2.7386127875258306,0A2.7386127875258306,2.7386127875258306,0,1,1,2.7386127875258306,0" style="fill: #f58518; stroke-width: 2; opacity: 1;"></path><path transform="translate(367.34693877551024,116.55792963184678)" d="M2.7386127875258306,0A2.7386127875258306,2.7386127875258306,0,1,1,-2.7386127875258306,0A2.7386127875258306,2.7386127875258306,0,1,1,2.7386127875258306,0" style="fill: #f58518; stroke-width: 2; opacity: 1;"></path><path transform="translate(379.5918367346939,113.96619934290064)" d="M2.7386127875258306,0A2.7386127875258306,2.7386127875258306,0,1,1,-2.7386127875258306,0A2.7386127875258306,2.7386127875258306,0,1,1,2.7386127875258306,0" style="fill: #f58518; stroke-width: 2; opacity: 1;"></path><path transform="translate(391.83673469387753,110.3473782510445)" d="M2.7386127875258306,0A2.7386127875258306,2.7386127875258306,0,1,1,-2.7386127875258306,0A2.7386127875258306,2.7386127875258306,0,1,1,2.7386127875258306,0" style="fill: #f58518; stroke-width: 2; opacity: 1;"></path><path transform="translate(404.0816326530612,104.72075569559082)" d="M2.7386127875258306,0A2.7386127875258306,2.7386127875258306,0,1,1,-2.7386127875258306,0A2.7386127875258306,2.7386127875258306,0,1,1,2.7386127875258306,0" style="fill: #f58518; stroke-width: 2; opacity: 1;"></path><path transform="translate(416.3265306122449,104.43122496864943)" d="M2.7386127875258306,0A2.7386127875258306,2.7386127875258306,0,1,1,-2.7386127875258306,0A2.7386127875258306,2.7386127875258306,0,1,1,2.7386127875258306,0" style="fill: #f58518; stroke-width: 2; opacity: 1;"></path><path transform="translate(428.57142857142856,103.47982989740885)" d="M2.7386127875258306,0A2.7386127875258306,2.7386127875258306,0,1,1,-2.7386127875258306,0A2.7386127875258306,2.7386127875258306,0,1,1,2.7386127875258306,0" style="fill: #f58518; stroke-width: 2; opacity: 1;"></path><path transform="translate(440.8163265306123,101.14410431213847)" d="M2.7386127875258306,0A2.7386127875258306,2.7386127875258306,0,1,1,-2.7386127875258306,0A2.7386127875258306,2.7386127875258306,0,1,1,2.7386127875258306,0" style="fill: #f58518; stroke-width: 2; opacity: 1;"></path><path transform="translate(453.0612244897959,98.17156915734695)" d="M2.7386127875258306,0A2.7386127875258306,2.7386127875258306,0,1,1,-2.7386127875258306,0A2.7386127875258306,2.7386127875258306,0,1,1,2.7386127875258306,0" style="fill: #f58518; stroke-width: 2; opacity: 1;"></path><path transform="translate(465.3061224489796,97.14287473074626)" d="M2.7386127875258306,0A2.7386127875258306,2.7386127875258306,0,1,1,-2.7386127875258306,0A2.7386127875258306,2.7386127875258306,0,1,1,2.7386127875258306,0" style="fill: #f58518; stroke-width: 2; opacity: 1;"></path><path transform="translate(477.55102040816325,95.15581964495956)" d="M2.7386127875258306,0A2.7386127875258306,2.7386127875258306,0,1,1,-2.7386127875258306,0A2.7386127875258306,2.7386127875258306,0,1,1,2.7386127875258306,0" style="fill: #f58518; stroke-width: 2; opacity: 1;"></path><path transform="translate(489.7959183673469,91.61391991334273)" d="M2.7386127875258306,0A2.7386127875258306,2.7386127875258306,0,1,1,-2.7386127875258306,0A2.7386127875258306,2.7386127875258306,0,1,1,2.7386127875258306,0" style="fill: #f58518; stroke-width: 2; opacity: 1;"></path><path transform="translate(502.04081632653066,90.23956711255896)" d="M2.7386127875258306,0A2.7386127875258306,2.7386127875258306,0,1,1,-2.7386127875258306,0A2.7386127875258306,2.7386127875258306,0,1,1,2.7386127875258306,0" style="fill: #f58518; stroke-width: 2; opacity: 1;"></path><path transform="translate(514.2857142857142,88.672530753565)" d="M2.7386127875258306,0A2.7386127875258306,2.7386127875258306,0,1,1,-2.7386127875258306,0A2.7386127875258306,2.7386127875258306,0,1,1,2.7386127875258306,0" style="fill: #f58518; stroke-width: 2; opacity: 1;"></path><path transform="translate(526.530612244898,86.07507824283931)" d="M2.7386127875258306,0A2.7386127875258306,2.7386127875258306,0,1,1,-2.7386127875258306,0A2.7386127875258306,2.7386127875258306,0,1,1,2.7386127875258306,0" style="fill: #f58518; stroke-width: 2; opacity: 1;"></path><path transform="translate(538.7755102040817,84.89367466462502)" d="M2.7386127875258306,0A2.7386127875258306,2.7386127875258306,0,1,1,-2.7386127875258306,0A2.7386127875258306,2.7386127875258306,0,1,1,2.7386127875258306,0" style="fill: #f58518; stroke-width: 2; opacity: 1;"></path><path transform="translate(538.7755102040817,91.00948885606024)" d="M2.7386127875258306,0A2.7386127875258306,2.7386127875258306,0,1,1,-2.7386127875258306,0A2.7386127875258306,2.7386127875258306,0,1,1,2.7386127875258306,0" style="fill: #e45756; stroke-width: 2; opacity: 1;"></path><path transform="translate(551.0204081632653,89.4149325614857)" d="M2.7386127875258306,0A2.7386127875258306,2.7386127875258306,0,1,1,-2.7386127875258306,0A2.7386127875258306,2.7386127875258306,0,1,1,2.7386127875258306,0" style="fill: #e45756; stroke-width: 2; opacity: 1;"></path><path transform="translate(563.265306122449,88.37244124194558)" d="M2.7386127875258306,0A2.7386127875258306,2.7386127875258306,0,1,1,-2.7386127875258306,0A2.7386127875258306,2.7386127875258306,0,1,1,2.7386127875258306,0" style="fill: #e45756; stroke-width: 2; opacity: 1;"></path><path transform="translate(575.5102040816327,86.29625452104878)" d="M2.7386127875258306,0A2.7386127875258306,2.7386127875258306,0,1,1,-2.7386127875258306,0A2.7386127875258306,2.7386127875258306,0,1,1,2.7386127875258306,0" style="fill: #e45756; stroke-width: 2; opacity: 1;"></path><path transform="translate(587.7551020408163,85.72977542623845)" d="M2.7386127875258306,0A2.7386127875258306,2.7386127875258306,0,1,1,-2.7386127875258306,0A2.7386127875258306,2.7386127875258306,0,1,1,2.7386127875258306,0" style="fill: #e45756; stroke-width: 2; opacity: 1;"></path><path transform="translate(600,85.38719643217622)" d="M2.7386127875258306,0A2.7386127875258306,2.7386127875258306,0,1,1,-2.7386127875258306,0A2.7386127875258306,2.7386127875258306,0,1,1,2.7386127875258306,0" style="fill: #e45756; stroke-width: 2; opacity: 1;"></path><path transform="translate(97.95918367346938,400)" d="M2.7386127875258306,0A2.7386127875258306,2.7386127875258306,0,1,1,-2.7386127875258306,0A2.7386127875258306,2.7386127875258306,0,1,1,2.7386127875258306,0" style="fill: #54a24b; stroke-width: 2; opacity: 1;"></path><path transform="translate(110.20408163265307,400)" d="M2.7386127875258306,0A2.7386127875258306,2.7386127875258306,0,1,1,-2.7386127875258306,0A2.7386127875258306,2.7386127875258306,0,1,1,2.7386127875258306,0" style="fill: #54a24b; stroke-width: 2; opacity: 1;"></path><path transform="translate(122.44897959183673,400)" d="M2.7386127875258306,0A2.7386127875258306,2.7386127875258306,0,1,1,-2.7386127875258306,0A2.7386127875258306,2.7386127875258306,0,1,1,2.7386127875258306,0" style="fill: #54a24b; stroke-width: 2; opacity: 1;"></path><path transform="translate(134.69387755102042,369.8970004336019)" d="M2.7386127875258306,0A2.7386127875258306,2.7386127875258306,0,1,1,-2.7386127875258306,0A2.7386127875258306,2.7386127875258306,0,1,1,2.7386127875258306,0" style="fill: #54a24b; stroke-width: 2; opacity: 1;"></path><path transform="translate(146.93877551020407,339.79400086720375)" d="M2.7386127875258306,0A2.7386127875258306,2.7386127875258306,0,1,1,-2.7386127875258306,0A2.7386127875258306,2.7386127875258306,0,1,1,2.7386127875258306,0" style="fill: #54a24b; stroke-width: 2; opacity: 1;"></path><path transform="translate(159.18367346938777,330.1029995663981)" d="M2.7386127875258306,0A2.7386127875258306,2.7386127875258306,0,1,1,-2.7386127875258306,0A2.7386127875258306,2.7386127875258306,0,1,1,2.7386127875258306,0" style="fill: #54a24b; stroke-width: 2; opacity: 1;"></path><path transform="translate(171.42857142857142,322.18487496163567)" d="M2.7386127875258306,0A2.7386127875258306,2.7386127875258306,0,1,1,-2.7386127875258306,0A2.7386127875258306,2.7386127875258306,0,1,1,2.7386127875258306,0" style="fill: #54a24b; stroke-width: 2; opacity: 1;"></path><path transform="translate(183.67346938775512,315.49019599857434)" d="M2.7386127875258306,0A2.7386127875258306,2.7386127875258306,0,1,1,-2.7386127875258306,0A2.7386127875258306,2.7386127875258306,0,1,1,2.7386127875258306,0" style="fill: #54a24b; stroke-width: 2; opacity: 1;"></path><path transform="translate(195.91836734693877,315.49019599857434)" d="M2.7386127875258306,0A2.7386127875258306,2.7386127875258306,0,1,1,-2.7386127875258306,0A2.7386127875258306,2.7386127875258306,0,1,1,2.7386127875258306,0" style="fill: #54a24b; stroke-width: 2; opacity: 1;"></path><path transform="translate(208.16326530612244,300)" d="M2.7386127875258306,0A2.7386127875258306,2.7386127875258306,0,1,1,-2.7386127875258306,0A2.7386127875258306,2.7386127875258306,0,1,1,2.7386127875258306,0" style="fill: #54a24b; stroke-width: 2; opacity: 1;"></path><path transform="translate(220.40816326530614,295.8607314841775)" d="M2.7386127875258306,0A2.7386127875258306,2.7386127875258306,0,1,1,-2.7386127875258306,0A2.7386127875258306,2.7386127875258306,0,1,1,2.7386127875258306,0" style="fill: #54a24b; stroke-width: 2; opacity: 1;"></path><path transform="translate(232.6530612244898,285.3871964321762)" d="M2.7386127875258306,0A2.7386127875258306,2.7386127875258306,0,1,1,-2.7386127875258306,0A2.7386127875258306,2.7386127875258306,0,1,1,2.7386127875258306,0" style="fill: #54a24b; stroke-width: 2; opacity: 1;"></path><path transform="translate(244.89795918367346,276.9551078621726)" d="M2.7386127875258306,0A2.7386127875258306,2.7386127875258306,0,1,1,-2.7386127875258306,0A2.7386127875258306,2.7386127875258306,0,1,1,2.7386127875258306,0" style="fill: #54a24b; stroke-width: 2; opacity: 1;"></path><path transform="translate(257.1428571428571,269.8970004336019)" d="M2.7386127875258306,0A2.7386127875258306,2.7386127875258306,0,1,1,-2.7386127875258306,0A2.7386127875258306,2.7386127875258306,0,1,1,2.7386127875258306,0" style="fill: #54a24b; stroke-width: 2; opacity: 1;"></path><path transform="translate(269.38775510204084,267.7780705266081)" d="M2.7386127875258306,0A2.7386127875258306,2.7386127875258306,0,1,1,-2.7386127875258306,0A2.7386127875258306,2.7386127875258306,0,1,1,2.7386127875258306,0" style="fill: #54a24b; stroke-width: 2; opacity: 1;"></path><path transform="translate(281.6326530612245,261.9788758288394)" d="M2.7386127875258306,0A2.7386127875258306,2.7386127875258306,0,1,1,-2.7386127875258306,0A2.7386127875258306,2.7386127875258306,0,1,1,2.7386127875258306,0" style="fill: #54a24b; stroke-width: 2; opacity: 1;"></path><path transform="translate(293.87755102040813,260.20599913279625)" d="M2.7386127875258306,0A2.7386127875258306,2.7386127875258306,0,1,1,-2.7386127875258306,0A2.7386127875258306,2.7386127875258306,0,1,1,2.7386127875258306,0" style="fill: #54a24b; stroke-width: 2; opacity: 1;"></path><path transform="translate(306.12244897959187,253.7602002101044)" d="M2.7386127875258306,0A2.7386127875258306,2.7386127875258306,0,1,1,-2.7386127875258306,0A2.7386127875258306,2.7386127875258306,0,1,1,2.7386127875258306,0" style="fill: #54a24b; stroke-width: 2; opacity: 1;"></path><path transform="translate(318.36734693877554,248.1486060122113)" d="M2.7386127875258306,0A2.7386127875258306,2.7386127875258306,0,1,1,-2.7386127875258306,0A2.7386127875258306,2.7386127875258306,0,1,1,2.7386127875258306,0" style="fill: #54a24b; stroke-width: 2; opacity: 1;"></path><path transform="translate(330.61224489795916,245.59319556497243)" d="M2.7386127875258306,0A2.7386127875258306,2.7386127875258306,0,1,1,-2.7386127875258306,0A2.7386127875258306,2.7386127875258306,0,1,1,2.7386127875258306,0" style="fill: #54a24b; stroke-width: 2; opacity: 1;"></path><path transform="translate(342.85714285714283,242.021640338319)" d="M2.7386127875258306,0A2.7386127875258306,2.7386127875258306,0,1,1,-2.7386127875258306,0A2.7386127875258306,2.7386127875258306,0,1,1,2.7386127875258306,0" style="fill: #54a24b; stroke-width: 2; opacity: 1;"></path><path transform="translate(355.1020408163265,238.72161432802645)" d="M2.7386127875258306,0A2.7386127875258306,2.7386127875258306,0,1,1,-2.7386127875258306,0A2.7386127875258306,2.7386127875258306,0,1,1,2.7386127875258306,0" style="fill: #54a24b; stroke-width: 2; opacity: 1;"></path><path transform="translate(367.34693877551024,235.6547323513813)" d="M2.7386127875258306,0A2.7386127875258306,2.7386127875258306,0,1,1,-2.7386127875258306,0A2.7386127875258306,2.7386127875258306,0,1,1,2.7386127875258306,0" style="fill: #54a24b; stroke-width: 2; opacity: 1;"></path><path transform="translate(379.5918367346939,231.87587626244132)" d="M2.7386127875258306,0A2.7386127875258306,2.7386127875258306,0,1,1,-2.7386127875258306,0A2.7386127875258306,2.7386127875258306,0,1,1,2.7386127875258306,0" style="fill: #54a24b; stroke-width: 2; opacity: 1;"></path><path transform="translate(391.83673469387753,228.3996656365201)" d="M2.7386127875258306,0A2.7386127875258306,2.7386127875258306,0,1,1,-2.7386127875258306,0A2.7386127875258306,2.7386127875258306,0,1,1,2.7386127875258306,0" style="fill: #54a24b; stroke-width: 2; opacity: 1;"></path><path transform="translate(404.0816326530612,225.96373105057557)" d="M2.7386127875258306,0A2.7386127875258306,2.7386127875258306,0,1,1,-2.7386127875258306,0A2.7386127875258306,2.7386127875258306,0,1,1,2.7386127875258306,0" style="fill: #54a24b; stroke-width: 2; opacity: 1;"></path><path transform="translate(416.3265306122449,225.96373105057557)" d="M2.7386127875258306,0A2.7386127875258306,2.7386127875258306,0,1,1,-2.7386127875258306,0A2.7386127875258306,2.7386127875258306,0,1,1,2.7386127875258306,0" style="fill: #54a24b; stroke-width: 2; opacity: 1;"></path><path transform="translate(428.57142857142856,221.46701649892327)" d="M2.7386127875258306,0A2.7386127875258306,2.7386127875258306,0,1,1,-2.7386127875258306,0A2.7386127875258306,2.7386127875258306,0,1,1,2.7386127875258306,0" style="fill: #54a24b; stroke-width: 2; opacity: 1;"></path><path transform="translate(440.8163265306123,219.38200260161133)" d="M2.7386127875258306,0A2.7386127875258306,2.7386127875258306,0,1,1,-2.7386127875258306,0A2.7386127875258306,2.7386127875258306,0,1,1,2.7386127875258306,0" style="fill: #54a24b; stroke-width: 2; opacity: 1;"></path><path transform="translate(453.0612244897959,217.3925197299174)" d="M2.7386127875258306,0A2.7386127875258306,2.7386127875258306,0,1,1,-2.7386127875258306,0A2.7386127875258306,2.7386127875258306,0,1,1,2.7386127875258306,0" style="fill: #54a24b; stroke-width: 2; opacity: 1;"></path><path transform="translate(465.3061224489796,214.8741651280925)" d="M2.7386127875258306,0A2.7386127875258306,2.7386127875258306,0,1,1,-2.7386127875258306,0A2.7386127875258306,2.7386127875258306,0,1,1,2.7386127875258306,0" style="fill: #54a24b; stroke-width: 2; opacity: 1;"></path><path transform="translate(477.55102040816325,214.2667503568732)" d="M2.7386127875258306,0A2.7386127875258306,2.7386127875258306,0,1,1,-2.7386127875258306,0A2.7386127875258306,2.7386127875258306,0,1,1,2.7386127875258306,0" style="fill: #54a24b; stroke-width: 2; opacity: 1;"></path><path transform="translate(489.7959183673469,213.07682802690243)" d="M2.7386127875258306,0A2.7386127875258306,2.7386127875258306,0,1,1,-2.7386127875258306,0A2.7386127875258306,2.7386127875258306,0,1,1,2.7386127875258306,0" style="fill: #54a24b; stroke-width: 2; opacity: 1;"></path><path transform="translate(502.04081632653066,211.91864077192088)" d="M2.7386127875258306,0A2.7386127875258306,2.7386127875258306,0,1,1,-2.7386127875258306,0A2.7386127875258306,2.7386127875258306,0,1,1,2.7386127875258306,0" style="fill: #54a24b; stroke-width: 2; opacity: 1;"></path><path transform="translate(514.2857142857142,211.3509274827518)" d="M2.7386127875258306,0A2.7386127875258306,2.7386127875258306,0,1,1,-2.7386127875258306,0A2.7386127875258306,2.7386127875258306,0,1,1,2.7386127875258306,0" style="fill: #54a24b; stroke-width: 2; opacity: 1;"></path><path transform="translate(526.530612244898,209.69100130080568)" d="M2.7386127875258306,0A2.7386127875258306,2.7386127875258306,0,1,1,-2.7386127875258306,0A2.7386127875258306,2.7386127875258306,0,1,1,2.7386127875258306,0" style="fill: #54a24b; stroke-width: 2; opacity: 1;"></path><path transform="translate(538.7755102040817,208.09219076239262)" d="M2.7386127875258306,0A2.7386127875258306,2.7386127875258306,0,1,1,-2.7386127875258306,0A2.7386127875258306,2.7386127875258306,0,1,1,2.7386127875258306,0" style="fill: #54a24b; stroke-width: 2; opacity: 1;"></path><path transform="translate(551.0204081632653,208.09219076239262)" d="M2.7386127875258306,0A2.7386127875258306,2.7386127875258306,0,1,1,-2.7386127875258306,0A2.7386127875258306,2.7386127875258306,0,1,1,2.7386127875258306,0" style="fill: #54a24b; stroke-width: 2; opacity: 1;"></path><path transform="translate(563.265306122449,207.0581074285707)" d="M2.7386127875258306,0A2.7386127875258306,2.7386127875258306,0,1,1,-2.7386127875258306,0A2.7386127875258306,2.7386127875258306,0,1,1,2.7386127875258306,0" style="fill: #54a24b; stroke-width: 2; opacity: 1;"></path><path transform="translate(575.5102040816327,207.0581074285707)" d="M2.7386127875258306,0A2.7386127875258306,2.7386127875258306,0,1,1,-2.7386127875258306,0A2.7386127875258306,2.7386127875258306,0,1,1,2.7386127875258306,0" style="fill: #54a24b; stroke-width: 2; opacity: 1;"></path><path transform="translate(587.7551020408163,206.55015487564324)" d="M2.7386127875258306,0A2.7386127875258306,2.7386127875258306,0,1,1,-2.7386127875258306,0A2.7386127875258306,2.7386127875258306,0,1,1,2.7386127875258306,0" style="fill: #54a24b; stroke-width: 2; opacity: 1;"></path><path transform="translate(159.18367346938777,369.8970004336019)" d="M2.7386127875258306,0A2.7386127875258306,2.7386127875258306,0,1,1,-2.7386127875258306,0A2.7386127875258306,2.7386127875258306,0,1,1,2.7386127875258306,0" style="fill: #eeca3b; stroke-width: 2; opacity: 1;"></path><path transform="translate(171.42857142857142,369.8970004336019)" d="M2.7386127875258306,0A2.7386127875258306,2.7386127875258306,0,1,1,-2.7386127875258306,0A2.7386127875258306,2.7386127875258306,0,1,1,2.7386127875258306,0" style="fill: #eeca3b; stroke-width: 2; opacity: 1;"></path><path transform="translate(183.67346938775512,369.8970004336019)" d="M2.7386127875258306,0A2.7386127875258306,2.7386127875258306,0,1,1,-2.7386127875258306,0A2.7386127875258306,2.7386127875258306,0,1,1,2.7386127875258306,0" style="fill: #eeca3b; stroke-width: 2; opacity: 1;"></path><path transform="translate(195.91836734693877,369.8970004336019)" d="M2.7386127875258306,0A2.7386127875258306,2.7386127875258306,0,1,1,-2.7386127875258306,0A2.7386127875258306,2.7386127875258306,0,1,1,2.7386127875258306,0" style="fill: #eeca3b; stroke-width: 2; opacity: 1;"></path><path transform="translate(208.16326530612244,352.2878745280338)" d="M2.7386127875258306,0A2.7386127875258306,2.7386127875258306,0,1,1,-2.7386127875258306,0A2.7386127875258306,2.7386127875258306,0,1,1,2.7386127875258306,0" style="fill: #eeca3b; stroke-width: 2; opacity: 1;"></path><path transform="translate(220.40816326530614,352.2878745280338)" d="M2.7386127875258306,0A2.7386127875258306,2.7386127875258306,0,1,1,-2.7386127875258306,0A2.7386127875258306,2.7386127875258306,0,1,1,2.7386127875258306,0" style="fill: #eeca3b; stroke-width: 2; opacity: 1;"></path><path transform="translate(232.6530612244898,330.1029995663981)" d="M2.7386127875258306,0A2.7386127875258306,2.7386127875258306,0,1,1,-2.7386127875258306,0A2.7386127875258306,2.7386127875258306,0,1,1,2.7386127875258306,0" style="fill: #eeca3b; stroke-width: 2; opacity: 1;"></path><path transform="translate(244.89795918367346,322.18487496163567)" d="M2.7386127875258306,0A2.7386127875258306,2.7386127875258306,0,1,1,-2.7386127875258306,0A2.7386127875258306,2.7386127875258306,0,1,1,2.7386127875258306,0" style="fill: #eeca3b; stroke-width: 2; opacity: 1;"></path><path transform="translate(257.1428571428571,309.6910013008057)" d="M2.7386127875258306,0A2.7386127875258306,2.7386127875258306,0,1,1,-2.7386127875258306,0A2.7386127875258306,2.7386127875258306,0,1,1,2.7386127875258306,0" style="fill: #eeca3b; stroke-width: 2; opacity: 1;"></path><path transform="translate(269.38775510204084,295.8607314841775)" d="M2.7386127875258306,0A2.7386127875258306,2.7386127875258306,0,1,1,-2.7386127875258306,0A2.7386127875258306,2.7386127875258306,0,1,1,2.7386127875258306,0" style="fill: #eeca3b; stroke-width: 2; opacity: 1;"></path><path transform="translate(281.6326530612245,292.08187539523755)" d="M2.7386127875258306,0A2.7386127875258306,2.7386127875258306,0,1,1,-2.7386127875258306,0A2.7386127875258306,2.7386127875258306,0,1,1,2.7386127875258306,0" style="fill: #eeca3b; stroke-width: 2; opacity: 1;"></path><path transform="translate(293.87755102040813,282.39087409443187)" d="M2.7386127875258306,0A2.7386127875258306,2.7386127875258306,0,1,1,-2.7386127875258306,0A2.7386127875258306,2.7386127875258306,0,1,1,2.7386127875258306,0" style="fill: #eeca3b; stroke-width: 2; opacity: 1;"></path><path transform="translate(306.12244897959187,274.47274948966947)" d="M2.7386127875258306,0A2.7386127875258306,2.7386127875258306,0,1,1,-2.7386127875258306,0A2.7386127875258306,2.7386127875258306,0,1,1,2.7386127875258306,0" style="fill: #eeca3b; stroke-width: 2; opacity: 1;"></path><path transform="translate(318.36734693877554,269.8970004336019)" d="M2.7386127875258306,0A2.7386127875258306,2.7386127875258306,0,1,1,-2.7386127875258306,0A2.7386127875258306,2.7386127875258306,0,1,1,2.7386127875258306,0" style="fill: #eeca3b; stroke-width: 2; opacity: 1;"></path><path transform="translate(330.61224489795916,267.7780705266081)" d="M2.7386127875258306,0A2.7386127875258306,2.7386127875258306,0,1,1,-2.7386127875258306,0A2.7386127875258306,2.7386127875258306,0,1,1,2.7386127875258306,0" style="fill: #eeca3b; stroke-width: 2; opacity: 1;"></path><path transform="translate(342.85714285714283,263.8272163982407)" d="M2.7386127875258306,0A2.7386127875258306,2.7386127875258306,0,1,1,-2.7386127875258306,0A2.7386127875258306,2.7386127875258306,0,1,1,2.7386127875258306,0" style="fill: #eeca3b; stroke-width: 2; opacity: 1;"></path><path transform="translate(355.1020408163265,261.9788758288394)" d="M2.7386127875258306,0A2.7386127875258306,2.7386127875258306,0,1,1,-2.7386127875258306,0A2.7386127875258306,2.7386127875258306,0,1,1,2.7386127875258306,0" style="fill: #eeca3b; stroke-width: 2; opacity: 1;"></path><path transform="translate(367.34693877551024,248.1486060122113)" d="M2.7386127875258306,0A2.7386127875258306,2.7386127875258306,0,1,1,-2.7386127875258306,0A2.7386127875258306,2.7386127875258306,0,1,1,2.7386127875258306,0" style="fill: #eeca3b; stroke-width: 2; opacity: 1;"></path><path transform="translate(379.5918367346939,240.8935392973501)" d="M2.7386127875258306,0A2.7386127875258306,2.7386127875258306,0,1,1,-2.7386127875258306,0A2.7386127875258306,2.7386127875258306,0,1,1,2.7386127875258306,0" style="fill: #eeca3b; stroke-width: 2; opacity: 1;"></path><path transform="translate(391.83673469387753,237.67507096020998)" d="M2.7386127875258306,0A2.7386127875258306,2.7386127875258306,0,1,1,-2.7386127875258306,0A2.7386127875258306,2.7386127875258306,0,1,1,2.7386127875258306,0" style="fill: #eeca3b; stroke-width: 2; opacity: 1;"></path><path transform="translate(404.0816326530612,235.6547323513813)" d="M2.7386127875258306,0A2.7386127875258306,2.7386127875258306,0,1,1,-2.7386127875258306,0A2.7386127875258306,2.7386127875258306,0,1,1,2.7386127875258306,0" style="fill: #eeca3b; stroke-width: 2; opacity: 1;"></path><path transform="translate(416.3265306122449,234.67874862246566)" d="M2.7386127875258306,0A2.7386127875258306,2.7386127875258306,0,1,1,-2.7386127875258306,0A2.7386127875258306,2.7386127875258306,0,1,1,2.7386127875258306,0" style="fill: #eeca3b; stroke-width: 2; opacity: 1;"></path><path transform="translate(428.57142857142856,234.67874862246566)" d="M2.7386127875258306,0A2.7386127875258306,2.7386127875258306,0,1,1,-2.7386127875258306,0A2.7386127875258306,2.7386127875258306,0,1,1,2.7386127875258306,0" style="fill: #eeca3b; stroke-width: 2; opacity: 1;"></path><path transform="translate(440.8163265306123,229.24298239020638)" d="M2.7386127875258306,0A2.7386127875258306,2.7386127875258306,0,1,1,-2.7386127875258306,0A2.7386127875258306,2.7386127875258306,0,1,1,2.7386127875258306,0" style="fill: #eeca3b; stroke-width: 2; opacity: 1;"></path><path transform="translate(453.0612244897959,225.18119729937993)" d="M2.7386127875258306,0A2.7386127875258306,2.7386127875258306,0,1,1,-2.7386127875258306,0A2.7386127875258306,2.7386127875258306,0,1,1,2.7386127875258306,0" style="fill: #eeca3b; stroke-width: 2; opacity: 1;"></path><path transform="translate(465.3061224489796,223.65720064370632)" d="M2.7386127875258306,0A2.7386127875258306,2.7386127875258306,0,1,1,-2.7386127875258306,0A2.7386127875258306,2.7386127875258306,0,1,1,2.7386127875258306,0" style="fill: #eeca3b; stroke-width: 2; opacity: 1;"></path><path transform="translate(477.55102040816325,222.18487496163567)" d="M2.7386127875258306,0A2.7386127875258306,2.7386127875258306,0,1,1,-2.7386127875258306,0A2.7386127875258306,2.7386127875258306,0,1,1,2.7386127875258306,0" style="fill: #eeca3b; stroke-width: 2; opacity: 1;"></path><path transform="translate(489.7959183673469,220.76083105017466)" d="M2.7386127875258306,0A2.7386127875258306,2.7386127875258306,0,1,1,-2.7386127875258306,0A2.7386127875258306,2.7386127875258306,0,1,1,2.7386127875258306,0" style="fill: #eeca3b; stroke-width: 2; opacity: 1;"></path><path transform="translate(502.04081632653066,220.06594505464187)" d="M2.7386127875258306,0A2.7386127875258306,2.7386127875258306,0,1,1,-2.7386127875258306,0A2.7386127875258306,2.7386127875258306,0,1,1,2.7386127875258306,0" style="fill: #eeca3b; stroke-width: 2; opacity: 1;"></path><path transform="translate(514.2857142857142,219.38200260161133)" d="M2.7386127875258306,0A2.7386127875258306,2.7386127875258306,0,1,1,-2.7386127875258306,0A2.7386127875258306,2.7386127875258306,0,1,1,2.7386127875258306,0" style="fill: #eeca3b; stroke-width: 2; opacity: 1;"></path><path transform="translate(526.530612244898,217.3925197299174)" d="M2.7386127875258306,0A2.7386127875258306,2.7386127875258306,0,1,1,-2.7386127875258306,0A2.7386127875258306,2.7386127875258306,0,1,1,2.7386127875258306,0" style="fill: #eeca3b; stroke-width: 2; opacity: 1;"></path><path transform="translate(538.7755102040817,216.1150909262745)" d="M2.7386127875258306,0A2.7386127875258306,2.7386127875258306,0,1,1,-2.7386127875258306,0A2.7386127875258306,2.7386127875258306,0,1,1,2.7386127875258306,0" style="fill: #eeca3b; stroke-width: 2; opacity: 1;"></path><path transform="translate(551.0204081632653,211.3509274827518)" d="M2.7386127875258306,0A2.7386127875258306,2.7386127875258306,0,1,1,-2.7386127875258306,0A2.7386127875258306,2.7386127875258306,0,1,1,2.7386127875258306,0" style="fill: #eeca3b; stroke-width: 2; opacity: 1;"></path><path transform="translate(563.265306122449,208.09219076239262)" d="M2.7386127875258306,0A2.7386127875258306,2.7386127875258306,0,1,1,-2.7386127875258306,0A2.7386127875258306,2.7386127875258306,0,1,1,2.7386127875258306,0" style="fill: #eeca3b; stroke-width: 2; opacity: 1;"></path><path transform="translate(575.5102040816327,207.57207139381188)" d="M2.7386127875258306,0A2.7386127875258306,2.7386127875258306,0,1,1,-2.7386127875258306,0A2.7386127875258306,2.7386127875258306,0,1,1,2.7386127875258306,0" style="fill: #eeca3b; stroke-width: 2; opacity: 1;"></path><path transform="translate(587.7551020408163,207.57207139381188)" d="M2.7386127875258306,0A2.7386127875258306,2.7386127875258306,0,1,1,-2.7386127875258306,0A2.7386127875258306,2.7386127875258306,0,1,1,2.7386127875258306,0" style="fill: #eeca3b; stroke-width: 2; opacity: 1;"></path><path transform="translate(600,206.55015487564324)" d="M2.7386127875258306,0A2.7386127875258306,2.7386127875258306,0,1,1,-2.7386127875258306,0A2.7386127875258306,2.7386127875258306,0,1,1,2.7386127875258306,0" style="fill: #eeca3b; stroke-width: 2; opacity: 1;"></path></g><g class="mark-group role-legend"><g transform="translate(0,-64)"><path class="background" d="M0,0h475v46h-475Z" style="pointer-events: none; fill: none;"></path><g><g class="mark-group role-legend-entry"><g transform="translate(0,0)"><path class="background" d="M0,0h0v0h0Z" style="pointer-events: none; fill: none;"></path><g><g class="mark-group role-scope"><g transform="translate(0,0)"><path class="background" d="M0,0h239.7509765625v14h-239.7509765625Z" style="pointer-events: none; fill: none; opacity: 1;"></path><g><g class="mark-symbol role-legend-symbol" style="pointer-events: none;"><path transform="translate(7,7)" d="M5,0A5,5,0,1,1,-5,0A5,5,0,1,1,5,0" style="fill: #4c78a8; stroke: #4c78a8; stroke-width: 1.5; opacity: 1;"></path></g><g class="mark-text role-legend-label" style="pointer-events: none;"><text text-anchor="start" transform="translate(18,11)" style="font-family: sans-serif; font-size: 14px; fill: #000; opacity: 1;">Casos confirmados (fecha muestra)</text></g></g><path class="foreground" d="" style="pointer-events: none; display: none; fill: none;"></path></g><g transform="translate(250,0)"><path class="background" d="M0,0h224.9853515625v14h-224.9853515625Z" style="pointer-events: none; fill: none; opacity: 1;"></path><g><g class="mark-symbol role-legend-symbol" style="pointer-events: none;"><path transform="translate(7,7)" d="M5,0A5,5,0,1,1,-5,0A5,5,0,1,1,5,0" style="fill: #f58518; stroke: #f58518; stroke-width: 1.5; opacity: 1;"></path></g><g class="mark-text role-legend-label" style="pointer-events: none;"><text text-anchor="start" transform="translate(18,11)" style="font-family: sans-serif; font-size: 14px; fill: #000; opacity: 1;">Pruebas positivas (fecha boletn)</text></g></g><path class="foreground" d="" style="pointer-events: none; display: none; fill: none;"></path></g><g transform="translate(0,16)"><path class="background" d="M0,0h239.7509765625v14h-239.7509765625Z" style="pointer-events: none; fill: none; opacity: 1;"></path><g><g class="mark-symbol role-legend-symbol" style="pointer-events: none;"><path transform="translate(7,7)" d="M5,0A5,5,0,1,1,-5,0A5,5,0,1,1,5,0" style="fill: #e45756; stroke: #e45756; stroke-width: 1.5; opacity: 1;"></path></g><g class="mark-text role-legend-label" style="pointer-events: none;"><text text-anchor="start" transform="translate(18,11)" style="font-family: sans-serif; font-size: 14px; fill: #000; opacity: 1;">Casos (fecha boletn)</text></g></g><path class="foreground" d="" style="pointer-events: none; display: none; fill: none;"></path></g><g transform="translate(250,16)"><path class="background" d="M0,0h224.9853515625v14h-224.9853515625Z" style="pointer-events: none; fill: none; opacity: 1;"></path><g><g class="mark-symbol role-legend-symbol" style="pointer-events: none;"><path transform="translate(7,7)" d="M5,0A5,5,0,1,1,-5,0A5,5,0,1,1,5,0" style="fill: #72b7b2; stroke: #72b7b2; stroke-width: 1.5; opacity: 1;"></path></g><g class="mark-text role-legend-label" style="pointer-events: none;"><text text-anchor="start" transform="translate(18,11)" style="font-family: sans-serif; font-size: 14px; fill: #000; opacity: 1;">Casos probables (fecha muestra)</text></g></g><path class="foreground" d="" style="pointer-events: none; display: none; fill: none;"></path></g><g transform="translate(0,32)"><path class="background" d="M0,0h239.7509765625v14h-239.7509765625Z" style="pointer-events: none; fill: none; opacity: 1;"></path><g><g class="mark-symbol role-legend-symbol" style="pointer-events: none;"><path transform="translate(7,7)" d="M5,0A5,5,0,1,1,-5,0A5,5,0,1,1,5,0" style="fill: #54a24b; stroke: #54a24b; stroke-width: 1.5; opacity: 1;"></path></g><g class="mark-text role-legend-label" style="pointer-events: none;"><text text-anchor="start" transform="translate(18,11)" style="font-family: sans-serif; font-size: 14px; fill: #000; opacity: 1;">Muertes (fecha muerte)</text></g></g><path class="foreground" d="" style="pointer-events: none; display: none; fill: none;"></path></g><g transform="translate(250,32)"><path class="background" d="M0,0h224.9853515625v14h-224.9853515625Z" style="pointer-events: none; fill: none; opacity: 1;"></path><g><g class="mark-symbol role-legend-symbol" style="pointer-events: none;"><path transform="translate(7,7)" d="M5,0A5,5,0,1,1,-5,0A5,5,0,1,1,5,0" style="fill: #eeca3b; stroke: #eeca3b; stroke-width: 1.5; opacity: 1;"></path></g><g class="mark-text role-legend-label" style="pointer-events: none;"><text text-anchor="start" transform="translate(18,11)" style="font-family: sans-serif; font-size: 14px; fill: #000; opacity: 1;">Muertes (fecha boletn)</text></g></g><path class="foreground" d="" style="pointer-events: none; display: none; fill: none;"></path></g></g></g><path class="foreground" d="" style="pointer-events: none; display: none; fill: none;"></path></g></g></g><path class="foreground" d="" style="pointer-events: none; display: none; fill: none;"></path></g></g></g><path class="foreground" d="" style="display: none; fill: none;"></path></g></g></g></svg>