<svg class="marks" width="656" height="463" viewBox="0 0 656 463" version="1.1" xmlns="http://www.w3.org/2000/svg" xmlns:xlink="http://www.w3.org/1999/xlink"><rect width="656" height="463" style="fill: white;"></rect><g transform="translate(48,37)"><g class="mark-group role-frame root"><g transform="translate(0,0)"><path class="background" d="M0.5,0.5h600v400h-600Z" style="fill: none; stroke: #ddd;"></path><g><g class="mark-group role-axis"><g transform="translate(0.5,400.5)"><path class="background" d="M0,0h0v0h0Z" style="pointer-events: none; fill: none;"></path><g><g class="mark-rule role-axis-grid" style="pointer-events: none;"><line transform="translate(41,-400)" x2="0" y2="400" style="fill: none; stroke: #ddd; stroke-width: 1; opacity: 1;"></line><line transform="translate(90,-400)" x2="0" y2="400" style="fill: none; stroke: #ddd; stroke-width: 1; opacity: 1;"></line><line transform="translate(138,-400)" x2="0" y2="400" style="fill: none; stroke: #ddd; stroke-width: 1; opacity: 1;"></line><line transform="translate(186,-400)" x2="0" y2="400" style="fill: none; stroke: #ddd; stroke-width: 1; opacity: 1;"></line><line transform="translate(234,-400)" x2="0" y2="400" style="fill: none; stroke: #ddd; stroke-width: 1; opacity: 1;"></line><line transform="translate(283,-400)" x2="0" y2="400" style="fill: none; stroke: #ddd; stroke-width: 1; opacity: 1;"></line><line transform="translate(331,-400)" x2="0" y2="400" style="fill: none; stroke: #ddd; stroke-width: 1; opacity: 1;"></line><line transform="translate(379,-400)" x2="0" y2="400" style="fill: none; stroke: #ddd; stroke-width: 1; opacity: 1;"></line><line transform="translate(428,-400)" x2="0" y2="400" style="fill: none; stroke: #ddd; stroke-width: 1; opacity: 1;"></line><line transform="translate(476,-400)" x2="0" y2="400" style="fill: none; stroke: #ddd; stroke-width: 1; opacity: 1;"></line><line transform="translate(524,-400)" x2="0" y2="400" style="fill: none; stroke: #ddd; stroke-width: 1; opacity: 1;"></line><line transform="translate(572,-400)" x2="0" y2="400" style="fill: none; stroke: #ddd; stroke-width: 1; opacity: 1;"></line></g></g><path class="foreground" d="" style="pointer-events: none; display: none; fill: none;"></path></g></g><g class="mark-group role-axis"><g transform="translate(0.5,0.5)"><path class="background" d="M0,0h0v0h0Z" style="pointer-events: none; fill: none;"></path><g><g class="mark-rule role-axis-grid" style="pointer-events: none;"><line transform="translate(0,400)" x2="600" y2="0" style="fill: none; stroke: #ddd; stroke-width: 1; opacity: 1;"></line><line transform="translate(0,370)" x2="600" y2="0" style="fill: none; stroke: #ddd; stroke-width: 1; opacity: 1;"></line><line transform="translate(0,352)" x2="600" y2="0" style="fill: none; stroke: #ddd; stroke-width: 1; opacity: 1;"></line><line transform="translate(0,340)" x2="600" y2="0" style="fill: none; stroke: #ddd; stroke-width: 1; opacity: 1;"></line><line transform="translate(0,330)" x2="600" y2="0" style="fill: none; stroke: #ddd; stroke-width: 1; opacity: 1;"></line><line transform="translate(0,322)" x2="600" y2="0" style="fill: none; stroke: #ddd; stroke-width: 1; opacity: 1;"></line><line transform="translate(0,315)" x2="600" y2="0" style="fill: none; stroke: #ddd; stroke-width: 1; opacity: 1;"></line><line transform="translate(0,310)" x2="600" y2="0" style="fill: none; stroke: #ddd; stroke-width: 1; opacity: 1;"></line><line transform="translate(0,305)" x2="600" y2="0" style="fill: none; stroke: #ddd; stroke-width: 1; opacity: 1;"></line><line transform="translate(0,300)" x2="600" y2="0" style="fill: none; stroke: #ddd; stroke-width: 1; opacity: 1;"></line><line transform="translate(0,270)" x2="600" y2="0" style="fill: none; stroke: #ddd; stroke-width: 1; opacity: 1;"></line><line transform="translate(0,252)" x2="600" y2="0" style="fill: none; stroke: #ddd; stroke-width: 1; opacity: 1;"></line><line transform="translate(0,240)" x2="600" y2="0" style="fill: none; stroke: #ddd; stroke-width: 1; opacity: 1;"></line><line transform="translate(0,230)" x2="600" y2="0" style="fill: none; stroke: #ddd; stroke-width: 1; opacity: 1;"></line><line transform="translate(0,222)" x2="600" y2="0" style="fill: none; stroke: #ddd; stroke-width: 1; opacity: 1;"></line><line transform="translate(0,215)" x2="600" y2="0" style="fill: none; stroke: #ddd; stroke-width: 1; opacity: 1;"></line><line transform="translate(0,210)" x2="600" y2="0" style="fill: none; stroke: #ddd; stroke-width: 1; opacity: 1;"></line><line transform="translate(0,205)" x2="600" y2="0" style="fill: none; stroke: #ddd; stroke-width: 1; opacity: 1;"></line><line transform="translate(0,200)" x2="600" y2="0" style="fill: none; stroke: #ddd; stroke-width: 1; opacity: 1;"></line><line transform="translate(0,170)" x2="600" y2="0" style="fill: none; stroke: #ddd; stroke-width: 1; opacity: 1;"></line><line transform="translate(0,152)" x2="600" y2="0" style="fill: none; stroke: #ddd; stroke-width: 1; opacity: 1;"></line><line transform="translate(0,140)" x2="600" y2="0" style="fill: none; stroke: #ddd; stroke-width: 1; opacity: 1;"></line><line transform="translate(0,130)" x2="600" y2="0" style="fill: none; stroke: #ddd; stroke-width: 1; opacity: 1;"></line><line transform="translate(0,122)" x2="600" y2="0" style="fill: none; stroke: #ddd; stroke-width: 1; opacity: 1;"></line><line transform="translate(0,115)" x2="600" y2="0" style="fill: none; stroke: #ddd; stroke-width: 1; opacity: 1;"></line><line transform="translate(0,110)" x2="600" y2="0" style="fill: none; stroke: #ddd; stroke-width: 1; opacity: 1;"></line><line transform="translate(0,105)" x2="600" y2="0" style="fill: none; stroke: #ddd; stroke-width: 1; opacity: 1;"></line><line transform="translate(0,100)" x2="600" y2="0" style="fill: none; stroke: #ddd; stroke-width: 1; opacity: 1;"></line><line transform="translate(0,70)" x2="600" y2="0" style="fill: none; stroke: #ddd; stroke-width: 1; opacity: 1;"></line><line transform="translate(0,52)" x2="600" y2="0" style="fill: none; stroke: #ddd; stroke-width: 1; opacity: 1;"></line><line transform="translate(0,40)" x2="600" y2="0" style="fill: none; stroke: #ddd; stroke-width: 1; opacity: 1;"></line><line transform="translate(0,30)" x2="600" y2="0" style="fill: none; stroke: #ddd; stroke-width: 1; opacity: 1;"></line><line transform="translate(0,22)" x2="600" y2="0" style="fill: none; stroke: #ddd; stroke-width: 1; opacity: 1;"></line><line transform="translate(0,15)" x2="600" y2="0" style="fill: none; stroke: #ddd; stroke-width: 1; opacity: 1;"></line><line transform="translate(0,10)" x2="600" y2="0" style="fill: none; stroke: #ddd; stroke-width: 1; opacity: 1;"></line><line transform="translate(0,5)" x2="600" y2="0" style="fill: none; stroke: #ddd; stroke-width: 1; opacity: 1;"></line><line transform="translate(0,0)" x2="600" y2="0" style="fill: none; stroke: #ddd; stroke-width: 1; opacity: 1;"></line></g></g><path class="foreground" d="" style="pointer-events: none; display: none; fill: none;"></path></g></g><g class="mark-group role-axis"><g transform="translate(0.5,400.5)"><path class="background" d="M0,0h0v0h0Z" style="pointer-events: none; fill: none;"></path><g><g class="mark-rule role-axis-tick" style="pointer-events: none;"><line transform="translate(41,0)" x2="0" y2="5" style="fill: none; stroke: #888; stroke-width: 1; opacity: 1;"></line><line transform="translate(90,0)" x2="0" y2="5" style="fill: none; stroke: #888; stroke-width: 1; opacity: 1;"></line><line transform="translate(138,0)" x2="0" y2="5" style="fill: none; stroke: #888; stroke-width: 1; opacity: 1;"></line><line transform="translate(186,0)" x2="0" y2="5" style="fill: none; stroke: #888; stroke-width: 1; opacity: 1;"></line><line transform="translate(234,0)" x2="0" y2="5" style="fill: none; stroke: #888; stroke-width: 1; opacity: 1;"></line><line transform="translate(283,0)" x2="0" y2="5" style="fill: none; stroke: #888; stroke-width: 1; opacity: 1;"></line><line transform="translate(331,0)" x2="0" y2="5" style="fill: none; stroke: #888; stroke-width: 1; opacity: 1;"></line><line transform="translate(379,0)" x2="0" y2="5" style="fill: none; stroke: #888; stroke-width: 1; opacity: 1;"></line><line transform="translate(428,0)" x2="0" y2="5" style="fill: none; stroke: #888; stroke-width: 1; opacity: 1;"></line><line transform="translate(476,0)" x2="0" y2="5" style="fill: none; stroke: #888; stroke-width: 1; opacity: 1;"></line><line transform="translate(524,0)" x2="0" y2="5" style="fill: none; stroke: #888; stroke-width: 1; opacity: 1;"></line><line transform="translate(572,0)" x2="0" y2="5" style="fill: none; stroke: #888; stroke-width: 1; opacity: 1;"></line></g><g class="mark-text role-axis-label" style="pointer-events: none;"><text text-anchor="middle" transform="translate(41.37931034482759,18)" style="font-family: sans-serif; font-size: 14px; fill: #000; opacity: 1;">15/03</text><text text-anchor="middle" transform="translate(89.65517241379311,18)" style="font-family: sans-serif; font-size: 14px; fill: #000; opacity: 1;">22/03</text><text text-anchor="middle" transform="translate(137.9310344827586,18)" style="font-family: sans-serif; font-size: 14px; fill: #000; opacity: 1;">29/03</text><text text-anchor="middle" transform="translate(186.20689655172416,18)" style="font-family: sans-serif; font-size: 14px; fill: #000; opacity: 1;">05/04</text><text text-anchor="middle" transform="translate(234.48275862068968,18)" style="font-family: sans-serif; font-size: 14px; fill: #000; opacity: 1;">12/04</text><text text-anchor="middle" transform="translate(282.7586206896552,18)" style="font-family: sans-serif; font-size: 14px; fill: #000; opacity: 1;">19/04</text><text text-anchor="middle" transform="translate(331.0344827586207,18)" style="font-family: sans-serif; font-size: 14px; fill: #000; opacity: 1;">26/04</text><text text-anchor="middle" transform="translate(379.3103448275862,18)" style="font-family: sans-serif; font-size: 14px; fill: #000; opacity: 1;">03/05</text><text text-anchor="middle" transform="translate(427.58620689655174,18)" style="font-family: sans-serif; font-size: 14px; fill: #000; opacity: 1;">10/05</text><text text-anchor="middle" transform="translate(475.86206896551727,18)" style="font-family: sans-serif; font-size: 14px; fill: #000; opacity: 1;">17/05</text><text text-anchor="middle" transform="translate(524.1379310344828,18)" style="font-family: sans-serif; font-size: 14px; fill: #000; opacity: 1;">24/05</text><text text-anchor="middle" transform="translate(572.4137931034483,18)" style="font-family: sans-serif; font-size: 14px; fill: #000; opacity: 1;">31/05</text></g><g class="mark-rule role-axis-domain" style="pointer-events: none;"><line transform="translate(0,0)" x2="600" y2="0" style="fill: none; stroke: #888; stroke-width: 1; opacity: 1;"></line></g></g><path class="foreground" d="" style="pointer-events: none; display: none; fill: none;"></path></g></g><g class="mark-group role-axis"><g transform="translate(0.5,0.5)"><path class="background" d="M0,0h0v0h0Z" style="pointer-events: none; fill: none;"></path><g><g class="mark-rule role-axis-tick" style="pointer-events: none;"><line transform="translate(0,400)" x2="-5" y2="0" style="fill: none; stroke: #888; stroke-width: 1; opacity: 1;"></line><line transform="translate(0,370)" x2="-5" y2="0" style="fill: none; stroke: #888; stroke-width: 1; opacity: 1;"></line><line transform="translate(0,352)" x2="-5" y2="0" style="fill: none; stroke: #888; stroke-width: 1; opacity: 1;"></line><line transform="translate(0,340)" x2="-5" y2="0" style="fill: none; stroke: #888; stroke-width: 1; opacity: 1;"></line><line transform="translate(0,330)" x2="-5" y2="0" style="fill: none; stroke: #888; stroke-width: 1; opacity: 1;"></line><line transform="translate(0,322)" x2="-5" y2="0" style="fill: none; stroke: #888; stroke-width: 1; opacity: 1;"></line><line transform="translate(0,315)" x2="-5" y2="0" style="fill: none; stroke: #888; stroke-width: 1; opacity: 1;"></line><line transform="translate(0,310)" x2="-5" y2="0" style="fill: none; stroke: #888; stroke-width: 1; opacity: 1;"></line><line transform="translate(0,305)" x2="-5" y2="0" style="fill: none; stroke: #888; stroke-width: 1; opacity: 1;"></line><line transform="translate(0,300)" x2="-5" y2="0" style="fill: none; stroke: #888; stroke-width: 1; opacity: 1;"></line><line transform="translate(0,270)" x2="-5" y2="0" style="fill: none; stroke: #888; stroke-width: 1; opacity: 1;"></line><line transform="translate(0,252)" x2="-5" y2="0" style="fill: none; stroke: #888; stroke-width: 1; opacity: 1;"></line><line transform="translate(0,240)" x2="-5" y2="0" style="fill: none; stroke: #888; stroke-width: 1; opacity: 1;"></line><line transform="translate(0,230)" x2="-5" y2="0" style="fill: none; stroke: #888; stroke-width: 1; opacity: 1;"></line><line transform="translate(0,222)" x2="-5" y2="0" style="fill: none; stroke: #888; stroke-width: 1; opacity: 1;"></line><line transform="translate(0,215)" x2="-5" y2="0" style="fill: none; stroke: #888; stroke-width: 1; opacity: 1;"></line><line transform="translate(0,210)" x2="-5" y2="0" style="fill: none; stroke: #888; stroke-width: 1; opacity: 1;"></line><line transform="translate(0,205)" x2="-5" y2="0" style="fill: none; stroke: #888; stroke-width: 1; opacity: 1;"></line><line transform="translate(0,200)" x2="-5" y2="0" style="fill: none; stroke: #888; stroke-width: 1; opacity: 1;"></line><line transform="translate(0,170)" x2="-5" y2="0" style="fill: none; stroke: #888; stroke-width: 1; opacity: 1;"></line><line transform="translate(0,152)" x2="-5" y2="0" style="fill: none; stroke: #888; stroke-width: 1; opacity: 1;"></line><line transform="translate(0,140)" x2="-5" y2="0" style="fill: none; stroke: #888; stroke-width: 1; opacity: 1;"></line><line transform="translate(0,130)" x2="-5" y2="0" style="fill: none; stroke: #888; stroke-width: 1; opacity: 1;"></line><line transform="translate(0,122)" x2="-5" y2="0" style="fill: none; stroke: #888; stroke-width: 1; opacity: 1;"></line><line transform="translate(0,115)" x2="-5" y2="0" style="fill: none; stroke: #888; stroke-width: 1; opacity: 1;"></line><line transform="translate(0,110)" x2="-5" y2="0" style="fill: none; stroke: #888; stroke-width: 1; opacity: 1;"></line><line transform="translate(0,105)" x2="-5" y2="0" style="fill: none; stroke: #888; stroke-width: 1; opacity: 1;"></line><line transform="translate(0,100)" x2="-5" y2="0" style="fill: none; stroke: #888; stroke-width: 1; opacity: 1;"></line><line transform="translate(0,70)" x2="-5" y2="0" style="fill: none; stroke: #888; stroke-width: 1; opacity: 1;"></line><line transform="translate(0,52)" x2="-5" y2="0" style="fill: none; stroke: #888; stroke-width: 1; opacity: 1;"></line><line transform="translate(0,40)" x2="-5" y2="0" style="fill: none; stroke: #888; stroke-width: 1; opacity: 1;"></line><line transform="translate(0,30)" x2="-5" y2="0" style="fill: none; stroke: #888; stroke-width: 1; opacity: 1;"></line><line transform="translate(0,22)" x2="-5" y2="0" style="fill: none; stroke: #888; stroke-width: 1; opacity: 1;"></line><line transform="translate(0,15)" x2="-5" y2="0" style="fill: none; stroke: #888; stroke-width: 1; opacity: 1;"></line><line transform="translate(0,10)" x2="-5" y2="0" style="fill: none; stroke: #888; stroke-width: 1; opacity: 1;"></line><line transform="translate(0,5)" x2="-5" y2="0" style="fill: none; stroke: #888; stroke-width: 1; opacity: 1;"></line><line transform="translate(0,0)" x2="-5" y2="0" style="fill: none; stroke: #888; stroke-width: 1; opacity: 1;"></line></g><g class="mark-text role-axis-label" style="pointer-events: none;"><text text-anchor="end" transform="translate(-7,404)" style="font-family: sans-serif; font-size: 14px; fill: #000; opacity: 1;">0.1</text><text text-anchor="end" transform="translate(-7,373.8970004336019)" style="font-family: sans-serif; font-size: 14px; fill: #000; opacity: 1;">0.2</text><text text-anchor="end" transform="translate(-7,356.28787452803374)" style="font-family: sans-serif; font-size: 14px; fill: #000; opacity: 1;"></text><text text-anchor="end" transform="translate(-7,343.79400086720375)" style="font-family: sans-serif; font-size: 14px; fill: #000; opacity: 1;"></text><text text-anchor="end" transform="translate(-7,334.1029995663981)" style="font-family: sans-serif; font-size: 14px; fill: #000; opacity: 1;"></text><text text-anchor="end" transform="translate(-7,326.1848749616356)" style="font-family: sans-serif; font-size: 14px; fill: #000; opacity: 1;"></text><text text-anchor="end" transform="translate(-7,319.49019599857434)" style="font-family: sans-serif; font-size: 14px; fill: #000; opacity: 1;"></text><text text-anchor="end" transform="translate(-7,313.6910013008056)" style="font-family: sans-serif; font-size: 14px; fill: #000; opacity: 1;"></text><text text-anchor="end" transform="translate(-7,308.57574905606754)" style="font-family: sans-serif; font-size: 14px; fill: #000; opacity: 1;"></text><text text-anchor="end" transform="translate(-7,304)" style="font-family: sans-serif; font-size: 14px; fill: #000; opacity: 1;">1</text><text text-anchor="end" transform="translate(-7,273.8970004336019)" style="font-family: sans-serif; font-size: 14px; fill: #000; opacity: 1;">2</text><text text-anchor="end" transform="translate(-7,256.28787452803374)" style="font-family: sans-serif; font-size: 14px; fill: #000; opacity: 1;"></text><text text-anchor="end" transform="translate(-7,243.79400086720375)" style="font-family: sans-serif; font-size: 14px; fill: #000; opacity: 1;"></text><text text-anchor="end" transform="translate(-7,234.10299956639813)" style="font-family: sans-serif; font-size: 14px; fill: #000; opacity: 1;"></text><text text-anchor="end" transform="translate(-7,226.18487496163561)" style="font-family: sans-serif; font-size: 14px; fill: #000; opacity: 1;"></text><text text-anchor="end" transform="translate(-7,219.4901959985743)" style="font-family: sans-serif; font-size: 14px; fill: #000; opacity: 1;"></text><text text-anchor="end" transform="translate(-7,213.69100130080562)" style="font-family: sans-serif; font-size: 14px; fill: #000; opacity: 1;"></text><text text-anchor="end" transform="translate(-7,208.57574905606748)" style="font-family: sans-serif; font-size: 14px; fill: #000; opacity: 1;"></text><text text-anchor="end" transform="translate(-7,203.99999999999994)" style="font-family: sans-serif; font-size: 14px; fill: #000; opacity: 1;">10</text><text text-anchor="end" transform="translate(-7,173.89700043360187)" style="font-family: sans-serif; font-size: 14px; fill: #000; opacity: 1;">20</text><text text-anchor="end" transform="translate(-7,156.28787452803374)" style="font-family: sans-serif; font-size: 14px; fill: #000; opacity: 1;"></text><text text-anchor="end" transform="translate(-7,143.79400086720375)" style="font-family: sans-serif; font-size: 14px; fill: #000; opacity: 1;"></text><text text-anchor="end" transform="translate(-7,134.10299956639813)" style="font-family: sans-serif; font-size: 14px; fill: #000; opacity: 1;"></text><text text-anchor="end" transform="translate(-7,126.18487496163561)" style="font-family: sans-serif; font-size: 14px; fill: #000; opacity: 1;"></text><text text-anchor="end" transform="translate(-7,119.49019599857426)" style="font-family: sans-serif; font-size: 14px; fill: #000; opacity: 1;"></text><text text-anchor="end" transform="translate(-7,113.69100130080567)" style="font-family: sans-serif; font-size: 14px; fill: #000; opacity: 1;"></text><text text-anchor="end" transform="translate(-7,108.57574905606752)" style="font-family: sans-serif; font-size: 14px; fill: #000; opacity: 1;"></text><text text-anchor="end" transform="translate(-7,104)" style="font-family: sans-serif; font-size: 14px; fill: #000; opacity: 1;">100</text><text text-anchor="end" transform="translate(-7,73.89700043360187)" style="font-family: sans-serif; font-size: 14px; fill: #000; opacity: 1;">200</text><text text-anchor="end" transform="translate(-7,56.28787452803374)" style="font-family: sans-serif; font-size: 14px; fill: #000; opacity: 1;"></text><text text-anchor="end" transform="translate(-7,43.79400086720375)" style="font-family: sans-serif; font-size: 14px; fill: #000; opacity: 1;"></text><text text-anchor="end" transform="translate(-7,34.102999566398125)" style="font-family: sans-serif; font-size: 14px; fill: #000; opacity: 1;"></text><text text-anchor="end" transform="translate(-7,26.184874961635614)" style="font-family: sans-serif; font-size: 14px; fill: #000; opacity: 1;"></text><text text-anchor="end" transform="translate(-7,19.490195998574265)" style="font-family: sans-serif; font-size: 14px; fill: #000; opacity: 1;"></text><text text-anchor="end" transform="translate(-7,13.691001300805624)" style="font-family: sans-serif; font-size: 14px; fill: #000; opacity: 1;"></text><text text-anchor="end" transform="translate(-7,8.575749056067435)" style="font-family: sans-serif; font-size: 14px; fill: #000; opacity: 1;"></text><text text-anchor="end" transform="translate(-7,4)" style="font-family: sans-serif; font-size: 14px; fill: #000; opacity: 1;">1,000</text></g><g class="mark-rule role-axis-domain" style="pointer-events: none;"><line transform="translate(0,400)" x2="0" y2="-400" style="fill: none; stroke: #888; stroke-width: 1; opacity: 1;"></line></g></g><path class="foreground" d="" style="pointer-events: none; display: none; fill: none;"></path></g></g><g class="mark-group role-scope layer_0_pathgroup"><g transform="translate(0,0)"><path class="background" d="M0,0h600v400h-600Z" style="fill: none;"></path><g><g class="mark-line role-mark layer_0_marks"><path d="M0,300L27.586206896551722,260.20599913279625L34.48275862068965,257.4031267727719L48.275862068965516,237.16110699496883L55.172413793103445,231.87587626244124L62.06896551724138,231.57532524846874L68.9655172413793,231.36191229720015L75.86206896551725,219.1885526238913L82.75862068965517,212.90946963794573L89.65517241379311,207.42460283721124L96.55172413793103,192.0818753952375L103.44827586206897,175.16763548520214L110.34482758620689,164.0978057358332L117.24137931034484,151.87621790855053L124.13793103448276,144.88986929185202L131.0344827586207,142.67967486945113L137.9310344827586,142.34941131444256L144.82758620689657,134.81683919410418L151.7241379310345,133.58955176831535L158.6206896551724,129.36480420413815L165.51724137931035,129.73233346264342L172.41379310344826,129.60947779884688L179.31034482758622,130.72789449409825L186.20689655172416,131.8758762624413L193.10344827586206,136.65315444204137L200,139.7940008672038L206.89655172413794,147.9610055123357L213.79310344827587,151.4684266665066L220.68965517241378,162.2381568866674L227.58620689655172,163.02541919665595L234.48275862068968,162.76140958003504L241.3793103448276,168.67355479190076L248.27586206896552,171.79932416494492L255.17241379310343,170.52189536130206L262.0689655172414,172.7826744358493L268.9655172413793,166.90067809585761L275.8620689655172,167.7780705266081L282.7586206896552,168.67355479190073L289.65517241379314,172.45241088084074L296.55172413793105,174.12943190583002L303.448275862069,175.51929285748588L310.3448275862069,179.97750612276L317.2413793103448,181.97921747494868L324.1379310344828,185.38719643217618L337.9310344827586,181.5714262329047L344.8275862068965,182.39087409443192L351.7241379310345,183.2260815309085L358.62068965517244,185.83263057480121L365.51724137931035,190.55787873956382L372.4137931034483,196.42844477334654L379.3103448275862,196.42844477334654L386.2068965517241,199.3839691295182L393.10344827586204,197.00367766225574L400,195.86073148417756L406.8965517241379,198.1775179893801L413.7931034482759,190.55787873956382L420.68965517241384,191.5679114299964L434.48275862068965,186.28268069746886L441.37931034482756,184.5098040014257L448.2758620689655,189.08555305749323L455.17241379310343,195.3003437323777L462.06896551724134,198.77655435829888L468.96551724137936,212.90946963794585L475.86206896551727,215.4901959985744L482.7586206896552,221.16295844346712L489.6551724137931,224.30380486862953L496.55172413793105,225.40334329877587L503.44827586206895,232.65841001363708L510.34482758620686,239.7940008672039L517.2413793103448,236.79767852945952L524.1379310344828,235.37363461799856L531.0344827586207,239.7940008672039L537.9310344827586,243.01246920434406L544.8275862068965,246.48867983026523L551.7241379310344,231.36191229720023L558.6206896551724,228.87955392469706L565.5172413793103,231.36191229720023L579.3103448275863,223.23141832945223L586.2068965517242,221.16295844346712L593.1034482758621,224.30380486862953" style="fill: none; stroke: #4c78a8; stroke-width: 3;"></path></g></g><path class="foreground" d="" style="display: none; fill: none;"></path></g><g transform="translate(0,0)"><path class="background" d="M0,0h600v400h-600Z" style="fill: none;"></path><g><g class="mark-line role-mark layer_0_marks"><path d="M117.24137931034484,172.12463990471713L124.13793103448276,161.97887582883936L144.82758620689657,176.95510786217258L151.7241379310345,181.6730156317195L158.6206896551724,186.01209135987637L165.51724137931035,188.60566476931632L172.41379310344826,189.57080333693438L179.31034482758622,198.7765543582988L186.20689655172416,220.16453635280695L193.10344827586206,209.69100130080562L200,199.38396912951814L206.89655172413794,186.2826806974688L213.79310344827587,182.8064700715476L220.68965517241378,184.94628454167068L227.58620689655172,183.64978682523395L234.48275862068968,182.8064700715476L241.3793103448276,177.3216032708131L248.27586206896552,167.77807052660805L255.17241379310343,163.29104356102988L262.0689655172414,155.7296310084031L268.9655172413793,147.21860370441502L275.8620689655172,145.06463591880404L282.7586206896552,145.24010867545906L289.65517241379314,138.8732006885214L296.55172413793105,135.93766135326769L303.448275862069,130.98039199714862L310.3448275862069,127.22264378137767L317.2413793103448,122.49619850404989L324.1379310344828,122.08159441785887L331.0344827586207,121.67091099639458L337.9310344827586,119.96757706651647L344.8275862068965,119.09214981362956L351.7241379310345,120.86101436608914L358.62068965517244,119.77150698996368L365.51724137931035,116.74910872937639L372.4137931034483,116.38568026386693L379.3103448275862,116.2952963640425L386.2068965517241,113.66771398795441L393.10344827586204,109.69100130080567L400,106.83968560258457L406.8965517241379,105.76375654958414L413.7931034482759,104.57574905606752L420.68965517241384,104.99134503318324L427.58620689655174,105.06099933550873L434.48275862068965,105.90568297717024L441.37931034482756,108.09219076239258L448.2758620689655,110.00232484321995L455.17241379310343,109.45896451629108L462.06896551724134,109.76862321278334L468.96551724137936,108.92231843417655L475.86206896551727,108.92231843417655L482.7586206896552,110.31589622850575L489.6551724137931,111.59332503214867L496.55172413793105,111.59332503214867L503.44827586206895,115.31329372468963L510.34482758620686,118.04560644581316L517.2413793103448,117.95170489963036L524.1379310344828,117.76450871243034L531.0344827586207,121.7732183421524L537.9310344827586,120.26335197721356L544.8275862068965,119.77150698996368L551.7241379310344,117.67121233242564L558.6206896551724,119.96757706651647L565.5172413793103,121.7732183421524L572.4137931034483,122.1848749616357L579.3103448275863,118.80421871571531L586.2068965517242,125.18119729937993L593.1034482758621,134.40387777965057" style="fill: none; stroke: #f58518; stroke-width: 3;"></path></g></g><path class="foreground" d="" style="display: none; fill: none;"></path></g><g transform="translate(0,0)"><path class="background" d="M0,0h600v400h-600Z" style="fill: none;"></path><g><g class="mark-line role-mark layer_0_marks"><path d="M55.172413793103445,300L62.06896551724138,330.1029995663981L68.9655172413793,347.71212547196626L75.86206896551725,360.20599913279625L82.75862068965517,322.1848749616356L89.65517241379311,317.60912590556813L96.55172413793103,306.6946789630613L103.44827586206897,306.6946789630613L110.34482758620689,306.6946789630613L117.24137931034484,289.08555305749314L124.13793103448276,280.37053548560317L131.0344827586207,276.59167939666315L137.9310344827586,269.8970004336019L144.82758620689657,266.90067809585753L151.7241379310345,266.90067809585753L158.6206896551724,261.4649118635983L165.51724137931035,269.8970004336019L172.41379310344826,261.4649118635983L179.31034482758622,258.982553491095L186.20689655172416,261.4649118635983L193.10344827586206,261.4649118635983L200,256.6344439061428L206.89655172413794,254.40680443502757L213.79310344827587,246.48867983026506L220.68965517241378,246.48867983026506L227.58620689655172,246.48867983026506L234.48275862068968,250.26753591920505L241.3793103448276,244.71580313422194L248.27586206896552,244.71580313422194L255.17241379310343,243.01246920434386L262.0689655172414,243.01246920434386L268.9655172413793,248.3370203996664L275.8620689655172,252.28787452803374L282.7586206896552,246.48867983026506L289.65517241379314,256.6344439061428L296.55172413793105,254.40680443502757L303.448275862069,252.28787452803374L310.3448275862069,256.6344439061428L317.2413793103448,254.40680443502757L324.1379310344828,254.40680443502757L331.0344827586207,250.26753591920505L337.9310344827586,252.28787452803374L344.8275862068965,256.6344439061428L351.7241379310345,269.8970004336019L358.62068965517244,273.115468770742L365.51724137931035,273.115468770742L372.4137931034483,266.90067809585753L379.3103448275862,276.59167939666315L386.2068965517241,266.90067809585753L393.10344827586204,266.90067809585753L400,264.09780573583316L406.8965517241379,261.4649118635983L413.7931034482759,269.8970004336019L420.68965517241384,284.50980400142566L427.58620689655174,284.50980400142566L434.48275862068965,300L441.37931034482756,314.6128035678238L448.2758620689655,324.3038048686294L455.17241379310343,336.7976785294594L462.06896551724134,324.3038048686294L468.96551724137936,314.6128035678238L475.86206896551727,336.7976785294594L482.7586206896552,336.7976785294594L489.6551724137931,314.6128035678238L496.55172413793105,300L503.44827586206895,300L510.34482758620686,300L517.2413793103448,300L524.1379310344828,300L531.0344827586207,300L537.9310344827586,306.6946789630613L544.8275862068965,306.6946789630613L551.7241379310344,306.6946789630613L558.6206896551724,314.6128035678238L565.5172413793103,306.6946789630613L572.4137931034483,300L579.3103448275863,300L586.2068965517242,306.6946789630613L593.1034482758621,324.3038048686294L600,336.7976785294594" style="fill: none; stroke: #e45756; stroke-width: 3;"></path></g></g><path class="foreground" d="" style="display: none; fill: none;"></path></g></g><g class="mark-symbol role-mark layer_1_marks"><path transform="translate(0,300)" d="M2.7386127875258306,0A2.7386127875258306,2.7386127875258306,0,1,1,-2.7386127875258306,0A2.7386127875258306,2.7386127875258306,0,1,1,2.7386127875258306,0" style="fill: none; stroke: #4c78a8; stroke-width: 2; opacity: 0.5;"></path><path transform="translate(27.586206896551722,239.79400086720375)" d="M2.7386127875258306,0A2.7386127875258306,2.7386127875258306,0,1,1,-2.7386127875258306,0A2.7386127875258306,2.7386127875258306,0,1,1,2.7386127875258306,0" style="fill: none; stroke: #4c78a8; stroke-width: 2; opacity: 0.5;"></path><path transform="translate(34.48275862068965,252.28787452803374)" d="M2.7386127875258306,0A2.7386127875258306,2.7386127875258306,0,1,1,-2.7386127875258306,0A2.7386127875258306,2.7386127875258306,0,1,1,2.7386127875258306,0" style="fill: none; stroke: #4c78a8; stroke-width: 2; opacity: 0.5;"></path><path transform="translate(48.275862068965516,204.57574905606748)" d="M2.7386127875258306,0A2.7386127875258306,2.7386127875258306,0,1,1,-2.7386127875258306,0A2.7386127875258306,2.7386127875258306,0,1,1,2.7386127875258306,0" style="fill: none; stroke: #4c78a8; stroke-width: 2; opacity: 0.5;"></path><path transform="translate(55.172413793103445,215.4901959985743)" d="M2.7386127875258306,0A2.7386127875258306,2.7386127875258306,0,1,1,-2.7386127875258306,0A2.7386127875258306,2.7386127875258306,0,1,1,2.7386127875258306,0" style="fill: none; stroke: #4c78a8; stroke-width: 2; opacity: 0.5;"></path><path transform="translate(62.06896551724138,230.10299956639813)" d="M2.7386127875258306,0A2.7386127875258306,2.7386127875258306,0,1,1,-2.7386127875258306,0A2.7386127875258306,2.7386127875258306,0,1,1,2.7386127875258306,0" style="fill: none; stroke: #4c78a8; stroke-width: 2; opacity: 0.5;"></path><path transform="translate(68.9655172413793,230.10299956639813)" d="M2.7386127875258306,0A2.7386127875258306,2.7386127875258306,0,1,1,-2.7386127875258306,0A2.7386127875258306,2.7386127875258306,0,1,1,2.7386127875258306,0" style="fill: none; stroke: #4c78a8; stroke-width: 2; opacity: 0.5;"></path><path transform="translate(75.86206896551725,192.0818753952375)" d="M2.7386127875258306,0A2.7386127875258306,2.7386127875258306,0,1,1,-2.7386127875258306,0A2.7386127875258306,2.7386127875258306,0,1,1,2.7386127875258306,0" style="fill: none; stroke: #4c78a8; stroke-width: 2; opacity: 0.5;"></path><path transform="translate(82.75862068965517,195.8607314841775)" d="M2.7386127875258306,0A2.7386127875258306,2.7386127875258306,0,1,1,-2.7386127875258306,0A2.7386127875258306,2.7386127875258306,0,1,1,2.7386127875258306,0" style="fill: none; stroke: #4c78a8; stroke-width: 2; opacity: 0.5;"></path><path transform="translate(89.65517241379311,199.99999999999994)" d="M2.7386127875258306,0A2.7386127875258306,2.7386127875258306,0,1,1,-2.7386127875258306,0A2.7386127875258306,2.7386127875258306,0,1,1,2.7386127875258306,0" style="fill: none; stroke: #4c78a8; stroke-width: 2; opacity: 0.5;"></path><path transform="translate(96.55172413793103,146.85210829577446)" d="M2.7386127875258306,0A2.7386127875258306,2.7386127875258306,0,1,1,-2.7386127875258306,0A2.7386127875258306,2.7386127875258306,0,1,1,2.7386127875258306,0" style="fill: none; stroke: #4c78a8; stroke-width: 2; opacity: 0.5;"></path><path transform="translate(103.44827586206897,132.7902142064282)" d="M2.7386127875258306,0A2.7386127875258306,2.7386127875258306,0,1,1,-2.7386127875258306,0A2.7386127875258306,2.7386127875258306,0,1,1,2.7386127875258306,0" style="fill: none; stroke: #4c78a8; stroke-width: 2; opacity: 0.5;"></path><path transform="translate(110.34482758620689,138.72161432802642)" d="M2.7386127875258306,0A2.7386127875258306,2.7386127875258306,0,1,1,-2.7386127875258306,0A2.7386127875258306,2.7386127875258306,0,1,1,2.7386127875258306,0" style="fill: none; stroke: #4c78a8; stroke-width: 2; opacity: 0.5;"></path><path transform="translate(117.24137931034484,124.41251443275081)" d="M2.7386127875258306,0A2.7386127875258306,2.7386127875258306,0,1,1,-2.7386127875258306,0A2.7386127875258306,2.7386127875258306,0,1,1,2.7386127875258306,0" style="fill: none; stroke: #4c78a8; stroke-width: 2; opacity: 0.5;"></path><path transform="translate(124.13793103448276,130.98039199714862)" d="M2.7386127875258306,0A2.7386127875258306,2.7386127875258306,0,1,1,-2.7386127875258306,0A2.7386127875258306,2.7386127875258306,0,1,1,2.7386127875258306,0" style="fill: none; stroke: #4c78a8; stroke-width: 2; opacity: 0.5;"></path><path transform="translate(131.0344827586207,161.97887582883936)" d="M2.7386127875258306,0A2.7386127875258306,2.7386127875258306,0,1,1,-2.7386127875258306,0A2.7386127875258306,2.7386127875258306,0,1,1,2.7386127875258306,0" style="fill: none; stroke: #4c78a8; stroke-width: 2; opacity: 0.5;"></path><path transform="translate(137.9310344827586,192.0818753952375)" d="M2.7386127875258306,0A2.7386127875258306,2.7386127875258306,0,1,1,-2.7386127875258306,0A2.7386127875258306,2.7386127875258306,0,1,1,2.7386127875258306,0" style="fill: none; stroke: #4c78a8; stroke-width: 2; opacity: 0.5;"></path><path transform="translate(144.82758620689657,107.57207139381184)" d="M2.7386127875258306,0A2.7386127875258306,2.7386127875258306,0,1,1,-2.7386127875258306,0A2.7386127875258306,2.7386127875258306,0,1,1,2.7386127875258306,0" style="fill: none; stroke: #4c78a8; stroke-width: 2; opacity: 0.5;"></path><path transform="translate(151.7241379310345,125.18119729937993)" d="M2.7386127875258306,0A2.7386127875258306,2.7386127875258306,0,1,1,-2.7386127875258306,0A2.7386127875258306,2.7386127875258306,0,1,1,2.7386127875258306,0" style="fill: none; stroke: #4c78a8; stroke-width: 2; opacity: 0.5;"></path><path transform="translate(158.6206896551724,113.07682802690242)" d="M2.7386127875258306,0A2.7386127875258306,2.7386127875258306,0,1,1,-2.7386127875258306,0A2.7386127875258306,2.7386127875258306,0,1,1,2.7386127875258306,0" style="fill: none; stroke: #4c78a8; stroke-width: 2; opacity: 0.5;"></path><path transform="translate(165.51724137931035,126.76062401770314)" d="M2.7386127875258306,0A2.7386127875258306,2.7386127875258306,0,1,1,-2.7386127875258306,0A2.7386127875258306,2.7386127875258306,0,1,1,2.7386127875258306,0" style="fill: none; stroke: #4c78a8; stroke-width: 2; opacity: 0.5;"></path><path transform="translate(172.41379310344826,130.10299956639813)" d="M2.7386127875258306,0A2.7386127875258306,2.7386127875258306,0,1,1,-2.7386127875258306,0A2.7386127875258306,2.7386127875258306,0,1,1,2.7386127875258306,0" style="fill: none; stroke: #4c78a8; stroke-width: 2; opacity: 0.5;"></path><path transform="translate(179.31034482758622,182.39087409443187)" d="M2.7386127875258306,0A2.7386127875258306,2.7386127875258306,0,1,1,-2.7386127875258306,0A2.7386127875258306,2.7386127875258306,0,1,1,2.7386127875258306,0" style="fill: none; stroke: #4c78a8; stroke-width: 2; opacity: 0.5;"></path><path transform="translate(186.20689655172416,252.28787452803374)" d="M2.7386127875258306,0A2.7386127875258306,2.7386127875258306,0,1,1,-2.7386127875258306,0A2.7386127875258306,2.7386127875258306,0,1,1,2.7386127875258306,0" style="fill: none; stroke: #4c78a8; stroke-width: 2; opacity: 0.5;"></path><path transform="translate(193.10344827586206,130.98039199714862)" d="M2.7386127875258306,0A2.7386127875258306,2.7386127875258306,0,1,1,-2.7386127875258306,0A2.7386127875258306,2.7386127875258306,0,1,1,2.7386127875258306,0" style="fill: none; stroke: #4c78a8; stroke-width: 2; opacity: 0.5;"></path><path transform="translate(200,145.59319556497243)" d="M2.7386127875258306,0A2.7386127875258306,2.7386127875258306,0,1,1,-2.7386127875258306,0A2.7386127875258306,2.7386127875258306,0,1,1,2.7386127875258306,0" style="fill: none; stroke: #4c78a8; stroke-width: 2; opacity: 0.5;"></path><path transform="translate(206.89655172413794,158.5026652029182)" d="M2.7386127875258306,0A2.7386127875258306,2.7386127875258306,0,1,1,-2.7386127875258306,0A2.7386127875258306,2.7386127875258306,0,1,1,2.7386127875258306,0" style="fill: none; stroke: #4c78a8; stroke-width: 2; opacity: 0.5;"></path><path transform="translate(213.79310344827587,144.36974992327123)" d="M2.7386127875258306,0A2.7386127875258306,2.7386127875258306,0,1,1,-2.7386127875258306,0A2.7386127875258306,2.7386127875258306,0,1,1,2.7386127875258306,0" style="fill: none; stroke: #4c78a8; stroke-width: 2; opacity: 0.5;"></path><path transform="translate(220.68965517241378,252.28787452803374)" d="M2.7386127875258306,0A2.7386127875258306,2.7386127875258306,0,1,1,-2.7386127875258306,0A2.7386127875258306,2.7386127875258306,0,1,1,2.7386127875258306,0" style="fill: none; stroke: #4c78a8; stroke-width: 2; opacity: 0.5;"></path><path transform="translate(227.58620689655172,192.0818753952375)" d="M2.7386127875258306,0A2.7386127875258306,2.7386127875258306,0,1,1,-2.7386127875258306,0A2.7386127875258306,2.7386127875258306,0,1,1,2.7386127875258306,0" style="fill: none; stroke: #4c78a8; stroke-width: 2; opacity: 0.5;"></path><path transform="translate(234.48275862068968,239.79400086720375)" d="M2.7386127875258306,0A2.7386127875258306,2.7386127875258306,0,1,1,-2.7386127875258306,0A2.7386127875258306,2.7386127875258306,0,1,1,2.7386127875258306,0" style="fill: none; stroke: #4c78a8; stroke-width: 2; opacity: 0.5;"></path><path transform="translate(241.3793103448276,155.28419686577806)" d="M2.7386127875258306,0A2.7386127875258306,2.7386127875258306,0,1,1,-2.7386127875258306,0A2.7386127875258306,2.7386127875258306,0,1,1,2.7386127875258306,0" style="fill: none; stroke: #4c78a8; stroke-width: 2; opacity: 0.5;"></path><path transform="translate(248.27586206896552,160.20599913279625)" d="M2.7386127875258306,0A2.7386127875258306,2.7386127875258306,0,1,1,-2.7386127875258306,0A2.7386127875258306,2.7386127875258306,0,1,1,2.7386127875258306,0" style="fill: none; stroke: #4c78a8; stroke-width: 2; opacity: 0.5;"></path><path transform="translate(255.17241379310343,152.28787452803374)" d="M2.7386127875258306,0A2.7386127875258306,2.7386127875258306,0,1,1,-2.7386127875258306,0A2.7386127875258306,2.7386127875258306,0,1,1,2.7386127875258306,0" style="fill: none; stroke: #4c78a8; stroke-width: 2; opacity: 0.5;"></path><path transform="translate(262.0689655172414,153.7602002101044)" d="M2.7386127875258306,0A2.7386127875258306,2.7386127875258306,0,1,1,-2.7386127875258306,0A2.7386127875258306,2.7386127875258306,0,1,1,2.7386127875258306,0" style="fill: none; stroke: #4c78a8; stroke-width: 2; opacity: 0.5;"></path><path transform="translate(268.9655172413793,165.75773191777938)" d="M2.7386127875258306,0A2.7386127875258306,2.7386127875258306,0,1,1,-2.7386127875258306,0A2.7386127875258306,2.7386127875258306,0,1,1,2.7386127875258306,0" style="fill: none; stroke: #4c78a8; stroke-width: 2; opacity: 0.5;"></path><path transform="translate(275.8620689655172,204.57574905606748)" d="M2.7386127875258306,0A2.7386127875258306,2.7386127875258306,0,1,1,-2.7386127875258306,0A2.7386127875258306,2.7386127875258306,0,1,1,2.7386127875258306,0" style="fill: none; stroke: #4c78a8; stroke-width: 2; opacity: 0.5;"></path><path transform="translate(282.7586206896552,300)" d="M2.7386127875258306,0A2.7386127875258306,2.7386127875258306,0,1,1,-2.7386127875258306,0A2.7386127875258306,2.7386127875258306,0,1,1,2.7386127875258306,0" style="fill: none; stroke: #4c78a8; stroke-width: 2; opacity: 0.5;"></path><path transform="translate(289.65517241379314,179.5880017344075)" d="M2.7386127875258306,0A2.7386127875258306,2.7386127875258306,0,1,1,-2.7386127875258306,0A2.7386127875258306,2.7386127875258306,0,1,1,2.7386127875258306,0" style="fill: none; stroke: #4c78a8; stroke-width: 2; opacity: 0.5;"></path><path transform="translate(296.55172413793105,169.89700043360187)" d="M2.7386127875258306,0A2.7386127875258306,2.7386127875258306,0,1,1,-2.7386127875258306,0A2.7386127875258306,2.7386127875258306,0,1,1,2.7386127875258306,0" style="fill: none; stroke: #4c78a8; stroke-width: 2; opacity: 0.5;"></path><path transform="translate(303.448275862069,158.5026652029182)" d="M2.7386127875258306,0A2.7386127875258306,2.7386127875258306,0,1,1,-2.7386127875258306,0A2.7386127875258306,2.7386127875258306,0,1,1,2.7386127875258306,0" style="fill: none; stroke: #4c78a8; stroke-width: 2; opacity: 0.5;"></path><path transform="translate(310.3448275862069,176.95510786217258)" d="M2.7386127875258306,0A2.7386127875258306,2.7386127875258306,0,1,1,-2.7386127875258306,0A2.7386127875258306,2.7386127875258306,0,1,1,2.7386127875258306,0" style="fill: none; stroke: #4c78a8; stroke-width: 2; opacity: 0.5;"></path><path transform="translate(317.2413793103448,176.95510786217258)" d="M2.7386127875258306,0A2.7386127875258306,2.7386127875258306,0,1,1,-2.7386127875258306,0A2.7386127875258306,2.7386127875258306,0,1,1,2.7386127875258306,0" style="fill: none; stroke: #4c78a8; stroke-width: 2; opacity: 0.5;"></path><path transform="translate(324.1379310344828,300)" d="M2.7386127875258306,0A2.7386127875258306,2.7386127875258306,0,1,1,-2.7386127875258306,0A2.7386127875258306,2.7386127875258306,0,1,1,2.7386127875258306,0" style="fill: none; stroke: #4c78a8; stroke-width: 2; opacity: 0.5;"></path><path transform="translate(337.9310344827586,199.99999999999994)" d="M2.7386127875258306,0A2.7386127875258306,2.7386127875258306,0,1,1,-2.7386127875258306,0A2.7386127875258306,2.7386127875258306,0,1,1,2.7386127875258306,0" style="fill: none; stroke: #4c78a8; stroke-width: 2; opacity: 0.5;"></path><path transform="translate(344.8275862068965,185.38719643217618)" d="M2.7386127875258306,0A2.7386127875258306,2.7386127875258306,0,1,1,-2.7386127875258306,0A2.7386127875258306,2.7386127875258306,0,1,1,2.7386127875258306,0" style="fill: none; stroke: #4c78a8; stroke-width: 2; opacity: 0.5;"></path><path transform="translate(351.7241379310345,174.47274948966935)" d="M2.7386127875258306,0A2.7386127875258306,2.7386127875258306,0,1,1,-2.7386127875258306,0A2.7386127875258306,2.7386127875258306,0,1,1,2.7386127875258306,0" style="fill: none; stroke: #4c78a8; stroke-width: 2; opacity: 0.5;"></path><path transform="translate(358.62068965517244,169.89700043360187)" d="M2.7386127875258306,0A2.7386127875258306,2.7386127875258306,0,1,1,-2.7386127875258306,0A2.7386127875258306,2.7386127875258306,0,1,1,2.7386127875258306,0" style="fill: none; stroke: #4c78a8; stroke-width: 2; opacity: 0.5;"></path><path transform="translate(365.51724137931035,215.4901959985743)" d="M2.7386127875258306,0A2.7386127875258306,2.7386127875258306,0,1,1,-2.7386127875258306,0A2.7386127875258306,2.7386127875258306,0,1,1,2.7386127875258306,0" style="fill: none; stroke: #4c78a8; stroke-width: 2; opacity: 0.5;"></path><path transform="translate(372.4137931034483,222.18487496163561)" d="M2.7386127875258306,0A2.7386127875258306,2.7386127875258306,0,1,1,-2.7386127875258306,0A2.7386127875258306,2.7386127875258306,0,1,1,2.7386127875258306,0" style="fill: none; stroke: #4c78a8; stroke-width: 2; opacity: 0.5;"></path><path transform="translate(379.3103448275862,300)" d="M2.7386127875258306,0A2.7386127875258306,2.7386127875258306,0,1,1,-2.7386127875258306,0A2.7386127875258306,2.7386127875258306,0,1,1,2.7386127875258306,0" style="fill: none; stroke: #4c78a8; stroke-width: 2; opacity: 0.5;"></path><path transform="translate(386.2068965517241,230.10299956639813)" d="M2.7386127875258306,0A2.7386127875258306,2.7386127875258306,0,1,1,-2.7386127875258306,0A2.7386127875258306,2.7386127875258306,0,1,1,2.7386127875258306,0" style="fill: none; stroke: #4c78a8; stroke-width: 2; opacity: 0.5;"></path><path transform="translate(393.10344827586204,174.47274948966935)" d="M2.7386127875258306,0A2.7386127875258306,2.7386127875258306,0,1,1,-2.7386127875258306,0A2.7386127875258306,2.7386127875258306,0,1,1,2.7386127875258306,0" style="fill: none; stroke: #4c78a8; stroke-width: 2; opacity: 0.5;"></path><path transform="translate(400,169.89700043360187)" d="M2.7386127875258306,0A2.7386127875258306,2.7386127875258306,0,1,1,-2.7386127875258306,0A2.7386127875258306,2.7386127875258306,0,1,1,2.7386127875258306,0" style="fill: none; stroke: #4c78a8; stroke-width: 2; opacity: 0.5;"></path><path transform="translate(406.8965517241379,179.5880017344075)" d="M2.7386127875258306,0A2.7386127875258306,2.7386127875258306,0,1,1,-2.7386127875258306,0A2.7386127875258306,2.7386127875258306,0,1,1,2.7386127875258306,0" style="fill: none; stroke: #4c78a8; stroke-width: 2; opacity: 0.5;"></path><path transform="translate(413.7931034482759,167.77807052660805)" d="M2.7386127875258306,0A2.7386127875258306,2.7386127875258306,0,1,1,-2.7386127875258306,0A2.7386127875258306,2.7386127875258306,0,1,1,2.7386127875258306,0" style="fill: none; stroke: #4c78a8; stroke-width: 2; opacity: 0.5;"></path><path transform="translate(420.68965517241384,239.79400086720375)" d="M2.7386127875258306,0A2.7386127875258306,2.7386127875258306,0,1,1,-2.7386127875258306,0A2.7386127875258306,2.7386127875258306,0,1,1,2.7386127875258306,0" style="fill: none; stroke: #4c78a8; stroke-width: 2; opacity: 0.5;"></path><path transform="translate(434.48275862068965,192.0818753952375)" d="M2.7386127875258306,0A2.7386127875258306,2.7386127875258306,0,1,1,-2.7386127875258306,0A2.7386127875258306,2.7386127875258306,0,1,1,2.7386127875258306,0" style="fill: none; stroke: #4c78a8; stroke-width: 2; opacity: 0.5;"></path><path transform="translate(441.37931034482756,204.57574905606748)" d="M2.7386127875258306,0A2.7386127875258306,2.7386127875258306,0,1,1,-2.7386127875258306,0A2.7386127875258306,2.7386127875258306,0,1,1,2.7386127875258306,0" style="fill: none; stroke: #4c78a8; stroke-width: 2; opacity: 0.5;"></path><path transform="translate(448.2758620689655,209.69100130080562)" d="M2.7386127875258306,0A2.7386127875258306,2.7386127875258306,0,1,1,-2.7386127875258306,0A2.7386127875258306,2.7386127875258306,0,1,1,2.7386127875258306,0" style="fill: none; stroke: #4c78a8; stroke-width: 2; opacity: 0.5;"></path><path transform="translate(455.17241379310343,209.69100130080562)" d="M2.7386127875258306,0A2.7386127875258306,2.7386127875258306,0,1,1,-2.7386127875258306,0A2.7386127875258306,2.7386127875258306,0,1,1,2.7386127875258306,0" style="fill: none; stroke: #4c78a8; stroke-width: 2; opacity: 0.5;"></path><path transform="translate(462.06896551724134,199.99999999999994)" d="M2.7386127875258306,0A2.7386127875258306,2.7386127875258306,0,1,1,-2.7386127875258306,0A2.7386127875258306,2.7386127875258306,0,1,1,2.7386127875258306,0" style="fill: none; stroke: #4c78a8; stroke-width: 2; opacity: 0.5;"></path><path transform="translate(468.96551724137936,300)" d="M2.7386127875258306,0A2.7386127875258306,2.7386127875258306,0,1,1,-2.7386127875258306,0A2.7386127875258306,2.7386127875258306,0,1,1,2.7386127875258306,0" style="fill: none; stroke: #4c78a8; stroke-width: 2; opacity: 0.5;"></path><path transform="translate(475.86206896551727,300)" d="M2.7386127875258306,0A2.7386127875258306,2.7386127875258306,0,1,1,-2.7386127875258306,0A2.7386127875258306,2.7386127875258306,0,1,1,2.7386127875258306,0" style="fill: none; stroke: #4c78a8; stroke-width: 2; opacity: 0.5;"></path><path transform="translate(482.7586206896552,222.18487496163561)" d="M2.7386127875258306,0A2.7386127875258306,2.7386127875258306,0,1,1,-2.7386127875258306,0A2.7386127875258306,2.7386127875258306,0,1,1,2.7386127875258306,0" style="fill: none; stroke: #4c78a8; stroke-width: 2; opacity: 0.5;"></path><path transform="translate(489.6551724137931,222.18487496163561)" d="M2.7386127875258306,0A2.7386127875258306,2.7386127875258306,0,1,1,-2.7386127875258306,0A2.7386127875258306,2.7386127875258306,0,1,1,2.7386127875258306,0" style="fill: none; stroke: #4c78a8; stroke-width: 2; opacity: 0.5;"></path><path transform="translate(496.55172413793105,215.4901959985743)" d="M2.7386127875258306,0A2.7386127875258306,2.7386127875258306,0,1,1,-2.7386127875258306,0A2.7386127875258306,2.7386127875258306,0,1,1,2.7386127875258306,0" style="fill: none; stroke: #4c78a8; stroke-width: 2; opacity: 0.5;"></path><path transform="translate(503.44827586206895,269.8970004336019)" d="M2.7386127875258306,0A2.7386127875258306,2.7386127875258306,0,1,1,-2.7386127875258306,0A2.7386127875258306,2.7386127875258306,0,1,1,2.7386127875258306,0" style="fill: none; stroke: #4c78a8; stroke-width: 2; opacity: 0.5;"></path><path transform="translate(510.34482758620686,230.10299956639813)" d="M2.7386127875258306,0A2.7386127875258306,2.7386127875258306,0,1,1,-2.7386127875258306,0A2.7386127875258306,2.7386127875258306,0,1,1,2.7386127875258306,0" style="fill: none; stroke: #4c78a8; stroke-width: 2; opacity: 0.5;"></path><path transform="translate(517.2413793103448,252.28787452803374)" d="M2.7386127875258306,0A2.7386127875258306,2.7386127875258306,0,1,1,-2.7386127875258306,0A2.7386127875258306,2.7386127875258306,0,1,1,2.7386127875258306,0" style="fill: none; stroke: #4c78a8; stroke-width: 2; opacity: 0.5;"></path><path transform="translate(524.1379310344828,269.8970004336019)" d="M2.7386127875258306,0A2.7386127875258306,2.7386127875258306,0,1,1,-2.7386127875258306,0A2.7386127875258306,2.7386127875258306,0,1,1,2.7386127875258306,0" style="fill: none; stroke: #4c78a8; stroke-width: 2; opacity: 0.5;"></path><path transform="translate(531.0344827586207,252.28787452803374)" d="M2.7386127875258306,0A2.7386127875258306,2.7386127875258306,0,1,1,-2.7386127875258306,0A2.7386127875258306,2.7386127875258306,0,1,1,2.7386127875258306,0" style="fill: none; stroke: #4c78a8; stroke-width: 2; opacity: 0.5;"></path><path transform="translate(537.9310344827586,239.79400086720375)" d="M2.7386127875258306,0A2.7386127875258306,2.7386127875258306,0,1,1,-2.7386127875258306,0A2.7386127875258306,2.7386127875258306,0,1,1,2.7386127875258306,0" style="fill: none; stroke: #4c78a8; stroke-width: 2; opacity: 0.5;"></path><path transform="translate(544.8275862068965,230.10299956639813)" d="M2.7386127875258306,0A2.7386127875258306,2.7386127875258306,0,1,1,-2.7386127875258306,0A2.7386127875258306,2.7386127875258306,0,1,1,2.7386127875258306,0" style="fill: none; stroke: #4c78a8; stroke-width: 2; opacity: 0.5;"></path><path transform="translate(551.7241379310344,192.0818753952375)" d="M2.7386127875258306,0A2.7386127875258306,2.7386127875258306,0,1,1,-2.7386127875258306,0A2.7386127875258306,2.7386127875258306,0,1,1,2.7386127875258306,0" style="fill: none; stroke: #4c78a8; stroke-width: 2; opacity: 0.5;"></path><path transform="translate(558.6206896551724,215.4901959985743)" d="M2.7386127875258306,0A2.7386127875258306,2.7386127875258306,0,1,1,-2.7386127875258306,0A2.7386127875258306,2.7386127875258306,0,1,1,2.7386127875258306,0" style="fill: none; stroke: #4c78a8; stroke-width: 2; opacity: 0.5;"></path><path transform="translate(565.5172413793103,300)" d="M2.7386127875258306,0A2.7386127875258306,2.7386127875258306,0,1,1,-2.7386127875258306,0A2.7386127875258306,2.7386127875258306,0,1,1,2.7386127875258306,0" style="fill: none; stroke: #4c78a8; stroke-width: 2; opacity: 0.5;"></path><path transform="translate(579.3103448275863,204.57574905606748)" d="M2.7386127875258306,0A2.7386127875258306,2.7386127875258306,0,1,1,-2.7386127875258306,0A2.7386127875258306,2.7386127875258306,0,1,1,2.7386127875258306,0" style="fill: none; stroke: #4c78a8; stroke-width: 2; opacity: 0.5;"></path><path transform="translate(586.2068965517242,230.10299956639813)" d="M2.7386127875258306,0A2.7386127875258306,2.7386127875258306,0,1,1,-2.7386127875258306,0A2.7386127875258306,2.7386127875258306,0,1,1,2.7386127875258306,0" style="fill: none; stroke: #4c78a8; stroke-width: 2; opacity: 0.5;"></path><path transform="translate(593.1034482758621,300)" d="M2.7386127875258306,0A2.7386127875258306,2.7386127875258306,0,1,1,-2.7386127875258306,0A2.7386127875258306,2.7386127875258306,0,1,1,2.7386127875258306,0" style="fill: none; stroke: #4c78a8; stroke-width: 2; opacity: 0.5;"></path><path transform="translate(117.24137931034484,172.12463990471713)" d="M2.7386127875258306,0A2.7386127875258306,2.7386127875258306,0,1,1,-2.7386127875258306,0A2.7386127875258306,2.7386127875258306,0,1,1,2.7386127875258306,0" style="fill: none; stroke: #f58518; stroke-width: 2; opacity: 0.5;"></path><path transform="translate(124.13793103448276,153.7602002101044)" d="M2.7386127875258306,0A2.7386127875258306,2.7386127875258306,0,1,1,-2.7386127875258306,0A2.7386127875258306,2.7386127875258306,0,1,1,2.7386127875258306,0" style="fill: none; stroke: #f58518; stroke-width: 2; opacity: 0.5;"></path><path transform="translate(144.82758620689657,252.28787452803374)" d="M2.7386127875258306,0A2.7386127875258306,2.7386127875258306,0,1,1,-2.7386127875258306,0A2.7386127875258306,2.7386127875258306,0,1,1,2.7386127875258306,0" style="fill: none; stroke: #f58518; stroke-width: 2; opacity: 0.5;"></path><path transform="translate(151.7241379310345,199.99999999999994)" d="M2.7386127875258306,0A2.7386127875258306,2.7386127875258306,0,1,1,-2.7386127875258306,0A2.7386127875258306,2.7386127875258306,0,1,1,2.7386127875258306,0" style="fill: none; stroke: #f58518; stroke-width: 2; opacity: 0.5;"></path><path transform="translate(158.6206896551724,209.69100130080562)" d="M2.7386127875258306,0A2.7386127875258306,2.7386127875258306,0,1,1,-2.7386127875258306,0A2.7386127875258306,2.7386127875258306,0,1,1,2.7386127875258306,0" style="fill: none; stroke: #f58518; stroke-width: 2; opacity: 0.5;"></path><path transform="translate(165.51724137931035,204.57574905606748)" d="M2.7386127875258306,0A2.7386127875258306,2.7386127875258306,0,1,1,-2.7386127875258306,0A2.7386127875258306,2.7386127875258306,0,1,1,2.7386127875258306,0" style="fill: none; stroke: #f58518; stroke-width: 2; opacity: 0.5;"></path><path transform="translate(172.41379310344826,195.8607314841775)" d="M2.7386127875258306,0A2.7386127875258306,2.7386127875258306,0,1,1,-2.7386127875258306,0A2.7386127875258306,2.7386127875258306,0,1,1,2.7386127875258306,0" style="fill: none; stroke: #f58518; stroke-width: 2; opacity: 0.5;"></path><path transform="translate(179.31034482758622,269.8970004336019)" d="M2.7386127875258306,0A2.7386127875258306,2.7386127875258306,0,1,1,-2.7386127875258306,0A2.7386127875258306,2.7386127875258306,0,1,1,2.7386127875258306,0" style="fill: none; stroke: #f58518; stroke-width: 2; opacity: 0.5;"></path><path transform="translate(186.20689655172416,300)" d="M2.7386127875258306,0A2.7386127875258306,2.7386127875258306,0,1,1,-2.7386127875258306,0A2.7386127875258306,2.7386127875258306,0,1,1,2.7386127875258306,0" style="fill: none; stroke: #f58518; stroke-width: 2; opacity: 0.5;"></path><path transform="translate(193.10344827586206,182.39087409443187)" d="M2.7386127875258306,0A2.7386127875258306,2.7386127875258306,0,1,1,-2.7386127875258306,0A2.7386127875258306,2.7386127875258306,0,1,1,2.7386127875258306,0" style="fill: none; stroke: #f58518; stroke-width: 2; opacity: 0.5;"></path><path transform="translate(200,160.20599913279625)" d="M2.7386127875258306,0A2.7386127875258306,2.7386127875258306,0,1,1,-2.7386127875258306,0A2.7386127875258306,2.7386127875258306,0,1,1,2.7386127875258306,0" style="fill: none; stroke: #f58518; stroke-width: 2; opacity: 0.5;"></path><path transform="translate(206.89655172413794,148.14860601221125)" d="M2.7386127875258306,0A2.7386127875258306,2.7386127875258306,0,1,1,-2.7386127875258306,0A2.7386127875258306,2.7386127875258306,0,1,1,2.7386127875258306,0" style="fill: none; stroke: #f58518; stroke-width: 2; opacity: 0.5;"></path><path transform="translate(213.79310344827587,176.95510786217258)" d="M2.7386127875258306,0A2.7386127875258306,2.7386127875258306,0,1,1,-2.7386127875258306,0A2.7386127875258306,2.7386127875258306,0,1,1,2.7386127875258306,0" style="fill: none; stroke: #f58518; stroke-width: 2; opacity: 0.5;"></path><path transform="translate(220.68965517241378,222.18487496163561)" d="M2.7386127875258306,0A2.7386127875258306,2.7386127875258306,0,1,1,-2.7386127875258306,0A2.7386127875258306,2.7386127875258306,0,1,1,2.7386127875258306,0" style="fill: none; stroke: #f58518; stroke-width: 2; opacity: 0.5;"></path><path transform="translate(227.58620689655172,230.10299956639813)" d="M2.7386127875258306,0A2.7386127875258306,2.7386127875258306,0,1,1,-2.7386127875258306,0A2.7386127875258306,2.7386127875258306,0,1,1,2.7386127875258306,0" style="fill: none; stroke: #f58518; stroke-width: 2; opacity: 0.5;"></path><path transform="translate(234.48275862068968,252.28787452803374)" d="M2.7386127875258306,0A2.7386127875258306,2.7386127875258306,0,1,1,-2.7386127875258306,0A2.7386127875258306,2.7386127875258306,0,1,1,2.7386127875258306,0" style="fill: none; stroke: #f58518; stroke-width: 2; opacity: 0.5;"></path><path transform="translate(241.3793103448276,153.7602002101044)" d="M2.7386127875258306,0A2.7386127875258306,2.7386127875258306,0,1,1,-2.7386127875258306,0A2.7386127875258306,2.7386127875258306,0,1,1,2.7386127875258306,0" style="fill: none; stroke: #f58518; stroke-width: 2; opacity: 0.5;"></path><path transform="translate(248.27586206896552,126.76062401770314)" d="M2.7386127875258306,0A2.7386127875258306,2.7386127875258306,0,1,1,-2.7386127875258306,0A2.7386127875258306,2.7386127875258306,0,1,1,2.7386127875258306,0" style="fill: none; stroke: #f58518; stroke-width: 2; opacity: 0.5;"></path><path transform="translate(255.17241379310343,130.98039199714862)" d="M2.7386127875258306,0A2.7386127875258306,2.7386127875258306,0,1,1,-2.7386127875258306,0A2.7386127875258306,2.7386127875258306,0,1,1,2.7386127875258306,0" style="fill: none; stroke: #f58518; stroke-width: 2; opacity: 0.5;"></path><path transform="translate(262.0689655172414,131.8758762624413)" d="M2.7386127875258306,0A2.7386127875258306,2.7386127875258306,0,1,1,-2.7386127875258306,0A2.7386127875258306,2.7386127875258306,0,1,1,2.7386127875258306,0" style="fill: none; stroke: #f58518; stroke-width: 2; opacity: 0.5;"></path><path transform="translate(268.9655172413793,131.8758762624413)" d="M2.7386127875258306,0A2.7386127875258306,2.7386127875258306,0,1,1,-2.7386127875258306,0A2.7386127875258306,2.7386127875258306,0,1,1,2.7386127875258306,0" style="fill: none; stroke: #f58518; stroke-width: 2; opacity: 0.5;"></path><path transform="translate(275.8620689655172,176.95510786217258)" d="M2.7386127875258306,0A2.7386127875258306,2.7386127875258306,0,1,1,-2.7386127875258306,0A2.7386127875258306,2.7386127875258306,0,1,1,2.7386127875258306,0" style="fill: none; stroke: #f58518; stroke-width: 2; opacity: 0.5;"></path><path transform="translate(282.7586206896552,269.8970004336019)" d="M2.7386127875258306,0A2.7386127875258306,2.7386127875258306,0,1,1,-2.7386127875258306,0A2.7386127875258306,2.7386127875258306,0,1,1,2.7386127875258306,0" style="fill: none; stroke: #f58518; stroke-width: 2; opacity: 0.5;"></path><path transform="translate(289.65517241379314,116.74910872937633)" d="M2.7386127875258306,0A2.7386127875258306,2.7386127875258306,0,1,1,-2.7386127875258306,0A2.7386127875258306,2.7386127875258306,0,1,1,2.7386127875258306,0" style="fill: none; stroke: #f58518; stroke-width: 2; opacity: 0.5;"></path><path transform="translate(296.55172413793105,113.07682802690242)" d="M2.7386127875258306,0A2.7386127875258306,2.7386127875258306,0,1,1,-2.7386127875258306,0A2.7386127875258306,2.7386127875258306,0,1,1,2.7386127875258306,0" style="fill: none; stroke: #f58518; stroke-width: 2; opacity: 0.5;"></path><path transform="translate(303.448275862069,106.55015487564326)" d="M2.7386127875258306,0A2.7386127875258306,2.7386127875258306,0,1,1,-2.7386127875258306,0A2.7386127875258306,2.7386127875258306,0,1,1,2.7386127875258306,0" style="fill: none; stroke: #f58518; stroke-width: 2; opacity: 0.5;"></path><path transform="translate(310.3448275862069,110.23729087095582)" d="M2.7386127875258306,0A2.7386127875258306,2.7386127875258306,0,1,1,-2.7386127875258306,0A2.7386127875258306,2.7386127875258306,0,1,1,2.7386127875258306,0" style="fill: none; stroke: #f58518; stroke-width: 2; opacity: 0.5;"></path><path transform="translate(317.2413793103448,104.09586076789066)" d="M2.7386127875258306,0A2.7386127875258306,2.7386127875258306,0,1,1,-2.7386127875258306,0A2.7386127875258306,2.7386127875258306,0,1,1,2.7386127875258306,0" style="fill: none; stroke: #f58518; stroke-width: 2; opacity: 0.5;"></path><path transform="translate(324.1379310344828,167.77807052660805)" d="M2.7386127875258306,0A2.7386127875258306,2.7386127875258306,0,1,1,-2.7386127875258306,0A2.7386127875258306,2.7386127875258306,0,1,1,2.7386127875258306,0" style="fill: none; stroke: #f58518; stroke-width: 2; opacity: 0.5;"></path><path transform="translate(331.0344827586207,222.18487496163561)" d="M2.7386127875258306,0A2.7386127875258306,2.7386127875258306,0,1,1,-2.7386127875258306,0A2.7386127875258306,2.7386127875258306,0,1,1,2.7386127875258306,0" style="fill: none; stroke: #f58518; stroke-width: 2; opacity: 0.5;"></path><path transform="translate(337.9310344827586,107.05810742857071)" d="M2.7386127875258306,0A2.7386127875258306,2.7386127875258306,0,1,1,-2.7386127875258306,0A2.7386127875258306,2.7386127875258306,0,1,1,2.7386127875258306,0" style="fill: none; stroke: #f58518; stroke-width: 2; opacity: 0.5;"></path><path transform="translate(344.8275862068965,108.09219076239258)" d="M2.7386127875258306,0A2.7386127875258306,2.7386127875258306,0,1,1,-2.7386127875258306,0A2.7386127875258306,2.7386127875258306,0,1,1,2.7386127875258306,0" style="fill: none; stroke: #f58518; stroke-width: 2; opacity: 0.5;"></path><path transform="translate(351.7241379310345,116.74910872937633)" d="M2.7386127875258306,0A2.7386127875258306,2.7386127875258306,0,1,1,-2.7386127875258306,0A2.7386127875258306,2.7386127875258306,0,1,1,2.7386127875258306,0" style="fill: none; stroke: #f58518; stroke-width: 2; opacity: 0.5;"></path><path transform="translate(358.62068965517244,104.57574905606752)" d="M2.7386127875258306,0A2.7386127875258306,2.7386127875258306,0,1,1,-2.7386127875258306,0A2.7386127875258306,2.7386127875258306,0,1,1,2.7386127875258306,0" style="fill: none; stroke: #f58518; stroke-width: 2; opacity: 0.5;"></path><path transform="translate(365.51724137931035,91.00948885606019)" d="M2.7386127875258306,0A2.7386127875258306,2.7386127875258306,0,1,1,-2.7386127875258306,0A2.7386127875258306,2.7386127875258306,0,1,1,2.7386127875258306,0" style="fill: none; stroke: #f58518; stroke-width: 2; opacity: 0.5;"></path><path transform="translate(372.4137931034483,160.20599913279625)" d="M2.7386127875258306,0A2.7386127875258306,2.7386127875258306,0,1,1,-2.7386127875258306,0A2.7386127875258306,2.7386127875258306,0,1,1,2.7386127875258306,0" style="fill: none; stroke: #f58518; stroke-width: 2; opacity: 0.5;"></path><path transform="translate(379.3103448275862,215.4901959985743)" d="M2.7386127875258306,0A2.7386127875258306,2.7386127875258306,0,1,1,-2.7386127875258306,0A2.7386127875258306,2.7386127875258306,0,1,1,2.7386127875258306,0" style="fill: none; stroke: #f58518; stroke-width: 2; opacity: 0.5;"></path><path transform="translate(386.2068965517241,93.93021596463878)" d="M2.7386127875258306,0A2.7386127875258306,2.7386127875258306,0,1,1,-2.7386127875258306,0A2.7386127875258306,2.7386127875258306,0,1,1,2.7386127875258306,0" style="fill: none; stroke: #f58518; stroke-width: 2; opacity: 0.5;"></path><path transform="translate(393.10344827586204,87.94260687941504)" d="M2.7386127875258306,0A2.7386127875258306,2.7386127875258306,0,1,1,-2.7386127875258306,0A2.7386127875258306,2.7386127875258306,0,1,1,2.7386127875258306,0" style="fill: none; stroke: #f58518; stroke-width: 2; opacity: 0.5;"></path><path transform="translate(400,97.46941347352296)" d="M2.7386127875258306,0A2.7386127875258306,2.7386127875258306,0,1,1,-2.7386127875258306,0A2.7386127875258306,2.7386127875258306,0,1,1,2.7386127875258306,0" style="fill: none; stroke: #f58518; stroke-width: 2; opacity: 0.5;"></path><path transform="translate(406.8965517241379,97.88107009300617)" d="M2.7386127875258306,0A2.7386127875258306,2.7386127875258306,0,1,1,-2.7386127875258306,0A2.7386127875258306,2.7386127875258306,0,1,1,2.7386127875258306,0" style="fill: none; stroke: #f58518; stroke-width: 2; opacity: 0.5;"></path><path transform="translate(413.7931034482759,85.38719643217622)" d="M2.7386127875258306,0A2.7386127875258306,2.7386127875258306,0,1,1,-2.7386127875258306,0A2.7386127875258306,2.7386127875258306,0,1,1,2.7386127875258306,0" style="fill: none; stroke: #f58518; stroke-width: 2; opacity: 0.5;"></path><path transform="translate(420.68965517241384,172.12463990471713)" d="M2.7386127875258306,0A2.7386127875258306,2.7386127875258306,0,1,1,-2.7386127875258306,0A2.7386127875258306,2.7386127875258306,0,1,1,2.7386127875258306,0" style="fill: none; stroke: #f58518; stroke-width: 2; opacity: 0.5;"></path><path transform="translate(427.58620689655174,222.18487496163561)" d="M2.7386127875258306,0A2.7386127875258306,2.7386127875258306,0,1,1,-2.7386127875258306,0A2.7386127875258306,2.7386127875258306,0,1,1,2.7386127875258306,0" style="fill: none; stroke: #f58518; stroke-width: 2; opacity: 0.5;"></path><path transform="translate(434.48275862068965,98.71627752948275)" d="M2.7386127875258306,0A2.7386127875258306,2.7386127875258306,0,1,1,-2.7386127875258306,0A2.7386127875258306,2.7386127875258306,0,1,1,2.7386127875258306,0" style="fill: none; stroke: #f58518; stroke-width: 2; opacity: 0.5;"></path><path transform="translate(441.37931034482756,99.1399828238082)" d="M2.7386127875258306,0A2.7386127875258306,2.7386127875258306,0,1,1,-2.7386127875258306,0A2.7386127875258306,2.7386127875258306,0,1,1,2.7386127875258306,0" style="fill: none; stroke: #f58518; stroke-width: 2; opacity: 0.5;"></path><path transform="translate(448.2758620689655,109.15149811213496)" d="M2.7386127875258306,0A2.7386127875258306,2.7386127875258306,0,1,1,-2.7386127875258306,0A2.7386127875258306,2.7386127875258306,0,1,1,2.7386127875258306,0" style="fill: none; stroke: #f58518; stroke-width: 2; opacity: 0.5;"></path><path transform="translate(455.17241379310343,95.0781977329818)" d="M2.7386127875258306,0A2.7386127875258306,2.7386127875258306,0,1,1,-2.7386127875258306,0A2.7386127875258306,2.7386127875258306,0,1,1,2.7386127875258306,0" style="fill: none; stroke: #f58518; stroke-width: 2; opacity: 0.5;"></path><path transform="translate(462.06896551724134,86.6461091629782)" d="M2.7386127875258306,0A2.7386127875258306,2.7386127875258306,0,1,1,-2.7386127875258306,0A2.7386127875258306,2.7386127875258306,0,1,1,2.7386127875258306,0" style="fill: none; stroke: #f58518; stroke-width: 2; opacity: 0.5;"></path><path transform="translate(468.96551724137936,152.28787452803374)" d="M2.7386127875258306,0A2.7386127875258306,2.7386127875258306,0,1,1,-2.7386127875258306,0A2.7386127875258306,2.7386127875258306,0,1,1,2.7386127875258306,0" style="fill: none; stroke: #f58518; stroke-width: 2; opacity: 0.5;"></path><path transform="translate(475.86206896551727,222.18487496163561)" d="M2.7386127875258306,0A2.7386127875258306,2.7386127875258306,0,1,1,-2.7386127875258306,0A2.7386127875258306,2.7386127875258306,0,1,1,2.7386127875258306,0" style="fill: none; stroke: #f58518; stroke-width: 2; opacity: 0.5;"></path><path transform="translate(482.7586206896552,107.05810742857071)" d="M2.7386127875258306,0A2.7386127875258306,2.7386127875258306,0,1,1,-2.7386127875258306,0A2.7386127875258306,2.7386127875258306,0,1,1,2.7386127875258306,0" style="fill: none; stroke: #f58518; stroke-width: 2; opacity: 0.5;"></path><path transform="translate(489.6551724137931,106.55015487564326)" d="M2.7386127875258306,0A2.7386127875258306,2.7386127875258306,0,1,1,-2.7386127875258306,0A2.7386127875258306,2.7386127875258306,0,1,1,2.7386127875258306,0" style="fill: none; stroke: #f58518; stroke-width: 2; opacity: 0.5;"></path><path transform="translate(496.55172413793105,109.15149811213496)" d="M2.7386127875258306,0A2.7386127875258306,2.7386127875258306,0,1,1,-2.7386127875258306,0A2.7386127875258306,2.7386127875258306,0,1,1,2.7386127875258306,0" style="fill: none; stroke: #f58518; stroke-width: 2; opacity: 0.5;"></path><path transform="translate(503.44827586206895,116.74910872937633)" d="M2.7386127875258306,0A2.7386127875258306,2.7386127875258306,0,1,1,-2.7386127875258306,0A2.7386127875258306,2.7386127875258306,0,1,1,2.7386127875258306,0" style="fill: none; stroke: #f58518; stroke-width: 2; opacity: 0.5;"></path><path transform="translate(510.34482758620686,97.46941347352296)" d="M2.7386127875258306,0A2.7386127875258306,2.7386127875258306,0,1,1,-2.7386127875258306,0A2.7386127875258306,2.7386127875258306,0,1,1,2.7386127875258306,0" style="fill: none; stroke: #f58518; stroke-width: 2; opacity: 0.5;"></path><path transform="translate(517.2413793103448,150.8638306165727)" d="M2.7386127875258306,0A2.7386127875258306,2.7386127875258306,0,1,1,-2.7386127875258306,0A2.7386127875258306,2.7386127875258306,0,1,1,2.7386127875258306,0" style="fill: none; stroke: #f58518; stroke-width: 2; opacity: 0.5;"></path><path transform="translate(524.1379310344828,209.69100130080562)" d="M2.7386127875258306,0A2.7386127875258306,2.7386127875258306,0,1,1,-2.7386127875258306,0A2.7386127875258306,2.7386127875258306,0,1,1,2.7386127875258306,0" style="fill: none; stroke: #f58518; stroke-width: 2; opacity: 0.5;"></path><path transform="translate(531.0344827586207,135.65473235138126)" d="M2.7386127875258306,0A2.7386127875258306,2.7386127875258306,0,1,1,-2.7386127875258306,0A2.7386127875258306,2.7386127875258306,0,1,1,2.7386127875258306,0" style="fill: none; stroke: #f58518; stroke-width: 2; opacity: 0.5;"></path><path transform="translate(537.9310344827586,99.56786262173569)" d="M2.7386127875258306,0A2.7386127875258306,2.7386127875258306,0,1,1,-2.7386127875258306,0A2.7386127875258306,2.7386127875258306,0,1,1,2.7386127875258306,0" style="fill: none; stroke: #f58518; stroke-width: 2; opacity: 0.5;"></path><path transform="translate(544.8275862068965,106.55015487564326)" d="M2.7386127875258306,0A2.7386127875258306,2.7386127875258306,0,1,1,-2.7386127875258306,0A2.7386127875258306,2.7386127875258306,0,1,1,2.7386127875258306,0" style="fill: none; stroke: #f58518; stroke-width: 2; opacity: 0.5;"></path><path transform="translate(551.7241379310344,104.57574905606752)" d="M2.7386127875258306,0A2.7386127875258306,2.7386127875258306,0,1,1,-2.7386127875258306,0A2.7386127875258306,2.7386127875258306,0,1,1,2.7386127875258306,0" style="fill: none; stroke: #f58518; stroke-width: 2; opacity: 0.5;"></path><path transform="translate(558.6206896551724,108.61861476162828)" d="M2.7386127875258306,0A2.7386127875258306,2.7386127875258306,0,1,1,-2.7386127875258306,0A2.7386127875258306,2.7386127875258306,0,1,1,2.7386127875258306,0" style="fill: none; stroke: #f58518; stroke-width: 2; opacity: 0.5;"></path><path transform="translate(565.5172413793103,188.60566476931632)" d="M2.7386127875258306,0A2.7386127875258306,2.7386127875258306,0,1,1,-2.7386127875258306,0A2.7386127875258306,2.7386127875258306,0,1,1,2.7386127875258306,0" style="fill: none; stroke: #f58518; stroke-width: 2; opacity: 0.5;"></path><path transform="translate(572.4137931034483,239.79400086720375)" d="M2.7386127875258306,0A2.7386127875258306,2.7386127875258306,0,1,1,-2.7386127875258306,0A2.7386127875258306,2.7386127875258306,0,1,1,2.7386127875258306,0" style="fill: none; stroke: #f58518; stroke-width: 2; opacity: 0.5;"></path><path transform="translate(579.3103448275863,110.79053973095192)" d="M2.7386127875258306,0A2.7386127875258306,2.7386127875258306,0,1,1,-2.7386127875258306,0A2.7386127875258306,2.7386127875258306,0,1,1,2.7386127875258306,0" style="fill: none; stroke: #f58518; stroke-width: 2; opacity: 0.5;"></path><path transform="translate(586.2068965517242,140.89353929735006)" d="M2.7386127875258306,0A2.7386127875258306,2.7386127875258306,0,1,1,-2.7386127875258306,0A2.7386127875258306,2.7386127875258306,0,1,1,2.7386127875258306,0" style="fill: none; stroke: #f58518; stroke-width: 2; opacity: 0.5;"></path><path transform="translate(593.1034482758621,195.8607314841775)" d="M2.7386127875258306,0A2.7386127875258306,2.7386127875258306,0,1,1,-2.7386127875258306,0A2.7386127875258306,2.7386127875258306,0,1,1,2.7386127875258306,0" style="fill: none; stroke: #f58518; stroke-width: 2; opacity: 0.5;"></path><path transform="translate(55.172413793103445,300)" d="M2.7386127875258306,0A2.7386127875258306,2.7386127875258306,0,1,1,-2.7386127875258306,0A2.7386127875258306,2.7386127875258306,0,1,1,2.7386127875258306,0" style="fill: none; stroke: #e45756; stroke-width: 2; opacity: 0.5;"></path><path transform="translate(82.75862068965517,269.8970004336019)" d="M2.7386127875258306,0A2.7386127875258306,2.7386127875258306,0,1,1,-2.7386127875258306,0A2.7386127875258306,2.7386127875258306,0,1,1,2.7386127875258306,0" style="fill: none; stroke: #e45756; stroke-width: 2; opacity: 0.5;"></path><path transform="translate(89.65517241379311,300)" d="M2.7386127875258306,0A2.7386127875258306,2.7386127875258306,0,1,1,-2.7386127875258306,0A2.7386127875258306,2.7386127875258306,0,1,1,2.7386127875258306,0" style="fill: none; stroke: #e45756; stroke-width: 2; opacity: 0.5;"></path><path transform="translate(96.55172413793103,269.8970004336019)" d="M2.7386127875258306,0A2.7386127875258306,2.7386127875258306,0,1,1,-2.7386127875258306,0A2.7386127875258306,2.7386127875258306,0,1,1,2.7386127875258306,0" style="fill: none; stroke: #e45756; stroke-width: 2; opacity: 0.5;"></path><path transform="translate(103.44827586206897,300)" d="M2.7386127875258306,0A2.7386127875258306,2.7386127875258306,0,1,1,-2.7386127875258306,0A2.7386127875258306,2.7386127875258306,0,1,1,2.7386127875258306,0" style="fill: none; stroke: #e45756; stroke-width: 2; opacity: 0.5;"></path><path transform="translate(117.24137931034484,252.28787452803374)" d="M2.7386127875258306,0A2.7386127875258306,2.7386127875258306,0,1,1,-2.7386127875258306,0A2.7386127875258306,2.7386127875258306,0,1,1,2.7386127875258306,0" style="fill: none; stroke: #e45756; stroke-width: 2; opacity: 0.5;"></path><path transform="translate(124.13793103448276,269.8970004336019)" d="M2.7386127875258306,0A2.7386127875258306,2.7386127875258306,0,1,1,-2.7386127875258306,0A2.7386127875258306,2.7386127875258306,0,1,1,2.7386127875258306,0" style="fill: none; stroke: #e45756; stroke-width: 2; opacity: 0.5;"></path><path transform="translate(131.0344827586207,252.28787452803374)" d="M2.7386127875258306,0A2.7386127875258306,2.7386127875258306,0,1,1,-2.7386127875258306,0A2.7386127875258306,2.7386127875258306,0,1,1,2.7386127875258306,0" style="fill: none; stroke: #e45756; stroke-width: 2; opacity: 0.5;"></path><path transform="translate(137.9310344827586,252.28787452803374)" d="M2.7386127875258306,0A2.7386127875258306,2.7386127875258306,0,1,1,-2.7386127875258306,0A2.7386127875258306,2.7386127875258306,0,1,1,2.7386127875258306,0" style="fill: none; stroke: #e45756; stroke-width: 2; opacity: 0.5;"></path><path transform="translate(144.82758620689657,252.28787452803374)" d="M2.7386127875258306,0A2.7386127875258306,2.7386127875258306,0,1,1,-2.7386127875258306,0A2.7386127875258306,2.7386127875258306,0,1,1,2.7386127875258306,0" style="fill: none; stroke: #e45756; stroke-width: 2; opacity: 0.5;"></path><path transform="translate(151.7241379310345,300)" d="M2.7386127875258306,0A2.7386127875258306,2.7386127875258306,0,1,1,-2.7386127875258306,0A2.7386127875258306,2.7386127875258306,0,1,1,2.7386127875258306,0" style="fill: none; stroke: #e45756; stroke-width: 2; opacity: 0.5;"></path><path transform="translate(158.6206896551724,269.8970004336019)" d="M2.7386127875258306,0A2.7386127875258306,2.7386127875258306,0,1,1,-2.7386127875258306,0A2.7386127875258306,2.7386127875258306,0,1,1,2.7386127875258306,0" style="fill: none; stroke: #e45756; stroke-width: 2; opacity: 0.5;"></path><path transform="translate(172.41379310344826,230.10299956639813)" d="M2.7386127875258306,0A2.7386127875258306,2.7386127875258306,0,1,1,-2.7386127875258306,0A2.7386127875258306,2.7386127875258306,0,1,1,2.7386127875258306,0" style="fill: none; stroke: #e45756; stroke-width: 2; opacity: 0.5;"></path><path transform="translate(179.31034482758622,239.79400086720375)" d="M2.7386127875258306,0A2.7386127875258306,2.7386127875258306,0,1,1,-2.7386127875258306,0A2.7386127875258306,2.7386127875258306,0,1,1,2.7386127875258306,0" style="fill: none; stroke: #e45756; stroke-width: 2; opacity: 0.5;"></path><path transform="translate(186.20689655172416,269.8970004336019)" d="M2.7386127875258306,0A2.7386127875258306,2.7386127875258306,0,1,1,-2.7386127875258306,0A2.7386127875258306,2.7386127875258306,0,1,1,2.7386127875258306,0" style="fill: none; stroke: #e45756; stroke-width: 2; opacity: 0.5;"></path><path transform="translate(193.10344827586206,252.28787452803374)" d="M2.7386127875258306,0A2.7386127875258306,2.7386127875258306,0,1,1,-2.7386127875258306,0A2.7386127875258306,2.7386127875258306,0,1,1,2.7386127875258306,0" style="fill: none; stroke: #e45756; stroke-width: 2; opacity: 0.5;"></path><path transform="translate(200,252.28787452803374)" d="M2.7386127875258306,0A2.7386127875258306,2.7386127875258306,0,1,1,-2.7386127875258306,0A2.7386127875258306,2.7386127875258306,0,1,1,2.7386127875258306,0" style="fill: none; stroke: #e45756; stroke-width: 2; opacity: 0.5;"></path><path transform="translate(206.89655172413794,252.28787452803374)" d="M2.7386127875258306,0A2.7386127875258306,2.7386127875258306,0,1,1,-2.7386127875258306,0A2.7386127875258306,2.7386127875258306,0,1,1,2.7386127875258306,0" style="fill: none; stroke: #e45756; stroke-width: 2; opacity: 0.5;"></path><path transform="translate(213.79310344827587,239.79400086720375)" d="M2.7386127875258306,0A2.7386127875258306,2.7386127875258306,0,1,1,-2.7386127875258306,0A2.7386127875258306,2.7386127875258306,0,1,1,2.7386127875258306,0" style="fill: none; stroke: #e45756; stroke-width: 2; opacity: 0.5;"></path><path transform="translate(220.68965517241378,230.10299956639813)" d="M2.7386127875258306,0A2.7386127875258306,2.7386127875258306,0,1,1,-2.7386127875258306,0A2.7386127875258306,2.7386127875258306,0,1,1,2.7386127875258306,0" style="fill: none; stroke: #e45756; stroke-width: 2; opacity: 0.5;"></path><path transform="translate(227.58620689655172,239.79400086720375)" d="M2.7386127875258306,0A2.7386127875258306,2.7386127875258306,0,1,1,-2.7386127875258306,0A2.7386127875258306,2.7386127875258306,0,1,1,2.7386127875258306,0" style="fill: none; stroke: #e45756; stroke-width: 2; opacity: 0.5;"></path><path transform="translate(241.3793103448276,222.18487496163561)" d="M2.7386127875258306,0A2.7386127875258306,2.7386127875258306,0,1,1,-2.7386127875258306,0A2.7386127875258306,2.7386127875258306,0,1,1,2.7386127875258306,0" style="fill: none; stroke: #e45756; stroke-width: 2; opacity: 0.5;"></path><path transform="translate(248.27586206896552,252.28787452803374)" d="M2.7386127875258306,0A2.7386127875258306,2.7386127875258306,0,1,1,-2.7386127875258306,0A2.7386127875258306,2.7386127875258306,0,1,1,2.7386127875258306,0" style="fill: none; stroke: #e45756; stroke-width: 2; opacity: 0.5;"></path><path transform="translate(255.17241379310343,239.79400086720375)" d="M2.7386127875258306,0A2.7386127875258306,2.7386127875258306,0,1,1,-2.7386127875258306,0A2.7386127875258306,2.7386127875258306,0,1,1,2.7386127875258306,0" style="fill: none; stroke: #e45756; stroke-width: 2; opacity: 0.5;"></path><path transform="translate(262.0689655172414,239.79400086720375)" d="M2.7386127875258306,0A2.7386127875258306,2.7386127875258306,0,1,1,-2.7386127875258306,0A2.7386127875258306,2.7386127875258306,0,1,1,2.7386127875258306,0" style="fill: none; stroke: #e45756; stroke-width: 2; opacity: 0.5;"></path><path transform="translate(268.9655172413793,269.8970004336019)" d="M2.7386127875258306,0A2.7386127875258306,2.7386127875258306,0,1,1,-2.7386127875258306,0A2.7386127875258306,2.7386127875258306,0,1,1,2.7386127875258306,0" style="fill: none; stroke: #e45756; stroke-width: 2; opacity: 0.5;"></path><path transform="translate(275.8620689655172,269.8970004336019)" d="M2.7386127875258306,0A2.7386127875258306,2.7386127875258306,0,1,1,-2.7386127875258306,0A2.7386127875258306,2.7386127875258306,0,1,1,2.7386127875258306,0" style="fill: none; stroke: #e45756; stroke-width: 2; opacity: 0.5;"></path><path transform="translate(282.7586206896552,252.28787452803374)" d="M2.7386127875258306,0A2.7386127875258306,2.7386127875258306,0,1,1,-2.7386127875258306,0A2.7386127875258306,2.7386127875258306,0,1,1,2.7386127875258306,0" style="fill: none; stroke: #e45756; stroke-width: 2; opacity: 0.5;"></path><path transform="translate(289.65517241379314,300)" d="M2.7386127875258306,0A2.7386127875258306,2.7386127875258306,0,1,1,-2.7386127875258306,0A2.7386127875258306,2.7386127875258306,0,1,1,2.7386127875258306,0" style="fill: none; stroke: #e45756; stroke-width: 2; opacity: 0.5;"></path><path transform="translate(296.55172413793105,239.79400086720375)" d="M2.7386127875258306,0A2.7386127875258306,2.7386127875258306,0,1,1,-2.7386127875258306,0A2.7386127875258306,2.7386127875258306,0,1,1,2.7386127875258306,0" style="fill: none; stroke: #e45756; stroke-width: 2; opacity: 0.5;"></path><path transform="translate(303.448275862069,230.10299956639813)" d="M2.7386127875258306,0A2.7386127875258306,2.7386127875258306,0,1,1,-2.7386127875258306,0A2.7386127875258306,2.7386127875258306,0,1,1,2.7386127875258306,0" style="fill: none; stroke: #e45756; stroke-width: 2; opacity: 0.5;"></path><path transform="translate(310.3448275862069,269.8970004336019)" d="M2.7386127875258306,0A2.7386127875258306,2.7386127875258306,0,1,1,-2.7386127875258306,0A2.7386127875258306,2.7386127875258306,0,1,1,2.7386127875258306,0" style="fill: none; stroke: #e45756; stroke-width: 2; opacity: 0.5;"></path><path transform="translate(317.2413793103448,252.28787452803374)" d="M2.7386127875258306,0A2.7386127875258306,2.7386127875258306,0,1,1,-2.7386127875258306,0A2.7386127875258306,2.7386127875258306,0,1,1,2.7386127875258306,0" style="fill: none; stroke: #e45756; stroke-width: 2; opacity: 0.5;"></path><path transform="translate(324.1379310344828,269.8970004336019)" d="M2.7386127875258306,0A2.7386127875258306,2.7386127875258306,0,1,1,-2.7386127875258306,0A2.7386127875258306,2.7386127875258306,0,1,1,2.7386127875258306,0" style="fill: none; stroke: #e45756; stroke-width: 2; opacity: 0.5;"></path><path transform="translate(331.0344827586207,230.10299956639813)" d="M2.7386127875258306,0A2.7386127875258306,2.7386127875258306,0,1,1,-2.7386127875258306,0A2.7386127875258306,2.7386127875258306,0,1,1,2.7386127875258306,0" style="fill: none; stroke: #e45756; stroke-width: 2; opacity: 0.5;"></path><path transform="translate(344.8275862068965,269.8970004336019)" d="M2.7386127875258306,0A2.7386127875258306,2.7386127875258306,0,1,1,-2.7386127875258306,0A2.7386127875258306,2.7386127875258306,0,1,1,2.7386127875258306,0" style="fill: none; stroke: #e45756; stroke-width: 2; opacity: 0.5;"></path><path transform="translate(358.62068965517244,300)" d="M2.7386127875258306,0A2.7386127875258306,2.7386127875258306,0,1,1,-2.7386127875258306,0A2.7386127875258306,2.7386127875258306,0,1,1,2.7386127875258306,0" style="fill: none; stroke: #e45756; stroke-width: 2; opacity: 0.5;"></path><path transform="translate(365.51724137931035,252.28787452803374)" d="M2.7386127875258306,0A2.7386127875258306,2.7386127875258306,0,1,1,-2.7386127875258306,0A2.7386127875258306,2.7386127875258306,0,1,1,2.7386127875258306,0" style="fill: none; stroke: #e45756; stroke-width: 2; opacity: 0.5;"></path><path transform="translate(372.4137931034483,239.79400086720375)" d="M2.7386127875258306,0A2.7386127875258306,2.7386127875258306,0,1,1,-2.7386127875258306,0A2.7386127875258306,2.7386127875258306,0,1,1,2.7386127875258306,0" style="fill: none; stroke: #e45756; stroke-width: 2; opacity: 0.5;"></path><path transform="translate(379.3103448275862,269.8970004336019)" d="M2.7386127875258306,0A2.7386127875258306,2.7386127875258306,0,1,1,-2.7386127875258306,0A2.7386127875258306,2.7386127875258306,0,1,1,2.7386127875258306,0" style="fill: none; stroke: #e45756; stroke-width: 2; opacity: 0.5;"></path><path transform="translate(386.2068965517241,252.28787452803374)" d="M2.7386127875258306,0A2.7386127875258306,2.7386127875258306,0,1,1,-2.7386127875258306,0A2.7386127875258306,2.7386127875258306,0,1,1,2.7386127875258306,0" style="fill: none; stroke: #e45756; stroke-width: 2; opacity: 0.5;"></path><path transform="translate(393.10344827586204,269.8970004336019)" d="M2.7386127875258306,0A2.7386127875258306,2.7386127875258306,0,1,1,-2.7386127875258306,0A2.7386127875258306,2.7386127875258306,0,1,1,2.7386127875258306,0" style="fill: none; stroke: #e45756; stroke-width: 2; opacity: 0.5;"></path><path transform="translate(400,300)" d="M2.7386127875258306,0A2.7386127875258306,2.7386127875258306,0,1,1,-2.7386127875258306,0A2.7386127875258306,2.7386127875258306,0,1,1,2.7386127875258306,0" style="fill: none; stroke: #e45756; stroke-width: 2; opacity: 0.5;"></path><path transform="translate(406.8965517241379,269.8970004336019)" d="M2.7386127875258306,0A2.7386127875258306,2.7386127875258306,0,1,1,-2.7386127875258306,0A2.7386127875258306,2.7386127875258306,0,1,1,2.7386127875258306,0" style="fill: none; stroke: #e45756; stroke-width: 2; opacity: 0.5;"></path><path transform="translate(427.58620689655174,269.8970004336019)" d="M2.7386127875258306,0A2.7386127875258306,2.7386127875258306,0,1,1,-2.7386127875258306,0A2.7386127875258306,2.7386127875258306,0,1,1,2.7386127875258306,0" style="fill: none; stroke: #e45756; stroke-width: 2; opacity: 0.5;"></path><path transform="translate(455.17241379310343,300)" d="M2.7386127875258306,0A2.7386127875258306,2.7386127875258306,0,1,1,-2.7386127875258306,0A2.7386127875258306,2.7386127875258306,0,1,1,2.7386127875258306,0" style="fill: none; stroke: #e45756; stroke-width: 2; opacity: 0.5;"></path><path transform="translate(462.06896551724134,300)" d="M2.7386127875258306,0A2.7386127875258306,2.7386127875258306,0,1,1,-2.7386127875258306,0A2.7386127875258306,2.7386127875258306,0,1,1,2.7386127875258306,0" style="fill: none; stroke: #e45756; stroke-width: 2; opacity: 0.5;"></path><path transform="translate(468.96551724137936,300)" d="M2.7386127875258306,0A2.7386127875258306,2.7386127875258306,0,1,1,-2.7386127875258306,0A2.7386127875258306,2.7386127875258306,0,1,1,2.7386127875258306,0" style="fill: none; stroke: #e45756; stroke-width: 2; opacity: 0.5;"></path><path transform="translate(489.6551724137931,269.8970004336019)" d="M2.7386127875258306,0A2.7386127875258306,2.7386127875258306,0,1,1,-2.7386127875258306,0A2.7386127875258306,2.7386127875258306,0,1,1,2.7386127875258306,0" style="fill: none; stroke: #e45756; stroke-width: 2; opacity: 0.5;"></path><path transform="translate(496.55172413793105,269.8970004336019)" d="M2.7386127875258306,0A2.7386127875258306,2.7386127875258306,0,1,1,-2.7386127875258306,0A2.7386127875258306,2.7386127875258306,0,1,1,2.7386127875258306,0" style="fill: none; stroke: #e45756; stroke-width: 2; opacity: 0.5;"></path><path transform="translate(503.44827586206895,300)" d="M2.7386127875258306,0A2.7386127875258306,2.7386127875258306,0,1,1,-2.7386127875258306,0A2.7386127875258306,2.7386127875258306,0,1,1,2.7386127875258306,0" style="fill: none; stroke: #e45756; stroke-width: 2; opacity: 0.5;"></path><path transform="translate(510.34482758620686,300)" d="M2.7386127875258306,0A2.7386127875258306,2.7386127875258306,0,1,1,-2.7386127875258306,0A2.7386127875258306,2.7386127875258306,0,1,1,2.7386127875258306,0" style="fill: none; stroke: #e45756; stroke-width: 2; opacity: 0.5;"></path><path transform="translate(517.2413793103448,300)" d="M2.7386127875258306,0A2.7386127875258306,2.7386127875258306,0,1,1,-2.7386127875258306,0A2.7386127875258306,2.7386127875258306,0,1,1,2.7386127875258306,0" style="fill: none; stroke: #e45756; stroke-width: 2; opacity: 0.5;"></path><path transform="translate(537.9310344827586,300)" d="M2.7386127875258306,0A2.7386127875258306,2.7386127875258306,0,1,1,-2.7386127875258306,0A2.7386127875258306,2.7386127875258306,0,1,1,2.7386127875258306,0" style="fill: none; stroke: #e45756; stroke-width: 2; opacity: 0.5;"></path><path transform="translate(544.8275862068965,269.8970004336019)" d="M2.7386127875258306,0A2.7386127875258306,2.7386127875258306,0,1,1,-2.7386127875258306,0A2.7386127875258306,2.7386127875258306,0,1,1,2.7386127875258306,0" style="fill: none; stroke: #e45756; stroke-width: 2; opacity: 0.5;"></path><path transform="translate(551.7241379310344,300)" d="M2.7386127875258306,0A2.7386127875258306,2.7386127875258306,0,1,1,-2.7386127875258306,0A2.7386127875258306,2.7386127875258306,0,1,1,2.7386127875258306,0" style="fill: none; stroke: #e45756; stroke-width: 2; opacity: 0.5;"></path><path transform="translate(565.5172413793103,269.8970004336019)" d="M2.7386127875258306,0A2.7386127875258306,2.7386127875258306,0,1,1,-2.7386127875258306,0A2.7386127875258306,2.7386127875258306,0,1,1,2.7386127875258306,0" style="fill: none; stroke: #e45756; stroke-width: 2; opacity: 0.5;"></path><path transform="translate(572.4137931034483,300)" d="M2.7386127875258306,0A2.7386127875258306,2.7386127875258306,0,1,1,-2.7386127875258306,0A2.7386127875258306,2.7386127875258306,0,1,1,2.7386127875258306,0" style="fill: none; stroke: #e45756; stroke-width: 2; opacity: 0.5;"></path></g><g class="mark-group role-legend"><g transform="translate(0,-32)"><path class="background" d="M0,0h269v14h-269Z" style="pointer-events: none; fill: none;"></path><g><g class="mark-group role-legend-entry"><g transform="translate(0,0)"><path class="background" d="M0,0h0v0h0Z" style="pointer-events: none; fill: none;"></path><g><g class="mark-group role-scope"><g transform="translate(0,0)"><path class="background" d="M0,0h97.365234375v14h-97.365234375Z" style="pointer-events: none; fill: none; opacity: 1;"></path><g><g class="mark-symbol role-legend-symbol" style="pointer-events: none;"><path transform="translate(7,7)" d="M5,0A5,5,0,1,1,-5,0A5,5,0,1,1,5,0" style="fill: none; stroke: #4c78a8; stroke-width: 1.5; opacity: 0.5;"></path></g><g class="mark-text role-legend-label" style="pointer-events: none;"><text text-anchor="start" transform="translate(18,11)" style="font-family: sans-serif; font-size: 14px; fill: #000; opacity: 1;">Confirmados</text></g></g><path class="foreground" d="" style="pointer-events: none; display: none; fill: none;"></path></g><g transform="translate(108,0)"><path class="background" d="M0,0h81.041015625v14h-81.041015625Z" style="pointer-events: none; fill: none; opacity: 1;"></path><g><g class="mark-symbol role-legend-symbol" style="pointer-events: none;"><path transform="translate(7,7)" d="M5,0A5,5,0,1,1,-5,0A5,5,0,1,1,5,0" style="fill: none; stroke: #f58518; stroke-width: 1.5; opacity: 0.5;"></path></g><g class="mark-text role-legend-label" style="pointer-events: none;"><text text-anchor="start" transform="translate(18,11)" style="font-family: sans-serif; font-size: 14px; fill: #000; opacity: 1;">Probables</text></g></g><path class="foreground" d="" style="pointer-events: none; display: none; fill: none;"></path></g><g transform="translate(200,0)"><path class="background" d="M0,0h68.572265625v14h-68.572265625Z" style="pointer-events: none; fill: none; opacity: 1;"></path><g><g class="mark-symbol role-legend-symbol" style="pointer-events: none;"><path transform="translate(7,7)" d="M5,0A5,5,0,1,1,-5,0A5,5,0,1,1,5,0" style="fill: none; stroke: #e45756; stroke-width: 1.5; opacity: 0.5;"></path></g><g class="mark-text role-legend-label" style="pointer-events: none;"><text text-anchor="start" transform="translate(18,11)" style="font-family: sans-serif; font-size: 14px; fill: #000; opacity: 1;">Muertes</text></g></g><path class="foreground" d="" style="pointer-events: none; display: none; fill: none;"></path></g></g></g><path class="foreground" d="" style="pointer-events: none; display: none; fill: none;"></path></g></g></g><path class="foreground" d="" style="pointer-events: none; display: none; fill: none;"></path></g></g></g><path class="foreground" d="" style="display: none; fill: none;"></path></g></g></g></svg>