<svg class="marks" width="644" height="463" viewBox="0 0 644 463" version="1.1" xmlns="http://www.w3.org/2000/svg" xmlns:xlink="http://www.w3.org/1999/xlink"><rect width="644" height="463" style="fill: white;"></rect><defs><clipPath id="clip1"><rect x="0" y="0" width="600" height="400"></rect></clipPath></defs><g transform="translate(36,37)"><g class="mark-group role-frame root"><g transform="translate(0,0)"><path class="background" d="M0.5,0.5h600v400h-600Z" style="fill: none; stroke: #ddd;"></path><g><g class="mark-group role-axis"><g transform="translate(0.5,400.5)"><path class="background" d="M0,0h0v0h0Z" style="pointer-events: none; fill: none;"></path><g><g class="mark-rule role-axis-grid" style="pointer-events: none;"><line transform="translate(41,-400)" x2="0" y2="400" style="fill: none; stroke: #ddd; stroke-width: 1; opacity: 1;"></line><line transform="translate(90,-400)" x2="0" y2="400" style="fill: none; stroke: #ddd; stroke-width: 1; opacity: 1;"></line><line transform="translate(138,-400)" x2="0" y2="400" style="fill: none; stroke: #ddd; stroke-width: 1; opacity: 1;"></line><line transform="translate(186,-400)" x2="0" y2="400" style="fill: none; stroke: #ddd; stroke-width: 1; opacity: 1;"></line><line transform="translate(234,-400)" x2="0" y2="400" style="fill: none; stroke: #ddd; stroke-width: 1; opacity: 1;"></line><line transform="translate(283,-400)" x2="0" y2="400" style="fill: none; stroke: #ddd; stroke-width: 1; opacity: 1;"></line><line transform="translate(331,-400)" x2="0" y2="400" style="fill: none; stroke: #ddd; stroke-width: 1; opacity: 1;"></line><line transform="translate(379,-400)" x2="0" y2="400" style="fill: none; stroke: #ddd; stroke-width: 1; opacity: 1;"></line><line transform="translate(428,-400)" x2="0" y2="400" style="fill: none; stroke: #ddd; stroke-width: 1; opacity: 1;"></line><line transform="translate(476,-400)" x2="0" y2="400" style="fill: none; stroke: #ddd; stroke-width: 1; opacity: 1;"></line><line transform="translate(524,-400)" x2="0" y2="400" style="fill: none; stroke: #ddd; stroke-width: 1; opacity: 1;"></line><line transform="translate(572,-400)" x2="0" y2="400" style="fill: none; stroke: #ddd; stroke-width: 1; opacity: 1;"></line></g></g><path class="foreground" d="" style="pointer-events: none; display: none; fill: none;"></path></g></g><g class="mark-group role-axis"><g transform="translate(0.5,0.5)"><path class="background" d="M0,0h0v0h0Z" style="pointer-events: none; fill: none;"></path><g><g class="mark-rule role-axis-grid" style="pointer-events: none;"><line transform="translate(0,400)" x2="600" y2="0" style="fill: none; stroke: #ddd; stroke-width: 1; opacity: 1;"></line><line transform="translate(0,206)" x2="600" y2="0" style="fill: none; stroke: #ddd; stroke-width: 1; opacity: 1;"></line><line transform="translate(0,154)" x2="600" y2="0" style="fill: none; stroke: #ddd; stroke-width: 1; opacity: 1;"></line><line transform="translate(0,122)" x2="600" y2="0" style="fill: none; stroke: #ddd; stroke-width: 1; opacity: 1;"></line><line transform="translate(0,100)" x2="600" y2="0" style="fill: none; stroke: #ddd; stroke-width: 1; opacity: 1;"></line><line transform="translate(0,82)" x2="600" y2="0" style="fill: none; stroke: #ddd; stroke-width: 1; opacity: 1;"></line><line transform="translate(0,68)" x2="600" y2="0" style="fill: none; stroke: #ddd; stroke-width: 1; opacity: 1;"></line><line transform="translate(0,55)" x2="600" y2="0" style="fill: none; stroke: #ddd; stroke-width: 1; opacity: 1;"></line><line transform="translate(0,45)" x2="600" y2="0" style="fill: none; stroke: #ddd; stroke-width: 1; opacity: 1;"></line><line transform="translate(0,35)" x2="600" y2="0" style="fill: none; stroke: #ddd; stroke-width: 1; opacity: 1;"></line><line transform="translate(0,27)" x2="600" y2="0" style="fill: none; stroke: #ddd; stroke-width: 1; opacity: 1;"></line><line transform="translate(0,19)" x2="600" y2="0" style="fill: none; stroke: #ddd; stroke-width: 1; opacity: 1;"></line><line transform="translate(0,12)" x2="600" y2="0" style="fill: none; stroke: #ddd; stroke-width: 1; opacity: 1;"></line><line transform="translate(0,6)" x2="600" y2="0" style="fill: none; stroke: #ddd; stroke-width: 1; opacity: 1;"></line><line transform="translate(0,0)" x2="600" y2="0" style="fill: none; stroke: #ddd; stroke-width: 1; opacity: 1;"></line></g></g><path class="foreground" d="" style="pointer-events: none; display: none; fill: none;"></path></g></g><g class="mark-group role-axis"><g transform="translate(0.5,400.5)"><path class="background" d="M0,0h0v0h0Z" style="pointer-events: none; fill: none;"></path><g><g class="mark-rule role-axis-tick" style="pointer-events: none;"><line transform="translate(41,0)" x2="0" y2="5" style="fill: none; stroke: #888; stroke-width: 1; opacity: 1;"></line><line transform="translate(90,0)" x2="0" y2="5" style="fill: none; stroke: #888; stroke-width: 1; opacity: 1;"></line><line transform="translate(138,0)" x2="0" y2="5" style="fill: none; stroke: #888; stroke-width: 1; opacity: 1;"></line><line transform="translate(186,0)" x2="0" y2="5" style="fill: none; stroke: #888; stroke-width: 1; opacity: 1;"></line><line transform="translate(234,0)" x2="0" y2="5" style="fill: none; stroke: #888; stroke-width: 1; opacity: 1;"></line><line transform="translate(283,0)" x2="0" y2="5" style="fill: none; stroke: #888; stroke-width: 1; opacity: 1;"></line><line transform="translate(331,0)" x2="0" y2="5" style="fill: none; stroke: #888; stroke-width: 1; opacity: 1;"></line><line transform="translate(379,0)" x2="0" y2="5" style="fill: none; stroke: #888; stroke-width: 1; opacity: 1;"></line><line transform="translate(428,0)" x2="0" y2="5" style="fill: none; stroke: #888; stroke-width: 1; opacity: 1;"></line><line transform="translate(476,0)" x2="0" y2="5" style="fill: none; stroke: #888; stroke-width: 1; opacity: 1;"></line><line transform="translate(524,0)" x2="0" y2="5" style="fill: none; stroke: #888; stroke-width: 1; opacity: 1;"></line><line transform="translate(572,0)" x2="0" y2="5" style="fill: none; stroke: #888; stroke-width: 1; opacity: 1;"></line></g><g class="mark-text role-axis-label" style="pointer-events: none;"><text text-anchor="middle" transform="translate(41.37931034482759,18)" style="font-family: sans-serif; font-size: 14px; fill: #000; opacity: 1;">15/03</text><text text-anchor="middle" transform="translate(89.65517241379311,18)" style="font-family: sans-serif; font-size: 14px; fill: #000; opacity: 1;">22/03</text><text text-anchor="middle" transform="translate(137.9310344827586,18)" style="font-family: sans-serif; font-size: 14px; fill: #000; opacity: 1;">29/03</text><text text-anchor="middle" transform="translate(186.20689655172416,18)" style="font-family: sans-serif; font-size: 14px; fill: #000; opacity: 1;">05/04</text><text text-anchor="middle" transform="translate(234.48275862068968,18)" style="font-family: sans-serif; font-size: 14px; fill: #000; opacity: 1;">12/04</text><text text-anchor="middle" transform="translate(282.7586206896552,18)" style="font-family: sans-serif; font-size: 14px; fill: #000; opacity: 1;">19/04</text><text text-anchor="middle" transform="translate(331.0344827586207,18)" style="font-family: sans-serif; font-size: 14px; fill: #000; opacity: 1;">26/04</text><text text-anchor="middle" transform="translate(379.3103448275862,18)" style="font-family: sans-serif; font-size: 14px; fill: #000; opacity: 1;">03/05</text><text text-anchor="middle" transform="translate(427.58620689655174,18)" style="font-family: sans-serif; font-size: 14px; fill: #000; opacity: 1;">10/05</text><text text-anchor="middle" transform="translate(475.86206896551727,18)" style="font-family: sans-serif; font-size: 14px; fill: #000; opacity: 1;">17/05</text><text text-anchor="middle" transform="translate(524.1379310344828,18)" style="font-family: sans-serif; font-size: 14px; fill: #000; opacity: 1;">24/05</text><text text-anchor="middle" transform="translate(572.4137931034483,18)" style="font-family: sans-serif; font-size: 14px; fill: #000; opacity: 1;">31/05</text></g><g class="mark-rule role-axis-domain" style="pointer-events: none;"><line transform="translate(0,0)" x2="600" y2="0" style="fill: none; stroke: #888; stroke-width: 1; opacity: 1;"></line></g></g><path class="foreground" d="" style="pointer-events: none; display: none; fill: none;"></path></g></g><g class="mark-group role-axis"><g transform="translate(0.5,0.5)"><path class="background" d="M0,0h0v0h0Z" style="pointer-events: none; fill: none;"></path><g><g class="mark-rule role-axis-tick" style="pointer-events: none;"><line transform="translate(0,400)" x2="-5" y2="0" style="fill: none; stroke: #888; stroke-width: 1; opacity: 1;"></line><line transform="translate(0,206)" x2="-5" y2="0" style="fill: none; stroke: #888; stroke-width: 1; opacity: 1;"></line><line transform="translate(0,154)" x2="-5" y2="0" style="fill: none; stroke: #888; stroke-width: 1; opacity: 1;"></line><line transform="translate(0,122)" x2="-5" y2="0" style="fill: none; stroke: #888; stroke-width: 1; opacity: 1;"></line><line transform="translate(0,100)" x2="-5" y2="0" style="fill: none; stroke: #888; stroke-width: 1; opacity: 1;"></line><line transform="translate(0,82)" x2="-5" y2="0" style="fill: none; stroke: #888; stroke-width: 1; opacity: 1;"></line><line transform="translate(0,68)" x2="-5" y2="0" style="fill: none; stroke: #888; stroke-width: 1; opacity: 1;"></line><line transform="translate(0,55)" x2="-5" y2="0" style="fill: none; stroke: #888; stroke-width: 1; opacity: 1;"></line><line transform="translate(0,45)" x2="-5" y2="0" style="fill: none; stroke: #888; stroke-width: 1; opacity: 1;"></line><line transform="translate(0,35)" x2="-5" y2="0" style="fill: none; stroke: #888; stroke-width: 1; opacity: 1;"></line><line transform="translate(0,27)" x2="-5" y2="0" style="fill: none; stroke: #888; stroke-width: 1; opacity: 1;"></line><line transform="translate(0,19)" x2="-5" y2="0" style="fill: none; stroke: #888; stroke-width: 1; opacity: 1;"></line><line transform="translate(0,12)" x2="-5" y2="0" style="fill: none; stroke: #888; stroke-width: 1; opacity: 1;"></line><line transform="translate(0,6)" x2="-5" y2="0" style="fill: none; stroke: #888; stroke-width: 1; opacity: 1;"></line><line transform="translate(0,0)" x2="-5" y2="0" style="fill: none; stroke: #888; stroke-width: 1; opacity: 1;"></line></g><g class="mark-text role-axis-label" style="pointer-events: none;"><text text-anchor="end" transform="translate(-7,404)" style="font-family: sans-serif; font-size: 14px; fill: #000; opacity: 1;">0</text><text text-anchor="end" transform="translate(-7,210.18212837841838)" style="font-family: sans-serif; font-size: 14px; fill: #000; opacity: 0;">10</text><text text-anchor="end" transform="translate(-7,157.91633417956996)" style="font-family: sans-serif; font-size: 14px; fill: #000; opacity: 0;">20</text><text text-anchor="end" transform="translate(-7,126.43654729243838)" style="font-family: sans-serif; font-size: 14px; fill: #000; opacity: 0;">30</text><text text-anchor="end" transform="translate(-7,103.83816964532272)" style="font-family: sans-serif; font-size: 14px; fill: #000; opacity: 1;">40</text><text text-anchor="end" transform="translate(-7,86.19709827757531)" style="font-family: sans-serif; font-size: 14px; fill: #000; opacity: 0;">50</text><text text-anchor="end" transform="translate(-7,71.7249286500201)" style="font-family: sans-serif; font-size: 14px; fill: #000; opacity: 0;">60</text><text text-anchor="end" transform="translate(-7,59.45470206956637)" style="font-family: sans-serif; font-size: 14px; fill: #000; opacity: 0;">70</text><text text-anchor="end" transform="translate(-7,48.80401134704239)" style="font-family: sans-serif; font-size: 14px; fill: #000; opacity: 1;">80</text><text text-anchor="end" transform="translate(-7,39.39475695417953)" style="font-family: sans-serif; font-size: 14px; fill: #000; opacity: 0;">90</text><text text-anchor="end" transform="translate(-7,30.967513553090416)" style="font-family: sans-serif; font-size: 14px; fill: #000; opacity: 0;">100</text><text text-anchor="end" transform="translate(-7,23.336536373968507)" style="font-family: sans-serif; font-size: 14px; fill: #000; opacity: 0;">110</text><text text-anchor="end" transform="translate(-7,16.364256756836724)" style="font-family: sans-serif; font-size: 14px; fill: #000; opacity: 1;">120</text><text text-anchor="end" transform="translate(-7,9.945939492440866)" style="font-family: sans-serif; font-size: 14px; fill: #000; opacity: 0;">130</text><text text-anchor="end" transform="translate(-7,4)" style="font-family: sans-serif; font-size: 14px; fill: #000; opacity: 0;">140</text></g><g class="mark-rule role-axis-domain" style="pointer-events: none;"><line transform="translate(0,400)" x2="0" y2="-400" style="fill: none; stroke: #888; stroke-width: 1; opacity: 1;"></line></g></g><path class="foreground" d="" style="pointer-events: none; display: none; fill: none;"></path></g></g><g class="mark-group role-scope layer_0_pathgroup"><g transform="translate(0,0)"><path class="background" d="M0,0h600v400h-600Z" style="fill: none;"></path><g><g class="mark-line role-mark layer_0_marks"><path d="M0,343.9740706024048L27.586206896551722,298.7412607404045L34.48275862068965,294.9811255416578L48.275862068965516,265.9681929747603L55.172413793103445,257.9152792625755L62.06896551724138,257.4520783931919L68.9655172413793,257.1228383025134L75.86206896551725,237.91223547337043L82.75862068965517,227.70412450239013L89.65517241379311,218.64187047477444L96.55172413793103,192.67942561137014L103.44827586206897,163.23060814963148L110.34482758620689,143.60577327431892L117.24137931034484,121.69499777463871L124.13793103448276,109.07723347642921L131.0344827586207,105.07348819724642L137.9310344827586,104.47475708545709L144.82758620689657,90.78871807762185L151.7241379310345,88.5536909643224L158.6206896551724,80.84992825078801L165.51724137931035,81.52070662747425L172.41379310344826,81.2964947486059L179.31034482758622,83.33715004763316L186.20689655172416,85.43066268561871L193.10344827586206,94.13026958322801L200,99.83816964532272L206.89655172413794,114.63126269345811L213.79310344827587,120.96018970937554L220.68965517241378,140.28684184847958L227.58620689655172,141.6925873764195L234.48275862068968,141.22128382240143L241.3793103448276,151.74631578054547L248.27586206896552,157.2846686571907L255.17241379310343,155.02358889886213L262.0689655172414,159.02297932065838L268.9655172413793,148.5967615975555L275.8620689655172,150.15619898082323L282.7586206896552,151.74631578054547L289.65517241379314,158.43937873114297L296.55172413793105,161.4004545554931L303.448275862069,163.84998536051367L310.3448275862069,171.67819510479498L317.2413793103448,175.17780362995347L324.1379310344828,181.11282332630861L337.9310344827586,174.46565514206375L344.8275862068965,175.89628240961935L351.7241379310345,177.35268812756186L358.62068965517244,181.88630607577534L365.51724137931035,190.05773642283495L372.4137931034483,200.11715956966262L379.3103448275862,200.11715956966262L386.2068965517241,205.13916770772633L393.10344827586204,201.09690890491825L400,199.14914404157034L406.8965517241379,203.09277155635797L413.7931034482759,190.05773642283495L420.68965517241384,191.79604708630262L434.48275862068965,182.66726220424076L441.37931034482756,179.5877152408613L448.2758620689655,187.518417730533L455.17241379310343,198.19258458755337L462.06896551724134,204.10949352190065L468.96551724137936,227.70412450239021L475.86206896551727,231.92221180721458L482.7586206896552,241.08238023869154L489.6551724137931,246.0836658204302L496.55172413793105,247.8219764838979L503.44827586206895,259.11870095395324L510.34482758620686,269.9118204895481L517.2413793103448,265.4202021943987L524.1379310344828,263.2646523053033L531.0344827586207,269.9118204895481L537.9310344827586,274.66779987236987L544.8275862068965,279.72121594962925L551.7241379310344,257.1228383025135L558.6206896551724,253.27314261759196L565.5172413793103,257.1228383025135L579.3103448275863,244.38195390357066L586.2068965517242,241.08238023869148L593.1034482758621,246.0836658204302" style="fill: none; stroke: #4c78a8; stroke-width: 3;"></path></g></g><path class="foreground" d="" style="display: none; fill: none;"></path></g><g transform="translate(0,0)"><path class="background" d="M0,0h600v400h-600Z" style="fill: none;"></path><g><g class="mark-line role-mark layer_0_marks"><path d="M117.24137931034484,157.85996169435762L124.13793103448276,139.82364097909593L144.82758620689657,166.37607627592607L151.7241379310345,174.64310489610847L158.6206896551724,182.19778365006474L165.51724137931035,186.68940194521414L172.41379310344826,188.3560245059754L179.31034482758622,204.10949352190056L186.20689655172416,239.48176693476597L193.10344827586206,222.4020056735212L200,205.13916770772624L206.89655172413794,182.66726220424073L213.79310344827587,176.62120503115912L220.68965517241378,180.34667227719638L227.58620689655172,178.09085152732814L234.48275862068968,176.62120503115912L241.3793103448276,167.0201301258345L248.27586206896552,150.1561989808232L255.17241379310343,142.16665518995813L262.0689655172414,128.62738678984883L268.9655172413793,113.28968284099372L275.8620689655172,109.39358742431389L282.7586206896552,109.71118441644352L289.65517241379314,98.16579970087065L296.55172413793105,92.82865803421036L303.448275862069,83.79771158150074L310.3448275862069,76.93811665079929L317.2413793103448,68.29481348200605L324.1379310344828,67.5358564456709L331.0344827586207,66.78395957709178L337.9310344827586,63.664204296728414L344.8275862068965,62.0600612943154L351.7241379310345,65.30082933237149L358.62068965517244,63.30496668093173L365.51724137931035,57.76424006106291L372.4137931034483,57.09761087615921L379.3103448275862,56.931809114425214L386.2068965517241,52.10960413961274L393.10344827586204,44.80401134704239L400,39.560745903575345L406.8965517241379,37.58117764398663L413.7931034482759,35.39475695417953L420.68965517241384,36.15969954509821L427.58620689655174,36.287896765473974L434.48275862068965,37.84233564340616L441.37931034482756,41.86447538437963L448.2758620689655,45.37624970532903L455.17241379310343,44.37747563161163L462.06896551724134,44.94669157915481L468.96551724137936,43.390892653258994L475.86206896551727,43.390892653258994L482.7586206896552,45.952568228961965L489.6551724137931,48.29983533138304L496.55172413793105,48.29983533138304L503.44827586206895,55.13008986417742L510.34482758620686,60.14171529589758L517.2413793103448,59.969556912382814L524.1379310344828,59.62633630960461L531.0344827586207,66.97127908272135L537.9310344827586,64.20607222895325L544.8275862068965,63.30496668093182L551.7241379310344,59.4552709960102L558.6206896551724,63.66420429672846L565.5172413793103,66.97127908272135L572.4137931034483,67.7249286500202L579.3103448275863,61.53234453075558L586.2068965517242,73.20691588246828L593.1034482758621,90.03682120904277" style="fill: none; stroke: #f58518; stroke-width: 3;"></path></g></g><path class="foreground" d="" style="display: none; fill: none;"></path></g><g transform="translate(0,0)"><path class="background" d="M0,0h600v400h-600Z" style="fill: none;"></path><g><g class="mark-line role-mark layer_0_marks"><path d="M55.172413793103445,343.9740706024048L62.06896551724138,367.2269322343558L68.9655172413793,376.74713836804904L75.86206896551725,381.9636792847383L82.75862068965517,362.0103913176665L89.65517241379311,358.71081765278734L96.55172413793103,349.9640942685608L103.44827586206897,349.9640942685608L110.34482758620689,349.9640942685608L117.24137931034484,333.18095106680994L124.13793103448276,323.6607449331167L131.0344827586207,319.2905817028983L137.9310344827586,311.2010028367606L144.82758620689657,307.44086763801386L151.7241379310345,307.44086763801386L158.6206896551724,300.4078833011657L165.51724137931035,311.2010028367606L172.41379310344826,300.4078833011657L179.31034482758622,297.10830963628655L186.20689655172416,300.4078833011657L193.10344827586206,300.4078833011657L200,293.9381648709657L206.89655172413794,290.8876771674724L213.79310344827587,279.721215949629L220.68965517241378,279.721215949629L227.58620689655172,279.721215949629L234.48275862068968,285.1117684093141L241.3793103448276,277.1550216692147L248.27586206896552,277.1550216692147L255.17241379310343,274.66779987236964L262.0689655172414,274.66779987236964L268.9655172413793,282.37156258590403L275.8620689655172,287.94814120480964L282.7586206896552,279.721215949629L289.65517241379314,293.9381648709657L296.55172413793105,290.8876771674724L303.448275862069,287.94814120480964L310.3448275862069,293.93816487096564L317.2413793103448,290.8876771674724L324.1379310344828,290.8876771674724L331.0344827586207,285.1117684093141L337.9310344827586,287.94814120480964L344.8275862068965,293.93816487096564L351.7241379310345,311.20100283676055L358.62068965517244,315.1446303515482L365.51724137931035,315.1446303515482L372.4137931034483,307.44086763801386L379.3103448275862,319.2905817028983L386.2068965517241,307.44086763801386L393.10344827586204,307.44086763801386L400,303.84790588149286L406.8965517241379,300.4078833011657L413.7931034482759,311.2010028367606L420.68965517241384,328.2807640980053L427.58620689655174,328.2807640980053L434.48275862068965,343.9740706024048L441.37931034482756,356.4338126987609L448.2758620689655,363.466797035609L455.17241379310343,371.1705597491434L462.06896551724134,363.466797035609L468.96551724137936,356.43381269876085L475.86206896551727,371.1705597491434L482.7586206896552,371.1705597491434L489.6551724137931,356.43381269876085L496.55172413793105,343.9740706024048L503.44827586206895,343.9740706024048L510.34482758620686,343.9740706024048L517.2413793103448,343.9740706024048L524.1379310344828,343.9740706024048L531.0344827586207,343.9740706024048L537.9310344827586,349.9640942685608L544.8275862068965,349.9640942685608L551.7241379310344,349.9640942685608L558.6206896551724,356.43381269876085L565.5172413793103,349.9640942685608L572.4137931034483,343.9740706024048L579.3103448275863,343.9740706024048L586.2068965517242,349.9640942685608L593.1034482758621,363.466797035609L600,371.1705597491434" style="fill: none; stroke: #e45756; stroke-width: 3;"></path></g></g><path class="foreground" d="" style="display: none; fill: none;"></path></g></g><g class="mark-symbol role-mark layer_1_marks" clip-path="url(#clip1)"><path transform="translate(0,343.9740706024048)" d="M2.7386127875258306,0A2.7386127875258306,2.7386127875258306,0,1,1,-2.7386127875258306,0A2.7386127875258306,2.7386127875258306,0,1,1,2.7386127875258306,0" style="fill: none; stroke: #4c78a8; stroke-width: 2; opacity: 0.5;"></path><path transform="translate(27.586206896551722,269.91182048954795)" d="M2.7386127875258306,0A2.7386127875258306,2.7386127875258306,0,1,1,-2.7386127875258306,0A2.7386127875258306,2.7386127875258306,0,1,1,2.7386127875258306,0" style="fill: none; stroke: #4c78a8; stroke-width: 2; opacity: 0.5;"></path><path transform="translate(34.48275862068965,287.94814120480964)" d="M2.7386127875258306,0A2.7386127875258306,2.7386127875258306,0,1,1,-2.7386127875258306,0A2.7386127875258306,2.7386127875258306,0,1,1,2.7386127875258306,0" style="fill: none; stroke: #4c78a8; stroke-width: 2; opacity: 0.5;"></path><path transform="translate(48.275862068965516,213.88589109195271)" d="M2.7386127875258306,0A2.7386127875258306,2.7386127875258306,0,1,1,-2.7386127875258306,0A2.7386127875258306,2.7386127875258306,0,1,1,2.7386127875258306,0" style="fill: none; stroke: #4c78a8; stroke-width: 2; opacity: 0.5;"></path><path transform="translate(55.172413793103445,231.9222118072145)" d="M2.7386127875258306,0A2.7386127875258306,2.7386127875258306,0,1,1,-2.7386127875258306,0A2.7386127875258306,2.7386127875258306,0,1,1,2.7386127875258306,0" style="fill: none; stroke: #4c78a8; stroke-width: 2; opacity: 0.5;"></path><path transform="translate(62.06896551724138,255.17507343916543)" d="M2.7386127875258306,0A2.7386127875258306,2.7386127875258306,0,1,1,-2.7386127875258306,0A2.7386127875258306,2.7386127875258306,0,1,1,2.7386127875258306,0" style="fill: none; stroke: #4c78a8; stroke-width: 2; opacity: 0.5;"></path><path transform="translate(68.9655172413793,255.17507343916543)" d="M2.7386127875258306,0A2.7386127875258306,2.7386127875258306,0,1,1,-2.7386127875258306,0A2.7386127875258306,2.7386127875258306,0,1,1,2.7386127875258306,0" style="fill: none; stroke: #4c78a8; stroke-width: 2; opacity: 0.5;"></path><path transform="translate(75.86206896551725,192.67942561137014)" d="M2.7386127875258306,0A2.7386127875258306,2.7386127875258306,0,1,1,-2.7386127875258306,0A2.7386127875258306,2.7386127875258306,0,1,1,2.7386127875258306,0" style="fill: none; stroke: #4c78a8; stroke-width: 2; opacity: 0.5;"></path><path transform="translate(82.75862068965517,199.14914404157025)" d="M2.7386127875258306,0A2.7386127875258306,2.7386127875258306,0,1,1,-2.7386127875258306,0A2.7386127875258306,2.7386127875258306,0,1,1,2.7386127875258306,0" style="fill: none; stroke: #4c78a8; stroke-width: 2; opacity: 0.5;"></path><path transform="translate(89.65517241379311,206.18212837841838)" d="M2.7386127875258306,0A2.7386127875258306,2.7386127875258306,0,1,1,-2.7386127875258306,0A2.7386127875258306,2.7386127875258306,0,1,1,2.7386127875258306,0" style="fill: none; stroke: #4c78a8; stroke-width: 2; opacity: 0.5;"></path><path transform="translate(96.55172413793103,112.62715183235734)" d="M2.7386127875258306,0A2.7386127875258306,2.7386127875258306,0,1,1,-2.7386127875258306,0A2.7386127875258306,2.7386127875258306,0,1,1,2.7386127875258306,0" style="fill: none; stroke: #4c78a8; stroke-width: 2; opacity: 0.5;"></path><path transform="translate(103.44827586206897,87.09728524637993)" d="M2.7386127875258306,0A2.7386127875258306,2.7386127875258306,0,1,1,-2.7386127875258306,0A2.7386127875258306,2.7386127875258306,0,1,1,2.7386127875258306,0" style="fill: none; stroke: #4c78a8; stroke-width: 2; opacity: 0.5;"></path><path transform="translate(110.34482758620689,97.89040478197477)" d="M2.7386127875258306,0A2.7386127875258306,2.7386127875258306,0,1,1,-2.7386127875258306,0A2.7386127875258306,2.7386127875258306,0,1,1,2.7386127875258306,0" style="fill: none; stroke: #4c78a8; stroke-width: 2; opacity: 0.5;"></path><path transform="translate(117.24137931034484,71.80117035452831)" d="M2.7386127875258306,0A2.7386127875258306,2.7386127875258306,0,1,1,-2.7386127875258306,0A2.7386127875258306,2.7386127875258306,0,1,1,2.7386127875258306,0" style="fill: none; stroke: #4c78a8; stroke-width: 2; opacity: 0.5;"></path><path transform="translate(124.13793103448276,83.79771158150074)" d="M2.7386127875258306,0A2.7386127875258306,2.7386127875258306,0,1,1,-2.7386127875258306,0A2.7386127875258306,2.7386127875258306,0,1,1,2.7386127875258306,0" style="fill: none; stroke: #4c78a8; stroke-width: 2; opacity: 0.5;"></path><path transform="translate(131.0344827586207,139.82364097909593)" d="M2.7386127875258306,0A2.7386127875258306,2.7386127875258306,0,1,1,-2.7386127875258306,0A2.7386127875258306,2.7386127875258306,0,1,1,2.7386127875258306,0" style="fill: none; stroke: #4c78a8; stroke-width: 2; opacity: 0.5;"></path><path transform="translate(137.9310344827586,192.67942561137014)" d="M2.7386127875258306,0A2.7386127875258306,2.7386127875258306,0,1,1,-2.7386127875258306,0A2.7386127875258306,2.7386127875258306,0,1,1,2.7386127875258306,0" style="fill: none; stroke: #4c78a8; stroke-width: 2; opacity: 0.5;"></path><path transform="translate(144.82758620689657,40.90791593036265)" d="M2.7386127875258306,0A2.7386127875258306,2.7386127875258306,0,1,1,-2.7386127875258306,0A2.7386127875258306,2.7386127875258306,0,1,1,2.7386127875258306,0" style="fill: none; stroke: #4c78a8; stroke-width: 2; opacity: 0.5;"></path><path transform="translate(151.7241379310345,73.20691588246824)" d="M2.7386127875258306,0A2.7386127875258306,2.7386127875258306,0,1,1,-2.7386127875258306,0A2.7386127875258306,2.7386127875258306,0,1,1,2.7386127875258306,0" style="fill: none; stroke: #4c78a8; stroke-width: 2; opacity: 0.5;"></path><path transform="translate(158.6206896551724,51.02464381585654)" d="M2.7386127875258306,0A2.7386127875258306,2.7386127875258306,0,1,1,-2.7386127875258306,0A2.7386127875258306,2.7386127875258306,0,1,1,2.7386127875258306,0" style="fill: none; stroke: #4c78a8; stroke-width: 2; opacity: 0.5;"></path><path transform="translate(165.51724137931035,76.0939488679663)" d="M2.7386127875258306,0A2.7386127875258306,2.7386127875258306,0,1,1,-2.7386127875258306,0A2.7386127875258306,2.7386127875258306,0,1,1,2.7386127875258306,0" style="fill: none; stroke: #4c78a8; stroke-width: 2; opacity: 0.5;"></path><path transform="translate(172.41379310344826,82.19709827757531)" d="M2.7386127875258306,0A2.7386127875258306,2.7386127875258306,0,1,1,-2.7386127875258306,0A2.7386127875258306,2.7386127875258306,0,1,1,2.7386127875258306,0" style="fill: none; stroke: #4c78a8; stroke-width: 2; opacity: 0.5;"></path><path transform="translate(179.31034482758622,175.8962824096193)" d="M2.7386127875258306,0A2.7386127875258306,2.7386127875258306,0,1,1,-2.7386127875258306,0A2.7386127875258306,2.7386127875258306,0,1,1,2.7386127875258306,0" style="fill: none; stroke: #4c78a8; stroke-width: 2; opacity: 0.5;"></path><path transform="translate(186.20689655172416,287.94814120480964)" d="M2.7386127875258306,0A2.7386127875258306,2.7386127875258306,0,1,1,-2.7386127875258306,0A2.7386127875258306,2.7386127875258306,0,1,1,2.7386127875258306,0" style="fill: none; stroke: #4c78a8; stroke-width: 2; opacity: 0.5;"></path><path transform="translate(193.10344827586206,83.79771158150074)" d="M2.7386127875258306,0A2.7386127875258306,2.7386127875258306,0,1,1,-2.7386127875258306,0A2.7386127875258306,2.7386127875258306,0,1,1,2.7386127875258306,0" style="fill: none; stroke: #4c78a8; stroke-width: 2; opacity: 0.5;"></path><path transform="translate(200,110.35014687833086)" d="M2.7386127875258306,0A2.7386127875258306,2.7386127875258306,0,1,1,-2.7386127875258306,0A2.7386127875258306,2.7386127875258306,0,1,1,2.7386127875258306,0" style="fill: none; stroke: #4c78a8; stroke-width: 2; opacity: 0.5;"></path><path transform="translate(206.89655172413794,133.60300851028182)" d="M2.7386127875258306,0A2.7386127875258306,2.7386127875258306,0,1,1,-2.7386127875258306,0A2.7386127875258306,2.7386127875258306,0,1,1,2.7386127875258306,0" style="fill: none; stroke: #4c78a8; stroke-width: 2; opacity: 0.5;"></path><path transform="translate(213.79310344827587,108.13553353720789)" d="M2.7386127875258306,0A2.7386127875258306,2.7386127875258306,0,1,1,-2.7386127875258306,0A2.7386127875258306,2.7386127875258306,0,1,1,2.7386127875258306,0" style="fill: none; stroke: #4c78a8; stroke-width: 2; opacity: 0.5;"></path><path transform="translate(220.68965517241378,287.94814120480964)" d="M2.7386127875258306,0A2.7386127875258306,2.7386127875258306,0,1,1,-2.7386127875258306,0A2.7386127875258306,2.7386127875258306,0,1,1,2.7386127875258306,0" style="fill: none; stroke: #4c78a8; stroke-width: 2; opacity: 0.5;"></path><path transform="translate(227.58620689655172,192.67942561137014)" d="M2.7386127875258306,0A2.7386127875258306,2.7386127875258306,0,1,1,-2.7386127875258306,0A2.7386127875258306,2.7386127875258306,0,1,1,2.7386127875258306,0" style="fill: none; stroke: #4c78a8; stroke-width: 2; opacity: 0.5;"></path><path transform="translate(234.48275862068968,269.91182048954795)" d="M2.7386127875258306,0A2.7386127875258306,2.7386127875258306,0,1,1,-2.7386127875258306,0A2.7386127875258306,2.7386127875258306,0,1,1,2.7386127875258306,0" style="fill: none; stroke: #4c78a8; stroke-width: 2; opacity: 0.5;"></path><path transform="translate(241.3793103448276,127.82709975212344)" d="M2.7386127875258306,0A2.7386127875258306,2.7386127875258306,0,1,1,-2.7386127875258306,0A2.7386127875258306,2.7386127875258306,0,1,1,2.7386127875258306,0" style="fill: none; stroke: #4c78a8; stroke-width: 2; opacity: 0.5;"></path><path transform="translate(248.27586206896552,136.65349621377496)" d="M2.7386127875258306,0A2.7386127875258306,2.7386127875258306,0,1,1,-2.7386127875258306,0A2.7386127875258306,2.7386127875258306,0,1,1,2.7386127875258306,0" style="fill: none; stroke: #4c78a8; stroke-width: 2; opacity: 0.5;"></path><path transform="translate(255.17241379310343,122.43654729243838)" d="M2.7386127875258306,0A2.7386127875258306,2.7386127875258306,0,1,1,-2.7386127875258306,0A2.7386127875258306,2.7386127875258306,0,1,1,2.7386127875258306,0" style="fill: none; stroke: #4c78a8; stroke-width: 2; opacity: 0.5;"></path><path transform="translate(262.0689655172414,125.0868939287134)" d="M2.7386127875258306,0A2.7386127875258306,2.7386127875258306,0,1,1,-2.7386127875258306,0A2.7386127875258306,2.7386127875258306,0,1,1,2.7386127875258306,0" style="fill: none; stroke: #4c78a8; stroke-width: 2; opacity: 0.5;"></path><path transform="translate(268.9655172413793,146.56323722430224)" d="M2.7386127875258306,0A2.7386127875258306,2.7386127875258306,0,1,1,-2.7386127875258306,0A2.7386127875258306,2.7386127875258306,0,1,1,2.7386127875258306,0" style="fill: none; stroke: #4c78a8; stroke-width: 2; opacity: 0.5;"></path><path transform="translate(275.8620689655172,213.88589109195271)" d="M2.7386127875258306,0A2.7386127875258306,2.7386127875258306,0,1,1,-2.7386127875258306,0A2.7386127875258306,2.7386127875258306,0,1,1,2.7386127875258306,0" style="fill: none; stroke: #4c78a8; stroke-width: 2; opacity: 0.5;"></path><path transform="translate(282.7586206896552,343.9740706024048)" d="M2.7386127875258306,0A2.7386127875258306,2.7386127875258306,0,1,1,-2.7386127875258306,0A2.7386127875258306,2.7386127875258306,0,1,1,2.7386127875258306,0" style="fill: none; stroke: #4c78a8; stroke-width: 2; opacity: 0.5;"></path><path transform="translate(289.65517241379314,170.99609544081468)" d="M2.7386127875258306,0A2.7386127875258306,2.7386127875258306,0,1,1,-2.7386127875258306,0A2.7386127875258306,2.7386127875258306,0,1,1,2.7386127875258306,0" style="fill: none; stroke: #4c78a8; stroke-width: 2; opacity: 0.5;"></path><path transform="translate(296.55172413793105,153.91633417956996)" d="M2.7386127875258306,0A2.7386127875258306,2.7386127875258306,0,1,1,-2.7386127875258306,0A2.7386127875258306,2.7386127875258306,0,1,1,2.7386127875258306,0" style="fill: none; stroke: #4c78a8; stroke-width: 2; opacity: 0.5;"></path><path transform="translate(303.448275862069,133.60300851028182)" d="M2.7386127875258306,0A2.7386127875258306,2.7386127875258306,0,1,1,-2.7386127875258306,0A2.7386127875258306,2.7386127875258306,0,1,1,2.7386127875258306,0" style="fill: none; stroke: #4c78a8; stroke-width: 2; opacity: 0.5;"></path><path transform="translate(310.3448275862069,166.37607627592607)" d="M2.7386127875258306,0A2.7386127875258306,2.7386127875258306,0,1,1,-2.7386127875258306,0A2.7386127875258306,2.7386127875258306,0,1,1,2.7386127875258306,0" style="fill: none; stroke: #4c78a8; stroke-width: 2; opacity: 0.5;"></path><path transform="translate(317.2413793103448,166.37607627592607)" d="M2.7386127875258306,0A2.7386127875258306,2.7386127875258306,0,1,1,-2.7386127875258306,0A2.7386127875258306,2.7386127875258306,0,1,1,2.7386127875258306,0" style="fill: none; stroke: #4c78a8; stroke-width: 2; opacity: 0.5;"></path><path transform="translate(324.1379310344828,343.9740706024048)" d="M2.7386127875258306,0A2.7386127875258306,2.7386127875258306,0,1,1,-2.7386127875258306,0A2.7386127875258306,2.7386127875258306,0,1,1,2.7386127875258306,0" style="fill: none; stroke: #4c78a8; stroke-width: 2; opacity: 0.5;"></path><path transform="translate(337.9310344827586,206.18212837841838)" d="M2.7386127875258306,0A2.7386127875258306,2.7386127875258306,0,1,1,-2.7386127875258306,0A2.7386127875258306,2.7386127875258306,0,1,1,2.7386127875258306,0" style="fill: none; stroke: #4c78a8; stroke-width: 2; opacity: 0.5;"></path><path transform="translate(344.8275862068965,181.1128233263086)" d="M2.7386127875258306,0A2.7386127875258306,2.7386127875258306,0,1,1,-2.7386127875258306,0A2.7386127875258306,2.7386127875258306,0,1,1,2.7386127875258306,0" style="fill: none; stroke: #4c78a8; stroke-width: 2; opacity: 0.5;"></path><path transform="translate(351.7241379310345,162.00591304570767)" d="M2.7386127875258306,0A2.7386127875258306,2.7386127875258306,0,1,1,-2.7386127875258306,0A2.7386127875258306,2.7386127875258306,0,1,1,2.7386127875258306,0" style="fill: none; stroke: #4c78a8; stroke-width: 2; opacity: 0.5;"></path><path transform="translate(358.62068965517244,153.91633417956996)" d="M2.7386127875258306,0A2.7386127875258306,2.7386127875258306,0,1,1,-2.7386127875258306,0A2.7386127875258306,2.7386127875258306,0,1,1,2.7386127875258306,0" style="fill: none; stroke: #4c78a8; stroke-width: 2; opacity: 0.5;"></path><path transform="translate(365.51724137931035,231.9222118072145)" d="M2.7386127875258306,0A2.7386127875258306,2.7386127875258306,0,1,1,-2.7386127875258306,0A2.7386127875258306,2.7386127875258306,0,1,1,2.7386127875258306,0" style="fill: none; stroke: #4c78a8; stroke-width: 2; opacity: 0.5;"></path><path transform="translate(372.4137931034483,242.71533134280938)" d="M2.7386127875258306,0A2.7386127875258306,2.7386127875258306,0,1,1,-2.7386127875258306,0A2.7386127875258306,2.7386127875258306,0,1,1,2.7386127875258306,0" style="fill: none; stroke: #4c78a8; stroke-width: 2; opacity: 0.5;"></path><path transform="translate(379.3103448275862,343.9740706024048)" d="M2.7386127875258306,0A2.7386127875258306,2.7386127875258306,0,1,1,-2.7386127875258306,0A2.7386127875258306,2.7386127875258306,0,1,1,2.7386127875258306,0" style="fill: none; stroke: #4c78a8; stroke-width: 2; opacity: 0.5;"></path><path transform="translate(386.2068965517241,255.17507343916543)" d="M2.7386127875258306,0A2.7386127875258306,2.7386127875258306,0,1,1,-2.7386127875258306,0A2.7386127875258306,2.7386127875258306,0,1,1,2.7386127875258306,0" style="fill: none; stroke: #4c78a8; stroke-width: 2; opacity: 0.5;"></path><path transform="translate(393.10344827586204,162.00591304570767)" d="M2.7386127875258306,0A2.7386127875258306,2.7386127875258306,0,1,1,-2.7386127875258306,0A2.7386127875258306,2.7386127875258306,0,1,1,2.7386127875258306,0" style="fill: none; stroke: #4c78a8; stroke-width: 2; opacity: 0.5;"></path><path transform="translate(400,153.91633417956996)" d="M2.7386127875258306,0A2.7386127875258306,2.7386127875258306,0,1,1,-2.7386127875258306,0A2.7386127875258306,2.7386127875258306,0,1,1,2.7386127875258306,0" style="fill: none; stroke: #4c78a8; stroke-width: 2; opacity: 0.5;"></path><path transform="translate(406.8965517241379,170.99609544081468)" d="M2.7386127875258306,0A2.7386127875258306,2.7386127875258306,0,1,1,-2.7386127875258306,0A2.7386127875258306,2.7386127875258306,0,1,1,2.7386127875258306,0" style="fill: none; stroke: #4c78a8; stroke-width: 2; opacity: 0.5;"></path><path transform="translate(413.7931034482759,150.1561989808232)" d="M2.7386127875258306,0A2.7386127875258306,2.7386127875258306,0,1,1,-2.7386127875258306,0A2.7386127875258306,2.7386127875258306,0,1,1,2.7386127875258306,0" style="fill: none; stroke: #4c78a8; stroke-width: 2; opacity: 0.5;"></path><path transform="translate(420.68965517241384,269.91182048954795)" d="M2.7386127875258306,0A2.7386127875258306,2.7386127875258306,0,1,1,-2.7386127875258306,0A2.7386127875258306,2.7386127875258306,0,1,1,2.7386127875258306,0" style="fill: none; stroke: #4c78a8; stroke-width: 2; opacity: 0.5;"></path><path transform="translate(434.48275862068965,192.67942561137014)" d="M2.7386127875258306,0A2.7386127875258306,2.7386127875258306,0,1,1,-2.7386127875258306,0A2.7386127875258306,2.7386127875258306,0,1,1,2.7386127875258306,0" style="fill: none; stroke: #4c78a8; stroke-width: 2; opacity: 0.5;"></path><path transform="translate(441.37931034482756,213.88589109195271)" d="M2.7386127875258306,0A2.7386127875258306,2.7386127875258306,0,1,1,-2.7386127875258306,0A2.7386127875258306,2.7386127875258306,0,1,1,2.7386127875258306,0" style="fill: none; stroke: #4c78a8; stroke-width: 2; opacity: 0.5;"></path><path transform="translate(448.2758620689655,222.4020056735212)" d="M2.7386127875258306,0A2.7386127875258306,2.7386127875258306,0,1,1,-2.7386127875258306,0A2.7386127875258306,2.7386127875258306,0,1,1,2.7386127875258306,0" style="fill: none; stroke: #4c78a8; stroke-width: 2; opacity: 0.5;"></path><path transform="translate(455.17241379310343,222.4020056735212)" d="M2.7386127875258306,0A2.7386127875258306,2.7386127875258306,0,1,1,-2.7386127875258306,0A2.7386127875258306,2.7386127875258306,0,1,1,2.7386127875258306,0" style="fill: none; stroke: #4c78a8; stroke-width: 2; opacity: 0.5;"></path><path transform="translate(462.06896551724134,206.18212837841838)" d="M2.7386127875258306,0A2.7386127875258306,2.7386127875258306,0,1,1,-2.7386127875258306,0A2.7386127875258306,2.7386127875258306,0,1,1,2.7386127875258306,0" style="fill: none; stroke: #4c78a8; stroke-width: 2; opacity: 0.5;"></path><path transform="translate(468.96551724137936,343.9740706024048)" d="M2.7386127875258306,0A2.7386127875258306,2.7386127875258306,0,1,1,-2.7386127875258306,0A2.7386127875258306,2.7386127875258306,0,1,1,2.7386127875258306,0" style="fill: none; stroke: #4c78a8; stroke-width: 2; opacity: 0.5;"></path><path transform="translate(475.86206896551727,343.9740706024048)" d="M2.7386127875258306,0A2.7386127875258306,2.7386127875258306,0,1,1,-2.7386127875258306,0A2.7386127875258306,2.7386127875258306,0,1,1,2.7386127875258306,0" style="fill: none; stroke: #4c78a8; stroke-width: 2; opacity: 0.5;"></path><path transform="translate(482.7586206896552,242.71533134280938)" d="M2.7386127875258306,0A2.7386127875258306,2.7386127875258306,0,1,1,-2.7386127875258306,0A2.7386127875258306,2.7386127875258306,0,1,1,2.7386127875258306,0" style="fill: none; stroke: #4c78a8; stroke-width: 2; opacity: 0.5;"></path><path transform="translate(489.6551724137931,242.71533134280938)" d="M2.7386127875258306,0A2.7386127875258306,2.7386127875258306,0,1,1,-2.7386127875258306,0A2.7386127875258306,2.7386127875258306,0,1,1,2.7386127875258306,0" style="fill: none; stroke: #4c78a8; stroke-width: 2; opacity: 0.5;"></path><path transform="translate(496.55172413793105,231.9222118072145)" d="M2.7386127875258306,0A2.7386127875258306,2.7386127875258306,0,1,1,-2.7386127875258306,0A2.7386127875258306,2.7386127875258306,0,1,1,2.7386127875258306,0" style="fill: none; stroke: #4c78a8; stroke-width: 2; opacity: 0.5;"></path><path transform="translate(503.44827586206895,311.2010028367606)" d="M2.7386127875258306,0A2.7386127875258306,2.7386127875258306,0,1,1,-2.7386127875258306,0A2.7386127875258306,2.7386127875258306,0,1,1,2.7386127875258306,0" style="fill: none; stroke: #4c78a8; stroke-width: 2; opacity: 0.5;"></path><path transform="translate(510.34482758620686,255.17507343916543)" d="M2.7386127875258306,0A2.7386127875258306,2.7386127875258306,0,1,1,-2.7386127875258306,0A2.7386127875258306,2.7386127875258306,0,1,1,2.7386127875258306,0" style="fill: none; stroke: #4c78a8; stroke-width: 2; opacity: 0.5;"></path><path transform="translate(517.2413793103448,287.94814120480964)" d="M2.7386127875258306,0A2.7386127875258306,2.7386127875258306,0,1,1,-2.7386127875258306,0A2.7386127875258306,2.7386127875258306,0,1,1,2.7386127875258306,0" style="fill: none; stroke: #4c78a8; stroke-width: 2; opacity: 0.5;"></path><path transform="translate(524.1379310344828,311.2010028367606)" d="M2.7386127875258306,0A2.7386127875258306,2.7386127875258306,0,1,1,-2.7386127875258306,0A2.7386127875258306,2.7386127875258306,0,1,1,2.7386127875258306,0" style="fill: none; stroke: #4c78a8; stroke-width: 2; opacity: 0.5;"></path><path transform="translate(531.0344827586207,287.94814120480964)" d="M2.7386127875258306,0A2.7386127875258306,2.7386127875258306,0,1,1,-2.7386127875258306,0A2.7386127875258306,2.7386127875258306,0,1,1,2.7386127875258306,0" style="fill: none; stroke: #4c78a8; stroke-width: 2; opacity: 0.5;"></path><path transform="translate(537.9310344827586,269.91182048954795)" d="M2.7386127875258306,0A2.7386127875258306,2.7386127875258306,0,1,1,-2.7386127875258306,0A2.7386127875258306,2.7386127875258306,0,1,1,2.7386127875258306,0" style="fill: none; stroke: #4c78a8; stroke-width: 2; opacity: 0.5;"></path><path transform="translate(544.8275862068965,255.17507343916543)" d="M2.7386127875258306,0A2.7386127875258306,2.7386127875258306,0,1,1,-2.7386127875258306,0A2.7386127875258306,2.7386127875258306,0,1,1,2.7386127875258306,0" style="fill: none; stroke: #4c78a8; stroke-width: 2; opacity: 0.5;"></path><path transform="translate(551.7241379310344,192.67942561137014)" d="M2.7386127875258306,0A2.7386127875258306,2.7386127875258306,0,1,1,-2.7386127875258306,0A2.7386127875258306,2.7386127875258306,0,1,1,2.7386127875258306,0" style="fill: none; stroke: #4c78a8; stroke-width: 2; opacity: 0.5;"></path><path transform="translate(558.6206896551724,231.9222118072145)" d="M2.7386127875258306,0A2.7386127875258306,2.7386127875258306,0,1,1,-2.7386127875258306,0A2.7386127875258306,2.7386127875258306,0,1,1,2.7386127875258306,0" style="fill: none; stroke: #4c78a8; stroke-width: 2; opacity: 0.5;"></path><path transform="translate(565.5172413793103,343.9740706024048)" d="M2.7386127875258306,0A2.7386127875258306,2.7386127875258306,0,1,1,-2.7386127875258306,0A2.7386127875258306,2.7386127875258306,0,1,1,2.7386127875258306,0" style="fill: none; stroke: #4c78a8; stroke-width: 2; opacity: 0.5;"></path><path transform="translate(579.3103448275863,213.88589109195271)" d="M2.7386127875258306,0A2.7386127875258306,2.7386127875258306,0,1,1,-2.7386127875258306,0A2.7386127875258306,2.7386127875258306,0,1,1,2.7386127875258306,0" style="fill: none; stroke: #4c78a8; stroke-width: 2; opacity: 0.5;"></path><path transform="translate(586.2068965517242,255.17507343916543)" d="M2.7386127875258306,0A2.7386127875258306,2.7386127875258306,0,1,1,-2.7386127875258306,0A2.7386127875258306,2.7386127875258306,0,1,1,2.7386127875258306,0" style="fill: none; stroke: #4c78a8; stroke-width: 2; opacity: 0.5;"></path><path transform="translate(593.1034482758621,343.9740706024048)" d="M2.7386127875258306,0A2.7386127875258306,2.7386127875258306,0,1,1,-2.7386127875258306,0A2.7386127875258306,2.7386127875258306,0,1,1,2.7386127875258306,0" style="fill: none; stroke: #4c78a8; stroke-width: 2; opacity: 0.5;"></path><path transform="translate(117.24137931034484,157.85996169435762)" d="M2.7386127875258306,0A2.7386127875258306,2.7386127875258306,0,1,1,-2.7386127875258306,0A2.7386127875258306,2.7386127875258306,0,1,1,2.7386127875258306,0" style="fill: none; stroke: #f58518; stroke-width: 2; opacity: 0.5;"></path><path transform="translate(124.13793103448276,125.0868939287134)" d="M2.7386127875258306,0A2.7386127875258306,2.7386127875258306,0,1,1,-2.7386127875258306,0A2.7386127875258306,2.7386127875258306,0,1,1,2.7386127875258306,0" style="fill: none; stroke: #f58518; stroke-width: 2; opacity: 0.5;"></path><path transform="translate(144.82758620689657,287.94814120480964)" d="M2.7386127875258306,0A2.7386127875258306,2.7386127875258306,0,1,1,-2.7386127875258306,0A2.7386127875258306,2.7386127875258306,0,1,1,2.7386127875258306,0" style="fill: none; stroke: #f58518; stroke-width: 2; opacity: 0.5;"></path><path transform="translate(151.7241379310345,206.18212837841838)" d="M2.7386127875258306,0A2.7386127875258306,2.7386127875258306,0,1,1,-2.7386127875258306,0A2.7386127875258306,2.7386127875258306,0,1,1,2.7386127875258306,0" style="fill: none; stroke: #f58518; stroke-width: 2; opacity: 0.5;"></path><path transform="translate(158.6206896551724,222.4020056735212)" d="M2.7386127875258306,0A2.7386127875258306,2.7386127875258306,0,1,1,-2.7386127875258306,0A2.7386127875258306,2.7386127875258306,0,1,1,2.7386127875258306,0" style="fill: none; stroke: #f58518; stroke-width: 2; opacity: 0.5;"></path><path transform="translate(165.51724137931035,213.88589109195271)" d="M2.7386127875258306,0A2.7386127875258306,2.7386127875258306,0,1,1,-2.7386127875258306,0A2.7386127875258306,2.7386127875258306,0,1,1,2.7386127875258306,0" style="fill: none; stroke: #f58518; stroke-width: 2; opacity: 0.5;"></path><path transform="translate(172.41379310344826,199.14914404157025)" d="M2.7386127875258306,0A2.7386127875258306,2.7386127875258306,0,1,1,-2.7386127875258306,0A2.7386127875258306,2.7386127875258306,0,1,1,2.7386127875258306,0" style="fill: none; stroke: #f58518; stroke-width: 2; opacity: 0.5;"></path><path transform="translate(179.31034482758622,311.2010028367606)" d="M2.7386127875258306,0A2.7386127875258306,2.7386127875258306,0,1,1,-2.7386127875258306,0A2.7386127875258306,2.7386127875258306,0,1,1,2.7386127875258306,0" style="fill: none; stroke: #f58518; stroke-width: 2; opacity: 0.5;"></path><path transform="translate(186.20689655172416,343.9740706024048)" d="M2.7386127875258306,0A2.7386127875258306,2.7386127875258306,0,1,1,-2.7386127875258306,0A2.7386127875258306,2.7386127875258306,0,1,1,2.7386127875258306,0" style="fill: none; stroke: #f58518; stroke-width: 2; opacity: 0.5;"></path><path transform="translate(193.10344827586206,175.8962824096193)" d="M2.7386127875258306,0A2.7386127875258306,2.7386127875258306,0,1,1,-2.7386127875258306,0A2.7386127875258306,2.7386127875258306,0,1,1,2.7386127875258306,0" style="fill: none; stroke: #f58518; stroke-width: 2; opacity: 0.5;"></path><path transform="translate(200,136.65349621377496)" d="M2.7386127875258306,0A2.7386127875258306,2.7386127875258306,0,1,1,-2.7386127875258306,0A2.7386127875258306,2.7386127875258306,0,1,1,2.7386127875258306,0" style="fill: none; stroke: #f58518; stroke-width: 2; opacity: 0.5;"></path><path transform="translate(206.89655172413794,114.9701660432195)" d="M2.7386127875258306,0A2.7386127875258306,2.7386127875258306,0,1,1,-2.7386127875258306,0A2.7386127875258306,2.7386127875258306,0,1,1,2.7386127875258306,0" style="fill: none; stroke: #f58518; stroke-width: 2; opacity: 0.5;"></path><path transform="translate(213.79310344827587,166.37607627592607)" d="M2.7386127875258306,0A2.7386127875258306,2.7386127875258306,0,1,1,-2.7386127875258306,0A2.7386127875258306,2.7386127875258306,0,1,1,2.7386127875258306,0" style="fill: none; stroke: #f58518; stroke-width: 2; opacity: 0.5;"></path><path transform="translate(220.68965517241378,242.71533134280938)" d="M2.7386127875258306,0A2.7386127875258306,2.7386127875258306,0,1,1,-2.7386127875258306,0A2.7386127875258306,2.7386127875258306,0,1,1,2.7386127875258306,0" style="fill: none; stroke: #f58518; stroke-width: 2; opacity: 0.5;"></path><path transform="translate(227.58620689655172,255.17507343916543)" d="M2.7386127875258306,0A2.7386127875258306,2.7386127875258306,0,1,1,-2.7386127875258306,0A2.7386127875258306,2.7386127875258306,0,1,1,2.7386127875258306,0" style="fill: none; stroke: #f58518; stroke-width: 2; opacity: 0.5;"></path><path transform="translate(234.48275862068968,287.94814120480964)" d="M2.7386127875258306,0A2.7386127875258306,2.7386127875258306,0,1,1,-2.7386127875258306,0A2.7386127875258306,2.7386127875258306,0,1,1,2.7386127875258306,0" style="fill: none; stroke: #f58518; stroke-width: 2; opacity: 0.5;"></path><path transform="translate(241.3793103448276,125.0868939287134)" d="M2.7386127875258306,0A2.7386127875258306,2.7386127875258306,0,1,1,-2.7386127875258306,0A2.7386127875258306,2.7386127875258306,0,1,1,2.7386127875258306,0" style="fill: none; stroke: #f58518; stroke-width: 2; opacity: 0.5;"></path><path transform="translate(248.27586206896552,76.0939488679663)" d="M2.7386127875258306,0A2.7386127875258306,2.7386127875258306,0,1,1,-2.7386127875258306,0A2.7386127875258306,2.7386127875258306,0,1,1,2.7386127875258306,0" style="fill: none; stroke: #f58518; stroke-width: 2; opacity: 0.5;"></path><path transform="translate(255.17241379310343,83.79771158150074)" d="M2.7386127875258306,0A2.7386127875258306,2.7386127875258306,0,1,1,-2.7386127875258306,0A2.7386127875258306,2.7386127875258306,0,1,1,2.7386127875258306,0" style="fill: none; stroke: #f58518; stroke-width: 2; opacity: 0.5;"></path><path transform="translate(262.0689655172414,85.43066268561871)" d="M2.7386127875258306,0A2.7386127875258306,2.7386127875258306,0,1,1,-2.7386127875258306,0A2.7386127875258306,2.7386127875258306,0,1,1,2.7386127875258306,0" style="fill: none; stroke: #f58518; stroke-width: 2; opacity: 0.5;"></path><path transform="translate(268.9655172413793,85.43066268561871)" d="M2.7386127875258306,0A2.7386127875258306,2.7386127875258306,0,1,1,-2.7386127875258306,0A2.7386127875258306,2.7386127875258306,0,1,1,2.7386127875258306,0" style="fill: none; stroke: #f58518; stroke-width: 2; opacity: 0.5;"></path><path transform="translate(275.8620689655172,166.37607627592607)" d="M2.7386127875258306,0A2.7386127875258306,2.7386127875258306,0,1,1,-2.7386127875258306,0A2.7386127875258306,2.7386127875258306,0,1,1,2.7386127875258306,0" style="fill: none; stroke: #f58518; stroke-width: 2; opacity: 0.5;"></path><path transform="translate(282.7586206896552,311.2010028367606)" d="M2.7386127875258306,0A2.7386127875258306,2.7386127875258306,0,1,1,-2.7386127875258306,0A2.7386127875258306,2.7386127875258306,0,1,1,2.7386127875258306,0" style="fill: none; stroke: #f58518; stroke-width: 2; opacity: 0.5;"></path><path transform="translate(289.65517241379314,57.76424006106282)" d="M2.7386127875258306,0A2.7386127875258306,2.7386127875258306,0,1,1,-2.7386127875258306,0A2.7386127875258306,2.7386127875258306,0,1,1,2.7386127875258306,0" style="fill: none; stroke: #f58518; stroke-width: 2; opacity: 0.5;"></path><path transform="translate(296.55172413793105,51.02464381585654)" d="M2.7386127875258306,0A2.7386127875258306,2.7386127875258306,0,1,1,-2.7386127875258306,0A2.7386127875258306,2.7386127875258306,0,1,1,2.7386127875258306,0" style="fill: none; stroke: #f58518; stroke-width: 2; opacity: 0.5;"></path><path transform="translate(303.448275862069,39.028102588884074)" d="M2.7386127875258306,0A2.7386127875258306,2.7386127875258306,0,1,1,-2.7386127875258306,0A2.7386127875258306,2.7386127875258306,0,1,1,2.7386127875258306,0" style="fill: none; stroke: #f58518; stroke-width: 2; opacity: 0.5;"></path><path transform="translate(310.3448275862069,45.80810289916726)" d="M2.7386127875258306,0A2.7386127875258306,2.7386127875258306,0,1,1,-2.7386127875258306,0A2.7386127875258306,2.7386127875258306,0,1,1,2.7386127875258306,0" style="fill: none; stroke: #f58518; stroke-width: 2; opacity: 0.5;"></path><path transform="translate(317.2413793103448,34.51137842911187)" d="M2.7386127875258306,0A2.7386127875258306,2.7386127875258306,0,1,1,-2.7386127875258306,0A2.7386127875258306,2.7386127875258306,0,1,1,2.7386127875258306,0" style="fill: none; stroke: #f58518; stroke-width: 2; opacity: 0.5;"></path><path transform="translate(324.1379310344828,150.1561989808232)" d="M2.7386127875258306,0A2.7386127875258306,2.7386127875258306,0,1,1,-2.7386127875258306,0A2.7386127875258306,2.7386127875258306,0,1,1,2.7386127875258306,0" style="fill: none; stroke: #f58518; stroke-width: 2; opacity: 0.5;"></path><path transform="translate(331.0344827586207,242.71533134280938)" d="M2.7386127875258306,0A2.7386127875258306,2.7386127875258306,0,1,1,-2.7386127875258306,0A2.7386127875258306,2.7386127875258306,0,1,1,2.7386127875258306,0" style="fill: none; stroke: #f58518; stroke-width: 2; opacity: 0.5;"></path><path transform="translate(337.9310344827586,39.96254456280597)" d="M2.7386127875258306,0A2.7386127875258306,2.7386127875258306,0,1,1,-2.7386127875258306,0A2.7386127875258306,2.7386127875258306,0,1,1,2.7386127875258306,0" style="fill: none; stroke: #f58518; stroke-width: 2; opacity: 0.5;"></path><path transform="translate(344.8275862068965,41.86447538437963)" d="M2.7386127875258306,0A2.7386127875258306,2.7386127875258306,0,1,1,-2.7386127875258306,0A2.7386127875258306,2.7386127875258306,0,1,1,2.7386127875258306,0" style="fill: none; stroke: #f58518; stroke-width: 2; opacity: 0.5;"></path><path transform="translate(351.7241379310345,57.76424006106282)" d="M2.7386127875258306,0A2.7386127875258306,2.7386127875258306,0,1,1,-2.7386127875258306,0A2.7386127875258306,2.7386127875258306,0,1,1,2.7386127875258306,0" style="fill: none; stroke: #f58518; stroke-width: 2; opacity: 0.5;"></path><path transform="translate(358.62068965517244,35.39475695417953)" d="M2.7386127875258306,0A2.7386127875258306,2.7386127875258306,0,1,1,-2.7386127875258306,0A2.7386127875258306,2.7386127875258306,0,1,1,2.7386127875258306,0" style="fill: none; stroke: #f58518; stroke-width: 2; opacity: 0.5;"></path><path transform="translate(365.51724137931035,10.384688497248007)" d="M2.7386127875258306,0A2.7386127875258306,2.7386127875258306,0,1,1,-2.7386127875258306,0A2.7386127875258306,2.7386127875258306,0,1,1,2.7386127875258306,0" style="fill: none; stroke: #f58518; stroke-width: 2; opacity: 0.5;"></path><path transform="translate(372.4137931034483,136.65349621377496)" d="M2.7386127875258306,0A2.7386127875258306,2.7386127875258306,0,1,1,-2.7386127875258306,0A2.7386127875258306,2.7386127875258306,0,1,1,2.7386127875258306,0" style="fill: none; stroke: #f58518; stroke-width: 2; opacity: 0.5;"></path><path transform="translate(379.3103448275862,231.9222118072145)" d="M2.7386127875258306,0A2.7386127875258306,2.7386127875258306,0,1,1,-2.7386127875258306,0A2.7386127875258306,2.7386127875258306,0,1,1,2.7386127875258306,0" style="fill: none; stroke: #f58518; stroke-width: 2; opacity: 0.5;"></path><path transform="translate(386.2068965517241,15.775240956933123)" d="M2.7386127875258306,0A2.7386127875258306,2.7386127875258306,0,1,1,-2.7386127875258306,0A2.7386127875258306,2.7386127875258306,0,1,1,2.7386127875258306,0" style="fill: none; stroke: #f58518; stroke-width: 2; opacity: 0.5;"></path><path transform="translate(393.10344827586204,4.721244388516999)" d="M2.7386127875258306,0A2.7386127875258306,2.7386127875258306,0,1,1,-2.7386127875258306,0A2.7386127875258306,2.7386127875258306,0,1,1,2.7386127875258306,0" style="fill: none; stroke: #f58518; stroke-width: 2; opacity: 0.5;"></path><path transform="translate(400,22.303046583670614)" d="M2.7386127875258306,0A2.7386127875258306,2.7386127875258306,0,1,1,-2.7386127875258306,0A2.7386127875258306,2.7386127875258306,0,1,1,2.7386127875258306,0" style="fill: none; stroke: #f58518; stroke-width: 2; opacity: 0.5;"></path><path transform="translate(406.8965517241379,23.06200362000577)" d="M2.7386127875258306,0A2.7386127875258306,2.7386127875258306,0,1,1,-2.7386127875258306,0A2.7386127875258306,2.7386127875258306,0,1,1,2.7386127875258306,0" style="fill: none; stroke: #f58518; stroke-width: 2; opacity: 0.5;"></path><path transform="translate(413.7931034482759,0)" d="M2.7386127875258306,0A2.7386127875258306,2.7386127875258306,0,1,1,-2.7386127875258306,0A2.7386127875258306,2.7386127875258306,0,1,1,2.7386127875258306,0" style="fill: none; stroke: #f58518; stroke-width: 2; opacity: 0.5;"></path><path transform="translate(420.68965517241384,157.85996169435762)" d="M2.7386127875258306,0A2.7386127875258306,2.7386127875258306,0,1,1,-2.7386127875258306,0A2.7386127875258306,2.7386127875258306,0,1,1,2.7386127875258306,0" style="fill: none; stroke: #f58518; stroke-width: 2; opacity: 0.5;"></path><path transform="translate(427.58620689655174,242.71533134280938)" d="M2.7386127875258306,0A2.7386127875258306,2.7386127875258306,0,1,1,-2.7386127875258306,0A2.7386127875258306,2.7386127875258306,0,1,1,2.7386127875258306,0" style="fill: none; stroke: #f58518; stroke-width: 2; opacity: 0.5;"></path><path transform="translate(434.48275862068965,24.60163741858463)" d="M2.7386127875258306,0A2.7386127875258306,2.7386127875258306,0,1,1,-2.7386127875258306,0A2.7386127875258306,2.7386127875258306,0,1,1,2.7386127875258306,0" style="fill: none; stroke: #f58518; stroke-width: 2; opacity: 0.5;"></path><path transform="translate(441.37931034482756,25.382593547050057)" d="M2.7386127875258306,0A2.7386127875258306,2.7386127875258306,0,1,1,-2.7386127875258306,0A2.7386127875258306,2.7386127875258306,0,1,1,2.7386127875258306,0" style="fill: none; stroke: #f58518; stroke-width: 2; opacity: 0.5;"></path><path transform="translate(448.2758620689655,43.812240247727544)" d="M2.7386127875258306,0A2.7386127875258306,2.7386127875258306,0,1,1,-2.7386127875258306,0A2.7386127875258306,2.7386127875258306,0,1,1,2.7386127875258306,0" style="fill: none; stroke: #f58518; stroke-width: 2; opacity: 0.5;"></path><path transform="translate(455.17241379310343,17.893134972762724)" d="M2.7386127875258306,0A2.7386127875258306,2.7386127875258306,0,1,1,-2.7386127875258306,0A2.7386127875258306,2.7386127875258306,0,1,1,2.7386127875258306,0" style="fill: none; stroke: #f58518; stroke-width: 2; opacity: 0.5;"></path><path transform="translate(462.06896551724134,2.3261556581880782)" d="M2.7386127875258306,0A2.7386127875258306,2.7386127875258306,0,1,1,-2.7386127875258306,0A2.7386127875258306,2.7386127875258306,0,1,1,2.7386127875258306,0" style="fill: none; stroke: #f58518; stroke-width: 2; opacity: 0.5;"></path><path transform="translate(468.96551724137936,122.43654729243838)" d="M2.7386127875258306,0A2.7386127875258306,2.7386127875258306,0,1,1,-2.7386127875258306,0A2.7386127875258306,2.7386127875258306,0,1,1,2.7386127875258306,0" style="fill: none; stroke: #f58518; stroke-width: 2; opacity: 0.5;"></path><path transform="translate(475.86206896551727,242.71533134280938)" d="M2.7386127875258306,0A2.7386127875258306,2.7386127875258306,0,1,1,-2.7386127875258306,0A2.7386127875258306,2.7386127875258306,0,1,1,2.7386127875258306,0" style="fill: none; stroke: #f58518; stroke-width: 2; opacity: 0.5;"></path><path transform="translate(482.7586206896552,39.96254456280597)" d="M2.7386127875258306,0A2.7386127875258306,2.7386127875258306,0,1,1,-2.7386127875258306,0A2.7386127875258306,2.7386127875258306,0,1,1,2.7386127875258306,0" style="fill: none; stroke: #f58518; stroke-width: 2; opacity: 0.5;"></path><path transform="translate(489.6551724137931,39.028102588884074)" d="M2.7386127875258306,0A2.7386127875258306,2.7386127875258306,0,1,1,-2.7386127875258306,0A2.7386127875258306,2.7386127875258306,0,1,1,2.7386127875258306,0" style="fill: none; stroke: #f58518; stroke-width: 2; opacity: 0.5;"></path><path transform="translate(496.55172413793105,43.812240247727544)" d="M2.7386127875258306,0A2.7386127875258306,2.7386127875258306,0,1,1,-2.7386127875258306,0A2.7386127875258306,2.7386127875258306,0,1,1,2.7386127875258306,0" style="fill: none; stroke: #f58518; stroke-width: 2; opacity: 0.5;"></path><path transform="translate(503.44827586206895,57.76424006106282)" d="M2.7386127875258306,0A2.7386127875258306,2.7386127875258306,0,1,1,-2.7386127875258306,0A2.7386127875258306,2.7386127875258306,0,1,1,2.7386127875258306,0" style="fill: none; stroke: #f58518; stroke-width: 2; opacity: 0.5;"></path><path transform="translate(510.34482758620686,22.303046583670614)" d="M2.7386127875258306,0A2.7386127875258306,2.7386127875258306,0,1,1,-2.7386127875258306,0A2.7386127875258306,2.7386127875258306,0,1,1,2.7386127875258306,0" style="fill: none; stroke: #f58518; stroke-width: 2; opacity: 0.5;"></path><path transform="translate(517.2413793103448,119.87035301202411)" d="M2.7386127875258306,0A2.7386127875258306,2.7386127875258306,0,1,1,-2.7386127875258306,0A2.7386127875258306,2.7386127875258306,0,1,1,2.7386127875258306,0" style="fill: none; stroke: #f58518; stroke-width: 2; opacity: 0.5;"></path><path transform="translate(524.1379310344828,222.4020056735212)" d="M2.7386127875258306,0A2.7386127875258306,2.7386127875258306,0,1,1,-2.7386127875258306,0A2.7386127875258306,2.7386127875258306,0,1,1,2.7386127875258306,0" style="fill: none; stroke: #f58518; stroke-width: 2; opacity: 0.5;"></path><path transform="translate(531.0344827586207,92.31382616306915)" d="M2.7386127875258306,0A2.7386127875258306,2.7386127875258306,0,1,1,-2.7386127875258306,0A2.7386127875258306,2.7386127875258306,0,1,1,2.7386127875258306,0" style="fill: none; stroke: #f58518; stroke-width: 2; opacity: 0.5;"></path><path transform="translate(537.9310344827586,26.171168879980165)" d="M2.7386127875258306,0A2.7386127875258306,2.7386127875258306,0,1,1,-2.7386127875258306,0A2.7386127875258306,2.7386127875258306,0,1,1,2.7386127875258306,0" style="fill: none; stroke: #f58518; stroke-width: 2; opacity: 0.5;"></path><path transform="translate(544.8275862068965,39.028102588884074)" d="M2.7386127875258306,0A2.7386127875258306,2.7386127875258306,0,1,1,-2.7386127875258306,0A2.7386127875258306,2.7386127875258306,0,1,1,2.7386127875258306,0" style="fill: none; stroke: #f58518; stroke-width: 2; opacity: 0.5;"></path><path transform="translate(551.7241379310344,35.39475695417953)" d="M2.7386127875258306,0A2.7386127875258306,2.7386127875258306,0,1,1,-2.7386127875258306,0A2.7386127875258306,2.7386127875258306,0,1,1,2.7386127875258306,0" style="fill: none; stroke: #f58518; stroke-width: 2; opacity: 0.5;"></path><path transform="translate(558.6206896551724,42.832490912471854)" d="M2.7386127875258306,0A2.7386127875258306,2.7386127875258306,0,1,1,-2.7386127875258306,0A2.7386127875258306,2.7386127875258306,0,1,1,2.7386127875258306,0" style="fill: none; stroke: #f58518; stroke-width: 2; opacity: 0.5;"></path><path transform="translate(565.5172413793103,186.68940194521414)" d="M2.7386127875258306,0A2.7386127875258306,2.7386127875258306,0,1,1,-2.7386127875258306,0A2.7386127875258306,2.7386127875258306,0,1,1,2.7386127875258306,0" style="fill: none; stroke: #f58518; stroke-width: 2; opacity: 0.5;"></path><path transform="translate(572.4137931034483,269.91182048954795)" d="M2.7386127875258306,0A2.7386127875258306,2.7386127875258306,0,1,1,-2.7386127875258306,0A2.7386127875258306,2.7386127875258306,0,1,1,2.7386127875258306,0" style="fill: none; stroke: #f58518; stroke-width: 2; opacity: 0.5;"></path><path transform="translate(579.3103448275863,46.82482486470994)" d="M2.7386127875258306,0A2.7386127875258306,2.7386127875258306,0,1,1,-2.7386127875258306,0A2.7386127875258306,2.7386127875258306,0,1,1,2.7386127875258306,0" style="fill: none; stroke: #f58518; stroke-width: 2; opacity: 0.5;"></path><path transform="translate(586.2068965517242,101.83403229676244)" d="M2.7386127875258306,0A2.7386127875258306,2.7386127875258306,0,1,1,-2.7386127875258306,0A2.7386127875258306,2.7386127875258306,0,1,1,2.7386127875258306,0" style="fill: none; stroke: #f58518; stroke-width: 2; opacity: 0.5;"></path><path transform="translate(593.1034482758621,199.14914404157025)" d="M2.7386127875258306,0A2.7386127875258306,2.7386127875258306,0,1,1,-2.7386127875258306,0A2.7386127875258306,2.7386127875258306,0,1,1,2.7386127875258306,0" style="fill: none; stroke: #f58518; stroke-width: 2; opacity: 0.5;"></path><path transform="translate(55.172413793103445,343.9740706024048)" d="M2.7386127875258306,0A2.7386127875258306,2.7386127875258306,0,1,1,-2.7386127875258306,0A2.7386127875258306,2.7386127875258306,0,1,1,2.7386127875258306,0" style="fill: none; stroke: #e45756; stroke-width: 2; opacity: 0.5;"></path><path transform="translate(62.06896551724138,400)" d="M2.7386127875258306,0A2.7386127875258306,2.7386127875258306,0,1,1,-2.7386127875258306,0A2.7386127875258306,2.7386127875258306,0,1,1,2.7386127875258306,0" style="fill: none; stroke: #e45756; stroke-width: 2; opacity: 0.5;"></path><path transform="translate(68.9655172413793,400)" d="M2.7386127875258306,0A2.7386127875258306,2.7386127875258306,0,1,1,-2.7386127875258306,0A2.7386127875258306,2.7386127875258306,0,1,1,2.7386127875258306,0" style="fill: none; stroke: #e45756; stroke-width: 2; opacity: 0.5;"></path><path transform="translate(75.86206896551725,400)" d="M2.7386127875258306,0A2.7386127875258306,2.7386127875258306,0,1,1,-2.7386127875258306,0A2.7386127875258306,2.7386127875258306,0,1,1,2.7386127875258306,0" style="fill: none; stroke: #e45756; stroke-width: 2; opacity: 0.5;"></path><path transform="translate(82.75862068965517,311.2010028367606)" d="M2.7386127875258306,0A2.7386127875258306,2.7386127875258306,0,1,1,-2.7386127875258306,0A2.7386127875258306,2.7386127875258306,0,1,1,2.7386127875258306,0" style="fill: none; stroke: #e45756; stroke-width: 2; opacity: 0.5;"></path><path transform="translate(89.65517241379311,343.9740706024048)" d="M2.7386127875258306,0A2.7386127875258306,2.7386127875258306,0,1,1,-2.7386127875258306,0A2.7386127875258306,2.7386127875258306,0,1,1,2.7386127875258306,0" style="fill: none; stroke: #e45756; stroke-width: 2; opacity: 0.5;"></path><path transform="translate(96.55172413793103,311.2010028367606)" d="M2.7386127875258306,0A2.7386127875258306,2.7386127875258306,0,1,1,-2.7386127875258306,0A2.7386127875258306,2.7386127875258306,0,1,1,2.7386127875258306,0" style="fill: none; stroke: #e45756; stroke-width: 2; opacity: 0.5;"></path><path transform="translate(103.44827586206897,343.9740706024048)" d="M2.7386127875258306,0A2.7386127875258306,2.7386127875258306,0,1,1,-2.7386127875258306,0A2.7386127875258306,2.7386127875258306,0,1,1,2.7386127875258306,0" style="fill: none; stroke: #e45756; stroke-width: 2; opacity: 0.5;"></path><path transform="translate(110.34482758620689,400)" d="M2.7386127875258306,0A2.7386127875258306,2.7386127875258306,0,1,1,-2.7386127875258306,0A2.7386127875258306,2.7386127875258306,0,1,1,2.7386127875258306,0" style="fill: none; stroke: #e45756; stroke-width: 2; opacity: 0.5;"></path><path transform="translate(117.24137931034484,287.94814120480964)" d="M2.7386127875258306,0A2.7386127875258306,2.7386127875258306,0,1,1,-2.7386127875258306,0A2.7386127875258306,2.7386127875258306,0,1,1,2.7386127875258306,0" style="fill: none; stroke: #e45756; stroke-width: 2; opacity: 0.5;"></path><path transform="translate(124.13793103448276,311.2010028367606)" d="M2.7386127875258306,0A2.7386127875258306,2.7386127875258306,0,1,1,-2.7386127875258306,0A2.7386127875258306,2.7386127875258306,0,1,1,2.7386127875258306,0" style="fill: none; stroke: #e45756; stroke-width: 2; opacity: 0.5;"></path><path transform="translate(131.0344827586207,287.94814120480964)" d="M2.7386127875258306,0A2.7386127875258306,2.7386127875258306,0,1,1,-2.7386127875258306,0A2.7386127875258306,2.7386127875258306,0,1,1,2.7386127875258306,0" style="fill: none; stroke: #e45756; stroke-width: 2; opacity: 0.5;"></path><path transform="translate(137.9310344827586,287.94814120480964)" d="M2.7386127875258306,0A2.7386127875258306,2.7386127875258306,0,1,1,-2.7386127875258306,0A2.7386127875258306,2.7386127875258306,0,1,1,2.7386127875258306,0" style="fill: none; stroke: #e45756; stroke-width: 2; opacity: 0.5;"></path><path transform="translate(144.82758620689657,287.94814120480964)" d="M2.7386127875258306,0A2.7386127875258306,2.7386127875258306,0,1,1,-2.7386127875258306,0A2.7386127875258306,2.7386127875258306,0,1,1,2.7386127875258306,0" style="fill: none; stroke: #e45756; stroke-width: 2; opacity: 0.5;"></path><path transform="translate(151.7241379310345,343.9740706024048)" d="M2.7386127875258306,0A2.7386127875258306,2.7386127875258306,0,1,1,-2.7386127875258306,0A2.7386127875258306,2.7386127875258306,0,1,1,2.7386127875258306,0" style="fill: none; stroke: #e45756; stroke-width: 2; opacity: 0.5;"></path><path transform="translate(158.6206896551724,311.2010028367606)" d="M2.7386127875258306,0A2.7386127875258306,2.7386127875258306,0,1,1,-2.7386127875258306,0A2.7386127875258306,2.7386127875258306,0,1,1,2.7386127875258306,0" style="fill: none; stroke: #e45756; stroke-width: 2; opacity: 0.5;"></path><path transform="translate(165.51724137931035,400)" d="M2.7386127875258306,0A2.7386127875258306,2.7386127875258306,0,1,1,-2.7386127875258306,0A2.7386127875258306,2.7386127875258306,0,1,1,2.7386127875258306,0" style="fill: none; stroke: #e45756; stroke-width: 2; opacity: 0.5;"></path><path transform="translate(172.41379310344826,255.17507343916543)" d="M2.7386127875258306,0A2.7386127875258306,2.7386127875258306,0,1,1,-2.7386127875258306,0A2.7386127875258306,2.7386127875258306,0,1,1,2.7386127875258306,0" style="fill: none; stroke: #e45756; stroke-width: 2; opacity: 0.5;"></path><path transform="translate(179.31034482758622,269.91182048954795)" d="M2.7386127875258306,0A2.7386127875258306,2.7386127875258306,0,1,1,-2.7386127875258306,0A2.7386127875258306,2.7386127875258306,0,1,1,2.7386127875258306,0" style="fill: none; stroke: #e45756; stroke-width: 2; opacity: 0.5;"></path><path transform="translate(186.20689655172416,311.2010028367606)" d="M2.7386127875258306,0A2.7386127875258306,2.7386127875258306,0,1,1,-2.7386127875258306,0A2.7386127875258306,2.7386127875258306,0,1,1,2.7386127875258306,0" style="fill: none; stroke: #e45756; stroke-width: 2; opacity: 0.5;"></path><path transform="translate(193.10344827586206,287.94814120480964)" d="M2.7386127875258306,0A2.7386127875258306,2.7386127875258306,0,1,1,-2.7386127875258306,0A2.7386127875258306,2.7386127875258306,0,1,1,2.7386127875258306,0" style="fill: none; stroke: #e45756; stroke-width: 2; opacity: 0.5;"></path><path transform="translate(200,287.94814120480964)" d="M2.7386127875258306,0A2.7386127875258306,2.7386127875258306,0,1,1,-2.7386127875258306,0A2.7386127875258306,2.7386127875258306,0,1,1,2.7386127875258306,0" style="fill: none; stroke: #e45756; stroke-width: 2; opacity: 0.5;"></path><path transform="translate(206.89655172413794,287.94814120480964)" d="M2.7386127875258306,0A2.7386127875258306,2.7386127875258306,0,1,1,-2.7386127875258306,0A2.7386127875258306,2.7386127875258306,0,1,1,2.7386127875258306,0" style="fill: none; stroke: #e45756; stroke-width: 2; opacity: 0.5;"></path><path transform="translate(213.79310344827587,269.91182048954795)" d="M2.7386127875258306,0A2.7386127875258306,2.7386127875258306,0,1,1,-2.7386127875258306,0A2.7386127875258306,2.7386127875258306,0,1,1,2.7386127875258306,0" style="fill: none; stroke: #e45756; stroke-width: 2; opacity: 0.5;"></path><path transform="translate(220.68965517241378,255.17507343916543)" d="M2.7386127875258306,0A2.7386127875258306,2.7386127875258306,0,1,1,-2.7386127875258306,0A2.7386127875258306,2.7386127875258306,0,1,1,2.7386127875258306,0" style="fill: none; stroke: #e45756; stroke-width: 2; opacity: 0.5;"></path><path transform="translate(227.58620689655172,269.91182048954795)" d="M2.7386127875258306,0A2.7386127875258306,2.7386127875258306,0,1,1,-2.7386127875258306,0A2.7386127875258306,2.7386127875258306,0,1,1,2.7386127875258306,0" style="fill: none; stroke: #e45756; stroke-width: 2; opacity: 0.5;"></path><path transform="translate(234.48275862068968,400)" d="M2.7386127875258306,0A2.7386127875258306,2.7386127875258306,0,1,1,-2.7386127875258306,0A2.7386127875258306,2.7386127875258306,0,1,1,2.7386127875258306,0" style="fill: none; stroke: #e45756; stroke-width: 2; opacity: 0.5;"></path><path transform="translate(241.3793103448276,242.71533134280938)" d="M2.7386127875258306,0A2.7386127875258306,2.7386127875258306,0,1,1,-2.7386127875258306,0A2.7386127875258306,2.7386127875258306,0,1,1,2.7386127875258306,0" style="fill: none; stroke: #e45756; stroke-width: 2; opacity: 0.5;"></path><path transform="translate(248.27586206896552,287.94814120480964)" d="M2.7386127875258306,0A2.7386127875258306,2.7386127875258306,0,1,1,-2.7386127875258306,0A2.7386127875258306,2.7386127875258306,0,1,1,2.7386127875258306,0" style="fill: none; stroke: #e45756; stroke-width: 2; opacity: 0.5;"></path><path transform="translate(255.17241379310343,269.91182048954795)" d="M2.7386127875258306,0A2.7386127875258306,2.7386127875258306,0,1,1,-2.7386127875258306,0A2.7386127875258306,2.7386127875258306,0,1,1,2.7386127875258306,0" style="fill: none; stroke: #e45756; stroke-width: 2; opacity: 0.5;"></path><path transform="translate(262.0689655172414,269.91182048954795)" d="M2.7386127875258306,0A2.7386127875258306,2.7386127875258306,0,1,1,-2.7386127875258306,0A2.7386127875258306,2.7386127875258306,0,1,1,2.7386127875258306,0" style="fill: none; stroke: #e45756; stroke-width: 2; opacity: 0.5;"></path><path transform="translate(268.9655172413793,311.2010028367606)" d="M2.7386127875258306,0A2.7386127875258306,2.7386127875258306,0,1,1,-2.7386127875258306,0A2.7386127875258306,2.7386127875258306,0,1,1,2.7386127875258306,0" style="fill: none; stroke: #e45756; stroke-width: 2; opacity: 0.5;"></path><path transform="translate(275.8620689655172,311.2010028367606)" d="M2.7386127875258306,0A2.7386127875258306,2.7386127875258306,0,1,1,-2.7386127875258306,0A2.7386127875258306,2.7386127875258306,0,1,1,2.7386127875258306,0" style="fill: none; stroke: #e45756; stroke-width: 2; opacity: 0.5;"></path><path transform="translate(282.7586206896552,287.94814120480964)" d="M2.7386127875258306,0A2.7386127875258306,2.7386127875258306,0,1,1,-2.7386127875258306,0A2.7386127875258306,2.7386127875258306,0,1,1,2.7386127875258306,0" style="fill: none; stroke: #e45756; stroke-width: 2; opacity: 0.5;"></path><path transform="translate(289.65517241379314,343.9740706024048)" d="M2.7386127875258306,0A2.7386127875258306,2.7386127875258306,0,1,1,-2.7386127875258306,0A2.7386127875258306,2.7386127875258306,0,1,1,2.7386127875258306,0" style="fill: none; stroke: #e45756; stroke-width: 2; opacity: 0.5;"></path><path transform="translate(296.55172413793105,269.91182048954795)" d="M2.7386127875258306,0A2.7386127875258306,2.7386127875258306,0,1,1,-2.7386127875258306,0A2.7386127875258306,2.7386127875258306,0,1,1,2.7386127875258306,0" style="fill: none; stroke: #e45756; stroke-width: 2; opacity: 0.5;"></path><path transform="translate(303.448275862069,255.17507343916543)" d="M2.7386127875258306,0A2.7386127875258306,2.7386127875258306,0,1,1,-2.7386127875258306,0A2.7386127875258306,2.7386127875258306,0,1,1,2.7386127875258306,0" style="fill: none; stroke: #e45756; stroke-width: 2; opacity: 0.5;"></path><path transform="translate(310.3448275862069,311.2010028367606)" d="M2.7386127875258306,0A2.7386127875258306,2.7386127875258306,0,1,1,-2.7386127875258306,0A2.7386127875258306,2.7386127875258306,0,1,1,2.7386127875258306,0" style="fill: none; stroke: #e45756; stroke-width: 2; opacity: 0.5;"></path><path transform="translate(317.2413793103448,287.94814120480964)" d="M2.7386127875258306,0A2.7386127875258306,2.7386127875258306,0,1,1,-2.7386127875258306,0A2.7386127875258306,2.7386127875258306,0,1,1,2.7386127875258306,0" style="fill: none; stroke: #e45756; stroke-width: 2; opacity: 0.5;"></path><path transform="translate(324.1379310344828,311.2010028367606)" d="M2.7386127875258306,0A2.7386127875258306,2.7386127875258306,0,1,1,-2.7386127875258306,0A2.7386127875258306,2.7386127875258306,0,1,1,2.7386127875258306,0" style="fill: none; stroke: #e45756; stroke-width: 2; opacity: 0.5;"></path><path transform="translate(331.0344827586207,255.17507343916543)" d="M2.7386127875258306,0A2.7386127875258306,2.7386127875258306,0,1,1,-2.7386127875258306,0A2.7386127875258306,2.7386127875258306,0,1,1,2.7386127875258306,0" style="fill: none; stroke: #e45756; stroke-width: 2; opacity: 0.5;"></path><path transform="translate(337.9310344827586,400)" d="M2.7386127875258306,0A2.7386127875258306,2.7386127875258306,0,1,1,-2.7386127875258306,0A2.7386127875258306,2.7386127875258306,0,1,1,2.7386127875258306,0" style="fill: none; stroke: #e45756; stroke-width: 2; opacity: 0.5;"></path><path transform="translate(344.8275862068965,311.2010028367606)" d="M2.7386127875258306,0A2.7386127875258306,2.7386127875258306,0,1,1,-2.7386127875258306,0A2.7386127875258306,2.7386127875258306,0,1,1,2.7386127875258306,0" style="fill: none; stroke: #e45756; stroke-width: 2; opacity: 0.5;"></path><path transform="translate(351.7241379310345,400)" d="M2.7386127875258306,0A2.7386127875258306,2.7386127875258306,0,1,1,-2.7386127875258306,0A2.7386127875258306,2.7386127875258306,0,1,1,2.7386127875258306,0" style="fill: none; stroke: #e45756; stroke-width: 2; opacity: 0.5;"></path><path transform="translate(358.62068965517244,343.9740706024048)" d="M2.7386127875258306,0A2.7386127875258306,2.7386127875258306,0,1,1,-2.7386127875258306,0A2.7386127875258306,2.7386127875258306,0,1,1,2.7386127875258306,0" style="fill: none; stroke: #e45756; stroke-width: 2; opacity: 0.5;"></path><path transform="translate(365.51724137931035,287.94814120480964)" d="M2.7386127875258306,0A2.7386127875258306,2.7386127875258306,0,1,1,-2.7386127875258306,0A2.7386127875258306,2.7386127875258306,0,1,1,2.7386127875258306,0" style="fill: none; stroke: #e45756; stroke-width: 2; opacity: 0.5;"></path><path transform="translate(372.4137931034483,269.91182048954795)" d="M2.7386127875258306,0A2.7386127875258306,2.7386127875258306,0,1,1,-2.7386127875258306,0A2.7386127875258306,2.7386127875258306,0,1,1,2.7386127875258306,0" style="fill: none; stroke: #e45756; stroke-width: 2; opacity: 0.5;"></path><path transform="translate(379.3103448275862,311.2010028367606)" d="M2.7386127875258306,0A2.7386127875258306,2.7386127875258306,0,1,1,-2.7386127875258306,0A2.7386127875258306,2.7386127875258306,0,1,1,2.7386127875258306,0" style="fill: none; stroke: #e45756; stroke-width: 2; opacity: 0.5;"></path><path transform="translate(386.2068965517241,287.94814120480964)" d="M2.7386127875258306,0A2.7386127875258306,2.7386127875258306,0,1,1,-2.7386127875258306,0A2.7386127875258306,2.7386127875258306,0,1,1,2.7386127875258306,0" style="fill: none; stroke: #e45756; stroke-width: 2; opacity: 0.5;"></path><path transform="translate(393.10344827586204,311.2010028367606)" d="M2.7386127875258306,0A2.7386127875258306,2.7386127875258306,0,1,1,-2.7386127875258306,0A2.7386127875258306,2.7386127875258306,0,1,1,2.7386127875258306,0" style="fill: none; stroke: #e45756; stroke-width: 2; opacity: 0.5;"></path><path transform="translate(400,343.9740706024048)" d="M2.7386127875258306,0A2.7386127875258306,2.7386127875258306,0,1,1,-2.7386127875258306,0A2.7386127875258306,2.7386127875258306,0,1,1,2.7386127875258306,0" style="fill: none; stroke: #e45756; stroke-width: 2; opacity: 0.5;"></path><path transform="translate(406.8965517241379,311.2010028367606)" d="M2.7386127875258306,0A2.7386127875258306,2.7386127875258306,0,1,1,-2.7386127875258306,0A2.7386127875258306,2.7386127875258306,0,1,1,2.7386127875258306,0" style="fill: none; stroke: #e45756; stroke-width: 2; opacity: 0.5;"></path><path transform="translate(413.7931034482759,400)" d="M2.7386127875258306,0A2.7386127875258306,2.7386127875258306,0,1,1,-2.7386127875258306,0A2.7386127875258306,2.7386127875258306,0,1,1,2.7386127875258306,0" style="fill: none; stroke: #e45756; stroke-width: 2; opacity: 0.5;"></path><path transform="translate(420.68965517241384,400)" d="M2.7386127875258306,0A2.7386127875258306,2.7386127875258306,0,1,1,-2.7386127875258306,0A2.7386127875258306,2.7386127875258306,0,1,1,2.7386127875258306,0" style="fill: none; stroke: #e45756; stroke-width: 2; opacity: 0.5;"></path><path transform="translate(427.58620689655174,311.2010028367606)" d="M2.7386127875258306,0A2.7386127875258306,2.7386127875258306,0,1,1,-2.7386127875258306,0A2.7386127875258306,2.7386127875258306,0,1,1,2.7386127875258306,0" style="fill: none; stroke: #e45756; stroke-width: 2; opacity: 0.5;"></path><path transform="translate(434.48275862068965,400)" d="M2.7386127875258306,0A2.7386127875258306,2.7386127875258306,0,1,1,-2.7386127875258306,0A2.7386127875258306,2.7386127875258306,0,1,1,2.7386127875258306,0" style="fill: none; stroke: #e45756; stroke-width: 2; opacity: 0.5;"></path><path transform="translate(441.37931034482756,400)" d="M2.7386127875258306,0A2.7386127875258306,2.7386127875258306,0,1,1,-2.7386127875258306,0A2.7386127875258306,2.7386127875258306,0,1,1,2.7386127875258306,0" style="fill: none; stroke: #e45756; stroke-width: 2; opacity: 0.5;"></path><path transform="translate(448.2758620689655,400)" d="M2.7386127875258306,0A2.7386127875258306,2.7386127875258306,0,1,1,-2.7386127875258306,0A2.7386127875258306,2.7386127875258306,0,1,1,2.7386127875258306,0" style="fill: none; stroke: #e45756; stroke-width: 2; opacity: 0.5;"></path><path transform="translate(455.17241379310343,343.9740706024048)" d="M2.7386127875258306,0A2.7386127875258306,2.7386127875258306,0,1,1,-2.7386127875258306,0A2.7386127875258306,2.7386127875258306,0,1,1,2.7386127875258306,0" style="fill: none; stroke: #e45756; stroke-width: 2; opacity: 0.5;"></path><path transform="translate(462.06896551724134,343.9740706024048)" d="M2.7386127875258306,0A2.7386127875258306,2.7386127875258306,0,1,1,-2.7386127875258306,0A2.7386127875258306,2.7386127875258306,0,1,1,2.7386127875258306,0" style="fill: none; stroke: #e45756; stroke-width: 2; opacity: 0.5;"></path><path transform="translate(468.96551724137936,343.9740706024048)" d="M2.7386127875258306,0A2.7386127875258306,2.7386127875258306,0,1,1,-2.7386127875258306,0A2.7386127875258306,2.7386127875258306,0,1,1,2.7386127875258306,0" style="fill: none; stroke: #e45756; stroke-width: 2; opacity: 0.5;"></path><path transform="translate(475.86206896551727,400)" d="M2.7386127875258306,0A2.7386127875258306,2.7386127875258306,0,1,1,-2.7386127875258306,0A2.7386127875258306,2.7386127875258306,0,1,1,2.7386127875258306,0" style="fill: none; stroke: #e45756; stroke-width: 2; opacity: 0.5;"></path><path transform="translate(482.7586206896552,400)" d="M2.7386127875258306,0A2.7386127875258306,2.7386127875258306,0,1,1,-2.7386127875258306,0A2.7386127875258306,2.7386127875258306,0,1,1,2.7386127875258306,0" style="fill: none; stroke: #e45756; stroke-width: 2; opacity: 0.5;"></path><path transform="translate(489.6551724137931,311.2010028367606)" d="M2.7386127875258306,0A2.7386127875258306,2.7386127875258306,0,1,1,-2.7386127875258306,0A2.7386127875258306,2.7386127875258306,0,1,1,2.7386127875258306,0" style="fill: none; stroke: #e45756; stroke-width: 2; opacity: 0.5;"></path><path transform="translate(496.55172413793105,311.2010028367606)" d="M2.7386127875258306,0A2.7386127875258306,2.7386127875258306,0,1,1,-2.7386127875258306,0A2.7386127875258306,2.7386127875258306,0,1,1,2.7386127875258306,0" style="fill: none; stroke: #e45756; stroke-width: 2; opacity: 0.5;"></path><path transform="translate(503.44827586206895,343.9740706024048)" d="M2.7386127875258306,0A2.7386127875258306,2.7386127875258306,0,1,1,-2.7386127875258306,0A2.7386127875258306,2.7386127875258306,0,1,1,2.7386127875258306,0" style="fill: none; stroke: #e45756; stroke-width: 2; opacity: 0.5;"></path><path transform="translate(510.34482758620686,343.9740706024048)" d="M2.7386127875258306,0A2.7386127875258306,2.7386127875258306,0,1,1,-2.7386127875258306,0A2.7386127875258306,2.7386127875258306,0,1,1,2.7386127875258306,0" style="fill: none; stroke: #e45756; stroke-width: 2; opacity: 0.5;"></path><path transform="translate(517.2413793103448,343.9740706024048)" d="M2.7386127875258306,0A2.7386127875258306,2.7386127875258306,0,1,1,-2.7386127875258306,0A2.7386127875258306,2.7386127875258306,0,1,1,2.7386127875258306,0" style="fill: none; stroke: #e45756; stroke-width: 2; opacity: 0.5;"></path><path transform="translate(524.1379310344828,400)" d="M2.7386127875258306,0A2.7386127875258306,2.7386127875258306,0,1,1,-2.7386127875258306,0A2.7386127875258306,2.7386127875258306,0,1,1,2.7386127875258306,0" style="fill: none; stroke: #e45756; stroke-width: 2; opacity: 0.5;"></path><path transform="translate(531.0344827586207,400)" d="M2.7386127875258306,0A2.7386127875258306,2.7386127875258306,0,1,1,-2.7386127875258306,0A2.7386127875258306,2.7386127875258306,0,1,1,2.7386127875258306,0" style="fill: none; stroke: #e45756; stroke-width: 2; opacity: 0.5;"></path><path transform="translate(537.9310344827586,343.9740706024048)" d="M2.7386127875258306,0A2.7386127875258306,2.7386127875258306,0,1,1,-2.7386127875258306,0A2.7386127875258306,2.7386127875258306,0,1,1,2.7386127875258306,0" style="fill: none; stroke: #e45756; stroke-width: 2; opacity: 0.5;"></path><path transform="translate(544.8275862068965,311.2010028367606)" d="M2.7386127875258306,0A2.7386127875258306,2.7386127875258306,0,1,1,-2.7386127875258306,0A2.7386127875258306,2.7386127875258306,0,1,1,2.7386127875258306,0" style="fill: none; stroke: #e45756; stroke-width: 2; opacity: 0.5;"></path><path transform="translate(551.7241379310344,343.9740706024048)" d="M2.7386127875258306,0A2.7386127875258306,2.7386127875258306,0,1,1,-2.7386127875258306,0A2.7386127875258306,2.7386127875258306,0,1,1,2.7386127875258306,0" style="fill: none; stroke: #e45756; stroke-width: 2; opacity: 0.5;"></path><path transform="translate(558.6206896551724,400)" d="M2.7386127875258306,0A2.7386127875258306,2.7386127875258306,0,1,1,-2.7386127875258306,0A2.7386127875258306,2.7386127875258306,0,1,1,2.7386127875258306,0" style="fill: none; stroke: #e45756; stroke-width: 2; opacity: 0.5;"></path><path transform="translate(565.5172413793103,311.2010028367606)" d="M2.7386127875258306,0A2.7386127875258306,2.7386127875258306,0,1,1,-2.7386127875258306,0A2.7386127875258306,2.7386127875258306,0,1,1,2.7386127875258306,0" style="fill: none; stroke: #e45756; stroke-width: 2; opacity: 0.5;"></path><path transform="translate(572.4137931034483,343.9740706024048)" d="M2.7386127875258306,0A2.7386127875258306,2.7386127875258306,0,1,1,-2.7386127875258306,0A2.7386127875258306,2.7386127875258306,0,1,1,2.7386127875258306,0" style="fill: none; stroke: #e45756; stroke-width: 2; opacity: 0.5;"></path><path transform="translate(579.3103448275863,400)" d="M2.7386127875258306,0A2.7386127875258306,2.7386127875258306,0,1,1,-2.7386127875258306,0A2.7386127875258306,2.7386127875258306,0,1,1,2.7386127875258306,0" style="fill: none; stroke: #e45756; stroke-width: 2; opacity: 0.5;"></path><path transform="translate(586.2068965517242,400)" d="M2.7386127875258306,0A2.7386127875258306,2.7386127875258306,0,1,1,-2.7386127875258306,0A2.7386127875258306,2.7386127875258306,0,1,1,2.7386127875258306,0" style="fill: none; stroke: #e45756; stroke-width: 2; opacity: 0.5;"></path><path transform="translate(593.1034482758621,400)" d="M2.7386127875258306,0A2.7386127875258306,2.7386127875258306,0,1,1,-2.7386127875258306,0A2.7386127875258306,2.7386127875258306,0,1,1,2.7386127875258306,0" style="fill: none; stroke: #e45756; stroke-width: 2; opacity: 0.5;"></path><path transform="translate(600,400)" d="M2.7386127875258306,0A2.7386127875258306,2.7386127875258306,0,1,1,-2.7386127875258306,0A2.7386127875258306,2.7386127875258306,0,1,1,2.7386127875258306,0" style="fill: none; stroke: #e45756; stroke-width: 2; opacity: 0.5;"></path></g><g class="mark-group role-legend"><g transform="translate(0,-32)"><path class="background" d="M0,0h269v14h-269Z" style="pointer-events: none; fill: none;"></path><g><g class="mark-group role-legend-entry"><g transform="translate(0,0)"><path class="background" d="M0,0h0v0h0Z" style="pointer-events: none; fill: none;"></path><g><g class="mark-group role-scope"><g transform="translate(0,0)"><path class="background" d="M0,0h97.365234375v14h-97.365234375Z" style="pointer-events: none; fill: none; opacity: 1;"></path><g><g class="mark-symbol role-legend-symbol" style="pointer-events: none;"><path transform="translate(7,7)" d="M5,0A5,5,0,1,1,-5,0A5,5,0,1,1,5,0" style="fill: none; stroke: #4c78a8; stroke-width: 1.5; opacity: 0.5;"></path></g><g class="mark-text role-legend-label" style="pointer-events: none;"><text text-anchor="start" transform="translate(18,11)" style="font-family: sans-serif; font-size: 14px; fill: #000; opacity: 1;">Confirmados</text></g></g><path class="foreground" d="" style="pointer-events: none; display: none; fill: none;"></path></g><g transform="translate(108,0)"><path class="background" d="M0,0h81.041015625v14h-81.041015625Z" style="pointer-events: none; fill: none; opacity: 1;"></path><g><g class="mark-symbol role-legend-symbol" style="pointer-events: none;"><path transform="translate(7,7)" d="M5,0A5,5,0,1,1,-5,0A5,5,0,1,1,5,0" style="fill: none; stroke: #f58518; stroke-width: 1.5; opacity: 0.5;"></path></g><g class="mark-text role-legend-label" style="pointer-events: none;"><text text-anchor="start" transform="translate(18,11)" style="font-family: sans-serif; font-size: 14px; fill: #000; opacity: 1;">Probables</text></g></g><path class="foreground" d="" style="pointer-events: none; display: none; fill: none;"></path></g><g transform="translate(200,0)"><path class="background" d="M0,0h68.572265625v14h-68.572265625Z" style="pointer-events: none; fill: none; opacity: 1;"></path><g><g class="mark-symbol role-legend-symbol" style="pointer-events: none;"><path transform="translate(7,7)" d="M5,0A5,5,0,1,1,-5,0A5,5,0,1,1,5,0" style="fill: none; stroke: #e45756; stroke-width: 1.5; opacity: 0.5;"></path></g><g class="mark-text role-legend-label" style="pointer-events: none;"><text text-anchor="start" transform="translate(18,11)" style="font-family: sans-serif; font-size: 14px; fill: #000; opacity: 1;">Muertes</text></g></g><path class="foreground" d="" style="pointer-events: none; display: none; fill: none;"></path></g></g></g><path class="foreground" d="" style="pointer-events: none; display: none; fill: none;"></path></g></g></g><path class="foreground" d="" style="pointer-events: none; display: none; fill: none;"></path></g></g></g><path class="foreground" d="" style="display: none; fill: none;"></path></g></g></g></svg>