<svg class="marks" width="667" height="219" viewBox="0 0 667 219" version="1.1" xmlns="http://www.w3.org/2000/svg" xmlns:xlink="http://www.w3.org/1999/xlink"><rect width="667" height="219" style="fill: white;"></rect><g transform="translate(76,10)"><g class="mark-group role-frame root"><g transform="translate(0,0)"><path class="background" d="M0,0h0v0h0Z" style="fill: none;"></path><g><g class="mark-group role-row-header row_header"><g transform="translate(-1,0)"><path class="background" d="M0,0h0v70h0Z" style="fill: none;"></path><g><g class="mark-group role-title"><g transform="translate(-69.896484375,35)"><path class="background" d="M0,0h0v0h0Z" style="pointer-events: none; fill: none;"></path><g><g class="mark-text role-title-text" style="pointer-events: none;"><text text-anchor="middle" transform="translate(0,0) rotate(-90) translate(0,11)" style="font-family: sans-serif; font-size: 14px; fill: #000; opacity: 1;">Confirmados</text></g></g><path class="foreground" d="" style="pointer-events: none; display: none; fill: none;"></path></g></g><g class="mark-group role-axis"><g transform="translate(0.5,0.5)"><path class="background" d="M0,0h0v0h0Z" style="pointer-events: none; fill: none;"></path><g><g class="mark-rule role-axis-tick" style="pointer-events: none;"><line transform="translate(0,11)" x2="-5" y2="0" style="fill: none; stroke: #888; stroke-width: 1; opacity: 1;"></line><line transform="translate(0,35)" x2="-5" y2="0" style="fill: none; stroke: #888; stroke-width: 1; opacity: 1;"></line><line transform="translate(0,58)" x2="-5" y2="0" style="fill: none; stroke: #888; stroke-width: 1; opacity: 1;"></line></g><g class="mark-text role-axis-label" style="pointer-events: none;"><text text-anchor="end" transform="translate(-7,15.166666666666666)" style="font-family: sans-serif; font-size: 14px; fill: #000; opacity: 1;">mayo</text><text text-anchor="end" transform="translate(-7,38.5)" style="font-family: sans-serif; font-size: 14px; fill: #000; opacity: 1;">abril</text><text text-anchor="end" transform="translate(-7,61.83333333333333)" style="font-family: sans-serif; font-size: 14px; fill: #000; opacity: 1;">marzo</text></g><g class="mark-rule role-axis-domain" style="pointer-events: none;"><line transform="translate(0,0)" x2="0" y2="70" style="fill: none; stroke: #888; stroke-width: 1; opacity: 1;"></line></g></g><path class="foreground" d="" style="pointer-events: none; display: none; fill: none;"></path></g></g></g><path class="foreground" d="" style="display: none; fill: none;"></path></g><g transform="translate(-1,92)"><path class="background" d="M0,0h0v70h0Z" style="fill: none;"></path><g><g class="mark-group role-title"><g transform="translate(-69.896484375,35)"><path class="background" d="M0,0h0v0h0Z" style="pointer-events: none; fill: none;"></path><g><g class="mark-text role-title-text" style="pointer-events: none;"><text text-anchor="middle" transform="translate(0,0) rotate(-90) translate(0,11)" style="font-family: sans-serif; font-size: 14px; fill: #000; opacity: 1;">Probables</text></g></g><path class="foreground" d="" style="pointer-events: none; display: none; fill: none;"></path></g></g><g class="mark-group role-axis"><g transform="translate(0.5,0.5)"><path class="background" d="M0,0h0v0h0Z" style="pointer-events: none; fill: none;"></path><g><g class="mark-rule role-axis-tick" style="pointer-events: none;"><line transform="translate(0,11)" x2="-5" y2="0" style="fill: none; stroke: #888; stroke-width: 1; opacity: 1;"></line><line transform="translate(0,35)" x2="-5" y2="0" style="fill: none; stroke: #888; stroke-width: 1; opacity: 1;"></line><line transform="translate(0,58)" x2="-5" y2="0" style="fill: none; stroke: #888; stroke-width: 1; opacity: 1;"></line></g><g class="mark-text role-axis-label" style="pointer-events: none;"><text text-anchor="end" transform="translate(-7,15.166666666666666)" style="font-family: sans-serif; font-size: 14px; fill: #000; opacity: 1;">mayo</text><text text-anchor="end" transform="translate(-7,38.5)" style="font-family: sans-serif; font-size: 14px; fill: #000; opacity: 1;">abril</text><text text-anchor="end" transform="translate(-7,61.83333333333333)" style="font-family: sans-serif; font-size: 14px; fill: #000; opacity: 1;">marzo</text></g><g class="mark-rule role-axis-domain" style="pointer-events: none;"><line transform="translate(0,0)" x2="0" y2="70" style="fill: none; stroke: #888; stroke-width: 1; opacity: 1;"></line></g></g><path class="foreground" d="" style="pointer-events: none; display: none; fill: none;"></path></g></g></g><path class="foreground" d="" style="display: none; fill: none;"></path></g></g><g class="mark-group role-column-footer column_footer"><g transform="translate(0,163)"><path class="background" d="M0,0h585v0h-585Z" style="fill: none;"></path><g><g class="mark-group role-axis"><g transform="translate(0.5,0.5)"><path class="background" d="M0,0h0v0h0Z" style="pointer-events: none; fill: none;"></path><g><g class="mark-rule role-axis-tick" style="pointer-events: none;"><line transform="translate(17,0)" x2="0" y2="5" style="fill: none; stroke: #888; stroke-width: 1; opacity: 1;"></line><line transform="translate(51,0)" x2="0" y2="5" style="fill: none; stroke: #888; stroke-width: 1; opacity: 1;"></line><line transform="translate(86,0)" x2="0" y2="5" style="fill: none; stroke: #888; stroke-width: 1; opacity: 1;"></line><line transform="translate(120,0)" x2="0" y2="5" style="fill: none; stroke: #888; stroke-width: 1; opacity: 1;"></line><line transform="translate(154,0)" x2="0" y2="5" style="fill: none; stroke: #888; stroke-width: 1; opacity: 1;"></line><line transform="translate(189,0)" x2="0" y2="5" style="fill: none; stroke: #888; stroke-width: 1; opacity: 1;"></line><line transform="translate(223,0)" x2="0" y2="5" style="fill: none; stroke: #888; stroke-width: 1; opacity: 1;"></line><line transform="translate(258,0)" x2="0" y2="5" style="fill: none; stroke: #888; stroke-width: 1; opacity: 1;"></line><line transform="translate(292,0)" x2="0" y2="5" style="fill: none; stroke: #888; stroke-width: 1; opacity: 1;"></line><line transform="translate(326,0)" x2="0" y2="5" style="fill: none; stroke: #888; stroke-width: 1; opacity: 1;"></line><line transform="translate(361,0)" x2="0" y2="5" style="fill: none; stroke: #888; stroke-width: 1; opacity: 1;"></line><line transform="translate(395,0)" x2="0" y2="5" style="fill: none; stroke: #888; stroke-width: 1; opacity: 1;"></line><line transform="translate(430,0)" x2="0" y2="5" style="fill: none; stroke: #888; stroke-width: 1; opacity: 1;"></line><line transform="translate(464,0)" x2="0" y2="5" style="fill: none; stroke: #888; stroke-width: 1; opacity: 1;"></line><line transform="translate(498,0)" x2="0" y2="5" style="fill: none; stroke: #888; stroke-width: 1; opacity: 1;"></line><line transform="translate(533,0)" x2="0" y2="5" style="fill: none; stroke: #888; stroke-width: 1; opacity: 1;"></line><line transform="translate(567,0)" x2="0" y2="5" style="fill: none; stroke: #888; stroke-width: 1; opacity: 1;"></line></g><g class="mark-text role-axis-label" style="pointer-events: none;"><text text-anchor="end" transform="translate(16.705882352941178,7) rotate(270) translate(0,4)" style="font-family: sans-serif; font-size: 14px; fill: #000; opacity: 1;">01</text><text text-anchor="end" transform="translate(51.117647058823536,7) rotate(270) translate(0,4)" style="font-family: sans-serif; font-size: 14px; fill: #000; opacity: 1;">02</text><text text-anchor="end" transform="translate(85.52941176470588,7) rotate(270) translate(0,4)" style="font-family: sans-serif; font-size: 14px; fill: #000; opacity: 1;">03</text><text text-anchor="end" transform="translate(119.94117647058825,7) rotate(270) translate(0,4)" style="font-family: sans-serif; font-size: 14px; fill: #000; opacity: 1;">06</text><text text-anchor="end" transform="translate(154.3529411764706,7) rotate(270) translate(0,4)" style="font-family: sans-serif; font-size: 14px; fill: #000; opacity: 1;">08</text><text text-anchor="end" transform="translate(188.76470588235296,7) rotate(270) translate(0,4)" style="font-family: sans-serif; font-size: 14px; fill: #000; opacity: 1;">11</text><text text-anchor="end" transform="translate(223.17647058823533,7) rotate(270) translate(0,4)" style="font-family: sans-serif; font-size: 14px; fill: #000; opacity: 1;">12</text><text text-anchor="end" transform="translate(257.5882352941177,7) rotate(270) translate(0,4)" style="font-family: sans-serif; font-size: 14px; fill: #000; opacity: 1;">13</text><text text-anchor="end" transform="translate(292,7) rotate(270) translate(0,4)" style="font-family: sans-serif; font-size: 14px; fill: #000; opacity: 1;">14</text><text text-anchor="end" transform="translate(326.4117647058824,7) rotate(270) translate(0,4)" style="font-family: sans-serif; font-size: 14px; fill: #000; opacity: 1;">15</text><text text-anchor="end" transform="translate(360.8235294117647,7) rotate(270) translate(0,4)" style="font-family: sans-serif; font-size: 14px; fill: #000; opacity: 1;">16</text><text text-anchor="end" transform="translate(395.2352941176471,7) rotate(270) translate(0,4)" style="font-family: sans-serif; font-size: 14px; fill: #000; opacity: 1;">18</text><text text-anchor="end" transform="translate(429.64705882352945,7) rotate(270) translate(0,4)" style="font-family: sans-serif; font-size: 14px; fill: #000; opacity: 1;">19</text><text text-anchor="end" transform="translate(464.05882352941177,7) rotate(270) translate(0,4)" style="font-family: sans-serif; font-size: 14px; fill: #000; opacity: 1;">20</text><text text-anchor="end" transform="translate(498.47058823529414,7) rotate(270) translate(0,4)" style="font-family: sans-serif; font-size: 14px; fill: #000; opacity: 1;">21</text><text text-anchor="end" transform="translate(532.8823529411766,7) rotate(270) translate(0,4)" style="font-family: sans-serif; font-size: 14px; fill: #000; opacity: 1;">26</text><text text-anchor="end" transform="translate(567.2941176470589,7) rotate(270) translate(0,4)" style="font-family: sans-serif; font-size: 14px; fill: #000; opacity: 1;">30</text></g><g class="mark-rule role-axis-domain" style="pointer-events: none;"><line transform="translate(0,0)" x2="585" y2="0" style="fill: none; stroke: #888; stroke-width: 1; opacity: 1;"></line></g><g class="mark-text role-axis-title" style="pointer-events: none;"><text text-anchor="middle" transform="translate(292.5,37.572265625)" style="font-family: sans-serif; font-size: 14px; font-weight: bold; fill: #000; opacity: 1;">Día del mes</text></g></g><path class="foreground" d="" style="pointer-events: none; display: none; fill: none;"></path></g></g></g><path class="foreground" d="" style="display: none; fill: none;"></path></g></g><g class="mark-group role-scope cell"><g transform="translate(0,0)"><path class="background" d="M0.5,0.5h585v70h-585Z" style="fill: none; stroke: #ddd;"></path><g><g class="mark-rect role-mark child_layer_0_marks"><path d="M516.1764705882354,46.666666666666664h34.411764705882355v23.333333333333332h-34.411764705882355Z" style="fill: rgb(238, 235, 234);"></path><path d="M34.411764705882355,23.333333333333332h34.411764705882355v23.333333333333332h-34.411764705882355Z" style="fill: rgb(244, 240, 237);"></path><path d="M68.82352941176471,23.333333333333332h34.411764705882355v23.333333333333332h-34.411764705882355Z" style="fill: rgb(238, 235, 234);"></path><path d="M275.29411764705884,23.333333333333332h34.411764705882355v23.333333333333332h-34.411764705882355Z" style="fill: rgb(244, 240, 237);"></path><path d="M550.5882352941177,23.333333333333332h34.411764705882355v23.333333333333332h-34.411764705882355Z" style="fill: rgb(244, 240, 237);"></path><path d="M0,0h34.411764705882355v23.333333333333332h-34.411764705882355Z" style="fill: rgb(232, 231, 230);"></path><path d="M103.23529411764707,0h34.411764705882355v23.333333333333332h-34.411764705882355Z" style="fill: rgb(244, 240, 237);"></path><path d="M137.64705882352942,0h34.411764705882355v23.333333333333332h-34.411764705882355Z" style="fill: rgb(238, 235, 234);"></path><path d="M275.29411764705884,0h34.411764705882355v23.333333333333332h-34.411764705882355Z" style="fill: rgb(244, 240, 237);"></path><path d="M378.5294117647059,0h34.411764705882355v23.333333333333332h-34.411764705882355Z" style="fill: rgb(244, 240, 237);"></path><path d="M447.3529411764706,0h34.411764705882355v23.333333333333332h-34.411764705882355Z" style="fill: rgb(232, 231, 230);"></path><path d="M481.764705882353,0h34.411764705882355v23.333333333333332h-34.411764705882355Z" style="fill: rgb(244, 240, 237);"></path></g><g class="mark-text role-mark child_layer_1_marks"><text text-anchor="middle" transform="translate(533.3823529411766,61.33333333333333)" style="font-family: sans-serif; font-size: 9px; fill: black;">2</text><text text-anchor="middle" transform="translate(51.617647058823536,38)" style="font-family: sans-serif; font-size: 9px; fill: black;">1</text><text text-anchor="middle" transform="translate(86.02941176470588,38)" style="font-family: sans-serif; font-size: 9px; fill: black;">2</text><text text-anchor="middle" transform="translate(292.5,38)" style="font-family: sans-serif; font-size: 9px; fill: black;">1</text><text text-anchor="middle" transform="translate(567.7941176470589,38)" style="font-family: sans-serif; font-size: 9px; fill: black;">1</text><text text-anchor="middle" transform="translate(17.205882352941178,14.666666666666666)" style="font-family: sans-serif; font-size: 9px; fill: black;">3</text><text text-anchor="middle" transform="translate(120.44117647058825,14.666666666666666)" style="font-family: sans-serif; font-size: 9px; fill: black;">1</text><text text-anchor="middle" transform="translate(154.8529411764706,14.666666666666666)" style="font-family: sans-serif; font-size: 9px; fill: black;">2</text><text text-anchor="middle" transform="translate(292.5,14.666666666666666)" style="font-family: sans-serif; font-size: 9px; fill: black;">1</text><text text-anchor="middle" transform="translate(395.7352941176471,14.666666666666666)" style="font-family: sans-serif; font-size: 9px; fill: black;">1</text><text text-anchor="middle" transform="translate(464.55882352941177,14.666666666666666)" style="font-family: sans-serif; font-size: 9px; fill: black;">3</text><text text-anchor="middle" transform="translate(498.97058823529414,14.666666666666666)" style="font-family: sans-serif; font-size: 9px; fill: black;">1</text></g></g><path class="foreground" d="" style="display: none; fill: none;"></path></g><g transform="translate(0,92)"><path class="background" d="M0.5,0.5h585v70h-585Z" style="fill: none; stroke: #ddd;"></path><g><g class="mark-rect role-mark child_layer_0_marks"><path d="M68.82352941176471,0h34.411764705882355v23.333333333333332h-34.411764705882355Z" style="fill: rgb(244, 240, 237);"></path><path d="M137.64705882352942,0h34.411764705882355v23.333333333333332h-34.411764705882355Z" style="fill: rgb(244, 240, 237);"></path><path d="M172.05882352941177,0h34.411764705882355v23.333333333333332h-34.411764705882355Z" style="fill: rgb(226, 226, 226);"></path><path d="M206.47058823529414,0h34.411764705882355v23.333333333333332h-34.411764705882355Z" style="fill: rgb(244, 240, 237);"></path><path d="M240.8823529411765,0h34.411764705882355v23.333333333333332h-34.411764705882355Z" style="fill: rgb(226, 226, 226);"></path><path d="M275.29411764705884,0h34.411764705882355v23.333333333333332h-34.411764705882355Z" style="fill: rgb(232, 231, 230);"></path><path d="M309.7058823529412,0h34.411764705882355v23.333333333333332h-34.411764705882355Z" style="fill: rgb(201, 201, 201);"></path><path d="M344.11764705882354,0h34.411764705882355v23.333333333333332h-34.411764705882355Z" style="fill: rgb(244, 240, 237);"></path><path d="M378.5294117647059,0h34.411764705882355v23.333333333333332h-34.411764705882355Z" style="fill: rgb(218, 218, 218);"></path><path d="M412.9411764705883,0h34.411764705882355v23.333333333333332h-34.411764705882355Z" style="fill: rgb(201, 201, 201);"></path><path d="M447.3529411764706,0h34.411764705882355v23.333333333333332h-34.411764705882355Z" style="fill: rgb(52, 52, 52);"></path></g><g class="mark-text role-mark child_layer_1_marks"><text text-anchor="middle" transform="translate(86.02941176470588,14.666666666666666)" style="font-family: sans-serif; font-size: 9px; fill: black;">1</text><text text-anchor="middle" transform="translate(154.8529411764706,14.666666666666666)" style="font-family: sans-serif; font-size: 9px; fill: black;">1</text><text text-anchor="middle" transform="translate(189.26470588235296,14.666666666666666)" style="font-family: sans-serif; font-size: 9px; fill: black;">4</text><text text-anchor="middle" transform="translate(223.67647058823533,14.666666666666666)" style="font-family: sans-serif; font-size: 9px; fill: black;">1</text><text text-anchor="middle" transform="translate(258.0882352941177,14.666666666666666)" style="font-family: sans-serif; font-size: 9px; fill: black;">4</text><text text-anchor="middle" transform="translate(292.5,14.666666666666666)" style="font-family: sans-serif; font-size: 9px; fill: black;">3</text><text text-anchor="middle" transform="translate(326.9117647058824,14.666666666666666)" style="font-family: sans-serif; font-size: 9px; fill: black;">7</text><text text-anchor="middle" transform="translate(361.3235294117647,14.666666666666666)" style="font-family: sans-serif; font-size: 9px; fill: black;">1</text><text text-anchor="middle" transform="translate(395.7352941176471,14.666666666666666)" style="font-family: sans-serif; font-size: 9px; fill: black;">5</text><text text-anchor="middle" transform="translate(430.14705882352945,14.666666666666666)" style="font-family: sans-serif; font-size: 9px; fill: black;">7</text><text text-anchor="middle" transform="translate(464.55882352941177,14.666666666666666)" style="font-family: sans-serif; font-size: 9px; fill: white;">20</text></g></g><path class="foreground" d="" style="display: none; fill: none;"></path></g></g></g><path class="foreground" d="" style="display: none; fill: none;"></path></g></g></g></svg>