<svg class="marks" width="631" height="314" viewBox="0 0 631 314" version="1.1" xmlns="http://www.w3.org/2000/svg" xmlns:xlink="http://www.w3.org/1999/xlink"><rect width="631" height="314" style="fill: white;"></rect><g transform="translate(51,5)"><g class="mark-group role-frame root"><g transform="translate(0,0)"><path class="background" d="M0.5,0.5h575v265h-575Z" style="fill: none; stroke: #ddd;"></path><g><g class="mark-group role-axis"><g transform="translate(0.5,265.5)"><path class="background" d="M0,0h0v0h0Z" style="pointer-events: none; fill: none;"></path><g><g class="mark-rule role-axis-grid" style="pointer-events: none;"><line transform="translate(9,-265)" x2="0" y2="265" style="fill: none; stroke: #ddd; stroke-width: 1; opacity: 1;"></line><line transform="translate(69,-265)" x2="0" y2="265" style="fill: none; stroke: #ddd; stroke-width: 1; opacity: 1;"></line><line transform="translate(129,-265)" x2="0" y2="265" style="fill: none; stroke: #ddd; stroke-width: 1; opacity: 1;"></line><line transform="translate(189,-265)" x2="0" y2="265" style="fill: none; stroke: #ddd; stroke-width: 1; opacity: 1;"></line><line transform="translate(249,-265)" x2="0" y2="265" style="fill: none; stroke: #ddd; stroke-width: 1; opacity: 1;"></line><line transform="translate(309,-265)" x2="0" y2="265" style="fill: none; stroke: #ddd; stroke-width: 1; opacity: 1;"></line><line transform="translate(369,-265)" x2="0" y2="265" style="fill: none; stroke: #ddd; stroke-width: 1; opacity: 1;"></line><line transform="translate(429,-265)" x2="0" y2="265" style="fill: none; stroke: #ddd; stroke-width: 1; opacity: 1;"></line><line transform="translate(489,-265)" x2="0" y2="265" style="fill: none; stroke: #ddd; stroke-width: 1; opacity: 1;"></line><line transform="translate(549,-265)" x2="0" y2="265" style="fill: none; stroke: #ddd; stroke-width: 1; opacity: 1;"></line></g></g><path class="foreground" d="" style="pointer-events: none; display: none; fill: none;"></path></g></g><g class="mark-group role-axis"><g transform="translate(0.5,0.5)"><path class="background" d="M0,0h0v0h0Z" style="pointer-events: none; fill: none;"></path><g><g class="mark-rule role-axis-grid" style="pointer-events: none;"><line transform="translate(0,246)" x2="575" y2="0" style="fill: none; stroke: #ddd; stroke-width: 1; opacity: 1;"></line><line transform="translate(0,208)" x2="575" y2="0" style="fill: none; stroke: #ddd; stroke-width: 1; opacity: 1;"></line><line transform="translate(0,170)" x2="575" y2="0" style="fill: none; stroke: #ddd; stroke-width: 1; opacity: 1;"></line><line transform="translate(0,133)" x2="575" y2="0" style="fill: none; stroke: #ddd; stroke-width: 1; opacity: 1;"></line><line transform="translate(0,95)" x2="575" y2="0" style="fill: none; stroke: #ddd; stroke-width: 1; opacity: 1;"></line><line transform="translate(0,57)" x2="575" y2="0" style="fill: none; stroke: #ddd; stroke-width: 1; opacity: 1;"></line><line transform="translate(0,19)" x2="575" y2="0" style="fill: none; stroke: #ddd; stroke-width: 1; opacity: 1;"></line></g></g><path class="foreground" d="" style="pointer-events: none; display: none; fill: none;"></path></g></g><g class="mark-group role-axis"><g transform="translate(0.5,265.5)"><path class="background" d="M0,0h0v0h0Z" style="pointer-events: none; fill: none;"></path><g><g class="mark-rule role-axis-tick" style="pointer-events: none;"><line transform="translate(9,0)" x2="0" y2="5" style="fill: none; stroke: #888; stroke-width: 1; opacity: 1;"></line><line transform="translate(69,0)" x2="0" y2="5" style="fill: none; stroke: #888; stroke-width: 1; opacity: 1;"></line><line transform="translate(129,0)" x2="0" y2="5" style="fill: none; stroke: #888; stroke-width: 1; opacity: 1;"></line><line transform="translate(189,0)" x2="0" y2="5" style="fill: none; stroke: #888; stroke-width: 1; opacity: 1;"></line><line transform="translate(249,0)" x2="0" y2="5" style="fill: none; stroke: #888; stroke-width: 1; opacity: 1;"></line><line transform="translate(309,0)" x2="0" y2="5" style="fill: none; stroke: #888; stroke-width: 1; opacity: 1;"></line><line transform="translate(369,0)" x2="0" y2="5" style="fill: none; stroke: #888; stroke-width: 1; opacity: 1;"></line><line transform="translate(429,0)" x2="0" y2="5" style="fill: none; stroke: #888; stroke-width: 1; opacity: 1;"></line><line transform="translate(489,0)" x2="0" y2="5" style="fill: none; stroke: #888; stroke-width: 1; opacity: 1;"></line><line transform="translate(549,0)" x2="0" y2="5" style="fill: none; stroke: #888; stroke-width: 1; opacity: 1;"></line></g><g class="mark-text role-axis-label" style="pointer-events: none;"><text text-anchor="middle" transform="translate(8.582089552238806,18)" style="font-family: sans-serif; font-size: 14px; fill: #000; opacity: 1;">15/03</text><text text-anchor="middle" transform="translate(68.65671641791045,18)" style="font-family: sans-serif; font-size: 14px; fill: #000; opacity: 1;">22/03</text><text text-anchor="middle" transform="translate(128.7313432835821,18)" style="font-family: sans-serif; font-size: 14px; fill: #000; opacity: 1;">29/03</text><text text-anchor="middle" transform="translate(188.80597014925374,18)" style="font-family: sans-serif; font-size: 14px; fill: #000; opacity: 1;">05/04</text><text text-anchor="middle" transform="translate(248.88059701492537,18)" style="font-family: sans-serif; font-size: 14px; fill: #000; opacity: 1;">12/04</text><text text-anchor="middle" transform="translate(308.95522388059703,18)" style="font-family: sans-serif; font-size: 14px; fill: #000; opacity: 1;">19/04</text><text text-anchor="middle" transform="translate(369.02985074626866,18)" style="font-family: sans-serif; font-size: 14px; fill: #000; opacity: 1;">26/04</text><text text-anchor="middle" transform="translate(429.1044776119403,18)" style="font-family: sans-serif; font-size: 14px; fill: #000; opacity: 1;">03/05</text><text text-anchor="middle" transform="translate(489.17910447761193,18)" style="font-family: sans-serif; font-size: 14px; fill: #000; opacity: 1;">10/05</text><text text-anchor="middle" transform="translate(549.2537313432836,18)" style="font-family: sans-serif; font-size: 14px; fill: #000; opacity: 1;">17/05</text></g><g class="mark-rule role-axis-domain" style="pointer-events: none;"><line transform="translate(0,0)" x2="575" y2="0" style="fill: none; stroke: #888; stroke-width: 1; opacity: 1;"></line></g><g class="mark-text role-axis-title" style="pointer-events: none;"><text text-anchor="middle" transform="translate(287.5,36)" style="font-family: sans-serif; font-size: 14px; font-weight: bold; fill: #000; opacity: 1;">Fecha de toma de muestra</text></g></g><path class="foreground" d="" style="pointer-events: none; display: none; fill: none;"></path></g></g><g class="mark-group role-axis"><g transform="translate(0.5,0.5)"><path class="background" d="M0,0h0v0h0Z" style="pointer-events: none; fill: none;"></path><g><g class="mark-rule role-axis-tick" style="pointer-events: none;"><line transform="translate(0,246)" x2="-5" y2="0" style="fill: none; stroke: #888; stroke-width: 1; opacity: 1;"></line><line transform="translate(0,208)" x2="-5" y2="0" style="fill: none; stroke: #888; stroke-width: 1; opacity: 1;"></line><line transform="translate(0,170)" x2="-5" y2="0" style="fill: none; stroke: #888; stroke-width: 1; opacity: 1;"></line><line transform="translate(0,133)" x2="-5" y2="0" style="fill: none; stroke: #888; stroke-width: 1; opacity: 1;"></line><line transform="translate(0,95)" x2="-5" y2="0" style="fill: none; stroke: #888; stroke-width: 1; opacity: 1;"></line><line transform="translate(0,57)" x2="-5" y2="0" style="fill: none; stroke: #888; stroke-width: 1; opacity: 1;"></line><line transform="translate(0,19)" x2="-5" y2="0" style="fill: none; stroke: #888; stroke-width: 1; opacity: 1;"></line></g><g class="mark-text role-axis-label" style="pointer-events: none;"><text text-anchor="end" transform="translate(-7,250.07142857142858)" style="font-family: sans-serif; font-size: 14px; fill: #000; opacity: 1;">-30</text><text text-anchor="end" transform="translate(-7,212.21428571428572)" style="font-family: sans-serif; font-size: 14px; fill: #000; opacity: 1;">-20</text><text text-anchor="end" transform="translate(-7,174.35714285714283)" style="font-family: sans-serif; font-size: 14px; fill: #000; opacity: 1;">-10</text><text text-anchor="end" transform="translate(-7,136.5)" style="font-family: sans-serif; font-size: 14px; fill: #000; opacity: 1;">0</text><text text-anchor="end" transform="translate(-7,98.64285714285712)" style="font-family: sans-serif; font-size: 14px; fill: #000; opacity: 1;">10</text><text text-anchor="end" transform="translate(-7,60.78571428571429)" style="font-family: sans-serif; font-size: 14px; fill: #000; opacity: 1;">20</text><text text-anchor="end" transform="translate(-7,22.92857142857142)" style="font-family: sans-serif; font-size: 14px; fill: #000; opacity: 1;">30</text></g><g class="mark-rule role-axis-domain" style="pointer-events: none;"><line transform="translate(0,265)" x2="0" y2="-265" style="fill: none; stroke: #888; stroke-width: 1; opacity: 1;"></line></g><g class="mark-text role-axis-title" style="pointer-events: none;"><text text-anchor="middle" transform="translate(-31.234375,132.5) rotate(-90) translate(0,-3)" style="font-family: sans-serif; font-size: 14px; font-weight: bold; fill: #000; opacity: 1;">Positivos menos confirmados</text></g></g><path class="foreground" d="" style="pointer-events: none; display: none; fill: none;"></path></g></g><g class="mark-rect role-mark marks"><path d="M1,132.5h7.582089552238806v11.35714285714289h-7.582089552238806Z" style="fill: orange;"></path><path d="M18.16417910447761,132.5h7.582089552238806v15.142857142857139h-7.582089552238806Z" style="fill: orange;"></path><path d="M26.746268656716417,132.5h7.582089552238806v22.714285714285694h-7.582089552238806Z" style="fill: orange;"></path><path d="M35.32835820895522,132.5h7.582089552238806v0h-7.582089552238806Z" style="fill: teal;"></path><path d="M43.91044776119403,132.5h7.582089552238806v3.7857142857142776h-7.582089552238806Z" style="fill: orange;"></path><path d="M52.492537313432834,128.71428571428572h7.582089552238806v3.7857142857142776h-7.582089552238806Z" style="fill: teal;"></path><path d="M61.07462686567164,132.5h7.582089552238806v0h-7.582089552238806Z" style="fill: teal;"></path><path d="M69.65671641791045,132.5h7.582089552238813v30.285714285714306h-7.582089552238813Z" style="fill: orange;"></path><path d="M78.23880597014926,132.5h7.5820895522387985v34.071428571428555h-7.5820895522387985Z" style="fill: orange;"></path><path d="M86.82089552238806,132.5h7.582089552238813v0h-7.582089552238813Z" style="fill: teal;"></path><path d="M95.40298507462687,132.5h7.5820895522387985v26.5h-7.5820895522387985Z" style="fill: orange;"></path><path d="M103.98507462686567,87.07142857142858h7.582089552238813v45.428571428571416h-7.582089552238813Z" style="fill: teal;"></path><path d="M112.56716417910448,132.5h7.5820895522387985v15.142857142857139h-7.5820895522387985Z" style="fill: orange;"></path><path d="M121.14925373134328,132.5h7.582089552238827v26.5h-7.582089552238827Z" style="fill: orange;"></path><path d="M129.7313432835821,132.5h7.582089552238784v37.85714285714283h-7.582089552238784Z" style="fill: orange;"></path><path d="M138.3134328358209,132.5h7.582089552238813v11.35714285714289h-7.582089552238813Z" style="fill: orange;"></path><path d="M146.8955223880597,132.5h7.582089552238813v37.85714285714283h-7.582089552238813Z" style="fill: orange;"></path><path d="M155.47761194029852,132.5h7.582089552238784v117.35714285714286h-7.582089552238784Z" style="fill: orange;"></path><path d="M164.0597014925373,132.5h7.582089552238813v87.07142857142856h-7.582089552238813Z" style="fill: orange;"></path><path d="M172.6417910447761,132.5h7.582089552238813v68.14285714285714h-7.582089552238813Z" style="fill: orange;"></path><path d="M181.22388059701493,132.5h7.582089552238813v30.285714285714306h-7.582089552238813Z" style="fill: orange;"></path><path d="M189.80597014925374,121.14285714285715h7.582089552238784v11.357142857142847h-7.582089552238784Z" style="fill: teal;"></path><path d="M198.38805970149252,132.5h7.582089552238813v0h-7.582089552238813Z" style="fill: teal;"></path><path d="M206.97014925373134,128.71428571428572h7.582089552238813v3.7857142857142776h-7.582089552238813Z" style="fill: teal;"></path><path d="M215.55223880597015,87.07142857142858h7.582089552238813v45.428571428571416h-7.582089552238813Z" style="fill: teal;"></path><path d="M224.13432835820896,132.5h7.582089552238813v3.7857142857142776h-7.582089552238813Z" style="fill: orange;"></path><path d="M232.71641791044777,117.35714285714285h7.582089552238784v15.142857142857153h-7.582089552238784Z" style="fill: teal;"></path><path d="M241.29850746268656,128.71428571428572h7.582089552238813v3.7857142857142776h-7.582089552238813Z" style="fill: teal;"></path><path d="M249.88059701492537,124.92857142857143h7.582089552238841v7.571428571428569h-7.582089552238841Z" style="fill: teal;"></path><path d="M258.4626865671642,71.92857142857144h7.582089552238756v60.571428571428555h-7.582089552238756Z" style="fill: teal;"></path><path d="M267.04477611940297,75.71428571428571h7.582089552238813v56.78571428571429h-7.582089552238813Z" style="fill: teal;"></path><path d="M275.6268656716418,34.07142857142857h7.582089552238813v98.42857142857143h-7.582089552238813Z" style="fill: teal;"></path><path d="M284.2089552238806,68.14285714285714h7.582089552238813v64.35714285714286h-7.582089552238813Z" style="fill: teal;"></path><path d="M292.7910447761194,87.07142857142858h7.582089552238756v45.428571428571416h-7.582089552238756Z" style="fill: teal;"></path><path d="M301.37313432835816,83.28571428571428h7.58208955223887v49.21428571428572h-7.58208955223887Z" style="fill: teal;"></path><path d="M309.95522388059703,121.14285714285715h7.582089552238813v11.357142857142847h-7.582089552238813Z" style="fill: teal;"></path><path d="M318.53731343283584,37.85714285714287h7.582089552238756v94.64285714285714h-7.582089552238756Z" style="fill: teal;"></path><path d="M327.1194029850746,11.357142857142847h7.582089552238813v121.14285714285715h-7.582089552238813Z" style="fill: teal;"></path><path d="M335.7014925373134,15.142857142857148h7.582089552238813v117.35714285714285h-7.582089552238813Z" style="fill: teal;"></path><path d="M344.2835820895522,56.78571428571429h7.582089552238813v75.71428571428571h-7.582089552238813Z" style="fill: teal;"></path><path d="M352.86567164179104,68.14285714285714h7.582089552238813v64.35714285714286h-7.582089552238813Z" style="fill: teal;"></path><path d="M361.44776119402985,109.78571428571428h7.582089552238813v22.714285714285722h-7.582089552238813Z" style="fill: teal;"></path><path d="M378.6119402985075,37.85714285714287h7.582089552238813v94.64285714285714h-7.582089552238813Z" style="fill: teal;"></path><path d="M387.1940298507463,49.214285714285715h7.582089552238756v83.28571428571428h-7.582089552238756Z" style="fill: teal;"></path><path d="M395.77611940298505,34.07142857142857h7.58208955223887v98.42857142857143h-7.58208955223887Z" style="fill: teal;"></path><path d="M404.3582089552239,52.999999999999986h7.582089552238756v79.50000000000001h-7.582089552238756Z" style="fill: teal;"></path><path d="M412.94029850746267,64.35714285714286h7.582089552238813v68.14285714285714h-7.582089552238813Z" style="fill: teal;"></path><path d="M421.5223880597015,98.42857142857143h7.582089552238813v34.07142857142857h-7.582089552238813Z" style="fill: teal;"></path><path d="M430.1044776119403,132.5h7.582089552238813v0h-7.582089552238813Z" style="fill: teal;"></path><path d="M438.6865671641791,75.71428571428571h7.582089552238813v56.78571428571429h-7.582089552238813Z" style="fill: teal;"></path><path d="M447.2686567164179,113.57142857142858h7.582089552238756v18.928571428571416h-7.582089552238756Z" style="fill: teal;"></path><path d="M455.8507462686567,132.5h7.58208955223887v3.7857142857142776h-7.58208955223887Z" style="fill: orange;"></path><path d="M464.43283582089555,132.5h7.582089552238813v0h-7.582089552238813Z" style="fill: teal;"></path><path d="M473.01492537313436,106h7.582089552238756v26.5h-7.582089552238756Z" style="fill: teal;"></path><path d="M481.5970149253731,132.5h7.582089552238813v0h-7.582089552238813Z" style="fill: teal;"></path><path d="M498.76119402985074,117.35714285714285h7.582089552238813v15.142857142857153h-7.582089552238813Z" style="fill: teal;"></path><path d="M507.34328358208955,128.71428571428572h7.58208955223887v3.7857142857142776h-7.58208955223887Z" style="fill: teal;"></path><path d="M515.9253731343284,132.5h7.582089552238699v7.571428571428584h-7.582089552238699Z" style="fill: orange;"></path><path d="M524.5074626865671,132.5h7.582089552238813v0h-7.582089552238813Z" style="fill: teal;"></path><path d="M533.0895522388059,121.14285714285715h7.582089552238813v11.357142857142847h-7.582089552238813Z" style="fill: teal;"></path><path d="M541.6716417910447,124.92857142857143h7.582089552238813v7.571428571428569h-7.582089552238813Z" style="fill: teal;"></path><path d="M550.2537313432836,128.71428571428572h7.582089552238813v3.7857142857142776h-7.582089552238813Z" style="fill: teal;"></path><path d="M558.8358208955224,132.5h7.582089552238813v18.928571428571416h-7.582089552238813Z" style="fill: orange;"></path><path d="M567.4179104477612,132.5h7.582089552238813v3.7857142857142776h-7.582089552238813Z" style="fill: orange;"></path></g></g><path class="foreground" d="" style="display: none; fill: none;"></path></g></g></g></svg>