<svg class="marks" width="656" height="589" viewBox="0 0 656 589" version="1.1" xmlns="http://www.w3.org/2000/svg" xmlns:xlink="http://www.w3.org/1999/xlink"><rect width="656" height="589" style="fill: white;"></rect><g transform="translate(6,54)"><g class="mark-group role-frame root"><g transform="translate(0,0)"><path class="background" d="M0,0h0v0h0Z" style="fill: none;"></path><g><g class="mark-group role-column-title facet-title"><g transform="translate(322,-25)"><path class="background" d="M0,0h0v0h0Z" style="fill: none;"></path><g><g class="mark-group role-title"><g transform="translate(0,-24)"><path class="background" d="M0,0h0v0h0Z" style="pointer-events: none; fill: none;"></path><g><g class="mark-text role-title-text" style="pointer-events: none;"><text text-anchor="middle" transform="translate(0,11)" style="font-family: sans-serif; font-size: 14px; font-weight: bold; fill: #000; opacity: 1;">Fecha del boletín</text></g></g><path class="foreground" d="" style="pointer-events: none; display: none; fill: none;"></path></g></g></g><path class="foreground" d="" style="display: none; fill: none;"></path></g></g><g class="mark-group role-column-footer column_footer"><g transform="translate(0,459)"><path class="background" d="M0,0h300v0h-300Z" style="fill: none;"></path><g><g class="mark-group role-axis"><g transform="translate(0.5,0.5)"><path class="background" d="M0,0h0v0h0Z" style="pointer-events: none; fill: none;"></path><g><g class="mark-rule role-axis-tick" style="pointer-events: none;"><line transform="translate(0,0)" x2="0" y2="5" style="fill: none; stroke: #888; stroke-width: 1; opacity: 1;"></line><line transform="translate(25,0)" x2="0" y2="5" style="fill: none; stroke: #888; stroke-width: 1; opacity: 1;"></line><line transform="translate(50,0)" x2="0" y2="5" style="fill: none; stroke: #888; stroke-width: 1; opacity: 1;"></line><line transform="translate(75,0)" x2="0" y2="5" style="fill: none; stroke: #888; stroke-width: 1; opacity: 1;"></line><line transform="translate(100,0)" x2="0" y2="5" style="fill: none; stroke: #888; stroke-width: 1; opacity: 1;"></line><line transform="translate(125,0)" x2="0" y2="5" style="fill: none; stroke: #888; stroke-width: 1; opacity: 1;"></line><line transform="translate(150,0)" x2="0" y2="5" style="fill: none; stroke: #888; stroke-width: 1; opacity: 1;"></line><line transform="translate(175,0)" x2="0" y2="5" style="fill: none; stroke: #888; stroke-width: 1; opacity: 1;"></line><line transform="translate(200,0)" x2="0" y2="5" style="fill: none; stroke: #888; stroke-width: 1; opacity: 1;"></line><line transform="translate(225,0)" x2="0" y2="5" style="fill: none; stroke: #888; stroke-width: 1; opacity: 1;"></line><line transform="translate(250,0)" x2="0" y2="5" style="fill: none; stroke: #888; stroke-width: 1; opacity: 1;"></line><line transform="translate(275,0)" x2="0" y2="5" style="fill: none; stroke: #888; stroke-width: 1; opacity: 1;"></line><line transform="translate(300,0)" x2="0" y2="5" style="fill: none; stroke: #888; stroke-width: 1; opacity: 1;"></line></g><g class="mark-text role-axis-label" style="pointer-events: none;"><text text-anchor="start" transform="translate(0,18)" style="font-family: sans-serif; font-size: 14px; fill: #000; opacity: 1;">0</text><text text-anchor="middle" transform="translate(25,18)" style="font-family: sans-serif; font-size: 14px; fill: #000; opacity: 1;">2</text><text text-anchor="middle" transform="translate(50,18)" style="font-family: sans-serif; font-size: 14px; fill: #000; opacity: 1;">4</text><text text-anchor="middle" transform="translate(75,18)" style="font-family: sans-serif; font-size: 14px; fill: #000; opacity: 1;">6</text><text text-anchor="middle" transform="translate(100,18)" style="font-family: sans-serif; font-size: 14px; fill: #000; opacity: 1;">8</text><text text-anchor="middle" transform="translate(125,18)" style="font-family: sans-serif; font-size: 14px; fill: #000; opacity: 1;">10</text><text text-anchor="middle" transform="translate(150,18)" style="font-family: sans-serif; font-size: 14px; fill: #000; opacity: 1;">12</text><text text-anchor="middle" transform="translate(175,18)" style="font-family: sans-serif; font-size: 14px; fill: #000; opacity: 1;">14</text><text text-anchor="middle" transform="translate(200,18)" style="font-family: sans-serif; font-size: 14px; fill: #000; opacity: 1;">16</text><text text-anchor="middle" transform="translate(225,18)" style="font-family: sans-serif; font-size: 14px; fill: #000; opacity: 1;">18</text><text text-anchor="middle" transform="translate(250,18)" style="font-family: sans-serif; font-size: 14px; fill: #000; opacity: 1;">20</text><text text-anchor="middle" transform="translate(275,18)" style="font-family: sans-serif; font-size: 14px; fill: #000; opacity: 1;">22</text><text text-anchor="end" transform="translate(300,18)" style="font-family: sans-serif; font-size: 14px; fill: #000; opacity: 1;">24</text></g><g class="mark-rule role-axis-domain" style="pointer-events: none;"><line transform="translate(0,0)" x2="300" y2="0" style="fill: none; stroke: #888; stroke-width: 1; opacity: 1;"></line></g><g class="mark-text role-axis-title" style="pointer-events: none;"><text text-anchor="middle" transform="translate(150,36)" style="font-family: sans-serif; font-size: 14px; font-weight: bold; fill: #000; opacity: 1;">Rezago estimado (días)</text></g></g><path class="foreground" d="" style="pointer-events: none; display: none; fill: none;"></path></g></g></g><path class="foreground" d="" style="display: none; fill: none;"></path></g><g transform="translate(344,459)"><path class="background" d="M0,0h300v0h-300Z" style="fill: none;"></path><g><g class="mark-group role-axis"><g transform="translate(0.5,0.5)"><path class="background" d="M0,0h0v0h0Z" style="pointer-events: none; fill: none;"></path><g><g class="mark-rule role-axis-tick" style="pointer-events: none;"><line transform="translate(0,0)" x2="0" y2="5" style="fill: none; stroke: #888; stroke-width: 1; opacity: 1;"></line><line transform="translate(25,0)" x2="0" y2="5" style="fill: none; stroke: #888; stroke-width: 1; opacity: 1;"></line><line transform="translate(50,0)" x2="0" y2="5" style="fill: none; stroke: #888; stroke-width: 1; opacity: 1;"></line><line transform="translate(75,0)" x2="0" y2="5" style="fill: none; stroke: #888; stroke-width: 1; opacity: 1;"></line><line transform="translate(100,0)" x2="0" y2="5" style="fill: none; stroke: #888; stroke-width: 1; opacity: 1;"></line><line transform="translate(125,0)" x2="0" y2="5" style="fill: none; stroke: #888; stroke-width: 1; opacity: 1;"></line><line transform="translate(150,0)" x2="0" y2="5" style="fill: none; stroke: #888; stroke-width: 1; opacity: 1;"></line><line transform="translate(175,0)" x2="0" y2="5" style="fill: none; stroke: #888; stroke-width: 1; opacity: 1;"></line><line transform="translate(200,0)" x2="0" y2="5" style="fill: none; stroke: #888; stroke-width: 1; opacity: 1;"></line><line transform="translate(225,0)" x2="0" y2="5" style="fill: none; stroke: #888; stroke-width: 1; opacity: 1;"></line><line transform="translate(250,0)" x2="0" y2="5" style="fill: none; stroke: #888; stroke-width: 1; opacity: 1;"></line><line transform="translate(275,0)" x2="0" y2="5" style="fill: none; stroke: #888; stroke-width: 1; opacity: 1;"></line><line transform="translate(300,0)" x2="0" y2="5" style="fill: none; stroke: #888; stroke-width: 1; opacity: 1;"></line></g><g class="mark-text role-axis-label" style="pointer-events: none;"><text text-anchor="start" transform="translate(0,18)" style="font-family: sans-serif; font-size: 14px; fill: #000; opacity: 1;">0</text><text text-anchor="middle" transform="translate(25,18)" style="font-family: sans-serif; font-size: 14px; fill: #000; opacity: 1;">2</text><text text-anchor="middle" transform="translate(50,18)" style="font-family: sans-serif; font-size: 14px; fill: #000; opacity: 1;">4</text><text text-anchor="middle" transform="translate(75,18)" style="font-family: sans-serif; font-size: 14px; fill: #000; opacity: 1;">6</text><text text-anchor="middle" transform="translate(100,18)" style="font-family: sans-serif; font-size: 14px; fill: #000; opacity: 1;">8</text><text text-anchor="middle" transform="translate(125,18)" style="font-family: sans-serif; font-size: 14px; fill: #000; opacity: 1;">10</text><text text-anchor="middle" transform="translate(150,18)" style="font-family: sans-serif; font-size: 14px; fill: #000; opacity: 1;">12</text><text text-anchor="middle" transform="translate(175,18)" style="font-family: sans-serif; font-size: 14px; fill: #000; opacity: 1;">14</text><text text-anchor="middle" transform="translate(200,18)" style="font-family: sans-serif; font-size: 14px; fill: #000; opacity: 1;">16</text><text text-anchor="middle" transform="translate(225,18)" style="font-family: sans-serif; font-size: 14px; fill: #000; opacity: 1;">18</text><text text-anchor="middle" transform="translate(250,18)" style="font-family: sans-serif; font-size: 14px; fill: #000; opacity: 1;">20</text><text text-anchor="middle" transform="translate(275,18)" style="font-family: sans-serif; font-size: 14px; fill: #000; opacity: 1;">22</text><text text-anchor="end" transform="translate(300,18)" style="font-family: sans-serif; font-size: 14px; fill: #000; opacity: 1;">24</text></g><g class="mark-rule role-axis-domain" style="pointer-events: none;"><line transform="translate(0,0)" x2="300" y2="0" style="fill: none; stroke: #888; stroke-width: 1; opacity: 1;"></line></g><g class="mark-text role-axis-title" style="pointer-events: none;"><text text-anchor="middle" transform="translate(150,36)" style="font-family: sans-serif; font-size: 14px; font-weight: bold; fill: #000; opacity: 1;">Rezago estimado (días)</text></g></g><path class="foreground" d="" style="pointer-events: none; display: none; fill: none;"></path></g></g></g><path class="foreground" d="" style="display: none; fill: none;"></path></g></g><g class="mark-group role-scope cell"><g transform="translate(0,0)"><path class="background" d="M0.5,0.5h300v80h-300Z" style="fill: none; stroke: #ddd;"></path><g><g class="mark-group role-axis"><g transform="translate(0.5,80.5)"><path class="background" d="M0,0h0v0h0Z" style="pointer-events: none; fill: none;"></path><g><g class="mark-rule role-axis-grid" style="pointer-events: none;"><line transform="translate(0,0)" x2="0" y2="-80" style="fill: none; stroke: #ddd; stroke-width: 1; opacity: 1;"></line><line transform="translate(25,0)" x2="0" y2="-80" style="fill: none; stroke: #ddd; stroke-width: 1; opacity: 1;"></line><line transform="translate(50,0)" x2="0" y2="-80" style="fill: none; stroke: #ddd; stroke-width: 1; opacity: 1;"></line><line transform="translate(75,0)" x2="0" y2="-80" style="fill: none; stroke: #ddd; stroke-width: 1; opacity: 1;"></line><line transform="translate(100,0)" x2="0" y2="-80" style="fill: none; stroke: #ddd; stroke-width: 1; opacity: 1;"></line><line transform="translate(125,0)" x2="0" y2="-80" style="fill: none; stroke: #ddd; stroke-width: 1; opacity: 1;"></line><line transform="translate(150,0)" x2="0" y2="-80" style="fill: none; stroke: #ddd; stroke-width: 1; opacity: 1;"></line><line transform="translate(175,0)" x2="0" y2="-80" style="fill: none; stroke: #ddd; stroke-width: 1; opacity: 1;"></line><line transform="translate(200,0)" x2="0" y2="-80" style="fill: none; stroke: #ddd; stroke-width: 1; opacity: 1;"></line><line transform="translate(225,0)" x2="0" y2="-80" style="fill: none; stroke: #ddd; stroke-width: 1; opacity: 1;"></line><line transform="translate(250,0)" x2="0" y2="-80" style="fill: none; stroke: #ddd; stroke-width: 1; opacity: 1;"></line><line transform="translate(275,0)" x2="0" y2="-80" style="fill: none; stroke: #ddd; stroke-width: 1; opacity: 1;"></line><line transform="translate(300,0)" x2="0" y2="-80" style="fill: none; stroke: #ddd; stroke-width: 1; opacity: 1;"></line></g></g><path class="foreground" d="" style="pointer-events: none; display: none; fill: none;"></path></g></g><g class="mark-rect role-mark child_layer_0_marks"><path d="M0,1h118.47222222222223v18h-118.47222222222223Z" style="fill: #4c78a8;"></path><path d="M0,21h90.27777777777779v18h-90.27777777777779Z" style="fill: #f58518;"></path><path d="M0,41h121.53179190751445v18h-121.53179190751445Z" style="fill: #e45756;"></path><path d="M0,61h112.5v18h-112.5Z" style="fill: #72b7b2;"></path></g><g class="mark-text role-mark child_layer_1_marks"><text text-anchor="end" transform="translate(113.47222222222223,14)" style="font-family: sans-serif; font-size: 12px; fill: white;">9.5</text><text text-anchor="end" transform="translate(85.27777777777779,34)" style="font-family: sans-serif; font-size: 12px; fill: white;">7.2</text><text text-anchor="end" transform="translate(116.53179190751445,54)" style="font-family: sans-serif; font-size: 12px; fill: white;">9.7</text><text text-anchor="end" transform="translate(107.5,74)" style="font-family: sans-serif; font-size: 12px; fill: white;">9.0</text></g><g class="mark-group role-title"><g transform="translate(150,-24)"><path class="background" d="M0,0h0v0h0Z" style="pointer-events: none; fill: none;"></path><g><g class="mark-text role-title-text" style="pointer-events: none;"><text text-anchor="middle" transform="translate(0,11)" style="font-family: sans-serif; font-size: 14px; fill: #000; opacity: 1;">may 01, 2020</text></g></g><path class="foreground" d="" style="pointer-events: none; display: none; fill: none;"></path></g></g></g><path class="foreground" d="" style="display: none; fill: none;"></path></g><g transform="translate(344,0)"><path class="background" d="M0.5,0.5h300v80h-300Z" style="fill: none; stroke: #ddd;"></path><g><g class="mark-group role-axis"><g transform="translate(0.5,80.5)"><path class="background" d="M0,0h0v0h0Z" style="pointer-events: none; fill: none;"></path><g><g class="mark-rule role-axis-grid" style="pointer-events: none;"><line transform="translate(0,0)" x2="0" y2="-80" style="fill: none; stroke: #ddd; stroke-width: 1; opacity: 1;"></line><line transform="translate(25,0)" x2="0" y2="-80" style="fill: none; stroke: #ddd; stroke-width: 1; opacity: 1;"></line><line transform="translate(50,0)" x2="0" y2="-80" style="fill: none; stroke: #ddd; stroke-width: 1; opacity: 1;"></line><line transform="translate(75,0)" x2="0" y2="-80" style="fill: none; stroke: #ddd; stroke-width: 1; opacity: 1;"></line><line transform="translate(100,0)" x2="0" y2="-80" style="fill: none; stroke: #ddd; stroke-width: 1; opacity: 1;"></line><line transform="translate(125,0)" x2="0" y2="-80" style="fill: none; stroke: #ddd; stroke-width: 1; opacity: 1;"></line><line transform="translate(150,0)" x2="0" y2="-80" style="fill: none; stroke: #ddd; stroke-width: 1; opacity: 1;"></line><line transform="translate(175,0)" x2="0" y2="-80" style="fill: none; stroke: #ddd; stroke-width: 1; opacity: 1;"></line><line transform="translate(200,0)" x2="0" y2="-80" style="fill: none; stroke: #ddd; stroke-width: 1; opacity: 1;"></line><line transform="translate(225,0)" x2="0" y2="-80" style="fill: none; stroke: #ddd; stroke-width: 1; opacity: 1;"></line><line transform="translate(250,0)" x2="0" y2="-80" style="fill: none; stroke: #ddd; stroke-width: 1; opacity: 1;"></line><line transform="translate(275,0)" x2="0" y2="-80" style="fill: none; stroke: #ddd; stroke-width: 1; opacity: 1;"></line><line transform="translate(300,0)" x2="0" y2="-80" style="fill: none; stroke: #ddd; stroke-width: 1; opacity: 1;"></line></g></g><path class="foreground" d="" style="pointer-events: none; display: none; fill: none;"></path></g></g><g class="mark-rect role-mark child_layer_0_marks"><path d="M0,1h87.17105263157895v18h-87.17105263157895Z" style="fill: #4c78a8;"></path><path d="M0,21h112.5v18h-112.5Z" style="fill: #f58518;"></path><path d="M0,41h67.12962962962963v18h-67.12962962962963Z" style="fill: #e45756;"></path><path d="M0,61h0v18h0Z" style="fill: #72b7b2;"></path></g><g class="mark-text role-mark child_layer_1_marks"><text text-anchor="end" transform="translate(82.17105263157895,14)" style="font-family: sans-serif; font-size: 12px; fill: white;">7.0</text><text text-anchor="end" transform="translate(107.5,34)" style="font-family: sans-serif; font-size: 12px; fill: white;">9.0</text><text text-anchor="end" transform="translate(62.12962962962963,54)" style="font-family: sans-serif; font-size: 12px; fill: white;">5.4</text><text text-anchor="end" transform="translate(-5,74)" style="font-family: sans-serif; font-size: 12px; fill: white;">0.0</text></g><g class="mark-group role-title"><g transform="translate(150,-24)"><path class="background" d="M0,0h0v0h0Z" style="pointer-events: none; fill: none;"></path><g><g class="mark-text role-title-text" style="pointer-events: none;"><text text-anchor="middle" transform="translate(0,11)" style="font-family: sans-serif; font-size: 14px; fill: #000; opacity: 1;">abr 30, 2020</text></g></g><path class="foreground" d="" style="pointer-events: none; display: none; fill: none;"></path></g></g></g><path class="foreground" d="" style="display: none; fill: none;"></path></g><g transform="translate(0,126)"><path class="background" d="M0.5,0.5h300v80h-300Z" style="fill: none; stroke: #ddd;"></path><g><g class="mark-group role-axis"><g transform="translate(0.5,80.5)"><path class="background" d="M0,0h0v0h0Z" style="pointer-events: none; fill: none;"></path><g><g class="mark-rule role-axis-grid" style="pointer-events: none;"><line transform="translate(0,0)" x2="0" y2="-80" style="fill: none; stroke: #ddd; stroke-width: 1; opacity: 1;"></line><line transform="translate(25,0)" x2="0" y2="-80" style="fill: none; stroke: #ddd; stroke-width: 1; opacity: 1;"></line><line transform="translate(50,0)" x2="0" y2="-80" style="fill: none; stroke: #ddd; stroke-width: 1; opacity: 1;"></line><line transform="translate(75,0)" x2="0" y2="-80" style="fill: none; stroke: #ddd; stroke-width: 1; opacity: 1;"></line><line transform="translate(100,0)" x2="0" y2="-80" style="fill: none; stroke: #ddd; stroke-width: 1; opacity: 1;"></line><line transform="translate(125,0)" x2="0" y2="-80" style="fill: none; stroke: #ddd; stroke-width: 1; opacity: 1;"></line><line transform="translate(150,0)" x2="0" y2="-80" style="fill: none; stroke: #ddd; stroke-width: 1; opacity: 1;"></line><line transform="translate(175,0)" x2="0" y2="-80" style="fill: none; stroke: #ddd; stroke-width: 1; opacity: 1;"></line><line transform="translate(200,0)" x2="0" y2="-80" style="fill: none; stroke: #ddd; stroke-width: 1; opacity: 1;"></line><line transform="translate(225,0)" x2="0" y2="-80" style="fill: none; stroke: #ddd; stroke-width: 1; opacity: 1;"></line><line transform="translate(250,0)" x2="0" y2="-80" style="fill: none; stroke: #ddd; stroke-width: 1; opacity: 1;"></line><line transform="translate(275,0)" x2="0" y2="-80" style="fill: none; stroke: #ddd; stroke-width: 1; opacity: 1;"></line><line transform="translate(300,0)" x2="0" y2="-80" style="fill: none; stroke: #ddd; stroke-width: 1; opacity: 1;"></line></g></g><path class="foreground" d="" style="pointer-events: none; display: none; fill: none;"></path></g></g><g class="mark-rect role-mark child_layer_0_marks"><path d="M0,1h92.45283018867924v18h-92.45283018867924Z" style="fill: #4c78a8;"></path><path d="M0,21h125.98039215686275v18h-125.98039215686275Z" style="fill: #f58518;"></path><path d="M0,41h58.333333333333336v18h-58.333333333333336Z" style="fill: #e45756;"></path><path d="M0,61h110.41666666666667v18h-110.41666666666667Z" style="fill: #72b7b2;"></path></g><g class="mark-text role-mark child_layer_1_marks"><text text-anchor="end" transform="translate(87.45283018867924,14)" style="font-family: sans-serif; font-size: 12px; fill: white;">7.4</text><text text-anchor="end" transform="translate(120.98039215686275,34)" style="font-family: sans-serif; font-size: 12px; fill: white;">10.1</text><text text-anchor="end" transform="translate(53.333333333333336,54)" style="font-family: sans-serif; font-size: 12px; fill: white;">4.7</text><text text-anchor="end" transform="translate(105.41666666666667,74)" style="font-family: sans-serif; font-size: 12px; fill: white;">8.8</text></g><g class="mark-group role-title"><g transform="translate(150,-24)"><path class="background" d="M0,0h0v0h0Z" style="pointer-events: none; fill: none;"></path><g><g class="mark-text role-title-text" style="pointer-events: none;"><text text-anchor="middle" transform="translate(0,11)" style="font-family: sans-serif; font-size: 14px; fill: #000; opacity: 1;">abr 29, 2020</text></g></g><path class="foreground" d="" style="pointer-events: none; display: none; fill: none;"></path></g></g></g><path class="foreground" d="" style="display: none; fill: none;"></path></g><g transform="translate(344,126)"><path class="background" d="M0.5,0.5h300v80h-300Z" style="fill: none; stroke: #ddd;"></path><g><g class="mark-group role-axis"><g transform="translate(0.5,80.5)"><path class="background" d="M0,0h0v0h0Z" style="pointer-events: none; fill: none;"></path><g><g class="mark-rule role-axis-grid" style="pointer-events: none;"><line transform="translate(0,0)" x2="0" y2="-80" style="fill: none; stroke: #ddd; stroke-width: 1; opacity: 1;"></line><line transform="translate(25,0)" x2="0" y2="-80" style="fill: none; stroke: #ddd; stroke-width: 1; opacity: 1;"></line><line transform="translate(50,0)" x2="0" y2="-80" style="fill: none; stroke: #ddd; stroke-width: 1; opacity: 1;"></line><line transform="translate(75,0)" x2="0" y2="-80" style="fill: none; stroke: #ddd; stroke-width: 1; opacity: 1;"></line><line transform="translate(100,0)" x2="0" y2="-80" style="fill: none; stroke: #ddd; stroke-width: 1; opacity: 1;"></line><line transform="translate(125,0)" x2="0" y2="-80" style="fill: none; stroke: #ddd; stroke-width: 1; opacity: 1;"></line><line transform="translate(150,0)" x2="0" y2="-80" style="fill: none; stroke: #ddd; stroke-width: 1; opacity: 1;"></line><line transform="translate(175,0)" x2="0" y2="-80" style="fill: none; stroke: #ddd; stroke-width: 1; opacity: 1;"></line><line transform="translate(200,0)" x2="0" y2="-80" style="fill: none; stroke: #ddd; stroke-width: 1; opacity: 1;"></line><line transform="translate(225,0)" x2="0" y2="-80" style="fill: none; stroke: #ddd; stroke-width: 1; opacity: 1;"></line><line transform="translate(250,0)" x2="0" y2="-80" style="fill: none; stroke: #ddd; stroke-width: 1; opacity: 1;"></line><line transform="translate(275,0)" x2="0" y2="-80" style="fill: none; stroke: #ddd; stroke-width: 1; opacity: 1;"></line><line transform="translate(300,0)" x2="0" y2="-80" style="fill: none; stroke: #ddd; stroke-width: 1; opacity: 1;"></line></g></g><path class="foreground" d="" style="pointer-events: none; display: none; fill: none;"></path></g></g><g class="mark-rect role-mark child_layer_0_marks"><path d="M0,1h76.5151515151515v18h-76.5151515151515Z" style="fill: #4c78a8;"></path><path d="M0,21h120.83333333333331v18h-120.83333333333331Z" style="fill: #f58518;"></path><path d="M0,41h65.54054054054053v18h-65.54054054054053Z" style="fill: #e45756;"></path></g><g class="mark-text role-mark child_layer_1_marks"><text text-anchor="end" transform="translate(71.5151515151515,14)" style="font-family: sans-serif; font-size: 12px; fill: white;">6.1</text><text text-anchor="end" transform="translate(115.83333333333331,34)" style="font-family: sans-serif; font-size: 12px; fill: white;">9.7</text><text text-anchor="end" transform="translate(60.54054054054053,54)" style="font-family: sans-serif; font-size: 12px; fill: white;">5.2</text></g><g class="mark-group role-title"><g transform="translate(150,-24)"><path class="background" d="M0,0h0v0h0Z" style="pointer-events: none; fill: none;"></path><g><g class="mark-text role-title-text" style="pointer-events: none;"><text text-anchor="middle" transform="translate(0,11)" style="font-family: sans-serif; font-size: 14px; fill: #000; opacity: 1;">abr 28, 2020</text></g></g><path class="foreground" d="" style="pointer-events: none; display: none; fill: none;"></path></g></g></g><path class="foreground" d="" style="display: none; fill: none;"></path></g><g transform="translate(0,252)"><path class="background" d="M0.5,0.5h300v80h-300Z" style="fill: none; stroke: #ddd;"></path><g><g class="mark-group role-axis"><g transform="translate(0.5,80.5)"><path class="background" d="M0,0h0v0h0Z" style="pointer-events: none; fill: none;"></path><g><g class="mark-rule role-axis-grid" style="pointer-events: none;"><line transform="translate(0,0)" x2="0" y2="-80" style="fill: none; stroke: #ddd; stroke-width: 1; opacity: 1;"></line><line transform="translate(25,0)" x2="0" y2="-80" style="fill: none; stroke: #ddd; stroke-width: 1; opacity: 1;"></line><line transform="translate(50,0)" x2="0" y2="-80" style="fill: none; stroke: #ddd; stroke-width: 1; opacity: 1;"></line><line transform="translate(75,0)" x2="0" y2="-80" style="fill: none; stroke: #ddd; stroke-width: 1; opacity: 1;"></line><line transform="translate(100,0)" x2="0" y2="-80" style="fill: none; stroke: #ddd; stroke-width: 1; opacity: 1;"></line><line transform="translate(125,0)" x2="0" y2="-80" style="fill: none; stroke: #ddd; stroke-width: 1; opacity: 1;"></line><line transform="translate(150,0)" x2="0" y2="-80" style="fill: none; stroke: #ddd; stroke-width: 1; opacity: 1;"></line><line transform="translate(175,0)" x2="0" y2="-80" style="fill: none; stroke: #ddd; stroke-width: 1; opacity: 1;"></line><line transform="translate(200,0)" x2="0" y2="-80" style="fill: none; stroke: #ddd; stroke-width: 1; opacity: 1;"></line><line transform="translate(225,0)" x2="0" y2="-80" style="fill: none; stroke: #ddd; stroke-width: 1; opacity: 1;"></line><line transform="translate(250,0)" x2="0" y2="-80" style="fill: none; stroke: #ddd; stroke-width: 1; opacity: 1;"></line><line transform="translate(275,0)" x2="0" y2="-80" style="fill: none; stroke: #ddd; stroke-width: 1; opacity: 1;"></line><line transform="translate(300,0)" x2="0" y2="-80" style="fill: none; stroke: #ddd; stroke-width: 1; opacity: 1;"></line></g></g><path class="foreground" d="" style="pointer-events: none; display: none; fill: none;"></path></g></g><g class="mark-rect role-mark child_layer_0_marks"><path d="M0,1h57.95454545454546v18h-57.95454545454546Z" style="fill: #4c78a8;"></path><path d="M0,21h91.66666666666666v18h-91.66666666666666Z" style="fill: #f58518;"></path><path d="M0,41h45.3125v18h-45.3125Z" style="fill: #e45756;"></path><path d="M0,61h108.33333333333333v18h-108.33333333333333Z" style="fill: #72b7b2;"></path></g><g class="mark-text role-mark child_layer_1_marks"><text text-anchor="end" transform="translate(52.95454545454546,14)" style="font-family: sans-serif; font-size: 12px; fill: white;">4.6</text><text text-anchor="end" transform="translate(86.66666666666666,34)" style="font-family: sans-serif; font-size: 12px; fill: white;">7.3</text><text text-anchor="end" transform="translate(40.3125,54)" style="font-family: sans-serif; font-size: 12px; fill: white;">3.6</text><text text-anchor="end" transform="translate(103.33333333333333,74)" style="font-family: sans-serif; font-size: 12px; fill: white;">8.7</text></g><g class="mark-group role-title"><g transform="translate(150,-24)"><path class="background" d="M0,0h0v0h0Z" style="pointer-events: none; fill: none;"></path><g><g class="mark-text role-title-text" style="pointer-events: none;"><text text-anchor="middle" transform="translate(0,11)" style="font-family: sans-serif; font-size: 14px; fill: #000; opacity: 1;">abr 27, 2020</text></g></g><path class="foreground" d="" style="pointer-events: none; display: none; fill: none;"></path></g></g></g><path class="foreground" d="" style="display: none; fill: none;"></path></g><g transform="translate(344,252)"><path class="background" d="M0.5,0.5h300v80h-300Z" style="fill: none; stroke: #ddd;"></path><g><g class="mark-group role-axis"><g transform="translate(0.5,80.5)"><path class="background" d="M0,0h0v0h0Z" style="pointer-events: none; fill: none;"></path><g><g class="mark-rule role-axis-grid" style="pointer-events: none;"><line transform="translate(0,0)" x2="0" y2="-80" style="fill: none; stroke: #ddd; stroke-width: 1; opacity: 1;"></line><line transform="translate(25,0)" x2="0" y2="-80" style="fill: none; stroke: #ddd; stroke-width: 1; opacity: 1;"></line><line transform="translate(50,0)" x2="0" y2="-80" style="fill: none; stroke: #ddd; stroke-width: 1; opacity: 1;"></line><line transform="translate(75,0)" x2="0" y2="-80" style="fill: none; stroke: #ddd; stroke-width: 1; opacity: 1;"></line><line transform="translate(100,0)" x2="0" y2="-80" style="fill: none; stroke: #ddd; stroke-width: 1; opacity: 1;"></line><line transform="translate(125,0)" x2="0" y2="-80" style="fill: none; stroke: #ddd; stroke-width: 1; opacity: 1;"></line><line transform="translate(150,0)" x2="0" y2="-80" style="fill: none; stroke: #ddd; stroke-width: 1; opacity: 1;"></line><line transform="translate(175,0)" x2="0" y2="-80" style="fill: none; stroke: #ddd; stroke-width: 1; opacity: 1;"></line><line transform="translate(200,0)" x2="0" y2="-80" style="fill: none; stroke: #ddd; stroke-width: 1; opacity: 1;"></line><line transform="translate(225,0)" x2="0" y2="-80" style="fill: none; stroke: #ddd; stroke-width: 1; opacity: 1;"></line><line transform="translate(250,0)" x2="0" y2="-80" style="fill: none; stroke: #ddd; stroke-width: 1; opacity: 1;"></line><line transform="translate(275,0)" x2="0" y2="-80" style="fill: none; stroke: #ddd; stroke-width: 1; opacity: 1;"></line><line transform="translate(300,0)" x2="0" y2="-80" style="fill: none; stroke: #ddd; stroke-width: 1; opacity: 1;"></line></g></g><path class="foreground" d="" style="pointer-events: none; display: none; fill: none;"></path></g></g><g class="mark-rect role-mark child_layer_0_marks"><path d="M0,1h90.27777777777779v18h-90.27777777777779Z" style="fill: #4c78a8;"></path><path d="M0,21h150v18h-150Z" style="fill: #f58518;"></path><path d="M0,41h73.21428571428571v18h-73.21428571428571Z" style="fill: #e45756;"></path></g><g class="mark-text role-mark child_layer_1_marks"><text text-anchor="end" transform="translate(85.27777777777779,14)" style="font-family: sans-serif; font-size: 12px; fill: white;">7.2</text><text text-anchor="end" transform="translate(145,34)" style="font-family: sans-serif; font-size: 12px; fill: white;">12.0</text><text text-anchor="end" transform="translate(68.21428571428571,54)" style="font-family: sans-serif; font-size: 12px; fill: white;">5.9</text></g><g class="mark-group role-title"><g transform="translate(150,-24)"><path class="background" d="M0,0h0v0h0Z" style="pointer-events: none; fill: none;"></path><g><g class="mark-text role-title-text" style="pointer-events: none;"><text text-anchor="middle" transform="translate(0,11)" style="font-family: sans-serif; font-size: 14px; fill: #000; opacity: 1;">abr 26, 2020</text></g></g><path class="foreground" d="" style="pointer-events: none; display: none; fill: none;"></path></g></g></g><path class="foreground" d="" style="display: none; fill: none;"></path></g><g transform="translate(0,378)"><path class="background" d="M0.5,0.5h300v80h-300Z" style="fill: none; stroke: #ddd;"></path><g><g class="mark-group role-axis"><g transform="translate(0.5,80.5)"><path class="background" d="M0,0h0v0h0Z" style="pointer-events: none; fill: none;"></path><g><g class="mark-rule role-axis-grid" style="pointer-events: none;"><line transform="translate(0,0)" x2="0" y2="-80" style="fill: none; stroke: #ddd; stroke-width: 1; opacity: 1;"></line><line transform="translate(25,0)" x2="0" y2="-80" style="fill: none; stroke: #ddd; stroke-width: 1; opacity: 1;"></line><line transform="translate(50,0)" x2="0" y2="-80" style="fill: none; stroke: #ddd; stroke-width: 1; opacity: 1;"></line><line transform="translate(75,0)" x2="0" y2="-80" style="fill: none; stroke: #ddd; stroke-width: 1; opacity: 1;"></line><line transform="translate(100,0)" x2="0" y2="-80" style="fill: none; stroke: #ddd; stroke-width: 1; opacity: 1;"></line><line transform="translate(125,0)" x2="0" y2="-80" style="fill: none; stroke: #ddd; stroke-width: 1; opacity: 1;"></line><line transform="translate(150,0)" x2="0" y2="-80" style="fill: none; stroke: #ddd; stroke-width: 1; opacity: 1;"></line><line transform="translate(175,0)" x2="0" y2="-80" style="fill: none; stroke: #ddd; stroke-width: 1; opacity: 1;"></line><line transform="translate(200,0)" x2="0" y2="-80" style="fill: none; stroke: #ddd; stroke-width: 1; opacity: 1;"></line><line transform="translate(225,0)" x2="0" y2="-80" style="fill: none; stroke: #ddd; stroke-width: 1; opacity: 1;"></line><line transform="translate(250,0)" x2="0" y2="-80" style="fill: none; stroke: #ddd; stroke-width: 1; opacity: 1;"></line><line transform="translate(275,0)" x2="0" y2="-80" style="fill: none; stroke: #ddd; stroke-width: 1; opacity: 1;"></line><line transform="translate(300,0)" x2="0" y2="-80" style="fill: none; stroke: #ddd; stroke-width: 1; opacity: 1;"></line></g></g><path class="foreground" d="" style="pointer-events: none; display: none; fill: none;"></path></g></g><g class="mark-rect role-mark child_layer_0_marks"><path d="M0,1h60.546875v18h-60.546875Z" style="fill: #4c78a8;"></path><path d="M0,21h89.42307692307692v18h-89.42307692307692Z" style="fill: #f58518;"></path><path d="M0,41h53.18627450980392v18h-53.18627450980392Z" style="fill: #e45756;"></path><path d="M0,61h219.94047619047618v18h-219.94047619047618Z" style="fill: #72b7b2;"></path></g><g class="mark-text role-mark child_layer_1_marks"><text text-anchor="end" transform="translate(55.546875,14)" style="font-family: sans-serif; font-size: 12px; fill: white;">4.8</text><text text-anchor="end" transform="translate(84.42307692307692,34)" style="font-family: sans-serif; font-size: 12px; fill: white;">7.2</text><text text-anchor="end" transform="translate(48.18627450980392,54)" style="font-family: sans-serif; font-size: 12px; fill: white;">4.3</text><text text-anchor="end" transform="translate(214.94047619047618,74)" style="font-family: sans-serif; font-size: 12px; fill: white;">17.6</text></g><g class="mark-group role-title"><g transform="translate(150,-24)"><path class="background" d="M0,0h0v0h0Z" style="pointer-events: none; fill: none;"></path><g><g class="mark-text role-title-text" style="pointer-events: none;"><text text-anchor="middle" transform="translate(0,11)" style="font-family: sans-serif; font-size: 14px; fill: #000; opacity: 1;">abr 25, 2020</text></g></g><path class="foreground" d="" style="pointer-events: none; display: none; fill: none;"></path></g></g></g><path class="foreground" d="" style="display: none; fill: none;"></path></g><g transform="translate(344,378)"><path class="background" d="M0.5,0.5h300v80h-300Z" style="fill: none; stroke: #ddd;"></path><g><g class="mark-group role-axis"><g transform="translate(0.5,80.5)"><path class="background" d="M0,0h0v0h0Z" style="pointer-events: none; fill: none;"></path><g><g class="mark-rule role-axis-grid" style="pointer-events: none;"><line transform="translate(0,0)" x2="0" y2="-80" style="fill: none; stroke: #ddd; stroke-width: 1; opacity: 1;"></line><line transform="translate(25,0)" x2="0" y2="-80" style="fill: none; stroke: #ddd; stroke-width: 1; opacity: 1;"></line><line transform="translate(50,0)" x2="0" y2="-80" style="fill: none; stroke: #ddd; stroke-width: 1; opacity: 1;"></line><line transform="translate(75,0)" x2="0" y2="-80" style="fill: none; stroke: #ddd; stroke-width: 1; opacity: 1;"></line><line transform="translate(100,0)" x2="0" y2="-80" style="fill: none; stroke: #ddd; stroke-width: 1; opacity: 1;"></line><line transform="translate(125,0)" x2="0" y2="-80" style="fill: none; stroke: #ddd; stroke-width: 1; opacity: 1;"></line><line transform="translate(150,0)" x2="0" y2="-80" style="fill: none; stroke: #ddd; stroke-width: 1; opacity: 1;"></line><line transform="translate(175,0)" x2="0" y2="-80" style="fill: none; stroke: #ddd; stroke-width: 1; opacity: 1;"></line><line transform="translate(200,0)" x2="0" y2="-80" style="fill: none; stroke: #ddd; stroke-width: 1; opacity: 1;"></line><line transform="translate(225,0)" x2="0" y2="-80" style="fill: none; stroke: #ddd; stroke-width: 1; opacity: 1;"></line><line transform="translate(250,0)" x2="0" y2="-80" style="fill: none; stroke: #ddd; stroke-width: 1; opacity: 1;"></line><line transform="translate(275,0)" x2="0" y2="-80" style="fill: none; stroke: #ddd; stroke-width: 1; opacity: 1;"></line><line transform="translate(300,0)" x2="0" y2="-80" style="fill: none; stroke: #ddd; stroke-width: 1; opacity: 1;"></line></g></g><path class="foreground" d="" style="pointer-events: none; display: none; fill: none;"></path></g></g><g class="mark-rect role-mark child_layer_0_marks"><path d="M0,1h127.41935483870968v18h-127.41935483870968Z" style="fill: #4c78a8;"></path><path d="M0,21h291.0734624145786v18h-291.0734624145786Z" style="fill: #f58518;"></path><path d="M0,41h163.46153846153845v18h-163.46153846153845Z" style="fill: #e45756;"></path></g><g class="mark-text role-mark child_layer_1_marks"><text text-anchor="end" transform="translate(122.41935483870968,14)" style="font-family: sans-serif; font-size: 12px; fill: white;">10.2</text><text text-anchor="end" transform="translate(286.0734624145786,34)" style="font-family: sans-serif; font-size: 12px; fill: white;">23.3</text><text text-anchor="end" transform="translate(158.46153846153845,54)" style="font-family: sans-serif; font-size: 12px; fill: white;">13.1</text></g><g class="mark-group role-title"><g transform="translate(150,-24)"><path class="background" d="M0,0h0v0h0Z" style="pointer-events: none; fill: none;"></path><g><g class="mark-text role-title-text" style="pointer-events: none;"><text text-anchor="middle" transform="translate(0,11)" style="font-family: sans-serif; font-size: 14px; fill: #000; opacity: 1;">abr 24, 2020</text></g></g><path class="foreground" d="" style="pointer-events: none; display: none; fill: none;"></path></g></g></g><path class="foreground" d="" style="display: none; fill: none;"></path></g></g><g class="mark-group role-legend"><g transform="translate(0,516)"><path class="background" d="M0,0h453v14h-453Z" style="pointer-events: none; fill: none;"></path><g><g class="mark-group role-legend-entry"><g transform="translate(0,0)"><path class="background" d="M0,0h0v0h0Z" style="pointer-events: none; fill: none;"></path><g><g class="mark-group role-scope"><g transform="translate(0,0)"><path class="background" d="M0,0h173.6337890625v14h-173.6337890625Z" style="pointer-events: none; fill: none; opacity: 1;"></path><g><g class="mark-symbol role-legend-symbol" style="pointer-events: none;"><path transform="translate(7,7)" d="M-5,-5h10v10h-10Z" style="fill: #4c78a8; stroke-width: 1.5; opacity: 1;"></path></g><g class="mark-text role-legend-label" style="pointer-events: none;"><text text-anchor="start" transform="translate(18,11)" style="font-family: sans-serif; font-size: 14px; fill: #000; opacity: 1;">Confirmados y probables</text></g></g><path class="foreground" d="" style="pointer-events: none; display: none; fill: none;"></path></g><g transform="translate(184,0)"><path class="background" d="M0,0h97.365234375v14h-97.365234375Z" style="pointer-events: none; fill: none; opacity: 1;"></path><g><g class="mark-symbol role-legend-symbol" style="pointer-events: none;"><path transform="translate(7,7)" d="M-5,-5h10v10h-10Z" style="fill: #f58518; stroke-width: 1.5; opacity: 1;"></path></g><g class="mark-text role-legend-label" style="pointer-events: none;"><text text-anchor="start" transform="translate(18,11)" style="font-family: sans-serif; font-size: 14px; fill: #000; opacity: 1;">Confirmados</text></g></g><path class="foreground" d="" style="pointer-events: none; display: none; fill: none;"></path></g><g transform="translate(292,0)"><path class="background" d="M0,0h81.041015625v14h-81.041015625Z" style="pointer-events: none; fill: none; opacity: 1;"></path><g><g class="mark-symbol role-legend-symbol" style="pointer-events: none;"><path transform="translate(7,7)" d="M-5,-5h10v10h-10Z" style="fill: #e45756; stroke-width: 1.5; opacity: 1;"></path></g><g class="mark-text role-legend-label" style="pointer-events: none;"><text text-anchor="start" transform="translate(18,11)" style="font-family: sans-serif; font-size: 14px; fill: #000; opacity: 1;">Probables</text></g></g><path class="foreground" d="" style="pointer-events: none; display: none; fill: none;"></path></g><g transform="translate(384,0)"><path class="background" d="M0,0h68.572265625v14h-68.572265625Z" style="pointer-events: none; fill: none; opacity: 1;"></path><g><g class="mark-symbol role-legend-symbol" style="pointer-events: none;"><path transform="translate(7,7)" d="M-5,-5h10v10h-10Z" style="fill: #72b7b2; stroke-width: 1.5; opacity: 1;"></path></g><g class="mark-text role-legend-label" style="pointer-events: none;"><text text-anchor="start" transform="translate(18,11)" style="font-family: sans-serif; font-size: 14px; fill: #000; opacity: 1;">Muertes</text></g></g><path class="foreground" d="" style="pointer-events: none; display: none; fill: none;"></path></g></g></g><path class="foreground" d="" style="pointer-events: none; display: none; fill: none;"></path></g></g></g><path class="foreground" d="" style="pointer-events: none; display: none; fill: none;"></path></g></g></g><path class="foreground" d="" style="display: none; fill: none;"></path></g></g></g></svg>