<svg class="marks" width="667" height="311" viewBox="0 0 667 311" version="1.1" xmlns="http://www.w3.org/2000/svg" xmlns:xlink="http://www.w3.org/1999/xlink"><rect width="667" height="311" style="fill: white;"></rect><g transform="translate(76,10)"><g class="mark-group role-frame root"><g transform="translate(0,0)"><path class="background" d="M0,0h0v0h0Z" style="fill: none;"></path><g><g class="mark-group role-row-header row_header"><g transform="translate(-1,0)"><path class="background" d="M0,0h0v70h0Z" style="fill: none;"></path><g><g class="mark-group role-title"><g transform="translate(-69.896484375,35)"><path class="background" d="M0,0h0v0h0Z" style="pointer-events: none; fill: none;"></path><g><g class="mark-text role-title-text" style="pointer-events: none;"><text text-anchor="middle" transform="translate(0,0) rotate(-90) translate(0,11)" style="font-family: sans-serif; font-size: 14px; fill: #000; opacity: 1;">Confirmados</text></g></g><path class="foreground" d="" style="pointer-events: none; display: none; fill: none;"></path></g></g><g class="mark-group role-axis"><g transform="translate(0.5,0.5)"><path class="background" d="M0,0h0v0h0Z" style="pointer-events: none; fill: none;"></path><g><g class="mark-rule role-axis-tick" style="pointer-events: none;"><line transform="translate(0,8)" x2="-5" y2="0" style="fill: none; stroke: #888; stroke-width: 1; opacity: 1;"></line><line transform="translate(0,26)" x2="-5" y2="0" style="fill: none; stroke: #888; stroke-width: 1; opacity: 1;"></line><line transform="translate(0,43)" x2="-5" y2="0" style="fill: none; stroke: #888; stroke-width: 1; opacity: 1;"></line><line transform="translate(0,61)" x2="-5" y2="0" style="fill: none; stroke: #888; stroke-width: 1; opacity: 1;"></line></g><g class="mark-text role-axis-label" style="pointer-events: none;"><text text-anchor="end" transform="translate(-7,12.25)" style="font-family: sans-serif; font-size: 14px; fill: #000; opacity: 1;">junio</text><text text-anchor="end" transform="translate(-7,29.75)" style="font-family: sans-serif; font-size: 14px; fill: #000; opacity: 1;">mayo</text><text text-anchor="end" transform="translate(-7,47.25)" style="font-family: sans-serif; font-size: 14px; fill: #000; opacity: 1;">abril</text><text text-anchor="end" transform="translate(-7,64.75)" style="font-family: sans-serif; font-size: 14px; fill: #000; opacity: 1;">marzo</text></g><g class="mark-rule role-axis-domain" style="pointer-events: none;"><line transform="translate(0,0)" x2="0" y2="70" style="fill: none; stroke: #888; stroke-width: 1; opacity: 1;"></line></g></g><path class="foreground" d="" style="pointer-events: none; display: none; fill: none;"></path></g></g></g><path class="foreground" d="" style="display: none; fill: none;"></path></g><g transform="translate(-1,92)"><path class="background" d="M0,0h0v70h0Z" style="fill: none;"></path><g><g class="mark-group role-title"><g transform="translate(-69.896484375,35)"><path class="background" d="M0,0h0v0h0Z" style="pointer-events: none; fill: none;"></path><g><g class="mark-text role-title-text" style="pointer-events: none;"><text text-anchor="middle" transform="translate(0,0) rotate(-90) translate(0,11)" style="font-family: sans-serif; font-size: 14px; fill: #000; opacity: 1;">Probables</text></g></g><path class="foreground" d="" style="pointer-events: none; display: none; fill: none;"></path></g></g><g class="mark-group role-axis"><g transform="translate(0.5,0.5)"><path class="background" d="M0,0h0v0h0Z" style="pointer-events: none; fill: none;"></path><g><g class="mark-rule role-axis-tick" style="pointer-events: none;"><line transform="translate(0,8)" x2="-5" y2="0" style="fill: none; stroke: #888; stroke-width: 1; opacity: 1;"></line><line transform="translate(0,26)" x2="-5" y2="0" style="fill: none; stroke: #888; stroke-width: 1; opacity: 1;"></line><line transform="translate(0,43)" x2="-5" y2="0" style="fill: none; stroke: #888; stroke-width: 1; opacity: 1;"></line><line transform="translate(0,61)" x2="-5" y2="0" style="fill: none; stroke: #888; stroke-width: 1; opacity: 1;"></line></g><g class="mark-text role-axis-label" style="pointer-events: none;"><text text-anchor="end" transform="translate(-7,12.25)" style="font-family: sans-serif; font-size: 14px; fill: #000; opacity: 1;">junio</text><text text-anchor="end" transform="translate(-7,29.75)" style="font-family: sans-serif; font-size: 14px; fill: #000; opacity: 1;">mayo</text><text text-anchor="end" transform="translate(-7,47.25)" style="font-family: sans-serif; font-size: 14px; fill: #000; opacity: 1;">abril</text><text text-anchor="end" transform="translate(-7,64.75)" style="font-family: sans-serif; font-size: 14px; fill: #000; opacity: 1;">marzo</text></g><g class="mark-rule role-axis-domain" style="pointer-events: none;"><line transform="translate(0,0)" x2="0" y2="70" style="fill: none; stroke: #888; stroke-width: 1; opacity: 1;"></line></g></g><path class="foreground" d="" style="pointer-events: none; display: none; fill: none;"></path></g></g></g><path class="foreground" d="" style="display: none; fill: none;"></path></g><g transform="translate(-1,184)"><path class="background" d="M0,0h0v70h0Z" style="fill: none;"></path><g><g class="mark-group role-title"><g transform="translate(-69.896484375,35)"><path class="background" d="M0,0h0v0h0Z" style="pointer-events: none; fill: none;"></path><g><g class="mark-text role-title-text" style="pointer-events: none;"><text text-anchor="middle" transform="translate(0,0) rotate(-90) translate(0,11)" style="font-family: sans-serif; font-size: 14px; fill: #000; opacity: 1;">Muertes</text></g></g><path class="foreground" d="" style="pointer-events: none; display: none; fill: none;"></path></g></g><g class="mark-group role-axis"><g transform="translate(0.5,0.5)"><path class="background" d="M0,0h0v0h0Z" style="pointer-events: none; fill: none;"></path><g><g class="mark-rule role-axis-tick" style="pointer-events: none;"><line transform="translate(0,8)" x2="-5" y2="0" style="fill: none; stroke: #888; stroke-width: 1; opacity: 1;"></line><line transform="translate(0,26)" x2="-5" y2="0" style="fill: none; stroke: #888; stroke-width: 1; opacity: 1;"></line><line transform="translate(0,43)" x2="-5" y2="0" style="fill: none; stroke: #888; stroke-width: 1; opacity: 1;"></line><line transform="translate(0,61)" x2="-5" y2="0" style="fill: none; stroke: #888; stroke-width: 1; opacity: 1;"></line></g><g class="mark-text role-axis-label" style="pointer-events: none;"><text text-anchor="end" transform="translate(-7,12.25)" style="font-family: sans-serif; font-size: 14px; fill: #000; opacity: 1;">junio</text><text text-anchor="end" transform="translate(-7,29.75)" style="font-family: sans-serif; font-size: 14px; fill: #000; opacity: 1;">mayo</text><text text-anchor="end" transform="translate(-7,47.25)" style="font-family: sans-serif; font-size: 14px; fill: #000; opacity: 1;">abril</text><text text-anchor="end" transform="translate(-7,64.75)" style="font-family: sans-serif; font-size: 14px; fill: #000; opacity: 1;">marzo</text></g><g class="mark-rule role-axis-domain" style="pointer-events: none;"><line transform="translate(0,0)" x2="0" y2="70" style="fill: none; stroke: #888; stroke-width: 1; opacity: 1;"></line></g></g><path class="foreground" d="" style="pointer-events: none; display: none; fill: none;"></path></g></g></g><path class="foreground" d="" style="display: none; fill: none;"></path></g></g><g class="mark-group role-column-footer column_footer"><g transform="translate(0,255)"><path class="background" d="M0,0h585v0h-585Z" style="fill: none;"></path><g><g class="mark-group role-axis"><g transform="translate(0.5,0.5)"><path class="background" d="M0,0h0v0h0Z" style="pointer-events: none; fill: none;"></path><g><g class="mark-rule role-axis-tick" style="pointer-events: none;"><line transform="translate(9,0)" x2="0" y2="5" style="fill: none; stroke: #888; stroke-width: 1; opacity: 1;"></line><line transform="translate(28,0)" x2="0" y2="5" style="fill: none; stroke: #888; stroke-width: 1; opacity: 1;"></line><line transform="translate(47,0)" x2="0" y2="5" style="fill: none; stroke: #888; stroke-width: 1; opacity: 1;"></line><line transform="translate(66,0)" x2="0" y2="5" style="fill: none; stroke: #888; stroke-width: 1; opacity: 1;"></line><line transform="translate(84,0)" x2="0" y2="5" style="fill: none; stroke: #888; stroke-width: 1; opacity: 1;"></line><line transform="translate(103,0)" x2="0" y2="5" style="fill: none; stroke: #888; stroke-width: 1; opacity: 1;"></line><line transform="translate(122,0)" x2="0" y2="5" style="fill: none; stroke: #888; stroke-width: 1; opacity: 1;"></line><line transform="translate(141,0)" x2="0" y2="5" style="fill: none; stroke: #888; stroke-width: 1; opacity: 1;"></line><line transform="translate(160,0)" x2="0" y2="5" style="fill: none; stroke: #888; stroke-width: 1; opacity: 1;"></line><line transform="translate(179,0)" x2="0" y2="5" style="fill: none; stroke: #888; stroke-width: 1; opacity: 1;"></line><line transform="translate(198,0)" x2="0" y2="5" style="fill: none; stroke: #888; stroke-width: 1; opacity: 1;"></line><line transform="translate(217,0)" x2="0" y2="5" style="fill: none; stroke: #888; stroke-width: 1; opacity: 1;"></line><line transform="translate(235,0)" x2="0" y2="5" style="fill: none; stroke: #888; stroke-width: 1; opacity: 1;"></line><line transform="translate(254,0)" x2="0" y2="5" style="fill: none; stroke: #888; stroke-width: 1; opacity: 1;"></line><line transform="translate(273,0)" x2="0" y2="5" style="fill: none; stroke: #888; stroke-width: 1; opacity: 1;"></line><line transform="translate(292,0)" x2="0" y2="5" style="fill: none; stroke: #888; stroke-width: 1; opacity: 1;"></line><line transform="translate(311,0)" x2="0" y2="5" style="fill: none; stroke: #888; stroke-width: 1; opacity: 1;"></line><line transform="translate(330,0)" x2="0" y2="5" style="fill: none; stroke: #888; stroke-width: 1; opacity: 1;"></line><line transform="translate(349,0)" x2="0" y2="5" style="fill: none; stroke: #888; stroke-width: 1; opacity: 1;"></line><line transform="translate(367,0)" x2="0" y2="5" style="fill: none; stroke: #888; stroke-width: 1; opacity: 1;"></line><line transform="translate(386,0)" x2="0" y2="5" style="fill: none; stroke: #888; stroke-width: 1; opacity: 1;"></line><line transform="translate(405,0)" x2="0" y2="5" style="fill: none; stroke: #888; stroke-width: 1; opacity: 1;"></line><line transform="translate(424,0)" x2="0" y2="5" style="fill: none; stroke: #888; stroke-width: 1; opacity: 1;"></line><line transform="translate(443,0)" x2="0" y2="5" style="fill: none; stroke: #888; stroke-width: 1; opacity: 1;"></line><line transform="translate(462,0)" x2="0" y2="5" style="fill: none; stroke: #888; stroke-width: 1; opacity: 1;"></line><line transform="translate(481,0)" x2="0" y2="5" style="fill: none; stroke: #888; stroke-width: 1; opacity: 1;"></line><line transform="translate(500,0)" x2="0" y2="5" style="fill: none; stroke: #888; stroke-width: 1; opacity: 1;"></line><line transform="translate(518,0)" x2="0" y2="5" style="fill: none; stroke: #888; stroke-width: 1; opacity: 1;"></line><line transform="translate(537,0)" x2="0" y2="5" style="fill: none; stroke: #888; stroke-width: 1; opacity: 1;"></line><line transform="translate(556,0)" x2="0" y2="5" style="fill: none; stroke: #888; stroke-width: 1; opacity: 1;"></line><line transform="translate(575,0)" x2="0" y2="5" style="fill: none; stroke: #888; stroke-width: 1; opacity: 1;"></line></g><g class="mark-text role-axis-label" style="pointer-events: none;"><text text-anchor="end" transform="translate(8.935483870967742,7) rotate(270) translate(0,4)" style="font-family: sans-serif; font-size: 14px; fill: #000; opacity: 1;">31</text><text text-anchor="end" transform="translate(27.806451612903224,7) rotate(270) translate(0,4)" style="font-family: sans-serif; font-size: 14px; fill: #000; opacity: 1;">30</text><text text-anchor="end" transform="translate(46.67741935483871,7) rotate(270) translate(0,4)" style="font-family: sans-serif; font-size: 14px; fill: #000; opacity: 1;">29</text><text text-anchor="end" transform="translate(65.54838709677419,7) rotate(270) translate(0,4)" style="font-family: sans-serif; font-size: 14px; fill: #000; opacity: 1;">28</text><text text-anchor="end" transform="translate(84.41935483870968,7) rotate(270) translate(0,4)" style="font-family: sans-serif; font-size: 14px; fill: #000; opacity: 1;">27</text><text text-anchor="end" transform="translate(103.29032258064517,7) rotate(270) translate(0,4)" style="font-family: sans-serif; font-size: 14px; fill: #000; opacity: 1;">26</text><text text-anchor="end" transform="translate(122.16129032258064,7) rotate(270) translate(0,4)" style="font-family: sans-serif; font-size: 14px; fill: #000; opacity: 1;">25</text><text text-anchor="end" transform="translate(141.03225806451613,7) rotate(270) translate(0,4)" style="font-family: sans-serif; font-size: 14px; fill: #000; opacity: 1;">24</text><text text-anchor="end" transform="translate(159.90322580645162,7) rotate(270) translate(0,4)" style="font-family: sans-serif; font-size: 14px; fill: #000; opacity: 1;">23</text><text text-anchor="end" transform="translate(178.7741935483871,7) rotate(270) translate(0,4)" style="font-family: sans-serif; font-size: 14px; fill: #000; opacity: 1;">22</text><text text-anchor="end" transform="translate(197.6451612903226,7) rotate(270) translate(0,4)" style="font-family: sans-serif; font-size: 14px; fill: #000; opacity: 1;">21</text><text text-anchor="end" transform="translate(216.51612903225808,7) rotate(270) translate(0,4)" style="font-family: sans-serif; font-size: 14px; fill: #000; opacity: 1;">20</text><text text-anchor="end" transform="translate(235.38709677419354,7) rotate(270) translate(0,4)" style="font-family: sans-serif; font-size: 14px; fill: #000; opacity: 1;">19</text><text text-anchor="end" transform="translate(254.25806451612902,7) rotate(270) translate(0,4)" style="font-family: sans-serif; font-size: 14px; fill: #000; opacity: 1;">18</text><text text-anchor="end" transform="translate(273.1290322580645,7) rotate(270) translate(0,4)" style="font-family: sans-serif; font-size: 14px; fill: #000; opacity: 1;">17</text><text text-anchor="end" transform="translate(292,7) rotate(270) translate(0,4)" style="font-family: sans-serif; font-size: 14px; fill: #000; opacity: 1;">16</text><text text-anchor="end" transform="translate(310.8709677419355,7) rotate(270) translate(0,4)" style="font-family: sans-serif; font-size: 14px; fill: #000; opacity: 1;">15</text><text text-anchor="end" transform="translate(329.741935483871,7) rotate(270) translate(0,4)" style="font-family: sans-serif; font-size: 14px; fill: #000; opacity: 1;">14</text><text text-anchor="end" transform="translate(348.61290322580646,7) rotate(270) translate(0,4)" style="font-family: sans-serif; font-size: 14px; fill: #000; opacity: 1;">13</text><text text-anchor="end" transform="translate(367.48387096774195,7) rotate(270) translate(0,4)" style="font-family: sans-serif; font-size: 14px; fill: #000; opacity: 1;">12</text><text text-anchor="end" transform="translate(386.35483870967744,7) rotate(270) translate(0,4)" style="font-family: sans-serif; font-size: 14px; fill: #000; opacity: 1;">11</text><text text-anchor="end" transform="translate(405.2258064516129,7) rotate(270) translate(0,4)" style="font-family: sans-serif; font-size: 14px; fill: #000; opacity: 1;">10</text><text text-anchor="end" transform="translate(424.0967741935484,7) rotate(270) translate(0,4)" style="font-family: sans-serif; font-size: 14px; fill: #000; opacity: 1;">09</text><text text-anchor="end" transform="translate(442.9677419354839,7) rotate(270) translate(0,4)" style="font-family: sans-serif; font-size: 14px; fill: #000; opacity: 1;">08</text><text text-anchor="end" transform="translate(461.83870967741933,7) rotate(270) translate(0,4)" style="font-family: sans-serif; font-size: 14px; fill: #000; opacity: 1;">07</text><text text-anchor="end" transform="translate(480.7096774193548,7) rotate(270) translate(0,4)" style="font-family: sans-serif; font-size: 14px; fill: #000; opacity: 1;">06</text><text text-anchor="end" transform="translate(499.5806451612903,7) rotate(270) translate(0,4)" style="font-family: sans-serif; font-size: 14px; fill: #000; opacity: 1;">05</text><text text-anchor="end" transform="translate(518.4516129032257,7) rotate(270) translate(0,4)" style="font-family: sans-serif; font-size: 14px; fill: #000; opacity: 1;">04</text><text text-anchor="end" transform="translate(537.3225806451612,7) rotate(270) translate(0,4)" style="font-family: sans-serif; font-size: 14px; fill: #000; opacity: 1;">03</text><text text-anchor="end" transform="translate(556.1935483870967,7) rotate(270) translate(0,4)" style="font-family: sans-serif; font-size: 14px; fill: #000; opacity: 1;">02</text><text text-anchor="end" transform="translate(575.0645161290322,7) rotate(270) translate(0,4)" style="font-family: sans-serif; font-size: 14px; fill: #000; opacity: 1;">01</text></g><g class="mark-rule role-axis-domain" style="pointer-events: none;"><line transform="translate(0,0)" x2="585" y2="0" style="fill: none; stroke: #888; stroke-width: 1; opacity: 1;"></line></g><g class="mark-text role-axis-title" style="pointer-events: none;"><text text-anchor="middle" transform="translate(292.5,37.572265625)" style="font-family: sans-serif; font-size: 14px; font-weight: bold; fill: #000; opacity: 1;">Día del mes</text></g></g><path class="foreground" d="" style="pointer-events: none; display: none; fill: none;"></path></g></g></g><path class="foreground" d="" style="display: none; fill: none;"></path></g></g><g class="mark-group role-scope cell"><g transform="translate(0,0)"><path class="background" d="M0.5,0.5h585v70h-585Z" style="fill: none; stroke: #ddd;"></path><g><g class="mark-rect role-mark child_layer_0_marks"><path d="M56.61290322580645,52.5h18.870967741935484v17.5h-18.870967741935484Z" style="fill: rgb(140, 13, 37);"></path><path d="M566.1290322580645,35h18.870967741935484v17.5h-18.870967741935484Z" style="fill: rgb(243, 239, 237);"></path><path d="M528.3870967741935,35h18.870967741935484v17.5h-18.870967741935484Z" style="fill: rgb(243, 239, 237);"></path><path d="M452.9032258064516,35h18.870967741935484v17.5h-18.870967741935484Z" style="fill: rgb(140, 13, 37);"></path><path d="M434.03225806451616,35h18.870967741935484v17.5h-18.870967741935484Z" style="fill: rgb(140, 13, 37);"></path><path d="M415.16129032258067,35h18.870967741935484v17.5h-18.870967741935484Z" style="fill: rgb(140, 13, 37);"></path><path d="M264.19354838709677,35h18.870967741935484v17.5h-18.870967741935484Z" style="fill: rgb(243, 239, 237);"></path><path d="M113.2258064516129,17.5h18.870967741935484v17.5h-18.870967741935484Z" style="fill: rgb(243, 239, 237);"></path><path d="M94.35483870967742,17.5h18.870967741935484v17.5h-18.870967741935484Z" style="fill: rgb(140, 13, 37);"></path><path d="M75.48387096774194,17.5h18.870967741935484v17.5h-18.870967741935484Z" style="fill: rgb(140, 13, 37);"></path><path d="M547.258064516129,0h18.870967741935484v17.5h-18.870967741935484Z" style="fill: rgb(243, 239, 237);"></path><path d="M528.3870967741935,0h18.870967741935484v17.5h-18.870967741935484Z" style="fill: rgb(243, 239, 237);"></path><path d="M452.9032258064516,0h18.870967741935484v17.5h-18.870967741935484Z" style="fill: rgb(243, 239, 237);"></path></g><g class="mark-text role-mark child_layer_1_marks"><text text-anchor="middle" transform="translate(66.04838709677419,64.25)" style="font-family: sans-serif; font-size: 9px; fill: white;">-1</text><text text-anchor="middle" transform="translate(575.5645161290322,46.75)" style="font-family: sans-serif; font-size: 9px; fill: black;">1</text><text text-anchor="middle" transform="translate(537.8225806451612,46.75)" style="font-family: sans-serif; font-size: 9px; fill: black;">1</text><text text-anchor="middle" transform="translate(462.33870967741933,46.75)" style="font-family: sans-serif; font-size: 9px; fill: white;">-1</text><text text-anchor="middle" transform="translate(443.4677419354839,46.75)" style="font-family: sans-serif; font-size: 9px; fill: white;">-1</text><text text-anchor="middle" transform="translate(424.5967741935484,46.75)" style="font-family: sans-serif; font-size: 9px; fill: white;">-1</text><text text-anchor="middle" transform="translate(273.6290322580645,46.75)" style="font-family: sans-serif; font-size: 9px; fill: black;">1</text><text text-anchor="middle" transform="translate(122.66129032258064,29.25)" style="font-family: sans-serif; font-size: 9px; fill: black;">1</text><text text-anchor="middle" transform="translate(103.79032258064517,29.25)" style="font-family: sans-serif; font-size: 9px; fill: white;">-1</text><text text-anchor="middle" transform="translate(84.91935483870968,29.25)" style="font-family: sans-serif; font-size: 9px; fill: white;">-1</text><text text-anchor="middle" transform="translate(556.6935483870967,11.75)" style="font-family: sans-serif; font-size: 9px; fill: black;">1</text><text text-anchor="middle" transform="translate(537.8225806451612,11.75)" style="font-family: sans-serif; font-size: 9px; fill: black;">1</text><text text-anchor="middle" transform="translate(462.33870967741933,11.75)" style="font-family: sans-serif; font-size: 9px; fill: black;">1</text></g></g><path class="foreground" d="" style="display: none; fill: none;"></path></g><g transform="translate(0,92)"><path class="background" d="M0.5,0.5h585v70h-585Z" style="fill: none; stroke: #ddd;"></path><g><g class="mark-rect role-mark child_layer_0_marks"><path d="M207.58064516129033,35h18.870967741935484v17.5h-18.870967741935484Z" style="fill: rgb(243, 239, 237);"></path><path d="M452.9032258064516,17.5h18.870967741935484v17.5h-18.870967741935484Z" style="fill: rgb(140, 13, 37);"></path><path d="M547.258064516129,0h18.870967741935484v17.5h-18.870967741935484Z" style="fill: rgb(52, 52, 52);"></path><path d="M509.51612903225805,0h18.870967741935484v17.5h-18.870967741935484Z" style="fill: rgb(243, 239, 237);"></path><path d="M490.64516129032256,0h18.870967741935484v17.5h-18.870967741935484Z" style="fill: rgb(243, 239, 237);"></path><path d="M471.7741935483871,0h18.870967741935484v17.5h-18.870967741935484Z" style="fill: rgb(230, 229, 229);"></path></g><g class="mark-text role-mark child_layer_1_marks"><text text-anchor="middle" transform="translate(217.01612903225808,46.75)" style="font-family: sans-serif; font-size: 9px; fill: black;">1</text><text text-anchor="middle" transform="translate(462.33870967741933,29.25)" style="font-family: sans-serif; font-size: 9px; fill: white;">-1</text><text text-anchor="middle" transform="translate(556.6935483870967,11.75)" style="font-family: sans-serif; font-size: 9px; fill: white;">18</text><text text-anchor="middle" transform="translate(518.9516129032257,11.75)" style="font-family: sans-serif; font-size: 9px; fill: black;">1</text><text text-anchor="middle" transform="translate(500.0806451612903,11.75)" style="font-family: sans-serif; font-size: 9px; fill: black;">1</text><text text-anchor="middle" transform="translate(481.2096774193548,11.75)" style="font-family: sans-serif; font-size: 9px; fill: black;">3</text></g></g><path class="foreground" d="" style="display: none; fill: none;"></path></g><g transform="translate(0,184)"><path class="background" d="M0.5,0.5h585v70h-585Z" style="fill: none; stroke: #ddd;"></path><g><g class="mark-rect role-mark child_layer_0_marks"><path d="M150.96774193548387,52.5h18.870967741935484v17.5h-18.870967741935484Z" style="fill: rgb(140, 13, 37);"></path><path d="M566.1290322580645,35h18.870967741935484v17.5h-18.870967741935484Z" style="fill: rgb(243, 239, 237);"></path><path d="M547.258064516129,35h18.870967741935484v17.5h-18.870967741935484Z" style="fill: rgb(243, 239, 237);"></path><path d="M377.4193548387097,35h18.870967741935484v17.5h-18.870967741935484Z" style="fill: rgb(140, 13, 37);"></path><path d="M264.19354838709677,35h18.870967741935484v17.5h-18.870967741935484Z" style="fill: rgb(140, 13, 37);"></path><path d="M245.32258064516128,35h18.870967741935484v17.5h-18.870967741935484Z" style="fill: rgb(243, 239, 237);"></path><path d="M509.51612903225805,0h18.870967741935484v17.5h-18.870967741935484Z" style="fill: rgb(243, 239, 237);"></path></g><g class="mark-text role-mark child_layer_1_marks"><text text-anchor="middle" transform="translate(160.40322580645162,64.25)" style="font-family: sans-serif; font-size: 9px; fill: white;">-1</text><text text-anchor="middle" transform="translate(575.5645161290322,46.75)" style="font-family: sans-serif; font-size: 9px; fill: black;">1</text><text text-anchor="middle" transform="translate(556.6935483870967,46.75)" style="font-family: sans-serif; font-size: 9px; fill: black;">1</text><text text-anchor="middle" transform="translate(386.85483870967744,46.75)" style="font-family: sans-serif; font-size: 9px; fill: white;">-1</text><text text-anchor="middle" transform="translate(273.6290322580645,46.75)" style="font-family: sans-serif; font-size: 9px; fill: white;">-1</text><text text-anchor="middle" transform="translate(254.75806451612902,46.75)" style="font-family: sans-serif; font-size: 9px; fill: black;">1</text><text text-anchor="middle" transform="translate(518.9516129032257,11.75)" style="font-family: sans-serif; font-size: 9px; fill: black;">1</text></g></g><path class="foreground" d="" style="display: none; fill: none;"></path></g></g></g><path class="foreground" d="" style="display: none; fill: none;"></path></g></g></g></svg>