<svg class="marks" width="639" height="310" viewBox="0 0 639 310" version="1.1" xmlns="http://www.w3.org/2000/svg" xmlns:xlink="http://www.w3.org/1999/xlink"><rect width="639" height="310" style="fill: white;"></rect><defs><linearGradient id="gradient_0" x1="0" x2="0" y1="1" y2="0"><stop offset="0" stop-color="rgb(253, 201, 180)"></stop><stop offset="0.07142857142857142" stop-color="rgb(252, 186, 161)"></stop><stop offset="0.14285714285714285" stop-color="rgb(252, 171, 143)"></stop><stop offset="0.21428571428571427" stop-color="rgb(252, 155, 124)"></stop><stop offset="0.2857142857142857" stop-color="rgb(252, 138, 107)"></stop><stop offset="0.35714285714285715" stop-color="rgb(251, 122, 90)"></stop><stop offset="0.42857142857142855" stop-color="rgb(249, 105, 76)"></stop><stop offset="0.5" stop-color="rgb(246, 87, 63)"></stop><stop offset="0.5714285714285714" stop-color="rgb(239, 70, 52)"></stop><stop offset="0.6428571428571429" stop-color="rgb(229, 54, 43)"></stop><stop offset="0.7142857142857143" stop-color="rgb(217, 40, 36)"></stop><stop offset="0.7857142857142857" stop-color="rgb(203, 29, 30)"></stop><stop offset="0.8571428571428571" stop-color="rgb(187, 22, 26)"></stop><stop offset="0.9285714285714286" stop-color="rgb(170, 16, 23)"></stop><stop offset="1" stop-color="rgb(151, 11, 19)"></stop></linearGradient></defs><g transform="translate(5,5)"><g class="mark-group role-frame root"><g transform="translate(0,0)"><path class="background" d="M0,0h585v300h-585Z" style="fill: none; stroke: #ddd; stroke-width: 0;"></path><g><g class="mark-shape role-mark marks"><path transform="translate(0,0)" d="M48.509784598056285,60.69016516328156L72.47641841475343,61.886161574714606L81.53597071659533,65.79289190817235L90.6778825848196,68.42379023335343L91.17203998310288,72.17059819313909L88.45417429255394,78.70693849257441L90.34844431929741,83.1703107902922L93.80754610727672,85.00337118212155L95.78417570040256,92.25528490310899L94.87822047022564,95.68166399205438L100.89046881599279,97.59396420986195L97.01956919611257,99.26716968017536L94.05462480642018,103.09143888752078L89.03069125721231,100.38261033374329L82.85372377868407,100.06391542495385L76.67675630015583,97.35493049783418L70.49978882162031,97.51428642695646L63.6639448120477,82.13420475577641L62.016753484440414,77.03307560172743L61.44023651978205,71.21399194916103L56.086864705051994,68.50351235330618Z" style="fill: rgb(252, 171, 143);"></path><path transform="translate(0,0)" d="M62.016753484440414,77.03307560172743L56.91046036885382,78.30840457299291L56.086864705051994,81.49659083704773L49.90989722652375,84.20639629684501L42.08573842038459,92.73339776430112L40.109108827251475,98.86879226829842L34.01450091510196,97.11589569585612L32.120230888354854,90.82092013096099L33.10854568492141,83.48910851697019L29.567084330567013,75.35915907471099L30.967196959030844,68.98184251442581L37.14416443756272,63.480780753919134L42.08573842038459,61.56723188286378L48.509784598056285,60.69016516328156L56.086864705051994,68.50351235330618L61.44023651978205,71.21399194916103Z" style="fill: rgb(252, 171, 143);"></path><path transform="translate(0,0)" d="M197.66295931296554,69.6993295327411L197.00408278192117,73.28661665319032L199.63958890609138,74.88088735566726L197.9923975784841,90.10372301109419L195.68632971983607,95.76134456079944L197.25116148106463,98.78911642273306L198.89835280867192,103.41011540531326L196.50992538364153,114.40327108290239L191.81543009995585,117.42996817322091L188.35632831197654,116.31488951080883L182.50879909897048,118.4653771954936L178.80261861185136,117.35032048125868L176.00239335492006,119.66005459471307L172.87272983246294,118.54502319933363L164.14261579613958,119.739698790293L159.94227791073718,121.17327370128442L159.20104181331772,114.801530652966L156.15373785724296,110.8984567551015L148.3295790511038,115.19978720652125L144.7057581303634,118.4653771954936L145.52935379416886,97.99235130795932L144.6233985639883,84.20639629684501L146.27058989159195,69.93848967949816L155.1654230606764,73.20690184014438L161.83654793748792,73.44604591412099L170.73138110657237,69.6993295327411L180.61452907222338,68.50351235330618L186.7091369843729,66.9090468015329Z" style="fill: rgb(252, 171, 143);"></path><path transform="translate(0,0)" d="M146.27058989159195,69.93848967949816L144.6233985639883,84.20639629684501L145.52935379416886,97.99235130795932L144.7057581303634,118.4653771954936L144.6233985639883,119.66005459471307L128.56328311980542,118.86360600906755L129.0574405180887,112.88985720162782L131.52822750950145,106.51711005648758L132.59890187245037,100.22326312141377L130.95171054483944,96.8768598038805L127.7396874560036,84.76427999154839L128.4809235534267,77.98957524869638L126.58665352667958,76.55481921076807L125.51597916373066,68.82239961472897L136.30508235956586,67.30766775943721L141.740813740671,67.70628567053427Z" style="fill: rgb(252, 171, 143);"></path><path transform="translate(0,0)" d="M106.82035759537757,69.77904970346935L106.82035759537757,90.10372301109419L107.56159369280067,105.8797928123613L101.3022666478937,101.73704209417883L100.89046881599279,97.59396420986195L94.87822047022564,95.68166399205438L95.78417570040256,92.25528490310899L93.80754610727672,85.00337118212155L90.34844431929741,83.1703107902922L88.45417429255394,78.70693849257441L91.17203998310288,72.17059819313909L90.6778825848196,68.42379023335343L94.30170350556,67.62656233205053Z" style="fill: rgb(252, 171, 143);"></path><path transform="translate(0,0)" d="M125.51597916373066,68.82239961472897L126.58665352667958,76.55481921076807L128.4809235534267,77.98957524869638L127.7396874560036,84.76427999154839L130.95171054483944,96.8768598038805L132.59890187245037,100.22326312141377L131.52822750950145,106.51711005648758L129.0574405180887,112.88985720162782L120.65676474728753,109.22562205434224L114.56215683514165,108.74765949851735L109.2087850204116,105.56113128905781L107.56159369280067,105.8797928123613L106.82035759537757,90.10372301109419L106.82035759537757,69.77904970346935L116.62114599464985,67.94545495482907Z" style="fill: rgb(252, 171, 143);"></path><path transform="translate(0,0)" d="M197.66295931296554,69.6993295327411L203.83992679149378,69.53988882584872L205.81655638462325,68.18462314241515L212.89947909333932,70.73568225166491L214.62902998732534,78.46781850558546L212.24060256229495,82.13420475577641L214.8761086864688,87.47391617285939L210.42869210192657,90.42247849940759L210.26397296916548,93.92866082559613L204.1693650570196,91.5381074278057L201.03970153455884,93.60992667577011L197.25116148106463,98.78911642273306L195.68632971983607,95.76134456079944L197.9923975784841,90.10372301109419L199.63958890609138,74.88088735566726L197.00408278192117,73.28661665319032Z" style="fill: rgb(252, 171, 143);"></path><path transform="translate(0,0)" d="M266.1037589750813,69.3007268518868L266.5155568069822,80.85896914168006L263.4682528509038,89.14744490178145L261.8210615232965,99.18749443992238L259.26791496550504,104.12713049492959L258.19724060255976,112.49158314878969L255.64409404477192,112.41192797607437L252.84386878783334,104.12713049492959L250.20836266366314,106.11878768551014L245.26678868084127,102.29473912563572L243.3725186540869,104.52546797864943L238.92510206954466,104.36613334794401L237.6897085738383,98.15170529955685L240.16049556525468,92.41465634175893L239.91341686610758,86.59728452858599L240.32521469801213,69.46016828967822L248.5611713360522,68.18462314241515Z" style="fill: rgb(252, 171, 143);"></path><path transform="translate(0,0)" d="M276.0692665071074,72.80832594905314L275.410389976063,79.98222661084492L280.5166830916496,89.38651606672101L279.28128959594324,92.17559900193282L279.3636491623256,100.38261033374329L276.31634520625084,101.41835541438923L274.99859214415847,105.4814656059998L269.31578206391714,105.4017998020372L267.9980290018284,108.4290153783686L261.5739828241567,115.8369914185032L258.19724060255976,112.49158314878969L259.26791496550504,104.12713049492959L261.8210615232965,99.18749443992238L263.4682528509038,89.14744490178145L266.5155568069822,80.85896914168006L266.1037589750813,69.3007268518868L269.5628607630533,69.46016828967822Z" style="fill: rgb(252, 171, 143);"></path><path transform="translate(0,0)" d="M238.92510206954466,104.36613334794401L233.32465155567843,104.20679823353021L219.32352527100738,107.07475629930741L212.9818386597217,110.34085110634078L213.72307475714115,99.82489297249504L210.26397296916548,93.92866082559613L210.42869210192657,90.42247849940759L214.8761086864688,87.47391617285939L212.24060256229495,82.13420475577641L214.62902998732534,78.46781850558546L212.89947909333932,70.73568225166491L231.2656623961666,74.56203710941736L237.3602703083161,73.92433077581427L240.32521469801213,69.46016828967822L239.91341686610758,86.59728452858599L240.16049556525468,92.41465634175893L237.6897085738383,98.15170529955685Z" style="fill: rgb(252, 171, 143);"></path><path transform="translate(0,0)" d="M309.58961002393335,75.43887060203906L305.1421934393911,75.75771549472483L300.44769815570544,79.02576343976398L292.6235393495699,78.78664491173913L293.44713501337174,83.40940926749681L292.04702238490427,88.58960793748884L294.18837111079847,97.35493049783418L288.50556103054987,100.38261033374329L279.3636491623256,100.38261033374329L279.28128959594324,92.17559900193282L280.5166830916496,89.38651606672101L275.410389976063,79.98222661084492L276.0692665071074,72.80832594905314L285.12881880895293,73.60547468819368L289.16443756159424,71.1342739706879L297.2356750668696,74.64174985350382Z" style="fill: rgb(252, 138, 107);"></path><path transform="translate(0,0)" d="M356.53456286076107,80.3010437781395L354.6402928340103,82.13420475577641L358.4288328875118,87.07544906416842L367.406025622975,93.13182181496995L366.0882725608899,97.99235130795932L367.15894692383154,101.65737060572428L359.7465859495969,101.65737060572428L356.78164155990453,105.16280166475372L357.6875967900851,109.06630168563152L356.69928199352216,119.9786306538299L355.21680979867597,122.28824941767107L351.75770801069666,124.9959492938442L347.96916795719517,124.9959492938442L343.8511896381824,126.8275496943279L341.2980430803873,119.02289669058791L342.0392791778104,115.91664140212652L338.4154582570736,112.73054794263498L340.9686048148651,103.25077738832806L336.4388286639405,100.86064906612773L335.69759256652105,95.8410250083989L339.1566943544931,95.36294050556262L338.66253695621344,90.18341206510104L336.02703083204324,87.23483627173209L335.7799521328998,83.72820553665497L335.7799521328998,81.73569696783761L331.4148951147399,77.19249342569674L330.92073771645664,74.08375808939581L340.47444741658546,75.27944742571344L345.66310009854715,77.83015985695783Z" style="fill: rgb(151, 11, 19);"></path><path transform="translate(0,0)" d="M325.5673659017266,77.35191076319188L323.17893847669984,81.01837529463955L319.80219625509926,81.97480200509835L318.07264536111325,86.11911562333444L317.16669013092906,89.14744490178145L313.2134309446701,89.22713541140638L309.83668872307317,91.3787333217806L310.16612698859535,98.78911642273306L299.5417429255249,95.12389661856832L294.18837111079847,97.35493049783418L292.04702238490427,88.58960793748884L293.44713501337174,83.40940926749681L292.6235393495699,78.78664491173913L300.44769815570544,79.02576343976398L305.1421934393911,75.75771549472483L309.58961002393335,75.43887060203906L311.4015204843017,75.43887060203906L317.33140926369015,79.90252201515523L320.9552301844269,79.82281729790975Z" style="fill: rgb(253, 201, 180);"></path><path transform="translate(0,0)" d="M331.4148951147399,77.19249342569674L335.7799521328998,81.73569696783761L335.7799521328998,83.72820553665497L334.05040123891376,83.25001040415646L329.0264676897059,88.03176502807764L321.69646628185,89.14744490178145L318.07264536111325,86.11911562333444L319.80219625509926,81.97480200509835L323.17893847669984,81.01837529463955L325.5673659017266,77.35191076319188L328.6146698578086,81.57629300215376Z" style="fill: rgb(249, 105, 76);"></path><path transform="translate(0,0)" d="M62.016753484440414,77.03307560172743L63.6639448120477,82.13420475577641L70.49978882162031,97.51428642695646L67.4524848655492,102.37440964619782L64.81697874137535,109.94255773404348L67.53484443192792,117.98749864047022L63.16978741376806,123.96066872139636L43.2387723497086,118.70431484532492L40.85034492467821,120.53613411702554L39.53259186259311,111.85433838674908L41.34450232296149,109.62392086210639L41.75630015486604,104.52546797864943L40.109108827251475,98.86879226829842L42.08573842038459,92.73339776430112L49.90989722652375,84.20639629684501L56.086864705051994,81.49659083704773L56.91046036885382,78.30840457299291Z" style="fill: rgb(253, 201, 180);"></path><path transform="translate(0,0)" d="M369.13557651696465,77.83015985695783L388.49007461635847,81.89510044751387L394.5023229621256,80.06193108498337L402.07940306912496,83.88760294251006L413.60974236238326,85.8800295319461L416.574686752072,88.35053313289427L409.6564831761207,95.0442150805784L407.5151344502301,100.78097624661677L405.2914261579608,102.21506848409808L402.65592003378697,102.05572683806895L404.6325496269201,92.81308281687234L395.9024355905931,91.3787333217806L393.1022103336618,95.28325933105589L390.4667042094843,95.52230249111199L390.13726594396576,92.17559900193282L386.51344502322536,86.91606137113013L381.7365901731682,85.00337118212155L376.54793749119926,85.80033392535734L375.47726312825034,83.25001040415646L371.52400394199503,82.53270950637307Z" style="fill: rgb(252, 138, 107);"></path><path transform="translate(0,0)" d="M369.13557651696465,77.83015985695783L371.52400394199503,82.53270950637307L375.47726312825034,83.25001040415646L376.54793749119926,85.80033392535734L381.7365901731682,85.00337118212155L386.51344502322536,86.91606137113013L390.13726594396576,92.17559900193282L390.4667042094843,95.52230249111199L387.5841193861743,99.5061946746091L391.45501900605086,100.94032176462315L390.3843446431092,103.96779465492727L391.2079403069147,112.88985720162782L395.40827819231345,121.01398952825002L392.7727720681396,123.88103091135417L391.37265943967213,128.340562872384L393.84344643108125,134.39218138456L390.5490637758703,135.02915346982718L385.6074897930448,131.04795174321134L383.6308601999117,127.94240572134822L384.61917499647825,123.16428520140562L382.06602843868677,122.36788963668005L375.72434182739744,115.59804074381827L373.9947909334078,109.8628986972426L367.15894692383154,101.65737060572428L366.0882725608899,97.99235130795932L367.406025622975,93.13182181496995L358.4288328875118,87.07544906416842L354.6402928340103,82.13420475577641L356.53456286076107,80.3010437781395L360.32310291426256,82.21390594887635L365.18231733070206,82.05450344118435Z" style="fill: rgb(249, 105, 76);"></path><path transform="translate(0,0)" d="M335.7799521328998,83.72820553665497L336.02703083204324,87.23483627173209L338.66253695621344,90.18341206510104L339.1566943544931,95.36294050556262L335.69759256652105,95.8410250083989L336.4388286639405,100.86064906612773L340.9686048148651,103.25077738832806L338.4154582570736,112.73054794263498L342.0392791778104,115.91664140212652L341.2980430803873,119.02289669058791L343.8511896381824,126.8275496943279L335.7799521328998,132.7200930688823L332.23849077854175,131.6053380762587L325.48500633534786,132.1627185179168L327.13219766295515,126.66828262207764L326.2262424327746,122.76608892476088L326.8027593974366,116.31488951080883L328.3675911586615,115.43873969083597L327.13219766295515,106.91542940567706L328.038152893143,100.78097624661677L332.8150077432074,101.89638470810132L330.1795016190299,94.64580557314184L332.0737716457843,91.13967125329964L329.0264676897059,88.03176502807764L334.05040123891376,83.25001040415646Z" style="fill: rgb(187, 22, 26);"></path><path transform="translate(0,0)" d="M318.07264536111325,86.11911562333444L321.69646628185,89.14744490178145L329.0264676897059,88.03176502807764L332.0737716457843,91.13967125329964L330.1795016190299,94.64580557314184L332.8150077432074,101.89638470810132L328.038152893143,100.78097624661677L327.13219766295515,106.91542940567706L328.3675911586615,115.43873969083597L326.8027593974366,116.31488951080883L326.2262424327746,122.76608892476088L327.13219766295515,126.66828262207764L325.48500633534786,132.1627185179168L320.46107278614727,131.2072055824301L315.9312966352227,133.19783799600918L311.97803744896737,138.53236252038914L307.5306208644215,133.0385901677546L305.9657891031966,128.49982489057402L307.7776995635613,120.93434726097712L308.27185696184097,114.801530652966L310.083767422213,107.63239662012438L310.16612698859535,98.78911642273306L309.83668872307317,91.3787333217806L313.2134309446701,89.22713541140638L317.16669013092906,89.14744490178145Z" style="fill: rgb(239, 70, 52);"></path><path transform="translate(0,0)" d="M416.574686752072,88.35053313289427L419.95142897366895,92.33497068305314L428.3521047444701,94.80516973962222L432.96424046177344,93.60992667577011L439.1412079403053,100.06391542495385L433.37603829367436,105.8797928123613L438.0705335773637,113.8457026165961L435.7644657187084,124.1199439802067L436.67042094889257,128.8183474832349L434.3643530902373,132.0830931012115L429.58749824018014,128.49982489057402L421.5162607348975,128.97760805773487L417.810080247782,134.15331486997547L414.268618893424,133.51633221023076L406.44446008728846,127.7831420186676L406.69153878642464,119.42112128474673L402.49120090102224,111.77468224820313L403.56187526397116,104.04746263539892L405.2914261579608,102.21506848409808L407.5151344502301,100.78097624661677L409.6564831761207,95.0442150805784Z" style="fill: rgb(252, 171, 143);"></path><path transform="translate(0,0)" d="M32.120230888354854,90.82092013096099L34.01450091510196,97.11589569585612L40.109108827251475,98.86879226829842L41.75630015486604,104.52546797864943L41.34450232296149,109.62392086210639L39.53259186259311,111.85433838674908L40.85034492467821,120.53613411702554L36.155849640996166,119.18218688989691L25.61382514430443,122.04932803781321L21.90764465718894,116.71313460393958L17.542587639021804,114.88118220499109L13.095171054483217,110.5798256804137L12.271575390677754,106.43744582404452L9.224271434602997,103.09143888752078L15.73067717865706,101.0199943421112Z" style="fill: rgb(252, 171, 143);"></path><path transform="translate(0,0)" d="M405.2914261579608,102.21506848409808L403.56187526397116,104.04746263539892L402.49120090102224,111.77468224820313L406.69153878642464,119.42112128474673L406.44446008728846,127.7831420186676L414.268618893424,133.51633221023076L409.57412360974195,139.72658519955803L403.4795156975888,140.36349291897568L390.5490637758703,135.02915346982718L393.84344643108125,134.39218138456L391.37265943967213,128.340562872384L392.7727720681396,123.88103091135417L395.40827819231345,121.01398952825002L391.2079403069147,112.88985720162782L390.3843446431092,103.96779465492727L391.45501900605086,100.94032176462315L387.5841193861743,99.5061946746091L390.4667042094843,95.52230249111199L393.1022103336618,95.28325933105589L395.9024355905931,91.3787333217806L404.6325496269201,92.81308281687234L402.65592003378697,102.05572683806895Z" style="fill: rgb(252, 138, 107);"></path><path transform="translate(0,0)" d="M212.9818386597217,110.34085110634078L207.21666901309072,113.52708940940283L201.36913980008467,113.0491659777872L196.50992538364153,114.40327108290239L198.89835280867192,103.41011540531326L197.25116148106463,98.78911642273306L201.03970153455884,93.60992667577011L204.1693650570196,91.5381074278057L210.26397296916548,93.92866082559613L213.72307475714115,99.82489297249504Z" style="fill: rgb(252, 171, 143);"></path><path transform="translate(0,0)" d="M310.16612698859535,98.78911642273306L310.083767422213,107.63239662012438L308.27185696184097,114.801530652966L307.7776995635613,120.93434726097712L303.33028297902274,115.91664140212652L299.7888216246647,118.86360600906755L292.6235393495699,116.31488951080883L286.7760101365602,116.87243179690176L284.3052231451511,111.05777156787917L279.9401661269876,106.27811699653194L274.99859214415847,105.4814656059998L276.31634520625084,101.41835541438923L279.3636491623256,100.38261033374329L288.50556103054987,100.38261033374329L294.18837111079847,97.35493049783418L299.5417429255249,95.12389661856832Z" style="fill: rgb(252, 171, 143);"></path><path transform="translate(0,0)" d="M100.89046881599279,97.59396420986195L101.3022666478937,101.73704209417883L107.56159369280067,105.8797928123613L109.2087850204116,105.56113128905781L107.8910319583265,112.65089313206863L104.34957060396846,125.07558541809703L104.18485147120737,132.64046849365877L105.0908067013952,140.20426670921916L97.67844572715694,139.2488993689676L93.88990567365909,134.07369245811788L88.37181472616794,134.71066838842216L71.89990145008778,131.5257118179661L67.37012529916683,129.13686815103938L66.62888920174373,125.87194003900458L63.16978741376806,123.96066872139636L67.53484443192792,117.98749864047022L64.81697874137535,109.94255773404348L67.4524848655492,102.37440964619782L70.49978882162031,97.51428642695646L76.67675630015583,97.35493049783418L82.85372377868407,100.06391542495385L89.03069125721231,100.38261033374329L94.05462480642018,103.09143888752078L97.01956919611257,99.26716968017536Z" style="fill: rgb(252, 138, 107);"></path><path transform="translate(0,0)" d="M472.4968323243702,130.88869742301358L469.0377305363909,131.5257118179661L463.437280022521,129.61464554393388L459.64873996902315,133.67557859623048L455.1189638181022,130.3313035143001L452.40109812754963,134.23293716167063L449.10671547233505,135.82535776345594L444.3298606222743,133.59595546332002L438.15289314373877,126.9868162851626L441.11783753343843,126.11084407780709L444.00042235674846,129.2961277631639L447.7889624102463,127.14608239459994L448.1184006757685,123.96066872139636L452.40109812754963,123.16428520140562L453.9659298887782,118.62466908261285L457.34267211037513,119.02289669058791L459.81345910178425,111.45605648663513L462.4489652259581,107.07475629930741L472.5791918907489,104.76446901780037L475.2970575813015,99.66554406564501L478.2620019709975,100.86064906612773L477.02660847529114,105.32213387718184L472.66155145712764,114.08466125479299L474.473461917496,117.35032048125868L474.8852597494006,126.27011283514275Z" style="fill: rgb(252, 171, 143);"></path><path transform="translate(0,0)" d="M439.1412079403053,100.06391542495385L444.00042235674846,100.94032176462315L453.9659298887782,105.24246783141916L462.4489652259581,107.07475629930741L459.81345910178425,111.45605648663513L457.34267211037513,119.02289669058791L453.9659298887782,118.62466908261285L452.40109812754963,123.16428520140562L448.1184006757685,123.96066872139636L447.7889624102463,127.14608239459994L444.00042235674846,129.2961277631639L441.11783753343843,126.11084407780709L438.15289314373877,126.9868162851626L436.67042094889257,128.8183474832349L435.7644657187084,124.1199439802067L438.0705335773637,113.8457026165961L433.37603829367436,105.8797928123613Z" style="fill: rgb(253, 201, 180);"></path><path transform="translate(0,0)" d="M367.15894692383154,101.65737060572428L373.9947909334078,109.8628986972426L375.72434182739744,115.59804074381827L382.06602843868677,122.36788963668005L384.61917499647825,123.16428520140562L383.6308601999117,127.94240572134822L377.78333098690564,126.03120951858182L376.30085879205944,122.92536779677903L371.02984654371176,122.60680957091427L364.8528790651799,124.67740359281925L360.7349007461635,124.43849305276308L355.21680979867597,122.28824941767107L356.69928199352216,119.9786306538299L357.6875967900851,109.06630168563152L356.78164155990453,105.16280166475372L359.7465859495969,101.65737060572428Z" style="fill: rgb(252, 171, 143);"></path><path transform="translate(0,0)" d="M258.19724060255976,112.49158314878969L261.5739828241567,115.8369914185032L258.03252146979867,127.7831420186676L254.49106011544427,133.67557859623048L248.80825003519567,137.09925964809736L235.46600028156536,138.85082454245548L233.4070111220608,130.80907008253507L234.7247641841459,128.65908642751765L235.8777981134699,116.07594100748247L232.74813459101279,110.10187544530254L233.32465155567843,104.20679823353021L238.92510206954466,104.36613334794401L243.3725186540869,104.52546797864943L245.26678868084127,102.29473912563572L250.20836266366314,106.11878768551014L252.84386878783334,104.12713049492959L255.64409404477192,112.41192797607437Z" style="fill: rgb(252, 138, 107);"></path><path transform="translate(0,0)" d="M9.224271434602997,103.09143888752078L12.271575390677754,106.43744582404452L13.095171054483217,110.5798256804137L17.542587639021804,114.88118220499109L21.90764465718894,116.71313460393958L25.61382514430443,122.04932803781321L14.083485851049772,124.9959492938442L13.177530620861944,126.9868162851626L10.459664930309373,125.95157483897856L1.1530339293240104,109.78323953965264L0,106.99509291292179L3.0473039560747566,104.60513511262161Z" style="fill: rgb(252, 171, 143);"></path><path transform="translate(0,0)" d="M233.32465155567843,104.20679823353021L232.74813459101279,110.10187544530254L235.8777981134699,116.07594100748247L234.7247641841459,128.65908642751765L233.4070111220608,130.80907008253507L235.46600028156536,138.85082454245548L232.25397719273315,142.51299977353483L227.64184147543347,140.36349291897568L220.22948050119157,141.4780629470979L220.80599746586086,145.37887289094942L217.92341264254355,147.76698180156018L219.57060397015084,156.6816360217381L219.65296353652957,163.28706358099316L213.55835562438006,169.6529620693973L210.26397296916548,167.58412883504934L213.31127692524024,156.99998876672907L211.66408559763295,152.1449014280779L208.6167816415582,150.15498287298033L206.72251161481108,145.0604502187516L204.58116288892052,144.02556328556602L205.98127551738799,133.51633221023076L203.42812895959287,126.42938111100557L198.89835280867192,120.05827436728669L191.81543009995585,117.42996817322091L196.50992538364153,114.40327108290239L201.36913980008467,113.0491659777872L207.21666901309072,113.52708940940283L212.9818386597217,110.34085110634078L219.32352527100738,107.07475629930741Z" style="fill: rgb(187, 22, 26);"></path><path transform="translate(0,0)" d="M286.7760101365602,116.87243179690176L284.7170209770484,124.83667668414273L284.14050401239,134.39218138456L281.5873574545949,138.85082454245548L276.563423905387,141.39845158217668L272.85724341827154,141.79650720699738L269.9746585949579,144.34399219252737L265.77432070955547,143.8663481125932L256.63240884133484,132.40159404674432L258.03252146979867,127.7831420186676L261.5739828241567,115.8369914185032L267.9980290018284,108.4290153783686L269.31578206391714,105.4017998020372L274.99859214415847,105.4814656059998L279.9401661269876,106.27811699653194L284.3052231451511,111.05777156787917Z" style="fill: rgb(252, 171, 143);"></path><path transform="translate(0,0)" d="M109.2087850204116,105.56113128905781L114.56215683514165,108.74765949851735L120.65676474728753,109.22562205434224L129.0574405180887,112.88985720162782L128.56328311980542,118.86360600906755L129.30451921723215,124.9163130491952L127.08081092495922,130.4905595180826L128.81036181894524,136.22345540545575L128.23384485428323,142.99065608649562L131.1164296775969,147.20976603671443L126.50429396029358,147.84658357438366L126.66901309305467,157.71627544732291L125.59833873011667,160.66090784193966L128.23384485428323,165.1173376353163L125.43361959735194,165.27648891604713L118.02125862311368,164.40115096247519L117.60946079121277,160.34257709309168L107.64395325918304,160.02424443221116L103.52597494016663,146.33412939939717L105.0908067013952,140.20426670921916L104.18485147120737,132.64046849365877L104.34957060396846,125.07558541809703L107.8910319583265,112.65089313206863Z" style="fill: rgb(252, 171, 143);"></path><path transform="translate(0,0)" d="M580.88202168098,119.26183180872613L585,123.00500705210379L583.5998873715325,126.9868162851626L579.5642686188912,128.8183474832349L576.1051668309119,127.14608239459994L574.7874137688268,124.1199439802067L568.4457271575411,122.76608892476088L567.1279740954487,125.47376423340847L561.2804448824427,118.783960487478L556.9977474306615,112.17296173358864L558.8096578910299,110.8984567551015L562.8452766436749,114.32361880688404L567.8692101928755,116.23524013032056L575.693368999011,116.07594100748247Z" style="fill: rgb(252, 171, 143);"></path><path transform="translate(0,0)" d="M191.81543009995585,117.42996817322091L198.89835280867192,120.05827436728669L203.42812895959287,126.42938111100557L200.21610587075702,130.7294426218059L194.61565535688715,130.7294426218059L194.61565535688715,138.05466588556556L191.8977896663382,144.6624191809542L188.52104744474127,141.5576741920422L184.65014782486105,152.30409167989728L178.72025904547627,161.69546957231887L179.54385470927446,168.8572665224301L173.44924679712858,170.6873484505877L174.93171899197114,163.7645324675541L170.64902154019364,160.66090784193966L170.40194284105382,155.3286155063215L166.03688582289033,151.66732779951872L155.65958045896332,148.5629941381385L148.7413768830047,149.19979538161806L146.43530902435668,145.0604502187516L141.3290159087701,141.08000492263818L137.7051949880297,141.23922849238352L135.8932845276613,147.92618522738394L131.1164296775969,147.20976603671443L128.23384485428323,142.99065608649562L128.81036181894524,136.22345540545575L127.08081092495922,130.4905595180826L129.30451921723215,124.9163130491952L128.56328311980542,118.86360600906755L144.6233985639883,119.66005459471307L144.7057581303634,118.4653771954936L148.3295790511038,115.19978720652125L156.15373785724296,110.8984567551015L159.20104181331772,114.801530652966L159.94227791073718,121.17327370128442L164.14261579613958,119.739698790293L172.87272983246294,118.54502319933363L176.00239335492006,119.66005459471307L178.80261861185136,117.35032048125868L182.50879909897048,118.4653771954936L188.35632831197654,116.31488951080883Z" style="fill: rgb(252, 138, 107);"></path><path transform="translate(0,0)" d="M307.7776995635613,120.93434726097712L305.9657891031966,128.49982489057402L307.5306208644215,133.0385901677546L303.824440377306,133.8348245015095L301.2712938195109,139.80619908455265L290.15275235815716,142.5926094589022L282.24623398563926,142.3537800429276L278.5400534985238,143.94595575903531L276.563423905387,141.39845158217668L281.5873574545949,138.85082454245548L284.14050401239,134.39218138456L284.7170209770484,124.83667668414273L286.7760101365602,116.87243179690176L292.6235393495699,116.31488951080883L299.7888216246647,118.86360600906755L303.33028297902274,115.91664140212652Z" style="fill: rgb(252, 171, 143);"></path><path transform="translate(0,0)" d="M63.16978741376806,123.96066872139636L66.62888920174373,125.87194003900458L67.37012529916683,129.13686815103938L66.7112487681261,134.55142512680777L60.451921723208216,135.02915346982718L57.56933689990183,139.72658519955803L54.68675207658089,139.6469711945383L53.28663944811706,141.39845158217668L47.850908067011915,140.28387987410497L42.82697451780405,143.38869971551958L38.3795579332691,139.6469711945383L38.29719836688673,136.46231254925988L32.779107419399224,134.15331486997547L24.131352949458233,136.14383611729681L21.742925524427847,128.89797783063477L13.177530620861944,126.9868162851626L14.083485851049772,124.9959492938442L25.61382514430443,122.04932803781321L36.155849640996166,119.18218688989691L40.85034492467821,120.53613411702554L43.2387723497086,118.70431484532492Z" style="fill: rgb(252, 171, 143);"></path><path transform="translate(0,0)" d="M355.21680979867597,122.28824941767107L360.7349007461635,124.43849305276308L358.4288328875118,128.73871701552798L364.7705194988048,132.87934185871836L362.87624947205404,136.94002359398564L364.7705194988048,146.09531689049982L363.2056877375726,148.80179550289722L367.2413064902139,150.95095927529565L367.406025622975,153.9755604180773L367.15894692383154,159.8650773847212L363.7822047022346,160.58132533397384L360.7349007461635,167.34541211835676L361.1466985780644,173.07431704380815L357.76995635646745,177.1319175182507L356.86400112628326,180.63234355963323L351.840067577079,182.62111935513713L349.53399971842737,181.74606716507424L346.98085316063225,173.8699494031498L339.56849218639763,165.75393989325767L335.4505138673776,156.0449247910883L333.0620864423472,153.33881664609908L340.9686048148651,148.00578676056648L344.7571448683593,139.16928464375087L347.96916795719517,124.9959492938442L351.75770801069666,124.9959492938442Z" style="fill: rgb(252, 138, 107);"></path><path transform="translate(0,0)" d="M383.6308601999117,127.94240572134822L385.6074897930448,131.04795174321134L390.5490637758703,135.02915346982718L385.36041109390135,138.37313078902662L382.06602843868677,143.70713245993738L381.1600732085026,147.44857351205064L372.67703787131904,148.48339344361557L367.406025622975,153.9755604180773L367.2413064902139,150.95095927529565L363.2056877375726,148.80179550289722L364.7705194988048,146.09531689049982L362.87624947205404,136.94002359398564L364.7705194988048,132.87934185871836L358.4288328875118,128.73871701552798L360.7349007461635,124.43849305276308L364.8528790651799,124.67740359281925L371.02984654371176,122.60680957091427L376.30085879205944,122.92536779677903L377.78333098690564,126.03120951858182Z" style="fill: rgb(252, 171, 143);"></path><path transform="translate(0,0)" d="M347.96916795719517,124.9959492938442L344.7571448683593,139.16928464375087L340.9686048148651,148.00578676056648L333.0620864423472,153.33881664609908L327.3792763620986,157.07957665400136L324.74377023792476,150.55297257101847L318.237364493878,148.96099581375347L316.09601576798013,147.20976603671443L315.6018583697005,142.43338996820967L311.97803744896737,138.53236252038914L315.9312966352227,133.19783799600918L320.46107278614727,131.2072055824301L325.48500633534786,132.1627185179168L332.23849077854175,131.6053380762587L335.7799521328998,132.7200930688823L343.8511896381824,126.8275496943279Z" style="fill: rgb(252, 171, 143);"></path><path transform="translate(0,0)" d="M203.42812895959287,126.42938111100557L205.98127551738799,133.51633221023076L204.58116288892052,144.02556328556602L206.72251161481108,145.0604502187516L208.6167816415582,150.15498287298033L211.66408559763295,152.1449014280779L213.31127692524024,156.99998876672907L210.26397296916548,167.58412883504934L209.0285794734591,170.6077809829094L207.46374771223054,170.92605013819502L201.2867802337023,166.0722381574169L196.59228495001662,164.7990336412804L190.16823877234492,168.8572665224301L184.4854286921036,170.52821339599086L179.54385470927446,168.8572665224301L178.72025904547627,161.69546957231887L184.65014782486105,152.30409167989728L188.52104744474127,141.5576741920422L191.8977896663382,144.6624191809542L194.61565535688715,138.05466588556556L194.61565535688715,130.7294426218059L200.21610587075702,130.7294426218059Z" style="fill: rgb(252, 171, 143);"></path><path transform="translate(0,0)" d="M438.15289314373877,126.9868162851626L444.3298606222743,133.59595546332002L449.10671547233505,135.82535776345594L452.40109812754963,134.23293716167063L455.1189638181022,130.3313035143001L459.64873996902315,133.67557859623048L463.437280022521,129.61464554393388L469.0377305363909,131.5257118179661L472.4968323243702,130.88869742301358L475.8735745459635,141.79650720699738L483.203575953823,145.936107951924L484.35660988314703,149.0405957895L477.93256370547533,148.00578676056648L474.80290018302185,145.6176886363337L471.50851752780363,147.528175764166L474.30874278473493,154.77147936345318L464.59031395184866,154.21433735806386L465.7433478811763,149.35899449459976L462.11952696043954,149.35899449459976L456.7661551457131,146.09531689049982L455.61312121638184,140.92078087292612L452.9776150922153,138.2935147432545L445.07109671969374,140.28387987410497L438.81176967478314,137.01964168109134L434.3643530902373,132.0830931012115L436.67042094889257,128.8183474832349Z" style="fill: rgb(252, 171, 143);"></path><path transform="translate(0,0)" d="M434.3643530902373,132.0830931012115L438.81176967478314,137.01964168109134L445.07109671969374,140.28387987410497L452.9776150922153,138.2935147432545L455.61312121638184,140.92078087292612L456.7661551457131,146.09531689049982L462.11952696043954,149.35899449459976L465.7433478811763,149.35899449459976L464.59031395184866,154.21433735806386L456.3543573138122,157.87544894992516L454.8718851189624,162.6504317109211L448.44783894128705,159.38757337385323L442.35323102914117,164.4807277370237L434.52907222300564,161.77505040756114L436.1762635506093,157.71627544732291L426.7049134168665,154.37352138643564L424.72828382373336,155.56738634449812L419.2101928762495,154.69188800734446L417.2335632831164,156.28369239961285L415.7510910882702,152.06530612260485L416.4923271856969,147.28936864832485L420.2808672391948,137.33811282858005L417.810080247782,134.15331486997547L421.5162607348975,128.97760805773487L429.58749824018014,128.49982489057402Z" style="fill: rgb(252, 171, 143);"></path><path transform="translate(0,0)" d="M258.03252146979867,127.7831420186676L256.63240884133484,132.40159404674432L265.77432070955547,143.8663481125932L265.85668027593783,154.37352138643564L260.9974658594947,157.3183395983251L259.1031958327476,164.40115096247519L253.91454315077863,166.62925552456454L247.73757567224675,167.58412883504934L241.39588906095742,163.92368780773086L238.84274250316957,163.44622035419707L231.59510066168878,163.048327525471L230.5244262987435,164.71945734430665L221.3001548641405,167.42498447657363L216.35858088131863,171.00561712892704L210.92284950020985,172.35823773069205L209.0285794734591,170.6077809829094L210.26397296916548,167.58412883504934L213.55835562438006,169.6529620693973L219.65296353652957,163.28706358099316L219.57060397015084,156.6816360217381L217.92341264254355,147.76698180156018L220.80599746586086,145.37887289094942L220.22948050119157,141.4780629470979L227.64184147543347,140.36349291897568L232.25397719273315,142.51299977353483L235.46600028156536,138.85082454245548L248.80825003519567,137.09925964809736L254.49106011544427,133.67557859623048Z" style="fill: rgb(239, 70, 52);"></path><path transform="translate(0,0)" d="M67.37012529916683,129.13686815103938L71.89990145008778,131.5257118179661L88.37181472616794,134.71066838842216L93.88990567365909,134.07369245811788L97.67844572715694,139.2488993689676L105.0908067013952,140.20426670921916L103.52597494016663,146.33412939939717L107.64395325918304,160.02424443221116L93.97226524003781,156.52245893168765L87.8776573278883,154.37352138643564L81.37125158383424,155.16943434939094L77.25327326481784,158.352966588257L72.64113754751452,157.71627544732291L72.8882162466507,155.01025271392882L63.334506546529155,147.05056045398032L60.451921723208216,142.75182846978532L54.68675207658089,139.6469711945383L57.56933689990183,139.72658519955803L60.451921723208216,135.02915346982718L66.7112487681261,134.55142512680777Z" style="fill: rgb(253, 201, 180);"></path><path transform="translate(0,0)" d="M307.5306208644215,133.0385901677546L311.97803744896737,138.53236252038914L315.6018583697005,142.43338996820967L316.09601576798013,147.20976603671443L318.237364493878,148.96099581375347L318.07264536111325,151.03055625692014L313.62522877657466,156.0449247910883L307.36590173166405,157.23875206980028L305.22455300576985,164.63988092793716L300.44769815570544,161.13840038044327L297.5651133323954,160.97923667889245L296.4944389694465,158.352966588257L290.9763480219626,160.899654648887L290.6469097564368,154.61229653158716L288.8349992960684,151.03055625692014L290.15275235815716,142.5926094589022L301.2712938195109,139.80619908455265L303.824440377306,133.8348245015095Z" style="fill: rgb(252, 171, 143);"></path><path transform="translate(0,0)" d="M417.810080247782,134.15331486997547L420.2808672391948,137.33811282858005L416.4923271856969,147.28936864832485L415.7510910882702,152.06530612260485L417.2335632831164,156.28369239961285L417.3982824158775,158.67130928940878L414.1862593270416,163.84411019734944L408.91524707869394,163.44622035419707L407.10333661832556,172.8356250121151L402.40884133464715,181.26875990378267L393.76108686470616,178.8026041478206L388.3253554835974,180.71189601908463L387.7488385189354,173.7108238846149L391.1255807405287,168.2207014963924L396.973109953542,156.0449247910883L399.5262565113335,156.84081263341432L404.79726875967754,149.99578615545488L409.57412360974195,139.72658519955803L414.268618893424,133.51633221023076Z" style="fill: rgb(252, 171, 143);"></path><path transform="translate(0,0)" d="M54.68675207658089,139.6469711945383L60.451921723208216,142.75182846978532L63.334506546529155,147.05056045398032L72.8882162466507,155.01025271392882L72.64113754751452,157.71627544732291L71.48810361818323,161.0588185894112L63.49922567929025,164.24199705517913L57.48697733351946,164.56030439218011L53.533718147260515,167.6637008353091L53.45135858087815,171.64214876264577L45.70955934112135,168.53898496376314L38.87371533154874,170.92605013819502L32.20259045473358,170.6077809829094L26.190342108962795,165.9926637704184L33.52034351682232,157.87544894992516L32.69674785301686,151.26934648337738L28.414050401235727,147.05056045398032L27.672814303816267,141.79650720699738L24.131352949458233,136.14383611729681L32.779107419399224,134.15331486997547L38.29719836688673,136.46231254925988L38.3795579332691,139.6469711945383L42.82697451780405,143.38869971551958L47.850908067011915,140.28387987410497L53.28663944811706,141.39845158217668Z" style="fill: rgb(252, 171, 143);"></path><path transform="translate(0,0)" d="M390.5490637758703,135.02915346982718L403.4795156975888,140.36349291897568L409.57412360974195,139.72658519955803L404.79726875967754,149.99578615545488L399.5262565113335,156.84081263341432L396.973109953542,156.0449247910883L391.1255807405287,168.2207014963924L387.7488385189354,173.7108238846149L386.67816415598645,167.9819876432066L388.0782767844539,161.85463112333764L386.1840067577068,157.55710146644287L382.39546670420896,153.57759645813348L381.1600732085026,147.44857351205064L382.06602843868677,143.70713245993738L385.36041109390135,138.37313078902662Z" style="fill: rgb(252, 171, 143);"></path><path transform="translate(0,0)" d="M173.44924679712858,170.6873484505877L171.63733633675656,177.6888188952189L166.6957623539347,177.450147590931L160.848233140925,177.05235970240028L155.9066591580995,183.09841448379393L150.63564690975545,182.62111935513713L147.91778121919924,177.92748912796287L145.03519639588922,176.09765662353584L136.79923975784914,176.57501030658386L134.9049697310984,172.11954248085203L131.1987892439829,171.40345029416767L128.4809235534267,168.45941427586786L128.23384485428323,165.1173376353163L125.59833873011667,160.66090784193966L126.66901309305467,157.71627544732291L126.50429396029358,147.84658357438366L131.1164296775969,147.20976603671443L135.8932845276613,147.92618522738394L137.7051949880297,141.23922849238352L141.3290159087701,141.08000492263818L146.43530902435668,145.0604502187516L148.7413768830047,149.19979538161806L155.65958045896332,148.5629941381385L166.03688582289033,151.66732779951872L170.40194284105382,155.3286155063215L170.64902154019364,160.66090784193966L174.93171899197114,163.7645324675541Z" style="fill: rgb(252, 171, 143);"></path><path transform="translate(0,0)" d="M276.563423905387,141.39845158217668L278.5400534985238,143.94595575903531L282.24623398563926,142.3537800429276L290.15275235815716,142.5926094589022L288.8349992960684,151.03055625692014L290.6469097564368,154.61229653158716L290.9763480219626,160.899654648887L296.4944389694465,158.352966588257L297.5651133323954,160.97923667889245L296.9885963677334,162.3321129093183L292.87061804870973,165.1969133353714L286.6112910037991,164.24199705517913L277.79881740109704,168.69812598167573L276.15162607348975,170.92605013819502L274.01027734759555,166.86797546316393L269.39814163029223,165.9130892640551L265.77432070955547,166.86797546316393L259.1031958327476,164.40115096247519L260.9974658594947,157.3183395983251L265.85668027593783,154.37352138643564L265.77432070955547,143.8663481125932L269.9746585949579,144.34399219252737L272.85724341827154,141.79650720699738Z" style="fill: rgb(252, 171, 143);"></path><path transform="translate(0,0)" d="M333.0620864423472,153.33881664609908L335.4505138673776,156.0449247910883L339.56849218639763,165.75393989325767L338.16837955793017,170.52821339599086L332.56792904406393,175.2224970682837L326.8027593974366,175.38161805946038L321.7788258482324,174.10863678727765L318.31972406025307,176.57501030658386L310.9897226523972,174.42688496465507L306.87174433337714,175.2224970682837L304.400957341968,173.6312609466022L301.7654512177942,171.7217146803705L302.2596086160738,166.5496819730115L296.9885963677334,162.3321129093183L297.5651133323954,160.97923667889245L300.44769815570544,161.13840038044327L305.22455300576985,164.63988092793716L307.36590173166405,157.23875206980028L313.62522877657466,156.0449247910883L318.07264536111325,151.03055625692014L318.237364493878,148.96099581375347L324.74377023792476,150.55297257101847L327.3792763620986,157.07957665400136Z" style="fill: rgb(253, 201, 180);"></path><path transform="translate(0,0)" d="M381.1600732085026,147.44857351205064L382.39546670420896,153.57759645813348L386.1840067577068,157.55710146644287L388.0782767844539,161.85463112333764L386.67816415598645,167.9819876432066L387.7488385189354,173.7108238846149L388.3253554835974,180.71189601908463L388.5724341827372,185.08709810834534L383.87793889905515,190.01871296175977L380.74827537659803,188.98470252357492L378.03040968604546,190.81409195017932L373.1711952696023,188.34837843095374L364.1116429677568,194.15455407342415L361.4761368435866,191.68899512436928L363.3704068703337,188.4279193582788L360.9819794453033,185.8825507534957L354.8873715331538,185.56437112179174L352.08714627621885,183.73480132898385L351.840067577079,182.62111935513713L356.86400112628326,180.63234355963323L357.76995635646745,177.1319175182507L361.1466985780644,173.07431704380815L360.7349007461635,167.34541211835676L363.7822047022346,160.58132533397384L367.15894692383154,159.8650773847212L367.406025622975,153.9755604180773L372.67703787131904,148.48339344361557Z" style="fill: rgb(252, 138, 107);"></path><path transform="translate(0,0)" d="M107.64395325918304,160.02424443221116L117.60946079121277,160.34257709309168L118.02125862311368,164.40115096247519L125.43361959735194,165.27648891604713L121.64507954385044,167.6637008353091L119.8331690834857,174.8246925056419L115.79755033084075,174.90425365643296L110.85597634802252,170.6077809829094L106.1614810643332,172.59693190776125L103.03181754188336,170.52821339599086L99.65507532028641,171.2443173857473L84.74799380543118,173.47213471308442L79.06518372518622,169.49382391419476L73.13529494579416,166.9475485373605L65.7229339715559,165.75393989325767L63.49922567929025,164.24199705517913L71.48810361818323,161.0588185894112L72.64113754751452,157.71627544732291L77.25327326481784,158.352966588257L81.37125158383424,155.16943434939094L87.8776573278883,154.37352138643564L93.97226524003781,156.52245893168765Z" style="fill: rgb(252, 171, 143);"></path><path transform="translate(0,0)" d="M442.35323102914117,164.4807277370237L441.03547796705243,167.34541211835676L434.3643530902373,172.0399771591674L431.2346895677874,177.84793250277107L425.7165986202999,191.68899512436928L425.7165986202999,195.90423641272264L422.1751372659419,195.34752553226735L420.6926650710957,192.32527932012545L413.11558496409634,189.46194060443668L410.89187667182705,186.20072848353811L410.0682810080252,181.18920827718284L405.8679431226228,184.29163357582274L402.40884133464715,181.26875990378267L407.10333661832556,172.8356250121151L408.91524707869394,163.44622035419707L414.1862593270416,163.84411019734944L417.3982824158775,158.67130928940878L417.2335632831164,156.28369239961285L419.2101928762495,154.69188800734446L424.72828382373336,155.56738634449812L426.7049134168665,154.37352138643564L436.1762635506093,157.71627544732291L434.52907222300564,161.77505040756114Z" style="fill: rgb(252, 171, 143);"></path><path transform="translate(0,0)" d="M296.9885963677334,162.3321129093183L302.2596086160738,166.5496819730115L301.7654512177942,171.7217146803705L304.400957341968,173.6312609466022L303.41264254540147,180.47323828376557L301.5183725186507,186.0416398562129L302.1772490496951,188.26883738483775L297.9769111642963,188.82562221310945L296.9062368013474,193.67735801570234L292.70589891594864,194.07502169375675L291.1410671547201,191.13224022103805L285.70533577361493,188.1097549362239L274.4220751795001,178.8821593444809L276.15162607348975,170.92605013819502L277.79881740109704,168.69812598167573L286.6112910037991,164.24199705517913L292.87061804870973,165.1969133353714Z" style="fill: rgb(252, 171, 143);"></path><path transform="translate(0,0)" d="M238.84274250316957,163.44622035419707L242.1371251583805,164.71945734430665L243.29015908770452,170.05080537030517L245.84330564549964,172.5173673012623L243.53723778684798,183.4961571539052L244.5255525834109,187.79158861341693L242.79600168942488,192.24574421109355L235.79543854709118,192.48434918212115L222.12375052794232,188.03021353372424L220.5589187667174,192.56388393508678L217.42925524426028,191.29131364413024L214.38195128818916,186.51890431205175L216.0291426157928,179.91636606992233L214.95846825284752,174.5064467111306L216.35858088131863,171.00561712892704L221.3001548641405,167.42498447657363L230.5244262987435,164.71945734430665L231.59510066168878,163.048327525471Z" style="fill: rgb(252, 171, 143);"></path><path transform="translate(0,0)" d="M238.84274250316957,163.44622035419707L241.39588906095742,163.92368780773086L247.73757567224675,167.58412883504934L253.91454315077863,166.62925552456454L259.1031958327476,164.40115096247519L265.77432070955547,166.86797546316393L269.39814163029223,165.9130892640551L274.01027734759555,166.86797546316393L276.15162607348975,170.92605013819502L274.4220751795001,178.8821593444809L285.70533577361493,188.1097549362239L291.1410671547201,191.13224022103805L292.70589891594864,194.07502169375675L286.36421230466294,196.2223543066084L284.79938054343074,199.00580495359463L281.01084048992925,199.8010498960166L276.8105026045305,203.45902403318814L276.72814303815176,207.2757733982735L271.37477122342534,212.2848432987912L266.9273546388831,209.50208463013496L264.04476981556945,205.92403918473155L259.6797127974096,207.19626056759807L254.9852175137239,204.8903370033495L252.92622835421207,205.84452434244668L243.7843164859878,204.17468531306986L242.79600168942488,192.24574421109355L244.5255525834109,187.79158861341693L243.53723778684798,183.4961571539052L245.84330564549964,172.5173673012623L243.29015908770452,170.05080537030517L242.1371251583805,164.71945734430665Z" style="fill: rgb(252, 171, 143);"></path><path transform="translate(0,0)" d="M63.49922567929025,164.24199705517913L65.7229339715559,165.75393989325767L73.13529494579416,166.9475485373605L79.06518372518622,169.49382391419476L84.74799380543118,173.47213471308442L86.88934253132538,176.89324371346174L83.18316204420626,184.1325392426561L83.92439814162572,193.2001576863613L83.18316204420626,201.15293910326545L76.5120371673911,199.40342890619013L67.86428269745011,199.56247765764147L63.25214698014679,197.41527951043736L56.086864705051994,197.81291531664374L46.862593270449,200.11914455484657L49.82753766013775,196.14282501103025L47.76854850063319,194.39315050056484L49.33338026185811,184.84845999685604L54.85147120934198,184.60982081544626L55.345628607628896,181.50741406976886L51.63944812050613,178.48438217084185L51.721807686892134,172.5173673012623L53.45135858087815,171.64214876264577L53.533718147260515,167.6637008353091L57.48697733351946,164.56030439218011Z" style="fill: rgb(252, 171, 143);"></path><path transform="translate(0,0)" d="M207.46374771223054,170.92605013819502L204.49880332253815,173.47213471308442L204.91060115443906,182.14381994477299L208.53442207517946,187.7120467357072L206.64015204842508,191.45038659236343L209.52273687174238,196.46094148180055L209.3580177389813,200.75532818498777L211.91116429677277,204.57227076925392L210.42869210192657,207.2757733982735L213.31127692524024,217.5319372334925L211.1699281993533,220.4732649087764L211.82880473039404,224.28880069320348L198.65127410952846,228.89887742029532L196.83936364916008,226.4349202031317L192.39194706461785,226.5144044610879L186.95621568350907,222.85800661386565L180.61452907222338,223.0964749465793L172.7903702660842,227.30924056062304L165.21329015908486,223.8913617250255L168.75475151343926,219.67832741424718L167.8487962832587,216.02146292733687L168.91947064620035,211.96682106573735L168.0135154160198,204.8903370033495L170.64902154019364,195.7451767541961L171.30789807123438,186.67799151327836L169.49598761086963,181.42786280007203L166.6957623539347,177.450147590931L171.63733633675656,177.6888188952189L173.44924679712858,170.6873484505877L179.54385470927446,168.8572665224301L184.4854286921036,170.52821339599086L190.16823877234492,168.8572665224301L196.59228495001662,164.7990336412804L201.2867802337023,166.0722381574169Z" style="fill: rgb(239, 70, 52);"></path><path transform="translate(0,0)" d="M128.23384485428323,165.1173376353163L128.4809235534267,168.45941427586786L131.1987892439829,171.40345029416767L134.9049697310984,172.11954248085203L136.79923975784914,176.57501030658386L137.12867802336768,180.2345794775356L133.01069970435128,182.78021820707818L135.48148669575676,189.46194060443668L131.1987892439829,195.98376606409238L129.0574405180887,204.73130412305454L130.86935097845708,208.15040672761916L127.49260875686377,211.4102776073887L128.56328311980542,217.2139461847446L125.92777699563521,220.71174385647828L125.51597916373066,227.4682063668106L120.98620301281335,230.80637947367268L118.92721385330151,230.96533491711762L117.7741799239775,227.62717170178985L117.85653949035259,218.16791366462348L111.67957201182435,209.58159403059562L107.64395325918304,204.25420264107834L104.59664930310828,197.41527951043736L102.70237927636117,187.47342038972056L100.31395185133078,182.22337014385994L102.0435027453168,176.97280176747063L99.65507532028641,171.2443173857473L103.03181754188336,170.52821339599086L106.1614810643332,172.59693190776125L110.85597634802252,170.6077809829094L115.79755033084075,174.90425365643296L119.8331690834857,174.8246925056419L121.64507954385044,167.6637008353091L125.43361959735194,165.27648891604713Z" style="fill: rgb(253, 201, 180);"></path><path transform="translate(0,0)" d="M339.56849218639763,165.75393989325767L346.98085316063225,173.8699494031498L349.53399971842737,181.74606716507424L351.840067577079,182.62111935513713L352.08714627621885,183.73480132898385L351.67534844431793,184.53027418387592L348.71040405462554,185.8825507534957L341.5451217795271,184.4507274334128L337.4271434605107,185.2461895883016L334.4621990708147,189.30286171922035L329.76770378713263,190.1777897093707L332.40320991130284,198.0514953777365L329.60298465437154,204.25420264107834L326.88511896381533,205.92403918473155L319.0609601576798,201.94815205507985L315.68421793608286,200.83485060558723L308.7660143601315,203.14094927471706L308.8483739265066,196.540470303029L304.73039560748657,192.96155591970273L302.1772490496951,188.26883738483775L301.5183725186507,186.0416398562129L303.41264254540147,180.47323828376557L304.400957341968,173.6312609466022L306.87174433337714,175.2224970682837L310.9897226523972,174.42688496465507L318.31972406025307,176.57501030658386L321.7788258482324,174.10863678727765L326.8027593974366,175.38161805946038L332.56792904406393,175.2224970682837L338.16837955793017,170.52821339599086Z" style="fill: rgb(252, 138, 107);"></path><path transform="translate(0,0)" d="M32.20259045473358,170.6077809829094L39.77967056173293,177.76837575852915L40.19146839363748,180.55279098119536L43.8152893143706,183.1779632556545L49.33338026185811,184.84845999685604L47.76854850063319,194.39315050056484L49.82753766013775,196.14282501103025L46.862593270449,200.11914455484657L44.96832324369825,206.79869463946488L46.53315500492681,212.36434856158758L47.356750668732275,228.02458297784506L46.61551457130554,233.58803176707897L30.14360129522538,228.34250987851465L25.36674644516097,228.42199130923382L23.884274250314775,231.99853382326455L25.36674644516097,238.03837571046552L22.072363789946394,237.48210288177052L20.34281289596038,232.31643717747284L16.47191327608016,228.5014726221725L16.2248345769367,222.14259524798854L18.36618330282363,217.69093204954606L27.013937772771897,214.43144391805345L28.166971702099545,209.66110331280652L17.707306771782896,206.321611620996L21.578206391663116,196.93811263044063L20.836970294240018,189.46194060443668L25.202027312399878,185.64391620800234L27.343376038294082,171.2443173857473L26.190342108962795,165.9926637704184Z" style="fill: rgb(252, 138, 107);"></path><path transform="translate(0,0)" d="M532.7016753484422,168.8572665224301L540.443474588199,167.90241612019872L548.5147120934816,169.2551157868602L568.4457271575411,174.2677611142608L572.6460650429399,172.11954248085203L576.3522455300554,176.2567749942682L570.2576376179095,178.24571443818058L562.5981979445314,178.64349339740966L558.0684217936068,182.93931658329257L554.6093200056312,183.09841448379393L550.4913416866075,180.55279098119536L536.902013233841,184.84845999685604L532.7016753484422,188.66654142753032L525.4540335069687,190.97316632305774L521.2536956215699,190.495941779669L517.218076868925,187.8711303723203L509.3115584964107,189.30286171922035L504.4523440799676,192.24574421109355L499.2636913979986,192.48434918212115L491.35717302548073,189.30286171922035L489.21582429959017,185.80300602385068L489.5452625651087,181.9847191897543L498.02829790229225,180.8710005810317L507.993805434322,176.81368554036635L514.3354920456113,175.85897817416753L529.5720118259851,169.2551157868602Z" style="fill: rgb(252, 171, 143);"></path><path transform="translate(0,0)" d="M53.45135858087815,171.64214876264577L51.721807686892134,172.5173673012623L51.63944812050613,178.48438217084185L55.345628607628896,181.50741406976886L54.85147120934198,184.60982081544626L49.33338026185811,184.84845999685604L43.8152893143706,183.1779632556545L40.19146839363748,180.55279098119536L39.77967056173293,177.76837575852915L32.20259045473358,170.6077809829094L38.87371533154874,170.92605013819502L45.70955934112135,168.53898496376314Z" style="fill: rgb(252, 171, 143);"></path><path transform="translate(0,0)" d="M216.35858088131863,171.00561712892704L214.95846825284752,174.5064467111306L216.0291426157928,179.91636606992233L214.38195128818916,186.51890431205175L217.42925524426028,191.29131364413024L220.5589187667174,192.56388393508678L222.12375052794232,188.03021353372424L235.79543854709118,192.48434918212115L242.79600168942488,192.24574421109355L243.7843164859878,204.17468531306986L245.43150781359873,211.33077092624262L241.47824862733614,215.0674571911295L237.03083204279756,222.22208587146542L233.8188089539617,220.07579763635385L225.17105448402071,220.07579763635385L211.82880473039404,224.28880069320348L211.1699281993533,220.4732649087764L213.31127692524024,217.5319372334925L210.42869210192657,207.2757733982735L211.91116429677277,204.57227076925392L209.3580177389813,200.75532818498777L209.52273687174238,196.46094148180055L206.64015204842508,191.45038659236343L208.53442207517946,187.7120467357072L204.91060115443906,182.14381994477299L204.49880332253815,173.47213471308442L207.46374771223054,170.92605013819502L209.0285794734591,170.6077809829094L210.92284950020985,172.35823773069205Z" style="fill: rgb(252, 138, 107);"></path><path transform="translate(0,0)" d="M99.65507532028641,171.2443173857473L102.0435027453168,176.97280176747063L100.31395185133078,182.22337014385994L102.70237927636117,187.47342038972056L104.59664930310828,197.41527951043736L107.64395325918304,204.25420264107834L111.67957201182435,209.58159403059562L104.102491904825,209.89963044992874L98.33732225819404,207.8323599004152L90.26608475292232,207.2757733982735L83.34788117696735,204.57227076925392L83.18316204420626,201.15293910326545L83.92439814162572,193.2001576863613L83.18316204420626,184.1325392426561L86.88934253132538,176.89324371346174L84.74799380543118,173.47213471308442Z" style="fill: rgb(252, 171, 143);"></path><path transform="translate(0,0)" d="M145.03519639588922,176.09765662353584L147.25890468815487,183.0188655930051L144.87047726312449,190.65501710239005L146.02351119245213,192.16620898336805L144.95283682950685,199.16485489018214L154.4241869632533,203.93613261868995L152.9417147684071,207.8323599004152L154.91834436153295,212.84137765660216L150.88272560889527,213.87492610230765L149.64733211319253,217.61143470054412L144.6233985639883,215.305960219589L136.22272279318713,219.43984386502325L133.66957623538838,227.54768909319864L129.6339574827507,230.96533491711762L124.9394621990723,232.31643717747284L120.98620301281335,230.80637947367268L125.51597916373066,227.4682063668106L125.92777699563521,220.71174385647828L128.56328311980542,217.2139461847446L127.49260875686377,211.4102776073887L130.86935097845708,208.15040672761916L129.0574405180887,204.73130412305454L131.1987892439829,195.98376606409238L135.48148669575676,189.46194060443668L133.01069970435128,182.78021820707818L137.12867802336768,180.2345794775356L136.79923975784914,176.57501030658386Z" style="fill: rgb(252, 171, 143);"></path><path transform="translate(0,0)" d="M166.6957623539347,177.450147590931L169.49598761086963,181.42786280007203L171.30789807123438,186.67799151327836L170.64902154019364,195.7451767541961L168.0135154160198,204.8903370033495L168.91947064620035,211.96682106573735L167.8487962832587,216.02146292733687L168.75475151343926,219.67832741424718L165.21329015908486,223.8913617250255L160.02463747712318,220.07579763635385L151.62396170631837,220.07579763635385L149.64733211319253,217.61143470054412L150.88272560889527,213.87492610230765L154.91834436153295,212.84137765660216L152.9417147684071,207.8323599004152L154.4241869632533,203.93613261868995L144.95283682950685,199.16485489018214L146.02351119245213,192.16620898336805L144.87047726312449,190.65501710239005L147.25890468815487,183.0188655930051L145.03519639588922,176.09765662353584L147.91778121919924,177.92748912796287L150.63564690975545,182.62111935513713L155.9066591580995,183.09841448379393L160.848233140925,177.05235970240028Z" style="fill: rgb(252, 138, 107);"></path><path transform="translate(0,0)" d="M402.40884133464715,181.26875990378267L405.8679431226228,184.29163357582274L410.0682810080252,181.18920827718284L410.89187667182705,186.20072848353811L413.11558496409634,189.46194060443668L420.6926650710957,192.32527932012545L422.1751372659419,195.34752553226735L425.7165986202999,195.90423641272264L424.2341264254537,199.323904352701L419.86906940729386,197.89244212222366L415.83345065465255,201.70958941331446L414.9274954244647,205.28791713261853L415.421652822748,212.60286364089097L409.98592144164286,213.47740983247513L405.2914261579608,209.18404584572272L401.42052653808423,210.7742208482532L399.3615373785724,207.99138355060404L386.1840067577068,205.92403918473155L385.7722089258059,204.73130412305454L370.370970012671,199.24437968069833L363.9469238349993,196.540470303029L364.1116429677568,194.15455407342415L373.1711952696023,188.34837843095374L378.03040968604546,190.81409195017932L380.74827537659803,188.98470252357492L383.87793889905515,190.01871296175977L388.5724341827372,185.08709810834534L388.3253554835974,180.71189601908463L393.76108686470616,178.8026041478206Z" style="fill: rgb(252, 138, 107);"></path><path transform="translate(0,0)" d="M352.08714627621885,183.73480132898385L354.8873715331538,185.56437112179174L360.9819794453033,185.8825507534957L363.3704068703337,188.4279193582788L361.4761368435866,191.68899512436928L364.1116429677568,194.15455407342415L363.9469238349993,196.540470303029L370.370970012671,199.24437968069833L371.19456567647285,203.37950552118946L375.1478248627318,209.66110331280652L378.68928621708983,208.5479626001279L383.4661410671506,219.3603491126123L392.85513163451833,222.61953721990085L388.81951288188066,224.3682881331897L373.83007180064305,226.91182398353885L368.4766999859203,223.49391980956716L361.39377727720057,223.6528969294368L360.15838378150147,220.07579763635385L353.4872589046863,214.35194172735737L354.8873715331538,212.12583241864468L353.15782063916413,206.321611620996L349.7810784175672,205.12888543601093L343.27467267351676,207.2757733982735L341.2156835140049,200.0396210678855L347.4750105589155,192.96155591970273L351.67534844431793,184.53027418387592Z" style="fill: rgb(252, 171, 143);"></path><path transform="translate(0,0)" d="M351.67534844431793,184.53027418387592L347.4750105589155,192.96155591970273L341.2156835140049,200.0396210678855L343.27467267351676,207.2757733982735L339.9802900183022,210.05864795011348L346.4043361959739,219.04236892288918L346.81613402787116,227.30924056062304L343.5217513726602,227.22975748082354L333.47388427425176,232.5548634574925L326.4733211319144,235.0185396811421L322.1906236801333,238.51517640837574L313.048711811909,236.76688649563675L309.26017175841116,238.51517640837574L305.47163170490967,233.9059257083236L313.4605096438099,235.0185396811421L316.01365620160504,232.15748573573273L307.5306208644215,228.34250987851465L307.6953399971826,213.55691332274455L309.1778121920288,211.33077092624262L315.1077009714172,209.26355571921522L319.0609601576798,201.94815205507985L326.88511896381533,205.92403918473155L329.60298465437154,204.25420264107834L332.40320991130284,198.0514953777365L329.76770378713263,190.1777897093707L334.4621990708147,189.30286171922035L337.4271434605107,185.2461895883016L341.5451217795271,184.4507274334128L348.71040405462554,185.8825507534957Z" style="fill: rgb(252, 171, 143);"></path><path transform="translate(0,0)" d="M302.1772490496951,188.26883738483775L304.73039560748657,192.96155591970273L308.8483739265066,196.540470303029L308.7660143601315,203.14094927471706L315.68421793608286,200.83485060558723L319.0609601576798,201.94815205507985L315.1077009714172,209.26355571921522L309.1778121920288,211.33077092624262L307.6953399971826,213.55691332274455L307.5306208644215,228.34250987851465L300.20061945656926,234.1443449290482L300.0359003238045,238.03837571046552L291.7999436857608,236.5284789174848L288.8349992960684,233.1906616934748L283.0698296494411,233.3496100758739L281.09320005631525,229.53471897364489L275.5751091088241,224.20931313533856L269.39814163029223,224.28880069320348L268.3274672673542,221.02971413515934L271.37477122342534,212.2848432987912L276.72814303815176,207.2757733982735L276.8105026045305,203.45902403318814L281.01084048992925,199.8010498960166L284.79938054343074,199.00580495359463L286.36421230466294,196.2223543066084L292.70589891594864,194.07502169375675L296.9062368013474,193.67735801570234L297.9769111642963,188.82562221310945Z" style="fill: rgb(252, 138, 107);"></path><path transform="translate(0,0)" d="M83.18316204420626,201.15293910326545L83.34788117696735,204.57227076925392L90.26608475292232,207.2757733982735L89.1954103899734,219.99630382791838L83.84203857525063,231.52167526133144L82.03012811487861,226.03749714590685L74.12360974236071,226.67337262353158L60.28720259045076,225.0836697887362L56.25158383780945,226.91182398353885L52.380684217936505,231.8395814400501L46.61551457130554,233.58803176707897L47.356750668732275,228.02458297784506L46.53315500492681,212.36434856158758L44.96832324369825,206.79869463946488L46.862593270449,200.11914455484657L56.086864705051994,197.81291531664374L63.25214698014679,197.41527951043736L67.86428269745011,199.56247765764147L76.5120371673911,199.40342890619013Z" style="fill: rgb(252, 171, 143);"></path><path transform="translate(0,0)" d="M370.370970012671,199.24437968069833L385.7722089258059,204.73130412305454L386.1840067577068,205.92403918473155L399.3615373785724,207.99138355060404L401.42052653808423,210.7742208482532L405.2914261579608,209.18404584572272L409.98592144164286,213.47740983247513L404.467830494159,215.1469583187245L400.26749260875295,220.63225099188548L397.0554695199171,220.07579763635385L392.85513163451833,222.61953721990085L383.4661410671506,219.3603491126123L378.68928621708983,208.5479626001279L375.1478248627318,209.66110331280652L371.19456567647285,203.37950552118946Z" style="fill: rgb(252, 171, 143);"></path><path transform="translate(0,0)" d="M271.37477122342534,212.2848432987912L268.3274672673542,221.02971413515934L269.39814163029223,224.28880069320348L262.39757848796216,226.75285652801904L259.7620723637847,231.8395814400501L255.89117274391174,235.65430874416506L237.03083204279756,222.22208587146542L241.47824862733614,215.0674571911295L245.43150781359873,211.33077092624262L243.7843164859878,204.17468531306986L252.92622835421207,205.84452434244668L254.9852175137239,204.8903370033495L259.6797127974096,207.19626056759807L264.04476981556945,205.92403918473155L266.9273546388831,209.50208463013496Z" style="fill: rgb(252, 171, 143);"></path><path transform="translate(0,0)" d="M361.39377727720057,223.6528969294368L353.56961847106504,230.80637947367268L346.81613402787116,227.30924056062304L346.4043361959739,219.04236892288918L339.9802900183022,210.05864795011348L343.27467267351676,207.2757733982735L349.7810784175672,205.12888543601093L353.15782063916413,206.321611620996L354.8873715331538,212.12583241864468L353.4872589046863,214.35194172735737L360.15838378150147,220.07579763635385Z" style="fill: rgb(252, 171, 143);"></path><path transform="translate(0,0)" d="M90.26608475292232,207.2757733982735L98.33732225819404,207.8323599004152L104.102491904825,209.89963044992874L111.67957201182435,209.58159403059562L117.85653949035259,218.16791366462348L117.7741799239775,227.62717170178985L118.92721385330151,230.96533491711762L107.31451499366085,232.7932886784729L105.42024496691374,228.26302833002046L102.53766014360372,229.53471897364489L103.60833450654172,233.03171284045584L98.41968182458004,234.30329048803924L99.32563705476787,239.30983483671753L89.85428692101777,235.25695396179253L83.84203857525063,231.52167526133144L89.1954103899734,219.99630382791838Z" style="fill: rgb(252, 138, 107);"></path></g><g class="mark-group role-legend"><g transform="translate(603,0)"><path class="background" d="M0,0h26v200h-26Z" style="pointer-events: none; fill: none;"></path><g><g class="mark-group role-legend-entry"><g transform="translate(0,0)"><path class="background" d="M0,0h0v0h0Z" style="pointer-events: none; fill: none;"></path><g><g class="mark-rect role-legend-gradient" style="pointer-events: none;"><path d="M0,0h16v200h-16Z" style="fill: url(#gradient_0); stroke: #ddd; stroke-width: 0; opacity: 1;"></path></g><g class="mark-text role-legend-label" style="pointer-events: none;"><text text-anchor="start" transform="translate(18,175.42857142857144)" style="font-family: sans-serif; font-size: 14px; fill: #000; opacity: 1;">0</text><text text-anchor="start" transform="translate(18,118.28571428571428)" style="font-family: sans-serif; font-size: 14px; fill: #000; opacity: 1;">2</text><text text-anchor="start" transform="translate(18,61.14285714285714)" style="font-family: sans-serif; font-size: 14px; fill: #000; opacity: 1;">4</text><text text-anchor="start" transform="translate(18,11)" style="font-family: sans-serif; font-size: 14px; fill: #000; opacity: 1;">6</text></g></g><path class="foreground" d="" style="pointer-events: none; display: none; fill: none;"></path></g></g></g><path class="foreground" d="" style="pointer-events: none; display: none; fill: none;"></path></g></g></g><path class="foreground" d="" style="display: none; fill: none;"></path></g></g></g></svg>