<svg class="marks" width="631" height="314" viewBox="0 0 631 314" version="1.1" xmlns="http://www.w3.org/2000/svg" xmlns:xlink="http://www.w3.org/1999/xlink"><rect width="631" height="314" style="fill: white;"></rect><g transform="translate(51,5)"><g class="mark-group role-frame root"><g transform="translate(0,0)"><path class="background" d="M0.5,0.5h575v265h-575Z" style="fill: none; stroke: #ddd;"></path><g><g class="mark-group role-axis"><g transform="translate(0.5,265.5)"><path class="background" d="M0,0h0v0h0Z" style="pointer-events: none; fill: none;"></path><g><g class="mark-rule role-axis-grid" style="pointer-events: none;"><line transform="translate(9,-265)" x2="0" y2="265" style="fill: none; stroke: #ddd; stroke-width: 1; opacity: 1;"></line><line transform="translate(69,-265)" x2="0" y2="265" style="fill: none; stroke: #ddd; stroke-width: 1; opacity: 1;"></line><line transform="translate(129,-265)" x2="0" y2="265" style="fill: none; stroke: #ddd; stroke-width: 1; opacity: 1;"></line><line transform="translate(189,-265)" x2="0" y2="265" style="fill: none; stroke: #ddd; stroke-width: 1; opacity: 1;"></line><line transform="translate(249,-265)" x2="0" y2="265" style="fill: none; stroke: #ddd; stroke-width: 1; opacity: 1;"></line><line transform="translate(309,-265)" x2="0" y2="265" style="fill: none; stroke: #ddd; stroke-width: 1; opacity: 1;"></line><line transform="translate(369,-265)" x2="0" y2="265" style="fill: none; stroke: #ddd; stroke-width: 1; opacity: 1;"></line><line transform="translate(429,-265)" x2="0" y2="265" style="fill: none; stroke: #ddd; stroke-width: 1; opacity: 1;"></line><line transform="translate(489,-265)" x2="0" y2="265" style="fill: none; stroke: #ddd; stroke-width: 1; opacity: 1;"></line><line transform="translate(549,-265)" x2="0" y2="265" style="fill: none; stroke: #ddd; stroke-width: 1; opacity: 1;"></line></g></g><path class="foreground" d="" style="pointer-events: none; display: none; fill: none;"></path></g></g><g class="mark-group role-axis"><g transform="translate(0.5,0.5)"><path class="background" d="M0,0h0v0h0Z" style="pointer-events: none; fill: none;"></path><g><g class="mark-rule role-axis-grid" style="pointer-events: none;"><line transform="translate(0,265)" x2="575" y2="0" style="fill: none; stroke: #ddd; stroke-width: 1; opacity: 1;"></line><line transform="translate(0,224)" x2="575" y2="0" style="fill: none; stroke: #ddd; stroke-width: 1; opacity: 1;"></line><line transform="translate(0,183)" x2="575" y2="0" style="fill: none; stroke: #ddd; stroke-width: 1; opacity: 1;"></line><line transform="translate(0,143)" x2="575" y2="0" style="fill: none; stroke: #ddd; stroke-width: 1; opacity: 1;"></line><line transform="translate(0,102)" x2="575" y2="0" style="fill: none; stroke: #ddd; stroke-width: 1; opacity: 1;"></line><line transform="translate(0,61)" x2="575" y2="0" style="fill: none; stroke: #ddd; stroke-width: 1; opacity: 1;"></line><line transform="translate(0,20)" x2="575" y2="0" style="fill: none; stroke: #ddd; stroke-width: 1; opacity: 1;"></line></g></g><path class="foreground" d="" style="pointer-events: none; display: none; fill: none;"></path></g></g><g class="mark-group role-axis"><g transform="translate(0.5,265.5)"><path class="background" d="M0,0h0v0h0Z" style="pointer-events: none; fill: none;"></path><g><g class="mark-rule role-axis-tick" style="pointer-events: none;"><line transform="translate(9,0)" x2="0" y2="5" style="fill: none; stroke: #888; stroke-width: 1; opacity: 1;"></line><line transform="translate(69,0)" x2="0" y2="5" style="fill: none; stroke: #888; stroke-width: 1; opacity: 1;"></line><line transform="translate(129,0)" x2="0" y2="5" style="fill: none; stroke: #888; stroke-width: 1; opacity: 1;"></line><line transform="translate(189,0)" x2="0" y2="5" style="fill: none; stroke: #888; stroke-width: 1; opacity: 1;"></line><line transform="translate(249,0)" x2="0" y2="5" style="fill: none; stroke: #888; stroke-width: 1; opacity: 1;"></line><line transform="translate(309,0)" x2="0" y2="5" style="fill: none; stroke: #888; stroke-width: 1; opacity: 1;"></line><line transform="translate(369,0)" x2="0" y2="5" style="fill: none; stroke: #888; stroke-width: 1; opacity: 1;"></line><line transform="translate(429,0)" x2="0" y2="5" style="fill: none; stroke: #888; stroke-width: 1; opacity: 1;"></line><line transform="translate(489,0)" x2="0" y2="5" style="fill: none; stroke: #888; stroke-width: 1; opacity: 1;"></line><line transform="translate(549,0)" x2="0" y2="5" style="fill: none; stroke: #888; stroke-width: 1; opacity: 1;"></line></g><g class="mark-text role-axis-label" style="pointer-events: none;"><text text-anchor="middle" transform="translate(8.582089552238806,18)" style="font-family: sans-serif; font-size: 14px; fill: #000; opacity: 1;">15/03</text><text text-anchor="middle" transform="translate(68.65671641791045,18)" style="font-family: sans-serif; font-size: 14px; fill: #000; opacity: 1;">22/03</text><text text-anchor="middle" transform="translate(128.7313432835821,18)" style="font-family: sans-serif; font-size: 14px; fill: #000; opacity: 1;">29/03</text><text text-anchor="middle" transform="translate(188.80597014925374,18)" style="font-family: sans-serif; font-size: 14px; fill: #000; opacity: 1;">05/04</text><text text-anchor="middle" transform="translate(248.88059701492537,18)" style="font-family: sans-serif; font-size: 14px; fill: #000; opacity: 1;">12/04</text><text text-anchor="middle" transform="translate(308.95522388059703,18)" style="font-family: sans-serif; font-size: 14px; fill: #000; opacity: 1;">19/04</text><text text-anchor="middle" transform="translate(369.02985074626866,18)" style="font-family: sans-serif; font-size: 14px; fill: #000; opacity: 1;">26/04</text><text text-anchor="middle" transform="translate(429.1044776119403,18)" style="font-family: sans-serif; font-size: 14px; fill: #000; opacity: 1;">03/05</text><text text-anchor="middle" transform="translate(489.17910447761193,18)" style="font-family: sans-serif; font-size: 14px; fill: #000; opacity: 1;">10/05</text><text text-anchor="middle" transform="translate(549.2537313432836,18)" style="font-family: sans-serif; font-size: 14px; fill: #000; opacity: 1;">17/05</text></g><g class="mark-rule role-axis-domain" style="pointer-events: none;"><line transform="translate(0,0)" x2="575" y2="0" style="fill: none; stroke: #888; stroke-width: 1; opacity: 1;"></line></g><g class="mark-text role-axis-title" style="pointer-events: none;"><text text-anchor="middle" transform="translate(287.5,36)" style="font-family: sans-serif; font-size: 14px; font-weight: bold; fill: #000; opacity: 1;">Fecha de toma de muestra</text></g></g><path class="foreground" d="" style="pointer-events: none; display: none; fill: none;"></path></g></g><g class="mark-group role-axis"><g transform="translate(0.5,0.5)"><path class="background" d="M0,0h0v0h0Z" style="pointer-events: none; fill: none;"></path><g><g class="mark-rule role-axis-tick" style="pointer-events: none;"><line transform="translate(0,265)" x2="-5" y2="0" style="fill: none; stroke: #888; stroke-width: 1; opacity: 1;"></line><line transform="translate(0,224)" x2="-5" y2="0" style="fill: none; stroke: #888; stroke-width: 1; opacity: 1;"></line><line transform="translate(0,183)" x2="-5" y2="0" style="fill: none; stroke: #888; stroke-width: 1; opacity: 1;"></line><line transform="translate(0,143)" x2="-5" y2="0" style="fill: none; stroke: #888; stroke-width: 1; opacity: 1;"></line><line transform="translate(0,102)" x2="-5" y2="0" style="fill: none; stroke: #888; stroke-width: 1; opacity: 1;"></line><line transform="translate(0,61)" x2="-5" y2="0" style="fill: none; stroke: #888; stroke-width: 1; opacity: 1;"></line><line transform="translate(0,20)" x2="-5" y2="0" style="fill: none; stroke: #888; stroke-width: 1; opacity: 1;"></line></g><g class="mark-text role-axis-label" style="pointer-events: none;"><text text-anchor="end" transform="translate(-7,269)" style="font-family: sans-serif; font-size: 14px; fill: #000; opacity: 1;">-30</text><text text-anchor="end" transform="translate(-7,228.23076923076923)" style="font-family: sans-serif; font-size: 14px; fill: #000; opacity: 1;">-20</text><text text-anchor="end" transform="translate(-7,187.46153846153845)" style="font-family: sans-serif; font-size: 14px; fill: #000; opacity: 1;">-10</text><text text-anchor="end" transform="translate(-7,146.69230769230768)" style="font-family: sans-serif; font-size: 14px; fill: #000; opacity: 1;">0</text><text text-anchor="end" transform="translate(-7,105.92307692307692)" style="font-family: sans-serif; font-size: 14px; fill: #000; opacity: 1;">10</text><text text-anchor="end" transform="translate(-7,65.15384615384613)" style="font-family: sans-serif; font-size: 14px; fill: #000; opacity: 1;">20</text><text text-anchor="end" transform="translate(-7,24.384615384615373)" style="font-family: sans-serif; font-size: 14px; fill: #000; opacity: 1;">30</text></g><g class="mark-rule role-axis-domain" style="pointer-events: none;"><line transform="translate(0,265)" x2="0" y2="-265" style="fill: none; stroke: #888; stroke-width: 1; opacity: 1;"></line></g><g class="mark-text role-axis-title" style="pointer-events: none;"><text text-anchor="middle" transform="translate(-31.234375,132.5) rotate(-90) translate(0,-3)" style="font-family: sans-serif; font-size: 14px; font-weight: bold; fill: #000; opacity: 1;">Positivos menos confirmados</text></g></g><path class="foreground" d="" style="pointer-events: none; display: none; fill: none;"></path></g></g><g class="mark-rect role-mark marks"><path d="M1,142.69230769230768h7.582089552238806v12.230769230769226h-7.582089552238806Z" style="fill: orange;"></path><path d="M18.16417910447761,142.69230769230768h7.582089552238806v16.30769230769232h-7.582089552238806Z" style="fill: orange;"></path><path d="M26.746268656716417,142.69230769230768h7.582089552238806v24.46153846153848h-7.582089552238806Z" style="fill: orange;"></path><path d="M35.32835820895522,142.69230769230768h7.582089552238806v0h-7.582089552238806Z" style="fill: teal;"></path><path d="M43.91044776119403,142.69230769230768h7.582089552238806v4.076923076923094h-7.582089552238806Z" style="fill: orange;"></path><path d="M52.492537313432834,138.61538461538458h7.582089552238806v4.076923076923094h-7.582089552238806Z" style="fill: teal;"></path><path d="M61.07462686567164,142.69230769230768h7.582089552238806v0h-7.582089552238806Z" style="fill: teal;"></path><path d="M69.65671641791045,142.69230769230768h7.582089552238813v32.61538461538461h-7.582089552238813Z" style="fill: orange;"></path><path d="M78.23880597014926,142.69230769230768h7.5820895522387985v40.769230769230774h-7.5820895522387985Z" style="fill: orange;"></path><path d="M86.82089552238806,142.69230769230768h7.582089552238813v0h-7.582089552238813Z" style="fill: teal;"></path><path d="M95.40298507462687,142.69230769230768h7.5820895522387985v28.53846153846152h-7.5820895522387985Z" style="fill: orange;"></path><path d="M103.98507462686567,93.76923076923076h7.582089552238813v48.92307692307692h-7.582089552238813Z" style="fill: teal;"></path><path d="M112.56716417910448,142.69230769230768h7.5820895522387985v16.30769230769232h-7.5820895522387985Z" style="fill: orange;"></path><path d="M121.14925373134328,142.69230769230768h7.582089552238827v20.384615384615415h-7.582089552238827Z" style="fill: orange;"></path><path d="M129.7313432835821,142.69230769230768h7.582089552238784v40.769230769230774h-7.582089552238784Z" style="fill: orange;"></path><path d="M138.3134328358209,142.69230769230768h7.582089552238813v12.230769230769226h-7.582089552238813Z" style="fill: orange;"></path><path d="M146.8955223880597,142.69230769230768h7.582089552238813v40.769230769230774h-7.582089552238813Z" style="fill: orange;"></path><path d="M155.47761194029852,142.69230769230768h7.582089552238784v118.23076923076928h-7.582089552238784Z" style="fill: orange;"></path><path d="M164.0597014925373,142.69230769230768h7.582089552238813v93.76923076923077h-7.582089552238813Z" style="fill: orange;"></path><path d="M172.6417910447761,142.69230769230768h7.582089552238813v65.23076923076925h-7.582089552238813Z" style="fill: orange;"></path><path d="M181.22388059701493,142.69230769230768h7.582089552238813v32.61538461538461h-7.582089552238813Z" style="fill: orange;"></path><path d="M189.80597014925374,130.46153846153848h7.582089552238784v12.230769230769198h-7.582089552238784Z" style="fill: teal;"></path><path d="M198.38805970149252,142.69230769230768h7.582089552238813v0h-7.582089552238813Z" style="fill: teal;"></path><path d="M206.97014925373134,138.61538461538458h7.582089552238813v4.076923076923094h-7.582089552238813Z" style="fill: teal;"></path><path d="M215.55223880597015,93.76923076923076h7.582089552238813v48.92307692307692h-7.582089552238813Z" style="fill: teal;"></path><path d="M224.13432835820896,142.69230769230768h7.582089552238813v0h-7.582089552238813Z" style="fill: teal;"></path><path d="M232.71641791044777,126.38461538461537h7.582089552238784v16.307692307692307h-7.582089552238784Z" style="fill: teal;"></path><path d="M241.29850746268656,138.61538461538458h7.582089552238813v4.076923076923094h-7.582089552238813Z" style="fill: teal;"></path><path d="M249.88059701492537,134.53846153846152h7.582089552238841v8.15384615384616h-7.582089552238841Z" style="fill: teal;"></path><path d="M258.4626865671642,77.46153846153845h7.582089552238756v65.23076923076923h-7.582089552238756Z" style="fill: teal;"></path><path d="M267.04477611940297,81.53846153846155h7.582089552238813v61.15384615384613h-7.582089552238813Z" style="fill: teal;"></path><path d="M275.6268656716418,36.69230769230768h7.582089552238813v106h-7.582089552238813Z" style="fill: teal;"></path><path d="M284.2089552238806,69.30769230769229h7.582089552238813v73.38461538461539h-7.582089552238813Z" style="fill: teal;"></path><path d="M292.7910447761194,93.76923076923076h7.582089552238756v48.92307692307692h-7.582089552238756Z" style="fill: teal;"></path><path d="M301.37313432835816,89.6923076923077h7.58208955223887v52.999999999999986h-7.58208955223887Z" style="fill: teal;"></path><path d="M309.95522388059703,130.46153846153848h7.582089552238813v12.230769230769198h-7.582089552238813Z" style="fill: teal;"></path><path d="M318.53731343283584,40.769230769230774h7.582089552238756v101.9230769230769h-7.582089552238756Z" style="fill: teal;"></path><path d="M327.1194029850746,12.230769230769218h7.582089552238813v130.46153846153845h-7.582089552238813Z" style="fill: teal;"></path><path d="M335.7014925373134,20.384615384615373h7.582089552238813v122.3076923076923h-7.582089552238813Z" style="fill: teal;"></path><path d="M344.2835820895522,61.15384615384614h7.582089552238813v81.53846153846155h-7.582089552238813Z" style="fill: teal;"></path><path d="M352.86567164179104,73.38461538461539h7.582089552238813v69.30769230769229h-7.582089552238813Z" style="fill: teal;"></path><path d="M361.44776119402985,118.23076923076923h7.582089552238813v24.461538461538453h-7.582089552238813Z" style="fill: teal;"></path><path d="M378.6119402985075,40.769230769230774h7.582089552238813v101.9230769230769h-7.582089552238813Z" style="fill: teal;"></path><path d="M387.1940298507463,52.999999999999986h7.582089552238756v89.6923076923077h-7.582089552238756Z" style="fill: teal;"></path><path d="M395.77611940298505,36.69230769230768h7.58208955223887v106h-7.58208955223887Z" style="fill: teal;"></path><path d="M404.3582089552239,57.07692307692308h7.582089552238756v85.6153846153846h-7.582089552238756Z" style="fill: teal;"></path><path d="M412.94029850746267,69.30769230769229h7.582089552238813v73.38461538461539h-7.582089552238813Z" style="fill: teal;"></path><path d="M421.5223880597015,106h7.582089552238813v36.69230769230768h-7.582089552238813Z" style="fill: teal;"></path><path d="M430.1044776119403,142.69230769230768h7.582089552238813v0h-7.582089552238813Z" style="fill: teal;"></path><path d="M438.6865671641791,81.53846153846155h7.582089552238813v61.15384615384613h-7.582089552238813Z" style="fill: teal;"></path><path d="M447.2686567164179,122.30769230769232h7.582089552238756v20.38461538461536h-7.582089552238756Z" style="fill: teal;"></path><path d="M455.8507462686567,142.69230769230768h7.58208955223887v8.15384615384616h-7.58208955223887Z" style="fill: orange;"></path><path d="M464.43283582089555,142.69230769230768h7.582089552238813v4.076923076923094h-7.582089552238813Z" style="fill: orange;"></path><path d="M473.01492537313436,114.15384615384616h7.582089552238756v28.53846153846152h-7.582089552238756Z" style="fill: teal;"></path><path d="M481.5970149253731,142.69230769230768h7.582089552238813v4.076923076923094h-7.582089552238813Z" style="fill: orange;"></path><path d="M498.76119402985074,134.53846153846152h7.582089552238813v8.15384615384616h-7.582089552238813Z" style="fill: teal;"></path><path d="M507.34328358208955,134.53846153846152h7.58208955223887v8.15384615384616h-7.58208955223887Z" style="fill: teal;"></path><path d="M515.9253731343284,142.69230769230768h7.582089552238699v8.15384615384616h-7.582089552238699Z" style="fill: orange;"></path><path d="M524.5074626865671,142.69230769230768h7.582089552238813v4.076923076923094h-7.582089552238813Z" style="fill: orange;"></path><path d="M533.0895522388059,134.53846153846152h7.582089552238813v8.15384615384616h-7.582089552238813Z" style="fill: teal;"></path><path d="M541.6716417910447,134.53846153846152h7.582089552238813v8.15384615384616h-7.582089552238813Z" style="fill: teal;"></path><path d="M550.2537313432836,138.61538461538458h7.582089552238813v4.076923076923094h-7.582089552238813Z" style="fill: teal;"></path><path d="M558.8358208955224,142.69230769230768h7.582089552238813v24.46153846153848h-7.582089552238813Z" style="fill: orange;"></path><path d="M567.4179104477612,142.69230769230768h7.582089552238813v12.230769230769226h-7.582089552238813Z" style="fill: orange;"></path></g></g><path class="foreground" d="" style="display: none; fill: none;"></path></g></g></g></svg>