<svg class="marks" width="657" height="589" viewBox="0 0 657 589" version="1.1" xmlns="http://www.w3.org/2000/svg" xmlns:xlink="http://www.w3.org/1999/xlink"><rect width="657" height="589" style="fill: white;"></rect><g transform="translate(28,54)"><g class="mark-group role-frame root"><g transform="translate(0,0)"><path class="background" d="M0,0h0v0h0Z" style="fill: none;"></path><g><g class="mark-group role-column-title facet-title"><g transform="translate(301,-25)"><path class="background" d="M0,0h0v0h0Z" style="fill: none;"></path><g><g class="mark-group role-title"><g transform="translate(0,-24)"><path class="background" d="M0,0h0v0h0Z" style="pointer-events: none; fill: none;"></path><g><g class="mark-text role-title-text" style="pointer-events: none;"><text text-anchor="middle" transform="translate(0,11)" style="font-family: sans-serif; font-size: 14px; font-weight: bold; fill: #000; opacity: 1;">Fecha del boletín</text></g></g><path class="foreground" d="" style="pointer-events: none; display: none; fill: none;"></path></g></g></g><path class="foreground" d="" style="display: none; fill: none;"></path></g></g><g class="mark-group role-column-footer column_footer"><g transform="translate(0,459)"><path class="background" d="M0,0h300v0h-300Z" style="fill: none;"></path><g><g class="mark-group role-axis"><g transform="translate(0.5,0.5)"><path class="background" d="M0,0h0v0h0Z" style="pointer-events: none; fill: none;"></path><g><g class="mark-rule role-axis-tick" style="pointer-events: none;"><line transform="translate(0,0)" x2="0" y2="5" style="fill: none; stroke: #888; stroke-width: 1; opacity: 1;"></line><line transform="translate(54,0)" x2="0" y2="5" style="fill: none; stroke: #888; stroke-width: 1; opacity: 1;"></line><line transform="translate(107,0)" x2="0" y2="5" style="fill: none; stroke: #888; stroke-width: 1; opacity: 1;"></line><line transform="translate(161,0)" x2="0" y2="5" style="fill: none; stroke: #888; stroke-width: 1; opacity: 1;"></line><line transform="translate(214,0)" x2="0" y2="5" style="fill: none; stroke: #888; stroke-width: 1; opacity: 1;"></line><line transform="translate(268,0)" x2="0" y2="5" style="fill: none; stroke: #888; stroke-width: 1; opacity: 1;"></line></g><g class="mark-text role-axis-label" style="pointer-events: none;"><text text-anchor="start" transform="translate(0,18)" style="font-family: sans-serif; font-size: 14px; fill: #000; opacity: 1;">0</text><text text-anchor="middle" transform="translate(53.57142857142857,18)" style="font-family: sans-serif; font-size: 14px; fill: #000; opacity: 1;">5</text><text text-anchor="middle" transform="translate(107.14285714285714,18)" style="font-family: sans-serif; font-size: 14px; fill: #000; opacity: 1;">10</text><text text-anchor="middle" transform="translate(160.71428571428572,18)" style="font-family: sans-serif; font-size: 14px; fill: #000; opacity: 1;">15</text><text text-anchor="middle" transform="translate(214.28571428571428,18)" style="font-family: sans-serif; font-size: 14px; fill: #000; opacity: 1;">20</text><text text-anchor="middle" transform="translate(267.8571428571429,18)" style="font-family: sans-serif; font-size: 14px; fill: #000; opacity: 1;">25</text></g><g class="mark-rule role-axis-domain" style="pointer-events: none;"><line transform="translate(0,0)" x2="300" y2="0" style="fill: none; stroke: #888; stroke-width: 1; opacity: 1;"></line></g><g class="mark-text role-axis-title" style="pointer-events: none;"><text text-anchor="middle" transform="translate(150,36)" style="font-family: sans-serif; font-size: 14px; font-weight: bold; fill: #000; opacity: 1;">Rezago estimado (días)</text></g></g><path class="foreground" d="" style="pointer-events: none; display: none; fill: none;"></path></g></g></g><path class="foreground" d="" style="display: none; fill: none;"></path></g><g transform="translate(323,459)"><path class="background" d="M0,0h300v0h-300Z" style="fill: none;"></path><g><g class="mark-group role-axis"><g transform="translate(0.5,0.5)"><path class="background" d="M0,0h0v0h0Z" style="pointer-events: none; fill: none;"></path><g><g class="mark-rule role-axis-tick" style="pointer-events: none;"><line transform="translate(0,0)" x2="0" y2="5" style="fill: none; stroke: #888; stroke-width: 1; opacity: 1;"></line><line transform="translate(54,0)" x2="0" y2="5" style="fill: none; stroke: #888; stroke-width: 1; opacity: 1;"></line><line transform="translate(107,0)" x2="0" y2="5" style="fill: none; stroke: #888; stroke-width: 1; opacity: 1;"></line><line transform="translate(161,0)" x2="0" y2="5" style="fill: none; stroke: #888; stroke-width: 1; opacity: 1;"></line><line transform="translate(214,0)" x2="0" y2="5" style="fill: none; stroke: #888; stroke-width: 1; opacity: 1;"></line><line transform="translate(268,0)" x2="0" y2="5" style="fill: none; stroke: #888; stroke-width: 1; opacity: 1;"></line></g><g class="mark-text role-axis-label" style="pointer-events: none;"><text text-anchor="start" transform="translate(0,18)" style="font-family: sans-serif; font-size: 14px; fill: #000; opacity: 1;">0</text><text text-anchor="middle" transform="translate(53.57142857142857,18)" style="font-family: sans-serif; font-size: 14px; fill: #000; opacity: 1;">5</text><text text-anchor="middle" transform="translate(107.14285714285714,18)" style="font-family: sans-serif; font-size: 14px; fill: #000; opacity: 1;">10</text><text text-anchor="middle" transform="translate(160.71428571428572,18)" style="font-family: sans-serif; font-size: 14px; fill: #000; opacity: 1;">15</text><text text-anchor="middle" transform="translate(214.28571428571428,18)" style="font-family: sans-serif; font-size: 14px; fill: #000; opacity: 1;">20</text><text text-anchor="middle" transform="translate(267.8571428571429,18)" style="font-family: sans-serif; font-size: 14px; fill: #000; opacity: 1;">25</text></g><g class="mark-rule role-axis-domain" style="pointer-events: none;"><line transform="translate(0,0)" x2="300" y2="0" style="fill: none; stroke: #888; stroke-width: 1; opacity: 1;"></line></g><g class="mark-text role-axis-title" style="pointer-events: none;"><text text-anchor="middle" transform="translate(150,36)" style="font-family: sans-serif; font-size: 14px; font-weight: bold; fill: #000; opacity: 1;">Rezago estimado (días)</text></g></g><path class="foreground" d="" style="pointer-events: none; display: none; fill: none;"></path></g></g></g><path class="foreground" d="" style="display: none; fill: none;"></path></g></g><g class="mark-group role-scope cell"><g transform="translate(0,0)"><path class="background" d="M0.5,0.5h300v80h-300Z" style="fill: none; stroke: #ddd;"></path><g><g class="mark-group role-axis"><g transform="translate(0.5,80.5)"><path class="background" d="M0,0h0v0h0Z" style="pointer-events: none; fill: none;"></path><g><g class="mark-rule role-axis-grid" style="pointer-events: none;"><line transform="translate(0,0)" x2="0" y2="-80" style="fill: none; stroke: #ddd; stroke-width: 1; opacity: 1;"></line><line transform="translate(54,0)" x2="0" y2="-80" style="fill: none; stroke: #ddd; stroke-width: 1; opacity: 1;"></line><line transform="translate(107,0)" x2="0" y2="-80" style="fill: none; stroke: #ddd; stroke-width: 1; opacity: 1;"></line><line transform="translate(161,0)" x2="0" y2="-80" style="fill: none; stroke: #ddd; stroke-width: 1; opacity: 1;"></line><line transform="translate(214,0)" x2="0" y2="-80" style="fill: none; stroke: #ddd; stroke-width: 1; opacity: 1;"></line><line transform="translate(268,0)" x2="0" y2="-80" style="fill: none; stroke: #ddd; stroke-width: 1; opacity: 1;"></line></g></g><path class="foreground" d="" style="pointer-events: none; display: none; fill: none;"></path></g></g><g class="mark-rect role-mark child_layer_0_marks"><path d="M0,1h115.95622119815668v18h-115.95622119815668Z" style="fill: #4c78a8;"></path><path d="M0,21h75v18h-75Z" style="fill: #f58518;"></path><path d="M0,41h116.62763466042153v18h-116.62763466042153Z" style="fill: #e45756;"></path><path d="M0,61h230.35714285714286v18h-230.35714285714286Z" style="fill: #72b7b2;"></path></g><g class="mark-text role-mark child_layer_1_marks"><text text-anchor="end" transform="translate(110.95622119815668,14)" style="font-family: sans-serif; font-size: 12px; fill: white;">10.8</text><text text-anchor="end" transform="translate(70,34)" style="font-family: sans-serif; font-size: 12px; fill: white;">7.0</text><text text-anchor="end" transform="translate(111.62763466042153,54)" style="font-family: sans-serif; font-size: 12px; fill: white;">10.9</text><text text-anchor="end" transform="translate(225.35714285714286,74)" style="font-family: sans-serif; font-size: 12px; fill: white;">21.5</text></g><g class="mark-group role-title"><g transform="translate(150,-24)"><path class="background" d="M0,0h0v0h0Z" style="pointer-events: none; fill: none;"></path><g><g class="mark-text role-title-text" style="pointer-events: none;"><text text-anchor="middle" transform="translate(0,11)" style="font-family: sans-serif; font-size: 14px; fill: #000; opacity: 1;">jun 01, 2020</text></g></g><path class="foreground" d="" style="pointer-events: none; display: none; fill: none;"></path></g></g></g><path class="foreground" d="" style="display: none; fill: none;"></path></g><g transform="translate(323,0)"><path class="background" d="M0.5,0.5h300v80h-300Z" style="fill: none; stroke: #ddd;"></path><g><g class="mark-group role-axis"><g transform="translate(0.5,80.5)"><path class="background" d="M0,0h0v0h0Z" style="pointer-events: none; fill: none;"></path><g><g class="mark-rule role-axis-grid" style="pointer-events: none;"><line transform="translate(0,0)" x2="0" y2="-80" style="fill: none; stroke: #ddd; stroke-width: 1; opacity: 1;"></line><line transform="translate(54,0)" x2="0" y2="-80" style="fill: none; stroke: #ddd; stroke-width: 1; opacity: 1;"></line><line transform="translate(107,0)" x2="0" y2="-80" style="fill: none; stroke: #ddd; stroke-width: 1; opacity: 1;"></line><line transform="translate(161,0)" x2="0" y2="-80" style="fill: none; stroke: #ddd; stroke-width: 1; opacity: 1;"></line><line transform="translate(214,0)" x2="0" y2="-80" style="fill: none; stroke: #ddd; stroke-width: 1; opacity: 1;"></line><line transform="translate(268,0)" x2="0" y2="-80" style="fill: none; stroke: #ddd; stroke-width: 1; opacity: 1;"></line></g></g><path class="foreground" d="" style="pointer-events: none; display: none; fill: none;"></path></g></g><g class="mark-rect role-mark child_layer_0_marks"><path d="M0,1h80.92705167173251v18h-80.92705167173251Z" style="fill: #4c78a8;"></path><path d="M0,41h99.18998527245951v18h-99.18998527245951Z" style="fill: #e45756;"></path></g><g class="mark-text role-mark child_layer_1_marks"><text text-anchor="end" transform="translate(75.92705167173251,14)" style="font-family: sans-serif; font-size: 12px; fill: white;">7.6</text><text text-anchor="end" transform="translate(94.18998527245951,54)" style="font-family: sans-serif; font-size: 12px; fill: white;">9.3</text></g><g class="mark-group role-title"><g transform="translate(150,-24)"><path class="background" d="M0,0h0v0h0Z" style="pointer-events: none; fill: none;"></path><g><g class="mark-text role-title-text" style="pointer-events: none;"><text text-anchor="middle" transform="translate(0,11)" style="font-family: sans-serif; font-size: 14px; fill: #000; opacity: 1;">may 31, 2020</text></g></g><path class="foreground" d="" style="pointer-events: none; display: none; fill: none;"></path></g></g></g><path class="foreground" d="" style="display: none; fill: none;"></path></g><g transform="translate(0,126)"><path class="background" d="M0.5,0.5h300v80h-300Z" style="fill: none; stroke: #ddd;"></path><g><g class="mark-group role-axis"><g transform="translate(0.5,80.5)"><path class="background" d="M0,0h0v0h0Z" style="pointer-events: none; fill: none;"></path><g><g class="mark-rule role-axis-grid" style="pointer-events: none;"><line transform="translate(0,0)" x2="0" y2="-80" style="fill: none; stroke: #ddd; stroke-width: 1; opacity: 1;"></line><line transform="translate(54,0)" x2="0" y2="-80" style="fill: none; stroke: #ddd; stroke-width: 1; opacity: 1;"></line><line transform="translate(107,0)" x2="0" y2="-80" style="fill: none; stroke: #ddd; stroke-width: 1; opacity: 1;"></line><line transform="translate(161,0)" x2="0" y2="-80" style="fill: none; stroke: #ddd; stroke-width: 1; opacity: 1;"></line><line transform="translate(214,0)" x2="0" y2="-80" style="fill: none; stroke: #ddd; stroke-width: 1; opacity: 1;"></line><line transform="translate(268,0)" x2="0" y2="-80" style="fill: none; stroke: #ddd; stroke-width: 1; opacity: 1;"></line></g></g><path class="foreground" d="" style="pointer-events: none; display: none; fill: none;"></path></g></g><g class="mark-rect role-mark child_layer_0_marks"><path d="M0,1h140.33957845433255v18h-140.33957845433255Z" style="fill: #4c78a8;"></path><path d="M0,21h283.92857142857144v18h-283.92857142857144Z" style="fill: #f58518;"></path><path d="M0,41h124.4047619047619v18h-124.4047619047619Z" style="fill: #e45756;"></path><path d="M0,61h64.28571428571428v18h-64.28571428571428Z" style="fill: #72b7b2;"></path></g><g class="mark-text role-mark child_layer_1_marks"><text text-anchor="end" transform="translate(135.33957845433255,14)" style="font-family: sans-serif; font-size: 12px; fill: white;">13.1</text><text text-anchor="end" transform="translate(278.92857142857144,34)" style="font-family: sans-serif; font-size: 12px; fill: white;">26.5</text><text text-anchor="end" transform="translate(119.4047619047619,54)" style="font-family: sans-serif; font-size: 12px; fill: white;">11.6</text><text text-anchor="end" transform="translate(59.28571428571428,74)" style="font-family: sans-serif; font-size: 12px; fill: white;">6.0</text></g><g class="mark-group role-title"><g transform="translate(150,-24)"><path class="background" d="M0,0h0v0h0Z" style="pointer-events: none; fill: none;"></path><g><g class="mark-text role-title-text" style="pointer-events: none;"><text text-anchor="middle" transform="translate(0,11)" style="font-family: sans-serif; font-size: 14px; fill: #000; opacity: 1;">may 30, 2020</text></g></g><path class="foreground" d="" style="pointer-events: none; display: none; fill: none;"></path></g></g></g><path class="foreground" d="" style="display: none; fill: none;"></path></g><g transform="translate(323,126)"><path class="background" d="M0.5,0.5h300v80h-300Z" style="fill: none; stroke: #ddd;"></path><g><g class="mark-group role-axis"><g transform="translate(0.5,80.5)"><path class="background" d="M0,0h0v0h0Z" style="pointer-events: none; fill: none;"></path><g><g class="mark-rule role-axis-grid" style="pointer-events: none;"><line transform="translate(0,0)" x2="0" y2="-80" style="fill: none; stroke: #ddd; stroke-width: 1; opacity: 1;"></line><line transform="translate(54,0)" x2="0" y2="-80" style="fill: none; stroke: #ddd; stroke-width: 1; opacity: 1;"></line><line transform="translate(107,0)" x2="0" y2="-80" style="fill: none; stroke: #ddd; stroke-width: 1; opacity: 1;"></line><line transform="translate(161,0)" x2="0" y2="-80" style="fill: none; stroke: #ddd; stroke-width: 1; opacity: 1;"></line><line transform="translate(214,0)" x2="0" y2="-80" style="fill: none; stroke: #ddd; stroke-width: 1; opacity: 1;"></line><line transform="translate(268,0)" x2="0" y2="-80" style="fill: none; stroke: #ddd; stroke-width: 1; opacity: 1;"></line></g></g><path class="foreground" d="" style="pointer-events: none; display: none; fill: none;"></path></g></g><g class="mark-rect role-mark child_layer_0_marks"><path d="M0,1h99.44668008048289v18h-99.44668008048289Z" style="fill: #4c78a8;"></path><path d="M0,21h113.26530612244898v18h-113.26530612244898Z" style="fill: #f58518;"></path><path d="M0,41h97.93526785714286v18h-97.93526785714286Z" style="fill: #e45756;"></path><path d="M0,61h21.428571428571427v18h-21.428571428571427Z" style="fill: #72b7b2;"></path></g><g class="mark-text role-mark child_layer_1_marks"><text text-anchor="end" transform="translate(94.44668008048289,14)" style="font-family: sans-serif; font-size: 12px; fill: white;">9.3</text><text text-anchor="end" transform="translate(108.26530612244898,34)" style="font-family: sans-serif; font-size: 12px; fill: white;">10.6</text><text text-anchor="end" transform="translate(92.93526785714286,54)" style="font-family: sans-serif; font-size: 12px; fill: white;">9.1</text><text text-anchor="end" transform="translate(16.428571428571427,74)" style="font-family: sans-serif; font-size: 12px; fill: white;">2.0</text></g><g class="mark-group role-title"><g transform="translate(150,-24)"><path class="background" d="M0,0h0v0h0Z" style="pointer-events: none; fill: none;"></path><g><g class="mark-text role-title-text" style="pointer-events: none;"><text text-anchor="middle" transform="translate(0,11)" style="font-family: sans-serif; font-size: 14px; fill: #000; opacity: 1;">may 29, 2020</text></g></g><path class="foreground" d="" style="pointer-events: none; display: none; fill: none;"></path></g></g></g><path class="foreground" d="" style="display: none; fill: none;"></path></g><g transform="translate(0,252)"><path class="background" d="M0.5,0.5h300v80h-300Z" style="fill: none; stroke: #ddd;"></path><g><g class="mark-group role-axis"><g transform="translate(0.5,80.5)"><path class="background" d="M0,0h0v0h0Z" style="pointer-events: none; fill: none;"></path><g><g class="mark-rule role-axis-grid" style="pointer-events: none;"><line transform="translate(0,0)" x2="0" y2="-80" style="fill: none; stroke: #ddd; stroke-width: 1; opacity: 1;"></line><line transform="translate(54,0)" x2="0" y2="-80" style="fill: none; stroke: #ddd; stroke-width: 1; opacity: 1;"></line><line transform="translate(107,0)" x2="0" y2="-80" style="fill: none; stroke: #ddd; stroke-width: 1; opacity: 1;"></line><line transform="translate(161,0)" x2="0" y2="-80" style="fill: none; stroke: #ddd; stroke-width: 1; opacity: 1;"></line><line transform="translate(214,0)" x2="0" y2="-80" style="fill: none; stroke: #ddd; stroke-width: 1; opacity: 1;"></line><line transform="translate(268,0)" x2="0" y2="-80" style="fill: none; stroke: #ddd; stroke-width: 1; opacity: 1;"></line></g></g><path class="foreground" d="" style="pointer-events: none; display: none; fill: none;"></path></g></g><g class="mark-rect role-mark child_layer_0_marks"><path d="M0,1h86.37976929902398v18h-86.37976929902398Z" style="fill: #4c78a8;"></path><path d="M0,21h182.96703296703296v18h-182.96703296703296Z" style="fill: #f58518;"></path><path d="M0,41h77.89575289575289v18h-77.89575289575289Z" style="fill: #e45756;"></path><path d="M0,61h0v18h0Z" style="fill: #72b7b2;"></path></g><g class="mark-text role-mark child_layer_1_marks"><text text-anchor="end" transform="translate(81.37976929902398,14)" style="font-family: sans-serif; font-size: 12px; fill: white;">8.1</text><text text-anchor="end" transform="translate(177.96703296703296,34)" style="font-family: sans-serif; font-size: 12px; fill: white;">17.1</text><text text-anchor="end" transform="translate(72.89575289575289,54)" style="font-family: sans-serif; font-size: 12px; fill: white;">7.3</text><text text-anchor="end" transform="translate(-5,74)" style="font-family: sans-serif; font-size: 12px; fill: white;">0.0</text></g><g class="mark-group role-title"><g transform="translate(150,-24)"><path class="background" d="M0,0h0v0h0Z" style="pointer-events: none; fill: none;"></path><g><g class="mark-text role-title-text" style="pointer-events: none;"><text text-anchor="middle" transform="translate(0,11)" style="font-family: sans-serif; font-size: 14px; fill: #000; opacity: 1;">may 28, 2020</text></g></g><path class="foreground" d="" style="pointer-events: none; display: none; fill: none;"></path></g></g></g><path class="foreground" d="" style="display: none; fill: none;"></path></g><g transform="translate(323,252)"><path class="background" d="M0.5,0.5h300v80h-300Z" style="fill: none; stroke: #ddd;"></path><g><g class="mark-group role-axis"><g transform="translate(0.5,80.5)"><path class="background" d="M0,0h0v0h0Z" style="pointer-events: none; fill: none;"></path><g><g class="mark-rule role-axis-grid" style="pointer-events: none;"><line transform="translate(0,0)" x2="0" y2="-80" style="fill: none; stroke: #ddd; stroke-width: 1; opacity: 1;"></line><line transform="translate(54,0)" x2="0" y2="-80" style="fill: none; stroke: #ddd; stroke-width: 1; opacity: 1;"></line><line transform="translate(107,0)" x2="0" y2="-80" style="fill: none; stroke: #ddd; stroke-width: 1; opacity: 1;"></line><line transform="translate(161,0)" x2="0" y2="-80" style="fill: none; stroke: #ddd; stroke-width: 1; opacity: 1;"></line><line transform="translate(214,0)" x2="0" y2="-80" style="fill: none; stroke: #ddd; stroke-width: 1; opacity: 1;"></line><line transform="translate(268,0)" x2="0" y2="-80" style="fill: none; stroke: #ddd; stroke-width: 1; opacity: 1;"></line></g></g><path class="foreground" d="" style="pointer-events: none; display: none; fill: none;"></path></g></g><g class="mark-rect role-mark child_layer_0_marks"><path d="M0,1h99.79935794542536v18h-99.79935794542536Z" style="fill: #4c78a8;"></path><path d="M0,21h160.71428571428572v18h-160.71428571428572Z" style="fill: #f58518;"></path><path d="M0,41h82.14285714285715v18h-82.14285714285715Z" style="fill: #e45756;"></path><path d="M0,61h69.64285714285714v18h-69.64285714285714Z" style="fill: #72b7b2;"></path></g><g class="mark-text role-mark child_layer_1_marks"><text text-anchor="end" transform="translate(94.79935794542536,14)" style="font-family: sans-serif; font-size: 12px; fill: white;">9.3</text><text text-anchor="end" transform="translate(155.71428571428572,34)" style="font-family: sans-serif; font-size: 12px; fill: white;">15.0</text><text text-anchor="end" transform="translate(77.14285714285715,54)" style="font-family: sans-serif; font-size: 12px; fill: white;">7.7</text><text text-anchor="end" transform="translate(64.64285714285714,74)" style="font-family: sans-serif; font-size: 12px; fill: white;">6.5</text></g><g class="mark-group role-title"><g transform="translate(150,-24)"><path class="background" d="M0,0h0v0h0Z" style="pointer-events: none; fill: none;"></path><g><g class="mark-text role-title-text" style="pointer-events: none;"><text text-anchor="middle" transform="translate(0,11)" style="font-family: sans-serif; font-size: 14px; fill: #000; opacity: 1;">may 27, 2020</text></g></g><path class="foreground" d="" style="pointer-events: none; display: none; fill: none;"></path></g></g></g><path class="foreground" d="" style="display: none; fill: none;"></path></g><g transform="translate(0,378)"><path class="background" d="M0.5,0.5h300v80h-300Z" style="fill: none; stroke: #ddd;"></path><g><g class="mark-group role-axis"><g transform="translate(0.5,80.5)"><path class="background" d="M0,0h0v0h0Z" style="pointer-events: none; fill: none;"></path><g><g class="mark-rule role-axis-grid" style="pointer-events: none;"><line transform="translate(0,0)" x2="0" y2="-80" style="fill: none; stroke: #ddd; stroke-width: 1; opacity: 1;"></line><line transform="translate(54,0)" x2="0" y2="-80" style="fill: none; stroke: #ddd; stroke-width: 1; opacity: 1;"></line><line transform="translate(107,0)" x2="0" y2="-80" style="fill: none; stroke: #ddd; stroke-width: 1; opacity: 1;"></line><line transform="translate(161,0)" x2="0" y2="-80" style="fill: none; stroke: #ddd; stroke-width: 1; opacity: 1;"></line><line transform="translate(214,0)" x2="0" y2="-80" style="fill: none; stroke: #ddd; stroke-width: 1; opacity: 1;"></line><line transform="translate(268,0)" x2="0" y2="-80" style="fill: none; stroke: #ddd; stroke-width: 1; opacity: 1;"></line></g></g><path class="foreground" d="" style="pointer-events: none; display: none; fill: none;"></path></g></g><g class="mark-rect role-mark child_layer_0_marks"><path d="M0,1h150.146771037182v18h-150.146771037182Z" style="fill: #4c78a8;"></path><path d="M0,21h295.4887218045113v18h-295.4887218045113Z" style="fill: #f58518;"></path><path d="M0,41h99.0079365079365v18h-99.0079365079365Z" style="fill: #e45756;"></path></g><g class="mark-text role-mark child_layer_1_marks"><text text-anchor="end" transform="translate(145.146771037182,14)" style="font-family: sans-serif; font-size: 12px; fill: white;">14.0</text><text text-anchor="end" transform="translate(290.4887218045113,34)" style="font-family: sans-serif; font-size: 12px; fill: white;">27.6</text><text text-anchor="end" transform="translate(94.0079365079365,54)" style="font-family: sans-serif; font-size: 12px; fill: white;">9.2</text></g><g class="mark-group role-title"><g transform="translate(150,-24)"><path class="background" d="M0,0h0v0h0Z" style="pointer-events: none; fill: none;"></path><g><g class="mark-text role-title-text" style="pointer-events: none;"><text text-anchor="middle" transform="translate(0,11)" style="font-family: sans-serif; font-size: 14px; fill: #000; opacity: 1;">may 26, 2020</text></g></g><path class="foreground" d="" style="pointer-events: none; display: none; fill: none;"></path></g></g></g><path class="foreground" d="" style="display: none; fill: none;"></path></g><g transform="translate(323,378)"><path class="background" d="M0.5,0.5h300v80h-300Z" style="fill: none; stroke: #ddd;"></path><g><g class="mark-group role-axis"><g transform="translate(0.5,80.5)"><path class="background" d="M0,0h0v0h0Z" style="pointer-events: none; fill: none;"></path><g><g class="mark-rule role-axis-grid" style="pointer-events: none;"><line transform="translate(0,0)" x2="0" y2="-80" style="fill: none; stroke: #ddd; stroke-width: 1; opacity: 1;"></line><line transform="translate(54,0)" x2="0" y2="-80" style="fill: none; stroke: #ddd; stroke-width: 1; opacity: 1;"></line><line transform="translate(107,0)" x2="0" y2="-80" style="fill: none; stroke: #ddd; stroke-width: 1; opacity: 1;"></line><line transform="translate(161,0)" x2="0" y2="-80" style="fill: none; stroke: #ddd; stroke-width: 1; opacity: 1;"></line><line transform="translate(214,0)" x2="0" y2="-80" style="fill: none; stroke: #ddd; stroke-width: 1; opacity: 1;"></line><line transform="translate(268,0)" x2="0" y2="-80" style="fill: none; stroke: #ddd; stroke-width: 1; opacity: 1;"></line></g></g><path class="foreground" d="" style="pointer-events: none; display: none; fill: none;"></path></g></g><g class="mark-rect role-mark child_layer_0_marks"><path d="M0,1h81.69642857142857v18h-81.69642857142857Z" style="fill: #4c78a8;"></path><path d="M0,21h117.85714285714286v18h-117.85714285714286Z" style="fill: #f58518;"></path><path d="M0,41h81.12244897959182v18h-81.12244897959182Z" style="fill: #e45756;"></path></g><g class="mark-text role-mark child_layer_1_marks"><text text-anchor="end" transform="translate(76.69642857142857,14)" style="font-family: sans-serif; font-size: 12px; fill: white;">7.6</text><text text-anchor="end" transform="translate(112.85714285714286,34)" style="font-family: sans-serif; font-size: 12px; fill: white;">11.0</text><text text-anchor="end" transform="translate(76.12244897959182,54)" style="font-family: sans-serif; font-size: 12px; fill: white;">7.6</text></g><g class="mark-group role-title"><g transform="translate(150,-24)"><path class="background" d="M0,0h0v0h0Z" style="pointer-events: none; fill: none;"></path><g><g class="mark-text role-title-text" style="pointer-events: none;"><text text-anchor="middle" transform="translate(0,11)" style="font-family: sans-serif; font-size: 14px; fill: #000; opacity: 1;">may 25, 2020</text></g></g><path class="foreground" d="" style="pointer-events: none; display: none; fill: none;"></path></g></g></g><path class="foreground" d="" style="display: none; fill: none;"></path></g></g><g class="mark-group role-legend"><g transform="translate(0,516)"><path class="background" d="M0,0h453v14h-453Z" style="pointer-events: none; fill: none;"></path><g><g class="mark-group role-legend-entry"><g transform="translate(0,0)"><path class="background" d="M0,0h0v0h0Z" style="pointer-events: none; fill: none;"></path><g><g class="mark-group role-scope"><g transform="translate(0,0)"><path class="background" d="M0,0h173.6337890625v14h-173.6337890625Z" style="pointer-events: none; fill: none; opacity: 1;"></path><g><g class="mark-symbol role-legend-symbol" style="pointer-events: none;"><path transform="translate(7,7)" d="M-5,-5h10v10h-10Z" style="fill: #4c78a8; stroke-width: 1.5; opacity: 1;"></path></g><g class="mark-text role-legend-label" style="pointer-events: none;"><text text-anchor="start" transform="translate(18,11)" style="font-family: sans-serif; font-size: 14px; fill: #000; opacity: 1;">Confirmados y probables</text></g></g><path class="foreground" d="" style="pointer-events: none; display: none; fill: none;"></path></g><g transform="translate(184,0)"><path class="background" d="M0,0h97.365234375v14h-97.365234375Z" style="pointer-events: none; fill: none; opacity: 1;"></path><g><g class="mark-symbol role-legend-symbol" style="pointer-events: none;"><path transform="translate(7,7)" d="M-5,-5h10v10h-10Z" style="fill: #f58518; stroke-width: 1.5; opacity: 1;"></path></g><g class="mark-text role-legend-label" style="pointer-events: none;"><text text-anchor="start" transform="translate(18,11)" style="font-family: sans-serif; font-size: 14px; fill: #000; opacity: 1;">Confirmados</text></g></g><path class="foreground" d="" style="pointer-events: none; display: none; fill: none;"></path></g><g transform="translate(292,0)"><path class="background" d="M0,0h81.041015625v14h-81.041015625Z" style="pointer-events: none; fill: none; opacity: 1;"></path><g><g class="mark-symbol role-legend-symbol" style="pointer-events: none;"><path transform="translate(7,7)" d="M-5,-5h10v10h-10Z" style="fill: #e45756; stroke-width: 1.5; opacity: 1;"></path></g><g class="mark-text role-legend-label" style="pointer-events: none;"><text text-anchor="start" transform="translate(18,11)" style="font-family: sans-serif; font-size: 14px; fill: #000; opacity: 1;">Probables</text></g></g><path class="foreground" d="" style="pointer-events: none; display: none; fill: none;"></path></g><g transform="translate(384,0)"><path class="background" d="M0,0h68.572265625v14h-68.572265625Z" style="pointer-events: none; fill: none; opacity: 1;"></path><g><g class="mark-symbol role-legend-symbol" style="pointer-events: none;"><path transform="translate(7,7)" d="M-5,-5h10v10h-10Z" style="fill: #72b7b2; stroke-width: 1.5; opacity: 1;"></path></g><g class="mark-text role-legend-label" style="pointer-events: none;"><text text-anchor="start" transform="translate(18,11)" style="font-family: sans-serif; font-size: 14px; fill: #000; opacity: 1;">Muertes</text></g></g><path class="foreground" d="" style="pointer-events: none; display: none; fill: none;"></path></g></g></g><path class="foreground" d="" style="pointer-events: none; display: none; fill: none;"></path></g></g></g><path class="foreground" d="" style="pointer-events: none; display: none; fill: none;"></path></g></g></g><path class="foreground" d="" style="display: none; fill: none;"></path></g></g></g></svg>