<svg class="marks" width="646" height="670" viewBox="0 0 646 670" version="1.1" xmlns="http://www.w3.org/2000/svg" xmlns:xlink="http://www.w3.org/1999/xlink"><rect width="646" height="670" style="fill: white;"></rect><defs><linearGradient id="gradient_0" x1="0" x2="0" y1="1" y2="0"><stop offset="0" stop-color="rgb(253, 216, 179)"></stop><stop offset="0.20379504709050617" stop-color="rgb(253, 183, 122)"></stop><stop offset="0.40759009418101233" stop-color="rgb(252, 145, 66)"></stop><stop offset="0.5268025545616606" stop-color="rgb(246, 122, 39)"></stop><stop offset="0.6113851412715186" stop-color="rgb(239, 105, 23)"></stop><stop offset="0.6769924925288455" stop-color="rgb(231, 92, 14)"></stop><stop offset="0.7305976016521668" stop-color="rgb(222, 83, 9)"></stop><stop offset="0.7759200756309999" stop-color="rgb(214, 77, 6)"></stop><stop offset="0.8151801883620247" stop-color="rgb(205, 71, 4)"></stop><stop offset="0.8498100620328151" stop-color="rgb(197, 67, 3)"></stop><stop offset="0.8807875396193516" stop-color="rgb(190, 63, 2)"></stop><stop offset="0.9088100767170803" stop-color="rgb(183, 60, 2)"></stop><stop offset="0.934392648742673" stop-color="rgb(176, 58, 2)"></stop><stop offset="0.9579263337046495" stop-color="rgb(170, 55, 3)"></stop><stop offset="0.9797151227215061" stop-color="rgb(164, 53, 3)"></stop><stop offset="1" stop-color="rgb(159, 51, 3)"></stop></linearGradient><linearGradient id="gradient_1" x1="0" x2="0" y1="1" y2="0"><stop offset="0" stop-color="rgb(253, 201, 180)"></stop><stop offset="0.11844210499474328" stop-color="rgb(252, 176, 149)"></stop><stop offset="0.23688420998948656" stop-color="rgb(252, 150, 119)"></stop><stop offset="0.35532631498422984" stop-color="rgb(251, 122, 91)"></stop><stop offset="0.4737684199789731" stop-color="rgb(247, 94, 68)"></stop><stop offset="0.5922105249737164" stop-color="rgb(237, 65, 48)"></stop><stop offset="0.7106526299684597" stop-color="rgb(218, 40, 36)"></stop><stop offset="0.829094734963203" stop-color="rgb(194, 24, 28)"></stop><stop offset="0.9475368399579462" stop-color="rgb(165, 15, 22)"></stop><stop offset="1" stop-color="rgb(151, 11, 19)"></stop></linearGradient><linearGradient id="gradient_2" x1="0" x2="0" y1="1" y2="0"><stop offset="0" stop-color="rgb(187, 223, 223)"></stop><stop offset="0.1315172029168969" stop-color="rgb(154, 209, 209)"></stop><stop offset="0.24271341358512083" stop-color="rgb(129, 195, 195)"></stop><stop offset="0.33903595255631885" stop-color="rgb(109, 183, 182)"></stop><stop offset="0.42399845327747504" stop-color="rgb(92, 173, 172)"></stop><stop offset="0.5" stop-color="rgb(77, 165, 164)"></stop><stop offset="0.5687517618749676" stop-color="rgb(62, 157, 156)"></stop><stop offset="0.6315172029168968" stop-color="rgb(51, 149, 148)"></stop><stop offset="0.689255811626865" stop-color="rgb(44, 141, 141)"></stop><stop offset="0.7427134135851208" stop-color="rgb(37, 134, 134)"></stop><stop offset="0.792481250360578" stop-color="rgb(31, 128, 128)"></stop><stop offset="0.8390359525563189" stop-color="rgb(25, 122, 122)"></stop><stop offset="0.8827673731814886" stop-color="rgb(20, 116, 117)"></stop><stop offset="0.9239984532774751" stop-color="rgb(14, 111, 112)"></stop><stop offset="0.9629997092781115" stop-color="rgb(7, 106, 107)"></stop><stop offset="1" stop-color="rgb(0, 102, 103)"></stop></linearGradient></defs><g transform="translate(59,35)"><g class="mark-group role-frame root"><g transform="translate(0,0)"><path class="background" d="M0,0h0v0h0Z" style="fill: none;"></path><g><g class="mark-group role-scope concat_0_group"><g transform="translate(0,0)"><path class="background" d="M0,0h0v0h0Z" style="fill: none;"></path><g><g class="mark-group role-scope concat_0_concat_0_group"><g transform="translate(0,0)"><path class="background" d="M0,0h0v0h0Z" style="fill: none;"></path><g><g class="mark-group role-scope concat_0_concat_0_concat_0_group"><g transform="translate(0,0)"><path class="background" d="M0.5,0.5h160v40h-160Z" style="fill: none; stroke: #ddd;"></path><g><g class="mark-rect role-mark concat_0_concat_0_concat_0_marks"><path d="M92.57142857142857,6.666666666666665h20.571428571428573v33.333333333333336h-20.571428571428573Z" style="fill: rgb(173, 56, 2);"></path><path d="M138.28571428571428,33.333333333333336h20.571428571428573v6.666666666666664h-20.571428571428573Z" style="fill: rgb(249, 132, 50);"></path><path d="M23.999999999999996,12.000000000000002h20.571428571428573v28h-20.571428571428573Z" style="fill: rgb(186, 62, 2);"></path><path d="M46.857142857142854,5.333333333333332h20.571428571428573v34.66666666666667h-20.571428571428573Z" style="fill: rgb(170, 55, 3);"></path><path d="M115.42857142857143,0h20.571428571428573v40h-20.571428571428573Z" style="fill: rgb(159, 51, 3);"></path><path d="M69.71428571428571,2.666666666666666h20.571428571428573v37.333333333333336h-20.571428571428573Z" style="fill: rgb(164, 53, 3);"></path><path d="M1.1428571428571388,36h20.571428571428573v4h-20.571428571428573Z" style="fill: rgb(253, 161, 88);"></path></g><g class="mark-group role-title"><g transform="translate(80,-29)"><path class="background" d="M0,0h0v0h0Z" style="pointer-events: none; fill: none;"></path><g><g class="mark-text role-title-text" style="pointer-events: none;"><text text-anchor="middle" transform="translate(0,11)" style="font-family: sans-serif; font-size: 14px; font-weight: normal; fill: #000; opacity: 1;">Confirmados</text></g></g><path class="foreground" d="" style="pointer-events: none; display: none; fill: none;"></path></g></g></g><path class="foreground" d="" style="display: none; fill: none;"></path></g></g><g class="mark-group role-scope concat_0_concat_0_concat_1_group"><g transform="translate(0,45)"><path class="background" d="M0,0h0v0h0Z" style="fill: none;"></path><g><g class="mark-group role-scope concat_0_concat_0_concat_1_concat_0_group"><g transform="translate(0,0)"><path class="background" d="M0.5,0.5h160v160h-160Z" style="fill: none; stroke: #ddd;"></path><g><g class="mark-rect role-mark concat_0_concat_0_concat_1_concat_0_marks"><path d="M91.42857142857143,22.857142857142858h22.857142857142858v22.857142857142858h-22.857142857142858Z" style="fill: rgb(252, 145, 66);"></path><path d="M137.14285714285714,22.857142857142858h22.857142857142858v22.857142857142858h-22.857142857142858Z" style="fill: rgb(253, 216, 179);"></path><path d="M22.857142857142858,22.857142857142858h22.857142857142858v22.857142857142858h-22.857142857142858Z" style="fill: rgb(246, 122, 39);"></path><path d="M45.714285714285715,22.857142857142858h22.857142857142858v22.857142857142858h-22.857142857142858Z" style="fill: rgb(246, 122, 39);"></path><path d="M114.28571428571429,45.714285714285715h22.857142857142858v22.857142857142858h-22.857142857142858Z" style="fill: rgb(253, 183, 122);"></path><path d="M68.57142857142857,68.57142857142857h22.857142857142858v22.857142857142858h-22.857142857142858Z" style="fill: rgb(239, 105, 23);"></path><path d="M91.42857142857143,68.57142857142857h22.857142857142858v22.857142857142858h-22.857142857142858Z" style="fill: rgb(252, 145, 66);"></path><path d="M45.714285714285715,68.57142857142857h22.857142857142858v22.857142857142858h-22.857142857142858Z" style="fill: rgb(252, 145, 66);"></path><path d="M45.714285714285715,91.42857142857143h22.857142857142858v22.857142857142858h-22.857142857142858Z" style="fill: rgb(252, 145, 66);"></path><path d="M68.57142857142857,91.42857142857143h22.857142857142858v22.857142857142858h-22.857142857142858Z" style="fill: rgb(231, 92, 14);"></path><path d="M91.42857142857143,91.42857142857143h22.857142857142858v22.857142857142858h-22.857142857142858Z" style="fill: rgb(249, 132, 50);"></path><path d="M114.28571428571429,91.42857142857143h22.857142857142858v22.857142857142858h-22.857142857142858Z" style="fill: rgb(252, 145, 66);"></path><path d="M68.57142857142857,114.28571428571429h22.857142857142858v22.857142857142858h-22.857142857142858Z" style="fill: rgb(253, 216, 179);"></path><path d="M91.42857142857143,114.28571428571429h22.857142857142858v22.857142857142858h-22.857142857142858Z" style="fill: rgb(253, 183, 122);"></path><path d="M114.28571428571429,114.28571428571429h22.857142857142858v22.857142857142858h-22.857142857142858Z" style="fill: rgb(222, 83, 9);"></path><path d="M137.14285714285714,114.28571428571429h22.857142857142858v22.857142857142858h-22.857142857142858Z" style="fill: rgb(253, 183, 122);"></path><path d="M91.42857142857143,137.14285714285714h22.857142857142858v22.857142857142858h-22.857142857142858Z" style="fill: rgb(253, 161, 88);"></path><path d="M114.28571428571429,137.14285714285714h22.857142857142858v22.857142857142858h-22.857142857142858Z" style="fill: rgb(249, 132, 50);"></path><path d="M22.857142857142858,0h22.857142857142858v22.857142857142858h-22.857142857142858Z" style="fill: rgb(246, 122, 39);"></path><path d="M45.714285714285715,0h22.857142857142858v22.857142857142858h-22.857142857142858Z" style="fill: rgb(249, 132, 50);"></path><path d="M91.42857142857143,0h22.857142857142858v22.857142857142858h-22.857142857142858Z" style="fill: rgb(249, 132, 50);"></path><path d="M114.28571428571429,0h22.857142857142858v22.857142857142858h-22.857142857142858Z" style="fill: rgb(253, 161, 88);"></path><path d="M68.57142857142857,22.857142857142858h22.857142857142858v22.857142857142858h-22.857142857142858Z" style="fill: rgb(253, 183, 122);"></path><path d="M137.14285714285714,68.57142857142857h22.857142857142858v22.857142857142858h-22.857142857142858Z" style="fill: rgb(253, 216, 179);"></path><path d="M114.28571428571429,68.57142857142857h22.857142857142858v22.857142857142858h-22.857142857142858Z" style="fill: rgb(252, 145, 66);"></path><path d="M22.857142857142858,91.42857142857143h22.857142857142858v22.857142857142858h-22.857142857142858Z" style="fill: rgb(252, 145, 66);"></path><path d="M137.14285714285714,91.42857142857143h22.857142857142858v22.857142857142858h-22.857142857142858Z" style="fill: rgb(253, 216, 179);"></path><path d="M22.857142857142858,114.28571428571429h22.857142857142858v22.857142857142858h-22.857142857142858Z" style="fill: rgb(253, 183, 122);"></path><path d="M45.714285714285715,114.28571428571429h22.857142857142858v22.857142857142858h-22.857142857142858Z" style="fill: rgb(249, 132, 50);"></path><path d="M0,114.28571428571429h22.857142857142858v22.857142857142858h-22.857142857142858Z" style="fill: rgb(253, 216, 179);"></path><path d="M68.57142857142857,0h22.857142857142858v22.857142857142858h-22.857142857142858Z" style="fill: rgb(252, 145, 66);"></path><path d="M91.42857142857143,45.714285714285715h22.857142857142858v22.857142857142858h-22.857142857142858Z" style="fill: rgb(253, 183, 122);"></path><path d="M22.857142857142858,45.714285714285715h22.857142857142858v22.857142857142858h-22.857142857142858Z" style="fill: rgb(253, 216, 179);"></path><path d="M68.57142857142857,45.714285714285715h22.857142857142858v22.857142857142858h-22.857142857142858Z" style="fill: rgb(253, 161, 88);"></path><path d="M22.857142857142858,68.57142857142857h22.857142857142858v22.857142857142858h-22.857142857142858Z" style="fill: rgb(253, 183, 122);"></path><path d="M0,68.57142857142857h22.857142857142858v22.857142857142858h-22.857142857142858Z" style="fill: rgb(253, 216, 179);"></path><path d="M45.714285714285715,137.14285714285714h22.857142857142858v22.857142857142858h-22.857142857142858Z" style="fill: rgb(253, 183, 122);"></path><path d="M0,137.14285714285714h22.857142857142858v22.857142857142858h-22.857142857142858Z" style="fill: rgb(253, 216, 179);"></path></g><g class="mark-group role-axis"><g transform="translate(0.5,160.5)"><path class="background" d="M0,0h0v0h0Z" style="pointer-events: none; fill: none;"></path><g><g class="mark-rule role-axis-tick" style="pointer-events: none;"><line transform="translate(11,0)" x2="0" y2="5" style="fill: none; stroke: #888; stroke-width: 1; opacity: 1;"></line><line transform="translate(34,0)" x2="0" y2="5" style="fill: none; stroke: #888; stroke-width: 1; opacity: 1;"></line><line transform="translate(57,0)" x2="0" y2="5" style="fill: none; stroke: #888; stroke-width: 1; opacity: 1;"></line><line transform="translate(80,0)" x2="0" y2="5" style="fill: none; stroke: #888; stroke-width: 1; opacity: 1;"></line><line transform="translate(102,0)" x2="0" y2="5" style="fill: none; stroke: #888; stroke-width: 1; opacity: 1;"></line><line transform="translate(125,0)" x2="0" y2="5" style="fill: none; stroke: #888; stroke-width: 1; opacity: 1;"></line><line transform="translate(148,0)" x2="0" y2="5" style="fill: none; stroke: #888; stroke-width: 1; opacity: 1;"></line></g><g class="mark-text role-axis-label" style="pointer-events: none;"><text text-anchor="end" transform="translate(10.928571428571429,7) rotate(270) translate(0,4)" style="font-family: sans-serif; font-size: 14px; fill: #000; opacity: 1;">dom</text><text text-anchor="end" transform="translate(33.785714285714285,7) rotate(270) translate(0,4)" style="font-family: sans-serif; font-size: 14px; fill: #000; opacity: 1;">lun</text><text text-anchor="end" transform="translate(56.642857142857146,7) rotate(270) translate(0,4)" style="font-family: sans-serif; font-size: 14px; fill: #000; opacity: 1;">mar</text><text text-anchor="end" transform="translate(79.5,7) rotate(270) translate(0,4)" style="font-family: sans-serif; font-size: 14px; fill: #000; opacity: 1;">mié</text><text text-anchor="end" transform="translate(102.35714285714286,7) rotate(270) translate(0,4)" style="font-family: sans-serif; font-size: 14px; fill: #000; opacity: 1;">jue</text><text text-anchor="end" transform="translate(125.21428571428572,7) rotate(270) translate(0,4)" style="font-family: sans-serif; font-size: 14px; fill: #000; opacity: 1;">vie</text><text text-anchor="end" transform="translate(148.07142857142856,7) rotate(270) translate(0,4)" style="font-family: sans-serif; font-size: 14px; fill: #000; opacity: 1;">sáb</text></g><g class="mark-rule role-axis-domain" style="pointer-events: none;"><line transform="translate(0,0)" x2="160" y2="0" style="fill: none; stroke: #888; stroke-width: 1; opacity: 1;"></line></g><g class="mark-text role-axis-title" style="pointer-events: none;"><text text-anchor="middle" transform="translate(80,49.234375)" style="font-family: sans-serif; font-size: 14px; font-weight: bold; fill: #000; opacity: 1;">Día muestra</text></g></g><path class="foreground" d="" style="pointer-events: none; display: none; fill: none;"></path></g></g><g class="mark-group role-axis"><g transform="translate(0.5,0.5)"><path class="background" d="M0,0h0v0h0Z" style="pointer-events: none; fill: none;"></path><g><g class="mark-rule role-axis-tick" style="pointer-events: none;"><line transform="translate(0,11)" x2="-5" y2="0" style="fill: none; stroke: #888; stroke-width: 1; opacity: 1;"></line><line transform="translate(0,34)" x2="-5" y2="0" style="fill: none; stroke: #888; stroke-width: 1; opacity: 1;"></line><line transform="translate(0,57)" x2="-5" y2="0" style="fill: none; stroke: #888; stroke-width: 1; opacity: 1;"></line><line transform="translate(0,80)" x2="-5" y2="0" style="fill: none; stroke: #888; stroke-width: 1; opacity: 1;"></line><line transform="translate(0,102)" x2="-5" y2="0" style="fill: none; stroke: #888; stroke-width: 1; opacity: 1;"></line><line transform="translate(0,125)" x2="-5" y2="0" style="fill: none; stroke: #888; stroke-width: 1; opacity: 1;"></line><line transform="translate(0,148)" x2="-5" y2="0" style="fill: none; stroke: #888; stroke-width: 1; opacity: 1;"></line></g><g class="mark-text role-axis-label" style="pointer-events: none;"><text text-anchor="end" transform="translate(-7,14.928571428571429)" style="font-family: sans-serif; font-size: 14px; fill: #000; opacity: 1;">dom</text><text text-anchor="end" transform="translate(-7,37.785714285714285)" style="font-family: sans-serif; font-size: 14px; fill: #000; opacity: 1;">lun</text><text text-anchor="end" transform="translate(-7,60.642857142857146)" style="font-family: sans-serif; font-size: 14px; fill: #000; opacity: 1;">mar</text><text text-anchor="end" transform="translate(-7,83.5)" style="font-family: sans-serif; font-size: 14px; fill: #000; opacity: 1;">mié</text><text text-anchor="end" transform="translate(-7,106.35714285714286)" style="font-family: sans-serif; font-size: 14px; fill: #000; opacity: 1;">jue</text><text text-anchor="end" transform="translate(-7,129.21428571428572)" style="font-family: sans-serif; font-size: 14px; fill: #000; opacity: 1;">vie</text><text text-anchor="end" transform="translate(-7,152.07142857142856)" style="font-family: sans-serif; font-size: 14px; fill: #000; opacity: 1;">sáb</text></g><g class="mark-rule role-axis-domain" style="pointer-events: none;"><line transform="translate(0,0)" x2="0" y2="160" style="fill: none; stroke: #888; stroke-width: 1; opacity: 1;"></line></g><g class="mark-text role-axis-title" style="pointer-events: none;"><text text-anchor="middle" transform="translate(-38.234375,80) rotate(-90) translate(0,-3)" style="font-family: sans-serif; font-size: 14px; font-weight: bold; fill: #000; opacity: 1;">Día boletín</text></g></g><path class="foreground" d="" style="pointer-events: none; display: none; fill: none;"></path></g></g></g><path class="foreground" d="" style="display: none; fill: none;"></path></g></g><g class="mark-group role-scope concat_0_concat_0_concat_1_concat_1_group"><g transform="translate(165,0)"><path class="background" d="M0.5,0.5h40v160h-40Z" style="fill: none; stroke: #ddd;"></path><g><g class="mark-rect role-mark concat_0_concat_0_concat_1_concat_1_marks"><path d="M0,23.999999999999996h27.142857142857146v20.571428571428573h-27.142857142857146Z" style="fill: rgb(193, 65, 3);"></path><path d="M0,46.857142857142854h11.428571428571427v20.571428571428573h-11.428571428571427Z" style="fill: rgb(239, 105, 23);"></path><path d="M0,69.71428571428571h34.285714285714285v20.571428571428573h-34.285714285714285Z" style="fill: rgb(176, 58, 2);"></path><path d="M0,92.57142857142857h40v20.571428571428573h-40Z" style="fill: rgb(164, 53, 3);"></path><path d="M0,115.42857142857143h35.714285714285715v20.571428571428573h-35.714285714285715Z" style="fill: rgb(173, 56, 2);"></path><path d="M0,138.28571428571428h15.714285714285714v20.571428571428573h-15.714285714285714Z" style="fill: rgb(227, 87, 11);"></path><path d="M0,1.1428571428571388h32.857142857142854v20.571428571428573h-32.857142857142854Z" style="fill: rgb(179, 59, 2);"></path></g></g><path class="foreground" d="" style="display: none; fill: none;"></path></g></g></g><path class="foreground" d="" style="display: none; fill: none;"></path></g></g><g class="mark-group role-legend"><g transform="translate(224,0)"><path class="background" d="M0,0h34v64h-34Z" style="pointer-events: none; fill: none;"></path><g><g class="mark-group role-legend-entry"><g transform="translate(0,0)"><path class="background" d="M0,0h0v0h0Z" style="pointer-events: none; fill: none;"></path><g><g class="mark-rect role-legend-gradient" style="pointer-events: none;"><path d="M0,0h16v64h-16Z" style="fill: url(#gradient_0); stroke: #ddd; stroke-width: 0; opacity: 1;"></path></g><g class="mark-text role-legend-label" style="pointer-events: none;"><text text-anchor="start" transform="translate(18,61)" style="font-family: sans-serif; font-size: 14px; fill: #000; opacity: 1;">1</text><text text-anchor="start" transform="translate(18,41.91423397241521)" style="font-family: sans-serif; font-size: 14px; fill: #000; opacity: 1;">4</text><text text-anchor="start" transform="translate(18,15.828467944830422)" style="font-family: sans-serif; font-size: 14px; fill: #000; opacity: 1;">16</text></g></g><path class="foreground" d="" style="pointer-events: none; display: none; fill: none;"></path></g></g></g><path class="foreground" d="" style="pointer-events: none; display: none; fill: none;"></path></g></g></g><path class="foreground" d="" style="display: none; fill: none;"></path></g></g><g class="mark-group role-scope concat_0_concat_1_group"><g transform="translate(332,0)"><path class="background" d="M0,0h0v0h0Z" style="fill: none;"></path><g><g class="mark-group role-scope concat_0_concat_1_concat_0_group"><g transform="translate(0,0)"><path class="background" d="M0.5,0.5h160v40h-160Z" style="fill: none; stroke: #ddd;"></path><g><g class="mark-rect role-mark concat_0_concat_1_concat_0_marks"><path d="M138.28571428571428,30.285714285714285h20.571428571428573v9.714285714285715h-20.571428571428573Z" style="fill: rgb(216, 39, 35);"></path><path d="M23.999999999999996,7.428571428571429h20.571428571428573v32.57142857142857h-20.571428571428573Z" style="fill: rgb(171, 16, 23);"></path><path d="M46.857142857142854,1.857142857142855h20.571428571428573v38.142857142857146h-20.571428571428573Z" style="fill: rgb(163, 14, 21);"></path><path d="M69.71428571428571,8.714285714285715h20.571428571428573v31.285714285714285h-20.571428571428573Z" style="fill: rgb(172, 17, 23);"></path><path d="M92.57142857142857,6.285714285714286h20.571428571428573v33.714285714285715h-20.571428571428573Z" style="fill: rgb(169, 16, 22);"></path><path d="M115.42857142857143,0.2857142857142847h20.571428571428573v39.714285714285715h-20.571428571428573Z" style="fill: rgb(161, 14, 21);"></path><path d="M1.1428571428571388,37.857142857142854h20.571428571428573v2.142857142857146h-20.571428571428573Z" style="fill: rgb(247, 96, 70);"></path></g><g class="mark-group role-title"><g transform="translate(80,-29)"><path class="background" d="M0,0h0v0h0Z" style="pointer-events: none; fill: none;"></path><g><g class="mark-text role-title-text" style="pointer-events: none;"><text text-anchor="middle" transform="translate(0,11)" style="font-family: sans-serif; font-size: 14px; font-weight: normal; fill: #000; opacity: 1;">Probables</text></g></g><path class="foreground" d="" style="pointer-events: none; display: none; fill: none;"></path></g></g></g><path class="foreground" d="" style="display: none; fill: none;"></path></g></g><g class="mark-group role-scope concat_0_concat_1_concat_1_group"><g transform="translate(0,45)"><path class="background" d="M0,0h0v0h0Z" style="fill: none;"></path><g><g class="mark-group role-scope concat_0_concat_1_concat_1_concat_0_group"><g transform="translate(0,0)"><path class="background" d="M0.5,0.5h160v160h-160Z" style="fill: none; stroke: #ddd;"></path><g><g class="mark-rect role-mark concat_0_concat_1_concat_1_concat_0_marks"><path d="M137.14285714285714,22.857142857142858h22.857142857142858v22.857142857142858h-22.857142857142858Z" style="fill: rgb(253, 201, 180);"></path><path d="M22.857142857142858,22.857142857142858h22.857142857142858v22.857142857142858h-22.857142857142858Z" style="fill: rgb(233, 58, 45);"></path><path d="M45.714285714285715,22.857142857142858h22.857142857142858v22.857142857142858h-22.857142857142858Z" style="fill: rgb(210, 34, 33);"></path><path d="M68.57142857142857,22.857142857142858h22.857142857142858v22.857142857142858h-22.857142857142858Z" style="fill: rgb(230, 55, 43);"></path><path d="M91.42857142857143,45.714285714285715h22.857142857142858v22.857142857142858h-22.857142857142858Z" style="fill: rgb(246, 86, 62);"></path><path d="M137.14285714285714,45.714285714285715h22.857142857142858v22.857142857142858h-22.857142857142858Z" style="fill: rgb(252, 161, 131);"></path><path d="M22.857142857142858,45.714285714285715h22.857142857142858v22.857142857142858h-22.857142857142858Z" style="fill: rgb(237, 66, 49);"></path><path d="M45.714285714285715,45.714285714285715h22.857142857142858v22.857142857142858h-22.857142857142858Z" style="fill: rgb(234, 60, 46);"></path><path d="M68.57142857142857,45.714285714285715h22.857142857142858v22.857142857142858h-22.857142857142858Z" style="fill: rgb(232, 58, 44);"></path><path d="M68.57142857142857,68.57142857142857h22.857142857142858v22.857142857142858h-22.857142857142858Z" style="fill: rgb(226, 49, 40);"></path><path d="M114.28571428571429,68.57142857142857h22.857142857142858v22.857142857142858h-22.857142857142858Z" style="fill: rgb(233, 59, 45);"></path><path d="M0,68.57142857142857h22.857142857142858v22.857142857142858h-22.857142857142858Z" style="fill: rgb(252, 161, 131);"></path><path d="M22.857142857142858,68.57142857142857h22.857142857142858v22.857142857142858h-22.857142857142858Z" style="fill: rgb(250, 114, 82);"></path><path d="M45.714285714285715,68.57142857142857h22.857142857142858v22.857142857142858h-22.857142857142858Z" style="fill: rgb(247, 91, 66);"></path><path d="M91.42857142857143,68.57142857142857h22.857142857142858v22.857142857142858h-22.857142857142858Z" style="fill: rgb(213, 37, 34);"></path><path d="M91.42857142857143,91.42857142857143h22.857142857142858v22.857142857142858h-22.857142857142858Z" style="fill: rgb(211, 35, 33);"></path><path d="M22.857142857142858,91.42857142857143h22.857142857142858v22.857142857142858h-22.857142857142858Z" style="fill: rgb(223, 46, 39);"></path><path d="M45.714285714285715,91.42857142857143h22.857142857142858v22.857142857142858h-22.857142857142858Z" style="fill: rgb(242, 78, 57);"></path><path d="M68.57142857142857,91.42857142857143h22.857142857142858v22.857142857142858h-22.857142857142858Z" style="fill: rgb(242, 78, 57);"></path><path d="M114.28571428571429,91.42857142857143h22.857142857142858v22.857142857142858h-22.857142857142858Z" style="fill: rgb(192, 24, 27);"></path><path d="M137.14285714285714,91.42857142857143h22.857142857142858v22.857142857142858h-22.857142857142858Z" style="fill: rgb(238, 68, 50);"></path><path d="M68.57142857142857,114.28571428571429h22.857142857142858v22.857142857142858h-22.857142857142858Z" style="fill: rgb(243, 80, 58);"></path><path d="M91.42857142857143,114.28571428571429h22.857142857142858v22.857142857142858h-22.857142857142858Z" style="fill: rgb(243, 80, 58);"></path><path d="M114.28571428571429,114.28571428571429h22.857142857142858v22.857142857142858h-22.857142857142858Z" style="fill: rgb(236, 64, 47);"></path><path d="M137.14285714285714,114.28571428571429h22.857142857142858v22.857142857142858h-22.857142857142858Z" style="fill: rgb(248, 102, 74);"></path><path d="M0,114.28571428571429h22.857142857142858v22.857142857142858h-22.857142857142858Z" style="fill: rgb(252, 150, 119);"></path><path d="M22.857142857142858,114.28571428571429h22.857142857142858v22.857142857142858h-22.857142857142858Z" style="fill: rgb(241, 75, 55);"></path><path d="M45.714285714285715,137.14285714285714h22.857142857142858v22.857142857142858h-22.857142857142858Z" style="fill: rgb(238, 69, 51);"></path><path d="M68.57142857142857,137.14285714285714h22.857142857142858v22.857142857142858h-22.857142857142858Z" style="fill: rgb(247, 91, 66);"></path><path d="M91.42857142857143,137.14285714285714h22.857142857142858v22.857142857142858h-22.857142857142858Z" style="fill: rgb(240, 73, 54);"></path><path d="M114.28571428571429,137.14285714285714h22.857142857142858v22.857142857142858h-22.857142857142858Z" style="fill: rgb(241, 75, 55);"></path><path d="M22.857142857142858,137.14285714285714h22.857142857142858v22.857142857142858h-22.857142857142858Z" style="fill: rgb(228, 52, 42);"></path><path d="M68.57142857142857,0h22.857142857142858v22.857142857142858h-22.857142857142858Z" style="fill: rgb(240, 72, 53);"></path><path d="M91.42857142857143,0h22.857142857142858v22.857142857142858h-22.857142857142858Z" style="fill: rgb(248, 102, 74);"></path><path d="M91.42857142857143,22.857142857142858h22.857142857142858v22.857142857142858h-22.857142857142858Z" style="fill: rgb(252, 161, 131);"></path><path d="M114.28571428571429,22.857142857142858h22.857142857142858v22.857142857142858h-22.857142857142858Z" style="fill: rgb(251, 122, 91);"></path><path d="M0,22.857142857142858h22.857142857142858v22.857142857142858h-22.857142857142858Z" style="fill: rgb(253, 201, 180);"></path><path d="M114.28571428571429,45.714285714285715h22.857142857142858v22.857142857142858h-22.857142857142858Z" style="fill: rgb(250, 118, 86);"></path><path d="M0,91.42857142857143h22.857142857142858v22.857142857142858h-22.857142857142858Z" style="fill: rgb(252, 150, 119);"></path><path d="M45.714285714285715,114.28571428571429h22.857142857142858v22.857142857142858h-22.857142857142858Z" style="fill: rgb(236, 64, 47);"></path><path d="M137.14285714285714,137.14285714285714h22.857142857142858v22.857142857142858h-22.857142857142858Z" style="fill: rgb(250, 110, 79);"></path><path d="M22.857142857142858,0h22.857142857142858v22.857142857142858h-22.857142857142858Z" style="fill: rgb(241, 75, 55);"></path><path d="M45.714285714285715,0h22.857142857142858v22.857142857142858h-22.857142857142858Z" style="fill: rgb(226, 50, 41);"></path><path d="M114.28571428571429,0h22.857142857142858v22.857142857142858h-22.857142857142858Z" style="fill: rgb(237, 66, 49);"></path><path d="M137.14285714285714,0h22.857142857142858v22.857142857142858h-22.857142857142858Z" style="fill: rgb(252, 150, 119);"></path><path d="M0,0h22.857142857142858v22.857142857142858h-22.857142857142858Z" style="fill: rgb(253, 201, 180);"></path><path d="M137.14285714285714,68.57142857142857h22.857142857142858v22.857142857142858h-22.857142857142858Z" style="fill: rgb(252, 134, 102);"></path><path d="M0,137.14285714285714h22.857142857142858v22.857142857142858h-22.857142857142858Z" style="fill: rgb(252, 176, 149);"></path></g><g class="mark-group role-axis"><g transform="translate(0.5,160.5)"><path class="background" d="M0,0h0v0h0Z" style="pointer-events: none; fill: none;"></path><g><g class="mark-rule role-axis-tick" style="pointer-events: none;"><line transform="translate(11,0)" x2="0" y2="5" style="fill: none; stroke: #888; stroke-width: 1; opacity: 1;"></line><line transform="translate(34,0)" x2="0" y2="5" style="fill: none; stroke: #888; stroke-width: 1; opacity: 1;"></line><line transform="translate(57,0)" x2="0" y2="5" style="fill: none; stroke: #888; stroke-width: 1; opacity: 1;"></line><line transform="translate(80,0)" x2="0" y2="5" style="fill: none; stroke: #888; stroke-width: 1; opacity: 1;"></line><line transform="translate(102,0)" x2="0" y2="5" style="fill: none; stroke: #888; stroke-width: 1; opacity: 1;"></line><line transform="translate(125,0)" x2="0" y2="5" style="fill: none; stroke: #888; stroke-width: 1; opacity: 1;"></line><line transform="translate(148,0)" x2="0" y2="5" style="fill: none; stroke: #888; stroke-width: 1; opacity: 1;"></line></g><g class="mark-text role-axis-label" style="pointer-events: none;"><text text-anchor="end" transform="translate(10.928571428571429,7) rotate(270) translate(0,4)" style="font-family: sans-serif; font-size: 14px; fill: #000; opacity: 1;">dom</text><text text-anchor="end" transform="translate(33.785714285714285,7) rotate(270) translate(0,4)" style="font-family: sans-serif; font-size: 14px; fill: #000; opacity: 1;">lun</text><text text-anchor="end" transform="translate(56.642857142857146,7) rotate(270) translate(0,4)" style="font-family: sans-serif; font-size: 14px; fill: #000; opacity: 1;">mar</text><text text-anchor="end" transform="translate(79.5,7) rotate(270) translate(0,4)" style="font-family: sans-serif; font-size: 14px; fill: #000; opacity: 1;">mié</text><text text-anchor="end" transform="translate(102.35714285714286,7) rotate(270) translate(0,4)" style="font-family: sans-serif; font-size: 14px; fill: #000; opacity: 1;">jue</text><text text-anchor="end" transform="translate(125.21428571428572,7) rotate(270) translate(0,4)" style="font-family: sans-serif; font-size: 14px; fill: #000; opacity: 1;">vie</text><text text-anchor="end" transform="translate(148.07142857142856,7) rotate(270) translate(0,4)" style="font-family: sans-serif; font-size: 14px; fill: #000; opacity: 1;">sáb</text></g><g class="mark-rule role-axis-domain" style="pointer-events: none;"><line transform="translate(0,0)" x2="160" y2="0" style="fill: none; stroke: #888; stroke-width: 1; opacity: 1;"></line></g><g class="mark-text role-axis-title" style="pointer-events: none;"><text text-anchor="middle" transform="translate(80,49.234375)" style="font-family: sans-serif; font-size: 14px; font-weight: bold; fill: #000; opacity: 1;">Día muestra</text></g></g><path class="foreground" d="" style="pointer-events: none; display: none; fill: none;"></path></g></g><g class="mark-group role-axis"><g transform="translate(0.5,0.5)"><path class="background" d="M0,0h0v0h0Z" style="pointer-events: none; fill: none;"></path><g><g class="mark-rule role-axis-tick" style="pointer-events: none;"><line transform="translate(0,11)" x2="-5" y2="0" style="fill: none; stroke: #888; stroke-width: 1; opacity: 1;"></line><line transform="translate(0,34)" x2="-5" y2="0" style="fill: none; stroke: #888; stroke-width: 1; opacity: 1;"></line><line transform="translate(0,57)" x2="-5" y2="0" style="fill: none; stroke: #888; stroke-width: 1; opacity: 1;"></line><line transform="translate(0,80)" x2="-5" y2="0" style="fill: none; stroke: #888; stroke-width: 1; opacity: 1;"></line><line transform="translate(0,102)" x2="-5" y2="0" style="fill: none; stroke: #888; stroke-width: 1; opacity: 1;"></line><line transform="translate(0,125)" x2="-5" y2="0" style="fill: none; stroke: #888; stroke-width: 1; opacity: 1;"></line><line transform="translate(0,148)" x2="-5" y2="0" style="fill: none; stroke: #888; stroke-width: 1; opacity: 1;"></line></g><g class="mark-text role-axis-label" style="pointer-events: none;"><text text-anchor="end" transform="translate(-7,14.928571428571429)" style="font-family: sans-serif; font-size: 14px; fill: #000; opacity: 1;">dom</text><text text-anchor="end" transform="translate(-7,37.785714285714285)" style="font-family: sans-serif; font-size: 14px; fill: #000; opacity: 1;">lun</text><text text-anchor="end" transform="translate(-7,60.642857142857146)" style="font-family: sans-serif; font-size: 14px; fill: #000; opacity: 1;">mar</text><text text-anchor="end" transform="translate(-7,83.5)" style="font-family: sans-serif; font-size: 14px; fill: #000; opacity: 1;">mié</text><text text-anchor="end" transform="translate(-7,106.35714285714286)" style="font-family: sans-serif; font-size: 14px; fill: #000; opacity: 1;">jue</text><text text-anchor="end" transform="translate(-7,129.21428571428572)" style="font-family: sans-serif; font-size: 14px; fill: #000; opacity: 1;">vie</text><text text-anchor="end" transform="translate(-7,152.07142857142856)" style="font-family: sans-serif; font-size: 14px; fill: #000; opacity: 1;">sáb</text></g><g class="mark-rule role-axis-domain" style="pointer-events: none;"><line transform="translate(0,0)" x2="0" y2="160" style="fill: none; stroke: #888; stroke-width: 1; opacity: 1;"></line></g><g class="mark-text role-axis-title" style="pointer-events: none;"><text text-anchor="middle" transform="translate(-38.234375,80) rotate(-90) translate(0,-3)" style="font-family: sans-serif; font-size: 14px; font-weight: bold; fill: #000; opacity: 1;">Día boletín</text></g></g><path class="foreground" d="" style="pointer-events: none; display: none; fill: none;"></path></g></g></g><path class="foreground" d="" style="display: none; fill: none;"></path></g></g><g class="mark-group role-scope concat_0_concat_1_concat_1_concat_1_group"><g transform="translate(165,0)"><path class="background" d="M0.5,0.5h40v160h-40Z" style="fill: none; stroke: #ddd;"></path><g><g class="mark-rect role-mark concat_0_concat_1_concat_1_concat_1_marks"><path d="M0,23.999999999999996h19.885714285714286v20.571428571428573h-19.885714285714286Z" style="fill: rgb(182, 20, 25);"></path><path d="M0,46.857142857142854h15.657142857142857v20.571428571428573h-15.657142857142857Z" style="fill: rgb(191, 23, 27);"></path><path d="M0,69.71428571428571h22.400000000000002v20.571428571428573h-22.400000000000002Z" style="fill: rgb(177, 18, 24);"></path><path d="M0,92.57142857142857h39.77142857142857v20.571428571428573h-39.77142857142857Z" style="fill: rgb(151, 11, 19);"></path><path d="M0,115.42857142857143h17.37142857142857v20.571428571428573h-17.37142857142857Z" style="fill: rgb(187, 22, 26);"></path><path d="M0,138.28571428571428h17.714285714285715v20.571428571428573h-17.714285714285715Z" style="fill: rgb(186, 21, 26);"></path><path d="M0,1.1428571428571388h17.02857142857143v20.571428571428573h-17.02857142857143Z" style="fill: rgb(188, 22, 26);"></path></g></g><path class="foreground" d="" style="display: none; fill: none;"></path></g></g></g><path class="foreground" d="" style="display: none; fill: none;"></path></g></g><g class="mark-group role-legend"><g transform="translate(224,0)"><path class="background" d="M0,0h26v64h-26Z" style="pointer-events: none; fill: none;"></path><g><g class="mark-group role-legend-entry"><g transform="translate(0,0)"><path class="background" d="M0,0h0v0h0Z" style="pointer-events: none; fill: none;"></path><g><g class="mark-rect role-legend-gradient" style="pointer-events: none;"><path d="M0,0h16v64h-16Z" style="fill: url(#gradient_1); stroke: #ddd; stroke-width: 0; opacity: 1;"></path></g><g class="mark-text role-legend-label" style="pointer-events: none;"><text text-anchor="start" transform="translate(18,61)" style="font-family: sans-serif; font-size: 14px; fill: #000; opacity: 1;">1</text><text text-anchor="start" transform="translate(18,11)" style="font-family: sans-serif; font-size: 14px; fill: #000; opacity: 1;"></text></g></g><path class="foreground" d="" style="pointer-events: none; display: none; fill: none;"></path></g></g></g><path class="foreground" d="" style="pointer-events: none; display: none; fill: none;"></path></g></g></g><path class="foreground" d="" style="display: none; fill: none;"></path></g></g></g><path class="foreground" d="" style="display: none; fill: none;"></path></g></g><g class="mark-group role-scope concat_1_group"><g transform="translate(115.5,280)"><path class="background" d="M0.5,0.5h350v40h-350Z" style="fill: none; stroke: #ddd;"></path><g><g class="mark-text role-mark concat_1_marks"><text text-anchor="middle" transform="translate(175,23)" style="font-family: sans-serif; font-size: 11px; fill: black;">Datos hasta: domingo 31 de mayo, 2020</text></g></g><path class="foreground" d="" style="display: none; fill: none;"></path></g></g><g class="mark-group role-scope concat_2_group"><g transform="translate(166,371)"><path class="background" d="M0,0h0v0h0Z" style="fill: none;"></path><g><g class="mark-group role-scope concat_2_concat_0_group"><g transform="translate(0,0)"><path class="background" d="M0.5,0.5h160v40h-160Z" style="fill: none; stroke: #ddd;"></path><g><g class="mark-rect role-mark concat_2_concat_0_marks"><path d="M1.3333333333333286,20h24v20h-24Z" style="fill: rgb(77, 165, 164);"></path><path d="M27.999999999999996,10h24v30h-24Z" style="fill: rgb(31, 128, 128);"></path><path d="M54.666666666666664,0h24v40h-24Z" style="fill: rgb(0, 102, 103);"></path><path d="M81.33333333333333,0h24v40h-24Z" style="fill: rgb(0, 102, 103);"></path><path d="M108,20h24v20h-24Z" style="fill: rgb(77, 165, 164);"></path><path d="M134.66666666666669,20h24v20h-24Z" style="fill: rgb(77, 165, 164);"></path></g><g class="mark-group role-title"><g transform="translate(80,-29)"><path class="background" d="M0,0h0v0h0Z" style="pointer-events: none; fill: none;"></path><g><g class="mark-text role-title-text" style="pointer-events: none;"><text text-anchor="middle" transform="translate(0,11)" style="font-family: sans-serif; font-size: 14px; font-weight: normal; fill: #000; opacity: 1;">Muertes</text></g></g><path class="foreground" d="" style="pointer-events: none; display: none; fill: none;"></path></g></g></g><path class="foreground" d="" style="display: none; fill: none;"></path></g></g><g class="mark-group role-scope concat_2_concat_1_group"><g transform="translate(0,45)"><path class="background" d="M0,0h0v0h0Z" style="fill: none;"></path><g><g class="mark-group role-scope concat_2_concat_1_concat_0_group"><g transform="translate(0,0)"><path class="background" d="M0.5,0.5h160v160h-160Z" style="fill: none; stroke: #ddd;"></path><g><g class="mark-rect role-mark concat_2_concat_1_concat_0_marks"><path d="M0,22.857142857142858h26.666666666666668v22.857142857142858h-26.666666666666668Z" style="fill: rgb(187, 223, 223);"></path><path d="M26.666666666666668,45.714285714285715h26.666666666666668v22.857142857142858h-26.666666666666668Z" style="fill: rgb(187, 223, 223);"></path><path d="M53.333333333333336,91.42857142857143h26.666666666666668v22.857142857142858h-26.666666666666668Z" style="fill: rgb(187, 223, 223);"></path><path d="M80,91.42857142857143h26.666666666666668v22.857142857142858h-26.666666666666668Z" style="fill: rgb(31, 128, 128);"></path><path d="M106.66666666666667,137.14285714285714h26.666666666666668v22.857142857142858h-26.666666666666668Z" style="fill: rgb(187, 223, 223);"></path><path d="M26.666666666666668,68.57142857142857h26.666666666666668v22.857142857142858h-26.666666666666668Z" style="fill: rgb(77, 165, 164);"></path><path d="M53.333333333333336,114.28571428571429h26.666666666666668v22.857142857142858h-26.666666666666668Z" style="fill: rgb(77, 165, 164);"></path><path d="M0,0h26.666666666666668v22.857142857142858h-26.666666666666668Z" style="fill: rgb(187, 223, 223);"></path><path d="M133.33333333333334,0h26.666666666666668v22.857142857142858h-26.666666666666668Z" style="fill: rgb(187, 223, 223);"></path><path d="M106.66666666666667,68.57142857142857h26.666666666666668v22.857142857142858h-26.666666666666668Z" style="fill: rgb(187, 223, 223);"></path><path d="M80,137.14285714285714h26.666666666666668v22.857142857142858h-26.666666666666668Z" style="fill: rgb(187, 223, 223);"></path><path d="M53.333333333333336,137.14285714285714h26.666666666666668v22.857142857142858h-26.666666666666668Z" style="fill: rgb(187, 223, 223);"></path><path d="M133.33333333333334,137.14285714285714h26.666666666666668v22.857142857142858h-26.666666666666668Z" style="fill: rgb(187, 223, 223);"></path></g><g class="mark-group role-axis"><g transform="translate(0.5,160.5)"><path class="background" d="M0,0h0v0h0Z" style="pointer-events: none; fill: none;"></path><g><g class="mark-rule role-axis-tick" style="pointer-events: none;"><line transform="translate(13,0)" x2="0" y2="5" style="fill: none; stroke: #888; stroke-width: 1; opacity: 1;"></line><line transform="translate(40,0)" x2="0" y2="5" style="fill: none; stroke: #888; stroke-width: 1; opacity: 1;"></line><line transform="translate(66,0)" x2="0" y2="5" style="fill: none; stroke: #888; stroke-width: 1; opacity: 1;"></line><line transform="translate(93,0)" x2="0" y2="5" style="fill: none; stroke: #888; stroke-width: 1; opacity: 1;"></line><line transform="translate(120,0)" x2="0" y2="5" style="fill: none; stroke: #888; stroke-width: 1; opacity: 1;"></line><line transform="translate(146,0)" x2="0" y2="5" style="fill: none; stroke: #888; stroke-width: 1; opacity: 1;"></line></g><g class="mark-text role-axis-label" style="pointer-events: none;"><text text-anchor="end" transform="translate(12.833333333333334,7) rotate(270) translate(0,4)" style="font-family: sans-serif; font-size: 14px; fill: #000; opacity: 1;">dom</text><text text-anchor="end" transform="translate(39.5,7) rotate(270) translate(0,4)" style="font-family: sans-serif; font-size: 14px; fill: #000; opacity: 1;">mar</text><text text-anchor="end" transform="translate(66.16666666666667,7) rotate(270) translate(0,4)" style="font-family: sans-serif; font-size: 14px; fill: #000; opacity: 1;">mié</text><text text-anchor="end" transform="translate(92.83333333333333,7) rotate(270) translate(0,4)" style="font-family: sans-serif; font-size: 14px; fill: #000; opacity: 1;">jue</text><text text-anchor="end" transform="translate(119.5,7) rotate(270) translate(0,4)" style="font-family: sans-serif; font-size: 14px; fill: #000; opacity: 1;">vie</text><text text-anchor="end" transform="translate(146.16666666666669,7) rotate(270) translate(0,4)" style="font-family: sans-serif; font-size: 14px; fill: #000; opacity: 1;">sáb</text></g><g class="mark-rule role-axis-domain" style="pointer-events: none;"><line transform="translate(0,0)" x2="160" y2="0" style="fill: none; stroke: #888; stroke-width: 1; opacity: 1;"></line></g><g class="mark-text role-axis-title" style="pointer-events: none;"><text text-anchor="middle" transform="translate(80,49.234375)" style="font-family: sans-serif; font-size: 14px; font-weight: bold; fill: #000; opacity: 1;">Día muerte</text></g></g><path class="foreground" d="" style="pointer-events: none; display: none; fill: none;"></path></g></g><g class="mark-group role-axis"><g transform="translate(0.5,0.5)"><path class="background" d="M0,0h0v0h0Z" style="pointer-events: none; fill: none;"></path><g><g class="mark-rule role-axis-tick" style="pointer-events: none;"><line transform="translate(0,11)" x2="-5" y2="0" style="fill: none; stroke: #888; stroke-width: 1; opacity: 1;"></line><line transform="translate(0,34)" x2="-5" y2="0" style="fill: none; stroke: #888; stroke-width: 1; opacity: 1;"></line><line transform="translate(0,57)" x2="-5" y2="0" style="fill: none; stroke: #888; stroke-width: 1; opacity: 1;"></line><line transform="translate(0,80)" x2="-5" y2="0" style="fill: none; stroke: #888; stroke-width: 1; opacity: 1;"></line><line transform="translate(0,102)" x2="-5" y2="0" style="fill: none; stroke: #888; stroke-width: 1; opacity: 1;"></line><line transform="translate(0,125)" x2="-5" y2="0" style="fill: none; stroke: #888; stroke-width: 1; opacity: 1;"></line><line transform="translate(0,148)" x2="-5" y2="0" style="fill: none; stroke: #888; stroke-width: 1; opacity: 1;"></line></g><g class="mark-text role-axis-label" style="pointer-events: none;"><text text-anchor="end" transform="translate(-7,14.928571428571429)" style="font-family: sans-serif; font-size: 14px; fill: #000; opacity: 1;">dom</text><text text-anchor="end" transform="translate(-7,37.785714285714285)" style="font-family: sans-serif; font-size: 14px; fill: #000; opacity: 1;">lun</text><text text-anchor="end" transform="translate(-7,60.642857142857146)" style="font-family: sans-serif; font-size: 14px; fill: #000; opacity: 1;">mar</text><text text-anchor="end" transform="translate(-7,83.5)" style="font-family: sans-serif; font-size: 14px; fill: #000; opacity: 1;">mié</text><text text-anchor="end" transform="translate(-7,106.35714285714286)" style="font-family: sans-serif; font-size: 14px; fill: #000; opacity: 1;">jue</text><text text-anchor="end" transform="translate(-7,129.21428571428572)" style="font-family: sans-serif; font-size: 14px; fill: #000; opacity: 1;">vie</text><text text-anchor="end" transform="translate(-7,152.07142857142856)" style="font-family: sans-serif; font-size: 14px; fill: #000; opacity: 1;">sáb</text></g><g class="mark-rule role-axis-domain" style="pointer-events: none;"><line transform="translate(0,0)" x2="0" y2="160" style="fill: none; stroke: #888; stroke-width: 1; opacity: 1;"></line></g><g class="mark-text role-axis-title" style="pointer-events: none;"><text text-anchor="middle" transform="translate(-38.234375,80) rotate(-90) translate(0,-3)" style="font-family: sans-serif; font-size: 14px; font-weight: bold; fill: #000; opacity: 1;">Día boletín</text></g></g><path class="foreground" d="" style="pointer-events: none; display: none; fill: none;"></path></g></g></g><path class="foreground" d="" style="display: none; fill: none;"></path></g></g><g class="mark-group role-scope concat_2_concat_1_concat_1_group"><g transform="translate(165,0)"><path class="background" d="M0.5,0.5h40v160h-40Z" style="fill: none; stroke: #ddd;"></path><g><g class="mark-rect role-mark concat_2_concat_1_concat_1_marks"><path d="M0,23.999999999999996h10v20.571428571428573h-10Z" style="fill: rgb(187, 223, 223);"></path><path d="M0,46.857142857142854h10v20.571428571428573h-10Z" style="fill: rgb(187, 223, 223);"></path><path d="M0,92.57142857142857h40v20.571428571428573h-40Z" style="fill: rgb(0, 102, 103);"></path><path d="M0,138.28571428571428h40v20.571428571428573h-40Z" style="fill: rgb(0, 102, 103);"></path><path d="M0,69.71428571428571h30v20.571428571428573h-30Z" style="fill: rgb(31, 128, 128);"></path><path d="M0,115.42857142857143h20v20.571428571428573h-20Z" style="fill: rgb(77, 165, 164);"></path><path d="M0,1.1428571428571388h20v20.571428571428573h-20Z" style="fill: rgb(77, 165, 164);"></path></g></g><path class="foreground" d="" style="display: none; fill: none;"></path></g></g></g><path class="foreground" d="" style="display: none; fill: none;"></path></g></g><g class="mark-group role-legend"><g transform="translate(224,0)"><path class="background" d="M0,0h26v64h-26Z" style="pointer-events: none; fill: none;"></path><g><g class="mark-group role-legend-entry"><g transform="translate(0,0)"><path class="background" d="M0,0h0v0h0Z" style="pointer-events: none; fill: none;"></path><g><g class="mark-rect role-legend-gradient" style="pointer-events: none;"><path d="M0,0h16v64h-16Z" style="fill: url(#gradient_2); stroke: #ddd; stroke-width: 0; opacity: 1;"></path></g><g class="mark-text role-legend-label" style="pointer-events: none;"><text text-anchor="start" transform="translate(18,61)" style="font-family: sans-serif; font-size: 14px; fill: #000; opacity: 1;">1</text><text text-anchor="start" transform="translate(18,36)" style="font-family: sans-serif; font-size: 14px; fill: #000; opacity: 1;">2</text><text text-anchor="start" transform="translate(18,11)" style="font-family: sans-serif; font-size: 14px; fill: #000; opacity: 1;">4</text></g></g><path class="foreground" d="" style="pointer-events: none; display: none; fill: none;"></path></g></g></g><path class="foreground" d="" style="pointer-events: none; display: none; fill: none;"></path></g></g></g><path class="foreground" d="" style="display: none; fill: none;"></path></g></g></g><path class="foreground" d="" style="display: none; fill: none;"></path></g></g></g></svg>