<svg class="marks" width="645" height="589" viewBox="0 0 645 589" version="1.1" xmlns="http://www.w3.org/2000/svg" xmlns:xlink="http://www.w3.org/1999/xlink"><rect width="645" height="589" style="fill: white;"></rect><g transform="translate(6,54)"><g class="mark-group role-frame root"><g transform="translate(0,0)"><path class="background" d="M0,0h0v0h0Z" style="fill: none;"></path><g><g class="mark-group role-column-title facet-title"><g transform="translate(317,-25)"><path class="background" d="M0,0h0v0h0Z" style="fill: none;"></path><g><g class="mark-group role-title"><g transform="translate(0,-24)"><path class="background" d="M0,0h0v0h0Z" style="pointer-events: none; fill: none;"></path><g><g class="mark-text role-title-text" style="pointer-events: none;"><text text-anchor="middle" transform="translate(0,11)" style="font-family: sans-serif; font-size: 14px; font-weight: bold; fill: #000; opacity: 1;">Fecha del boletín</text></g></g><path class="foreground" d="" style="pointer-events: none; display: none; fill: none;"></path></g></g></g><path class="foreground" d="" style="display: none; fill: none;"></path></g></g><g class="mark-group role-column-footer column_footer"><g transform="translate(0,459)"><path class="background" d="M0,0h300v0h-300Z" style="fill: none;"></path><g><g class="mark-group role-axis"><g transform="translate(0.5,0.5)"><path class="background" d="M0,0h0v0h0Z" style="pointer-events: none; fill: none;"></path><g><g class="mark-rule role-axis-tick" style="pointer-events: none;"><line transform="translate(0,0)" x2="0" y2="5" style="fill: none; stroke: #888; stroke-width: 1; opacity: 1;"></line><line transform="translate(54,0)" x2="0" y2="5" style="fill: none; stroke: #888; stroke-width: 1; opacity: 1;"></line><line transform="translate(107,0)" x2="0" y2="5" style="fill: none; stroke: #888; stroke-width: 1; opacity: 1;"></line><line transform="translate(161,0)" x2="0" y2="5" style="fill: none; stroke: #888; stroke-width: 1; opacity: 1;"></line><line transform="translate(214,0)" x2="0" y2="5" style="fill: none; stroke: #888; stroke-width: 1; opacity: 1;"></line><line transform="translate(268,0)" x2="0" y2="5" style="fill: none; stroke: #888; stroke-width: 1; opacity: 1;"></line></g><g class="mark-text role-axis-label" style="pointer-events: none;"><text text-anchor="start" transform="translate(0,18)" style="font-family: sans-serif; font-size: 14px; fill: #000; opacity: 1;">0</text><text text-anchor="middle" transform="translate(53.57142857142857,18)" style="font-family: sans-serif; font-size: 14px; fill: #000; opacity: 1;">5</text><text text-anchor="middle" transform="translate(107.14285714285714,18)" style="font-family: sans-serif; font-size: 14px; fill: #000; opacity: 1;">10</text><text text-anchor="middle" transform="translate(160.71428571428572,18)" style="font-family: sans-serif; font-size: 14px; fill: #000; opacity: 1;">15</text><text text-anchor="middle" transform="translate(214.28571428571428,18)" style="font-family: sans-serif; font-size: 14px; fill: #000; opacity: 1;">20</text><text text-anchor="middle" transform="translate(267.8571428571429,18)" style="font-family: sans-serif; font-size: 14px; fill: #000; opacity: 1;">25</text></g><g class="mark-rule role-axis-domain" style="pointer-events: none;"><line transform="translate(0,0)" x2="300" y2="0" style="fill: none; stroke: #888; stroke-width: 1; opacity: 1;"></line></g><g class="mark-text role-axis-title" style="pointer-events: none;"><text text-anchor="middle" transform="translate(150,36)" style="font-family: sans-serif; font-size: 14px; font-weight: bold; fill: #000; opacity: 1;">Rezago estimado (días)</text></g></g><path class="foreground" d="" style="pointer-events: none; display: none; fill: none;"></path></g></g></g><path class="foreground" d="" style="display: none; fill: none;"></path></g><g transform="translate(333,459)"><path class="background" d="M0,0h300v0h-300Z" style="fill: none;"></path><g><g class="mark-group role-axis"><g transform="translate(0.5,0.5)"><path class="background" d="M0,0h0v0h0Z" style="pointer-events: none; fill: none;"></path><g><g class="mark-rule role-axis-tick" style="pointer-events: none;"><line transform="translate(0,0)" x2="0" y2="5" style="fill: none; stroke: #888; stroke-width: 1; opacity: 1;"></line><line transform="translate(54,0)" x2="0" y2="5" style="fill: none; stroke: #888; stroke-width: 1; opacity: 1;"></line><line transform="translate(107,0)" x2="0" y2="5" style="fill: none; stroke: #888; stroke-width: 1; opacity: 1;"></line><line transform="translate(161,0)" x2="0" y2="5" style="fill: none; stroke: #888; stroke-width: 1; opacity: 1;"></line><line transform="translate(214,0)" x2="0" y2="5" style="fill: none; stroke: #888; stroke-width: 1; opacity: 1;"></line><line transform="translate(268,0)" x2="0" y2="5" style="fill: none; stroke: #888; stroke-width: 1; opacity: 1;"></line></g><g class="mark-text role-axis-label" style="pointer-events: none;"><text text-anchor="start" transform="translate(0,18)" style="font-family: sans-serif; font-size: 14px; fill: #000; opacity: 1;">0</text><text text-anchor="middle" transform="translate(53.57142857142857,18)" style="font-family: sans-serif; font-size: 14px; fill: #000; opacity: 1;">5</text><text text-anchor="middle" transform="translate(107.14285714285714,18)" style="font-family: sans-serif; font-size: 14px; fill: #000; opacity: 1;">10</text><text text-anchor="middle" transform="translate(160.71428571428572,18)" style="font-family: sans-serif; font-size: 14px; fill: #000; opacity: 1;">15</text><text text-anchor="middle" transform="translate(214.28571428571428,18)" style="font-family: sans-serif; font-size: 14px; fill: #000; opacity: 1;">20</text><text text-anchor="middle" transform="translate(267.8571428571429,18)" style="font-family: sans-serif; font-size: 14px; fill: #000; opacity: 1;">25</text></g><g class="mark-rule role-axis-domain" style="pointer-events: none;"><line transform="translate(0,0)" x2="300" y2="0" style="fill: none; stroke: #888; stroke-width: 1; opacity: 1;"></line></g><g class="mark-text role-axis-title" style="pointer-events: none;"><text text-anchor="middle" transform="translate(150,36)" style="font-family: sans-serif; font-size: 14px; font-weight: bold; fill: #000; opacity: 1;">Rezago estimado (días)</text></g></g><path class="foreground" d="" style="pointer-events: none; display: none; fill: none;"></path></g></g></g><path class="foreground" d="" style="display: none; fill: none;"></path></g></g><g class="mark-group role-scope cell"><g transform="translate(0,0)"><path class="background" d="M0.5,0.5h300v80h-300Z" style="fill: none; stroke: #ddd;"></path><g><g class="mark-group role-axis"><g transform="translate(0.5,80.5)"><path class="background" d="M0,0h0v0h0Z" style="pointer-events: none; fill: none;"></path><g><g class="mark-rule role-axis-grid" style="pointer-events: none;"><line transform="translate(0,0)" x2="0" y2="-80" style="fill: none; stroke: #ddd; stroke-width: 1; opacity: 1;"></line><line transform="translate(54,0)" x2="0" y2="-80" style="fill: none; stroke: #ddd; stroke-width: 1; opacity: 1;"></line><line transform="translate(107,0)" x2="0" y2="-80" style="fill: none; stroke: #ddd; stroke-width: 1; opacity: 1;"></line><line transform="translate(161,0)" x2="0" y2="-80" style="fill: none; stroke: #ddd; stroke-width: 1; opacity: 1;"></line><line transform="translate(214,0)" x2="0" y2="-80" style="fill: none; stroke: #ddd; stroke-width: 1; opacity: 1;"></line><line transform="translate(268,0)" x2="0" y2="-80" style="fill: none; stroke: #ddd; stroke-width: 1; opacity: 1;"></line></g></g><path class="foreground" d="" style="pointer-events: none; display: none; fill: none;"></path></g></g><g class="mark-rect role-mark child_layer_0_marks"><path d="M0,1h102.08667736757626v18h-102.08667736757626Z" style="fill: #4c78a8;"></path><path d="M0,41h102.08667736757626v18h-102.08667736757626Z" style="fill: #e45756;"></path></g><g class="mark-text role-mark child_layer_1_marks"><text text-anchor="end" transform="translate(97.08667736757626,14)" style="font-family: sans-serif; font-size: 12px; fill: white;">9.5</text><text text-anchor="end" transform="translate(97.08667736757626,54)" style="font-family: sans-serif; font-size: 12px; fill: white;">9.5</text></g><g class="mark-group role-title"><g transform="translate(150,-24)"><path class="background" d="M0,0h0v0h0Z" style="pointer-events: none; fill: none;"></path><g><g class="mark-text role-title-text" style="pointer-events: none;"><text text-anchor="middle" transform="translate(0,11)" style="font-family: sans-serif; font-size: 14px; fill: #000; opacity: 1;">may 23, 2020</text></g></g><path class="foreground" d="" style="pointer-events: none; display: none; fill: none;"></path></g></g></g><path class="foreground" d="" style="display: none; fill: none;"></path></g><g transform="translate(333,0)"><path class="background" d="M0.5,0.5h300v80h-300Z" style="fill: none; stroke: #ddd;"></path><g><g class="mark-group role-axis"><g transform="translate(0.5,80.5)"><path class="background" d="M0,0h0v0h0Z" style="pointer-events: none; fill: none;"></path><g><g class="mark-rule role-axis-grid" style="pointer-events: none;"><line transform="translate(0,0)" x2="0" y2="-80" style="fill: none; stroke: #ddd; stroke-width: 1; opacity: 1;"></line><line transform="translate(54,0)" x2="0" y2="-80" style="fill: none; stroke: #ddd; stroke-width: 1; opacity: 1;"></line><line transform="translate(107,0)" x2="0" y2="-80" style="fill: none; stroke: #ddd; stroke-width: 1; opacity: 1;"></line><line transform="translate(161,0)" x2="0" y2="-80" style="fill: none; stroke: #ddd; stroke-width: 1; opacity: 1;"></line><line transform="translate(214,0)" x2="0" y2="-80" style="fill: none; stroke: #ddd; stroke-width: 1; opacity: 1;"></line><line transform="translate(268,0)" x2="0" y2="-80" style="fill: none; stroke: #ddd; stroke-width: 1; opacity: 1;"></line></g></g><path class="foreground" d="" style="pointer-events: none; display: none; fill: none;"></path></g></g><g class="mark-rect role-mark child_layer_0_marks"><path d="M0,1h79.43877551020408v18h-79.43877551020408Z" style="fill: #4c78a8;"></path><path d="M0,21h213.0952380952381v18h-213.0952380952381Z" style="fill: #f58518;"></path><path d="M0,41h59.71896955503513v18h-59.71896955503513Z" style="fill: #e45756;"></path><path d="M0,61h21.428571428571427v18h-21.428571428571427Z" style="fill: #72b7b2;"></path></g><g class="mark-text role-mark child_layer_1_marks"><text text-anchor="end" transform="translate(74.43877551020408,14)" style="font-family: sans-serif; font-size: 12px; fill: white;">7.4</text><text text-anchor="end" transform="translate(208.0952380952381,34)" style="font-family: sans-serif; font-size: 12px; fill: white;">19.9</text><text text-anchor="end" transform="translate(54.71896955503513,54)" style="font-family: sans-serif; font-size: 12px; fill: white;">5.6</text><text text-anchor="end" transform="translate(16.428571428571427,74)" style="font-family: sans-serif; font-size: 12px; fill: white;">2.0</text></g><g class="mark-group role-title"><g transform="translate(150,-24)"><path class="background" d="M0,0h0v0h0Z" style="pointer-events: none; fill: none;"></path><g><g class="mark-text role-title-text" style="pointer-events: none;"><text text-anchor="middle" transform="translate(0,11)" style="font-family: sans-serif; font-size: 14px; fill: #000; opacity: 1;">may 22, 2020</text></g></g><path class="foreground" d="" style="pointer-events: none; display: none; fill: none;"></path></g></g></g><path class="foreground" d="" style="display: none; fill: none;"></path></g><g transform="translate(0,126)"><path class="background" d="M0.5,0.5h300v80h-300Z" style="fill: none; stroke: #ddd;"></path><g><g class="mark-group role-axis"><g transform="translate(0.5,80.5)"><path class="background" d="M0,0h0v0h0Z" style="pointer-events: none; fill: none;"></path><g><g class="mark-rule role-axis-grid" style="pointer-events: none;"><line transform="translate(0,0)" x2="0" y2="-80" style="fill: none; stroke: #ddd; stroke-width: 1; opacity: 1;"></line><line transform="translate(54,0)" x2="0" y2="-80" style="fill: none; stroke: #ddd; stroke-width: 1; opacity: 1;"></line><line transform="translate(107,0)" x2="0" y2="-80" style="fill: none; stroke: #ddd; stroke-width: 1; opacity: 1;"></line><line transform="translate(161,0)" x2="0" y2="-80" style="fill: none; stroke: #ddd; stroke-width: 1; opacity: 1;"></line><line transform="translate(214,0)" x2="0" y2="-80" style="fill: none; stroke: #ddd; stroke-width: 1; opacity: 1;"></line><line transform="translate(268,0)" x2="0" y2="-80" style="fill: none; stroke: #ddd; stroke-width: 1; opacity: 1;"></line></g></g><path class="foreground" d="" style="pointer-events: none; display: none; fill: none;"></path></g></g><g class="mark-rect role-mark child_layer_0_marks"><path d="M0,1h59.39039408866995v18h-59.39039408866995Z" style="fill: #4c78a8;"></path><path d="M0,21h192.85714285714286v18h-192.85714285714286Z" style="fill: #f58518;"></path><path d="M0,41h52.391874180865v18h-52.391874180865Z" style="fill: #e45756;"></path></g><g class="mark-text role-mark child_layer_1_marks"><text text-anchor="end" transform="translate(54.39039408866995,14)" style="font-family: sans-serif; font-size: 12px; fill: white;">5.5</text><text text-anchor="end" transform="translate(187.85714285714286,34)" style="font-family: sans-serif; font-size: 12px; fill: white;">18.0</text><text text-anchor="end" transform="translate(47.391874180865,54)" style="font-family: sans-serif; font-size: 12px; fill: white;">4.9</text></g><g class="mark-group role-title"><g transform="translate(150,-24)"><path class="background" d="M0,0h0v0h0Z" style="pointer-events: none; fill: none;"></path><g><g class="mark-text role-title-text" style="pointer-events: none;"><text text-anchor="middle" transform="translate(0,11)" style="font-family: sans-serif; font-size: 14px; fill: #000; opacity: 1;">may 21, 2020</text></g></g><path class="foreground" d="" style="pointer-events: none; display: none; fill: none;"></path></g></g></g><path class="foreground" d="" style="display: none; fill: none;"></path></g><g transform="translate(333,126)"><path class="background" d="M0.5,0.5h300v80h-300Z" style="fill: none; stroke: #ddd;"></path><g><g class="mark-group role-axis"><g transform="translate(0.5,80.5)"><path class="background" d="M0,0h0v0h0Z" style="pointer-events: none; fill: none;"></path><g><g class="mark-rule role-axis-grid" style="pointer-events: none;"><line transform="translate(0,0)" x2="0" y2="-80" style="fill: none; stroke: #ddd; stroke-width: 1; opacity: 1;"></line><line transform="translate(54,0)" x2="0" y2="-80" style="fill: none; stroke: #ddd; stroke-width: 1; opacity: 1;"></line><line transform="translate(107,0)" x2="0" y2="-80" style="fill: none; stroke: #ddd; stroke-width: 1; opacity: 1;"></line><line transform="translate(161,0)" x2="0" y2="-80" style="fill: none; stroke: #ddd; stroke-width: 1; opacity: 1;"></line><line transform="translate(214,0)" x2="0" y2="-80" style="fill: none; stroke: #ddd; stroke-width: 1; opacity: 1;"></line><line transform="translate(268,0)" x2="0" y2="-80" style="fill: none; stroke: #ddd; stroke-width: 1; opacity: 1;"></line></g></g><path class="foreground" d="" style="pointer-events: none; display: none; fill: none;"></path></g></g><g class="mark-rect role-mark child_layer_0_marks"><path d="M0,1h69.64285714285714v18h-69.64285714285714Z" style="fill: #4c78a8;"></path><path d="M0,21h33.673469387755105v18h-33.673469387755105Z" style="fill: #f58518;"></path><path d="M0,41h68.83928571428571v18h-68.83928571428571Z" style="fill: #e45756;"></path><path d="M0,61h10.714285714285714v18h-10.714285714285714Z" style="fill: #72b7b2;"></path></g><g class="mark-text role-mark child_layer_1_marks"><text text-anchor="end" transform="translate(64.64285714285714,14)" style="font-family: sans-serif; font-size: 12px; fill: white;">6.5</text><text text-anchor="end" transform="translate(28.673469387755105,34)" style="font-family: sans-serif; font-size: 12px; fill: white;">3.1</text><text text-anchor="end" transform="translate(63.83928571428571,54)" style="font-family: sans-serif; font-size: 12px; fill: white;">6.4</text><text text-anchor="end" transform="translate(5.7142857142857135,74)" style="font-family: sans-serif; font-size: 12px; fill: white;">1.0</text></g><g class="mark-group role-title"><g transform="translate(150,-24)"><path class="background" d="M0,0h0v0h0Z" style="pointer-events: none; fill: none;"></path><g><g class="mark-text role-title-text" style="pointer-events: none;"><text text-anchor="middle" transform="translate(0,11)" style="font-family: sans-serif; font-size: 14px; fill: #000; opacity: 1;">may 20, 2020</text></g></g><path class="foreground" d="" style="pointer-events: none; display: none; fill: none;"></path></g></g></g><path class="foreground" d="" style="display: none; fill: none;"></path></g><g transform="translate(0,252)"><path class="background" d="M0.5,0.5h300v80h-300Z" style="fill: none; stroke: #ddd;"></path><g><g class="mark-group role-axis"><g transform="translate(0.5,80.5)"><path class="background" d="M0,0h0v0h0Z" style="pointer-events: none; fill: none;"></path><g><g class="mark-rule role-axis-grid" style="pointer-events: none;"><line transform="translate(0,0)" x2="0" y2="-80" style="fill: none; stroke: #ddd; stroke-width: 1; opacity: 1;"></line><line transform="translate(54,0)" x2="0" y2="-80" style="fill: none; stroke: #ddd; stroke-width: 1; opacity: 1;"></line><line transform="translate(107,0)" x2="0" y2="-80" style="fill: none; stroke: #ddd; stroke-width: 1; opacity: 1;"></line><line transform="translate(161,0)" x2="0" y2="-80" style="fill: none; stroke: #ddd; stroke-width: 1; opacity: 1;"></line><line transform="translate(214,0)" x2="0" y2="-80" style="fill: none; stroke: #ddd; stroke-width: 1; opacity: 1;"></line><line transform="translate(268,0)" x2="0" y2="-80" style="fill: none; stroke: #ddd; stroke-width: 1; opacity: 1;"></line></g></g><path class="foreground" d="" style="pointer-events: none; display: none; fill: none;"></path></g></g><g class="mark-rect role-mark child_layer_0_marks"><path d="M0,1h69.73067915690866v18h-69.73067915690866Z" style="fill: #4c78a8;"></path><path d="M0,41h77.93778801843318v18h-77.93778801843318Z" style="fill: #e45756;"></path><path d="M0,61h160.71428571428572v18h-160.71428571428572Z" style="fill: #72b7b2;"></path></g><g class="mark-text role-mark child_layer_1_marks"><text text-anchor="end" transform="translate(64.73067915690866,14)" style="font-family: sans-serif; font-size: 12px; fill: white;">6.5</text><text text-anchor="end" transform="translate(72.93778801843318,54)" style="font-family: sans-serif; font-size: 12px; fill: white;">7.3</text><text text-anchor="end" transform="translate(155.71428571428572,74)" style="font-family: sans-serif; font-size: 12px; fill: white;">15.0</text></g><g class="mark-group role-title"><g transform="translate(150,-24)"><path class="background" d="M0,0h0v0h0Z" style="pointer-events: none; fill: none;"></path><g><g class="mark-text role-title-text" style="pointer-events: none;"><text text-anchor="middle" transform="translate(0,11)" style="font-family: sans-serif; font-size: 14px; fill: #000; opacity: 1;">may 19, 2020</text></g></g><path class="foreground" d="" style="pointer-events: none; display: none; fill: none;"></path></g></g></g><path class="foreground" d="" style="display: none; fill: none;"></path></g><g transform="translate(333,252)"><path class="background" d="M0.5,0.5h300v80h-300Z" style="fill: none; stroke: #ddd;"></path><g><g class="mark-group role-axis"><g transform="translate(0.5,80.5)"><path class="background" d="M0,0h0v0h0Z" style="pointer-events: none; fill: none;"></path><g><g class="mark-rule role-axis-grid" style="pointer-events: none;"><line transform="translate(0,0)" x2="0" y2="-80" style="fill: none; stroke: #ddd; stroke-width: 1; opacity: 1;"></line><line transform="translate(54,0)" x2="0" y2="-80" style="fill: none; stroke: #ddd; stroke-width: 1; opacity: 1;"></line><line transform="translate(107,0)" x2="0" y2="-80" style="fill: none; stroke: #ddd; stroke-width: 1; opacity: 1;"></line><line transform="translate(161,0)" x2="0" y2="-80" style="fill: none; stroke: #ddd; stroke-width: 1; opacity: 1;"></line><line transform="translate(214,0)" x2="0" y2="-80" style="fill: none; stroke: #ddd; stroke-width: 1; opacity: 1;"></line><line transform="translate(268,0)" x2="0" y2="-80" style="fill: none; stroke: #ddd; stroke-width: 1; opacity: 1;"></line></g></g><path class="foreground" d="" style="pointer-events: none; display: none; fill: none;"></path></g></g><g class="mark-rect role-mark child_layer_0_marks"><path d="M0,1h83.796992481203v18h-83.796992481203Z" style="fill: #4c78a8;"></path><path d="M0,21h128.57142857142856v18h-128.57142857142856Z" style="fill: #f58518;"></path><path d="M0,41h77.3235800344234v18h-77.3235800344234Z" style="fill: #e45756;"></path></g><g class="mark-text role-mark child_layer_1_marks"><text text-anchor="end" transform="translate(78.796992481203,14)" style="font-family: sans-serif; font-size: 12px; fill: white;">7.8</text><text text-anchor="end" transform="translate(123.57142857142856,34)" style="font-family: sans-serif; font-size: 12px; fill: white;">12.0</text><text text-anchor="end" transform="translate(72.3235800344234,54)" style="font-family: sans-serif; font-size: 12px; fill: white;">7.2</text></g><g class="mark-group role-title"><g transform="translate(150,-24)"><path class="background" d="M0,0h0v0h0Z" style="pointer-events: none; fill: none;"></path><g><g class="mark-text role-title-text" style="pointer-events: none;"><text text-anchor="middle" transform="translate(0,11)" style="font-family: sans-serif; font-size: 14px; fill: #000; opacity: 1;">may 18, 2020</text></g></g><path class="foreground" d="" style="pointer-events: none; display: none; fill: none;"></path></g></g></g><path class="foreground" d="" style="display: none; fill: none;"></path></g><g transform="translate(0,378)"><path class="background" d="M0.5,0.5h300v80h-300Z" style="fill: none; stroke: #ddd;"></path><g><g class="mark-group role-axis"><g transform="translate(0.5,80.5)"><path class="background" d="M0,0h0v0h0Z" style="pointer-events: none; fill: none;"></path><g><g class="mark-rule role-axis-grid" style="pointer-events: none;"><line transform="translate(0,0)" x2="0" y2="-80" style="fill: none; stroke: #ddd; stroke-width: 1; opacity: 1;"></line><line transform="translate(54,0)" x2="0" y2="-80" style="fill: none; stroke: #ddd; stroke-width: 1; opacity: 1;"></line><line transform="translate(107,0)" x2="0" y2="-80" style="fill: none; stroke: #ddd; stroke-width: 1; opacity: 1;"></line><line transform="translate(161,0)" x2="0" y2="-80" style="fill: none; stroke: #ddd; stroke-width: 1; opacity: 1;"></line><line transform="translate(214,0)" x2="0" y2="-80" style="fill: none; stroke: #ddd; stroke-width: 1; opacity: 1;"></line><line transform="translate(268,0)" x2="0" y2="-80" style="fill: none; stroke: #ddd; stroke-width: 1; opacity: 1;"></line></g></g><path class="foreground" d="" style="pointer-events: none; display: none; fill: none;"></path></g></g><g class="mark-rect role-mark child_layer_0_marks"><path d="M0,1h246.76339285714286v18h-246.76339285714286Z" style="fill: #4c78a8;"></path><path d="M0,21h241.07142857142858v18h-241.07142857142858Z" style="fill: #f58518;"></path><path d="M0,41h263.8392857142857v18h-263.8392857142857Z" style="fill: #e45756;"></path><path d="M0,61h235.71428571428572v18h-235.71428571428572Z" style="fill: #72b7b2;"></path></g><g class="mark-text role-mark child_layer_1_marks"><text text-anchor="end" transform="translate(241.76339285714286,14)" style="font-family: sans-serif; font-size: 12px; fill: white;">23.0</text><text text-anchor="end" transform="translate(236.07142857142858,34)" style="font-family: sans-serif; font-size: 12px; fill: white;">22.5</text><text text-anchor="end" transform="translate(258.8392857142857,54)" style="font-family: sans-serif; font-size: 12px; fill: white;">24.6</text><text text-anchor="end" transform="translate(230.71428571428572,74)" style="font-family: sans-serif; font-size: 12px; fill: white;">22.0</text></g><g class="mark-group role-title"><g transform="translate(150,-24)"><path class="background" d="M0,0h0v0h0Z" style="pointer-events: none; fill: none;"></path><g><g class="mark-text role-title-text" style="pointer-events: none;"><text text-anchor="middle" transform="translate(0,11)" style="font-family: sans-serif; font-size: 14px; fill: #000; opacity: 1;">may 17, 2020</text></g></g><path class="foreground" d="" style="pointer-events: none; display: none; fill: none;"></path></g></g></g><path class="foreground" d="" style="display: none; fill: none;"></path></g><g transform="translate(333,378)"><path class="background" d="M0.5,0.5h300v80h-300Z" style="fill: none; stroke: #ddd;"></path><g><g class="mark-group role-axis"><g transform="translate(0.5,80.5)"><path class="background" d="M0,0h0v0h0Z" style="pointer-events: none; fill: none;"></path><g><g class="mark-rule role-axis-grid" style="pointer-events: none;"><line transform="translate(0,0)" x2="0" y2="-80" style="fill: none; stroke: #ddd; stroke-width: 1; opacity: 1;"></line><line transform="translate(54,0)" x2="0" y2="-80" style="fill: none; stroke: #ddd; stroke-width: 1; opacity: 1;"></line><line transform="translate(107,0)" x2="0" y2="-80" style="fill: none; stroke: #ddd; stroke-width: 1; opacity: 1;"></line><line transform="translate(161,0)" x2="0" y2="-80" style="fill: none; stroke: #ddd; stroke-width: 1; opacity: 1;"></line><line transform="translate(214,0)" x2="0" y2="-80" style="fill: none; stroke: #ddd; stroke-width: 1; opacity: 1;"></line><line transform="translate(268,0)" x2="0" y2="-80" style="fill: none; stroke: #ddd; stroke-width: 1; opacity: 1;"></line></g></g><path class="foreground" d="" style="pointer-events: none; display: none; fill: none;"></path></g></g><g class="mark-rect role-mark child_layer_0_marks"><path d="M0,1h198.6842105263158v18h-198.6842105263158Z" style="fill: #4c78a8;"></path><path d="M0,21h290.5844155844156v18h-290.5844155844156Z" style="fill: #f58518;"></path><path d="M0,41h72.32142857142857v18h-72.32142857142857Z" style="fill: #e45756;"></path><path d="M0,61h10.714285714285714v18h-10.714285714285714Z" style="fill: #72b7b2;"></path></g><g class="mark-text role-mark child_layer_1_marks"><text text-anchor="end" transform="translate(193.6842105263158,14)" style="font-family: sans-serif; font-size: 12px; fill: white;">18.5</text><text text-anchor="end" transform="translate(285.5844155844156,34)" style="font-family: sans-serif; font-size: 12px; fill: white;">27.1</text><text text-anchor="end" transform="translate(67.32142857142857,54)" style="font-family: sans-serif; font-size: 12px; fill: white;">6.8</text><text text-anchor="end" transform="translate(5.7142857142857135,74)" style="font-family: sans-serif; font-size: 12px; fill: white;">1.0</text></g><g class="mark-group role-title"><g transform="translate(150,-24)"><path class="background" d="M0,0h0v0h0Z" style="pointer-events: none; fill: none;"></path><g><g class="mark-text role-title-text" style="pointer-events: none;"><text text-anchor="middle" transform="translate(0,11)" style="font-family: sans-serif; font-size: 14px; fill: #000; opacity: 1;">may 16, 2020</text></g></g><path class="foreground" d="" style="pointer-events: none; display: none; fill: none;"></path></g></g></g><path class="foreground" d="" style="display: none; fill: none;"></path></g></g><g class="mark-group role-legend"><g transform="translate(0,516)"><path class="background" d="M0,0h453v14h-453Z" style="pointer-events: none; fill: none;"></path><g><g class="mark-group role-legend-entry"><g transform="translate(0,0)"><path class="background" d="M0,0h0v0h0Z" style="pointer-events: none; fill: none;"></path><g><g class="mark-group role-scope"><g transform="translate(0,0)"><path class="background" d="M0,0h173.6337890625v14h-173.6337890625Z" style="pointer-events: none; fill: none; opacity: 1;"></path><g><g class="mark-symbol role-legend-symbol" style="pointer-events: none;"><path transform="translate(7,7)" d="M-5,-5h10v10h-10Z" style="fill: #4c78a8; stroke-width: 1.5; opacity: 1;"></path></g><g class="mark-text role-legend-label" style="pointer-events: none;"><text text-anchor="start" transform="translate(18,11)" style="font-family: sans-serif; font-size: 14px; fill: #000; opacity: 1;">Confirmados y probables</text></g></g><path class="foreground" d="" style="pointer-events: none; display: none; fill: none;"></path></g><g transform="translate(184,0)"><path class="background" d="M0,0h97.365234375v14h-97.365234375Z" style="pointer-events: none; fill: none; opacity: 1;"></path><g><g class="mark-symbol role-legend-symbol" style="pointer-events: none;"><path transform="translate(7,7)" d="M-5,-5h10v10h-10Z" style="fill: #f58518; stroke-width: 1.5; opacity: 1;"></path></g><g class="mark-text role-legend-label" style="pointer-events: none;"><text text-anchor="start" transform="translate(18,11)" style="font-family: sans-serif; font-size: 14px; fill: #000; opacity: 1;">Confirmados</text></g></g><path class="foreground" d="" style="pointer-events: none; display: none; fill: none;"></path></g><g transform="translate(292,0)"><path class="background" d="M0,0h81.041015625v14h-81.041015625Z" style="pointer-events: none; fill: none; opacity: 1;"></path><g><g class="mark-symbol role-legend-symbol" style="pointer-events: none;"><path transform="translate(7,7)" d="M-5,-5h10v10h-10Z" style="fill: #e45756; stroke-width: 1.5; opacity: 1;"></path></g><g class="mark-text role-legend-label" style="pointer-events: none;"><text text-anchor="start" transform="translate(18,11)" style="font-family: sans-serif; font-size: 14px; fill: #000; opacity: 1;">Probables</text></g></g><path class="foreground" d="" style="pointer-events: none; display: none; fill: none;"></path></g><g transform="translate(384,0)"><path class="background" d="M0,0h68.572265625v14h-68.572265625Z" style="pointer-events: none; fill: none; opacity: 1;"></path><g><g class="mark-symbol role-legend-symbol" style="pointer-events: none;"><path transform="translate(7,7)" d="M-5,-5h10v10h-10Z" style="fill: #72b7b2; stroke-width: 1.5; opacity: 1;"></path></g><g class="mark-text role-legend-label" style="pointer-events: none;"><text text-anchor="start" transform="translate(18,11)" style="font-family: sans-serif; font-size: 14px; fill: #000; opacity: 1;">Muertes</text></g></g><path class="foreground" d="" style="pointer-events: none; display: none; fill: none;"></path></g></g></g><path class="foreground" d="" style="pointer-events: none; display: none; fill: none;"></path></g></g></g><path class="foreground" d="" style="pointer-events: none; display: none; fill: none;"></path></g></g></g><path class="foreground" d="" style="display: none; fill: none;"></path></g></g></g></svg>