<svg class="marks" width="645" height="327" viewBox="0 0 645 327" version="1.1" xmlns="http://www.w3.org/2000/svg" xmlns:xlink="http://www.w3.org/1999/xlink"><rect width="645" height="327" style="fill: white;"></rect><g transform="translate(47,30)"><g class="mark-group role-frame root"><g transform="translate(0,0)"><path class="background" d="M0,0h0v0h0Z" style="fill: none;"></path><g><g class="mark-group role-row-header row_header"><g transform="translate(-1,0)"><path class="background" d="M0,0h0v75h0Z" style="fill: none;"></path><g><g class="mark-group role-axis"><g transform="translate(0.5,0.5)"><path class="background" d="M0,0h0v0h0Z" style="pointer-events: none; fill: none;"></path><g><g class="mark-rule role-axis-tick" style="pointer-events: none;"><line transform="translate(0,75)" x2="-5" y2="0" style="fill: none; stroke: #888; stroke-width: 1; opacity: 1;"></line><line transform="translate(0,46)" x2="-5" y2="0" style="fill: none; stroke: #888; stroke-width: 1; opacity: 1;"></line><line transform="translate(0,17)" x2="-5" y2="0" style="fill: none; stroke: #888; stroke-width: 1; opacity: 1;"></line></g><g class="mark-text role-axis-label" style="pointer-events: none;"><text text-anchor="end" transform="translate(-7,79)" style="font-family: sans-serif; font-size: 14px; fill: #000; opacity: 1;">0</text><text text-anchor="end" transform="translate(-7,50.15384615384615)" style="font-family: sans-serif; font-size: 14px; fill: #000; opacity: 1;">10</text><text text-anchor="end" transform="translate(-7,21.307692307692303)" style="font-family: sans-serif; font-size: 14px; fill: #000; opacity: 1;">20</text></g><g class="mark-rule role-axis-domain" style="pointer-events: none;"><line transform="translate(0,75)" x2="0" y2="-75" style="fill: none; stroke: #888; stroke-width: 1; opacity: 1;"></line></g><g class="mark-text role-axis-title" style="pointer-events: none;"><text text-anchor="middle" transform="translate(-26.572265625,37.5) rotate(-90) translate(0,-3)" style="font-family: sans-serif; font-size: 14px; font-weight: bold; fill: #000; opacity: 1;">Rezago (días)</text></g></g><path class="foreground" d="" style="pointer-events: none; display: none; fill: none;"></path></g></g></g><path class="foreground" d="" style="display: none; fill: none;"></path></g><g transform="translate(-1,145)"><path class="background" d="M0,0h0v75h0Z" style="fill: none;"></path><g><g class="mark-group role-axis"><g transform="translate(0.5,0.5)"><path class="background" d="M0,0h0v0h0Z" style="pointer-events: none; fill: none;"></path><g><g class="mark-rule role-axis-tick" style="pointer-events: none;"><line transform="translate(0,75)" x2="-5" y2="0" style="fill: none; stroke: #888; stroke-width: 1; opacity: 1;"></line><line transform="translate(0,46)" x2="-5" y2="0" style="fill: none; stroke: #888; stroke-width: 1; opacity: 1;"></line><line transform="translate(0,17)" x2="-5" y2="0" style="fill: none; stroke: #888; stroke-width: 1; opacity: 1;"></line></g><g class="mark-text role-axis-label" style="pointer-events: none;"><text text-anchor="end" transform="translate(-7,79)" style="font-family: sans-serif; font-size: 14px; fill: #000; opacity: 1;">0</text><text text-anchor="end" transform="translate(-7,50.15384615384615)" style="font-family: sans-serif; font-size: 14px; fill: #000; opacity: 1;">10</text><text text-anchor="end" transform="translate(-7,21.307692307692303)" style="font-family: sans-serif; font-size: 14px; fill: #000; opacity: 1;">20</text></g><g class="mark-rule role-axis-domain" style="pointer-events: none;"><line transform="translate(0,75)" x2="0" y2="-75" style="fill: none; stroke: #888; stroke-width: 1; opacity: 1;"></line></g><g class="mark-text role-axis-title" style="pointer-events: none;"><text text-anchor="middle" transform="translate(-26.572265625,37.5) rotate(-90) translate(0,-3)" style="font-family: sans-serif; font-size: 14px; font-weight: bold; fill: #000; opacity: 1;">Rezago (días)</text></g></g><path class="foreground" d="" style="pointer-events: none; display: none; fill: none;"></path></g></g></g><path class="foreground" d="" style="display: none; fill: none;"></path></g></g><g class="mark-group role-column-footer column_footer"><g transform="translate(0,225)"><path class="background" d="M0,0h275v0h-275Z" style="fill: none;"></path><g><g class="mark-group role-axis"><g transform="translate(0.5,0.5)"><path class="background" d="M0,0h0v0h0Z" style="pointer-events: none; fill: none;"></path><g><g class="mark-rule role-axis-tick" style="pointer-events: none;"><line transform="translate(17,0)" x2="0" y2="5" style="fill: none; stroke: #888; stroke-width: 1; opacity: 1;"></line><line transform="translate(52,0)" x2="0" y2="5" style="fill: none; stroke: #888; stroke-width: 1; opacity: 1;"></line><line transform="translate(86,0)" x2="0" y2="5" style="fill: none; stroke: #888; stroke-width: 1; opacity: 1;"></line><line transform="translate(120,0)" x2="0" y2="5" style="fill: none; stroke: #888; stroke-width: 1; opacity: 1;"></line><line transform="translate(155,0)" x2="0" y2="5" style="fill: none; stroke: #888; stroke-width: 1; opacity: 1;"></line><line transform="translate(189,0)" x2="0" y2="5" style="fill: none; stroke: #888; stroke-width: 1; opacity: 1;"></line><line transform="translate(223,0)" x2="0" y2="5" style="fill: none; stroke: #888; stroke-width: 1; opacity: 1;"></line><line transform="translate(258,0)" x2="0" y2="5" style="fill: none; stroke: #888; stroke-width: 1; opacity: 1;"></line></g><g class="mark-text role-axis-label" style="pointer-events: none;"><text text-anchor="end" transform="translate(17.1875,7) rotate(270) translate(0,4)" style="font-family: sans-serif; font-size: 14px; fill: #000; opacity: 1;">17/05</text><text text-anchor="end" transform="translate(51.5625,7) rotate(270) translate(0,4)" style="font-family: sans-serif; font-size: 14px; fill: #000; opacity: 1;">18/05</text><text text-anchor="end" transform="translate(85.9375,7) rotate(270) translate(0,4)" style="font-family: sans-serif; font-size: 14px; fill: #000; opacity: 1;">19/05</text><text text-anchor="end" transform="translate(120.3125,7) rotate(270) translate(0,4)" style="font-family: sans-serif; font-size: 14px; fill: #000; opacity: 1;">20/05</text><text text-anchor="end" transform="translate(154.6875,7) rotate(270) translate(0,4)" style="font-family: sans-serif; font-size: 14px; fill: #000; opacity: 1;">21/05</text><text text-anchor="end" transform="translate(189.0625,7) rotate(270) translate(0,4)" style="font-family: sans-serif; font-size: 14px; fill: #000; opacity: 1;">22/05</text><text text-anchor="end" transform="translate(223.4375,7) rotate(270) translate(0,4)" style="font-family: sans-serif; font-size: 14px; fill: #000; opacity: 1;">23/05</text><text text-anchor="end" transform="translate(257.8125,7) rotate(270) translate(0,4)" style="font-family: sans-serif; font-size: 14px; fill: #000; opacity: 1;">24/05</text></g><g class="mark-rule role-axis-domain" style="pointer-events: none;"><line transform="translate(0,0)" x2="275" y2="0" style="fill: none; stroke: #888; stroke-width: 1; opacity: 1;"></line></g><g class="mark-text role-axis-title" style="pointer-events: none;"><text text-anchor="middle" transform="translate(137.5,63.0341796875)" style="font-family: sans-serif; font-size: 14px; font-weight: bold; fill: #000; opacity: 1;">Fecha boletín</text></g></g><path class="foreground" d="" style="pointer-events: none; display: none; fill: none;"></path></g></g></g><path class="foreground" d="" style="display: none; fill: none;"></path></g><g transform="translate(317,225)"><path class="background" d="M0,0h275v0h-275Z" style="fill: none;"></path><g><g class="mark-group role-axis"><g transform="translate(0.5,0.5)"><path class="background" d="M0,0h0v0h0Z" style="pointer-events: none; fill: none;"></path><g><g class="mark-rule role-axis-tick" style="pointer-events: none;"><line transform="translate(17,0)" x2="0" y2="5" style="fill: none; stroke: #888; stroke-width: 1; opacity: 1;"></line><line transform="translate(52,0)" x2="0" y2="5" style="fill: none; stroke: #888; stroke-width: 1; opacity: 1;"></line><line transform="translate(86,0)" x2="0" y2="5" style="fill: none; stroke: #888; stroke-width: 1; opacity: 1;"></line><line transform="translate(120,0)" x2="0" y2="5" style="fill: none; stroke: #888; stroke-width: 1; opacity: 1;"></line><line transform="translate(155,0)" x2="0" y2="5" style="fill: none; stroke: #888; stroke-width: 1; opacity: 1;"></line><line transform="translate(189,0)" x2="0" y2="5" style="fill: none; stroke: #888; stroke-width: 1; opacity: 1;"></line><line transform="translate(223,0)" x2="0" y2="5" style="fill: none; stroke: #888; stroke-width: 1; opacity: 1;"></line><line transform="translate(258,0)" x2="0" y2="5" style="fill: none; stroke: #888; stroke-width: 1; opacity: 1;"></line></g><g class="mark-text role-axis-label" style="pointer-events: none;"><text text-anchor="end" transform="translate(17.1875,7) rotate(270) translate(0,4)" style="font-family: sans-serif; font-size: 14px; fill: #000; opacity: 1;">17/05</text><text text-anchor="end" transform="translate(51.5625,7) rotate(270) translate(0,4)" style="font-family: sans-serif; font-size: 14px; fill: #000; opacity: 1;">18/05</text><text text-anchor="end" transform="translate(85.9375,7) rotate(270) translate(0,4)" style="font-family: sans-serif; font-size: 14px; fill: #000; opacity: 1;">19/05</text><text text-anchor="end" transform="translate(120.3125,7) rotate(270) translate(0,4)" style="font-family: sans-serif; font-size: 14px; fill: #000; opacity: 1;">20/05</text><text text-anchor="end" transform="translate(154.6875,7) rotate(270) translate(0,4)" style="font-family: sans-serif; font-size: 14px; fill: #000; opacity: 1;">21/05</text><text text-anchor="end" transform="translate(189.0625,7) rotate(270) translate(0,4)" style="font-family: sans-serif; font-size: 14px; fill: #000; opacity: 1;">22/05</text><text text-anchor="end" transform="translate(223.4375,7) rotate(270) translate(0,4)" style="font-family: sans-serif; font-size: 14px; fill: #000; opacity: 1;">23/05</text><text text-anchor="end" transform="translate(257.8125,7) rotate(270) translate(0,4)" style="font-family: sans-serif; font-size: 14px; fill: #000; opacity: 1;">24/05</text></g><g class="mark-rule role-axis-domain" style="pointer-events: none;"><line transform="translate(0,0)" x2="275" y2="0" style="fill: none; stroke: #888; stroke-width: 1; opacity: 1;"></line></g><g class="mark-text role-axis-title" style="pointer-events: none;"><text text-anchor="middle" transform="translate(137.5,63.0341796875)" style="font-family: sans-serif; font-size: 14px; font-weight: bold; fill: #000; opacity: 1;">Fecha boletín</text></g></g><path class="foreground" d="" style="pointer-events: none; display: none; fill: none;"></path></g></g></g><path class="foreground" d="" style="display: none; fill: none;"></path></g></g><g class="mark-group role-scope cell"><g transform="translate(0,0)"><path class="background" d="M0.5,0.5h275v75h-275Z" style="fill: none; stroke: #ddd;"></path><g><g class="mark-group role-axis"><g transform="translate(0.5,0.5)"><path class="background" d="M0,0h0v0h0Z" style="pointer-events: none; fill: none;"></path><g><g class="mark-rule role-axis-grid" style="pointer-events: none;"><line transform="translate(0,75)" x2="275" y2="0" style="fill: none; stroke: #ddd; stroke-width: 1; opacity: 1;"></line><line transform="translate(0,46)" x2="275" y2="0" style="fill: none; stroke: #ddd; stroke-width: 1; opacity: 1;"></line><line transform="translate(0,17)" x2="275" y2="0" style="fill: none; stroke: #ddd; stroke-width: 1; opacity: 1;"></line></g></g><path class="foreground" d="" style="pointer-events: none; display: none; fill: none;"></path></g></g><g class="mark-group role-scope child_layer_0_layer_0_pathgroup"><g transform="translate(0,0)"><path class="background" d="M0,0h275v75h-275Z" style="fill: none;"></path><g><g class="mark-line role-mark child_layer_0_layer_0_marks"><path d="M17.1875,37.31971153846154L51.5625,38.54648640832851L85.9375,39.20732536015221L120.3125,38.07580500894454L154.6875,39.01937756899589L189.0625,42.17948717948718L223.4375,45.133369257712516L257.8125,47.953690491633154" style="fill: none; stroke: #4c78a8; stroke-width: 3;"></path></g></g><path class="foreground" d="" style="display: none; fill: none;"></path></g></g><g class="mark-symbol role-mark child_layer_0_layer_1_marks"><path transform="translate(17.1875,37.31971153846154)" d="M3.5355339059327378,0A3.5355339059327378,3.5355339059327378,0,1,1,-3.5355339059327378,0A3.5355339059327378,3.5355339059327378,0,1,1,3.5355339059327378,0" style="fill: #4c78a8; stroke-width: 2; opacity: 1;"></path><path transform="translate(51.5625,38.54648640832851)" d="M3.5355339059327378,0A3.5355339059327378,3.5355339059327378,0,1,1,-3.5355339059327378,0A3.5355339059327378,3.5355339059327378,0,1,1,3.5355339059327378,0" style="fill: #4c78a8; stroke-width: 2; opacity: 1;"></path><path transform="translate(85.9375,39.20732536015221)" d="M3.5355339059327378,0A3.5355339059327378,3.5355339059327378,0,1,1,-3.5355339059327378,0A3.5355339059327378,3.5355339059327378,0,1,1,3.5355339059327378,0" style="fill: #4c78a8; stroke-width: 2; opacity: 1;"></path><path transform="translate(120.3125,38.07580500894454)" d="M3.5355339059327378,0A3.5355339059327378,3.5355339059327378,0,1,1,-3.5355339059327378,0A3.5355339059327378,3.5355339059327378,0,1,1,3.5355339059327378,0" style="fill: #4c78a8; stroke-width: 2; opacity: 1;"></path><path transform="translate(154.6875,39.01937756899589)" d="M3.5355339059327378,0A3.5355339059327378,3.5355339059327378,0,1,1,-3.5355339059327378,0A3.5355339059327378,3.5355339059327378,0,1,1,3.5355339059327378,0" style="fill: #4c78a8; stroke-width: 2; opacity: 1;"></path><path transform="translate(189.0625,42.17948717948718)" d="M3.5355339059327378,0A3.5355339059327378,3.5355339059327378,0,1,1,-3.5355339059327378,0A3.5355339059327378,3.5355339059327378,0,1,1,3.5355339059327378,0" style="fill: #4c78a8; stroke-width: 2; opacity: 1;"></path><path transform="translate(223.4375,45.133369257712516)" d="M3.5355339059327378,0A3.5355339059327378,3.5355339059327378,0,1,1,-3.5355339059327378,0A3.5355339059327378,3.5355339059327378,0,1,1,3.5355339059327378,0" style="fill: #4c78a8; stroke-width: 2; opacity: 1;"></path><path transform="translate(257.8125,47.953690491633154)" d="M3.5355339059327378,0A3.5355339059327378,3.5355339059327378,0,1,1,-3.5355339059327378,0A3.5355339059327378,3.5355339059327378,0,1,1,3.5355339059327378,0" style="fill: #4c78a8; stroke-width: 2; opacity: 1;"></path></g><g class="mark-text role-mark child_layer_1_marks"><text text-anchor="middle" transform="translate(17.1875,60.31971153846154)" style="font-family: sans-serif; font-size: 15px; fill: #4c78a8;">13.1</text><text text-anchor="middle" transform="translate(51.5625,61.54648640832851)" style="font-family: sans-serif; font-size: 15px; fill: #4c78a8;">12.6</text><text text-anchor="middle" transform="translate(85.9375,62.20732536015221)" style="font-family: sans-serif; font-size: 15px; fill: #4c78a8;">12.4</text><text text-anchor="middle" transform="translate(120.3125,61.07580500894454)" style="font-family: sans-serif; font-size: 15px; fill: #4c78a8;">12.8</text><text text-anchor="middle" transform="translate(154.6875,62.01937756899589)" style="font-family: sans-serif; font-size: 15px; fill: #4c78a8;">12.5</text><text text-anchor="middle" transform="translate(189.0625,65.17948717948718)" style="font-family: sans-serif; font-size: 15px; fill: #4c78a8;">11.4</text><text text-anchor="middle" transform="translate(223.4375,68.13336925771252)" style="font-family: sans-serif; font-size: 15px; fill: #4c78a8;">10.4</text><text text-anchor="middle" transform="translate(257.8125,70.95369049163315)" style="font-family: sans-serif; font-size: 15px; fill: #4c78a8;">9.4</text></g><g class="mark-group role-title"><g transform="translate(137.5,-24)"><path class="background" d="M0,0h0v0h0Z" style="pointer-events: none; fill: none;"></path><g><g class="mark-text role-title-text" style="pointer-events: none;"><text text-anchor="middle" transform="translate(0,11)" style="font-family: sans-serif; font-size: 14px; fill: #000; opacity: 1;">Confirmados y probables</text></g></g><path class="foreground" d="" style="pointer-events: none; display: none; fill: none;"></path></g></g></g><path class="foreground" d="" style="display: none; fill: none;"></path></g><g transform="translate(317,0)"><path class="background" d="M0.5,0.5h275v75h-275Z" style="fill: none; stroke: #ddd;"></path><g><g class="mark-group role-axis"><g transform="translate(0.5,0.5)"><path class="background" d="M0,0h0v0h0Z" style="pointer-events: none; fill: none;"></path><g><g class="mark-rule role-axis-grid" style="pointer-events: none;"><line transform="translate(0,75)" x2="275" y2="0" style="fill: none; stroke: #ddd; stroke-width: 1; opacity: 1;"></line><line transform="translate(0,46)" x2="275" y2="0" style="fill: none; stroke: #ddd; stroke-width: 1; opacity: 1;"></line><line transform="translate(0,17)" x2="275" y2="0" style="fill: none; stroke: #ddd; stroke-width: 1; opacity: 1;"></line></g></g><path class="foreground" d="" style="pointer-events: none; display: none; fill: none;"></path></g></g><g class="mark-group role-scope child_layer_0_layer_0_pathgroup"><g transform="translate(0,0)"><path class="background" d="M0,0h275v75h-275Z" style="fill: none;"></path><g><g class="mark-line role-mark child_layer_0_layer_0_marks"><path d="M17.1875,10.25232729054385L51.5625,10.427615862398468L85.9375,10.014513788098697L120.3125,9.950097370983446L154.6875,5.450799200799198L189.0625,9.380504991192012L223.4375,13.628335949764518L257.8125,11.156674208144798" style="fill: none; stroke: #f58518; stroke-width: 3;"></path></g></g><path class="foreground" d="" style="display: none; fill: none;"></path></g></g><g class="mark-symbol role-mark child_layer_0_layer_1_marks"><path transform="translate(17.1875,10.25232729054385)" d="M3.5355339059327378,0A3.5355339059327378,3.5355339059327378,0,1,1,-3.5355339059327378,0A3.5355339059327378,3.5355339059327378,0,1,1,3.5355339059327378,0" style="fill: #f58518; stroke-width: 2; opacity: 1;"></path><path transform="translate(51.5625,10.427615862398468)" d="M3.5355339059327378,0A3.5355339059327378,3.5355339059327378,0,1,1,-3.5355339059327378,0A3.5355339059327378,3.5355339059327378,0,1,1,3.5355339059327378,0" style="fill: #f58518; stroke-width: 2; opacity: 1;"></path><path transform="translate(85.9375,10.014513788098697)" d="M3.5355339059327378,0A3.5355339059327378,3.5355339059327378,0,1,1,-3.5355339059327378,0A3.5355339059327378,3.5355339059327378,0,1,1,3.5355339059327378,0" style="fill: #f58518; stroke-width: 2; opacity: 1;"></path><path transform="translate(120.3125,9.950097370983446)" d="M3.5355339059327378,0A3.5355339059327378,3.5355339059327378,0,1,1,-3.5355339059327378,0A3.5355339059327378,3.5355339059327378,0,1,1,3.5355339059327378,0" style="fill: #f58518; stroke-width: 2; opacity: 1;"></path><path transform="translate(154.6875,5.450799200799198)" d="M3.5355339059327378,0A3.5355339059327378,3.5355339059327378,0,1,1,-3.5355339059327378,0A3.5355339059327378,3.5355339059327378,0,1,1,3.5355339059327378,0" style="fill: #f58518; stroke-width: 2; opacity: 1;"></path><path transform="translate(189.0625,9.380504991192012)" d="M3.5355339059327378,0A3.5355339059327378,3.5355339059327378,0,1,1,-3.5355339059327378,0A3.5355339059327378,3.5355339059327378,0,1,1,3.5355339059327378,0" style="fill: #f58518; stroke-width: 2; opacity: 1;"></path><path transform="translate(223.4375,13.628335949764518)" d="M3.5355339059327378,0A3.5355339059327378,3.5355339059327378,0,1,1,-3.5355339059327378,0A3.5355339059327378,3.5355339059327378,0,1,1,3.5355339059327378,0" style="fill: #f58518; stroke-width: 2; opacity: 1;"></path><path transform="translate(257.8125,11.156674208144798)" d="M3.5355339059327378,0A3.5355339059327378,3.5355339059327378,0,1,1,-3.5355339059327378,0A3.5355339059327378,3.5355339059327378,0,1,1,3.5355339059327378,0" style="fill: #f58518; stroke-width: 2; opacity: 1;"></path></g><g class="mark-text role-mark child_layer_1_marks"><text text-anchor="middle" transform="translate(17.1875,33.252327290543846)" style="font-family: sans-serif; font-size: 15px; fill: #f58518;">22.4</text><text text-anchor="middle" transform="translate(51.5625,33.42761586239847)" style="font-family: sans-serif; font-size: 15px; fill: #f58518;">22.4</text><text text-anchor="middle" transform="translate(85.9375,33.0145137880987)" style="font-family: sans-serif; font-size: 15px; fill: #f58518;">22.5</text><text text-anchor="middle" transform="translate(120.3125,32.95009737098344)" style="font-family: sans-serif; font-size: 15px; fill: #f58518;">22.6</text><text text-anchor="middle" transform="translate(154.6875,28.450799200799196)" style="font-family: sans-serif; font-size: 15px; fill: #f58518;">24.1</text><text text-anchor="middle" transform="translate(189.0625,32.38050499119201)" style="font-family: sans-serif; font-size: 15px; fill: #f58518;">22.7</text><text text-anchor="middle" transform="translate(223.4375,36.62833594976452)" style="font-family: sans-serif; font-size: 15px; fill: #f58518;">21.3</text><text text-anchor="middle" transform="translate(257.8125,34.1566742081448)" style="font-family: sans-serif; font-size: 15px; fill: #f58518;">22.1</text></g><g class="mark-group role-title"><g transform="translate(137.5,-24)"><path class="background" d="M0,0h0v0h0Z" style="pointer-events: none; fill: none;"></path><g><g class="mark-text role-title-text" style="pointer-events: none;"><text text-anchor="middle" transform="translate(0,11)" style="font-family: sans-serif; font-size: 14px; fill: #000; opacity: 1;">Confirmados</text></g></g><path class="foreground" d="" style="pointer-events: none; display: none; fill: none;"></path></g></g></g><path class="foreground" d="" style="display: none; fill: none;"></path></g><g transform="translate(0,145)"><path class="background" d="M0.5,0.5h275v75h-275Z" style="fill: none; stroke: #ddd;"></path><g><g class="mark-group role-axis"><g transform="translate(0.5,0.5)"><path class="background" d="M0,0h0v0h0Z" style="pointer-events: none; fill: none;"></path><g><g class="mark-rule role-axis-grid" style="pointer-events: none;"><line transform="translate(0,75)" x2="275" y2="0" style="fill: none; stroke: #ddd; stroke-width: 1; opacity: 1;"></line><line transform="translate(0,46)" x2="275" y2="0" style="fill: none; stroke: #ddd; stroke-width: 1; opacity: 1;"></line><line transform="translate(0,17)" x2="275" y2="0" style="fill: none; stroke: #ddd; stroke-width: 1; opacity: 1;"></line></g></g><path class="foreground" d="" style="pointer-events: none; display: none; fill: none;"></path></g></g><g class="mark-group role-scope child_layer_0_layer_0_pathgroup"><g transform="translate(0,0)"><path class="background" d="M0,0h275v75h-275Z" style="fill: none;"></path><g><g class="mark-line role-mark child_layer_0_layer_0_marks"><path d="M17.1875,50.08501407129456L51.5625,50.40405073649754L85.9375,50.29873039581777L120.3125,50.36858974358974L154.6875,52.24701768819416L189.0625,51.846617238183505L223.4375,50.947486751244575L257.8125,52.05863215731637" style="fill: none; stroke: #e45756; stroke-width: 3;"></path></g></g><path class="foreground" d="" style="display: none; fill: none;"></path></g></g><g class="mark-symbol role-mark child_layer_0_layer_1_marks"><path transform="translate(17.1875,50.08501407129456)" d="M3.5355339059327378,0A3.5355339059327378,3.5355339059327378,0,1,1,-3.5355339059327378,0A3.5355339059327378,3.5355339059327378,0,1,1,3.5355339059327378,0" style="fill: #e45756; stroke-width: 2; opacity: 1;"></path><path transform="translate(51.5625,50.40405073649754)" d="M3.5355339059327378,0A3.5355339059327378,3.5355339059327378,0,1,1,-3.5355339059327378,0A3.5355339059327378,3.5355339059327378,0,1,1,3.5355339059327378,0" style="fill: #e45756; stroke-width: 2; opacity: 1;"></path><path transform="translate(85.9375,50.29873039581777)" d="M3.5355339059327378,0A3.5355339059327378,3.5355339059327378,0,1,1,-3.5355339059327378,0A3.5355339059327378,3.5355339059327378,0,1,1,3.5355339059327378,0" style="fill: #e45756; stroke-width: 2; opacity: 1;"></path><path transform="translate(120.3125,50.36858974358974)" d="M3.5355339059327378,0A3.5355339059327378,3.5355339059327378,0,1,1,-3.5355339059327378,0A3.5355339059327378,3.5355339059327378,0,1,1,3.5355339059327378,0" style="fill: #e45756; stroke-width: 2; opacity: 1;"></path><path transform="translate(154.6875,52.24701768819416)" d="M3.5355339059327378,0A3.5355339059327378,3.5355339059327378,0,1,1,-3.5355339059327378,0A3.5355339059327378,3.5355339059327378,0,1,1,3.5355339059327378,0" style="fill: #e45756; stroke-width: 2; opacity: 1;"></path><path transform="translate(189.0625,51.846617238183505)" d="M3.5355339059327378,0A3.5355339059327378,3.5355339059327378,0,1,1,-3.5355339059327378,0A3.5355339059327378,3.5355339059327378,0,1,1,3.5355339059327378,0" style="fill: #e45756; stroke-width: 2; opacity: 1;"></path><path transform="translate(223.4375,50.947486751244575)" d="M3.5355339059327378,0A3.5355339059327378,3.5355339059327378,0,1,1,-3.5355339059327378,0A3.5355339059327378,3.5355339059327378,0,1,1,3.5355339059327378,0" style="fill: #e45756; stroke-width: 2; opacity: 1;"></path><path transform="translate(257.8125,52.05863215731637)" d="M3.5355339059327378,0A3.5355339059327378,3.5355339059327378,0,1,1,-3.5355339059327378,0A3.5355339059327378,3.5355339059327378,0,1,1,3.5355339059327378,0" style="fill: #e45756; stroke-width: 2; opacity: 1;"></path></g><g class="mark-text role-mark child_layer_1_marks"><text text-anchor="middle" transform="translate(17.1875,73.08501407129455)" style="font-family: sans-serif; font-size: 15px; fill: #e45756;">8.6</text><text text-anchor="middle" transform="translate(51.5625,73.40405073649754)" style="font-family: sans-serif; font-size: 15px; fill: #e45756;">8.5</text><text text-anchor="middle" transform="translate(85.9375,73.29873039581777)" style="font-family: sans-serif; font-size: 15px; fill: #e45756;">8.6</text><text text-anchor="middle" transform="translate(120.3125,73.36858974358974)" style="font-family: sans-serif; font-size: 15px; fill: #e45756;">8.5</text><text text-anchor="middle" transform="translate(154.6875,75.24701768819416)" style="font-family: sans-serif; font-size: 15px; fill: #e45756;">7.9</text><text text-anchor="middle" transform="translate(189.0625,74.84661723818351)" style="font-family: sans-serif; font-size: 15px; fill: #e45756;">8.0</text><text text-anchor="middle" transform="translate(223.4375,73.94748675124458)" style="font-family: sans-serif; font-size: 15px; fill: #e45756;">8.3</text><text text-anchor="middle" transform="translate(257.8125,75.05863215731637)" style="font-family: sans-serif; font-size: 15px; fill: #e45756;">8.0</text></g><g class="mark-group role-title"><g transform="translate(137.5,-24)"><path class="background" d="M0,0h0v0h0Z" style="pointer-events: none; fill: none;"></path><g><g class="mark-text role-title-text" style="pointer-events: none;"><text text-anchor="middle" transform="translate(0,11)" style="font-family: sans-serif; font-size: 14px; fill: #000; opacity: 1;">Probables</text></g></g><path class="foreground" d="" style="pointer-events: none; display: none; fill: none;"></path></g></g></g><path class="foreground" d="" style="display: none; fill: none;"></path></g><g transform="translate(317,145)"><path class="background" d="M0.5,0.5h275v75h-275Z" style="fill: none; stroke: #ddd;"></path><g><g class="mark-group role-axis"><g transform="translate(0.5,0.5)"><path class="background" d="M0,0h0v0h0Z" style="pointer-events: none; fill: none;"></path><g><g class="mark-rule role-axis-grid" style="pointer-events: none;"><line transform="translate(0,75)" x2="275" y2="0" style="fill: none; stroke: #ddd; stroke-width: 1; opacity: 1;"></line><line transform="translate(0,46)" x2="275" y2="0" style="fill: none; stroke: #ddd; stroke-width: 1; opacity: 1;"></line><line transform="translate(0,17)" x2="275" y2="0" style="fill: none; stroke: #ddd; stroke-width: 1; opacity: 1;"></line></g></g><path class="foreground" d="" style="pointer-events: none; display: none; fill: none;"></path></g></g><g class="mark-group role-scope child_layer_0_layer_0_pathgroup"><g transform="translate(0,0)"><path class="background" d="M0,0h275v75h-275Z" style="fill: none;"></path><g><g class="mark-line role-mark child_layer_0_layer_0_marks"><path d="M17.1875,39.33566433566433L51.5625,36.05769230769231L85.9375,33.75L120.3125,44.87179487179487L154.6875,46.875L189.0625,51.34615384615385L223.4375,46.15384615384615L257.8125,51.92307692307692" style="fill: none; stroke: #72b7b2; stroke-width: 3;"></path></g></g><path class="foreground" d="" style="display: none; fill: none;"></path></g></g><g class="mark-symbol role-mark child_layer_0_layer_1_marks"><path transform="translate(17.1875,39.33566433566433)" d="M3.5355339059327378,0A3.5355339059327378,3.5355339059327378,0,1,1,-3.5355339059327378,0A3.5355339059327378,3.5355339059327378,0,1,1,3.5355339059327378,0" style="fill: #72b7b2; stroke-width: 2; opacity: 1;"></path><path transform="translate(51.5625,36.05769230769231)" d="M3.5355339059327378,0A3.5355339059327378,3.5355339059327378,0,1,1,-3.5355339059327378,0A3.5355339059327378,3.5355339059327378,0,1,1,3.5355339059327378,0" style="fill: #72b7b2; stroke-width: 2; opacity: 1;"></path><path transform="translate(85.9375,33.75)" d="M3.5355339059327378,0A3.5355339059327378,3.5355339059327378,0,1,1,-3.5355339059327378,0A3.5355339059327378,3.5355339059327378,0,1,1,3.5355339059327378,0" style="fill: #72b7b2; stroke-width: 2; opacity: 1;"></path><path transform="translate(120.3125,44.87179487179487)" d="M3.5355339059327378,0A3.5355339059327378,3.5355339059327378,0,1,1,-3.5355339059327378,0A3.5355339059327378,3.5355339059327378,0,1,1,3.5355339059327378,0" style="fill: #72b7b2; stroke-width: 2; opacity: 1;"></path><path transform="translate(154.6875,46.875)" d="M3.5355339059327378,0A3.5355339059327378,3.5355339059327378,0,1,1,-3.5355339059327378,0A3.5355339059327378,3.5355339059327378,0,1,1,3.5355339059327378,0" style="fill: #72b7b2; stroke-width: 2; opacity: 1;"></path><path transform="translate(189.0625,51.34615384615385)" d="M3.5355339059327378,0A3.5355339059327378,3.5355339059327378,0,1,1,-3.5355339059327378,0A3.5355339059327378,3.5355339059327378,0,1,1,3.5355339059327378,0" style="fill: #72b7b2; stroke-width: 2; opacity: 1;"></path><path transform="translate(223.4375,46.15384615384615)" d="M3.5355339059327378,0A3.5355339059327378,3.5355339059327378,0,1,1,-3.5355339059327378,0A3.5355339059327378,3.5355339059327378,0,1,1,3.5355339059327378,0" style="fill: #72b7b2; stroke-width: 2; opacity: 1;"></path><path transform="translate(257.8125,51.92307692307692)" d="M3.5355339059327378,0A3.5355339059327378,3.5355339059327378,0,1,1,-3.5355339059327378,0A3.5355339059327378,3.5355339059327378,0,1,1,3.5355339059327378,0" style="fill: #72b7b2; stroke-width: 2; opacity: 1;"></path></g><g class="mark-text role-mark child_layer_1_marks"><text text-anchor="middle" transform="translate(17.1875,62.33566433566433)" style="font-family: sans-serif; font-size: 15px; fill: #72b7b2;">12.4</text><text text-anchor="middle" transform="translate(51.5625,59.05769230769231)" style="font-family: sans-serif; font-size: 15px; fill: #72b7b2;">13.5</text><text text-anchor="middle" transform="translate(85.9375,56.75)" style="font-family: sans-serif; font-size: 15px; fill: #72b7b2;">14.3</text><text text-anchor="middle" transform="translate(120.3125,67.87179487179486)" style="font-family: sans-serif; font-size: 15px; fill: #72b7b2;">10.4</text><text text-anchor="middle" transform="translate(154.6875,69.875)" style="font-family: sans-serif; font-size: 15px; fill: #72b7b2;">9.8</text><text text-anchor="middle" transform="translate(189.0625,74.34615384615384)" style="font-family: sans-serif; font-size: 15px; fill: #72b7b2;">8.2</text><text text-anchor="middle" transform="translate(223.4375,69.15384615384616)" style="font-family: sans-serif; font-size: 15px; fill: #72b7b2;">10.0</text><text text-anchor="middle" transform="translate(257.8125,74.92307692307692)" style="font-family: sans-serif; font-size: 15px; fill: #72b7b2;">8.0</text></g><g class="mark-group role-title"><g transform="translate(137.5,-24)"><path class="background" d="M0,0h0v0h0Z" style="pointer-events: none; fill: none;"></path><g><g class="mark-text role-title-text" style="pointer-events: none;"><text text-anchor="middle" transform="translate(0,11)" style="font-family: sans-serif; font-size: 14px; fill: #000; opacity: 1;">Muertes</text></g></g><path class="foreground" d="" style="pointer-events: none; display: none; fill: none;"></path></g></g></g><path class="foreground" d="" style="display: none; fill: none;"></path></g></g></g><path class="foreground" d="" style="display: none; fill: none;"></path></g></g></g></svg>