<svg class="marks" width="644" height="463" viewBox="0 0 644 463" version="1.1" xmlns="http://www.w3.org/2000/svg" xmlns:xlink="http://www.w3.org/1999/xlink"><rect width="644" height="463" style="fill: white;"></rect><g transform="translate(36,37)"><g class="mark-group role-frame root"><g transform="translate(0,0)"><path class="background" d="M0.5,0.5h600v400h-600Z" style="fill: none; stroke: #ddd;"></path><g><g class="mark-group role-axis"><g transform="translate(0.5,400.5)"><path class="background" d="M0,0h0v0h0Z" style="pointer-events: none; fill: none;"></path><g><g class="mark-rule role-axis-grid" style="pointer-events: none;"><line transform="translate(54,-400)" x2="0" y2="400" style="fill: none; stroke: #ddd; stroke-width: 1; opacity: 1;"></line><line transform="translate(116,-400)" x2="0" y2="400" style="fill: none; stroke: #ddd; stroke-width: 1; opacity: 1;"></line><line transform="translate(179,-400)" x2="0" y2="400" style="fill: none; stroke: #ddd; stroke-width: 1; opacity: 1;"></line><line transform="translate(242,-400)" x2="0" y2="400" style="fill: none; stroke: #ddd; stroke-width: 1; opacity: 1;"></line><line transform="translate(304,-400)" x2="0" y2="400" style="fill: none; stroke: #ddd; stroke-width: 1; opacity: 1;"></line><line transform="translate(367,-400)" x2="0" y2="400" style="fill: none; stroke: #ddd; stroke-width: 1; opacity: 1;"></line><line transform="translate(430,-400)" x2="0" y2="400" style="fill: none; stroke: #ddd; stroke-width: 1; opacity: 1;"></line><line transform="translate(493,-400)" x2="0" y2="400" style="fill: none; stroke: #ddd; stroke-width: 1; opacity: 1;"></line><line transform="translate(555,-400)" x2="0" y2="400" style="fill: none; stroke: #ddd; stroke-width: 1; opacity: 1;"></line></g></g><path class="foreground" d="" style="pointer-events: none; display: none; fill: none;"></path></g></g><g class="mark-group role-axis"><g transform="translate(0.5,0.5)"><path class="background" d="M0,0h0v0h0Z" style="pointer-events: none; fill: none;"></path><g><g class="mark-rule role-axis-grid" style="pointer-events: none;"><line transform="translate(0,400)" x2="600" y2="0" style="fill: none; stroke: #ddd; stroke-width: 1; opacity: 1;"></line><line transform="translate(0,360)" x2="600" y2="0" style="fill: none; stroke: #ddd; stroke-width: 1; opacity: 1;"></line><line transform="translate(0,336)" x2="600" y2="0" style="fill: none; stroke: #ddd; stroke-width: 1; opacity: 1;"></line><line transform="translate(0,320)" x2="600" y2="0" style="fill: none; stroke: #ddd; stroke-width: 1; opacity: 1;"></line><line transform="translate(0,307)" x2="600" y2="0" style="fill: none; stroke: #ddd; stroke-width: 1; opacity: 1;"></line><line transform="translate(0,296)" x2="600" y2="0" style="fill: none; stroke: #ddd; stroke-width: 1; opacity: 1;"></line><line transform="translate(0,287)" x2="600" y2="0" style="fill: none; stroke: #ddd; stroke-width: 1; opacity: 1;"></line><line transform="translate(0,280)" x2="600" y2="0" style="fill: none; stroke: #ddd; stroke-width: 1; opacity: 1;"></line><line transform="translate(0,273)" x2="600" y2="0" style="fill: none; stroke: #ddd; stroke-width: 1; opacity: 1;"></line><line transform="translate(0,267)" x2="600" y2="0" style="fill: none; stroke: #ddd; stroke-width: 1; opacity: 1;"></line><line transform="translate(0,227)" x2="600" y2="0" style="fill: none; stroke: #ddd; stroke-width: 1; opacity: 1;"></line><line transform="translate(0,203)" x2="600" y2="0" style="fill: none; stroke: #ddd; stroke-width: 1; opacity: 1;"></line><line transform="translate(0,186)" x2="600" y2="0" style="fill: none; stroke: #ddd; stroke-width: 1; opacity: 1;"></line><line transform="translate(0,173)" x2="600" y2="0" style="fill: none; stroke: #ddd; stroke-width: 1; opacity: 1;"></line><line transform="translate(0,163)" x2="600" y2="0" style="fill: none; stroke: #ddd; stroke-width: 1; opacity: 1;"></line><line transform="translate(0,154)" x2="600" y2="0" style="fill: none; stroke: #ddd; stroke-width: 1; opacity: 1;"></line><line transform="translate(0,146)" x2="600" y2="0" style="fill: none; stroke: #ddd; stroke-width: 1; opacity: 1;"></line><line transform="translate(0,139)" x2="600" y2="0" style="fill: none; stroke: #ddd; stroke-width: 1; opacity: 1;"></line><line transform="translate(0,133)" x2="600" y2="0" style="fill: none; stroke: #ddd; stroke-width: 1; opacity: 1;"></line><line transform="translate(0,93)" x2="600" y2="0" style="fill: none; stroke: #ddd; stroke-width: 1; opacity: 1;"></line><line transform="translate(0,70)" x2="600" y2="0" style="fill: none; stroke: #ddd; stroke-width: 1; opacity: 1;"></line><line transform="translate(0,53)" x2="600" y2="0" style="fill: none; stroke: #ddd; stroke-width: 1; opacity: 1;"></line><line transform="translate(0,40)" x2="600" y2="0" style="fill: none; stroke: #ddd; stroke-width: 1; opacity: 1;"></line><line transform="translate(0,30)" x2="600" y2="0" style="fill: none; stroke: #ddd; stroke-width: 1; opacity: 1;"></line><line transform="translate(0,21)" x2="600" y2="0" style="fill: none; stroke: #ddd; stroke-width: 1; opacity: 1;"></line><line transform="translate(0,13)" x2="600" y2="0" style="fill: none; stroke: #ddd; stroke-width: 1; opacity: 1;"></line><line transform="translate(0,6)" x2="600" y2="0" style="fill: none; stroke: #ddd; stroke-width: 1; opacity: 1;"></line><line transform="translate(0,0)" x2="600" y2="0" style="fill: none; stroke: #ddd; stroke-width: 1; opacity: 1;"></line></g></g><path class="foreground" d="" style="pointer-events: none; display: none; fill: none;"></path></g></g><g class="mark-group role-axis"><g transform="translate(0.5,400.5)"><path class="background" d="M0,0h0v0h0Z" style="pointer-events: none; fill: none;"></path><g><g class="mark-rule role-axis-tick" style="pointer-events: none;"><line transform="translate(54,0)" x2="0" y2="5" style="fill: none; stroke: #888; stroke-width: 1; opacity: 1;"></line><line transform="translate(116,0)" x2="0" y2="5" style="fill: none; stroke: #888; stroke-width: 1; opacity: 1;"></line><line transform="translate(179,0)" x2="0" y2="5" style="fill: none; stroke: #888; stroke-width: 1; opacity: 1;"></line><line transform="translate(242,0)" x2="0" y2="5" style="fill: none; stroke: #888; stroke-width: 1; opacity: 1;"></line><line transform="translate(304,0)" x2="0" y2="5" style="fill: none; stroke: #888; stroke-width: 1; opacity: 1;"></line><line transform="translate(367,0)" x2="0" y2="5" style="fill: none; stroke: #888; stroke-width: 1; opacity: 1;"></line><line transform="translate(430,0)" x2="0" y2="5" style="fill: none; stroke: #888; stroke-width: 1; opacity: 1;"></line><line transform="translate(493,0)" x2="0" y2="5" style="fill: none; stroke: #888; stroke-width: 1; opacity: 1;"></line><line transform="translate(555,0)" x2="0" y2="5" style="fill: none; stroke: #888; stroke-width: 1; opacity: 1;"></line></g><g class="mark-text role-axis-label" style="pointer-events: none;"><text text-anchor="middle" transform="translate(53.731343283582085,18)" style="font-family: sans-serif; font-size: 14px; fill: #000; opacity: 1;">15/03</text><text text-anchor="middle" transform="translate(116.4179104477612,18)" style="font-family: sans-serif; font-size: 14px; fill: #000; opacity: 1;">22/03</text><text text-anchor="middle" transform="translate(179.1044776119403,18)" style="font-family: sans-serif; font-size: 14px; fill: #000; opacity: 1;">29/03</text><text text-anchor="middle" transform="translate(241.7910447761194,18)" style="font-family: sans-serif; font-size: 14px; fill: #000; opacity: 1;">05/04</text><text text-anchor="middle" transform="translate(304.4776119402985,18)" style="font-family: sans-serif; font-size: 14px; fill: #000; opacity: 1;">12/04</text><text text-anchor="middle" transform="translate(367.1641791044776,18)" style="font-family: sans-serif; font-size: 14px; fill: #000; opacity: 1;">19/04</text><text text-anchor="middle" transform="translate(429.8507462686567,18)" style="font-family: sans-serif; font-size: 14px; fill: #000; opacity: 1;">26/04</text><text text-anchor="middle" transform="translate(492.53731343283584,18)" style="font-family: sans-serif; font-size: 14px; fill: #000; opacity: 1;">03/05</text><text text-anchor="middle" transform="translate(555.223880597015,18)" style="font-family: sans-serif; font-size: 14px; fill: #000; opacity: 1;">10/05</text></g><g class="mark-rule role-axis-domain" style="pointer-events: none;"><line transform="translate(0,0)" x2="600" y2="0" style="fill: none; stroke: #888; stroke-width: 1; opacity: 1;"></line></g></g><path class="foreground" d="" style="pointer-events: none; display: none; fill: none;"></path></g></g><g class="mark-group role-axis"><g transform="translate(0.5,0.5)"><path class="background" d="M0,0h0v0h0Z" style="pointer-events: none; fill: none;"></path><g><g class="mark-rule role-axis-tick" style="pointer-events: none;"><line transform="translate(0,400)" x2="-5" y2="0" style="fill: none; stroke: #888; stroke-width: 1; opacity: 1;"></line><line transform="translate(0,360)" x2="-5" y2="0" style="fill: none; stroke: #888; stroke-width: 1; opacity: 1;"></line><line transform="translate(0,336)" x2="-5" y2="0" style="fill: none; stroke: #888; stroke-width: 1; opacity: 1;"></line><line transform="translate(0,320)" x2="-5" y2="0" style="fill: none; stroke: #888; stroke-width: 1; opacity: 1;"></line><line transform="translate(0,307)" x2="-5" y2="0" style="fill: none; stroke: #888; stroke-width: 1; opacity: 1;"></line><line transform="translate(0,296)" x2="-5" y2="0" style="fill: none; stroke: #888; stroke-width: 1; opacity: 1;"></line><line transform="translate(0,287)" x2="-5" y2="0" style="fill: none; stroke: #888; stroke-width: 1; opacity: 1;"></line><line transform="translate(0,280)" x2="-5" y2="0" style="fill: none; stroke: #888; stroke-width: 1; opacity: 1;"></line><line transform="translate(0,273)" x2="-5" y2="0" style="fill: none; stroke: #888; stroke-width: 1; opacity: 1;"></line><line transform="translate(0,267)" x2="-5" y2="0" style="fill: none; stroke: #888; stroke-width: 1; opacity: 1;"></line><line transform="translate(0,227)" x2="-5" y2="0" style="fill: none; stroke: #888; stroke-width: 1; opacity: 1;"></line><line transform="translate(0,203)" x2="-5" y2="0" style="fill: none; stroke: #888; stroke-width: 1; opacity: 1;"></line><line transform="translate(0,186)" x2="-5" y2="0" style="fill: none; stroke: #888; stroke-width: 1; opacity: 1;"></line><line transform="translate(0,173)" x2="-5" y2="0" style="fill: none; stroke: #888; stroke-width: 1; opacity: 1;"></line><line transform="translate(0,163)" x2="-5" y2="0" style="fill: none; stroke: #888; stroke-width: 1; opacity: 1;"></line><line transform="translate(0,154)" x2="-5" y2="0" style="fill: none; stroke: #888; stroke-width: 1; opacity: 1;"></line><line transform="translate(0,146)" x2="-5" y2="0" style="fill: none; stroke: #888; stroke-width: 1; opacity: 1;"></line><line transform="translate(0,139)" x2="-5" y2="0" style="fill: none; stroke: #888; stroke-width: 1; opacity: 1;"></line><line transform="translate(0,133)" x2="-5" y2="0" style="fill: none; stroke: #888; stroke-width: 1; opacity: 1;"></line><line transform="translate(0,93)" x2="-5" y2="0" style="fill: none; stroke: #888; stroke-width: 1; opacity: 1;"></line><line transform="translate(0,70)" x2="-5" y2="0" style="fill: none; stroke: #888; stroke-width: 1; opacity: 1;"></line><line transform="translate(0,53)" x2="-5" y2="0" style="fill: none; stroke: #888; stroke-width: 1; opacity: 1;"></line><line transform="translate(0,40)" x2="-5" y2="0" style="fill: none; stroke: #888; stroke-width: 1; opacity: 1;"></line><line transform="translate(0,30)" x2="-5" y2="0" style="fill: none; stroke: #888; stroke-width: 1; opacity: 1;"></line><line transform="translate(0,21)" x2="-5" y2="0" style="fill: none; stroke: #888; stroke-width: 1; opacity: 1;"></line><line transform="translate(0,13)" x2="-5" y2="0" style="fill: none; stroke: #888; stroke-width: 1; opacity: 1;"></line><line transform="translate(0,6)" x2="-5" y2="0" style="fill: none; stroke: #888; stroke-width: 1; opacity: 1;"></line><line transform="translate(0,0)" x2="-5" y2="0" style="fill: none; stroke: #888; stroke-width: 1; opacity: 1;"></line></g><g class="mark-text role-axis-label" style="pointer-events: none;"><text text-anchor="end" transform="translate(-7,404)" style="font-family: sans-serif; font-size: 14px; fill: #000; opacity: 1;">0.1</text><text text-anchor="end" transform="translate(-7,363.86266724480254)" style="font-family: sans-serif; font-size: 14px; fill: #000; opacity: 1;">0.2</text><text text-anchor="end" transform="translate(-7,340.383832704045)" style="font-family: sans-serif; font-size: 14px; fill: #000; opacity: 1;">0.3</text><text text-anchor="end" transform="translate(-7,323.725334489605)" style="font-family: sans-serif; font-size: 14px; fill: #000; opacity: 1;"></text><text text-anchor="end" transform="translate(-7,310.8039994218642)" style="font-family: sans-serif; font-size: 14px; fill: #000; opacity: 1;"></text><text text-anchor="end" transform="translate(-7,300.2464999488475)" style="font-family: sans-serif; font-size: 14px; fill: #000; opacity: 1;"></text><text text-anchor="end" transform="translate(-7,291.32026133143245)" style="font-family: sans-serif; font-size: 14px; fill: #000; opacity: 1;"></text><text text-anchor="end" transform="translate(-7,283.5880017344075)" style="font-family: sans-serif; font-size: 14px; fill: #000; opacity: 1;"></text><text text-anchor="end" transform="translate(-7,276.76766540809)" style="font-family: sans-serif; font-size: 14px; fill: #000; opacity: 1;"></text><text text-anchor="end" transform="translate(-7,270.6666666666667)" style="font-family: sans-serif; font-size: 14px; fill: #000; opacity: 1;">1</text><text text-anchor="end" transform="translate(-7,230.52933391146917)" style="font-family: sans-serif; font-size: 14px; fill: #000; opacity: 1;">2</text><text text-anchor="end" transform="translate(-7,207.05049937071172)" style="font-family: sans-serif; font-size: 14px; fill: #000; opacity: 1;">3</text><text text-anchor="end" transform="translate(-7,190.39200115627168)" style="font-family: sans-serif; font-size: 14px; fill: #000; opacity: 1;"></text><text text-anchor="end" transform="translate(-7,177.47066608853083)" style="font-family: sans-serif; font-size: 14px; fill: #000; opacity: 1;"></text><text text-anchor="end" transform="translate(-7,166.91316661551417)" style="font-family: sans-serif; font-size: 14px; fill: #000; opacity: 1;"></text><text text-anchor="end" transform="translate(-7,157.98692799809913)" style="font-family: sans-serif; font-size: 14px; fill: #000; opacity: 1;"></text><text text-anchor="end" transform="translate(-7,150.25466840107418)" style="font-family: sans-serif; font-size: 14px; fill: #000; opacity: 1;"></text><text text-anchor="end" transform="translate(-7,143.4343320747567)" style="font-family: sans-serif; font-size: 14px; fill: #000; opacity: 1;"></text><text text-anchor="end" transform="translate(-7,137.33333333333331)" style="font-family: sans-serif; font-size: 14px; fill: #000; opacity: 1;">10</text><text text-anchor="end" transform="translate(-7,97.19600057813587)" style="font-family: sans-serif; font-size: 14px; fill: #000; opacity: 1;">20</text><text text-anchor="end" transform="translate(-7,73.71716603737832)" style="font-family: sans-serif; font-size: 14px; fill: #000; opacity: 1;">30</text><text text-anchor="end" transform="translate(-7,57.05866782293833)" style="font-family: sans-serif; font-size: 14px; fill: #000; opacity: 1;"></text><text text-anchor="end" transform="translate(-7,44.137332755197484)" style="font-family: sans-serif; font-size: 14px; fill: #000; opacity: 1;"></text><text text-anchor="end" transform="translate(-7,33.579833282180836)" style="font-family: sans-serif; font-size: 14px; fill: #000; opacity: 1;"></text><text text-anchor="end" transform="translate(-7,24.653594664765727)" style="font-family: sans-serif; font-size: 14px; fill: #000; opacity: 1;"></text><text text-anchor="end" transform="translate(-7,16.92133506774089)" style="font-family: sans-serif; font-size: 14px; fill: #000; opacity: 1;"></text><text text-anchor="end" transform="translate(-7,10.10099874142338)" style="font-family: sans-serif; font-size: 14px; fill: #000; opacity: 1;"></text><text text-anchor="end" transform="translate(-7,4)" style="font-family: sans-serif; font-size: 14px; fill: #000; opacity: 1;">100</text></g><g class="mark-rule role-axis-domain" style="pointer-events: none;"><line transform="translate(0,400)" x2="0" y2="-400" style="fill: none; stroke: #888; stroke-width: 1; opacity: 1;"></line></g></g><path class="foreground" d="" style="pointer-events: none; display: none; fill: none;"></path></g></g><g class="mark-group role-scope layer_0_pathgroup"><g transform="translate(0,0)"><path class="background" d="M0,0h600v400h-600Z" style="fill: none;"></path><g><g class="mark-line role-mark layer_0_marks"><path d="M0,266.6666666666667L35.82089552238806,213.60799884372832L44.776119402985074,209.87083569702918L62.6865671641791,186.39200115627168L71.64179104477611,180.87297646850834L80.59701492537313,179.57166482995416L89.55223880597015,178.6597415592468L98.50746268656717,161.55061125795606L107.46268656716417,153.98692799809913L116.4179104477612,147.2980467360017L125.3731343283582,126.32945982984202L134.32835820895522,102.12223919555092L143.28358208955223,86.92979222130602L152.23880597014926,71.11255719446703L161.19402985074626,61.74413299191852L170.14925373134326,58.70190978590921L179.1044776119403,58.02198889106167L188.05970149253733,47.727955271609446L197.01492537313433,46.0547943194471L205.97014925373134,40.63580869645107L214.92537313432834,40.970525992131044L223.8805970149254,40.63580869645107L232.8358208955224,42.329085219055784L241.7910447761194,43.896559507010394L250.7462686567164,50.23342794694665L259.7014925373134,55.16457011403597L268.65671641791045,66.23909026214618L277.6119402985075,70.27129400686607L286.56716417910445,85.46374098111099L295.5223880597015,85.46374098111099L304.4776119402985,85.10295519765432L313.4328358208955,93.19600057813591L322.3880597014925,97.48729169432279L331.34328358208955,95.73243221992662L340.29850746268653,100.22351398026963L349.2537313432836,91.9682670065594L358.2089552238806,95.3019028692335L367.1641791044776,96.60321450778765L376.11940298507466,104.58669328808612L385.07462686567163,108.22323793697434L394.02985074626866,112.67973866856771L402.9850746268657,119.42773778257924L411.94029850746267,124.1712250174054L420.8955223880597,127.06712497650364L438.8059701492537,121.41327850275863L447.7611940298508,120.74383831941856L456.7164179104478,121.41327850275863L465.6716417910448,125.60107373630855L474.6268656716418,135.01188364106952L483.5820895522388,146.25466840107433L492.53731343283584,146.25466840107433L501.4925373134328,149.44295605512917L510.44776119402985,153.98692799809925L519.4029850746268,158.91807016518862L528.3582089552239,170.25284212630177L537.3134328358209,162.9131666155144L546.2686567164179,164.30855777260302" style="fill: none; stroke: #4c78a8; stroke-width: 3;"></path></g></g><path class="foreground" d="" style="display: none; fill: none;"></path></g><g transform="translate(0,0)"><path class="background" d="M0,0h600v400h-600Z" style="fill: none;"></path><g><g class="mark-line role-mark layer_0_marks"><path d="M152.23880597014926,96.16618653962283L161.19402985074626,82.63850110511922L188.05970149253733,103.75350005115247L197.01492537313433,111.81759970200335L205.97014925373134,117.25680917255335L214.92537313432834,121.18927075368902L223.8805970149254,121.41327850275854L232.8358208955224,134.1665265702669L241.7910447761194,164.30855777260288L250.7462686567164,147.29804673600177L259.7014925373134,130.9033573191735L268.65671641791045,113.2617127222276L277.6119402985075,107.68953894315109L286.56716417910445,111.53304910031193L295.5223880597015,110.4086267620635L304.4776119402985,109.30562329993157L313.4328358208955,102.60681048289678L322.3880597014925,91.56473972253427L331.34328358208955,88.05421455955438L340.29850746268653,78.96600120458181L349.2537313432836,68.62456888867547L358.2089552238806,65.98000289067923L367.1641791044776,66.23909026214618L376.11940298507466,61.50435653784343L385.07462686567163,57.57310345773394L394.02985074626866,50.62869180877847L402.9850746268657,44.42862387138433L411.94029850746267,37.233362845431905L420.8955223880597,36.76321738656148L429.8507462686567,36.142236304871744L438.8059701492537,32.11626492397159L447.7611940298508,31.116630934255298L456.7164179104478,35.83422530779519L465.6716417910448,38.99064318694183L474.6268656716418,41.645821469567856L483.5820895522388,41.81588306293356L492.53731343283584,41.645821469567856L501.4925373134328,39.97212313979097L510.44776119402985,39.97212313979097L519.4029850746268,36.76321738656148L528.3582089552239,36.6073466843146L537.3134328358209,39.479303731795845L546.2686567164179,41.476257861082914L555.223880597015,42.32908521905574L564.179104477612,58.247743293654295" style="fill: none; stroke: #f58518; stroke-width: 3;"></path></g></g><path class="foreground" d="" style="display: none; fill: none;"></path></g><g transform="translate(0,0)"><path class="background" d="M0,0h600v400h-600Z" style="fill: none;"></path><g><g class="mark-line role-mark layer_0_marks"><path d="M71.64179104477611,266.6666666666667L80.59701492537313,306.8039994218642L89.55223880597015,330.2828339626217L98.50746268656717,346.94133217706167L107.46268656716417,296.24649994884754L116.4179104477612,290.14550120742416L125.3731343283582,286.1504047570984L134.32835820895522,286.1504047570984L143.28358208955223,286.1504047570984L152.23880597014926,258.9344070696418L161.19402985074626,246.01307200190092L170.14925373134326,240.49404731413756L179.1044776119403,230.82062502765598L188.05970149253733,222.5342374611434L197.01492537313433,222.5342374611434L205.97014925373134,211.97673798812679L214.92537313432834,218.79707431444427L223.8805970149254,208.8459252081904L232.8358208955224,205.87573924670343L241.7910447761194,208.8459252081904L250.7462686567164,208.8459252081904L259.7014925373134,203.05049937071172L268.65671641791045,203.05049937071172L277.6119402985075,195.3182397736868L286.56716417910445,195.3182397736868L295.5223880597015,197.7826938662219L304.4776119402985,203.05049937071172L313.4328358208955,195.3182397736868L322.3880597014925,195.3182397736868L331.34328358208955,192.95440417896253L340.29850746268653,192.95440417896253L349.2537313432836,203.05049937071172L358.2089552238806,203.05049937071172L367.1641791044776,195.3182397736868L376.11940298507466,208.8459252081904L385.07462686567163,205.8757392467034L394.02985074626866,203.05049937071172L402.9850746268657,208.8459252081904L411.94029850746267,203.05049937071166L420.8955223880597,208.8459252081904L429.8507462686567,203.05049937071172L438.8059701492537,205.8757392467034L447.7611940298508,211.97673798812679L456.7164179104478,230.82062502765598L465.6716417910448,235.45557252888426L474.6268656716418,240.49404731413756L483.5820895522388,226.52933391146917L492.53731343283584,240.49404731413756L501.4925373134328,230.82062502765598L510.44776119402985,230.82062502765598L519.4029850746268,226.52933391146917L528.3582089552239,222.5342374611434L537.3134328358209,230.82062502765598L546.2686567164179,252.11407074332425L555.223880597015,258.9344070696418L564.179104477612,275.5929052840818L573.1343283582089,299.07173982483926L582.0895522388059,315.73023803927924L591.044776119403,339.2090725800367L600,339.2090725800367" style="fill: none; stroke: #e45756; stroke-width: 3;"></path></g></g><path class="foreground" d="" style="display: none; fill: none;"></path></g></g><g class="mark-symbol role-mark layer_1_marks"><path transform="translate(0,266.6666666666667)" d="M2.7386127875258306,0A2.7386127875258306,2.7386127875258306,0,1,1,-2.7386127875258306,0A2.7386127875258306,2.7386127875258306,0,1,1,2.7386127875258306,0" style="fill: none; stroke: #4c78a8; stroke-width: 2; opacity: 0.5;"></path><path transform="translate(35.82089552238806,186.39200115627168)" d="M2.7386127875258306,0A2.7386127875258306,2.7386127875258306,0,1,1,-2.7386127875258306,0A2.7386127875258306,2.7386127875258306,0,1,1,2.7386127875258306,0" style="fill: none; stroke: #4c78a8; stroke-width: 2; opacity: 0.5;"></path><path transform="translate(44.776119402985074,203.05049937071172)" d="M2.7386127875258306,0A2.7386127875258306,2.7386127875258306,0,1,1,-2.7386127875258306,0A2.7386127875258306,2.7386127875258306,0,1,1,2.7386127875258306,0" style="fill: none; stroke: #4c78a8; stroke-width: 2; opacity: 0.5;"></path><path transform="translate(62.6865671641791,146.25466840107418)" d="M2.7386127875258306,0A2.7386127875258306,2.7386127875258306,0,1,1,-2.7386127875258306,0A2.7386127875258306,2.7386127875258306,0,1,1,2.7386127875258306,0" style="fill: none; stroke: #4c78a8; stroke-width: 2; opacity: 0.5;"></path><path transform="translate(71.64179104477611,162.91316661551417)" d="M2.7386127875258306,0A2.7386127875258306,2.7386127875258306,0,1,1,-2.7386127875258306,0A2.7386127875258306,2.7386127875258306,0,1,1,2.7386127875258306,0" style="fill: none; stroke: #4c78a8; stroke-width: 2; opacity: 0.5;"></path><path transform="translate(80.59701492537313,173.47066608853083)" d="M2.7386127875258306,0A2.7386127875258306,2.7386127875258306,0,1,1,-2.7386127875258306,0A2.7386127875258306,2.7386127875258306,0,1,1,2.7386127875258306,0" style="fill: none; stroke: #4c78a8; stroke-width: 2; opacity: 0.5;"></path><path transform="translate(89.55223880597015,173.47066608853083)" d="M2.7386127875258306,0A2.7386127875258306,2.7386127875258306,0,1,1,-2.7386127875258306,0A2.7386127875258306,2.7386127875258306,0,1,1,2.7386127875258306,0" style="fill: none; stroke: #4c78a8; stroke-width: 2; opacity: 0.5;"></path><path transform="translate(98.50746268656717,122.7758338603167)" d="M2.7386127875258306,0A2.7386127875258306,2.7386127875258306,0,1,1,-2.7386127875258306,0A2.7386127875258306,2.7386127875258306,0,1,1,2.7386127875258306,0" style="fill: none; stroke: #4c78a8; stroke-width: 2; opacity: 0.5;"></path><path transform="translate(107.46268656716417,133.33333333333331)" d="M2.7386127875258306,0A2.7386127875258306,2.7386127875258306,0,1,1,-2.7386127875258306,0A2.7386127875258306,2.7386127875258306,0,1,1,2.7386127875258306,0" style="fill: none; stroke: #4c78a8; stroke-width: 2; opacity: 0.5;"></path><path transform="translate(116.4179104477612,139.4343320747567)" d="M2.7386127875258306,0A2.7386127875258306,2.7386127875258306,0,1,1,-2.7386127875258306,0A2.7386127875258306,2.7386127875258306,0,1,1,2.7386127875258306,0" style="fill: none; stroke: #4c78a8; stroke-width: 2; opacity: 0.5;"></path><path transform="translate(125.3731343283582,65.98000289067923)" d="M2.7386127875258306,0A2.7386127875258306,2.7386127875258306,0,1,1,-2.7386127875258306,0A2.7386127875258306,2.7386127875258306,0,1,1,2.7386127875258306,0" style="fill: none; stroke: #4c78a8; stroke-width: 2; opacity: 0.5;"></path><path transform="translate(134.32835820895522,43.720285608571)" d="M2.7386127875258306,0A2.7386127875258306,2.7386127875258306,0,1,1,-2.7386127875258306,0A2.7386127875258306,2.7386127875258306,0,1,1,2.7386127875258306,0" style="fill: none; stroke: #4c78a8; stroke-width: 2; opacity: 0.5;"></path><path transform="translate(143.28358208955223,51.62881910403523)" d="M2.7386127875258306,0A2.7386127875258306,2.7386127875258306,0,1,1,-2.7386127875258306,0A2.7386127875258306,2.7386127875258306,0,1,1,2.7386127875258306,0" style="fill: none; stroke: #4c78a8; stroke-width: 2; opacity: 0.5;"></path><path transform="translate(152.23880597014926,35.68083202360421)" d="M2.7386127875258306,0A2.7386127875258306,2.7386127875258306,0,1,1,-2.7386127875258306,0A2.7386127875258306,2.7386127875258306,0,1,1,2.7386127875258306,0" style="fill: none; stroke: #4c78a8; stroke-width: 2; opacity: 0.5;"></path><path transform="translate(161.19402985074626,42.50116834992173)" d="M2.7386127875258306,0A2.7386127875258306,2.7386127875258306,0,1,1,-2.7386127875258306,0A2.7386127875258306,2.7386127875258306,0,1,1,2.7386127875258306,0" style="fill: none; stroke: #4c78a8; stroke-width: 2; opacity: 0.5;"></path><path transform="translate(170.14925373134326,85.10295519765432)" d="M2.7386127875258306,0A2.7386127875258306,2.7386127875258306,0,1,1,-2.7386127875258306,0A2.7386127875258306,2.7386127875258306,0,1,1,2.7386127875258306,0" style="fill: none; stroke: #4c78a8; stroke-width: 2; opacity: 0.5;"></path><path transform="translate(179.1044776119403,122.7758338603167)" d="M2.7386127875258306,0A2.7386127875258306,2.7386127875258306,0,1,1,-2.7386127875258306,0A2.7386127875258306,2.7386127875258306,0,1,1,2.7386127875258306,0" style="fill: none; stroke: #4c78a8; stroke-width: 2; opacity: 0.5;"></path><path transform="translate(188.05970149253733,11.491486348837743)" d="M2.7386127875258306,0A2.7386127875258306,2.7386127875258306,0,1,1,-2.7386127875258306,0A2.7386127875258306,2.7386127875258306,0,1,1,2.7386127875258306,0" style="fill: none; stroke: #4c78a8; stroke-width: 2; opacity: 0.5;"></path><path transform="translate(197.01492537313433,33.57492973250662)" d="M2.7386127875258306,0A2.7386127875258306,2.7386127875258306,0,1,1,-2.7386127875258306,0A2.7386127875258306,2.7386127875258306,0,1,1,2.7386127875258306,0" style="fill: none; stroke: #4c78a8; stroke-width: 2; opacity: 0.5;"></path><path transform="translate(205.97014925373134,19.02233380916418)" d="M2.7386127875258306,0A2.7386127875258306,2.7386127875258306,0,1,1,-2.7386127875258306,0A2.7386127875258306,2.7386127875258306,0,1,1,2.7386127875258306,0" style="fill: none; stroke: #4c78a8; stroke-width: 2; opacity: 0.5;"></path><path transform="translate(214.92537313432834,37.86622084869342)" d="M2.7386127875258306,0A2.7386127875258306,2.7386127875258306,0,1,1,-2.7386127875258306,0A2.7386127875258306,2.7386127875258306,0,1,1,2.7386127875258306,0" style="fill: none; stroke: #4c78a8; stroke-width: 2; opacity: 0.5;"></path><path transform="translate(223.8805970149254,40.137332755197484)" d="M2.7386127875258306,0A2.7386127875258306,2.7386127875258306,0,1,1,-2.7386127875258306,0A2.7386127875258306,2.7386127875258306,0,1,1,2.7386127875258306,0" style="fill: none; stroke: #4c78a8; stroke-width: 2; opacity: 0.5;"></path><path transform="translate(232.8358208955224,118.14088635908844)" d="M2.7386127875258306,0A2.7386127875258306,2.7386127875258306,0,1,1,-2.7386127875258306,0A2.7386127875258306,2.7386127875258306,0,1,1,2.7386127875258306,0" style="fill: none; stroke: #4c78a8; stroke-width: 2; opacity: 0.5;"></path><path transform="translate(241.7910447761194,203.05049937071172)" d="M2.7386127875258306,0A2.7386127875258306,2.7386127875258306,0,1,1,-2.7386127875258306,0A2.7386127875258306,2.7386127875258306,0,1,1,2.7386127875258306,0" style="fill: none; stroke: #4c78a8; stroke-width: 2; opacity: 0.5;"></path><path transform="translate(250.7462686567164,42.50116834992173)" d="M2.7386127875258306,0A2.7386127875258306,2.7386127875258306,0,1,1,-2.7386127875258306,0A2.7386127875258306,2.7386127875258306,0,1,1,2.7386127875258306,0" style="fill: none; stroke: #4c78a8; stroke-width: 2; opacity: 0.5;"></path><path transform="translate(259.7014925373134,65.98000289067923)" d="M2.7386127875258306,0A2.7386127875258306,2.7386127875258306,0,1,1,-2.7386127875258306,0A2.7386127875258306,2.7386127875258306,0,1,1,2.7386127875258306,0" style="fill: none; stroke: #4c78a8; stroke-width: 2; opacity: 0.5;"></path><path transform="translate(268.65671641791045,80.27466551039501)" d="M2.7386127875258306,0A2.7386127875258306,2.7386127875258306,0,1,1,-2.7386127875258306,0A2.7386127875258306,2.7386127875258306,0,1,1,2.7386127875258306,0" style="fill: none; stroke: #4c78a8; stroke-width: 2; opacity: 0.5;"></path><path transform="translate(277.6119402985075,57.573103457733986)" d="M2.7386127875258306,0A2.7386127875258306,2.7386127875258306,0,1,1,-2.7386127875258306,0A2.7386127875258306,2.7386127875258306,0,1,1,2.7386127875258306,0" style="fill: none; stroke: #4c78a8; stroke-width: 2; opacity: 0.5;"></path><path transform="translate(286.56716417910445,226.52933391146917)" d="M2.7386127875258306,0A2.7386127875258306,2.7386127875258306,0,1,1,-2.7386127875258306,0A2.7386127875258306,2.7386127875258306,0,1,1,2.7386127875258306,0" style="fill: none; stroke: #4c78a8; stroke-width: 2; opacity: 0.5;"></path><path transform="translate(295.5223880597015,118.14088635908844)" d="M2.7386127875258306,0A2.7386127875258306,2.7386127875258306,0,1,1,-2.7386127875258306,0A2.7386127875258306,2.7386127875258306,0,1,1,2.7386127875258306,0" style="fill: none; stroke: #4c78a8; stroke-width: 2; opacity: 0.5;"></path><path transform="translate(304.4776119402985,186.39200115627168)" d="M2.7386127875258306,0A2.7386127875258306,2.7386127875258306,0,1,1,-2.7386127875258306,0A2.7386127875258306,2.7386127875258306,0,1,1,2.7386127875258306,0" style="fill: none; stroke: #4c78a8; stroke-width: 2; opacity: 0.5;"></path><path transform="translate(313.4328358208955,75.8181647788017)" d="M2.7386127875258306,0A2.7386127875258306,2.7386127875258306,0,1,1,-2.7386127875258306,0A2.7386127875258306,2.7386127875258306,0,1,1,2.7386127875258306,0" style="fill: none; stroke: #4c78a8; stroke-width: 2; opacity: 0.5;"></path><path transform="translate(322.3880597014925,87.67697589037252)" d="M2.7386127875258306,0A2.7386127875258306,2.7386127875258306,0,1,1,-2.7386127875258306,0A2.7386127875258306,2.7386127875258306,0,1,1,2.7386127875258306,0" style="fill: none; stroke: #4c78a8; stroke-width: 2; opacity: 0.5;"></path><path transform="translate(331.34328358208955,71.68026694680587)" d="M2.7386127875258306,0A2.7386127875258306,2.7386127875258306,0,1,1,-2.7386127875258306,0A2.7386127875258306,2.7386127875258306,0,1,1,2.7386127875258306,0" style="fill: none; stroke: #4c78a8; stroke-width: 2; opacity: 0.5;"></path><path transform="translate(340.29850746268653,75.8181647788017)" d="M2.7386127875258306,0A2.7386127875258306,2.7386127875258306,0,1,1,-2.7386127875258306,0A2.7386127875258306,2.7386127875258306,0,1,1,2.7386127875258306,0" style="fill: none; stroke: #4c78a8; stroke-width: 2; opacity: 0.5;"></path><path transform="translate(349.2537313432836,90.3707607021441)" d="M2.7386127875258306,0A2.7386127875258306,2.7386127875258306,0,1,1,-2.7386127875258306,0A2.7386127875258306,2.7386127875258306,0,1,1,2.7386127875258306,0" style="fill: none; stroke: #4c78a8; stroke-width: 2; opacity: 0.5;"></path><path transform="translate(358.2089552238806,173.47066608853083)" d="M2.7386127875258306,0A2.7386127875258306,2.7386127875258306,0,1,1,-2.7386127875258306,0A2.7386127875258306,2.7386127875258306,0,1,1,2.7386127875258306,0" style="fill: none; stroke: #4c78a8; stroke-width: 2; opacity: 0.5;"></path><path transform="translate(367.1641791044776,266.6666666666667)" d="M2.7386127875258306,0A2.7386127875258306,2.7386127875258306,0,1,1,-2.7386127875258306,0A2.7386127875258306,2.7386127875258306,0,1,1,2.7386127875258306,0" style="fill: none; stroke: #4c78a8; stroke-width: 2; opacity: 0.5;"></path><path transform="translate(376.11940298507466,133.33333333333331)" d="M2.7386127875258306,0A2.7386127875258306,2.7386127875258306,0,1,1,-2.7386127875258306,0A2.7386127875258306,2.7386127875258306,0,1,1,2.7386127875258306,0" style="fill: none; stroke: #4c78a8; stroke-width: 2; opacity: 0.5;"></path><path transform="translate(385.07462686567163,109.85449879257585)" d="M2.7386127875258306,0A2.7386127875258306,2.7386127875258306,0,1,1,-2.7386127875258306,0A2.7386127875258306,2.7386127875258306,0,1,1,2.7386127875258306,0" style="fill: none; stroke: #4c78a8; stroke-width: 2; opacity: 0.5;"></path><path transform="translate(394.02985074626866,90.3707607021441)" d="M2.7386127875258306,0A2.7386127875258306,2.7386127875258306,0,1,1,-2.7386127875258306,0A2.7386127875258306,2.7386127875258306,0,1,1,2.7386127875258306,0" style="fill: none; stroke: #4c78a8; stroke-width: 2; opacity: 0.5;"></path><path transform="translate(402.9850746268657,106.11733564587671)" d="M2.7386127875258306,0A2.7386127875258306,2.7386127875258306,0,1,1,-2.7386127875258306,0A2.7386127875258306,2.7386127875258306,0,1,1,2.7386127875258306,0" style="fill: none; stroke: #4c78a8; stroke-width: 2; opacity: 0.5;"></path><path transform="translate(411.94029850746267,113.84959524290159)" d="M2.7386127875258306,0A2.7386127875258306,2.7386127875258306,0,1,1,-2.7386127875258306,0A2.7386127875258306,2.7386127875258306,0,1,1,2.7386127875258306,0" style="fill: none; stroke: #4c78a8; stroke-width: 2; opacity: 0.5;"></path><path transform="translate(420.8955223880597,266.6666666666667)" d="M2.7386127875258306,0A2.7386127875258306,2.7386127875258306,0,1,1,-2.7386127875258306,0A2.7386127875258306,2.7386127875258306,0,1,1,2.7386127875258306,0" style="fill: none; stroke: #4c78a8; stroke-width: 2; opacity: 0.5;"></path><path transform="translate(438.8059701492537,139.4343320747567)" d="M2.7386127875258306,0A2.7386127875258306,2.7386127875258306,0,1,1,-2.7386127875258306,0A2.7386127875258306,2.7386127875258306,0,1,1,2.7386127875258306,0" style="fill: none; stroke: #4c78a8; stroke-width: 2; opacity: 0.5;"></path><path transform="translate(447.7611940298508,127.81430864557)" d="M2.7386127875258306,0A2.7386127875258306,2.7386127875258306,0,1,1,-2.7386127875258306,0A2.7386127875258306,2.7386127875258306,0,1,1,2.7386127875258306,0" style="fill: none; stroke: #4c78a8; stroke-width: 2; opacity: 0.5;"></path><path transform="translate(456.7164179104478,113.84959524290159)" d="M2.7386127875258306,0A2.7386127875258306,2.7386127875258306,0,1,1,-2.7386127875258306,0A2.7386127875258306,2.7386127875258306,0,1,1,2.7386127875258306,0" style="fill: none; stroke: #4c78a8; stroke-width: 2; opacity: 0.5;"></path><path transform="translate(465.6716417910448,109.85449879257585)" d="M2.7386127875258306,0A2.7386127875258306,2.7386127875258306,0,1,1,-2.7386127875258306,0A2.7386127875258306,2.7386127875258306,0,1,1,2.7386127875258306,0" style="fill: none; stroke: #4c78a8; stroke-width: 2; opacity: 0.5;"></path><path transform="translate(474.6268656716418,186.39200115627168)" d="M2.7386127875258306,0A2.7386127875258306,2.7386127875258306,0,1,1,-2.7386127875258306,0A2.7386127875258306,2.7386127875258306,0,1,1,2.7386127875258306,0" style="fill: none; stroke: #4c78a8; stroke-width: 2; opacity: 0.5;"></path><path transform="translate(483.5820895522388,226.52933391146917)" d="M2.7386127875258306,0A2.7386127875258306,2.7386127875258306,0,1,1,-2.7386127875258306,0A2.7386127875258306,2.7386127875258306,0,1,1,2.7386127875258306,0" style="fill: none; stroke: #4c78a8; stroke-width: 2; opacity: 0.5;"></path><path transform="translate(492.53731343283584,266.6666666666667)" d="M2.7386127875258306,0A2.7386127875258306,2.7386127875258306,0,1,1,-2.7386127875258306,0A2.7386127875258306,2.7386127875258306,0,1,1,2.7386127875258306,0" style="fill: none; stroke: #4c78a8; stroke-width: 2; opacity: 0.5;"></path><path transform="translate(501.4925373134328,162.91316661551417)" d="M2.7386127875258306,0A2.7386127875258306,2.7386127875258306,0,1,1,-2.7386127875258306,0A2.7386127875258306,2.7386127875258306,0,1,1,2.7386127875258306,0" style="fill: none; stroke: #4c78a8; stroke-width: 2; opacity: 0.5;"></path><path transform="translate(510.44776119402985,153.98692799809913)" d="M2.7386127875258306,0A2.7386127875258306,2.7386127875258306,0,1,1,-2.7386127875258306,0A2.7386127875258306,2.7386127875258306,0,1,1,2.7386127875258306,0" style="fill: none; stroke: #4c78a8; stroke-width: 2; opacity: 0.5;"></path><path transform="translate(519.4029850746268,133.33333333333331)" d="M2.7386127875258306,0A2.7386127875258306,2.7386127875258306,0,1,1,-2.7386127875258306,0A2.7386127875258306,2.7386127875258306,0,1,1,2.7386127875258306,0" style="fill: none; stroke: #4c78a8; stroke-width: 2; opacity: 0.5;"></path><path transform="translate(528.3582089552239,153.98692799809913)" d="M2.7386127875258306,0A2.7386127875258306,2.7386127875258306,0,1,1,-2.7386127875258306,0A2.7386127875258306,2.7386127875258306,0,1,1,2.7386127875258306,0" style="fill: none; stroke: #4c78a8; stroke-width: 2; opacity: 0.5;"></path><path transform="translate(537.3134328358209,139.4343320747567)" d="M2.7386127875258306,0A2.7386127875258306,2.7386127875258306,0,1,1,-2.7386127875258306,0A2.7386127875258306,2.7386127875258306,0,1,1,2.7386127875258306,0" style="fill: none; stroke: #4c78a8; stroke-width: 2; opacity: 0.5;"></path><path transform="translate(546.2686567164179,266.6666666666667)" d="M2.7386127875258306,0A2.7386127875258306,2.7386127875258306,0,1,1,-2.7386127875258306,0A2.7386127875258306,2.7386127875258306,0,1,1,2.7386127875258306,0" style="fill: none; stroke: #4c78a8; stroke-width: 2; opacity: 0.5;"></path><path transform="translate(152.23880597014926,96.16618653962283)" d="M2.7386127875258306,0A2.7386127875258306,2.7386127875258306,0,1,1,-2.7386127875258306,0A2.7386127875258306,2.7386127875258306,0,1,1,2.7386127875258306,0" style="fill: none; stroke: #f58518; stroke-width: 2; opacity: 0.5;"></path><path transform="translate(161.19402985074626,71.68026694680587)" d="M2.7386127875258306,0A2.7386127875258306,2.7386127875258306,0,1,1,-2.7386127875258306,0A2.7386127875258306,2.7386127875258306,0,1,1,2.7386127875258306,0" style="fill: none; stroke: #f58518; stroke-width: 2; opacity: 0.5;"></path><path transform="translate(188.05970149253733,226.52933391146917)" d="M2.7386127875258306,0A2.7386127875258306,2.7386127875258306,0,1,1,-2.7386127875258306,0A2.7386127875258306,2.7386127875258306,0,1,1,2.7386127875258306,0" style="fill: none; stroke: #f58518; stroke-width: 2; opacity: 0.5;"></path><path transform="translate(197.01492537313433,146.25466840107418)" d="M2.7386127875258306,0A2.7386127875258306,2.7386127875258306,0,1,1,-2.7386127875258306,0A2.7386127875258306,2.7386127875258306,0,1,1,2.7386127875258306,0" style="fill: none; stroke: #f58518; stroke-width: 2; opacity: 0.5;"></path><path transform="translate(205.97014925373134,146.25466840107418)" d="M2.7386127875258306,0A2.7386127875258306,2.7386127875258306,0,1,1,-2.7386127875258306,0A2.7386127875258306,2.7386127875258306,0,1,1,2.7386127875258306,0" style="fill: none; stroke: #f58518; stroke-width: 2; opacity: 0.5;"></path><path transform="translate(214.92537313432834,146.25466840107418)" d="M2.7386127875258306,0A2.7386127875258306,2.7386127875258306,0,1,1,-2.7386127875258306,0A2.7386127875258306,2.7386127875258306,0,1,1,2.7386127875258306,0" style="fill: none; stroke: #f58518; stroke-width: 2; opacity: 0.5;"></path><path transform="translate(223.8805970149254,122.7758338603167)" d="M2.7386127875258306,0A2.7386127875258306,2.7386127875258306,0,1,1,-2.7386127875258306,0A2.7386127875258306,2.7386127875258306,0,1,1,2.7386127875258306,0" style="fill: none; stroke: #f58518; stroke-width: 2; opacity: 0.5;"></path><path transform="translate(232.8358208955224,226.52933391146917)" d="M2.7386127875258306,0A2.7386127875258306,2.7386127875258306,0,1,1,-2.7386127875258306,0A2.7386127875258306,2.7386127875258306,0,1,1,2.7386127875258306,0" style="fill: none; stroke: #f58518; stroke-width: 2; opacity: 0.5;"></path><path transform="translate(241.7910447761194,266.6666666666667)" d="M2.7386127875258306,0A2.7386127875258306,2.7386127875258306,0,1,1,-2.7386127875258306,0A2.7386127875258306,2.7386127875258306,0,1,1,2.7386127875258306,0" style="fill: none; stroke: #f58518; stroke-width: 2; opacity: 0.5;"></path><path transform="translate(250.7462686567164,106.11733564587671)" d="M2.7386127875258306,0A2.7386127875258306,2.7386127875258306,0,1,1,-2.7386127875258306,0A2.7386127875258306,2.7386127875258306,0,1,1,2.7386127875258306,0" style="fill: none; stroke: #f58518; stroke-width: 2; opacity: 0.5;"></path><path transform="translate(259.7014925373134,78.00355360389095)" d="M2.7386127875258306,0A2.7386127875258306,2.7386127875258306,0,1,1,-2.7386127875258306,0A2.7386127875258306,2.7386127875258306,0,1,1,2.7386127875258306,0" style="fill: none; stroke: #f58518; stroke-width: 2; opacity: 0.5;"></path><path transform="translate(268.65671641791045,62.469477727699285)" d="M2.7386127875258306,0A2.7386127875258306,2.7386127875258306,0,1,1,-2.7386127875258306,0A2.7386127875258306,2.7386127875258306,0,1,1,2.7386127875258306,0" style="fill: none; stroke: #f58518; stroke-width: 2; opacity: 0.5;"></path><path transform="translate(277.6119402985075,99.2969993195592)" d="M2.7386127875258306,0A2.7386127875258306,2.7386127875258306,0,1,1,-2.7386127875258306,0A2.7386127875258306,2.7386127875258306,0,1,1,2.7386127875258306,0" style="fill: none; stroke: #f58518; stroke-width: 2; opacity: 0.5;"></path><path transform="translate(286.56716417910445,173.47066608853083)" d="M2.7386127875258306,0A2.7386127875258306,2.7386127875258306,0,1,1,-2.7386127875258306,0A2.7386127875258306,2.7386127875258306,0,1,1,2.7386127875258306,0" style="fill: none; stroke: #f58518; stroke-width: 2; opacity: 0.5;"></path><path transform="translate(295.5223880597015,186.39200115627168)" d="M2.7386127875258306,0A2.7386127875258306,2.7386127875258306,0,1,1,-2.7386127875258306,0A2.7386127875258306,2.7386127875258306,0,1,1,2.7386127875258306,0" style="fill: none; stroke: #f58518; stroke-width: 2; opacity: 0.5;"></path><path transform="translate(304.4776119402985,203.05049937071172)" d="M2.7386127875258306,0A2.7386127875258306,2.7386127875258306,0,1,1,-2.7386127875258306,0A2.7386127875258306,2.7386127875258306,0,1,1,2.7386127875258306,0" style="fill: none; stroke: #f58518; stroke-width: 2; opacity: 0.5;"></path><path transform="translate(313.4328358208955,71.68026694680587)" d="M2.7386127875258306,0A2.7386127875258306,2.7386127875258306,0,1,1,-2.7386127875258306,0A2.7386127875258306,2.7386127875258306,0,1,1,2.7386127875258306,0" style="fill: none; stroke: #f58518; stroke-width: 2; opacity: 0.5;"></path><path transform="translate(322.3880597014925,38.99064318694183)" d="M2.7386127875258306,0A2.7386127875258306,2.7386127875258306,0,1,1,-2.7386127875258306,0A2.7386127875258306,2.7386127875258306,0,1,1,2.7386127875258306,0" style="fill: none; stroke: #f58518; stroke-width: 2; opacity: 0.5;"></path><path transform="translate(331.34328358208955,48.87087258938845)" d="M2.7386127875258306,0A2.7386127875258306,2.7386127875258306,0,1,1,-2.7386127875258306,0A2.7386127875258306,2.7386127875258306,0,1,1,2.7386127875258306,0" style="fill: none; stroke: #f58518; stroke-width: 2; opacity: 0.5;"></path><path transform="translate(340.29850746268653,47.53964313517503)" d="M2.7386127875258306,0A2.7386127875258306,2.7386127875258306,0,1,1,-2.7386127875258306,0A2.7386127875258306,2.7386127875258306,0,1,1,2.7386127875258306,0" style="fill: none; stroke: #f58518; stroke-width: 2; opacity: 0.5;"></path><path transform="translate(349.2537313432836,53.05866782293833)" d="M2.7386127875258306,0A2.7386127875258306,2.7386127875258306,0,1,1,-2.7386127875258306,0A2.7386127875258306,2.7386127875258306,0,1,1,2.7386127875258306,0" style="fill: none; stroke: #f58518; stroke-width: 2; opacity: 0.5;"></path><path transform="translate(358.2089552238806,113.84959524290159)" d="M2.7386127875258306,0A2.7386127875258306,2.7386127875258306,0,1,1,-2.7386127875258306,0A2.7386127875258306,2.7386127875258306,0,1,1,2.7386127875258306,0" style="fill: none; stroke: #f58518; stroke-width: 2; opacity: 0.5;"></path><path transform="translate(367.1641791044776,226.52933391146917)" d="M2.7386127875258306,0A2.7386127875258306,2.7386127875258306,0,1,1,-2.7386127875258306,0A2.7386127875258306,2.7386127875258306,0,1,1,2.7386127875258306,0" style="fill: none; stroke: #f58518; stroke-width: 2; opacity: 0.5;"></path><path transform="translate(376.11940298507466,42.50116834992173)" d="M2.7386127875258306,0A2.7386127875258306,2.7386127875258306,0,1,1,-2.7386127875258306,0A2.7386127875258306,2.7386127875258306,0,1,1,2.7386127875258306,0" style="fill: none; stroke: #f58518; stroke-width: 2; opacity: 0.5;"></path><path transform="translate(385.07462686567163,22.3321449725018)" d="M2.7386127875258306,0A2.7386127875258306,2.7386127875258306,0,1,1,-2.7386127875258306,0A2.7386127875258306,2.7386127875258306,0,1,1,2.7386127875258306,0" style="fill: none; stroke: #f58518; stroke-width: 2; opacity: 0.5;"></path><path transform="translate(394.02985074626866,15.891521029227862)" d="M2.7386127875258306,0A2.7386127875258306,2.7386127875258306,0,1,1,-2.7386127875258306,0A2.7386127875258306,2.7386127875258306,0,1,1,2.7386127875258306,0" style="fill: none; stroke: #f58518; stroke-width: 2; opacity: 0.5;"></path><path transform="translate(402.9850746268657,15.134569977002421)" d="M2.7386127875258306,0A2.7386127875258306,2.7386127875258306,0,1,1,-2.7386127875258306,0A2.7386127875258306,2.7386127875258306,0,1,1,2.7386127875258306,0" style="fill: none; stroke: #f58518; stroke-width: 2; opacity: 0.5;"></path><path transform="translate(411.94029850746267,10.789587683190138)" d="M2.7386127875258306,0A2.7386127875258306,2.7386127875258306,0,1,1,-2.7386127875258306,0A2.7386127875258306,2.7386127875258306,0,1,1,2.7386127875258306,0" style="fill: none; stroke: #f58518; stroke-width: 2; opacity: 0.5;"></path><path transform="translate(420.8955223880597,102.60681048289678)" d="M2.7386127875258306,0A2.7386127875258306,2.7386127875258306,0,1,1,-2.7386127875258306,0A2.7386127875258306,2.7386127875258306,0,1,1,2.7386127875258306,0" style="fill: none; stroke: #f58518; stroke-width: 2; opacity: 0.5;"></path><path transform="translate(429.8507462686567,162.91316661551417)" d="M2.7386127875258306,0A2.7386127875258306,2.7386127875258306,0,1,1,-2.7386127875258306,0A2.7386127875258306,2.7386127875258306,0,1,1,2.7386127875258306,0" style="fill: none; stroke: #f58518; stroke-width: 2; opacity: 0.5;"></path><path transform="translate(438.8059701492537,16.65849821444003)" d="M2.7386127875258306,0A2.7386127875258306,2.7386127875258306,0,1,1,-2.7386127875258306,0A2.7386127875258306,2.7386127875258306,0,1,1,2.7386127875258306,0" style="fill: none; stroke: #f58518; stroke-width: 2; opacity: 0.5;"></path><path transform="translate(447.7611940298508,16.65849821444003)" d="M2.7386127875258306,0A2.7386127875258306,2.7386127875258306,0,1,1,-2.7386127875258306,0A2.7386127875258306,2.7386127875258306,0,1,1,2.7386127875258306,0" style="fill: none; stroke: #f58518; stroke-width: 2; opacity: 0.5;"></path><path transform="translate(456.7164179104478,47.53964313517503)" d="M2.7386127875258306,0A2.7386127875258306,2.7386127875258306,0,1,1,-2.7386127875258306,0A2.7386127875258306,2.7386127875258306,0,1,1,2.7386127875258306,0" style="fill: none; stroke: #f58518; stroke-width: 2; opacity: 0.5;"></path><path transform="translate(465.6716417910448,32.55001924366776)" d="M2.7386127875258306,0A2.7386127875258306,2.7386127875258306,0,1,1,-2.7386127875258306,0A2.7386127875258306,2.7386127875258306,0,1,1,2.7386127875258306,0" style="fill: none; stroke: #f58518; stroke-width: 2; opacity: 0.5;"></path><path transform="translate(474.6268656716418,23.19002630655649)" d="M2.7386127875258306,0A2.7386127875258306,2.7386127875258306,0,1,1,-2.7386127875258306,0A2.7386127875258306,2.7386127875258306,0,1,1,2.7386127875258306,0" style="fill: none; stroke: #f58518; stroke-width: 2; opacity: 0.5;"></path><path transform="translate(483.5820895522388,106.11733564587671)" d="M2.7386127875258306,0A2.7386127875258306,2.7386127875258306,0,1,1,-2.7386127875258306,0A2.7386127875258306,2.7386127875258306,0,1,1,2.7386127875258306,0" style="fill: none; stroke: #f58518; stroke-width: 2; opacity: 0.5;"></path><path transform="translate(492.53731343283584,153.98692799809913)" d="M2.7386127875258306,0A2.7386127875258306,2.7386127875258306,0,1,1,-2.7386127875258306,0A2.7386127875258306,2.7386127875258306,0,1,1,2.7386127875258306,0" style="fill: none; stroke: #f58518; stroke-width: 2; opacity: 0.5;"></path><path transform="translate(501.4925373134328,9.410809904760997)" d="M2.7386127875258306,0A2.7386127875258306,2.7386127875258306,0,1,1,-2.7386127875258306,0A2.7386127875258306,2.7386127875258306,0,1,1,2.7386127875258306,0" style="fill: none; stroke: #f58518; stroke-width: 2; opacity: 0.5;"></path><path transform="translate(510.44776119402985,16.65849821444003)" d="M2.7386127875258306,0A2.7386127875258306,2.7386127875258306,0,1,1,-2.7386127875258306,0A2.7386127875258306,2.7386127875258306,0,1,1,2.7386127875258306,0" style="fill: none; stroke: #f58518; stroke-width: 2; opacity: 0.5;"></path><path transform="translate(519.4029850746268,25.842670135481693)" d="M2.7386127875258306,0A2.7386127875258306,2.7386127875258306,0,1,1,-2.7386127875258306,0A2.7386127875258306,2.7386127875258306,0,1,1,2.7386127875258306,0" style="fill: none; stroke: #f58518; stroke-width: 2; opacity: 0.5;"></path><path transform="translate(528.3582089552239,31.54293419160834)" d="M2.7386127875258306,0A2.7386127875258306,2.7386127875258306,0,1,1,-2.7386127875258306,0A2.7386127875258306,2.7386127875258306,0,1,1,2.7386127875258306,0" style="fill: none; stroke: #f58518; stroke-width: 2; opacity: 0.5;"></path><path transform="translate(537.3134328358209,41.307189329531504)" d="M2.7386127875258306,0A2.7386127875258306,2.7386127875258306,0,1,1,-2.7386127875258306,0A2.7386127875258306,2.7386127875258306,0,1,1,2.7386127875258306,0" style="fill: none; stroke: #f58518; stroke-width: 2; opacity: 0.5;"></path><path transform="translate(546.2686567164179,186.39200115627168)" d="M2.7386127875258306,0A2.7386127875258306,2.7386127875258306,0,1,1,-2.7386127875258306,0A2.7386127875258306,2.7386127875258306,0,1,1,2.7386127875258306,0" style="fill: none; stroke: #f58518; stroke-width: 2; opacity: 0.5;"></path><path transform="translate(555.223880597015,226.52933391146917)" d="M2.7386127875258306,0A2.7386127875258306,2.7386127875258306,0,1,1,-2.7386127875258306,0A2.7386127875258306,2.7386127875258306,0,1,1,2.7386127875258306,0" style="fill: none; stroke: #f58518; stroke-width: 2; opacity: 0.5;"></path><path transform="translate(564.179104477612,186.39200115627168)" d="M2.7386127875258306,0A2.7386127875258306,2.7386127875258306,0,1,1,-2.7386127875258306,0A2.7386127875258306,2.7386127875258306,0,1,1,2.7386127875258306,0" style="fill: none; stroke: #f58518; stroke-width: 2; opacity: 0.5;"></path><path transform="translate(71.64179104477611,266.6666666666667)" d="M2.7386127875258306,0A2.7386127875258306,2.7386127875258306,0,1,1,-2.7386127875258306,0A2.7386127875258306,2.7386127875258306,0,1,1,2.7386127875258306,0" style="fill: none; stroke: #e45756; stroke-width: 2; opacity: 0.5;"></path><path transform="translate(107.46268656716417,226.52933391146917)" d="M2.7386127875258306,0A2.7386127875258306,2.7386127875258306,0,1,1,-2.7386127875258306,0A2.7386127875258306,2.7386127875258306,0,1,1,2.7386127875258306,0" style="fill: none; stroke: #e45756; stroke-width: 2; opacity: 0.5;"></path><path transform="translate(116.4179104477612,266.6666666666667)" d="M2.7386127875258306,0A2.7386127875258306,2.7386127875258306,0,1,1,-2.7386127875258306,0A2.7386127875258306,2.7386127875258306,0,1,1,2.7386127875258306,0" style="fill: none; stroke: #e45756; stroke-width: 2; opacity: 0.5;"></path><path transform="translate(125.3731343283582,266.6666666666667)" d="M2.7386127875258306,0A2.7386127875258306,2.7386127875258306,0,1,1,-2.7386127875258306,0A2.7386127875258306,2.7386127875258306,0,1,1,2.7386127875258306,0" style="fill: none; stroke: #e45756; stroke-width: 2; opacity: 0.5;"></path><path transform="translate(134.32835820895522,266.6666666666667)" d="M2.7386127875258306,0A2.7386127875258306,2.7386127875258306,0,1,1,-2.7386127875258306,0A2.7386127875258306,2.7386127875258306,0,1,1,2.7386127875258306,0" style="fill: none; stroke: #e45756; stroke-width: 2; opacity: 0.5;"></path><path transform="translate(152.23880597014926,203.05049937071172)" d="M2.7386127875258306,0A2.7386127875258306,2.7386127875258306,0,1,1,-2.7386127875258306,0A2.7386127875258306,2.7386127875258306,0,1,1,2.7386127875258306,0" style="fill: none; stroke: #e45756; stroke-width: 2; opacity: 0.5;"></path><path transform="translate(161.19402985074626,226.52933391146917)" d="M2.7386127875258306,0A2.7386127875258306,2.7386127875258306,0,1,1,-2.7386127875258306,0A2.7386127875258306,2.7386127875258306,0,1,1,2.7386127875258306,0" style="fill: none; stroke: #e45756; stroke-width: 2; opacity: 0.5;"></path><path transform="translate(170.14925373134326,203.05049937071172)" d="M2.7386127875258306,0A2.7386127875258306,2.7386127875258306,0,1,1,-2.7386127875258306,0A2.7386127875258306,2.7386127875258306,0,1,1,2.7386127875258306,0" style="fill: none; stroke: #e45756; stroke-width: 2; opacity: 0.5;"></path><path transform="translate(179.1044776119403,203.05049937071172)" d="M2.7386127875258306,0A2.7386127875258306,2.7386127875258306,0,1,1,-2.7386127875258306,0A2.7386127875258306,2.7386127875258306,0,1,1,2.7386127875258306,0" style="fill: none; stroke: #e45756; stroke-width: 2; opacity: 0.5;"></path><path transform="translate(188.05970149253733,203.05049937071172)" d="M2.7386127875258306,0A2.7386127875258306,2.7386127875258306,0,1,1,-2.7386127875258306,0A2.7386127875258306,2.7386127875258306,0,1,1,2.7386127875258306,0" style="fill: none; stroke: #e45756; stroke-width: 2; opacity: 0.5;"></path><path transform="translate(197.01492537313433,266.6666666666667)" d="M2.7386127875258306,0A2.7386127875258306,2.7386127875258306,0,1,1,-2.7386127875258306,0A2.7386127875258306,2.7386127875258306,0,1,1,2.7386127875258306,0" style="fill: none; stroke: #e45756; stroke-width: 2; opacity: 0.5;"></path><path transform="translate(205.97014925373134,203.05049937071172)" d="M2.7386127875258306,0A2.7386127875258306,2.7386127875258306,0,1,1,-2.7386127875258306,0A2.7386127875258306,2.7386127875258306,0,1,1,2.7386127875258306,0" style="fill: none; stroke: #e45756; stroke-width: 2; opacity: 0.5;"></path><path transform="translate(214.92537313432834,266.6666666666667)" d="M2.7386127875258306,0A2.7386127875258306,2.7386127875258306,0,1,1,-2.7386127875258306,0A2.7386127875258306,2.7386127875258306,0,1,1,2.7386127875258306,0" style="fill: none; stroke: #e45756; stroke-width: 2; opacity: 0.5;"></path><path transform="translate(223.8805970149254,173.47066608853083)" d="M2.7386127875258306,0A2.7386127875258306,2.7386127875258306,0,1,1,-2.7386127875258306,0A2.7386127875258306,2.7386127875258306,0,1,1,2.7386127875258306,0" style="fill: none; stroke: #e45756; stroke-width: 2; opacity: 0.5;"></path><path transform="translate(232.8358208955224,186.39200115627168)" d="M2.7386127875258306,0A2.7386127875258306,2.7386127875258306,0,1,1,-2.7386127875258306,0A2.7386127875258306,2.7386127875258306,0,1,1,2.7386127875258306,0" style="fill: none; stroke: #e45756; stroke-width: 2; opacity: 0.5;"></path><path transform="translate(241.7910447761194,226.52933391146917)" d="M2.7386127875258306,0A2.7386127875258306,2.7386127875258306,0,1,1,-2.7386127875258306,0A2.7386127875258306,2.7386127875258306,0,1,1,2.7386127875258306,0" style="fill: none; stroke: #e45756; stroke-width: 2; opacity: 0.5;"></path><path transform="translate(250.7462686567164,203.05049937071172)" d="M2.7386127875258306,0A2.7386127875258306,2.7386127875258306,0,1,1,-2.7386127875258306,0A2.7386127875258306,2.7386127875258306,0,1,1,2.7386127875258306,0" style="fill: none; stroke: #e45756; stroke-width: 2; opacity: 0.5;"></path><path transform="translate(259.7014925373134,203.05049937071172)" d="M2.7386127875258306,0A2.7386127875258306,2.7386127875258306,0,1,1,-2.7386127875258306,0A2.7386127875258306,2.7386127875258306,0,1,1,2.7386127875258306,0" style="fill: none; stroke: #e45756; stroke-width: 2; opacity: 0.5;"></path><path transform="translate(268.65671641791045,203.05049937071172)" d="M2.7386127875258306,0A2.7386127875258306,2.7386127875258306,0,1,1,-2.7386127875258306,0A2.7386127875258306,2.7386127875258306,0,1,1,2.7386127875258306,0" style="fill: none; stroke: #e45756; stroke-width: 2; opacity: 0.5;"></path><path transform="translate(277.6119402985075,186.39200115627168)" d="M2.7386127875258306,0A2.7386127875258306,2.7386127875258306,0,1,1,-2.7386127875258306,0A2.7386127875258306,2.7386127875258306,0,1,1,2.7386127875258306,0" style="fill: none; stroke: #e45756; stroke-width: 2; opacity: 0.5;"></path><path transform="translate(286.56716417910445,173.47066608853083)" d="M2.7386127875258306,0A2.7386127875258306,2.7386127875258306,0,1,1,-2.7386127875258306,0A2.7386127875258306,2.7386127875258306,0,1,1,2.7386127875258306,0" style="fill: none; stroke: #e45756; stroke-width: 2; opacity: 0.5;"></path><path transform="translate(295.5223880597015,203.05049937071172)" d="M2.7386127875258306,0A2.7386127875258306,2.7386127875258306,0,1,1,-2.7386127875258306,0A2.7386127875258306,2.7386127875258306,0,1,1,2.7386127875258306,0" style="fill: none; stroke: #e45756; stroke-width: 2; opacity: 0.5;"></path><path transform="translate(313.4328358208955,162.91316661551417)" d="M2.7386127875258306,0A2.7386127875258306,2.7386127875258306,0,1,1,-2.7386127875258306,0A2.7386127875258306,2.7386127875258306,0,1,1,2.7386127875258306,0" style="fill: none; stroke: #e45756; stroke-width: 2; opacity: 0.5;"></path><path transform="translate(322.3880597014925,203.05049937071172)" d="M2.7386127875258306,0A2.7386127875258306,2.7386127875258306,0,1,1,-2.7386127875258306,0A2.7386127875258306,2.7386127875258306,0,1,1,2.7386127875258306,0" style="fill: none; stroke: #e45756; stroke-width: 2; opacity: 0.5;"></path><path transform="translate(331.34328358208955,186.39200115627168)" d="M2.7386127875258306,0A2.7386127875258306,2.7386127875258306,0,1,1,-2.7386127875258306,0A2.7386127875258306,2.7386127875258306,0,1,1,2.7386127875258306,0" style="fill: none; stroke: #e45756; stroke-width: 2; opacity: 0.5;"></path><path transform="translate(340.29850746268653,186.39200115627168)" d="M2.7386127875258306,0A2.7386127875258306,2.7386127875258306,0,1,1,-2.7386127875258306,0A2.7386127875258306,2.7386127875258306,0,1,1,2.7386127875258306,0" style="fill: none; stroke: #e45756; stroke-width: 2; opacity: 0.5;"></path><path transform="translate(349.2537313432836,266.6666666666667)" d="M2.7386127875258306,0A2.7386127875258306,2.7386127875258306,0,1,1,-2.7386127875258306,0A2.7386127875258306,2.7386127875258306,0,1,1,2.7386127875258306,0" style="fill: none; stroke: #e45756; stroke-width: 2; opacity: 0.5;"></path><path transform="translate(358.2089552238806,203.05049937071172)" d="M2.7386127875258306,0A2.7386127875258306,2.7386127875258306,0,1,1,-2.7386127875258306,0A2.7386127875258306,2.7386127875258306,0,1,1,2.7386127875258306,0" style="fill: none; stroke: #e45756; stroke-width: 2; opacity: 0.5;"></path><path transform="translate(367.1641791044776,203.05049937071172)" d="M2.7386127875258306,0A2.7386127875258306,2.7386127875258306,0,1,1,-2.7386127875258306,0A2.7386127875258306,2.7386127875258306,0,1,1,2.7386127875258306,0" style="fill: none; stroke: #e45756; stroke-width: 2; opacity: 0.5;"></path><path transform="translate(376.11940298507466,266.6666666666667)" d="M2.7386127875258306,0A2.7386127875258306,2.7386127875258306,0,1,1,-2.7386127875258306,0A2.7386127875258306,2.7386127875258306,0,1,1,2.7386127875258306,0" style="fill: none; stroke: #e45756; stroke-width: 2; opacity: 0.5;"></path><path transform="translate(385.07462686567163,186.39200115627168)" d="M2.7386127875258306,0A2.7386127875258306,2.7386127875258306,0,1,1,-2.7386127875258306,0A2.7386127875258306,2.7386127875258306,0,1,1,2.7386127875258306,0" style="fill: none; stroke: #e45756; stroke-width: 2; opacity: 0.5;"></path><path transform="translate(394.02985074626866,173.47066608853083)" d="M2.7386127875258306,0A2.7386127875258306,2.7386127875258306,0,1,1,-2.7386127875258306,0A2.7386127875258306,2.7386127875258306,0,1,1,2.7386127875258306,0" style="fill: none; stroke: #e45756; stroke-width: 2; opacity: 0.5;"></path><path transform="translate(402.9850746268657,226.52933391146917)" d="M2.7386127875258306,0A2.7386127875258306,2.7386127875258306,0,1,1,-2.7386127875258306,0A2.7386127875258306,2.7386127875258306,0,1,1,2.7386127875258306,0" style="fill: none; stroke: #e45756; stroke-width: 2; opacity: 0.5;"></path><path transform="translate(411.94029850746267,203.05049937071172)" d="M2.7386127875258306,0A2.7386127875258306,2.7386127875258306,0,1,1,-2.7386127875258306,0A2.7386127875258306,2.7386127875258306,0,1,1,2.7386127875258306,0" style="fill: none; stroke: #e45756; stroke-width: 2; opacity: 0.5;"></path><path transform="translate(420.8955223880597,266.6666666666667)" d="M2.7386127875258306,0A2.7386127875258306,2.7386127875258306,0,1,1,-2.7386127875258306,0A2.7386127875258306,2.7386127875258306,0,1,1,2.7386127875258306,0" style="fill: none; stroke: #e45756; stroke-width: 2; opacity: 0.5;"></path><path transform="translate(429.8507462686567,173.47066608853083)" d="M2.7386127875258306,0A2.7386127875258306,2.7386127875258306,0,1,1,-2.7386127875258306,0A2.7386127875258306,2.7386127875258306,0,1,1,2.7386127875258306,0" style="fill: none; stroke: #e45756; stroke-width: 2; opacity: 0.5;"></path><path transform="translate(447.7611940298508,226.52933391146917)" d="M2.7386127875258306,0A2.7386127875258306,2.7386127875258306,0,1,1,-2.7386127875258306,0A2.7386127875258306,2.7386127875258306,0,1,1,2.7386127875258306,0" style="fill: none; stroke: #e45756; stroke-width: 2; opacity: 0.5;"></path><path transform="translate(465.6716417910448,266.6666666666667)" d="M2.7386127875258306,0A2.7386127875258306,2.7386127875258306,0,1,1,-2.7386127875258306,0A2.7386127875258306,2.7386127875258306,0,1,1,2.7386127875258306,0" style="fill: none; stroke: #e45756; stroke-width: 2; opacity: 0.5;"></path><path transform="translate(474.6268656716418,226.52933391146917)" d="M2.7386127875258306,0A2.7386127875258306,2.7386127875258306,0,1,1,-2.7386127875258306,0A2.7386127875258306,2.7386127875258306,0,1,1,2.7386127875258306,0" style="fill: none; stroke: #e45756; stroke-width: 2; opacity: 0.5;"></path><path transform="translate(483.5820895522388,186.39200115627168)" d="M2.7386127875258306,0A2.7386127875258306,2.7386127875258306,0,1,1,-2.7386127875258306,0A2.7386127875258306,2.7386127875258306,0,1,1,2.7386127875258306,0" style="fill: none; stroke: #e45756; stroke-width: 2; opacity: 0.5;"></path><path transform="translate(492.53731343283584,226.52933391146917)" d="M2.7386127875258306,0A2.7386127875258306,2.7386127875258306,0,1,1,-2.7386127875258306,0A2.7386127875258306,2.7386127875258306,0,1,1,2.7386127875258306,0" style="fill: none; stroke: #e45756; stroke-width: 2; opacity: 0.5;"></path><path transform="translate(501.4925373134328,226.52933391146917)" d="M2.7386127875258306,0A2.7386127875258306,2.7386127875258306,0,1,1,-2.7386127875258306,0A2.7386127875258306,2.7386127875258306,0,1,1,2.7386127875258306,0" style="fill: none; stroke: #e45756; stroke-width: 2; opacity: 0.5;"></path><path transform="translate(510.44776119402985,226.52933391146917)" d="M2.7386127875258306,0A2.7386127875258306,2.7386127875258306,0,1,1,-2.7386127875258306,0A2.7386127875258306,2.7386127875258306,0,1,1,2.7386127875258306,0" style="fill: none; stroke: #e45756; stroke-width: 2; opacity: 0.5;"></path><path transform="translate(519.4029850746268,266.6666666666667)" d="M2.7386127875258306,0A2.7386127875258306,2.7386127875258306,0,1,1,-2.7386127875258306,0A2.7386127875258306,2.7386127875258306,0,1,1,2.7386127875258306,0" style="fill: none; stroke: #e45756; stroke-width: 2; opacity: 0.5;"></path><path transform="translate(528.3582089552239,226.52933391146917)" d="M2.7386127875258306,0A2.7386127875258306,2.7386127875258306,0,1,1,-2.7386127875258306,0A2.7386127875258306,2.7386127875258306,0,1,1,2.7386127875258306,0" style="fill: none; stroke: #e45756; stroke-width: 2; opacity: 0.5;"></path><path transform="translate(555.223880597015,266.6666666666667)" d="M2.7386127875258306,0A2.7386127875258306,2.7386127875258306,0,1,1,-2.7386127875258306,0A2.7386127875258306,2.7386127875258306,0,1,1,2.7386127875258306,0" style="fill: none; stroke: #e45756; stroke-width: 2; opacity: 0.5;"></path><path transform="translate(591.044776119403,266.6666666666667)" d="M2.7386127875258306,0A2.7386127875258306,2.7386127875258306,0,1,1,-2.7386127875258306,0A2.7386127875258306,2.7386127875258306,0,1,1,2.7386127875258306,0" style="fill: none; stroke: #e45756; stroke-width: 2; opacity: 0.5;"></path></g><g class="mark-group role-legend"><g transform="translate(0,-32)"><path class="background" d="M0,0h269v14h-269Z" style="pointer-events: none; fill: none;"></path><g><g class="mark-group role-legend-entry"><g transform="translate(0,0)"><path class="background" d="M0,0h0v0h0Z" style="pointer-events: none; fill: none;"></path><g><g class="mark-group role-scope"><g transform="translate(0,0)"><path class="background" d="M0,0h97.365234375v14h-97.365234375Z" style="pointer-events: none; fill: none; opacity: 1;"></path><g><g class="mark-symbol role-legend-symbol" style="pointer-events: none;"><path transform="translate(7,7)" d="M5,0A5,5,0,1,1,-5,0A5,5,0,1,1,5,0" style="fill: none; stroke: #4c78a8; stroke-width: 1.5; opacity: 0.5;"></path></g><g class="mark-text role-legend-label" style="pointer-events: none;"><text text-anchor="start" transform="translate(18,11)" style="font-family: sans-serif; font-size: 14px; fill: #000; opacity: 1;">Confirmados</text></g></g><path class="foreground" d="" style="pointer-events: none; display: none; fill: none;"></path></g><g transform="translate(108,0)"><path class="background" d="M0,0h81.041015625v14h-81.041015625Z" style="pointer-events: none; fill: none; opacity: 1;"></path><g><g class="mark-symbol role-legend-symbol" style="pointer-events: none;"><path transform="translate(7,7)" d="M5,0A5,5,0,1,1,-5,0A5,5,0,1,1,5,0" style="fill: none; stroke: #f58518; stroke-width: 1.5; opacity: 0.5;"></path></g><g class="mark-text role-legend-label" style="pointer-events: none;"><text text-anchor="start" transform="translate(18,11)" style="font-family: sans-serif; font-size: 14px; fill: #000; opacity: 1;">Probables</text></g></g><path class="foreground" d="" style="pointer-events: none; display: none; fill: none;"></path></g><g transform="translate(200,0)"><path class="background" d="M0,0h68.572265625v14h-68.572265625Z" style="pointer-events: none; fill: none; opacity: 1;"></path><g><g class="mark-symbol role-legend-symbol" style="pointer-events: none;"><path transform="translate(7,7)" d="M5,0A5,5,0,1,1,-5,0A5,5,0,1,1,5,0" style="fill: none; stroke: #e45756; stroke-width: 1.5; opacity: 0.5;"></path></g><g class="mark-text role-legend-label" style="pointer-events: none;"><text text-anchor="start" transform="translate(18,11)" style="font-family: sans-serif; font-size: 14px; fill: #000; opacity: 1;">Muertes</text></g></g><path class="foreground" d="" style="pointer-events: none; display: none; fill: none;"></path></g></g></g><path class="foreground" d="" style="pointer-events: none; display: none; fill: none;"></path></g></g></g><path class="foreground" d="" style="pointer-events: none; display: none; fill: none;"></path></g></g></g><path class="foreground" d="" style="display: none; fill: none;"></path></g></g></g></svg>