<svg class="marks" width="667" height="219" viewBox="0 0 667 219" version="1.1" xmlns="http://www.w3.org/2000/svg" xmlns:xlink="http://www.w3.org/1999/xlink"><rect width="667" height="219" style="fill: white;"></rect><g transform="translate(76,10)"><g class="mark-group role-frame root"><g transform="translate(0,0)"><path class="background" d="M0,0h0v0h0Z" style="fill: none;"></path><g><g class="mark-group role-row-header row_header"><g transform="translate(-1,0)"><path class="background" d="M0,0h0v70h0Z" style="fill: none;"></path><g><g class="mark-group role-title"><g transform="translate(-69.896484375,35)"><path class="background" d="M0,0h0v0h0Z" style="pointer-events: none; fill: none;"></path><g><g class="mark-text role-title-text" style="pointer-events: none;"><text text-anchor="middle" transform="translate(0,0) rotate(-90) translate(0,11)" style="font-family: sans-serif; font-size: 14px; fill: #000; opacity: 1;">Confirmados</text></g></g><path class="foreground" d="" style="pointer-events: none; display: none; fill: none;"></path></g></g><g class="mark-group role-axis"><g transform="translate(0.5,0.5)"><path class="background" d="M0,0h0v0h0Z" style="pointer-events: none; fill: none;"></path><g><g class="mark-rule role-axis-tick" style="pointer-events: none;"><line transform="translate(0,11)" x2="-5" y2="0" style="fill: none; stroke: #888; stroke-width: 1; opacity: 1;"></line><line transform="translate(0,35)" x2="-5" y2="0" style="fill: none; stroke: #888; stroke-width: 1; opacity: 1;"></line><line transform="translate(0,58)" x2="-5" y2="0" style="fill: none; stroke: #888; stroke-width: 1; opacity: 1;"></line></g><g class="mark-text role-axis-label" style="pointer-events: none;"><text text-anchor="end" transform="translate(-7,15.166666666666666)" style="font-family: sans-serif; font-size: 14px; fill: #000; opacity: 1;">mayo</text><text text-anchor="end" transform="translate(-7,38.5)" style="font-family: sans-serif; font-size: 14px; fill: #000; opacity: 1;">abril</text><text text-anchor="end" transform="translate(-7,61.83333333333333)" style="font-family: sans-serif; font-size: 14px; fill: #000; opacity: 1;">marzo</text></g><g class="mark-rule role-axis-domain" style="pointer-events: none;"><line transform="translate(0,0)" x2="0" y2="70" style="fill: none; stroke: #888; stroke-width: 1; opacity: 1;"></line></g></g><path class="foreground" d="" style="pointer-events: none; display: none; fill: none;"></path></g></g></g><path class="foreground" d="" style="display: none; fill: none;"></path></g><g transform="translate(-1,92)"><path class="background" d="M0,0h0v70h0Z" style="fill: none;"></path><g><g class="mark-group role-title"><g transform="translate(-69.896484375,35)"><path class="background" d="M0,0h0v0h0Z" style="pointer-events: none; fill: none;"></path><g><g class="mark-text role-title-text" style="pointer-events: none;"><text text-anchor="middle" transform="translate(0,0) rotate(-90) translate(0,11)" style="font-family: sans-serif; font-size: 14px; fill: #000; opacity: 1;">Probables</text></g></g><path class="foreground" d="" style="pointer-events: none; display: none; fill: none;"></path></g></g><g class="mark-group role-axis"><g transform="translate(0.5,0.5)"><path class="background" d="M0,0h0v0h0Z" style="pointer-events: none; fill: none;"></path><g><g class="mark-rule role-axis-tick" style="pointer-events: none;"><line transform="translate(0,11)" x2="-5" y2="0" style="fill: none; stroke: #888; stroke-width: 1; opacity: 1;"></line><line transform="translate(0,35)" x2="-5" y2="0" style="fill: none; stroke: #888; stroke-width: 1; opacity: 1;"></line><line transform="translate(0,58)" x2="-5" y2="0" style="fill: none; stroke: #888; stroke-width: 1; opacity: 1;"></line></g><g class="mark-text role-axis-label" style="pointer-events: none;"><text text-anchor="end" transform="translate(-7,15.166666666666666)" style="font-family: sans-serif; font-size: 14px; fill: #000; opacity: 1;">mayo</text><text text-anchor="end" transform="translate(-7,38.5)" style="font-family: sans-serif; font-size: 14px; fill: #000; opacity: 1;">abril</text><text text-anchor="end" transform="translate(-7,61.83333333333333)" style="font-family: sans-serif; font-size: 14px; fill: #000; opacity: 1;">marzo</text></g><g class="mark-rule role-axis-domain" style="pointer-events: none;"><line transform="translate(0,0)" x2="0" y2="70" style="fill: none; stroke: #888; stroke-width: 1; opacity: 1;"></line></g></g><path class="foreground" d="" style="pointer-events: none; display: none; fill: none;"></path></g></g></g><path class="foreground" d="" style="display: none; fill: none;"></path></g></g><g class="mark-group role-column-footer column_footer"><g transform="translate(0,163)"><path class="background" d="M0,0h585v0h-585Z" style="fill: none;"></path><g><g class="mark-group role-axis"><g transform="translate(0.5,0.5)"><path class="background" d="M0,0h0v0h0Z" style="pointer-events: none; fill: none;"></path><g><g class="mark-rule role-axis-tick" style="pointer-events: none;"><line transform="translate(10,0)" x2="0" y2="5" style="fill: none; stroke: #888; stroke-width: 1; opacity: 1;"></line><line transform="translate(32,0)" x2="0" y2="5" style="fill: none; stroke: #888; stroke-width: 1; opacity: 1;"></line><line transform="translate(54,0)" x2="0" y2="5" style="fill: none; stroke: #888; stroke-width: 1; opacity: 1;"></line><line transform="translate(75,0)" x2="0" y2="5" style="fill: none; stroke: #888; stroke-width: 1; opacity: 1;"></line><line transform="translate(97,0)" x2="0" y2="5" style="fill: none; stroke: #888; stroke-width: 1; opacity: 1;"></line><line transform="translate(119,0)" x2="0" y2="5" style="fill: none; stroke: #888; stroke-width: 1; opacity: 1;"></line><line transform="translate(140,0)" x2="0" y2="5" style="fill: none; stroke: #888; stroke-width: 1; opacity: 1;"></line><line transform="translate(162,0)" x2="0" y2="5" style="fill: none; stroke: #888; stroke-width: 1; opacity: 1;"></line><line transform="translate(184,0)" x2="0" y2="5" style="fill: none; stroke: #888; stroke-width: 1; opacity: 1;"></line><line transform="translate(205,0)" x2="0" y2="5" style="fill: none; stroke: #888; stroke-width: 1; opacity: 1;"></line><line transform="translate(227,0)" x2="0" y2="5" style="fill: none; stroke: #888; stroke-width: 1; opacity: 1;"></line><line transform="translate(249,0)" x2="0" y2="5" style="fill: none; stroke: #888; stroke-width: 1; opacity: 1;"></line><line transform="translate(270,0)" x2="0" y2="5" style="fill: none; stroke: #888; stroke-width: 1; opacity: 1;"></line><line transform="translate(292,0)" x2="0" y2="5" style="fill: none; stroke: #888; stroke-width: 1; opacity: 1;"></line><line transform="translate(314,0)" x2="0" y2="5" style="fill: none; stroke: #888; stroke-width: 1; opacity: 1;"></line><line transform="translate(335,0)" x2="0" y2="5" style="fill: none; stroke: #888; stroke-width: 1; opacity: 1;"></line><line transform="translate(357,0)" x2="0" y2="5" style="fill: none; stroke: #888; stroke-width: 1; opacity: 1;"></line><line transform="translate(379,0)" x2="0" y2="5" style="fill: none; stroke: #888; stroke-width: 1; opacity: 1;"></line><line transform="translate(400,0)" x2="0" y2="5" style="fill: none; stroke: #888; stroke-width: 1; opacity: 1;"></line><line transform="translate(422,0)" x2="0" y2="5" style="fill: none; stroke: #888; stroke-width: 1; opacity: 1;"></line><line transform="translate(444,0)" x2="0" y2="5" style="fill: none; stroke: #888; stroke-width: 1; opacity: 1;"></line><line transform="translate(465,0)" x2="0" y2="5" style="fill: none; stroke: #888; stroke-width: 1; opacity: 1;"></line><line transform="translate(487,0)" x2="0" y2="5" style="fill: none; stroke: #888; stroke-width: 1; opacity: 1;"></line><line transform="translate(509,0)" x2="0" y2="5" style="fill: none; stroke: #888; stroke-width: 1; opacity: 1;"></line><line transform="translate(530,0)" x2="0" y2="5" style="fill: none; stroke: #888; stroke-width: 1; opacity: 1;"></line><line transform="translate(552,0)" x2="0" y2="5" style="fill: none; stroke: #888; stroke-width: 1; opacity: 1;"></line><line transform="translate(574,0)" x2="0" y2="5" style="fill: none; stroke: #888; stroke-width: 1; opacity: 1;"></line></g><g class="mark-text role-axis-label" style="pointer-events: none;"><text text-anchor="end" transform="translate(10.333333333333334,7) rotate(270) translate(0,4)" style="font-family: sans-serif; font-size: 14px; fill: #000; opacity: 1;">01</text><text text-anchor="end" transform="translate(32,7) rotate(270) translate(0,4)" style="font-family: sans-serif; font-size: 14px; fill: #000; opacity: 1;">02</text><text text-anchor="end" transform="translate(53.66666666666667,7) rotate(270) translate(0,4)" style="font-family: sans-serif; font-size: 14px; fill: #000; opacity: 1;">03</text><text text-anchor="end" transform="translate(75.33333333333333,7) rotate(270) translate(0,4)" style="font-family: sans-serif; font-size: 14px; fill: #000; opacity: 1;">04</text><text text-anchor="end" transform="translate(97,7) rotate(270) translate(0,4)" style="font-family: sans-serif; font-size: 14px; fill: #000; opacity: 1;">05</text><text text-anchor="end" transform="translate(118.66666666666667,7) rotate(270) translate(0,4)" style="font-family: sans-serif; font-size: 14px; fill: #000; opacity: 1;">06</text><text text-anchor="end" transform="translate(140.33333333333334,7) rotate(270) translate(0,4)" style="font-family: sans-serif; font-size: 14px; fill: #000; opacity: 1;">07</text><text text-anchor="end" transform="translate(162.00000000000003,7) rotate(270) translate(0,4)" style="font-family: sans-serif; font-size: 14px; fill: #000; opacity: 1;">08</text><text text-anchor="end" transform="translate(183.66666666666669,7) rotate(270) translate(0,4)" style="font-family: sans-serif; font-size: 14px; fill: #000; opacity: 1;">09</text><text text-anchor="end" transform="translate(205.33333333333334,7) rotate(270) translate(0,4)" style="font-family: sans-serif; font-size: 14px; fill: #000; opacity: 1;">10</text><text text-anchor="end" transform="translate(227.00000000000003,7) rotate(270) translate(0,4)" style="font-family: sans-serif; font-size: 14px; fill: #000; opacity: 1;">11</text><text text-anchor="end" transform="translate(248.66666666666669,7) rotate(270) translate(0,4)" style="font-family: sans-serif; font-size: 14px; fill: #000; opacity: 1;">12</text><text text-anchor="end" transform="translate(270.3333333333333,7) rotate(270) translate(0,4)" style="font-family: sans-serif; font-size: 14px; fill: #000; opacity: 1;">13</text><text text-anchor="end" transform="translate(292,7) rotate(270) translate(0,4)" style="font-family: sans-serif; font-size: 14px; fill: #000; opacity: 1;">14</text><text text-anchor="end" transform="translate(313.6666666666667,7) rotate(270) translate(0,4)" style="font-family: sans-serif; font-size: 14px; fill: #000; opacity: 1;">15</text><text text-anchor="end" transform="translate(335.3333333333333,7) rotate(270) translate(0,4)" style="font-family: sans-serif; font-size: 14px; fill: #000; opacity: 1;">16</text><text text-anchor="end" transform="translate(357,7) rotate(270) translate(0,4)" style="font-family: sans-serif; font-size: 14px; fill: #000; opacity: 1;">17</text><text text-anchor="end" transform="translate(378.6666666666667,7) rotate(270) translate(0,4)" style="font-family: sans-serif; font-size: 14px; fill: #000; opacity: 1;">19</text><text text-anchor="end" transform="translate(400.3333333333333,7) rotate(270) translate(0,4)" style="font-family: sans-serif; font-size: 14px; fill: #000; opacity: 1;">20</text><text text-anchor="end" transform="translate(422,7) rotate(270) translate(0,4)" style="font-family: sans-serif; font-size: 14px; fill: #000; opacity: 1;">22</text><text text-anchor="end" transform="translate(443.6666666666667,7) rotate(270) translate(0,4)" style="font-family: sans-serif; font-size: 14px; fill: #000; opacity: 1;">23</text><text text-anchor="end" transform="translate(465.3333333333333,7) rotate(270) translate(0,4)" style="font-family: sans-serif; font-size: 14px; fill: #000; opacity: 1;">25</text><text text-anchor="end" transform="translate(487,7) rotate(270) translate(0,4)" style="font-family: sans-serif; font-size: 14px; fill: #000; opacity: 1;">27</text><text text-anchor="end" transform="translate(508.6666666666667,7) rotate(270) translate(0,4)" style="font-family: sans-serif; font-size: 14px; fill: #000; opacity: 1;">28</text><text text-anchor="end" transform="translate(530.3333333333334,7) rotate(270) translate(0,4)" style="font-family: sans-serif; font-size: 14px; fill: #000; opacity: 1;">29</text><text text-anchor="end" transform="translate(552.0000000000001,7) rotate(270) translate(0,4)" style="font-family: sans-serif; font-size: 14px; fill: #000; opacity: 1;">30</text><text text-anchor="end" transform="translate(573.6666666666667,7) rotate(270) translate(0,4)" style="font-family: sans-serif; font-size: 14px; fill: #000; opacity: 1;">31</text></g><g class="mark-rule role-axis-domain" style="pointer-events: none;"><line transform="translate(0,0)" x2="585" y2="0" style="fill: none; stroke: #888; stroke-width: 1; opacity: 1;"></line></g><g class="mark-text role-axis-title" style="pointer-events: none;"><text text-anchor="middle" transform="translate(292.5,37.57226562500006)" style="font-family: sans-serif; font-size: 14px; font-weight: bold; fill: #000; opacity: 1;">Día del mes</text></g></g><path class="foreground" d="" style="pointer-events: none; display: none; fill: none;"></path></g></g></g><path class="foreground" d="" style="display: none; fill: none;"></path></g></g><g class="mark-group role-scope cell"><g transform="translate(0,0)"><path class="background" d="M0.5,0.5h585v70h-585Z" style="fill: none; stroke: #ddd;"></path><g><g class="mark-rect role-mark child_layer_0_marks"><path d="M325,46.666666666666664h21.666666666666668v23.333333333333332h-21.666666666666668Z" style="fill: rgb(240, 237, 235);"></path><path d="M368.33333333333337,46.666666666666664h21.666666666666668v23.333333333333332h-21.666666666666668Z" style="fill: rgb(240, 237, 235);"></path><path d="M390,46.666666666666664h21.666666666666668v23.333333333333332h-21.666666666666668Z" style="fill: rgb(240, 237, 235);"></path><path d="M455,46.666666666666664h21.666666666666668v23.333333333333332h-21.666666666666668Z" style="fill: rgb(240, 237, 235);"></path><path d="M476.6666666666667,46.666666666666664h21.666666666666668v23.333333333333332h-21.666666666666668Z" style="fill: rgb(240, 237, 235);"></path><path d="M498.33333333333337,46.666666666666664h21.666666666666668v23.333333333333332h-21.666666666666668Z" style="fill: rgb(189, 189, 189);"></path><path d="M541.6666666666667,46.666666666666664h21.666666666666668v23.333333333333332h-21.666666666666668Z" style="fill: rgb(240, 237, 235);"></path><path d="M563.3333333333334,46.666666666666664h21.666666666666668v23.333333333333332h-21.666666666666668Z" style="fill: rgb(140, 13, 37);"></path><path d="M0,23.333333333333332h21.666666666666668v23.333333333333332h-21.666666666666668Z" style="fill: rgb(240, 237, 235);"></path><path d="M21.666666666666668,23.333333333333332h21.666666666666668v23.333333333333332h-21.666666666666668Z" style="fill: rgb(240, 237, 235);"></path><path d="M43.333333333333336,23.333333333333332h21.666666666666668v23.333333333333332h-21.666666666666668Z" style="fill: rgb(247, 189, 164);"></path><path d="M65,23.333333333333332h21.666666666666668v23.333333333333332h-21.666666666666668Z" style="fill: rgb(230, 229, 229);"></path><path d="M108.33333333333334,23.333333333333332h21.666666666666668v23.333333333333332h-21.666666666666668Z" style="fill: rgb(240, 237, 235);"></path><path d="M173.33333333333334,23.333333333333332h21.666666666666668v23.333333333333332h-21.666666666666668Z" style="fill: rgb(247, 189, 164);"></path><path d="M238.33333333333334,23.333333333333332h21.666666666666668v23.333333333333332h-21.666666666666668Z" style="fill: rgb(247, 189, 164);"></path><path d="M260,23.333333333333332h21.666666666666668v23.333333333333332h-21.666666666666668Z" style="fill: rgb(230, 229, 229);"></path><path d="M281.6666666666667,23.333333333333332h21.666666666666668v23.333333333333332h-21.666666666666668Z" style="fill: rgb(212, 95, 82);"></path><path d="M325,23.333333333333332h21.666666666666668v23.333333333333332h-21.666666666666668Z" style="fill: rgb(218, 218, 218);"></path><path d="M346.6666666666667,23.333333333333332h21.666666666666668v23.333333333333332h-21.666666666666668Z" style="fill: rgb(240, 237, 235);"></path><path d="M411.6666666666667,23.333333333333332h21.666666666666668v23.333333333333332h-21.666666666666668Z" style="fill: rgb(240, 237, 235);"></path><path d="M433.33333333333337,23.333333333333332h21.666666666666668v23.333333333333332h-21.666666666666668Z" style="fill: rgb(247, 189, 164);"></path><path d="M520,23.333333333333332h21.666666666666668v23.333333333333332h-21.666666666666668Z" style="fill: rgb(218, 218, 218);"></path><path d="M541.6666666666667,23.333333333333332h21.666666666666668v23.333333333333332h-21.666666666666668Z" style="fill: rgb(247, 189, 164);"></path><path d="M0,0h21.666666666666668v23.333333333333332h-21.666666666666668Z" style="fill: rgb(247, 189, 164);"></path><path d="M86.66666666666667,0h21.666666666666668v23.333333333333332h-21.666666666666668Z" style="fill: rgb(247, 189, 164);"></path><path d="M108.33333333333334,0h21.666666666666668v23.333333333333332h-21.666666666666668Z" style="fill: rgb(240, 237, 235);"></path><path d="M130,0h21.666666666666668v23.333333333333332h-21.666666666666668Z" style="fill: rgb(230, 229, 229);"></path><path d="M151.66666666666669,0h21.666666666666668v23.333333333333332h-21.666666666666668Z" style="fill: rgb(133, 133, 133);"></path><path d="M173.33333333333334,0h21.666666666666668v23.333333333333332h-21.666666666666668Z" style="fill: rgb(240, 237, 235);"></path></g><g class="mark-text role-mark child_layer_1_marks"><text text-anchor="middle" transform="translate(335.8333333333333,61.33333333333333)" style="font-family: sans-serif; font-size: 9px; fill: black;">1</text><text text-anchor="middle" transform="translate(379.1666666666667,61.33333333333333)" style="font-family: sans-serif; font-size: 9px; fill: black;">1</text><text text-anchor="middle" transform="translate(400.8333333333333,61.33333333333333)" style="font-family: sans-serif; font-size: 9px; fill: black;">1</text><text text-anchor="middle" transform="translate(465.8333333333333,61.33333333333333)" style="font-family: sans-serif; font-size: 9px; fill: black;">1</text><text text-anchor="middle" transform="translate(487.5,61.33333333333333)" style="font-family: sans-serif; font-size: 9px; fill: black;">1</text><text text-anchor="middle" transform="translate(509.1666666666667,61.33333333333333)" style="font-family: sans-serif; font-size: 9px; fill: black;">5</text><text text-anchor="middle" transform="translate(552.5000000000001,61.33333333333333)" style="font-family: sans-serif; font-size: 9px; fill: black;">1</text><text text-anchor="middle" transform="translate(574.1666666666667,61.33333333333333)" style="font-family: sans-serif; font-size: 9px; fill: white;">-3</text><text text-anchor="middle" transform="translate(10.833333333333334,38)" style="font-family: sans-serif; font-size: 9px; fill: black;">1</text><text text-anchor="middle" transform="translate(32.5,38)" style="font-family: sans-serif; font-size: 9px; fill: black;">1</text><text text-anchor="middle" transform="translate(54.16666666666667,38)" style="font-family: sans-serif; font-size: 9px; fill: black;">-1</text><text text-anchor="middle" transform="translate(75.83333333333333,38)" style="font-family: sans-serif; font-size: 9px; fill: black;">2</text><text text-anchor="middle" transform="translate(119.16666666666667,38)" style="font-family: sans-serif; font-size: 9px; fill: black;">1</text><text text-anchor="middle" transform="translate(184.16666666666669,38)" style="font-family: sans-serif; font-size: 9px; fill: black;">-1</text><text text-anchor="middle" transform="translate(249.16666666666669,38)" style="font-family: sans-serif; font-size: 9px; fill: black;">-1</text><text text-anchor="middle" transform="translate(270.8333333333333,38)" style="font-family: sans-serif; font-size: 9px; fill: black;">2</text><text text-anchor="middle" transform="translate(292.5,38)" style="font-family: sans-serif; font-size: 9px; fill: white;">-2</text><text text-anchor="middle" transform="translate(335.8333333333333,38)" style="font-family: sans-serif; font-size: 9px; fill: black;">3</text><text text-anchor="middle" transform="translate(357.5,38)" style="font-family: sans-serif; font-size: 9px; fill: black;">1</text><text text-anchor="middle" transform="translate(422.5,38)" style="font-family: sans-serif; font-size: 9px; fill: black;">1</text><text text-anchor="middle" transform="translate(444.1666666666667,38)" style="font-family: sans-serif; font-size: 9px; fill: black;">-1</text><text text-anchor="middle" transform="translate(530.8333333333334,38)" style="font-family: sans-serif; font-size: 9px; fill: black;">3</text><text text-anchor="middle" transform="translate(552.5000000000001,38)" style="font-family: sans-serif; font-size: 9px; fill: black;">-1</text><text text-anchor="middle" transform="translate(10.833333333333334,14.666666666666666)" style="font-family: sans-serif; font-size: 9px; fill: black;">-1</text><text text-anchor="middle" transform="translate(97.5,14.666666666666666)" style="font-family: sans-serif; font-size: 9px; fill: black;">-1</text><text text-anchor="middle" transform="translate(119.16666666666667,14.666666666666666)" style="font-family: sans-serif; font-size: 9px; fill: black;">1</text><text text-anchor="middle" transform="translate(140.83333333333334,14.666666666666666)" style="font-family: sans-serif; font-size: 9px; fill: black;">2</text><text text-anchor="middle" transform="translate(162.50000000000003,14.666666666666666)" style="font-family: sans-serif; font-size: 9px; fill: white;">8</text><text text-anchor="middle" transform="translate(184.16666666666669,14.666666666666666)" style="font-family: sans-serif; font-size: 9px; fill: black;">1</text></g></g><path class="foreground" d="" style="display: none; fill: none;"></path></g><g transform="translate(0,92)"><path class="background" d="M0.5,0.5h585v70h-585Z" style="fill: none; stroke: #ddd;"></path><g><g class="mark-rect role-mark child_layer_0_marks"><path d="M281.6666666666667,23.333333333333332h21.666666666666668v23.333333333333332h-21.666666666666668Z" style="fill: rgb(247, 189, 164);"></path><path d="M303.33333333333337,23.333333333333332h21.666666666666668v23.333333333333332h-21.666666666666668Z" style="fill: rgb(247, 189, 164);"></path><path d="M346.6666666666667,23.333333333333332h21.666666666666668v23.333333333333332h-21.666666666666668Z" style="fill: rgb(240, 237, 235);"></path><path d="M411.6666666666667,23.333333333333332h21.666666666666668v23.333333333333332h-21.666666666666668Z" style="fill: rgb(140, 13, 37);"></path><path d="M498.33333333333337,23.333333333333332h21.666666666666668v23.333333333333332h-21.666666666666668Z" style="fill: rgb(247, 189, 164);"></path><path d="M520,23.333333333333332h21.666666666666668v23.333333333333332h-21.666666666666668Z" style="fill: rgb(240, 237, 235);"></path><path d="M21.666666666666668,0h21.666666666666668v23.333333333333332h-21.666666666666668Z" style="fill: rgb(247, 189, 164);"></path><path d="M86.66666666666667,0h21.666666666666668v23.333333333333332h-21.666666666666668Z" style="fill: rgb(247, 189, 164);"></path><path d="M108.33333333333334,0h21.666666666666668v23.333333333333332h-21.666666666666668Z" style="fill: rgb(171, 171, 171);"></path><path d="M130,0h21.666666666666668v23.333333333333332h-21.666666666666668Z" style="fill: rgb(240, 237, 235);"></path><path d="M151.66666666666669,0h21.666666666666668v23.333333333333332h-21.666666666666668Z" style="fill: rgb(52, 52, 52);"></path><path d="M173.33333333333334,0h21.666666666666668v23.333333333333332h-21.666666666666668Z" style="fill: rgb(230, 229, 229);"></path><path d="M195,0h21.666666666666668v23.333333333333332h-21.666666666666668Z" style="fill: rgb(230, 229, 229);"></path><path d="M216.66666666666669,0h21.666666666666668v23.333333333333332h-21.666666666666668Z" style="fill: rgb(203, 203, 203);"></path></g><g class="mark-text role-mark child_layer_1_marks"><text text-anchor="middle" transform="translate(292.5,38)" style="font-family: sans-serif; font-size: 9px; fill: black;">-1</text><text text-anchor="middle" transform="translate(314.1666666666667,38)" style="font-family: sans-serif; font-size: 9px; fill: black;">-1</text><text text-anchor="middle" transform="translate(357.5,38)" style="font-family: sans-serif; font-size: 9px; fill: black;">1</text><text text-anchor="middle" transform="translate(422.5,38)" style="font-family: sans-serif; font-size: 9px; fill: white;">-3</text><text text-anchor="middle" transform="translate(509.1666666666667,38)" style="font-family: sans-serif; font-size: 9px; fill: black;">-1</text><text text-anchor="middle" transform="translate(530.8333333333334,38)" style="font-family: sans-serif; font-size: 9px; fill: black;">1</text><text text-anchor="middle" transform="translate(32.5,14.666666666666666)" style="font-family: sans-serif; font-size: 9px; fill: black;">-1</text><text text-anchor="middle" transform="translate(97.5,14.666666666666666)" style="font-family: sans-serif; font-size: 9px; fill: black;">-1</text><text text-anchor="middle" transform="translate(119.16666666666667,14.666666666666666)" style="font-family: sans-serif; font-size: 9px; fill: white;">6</text><text text-anchor="middle" transform="translate(140.83333333333334,14.666666666666666)" style="font-family: sans-serif; font-size: 9px; fill: black;">1</text><text text-anchor="middle" transform="translate(162.50000000000003,14.666666666666666)" style="font-family: sans-serif; font-size: 9px; fill: white;">12</text><text text-anchor="middle" transform="translate(184.16666666666669,14.666666666666666)" style="font-family: sans-serif; font-size: 9px; fill: black;">2</text><text text-anchor="middle" transform="translate(205.83333333333334,14.666666666666666)" style="font-family: sans-serif; font-size: 9px; fill: black;">2</text><text text-anchor="middle" transform="translate(227.50000000000003,14.666666666666666)" style="font-family: sans-serif; font-size: 9px; fill: black;">4</text></g></g><path class="foreground" d="" style="display: none; fill: none;"></path></g></g></g><path class="foreground" d="" style="display: none; fill: none;"></path></g></g></g></svg>